solid OpenSCAD_Model
  facet normal 0 0 -1
    outer loop
      vertex -6.475 9.85 -4.2
      vertex -6.475 3.55 -4.2
      vertex -13.975 3.55 -4.2
    endloop
  endfacet
  facet normal 0 0 -1
    outer loop
      vertex -13.975 9.85 -4.2
      vertex -6.475 9.85 -4.2
      vertex -13.975 3.55 -4.2
    endloop
  endfacet
  facet normal -1 0 0
    outer loop
      vertex -13.975 9.85 4.2
      vertex -13.975 3.55 -4.2
      vertex -13.975 3.55 4.2
    endloop
  endfacet
  facet normal 0 0 1
    outer loop
      vertex -13.975 9.85 4.2
      vertex -13.975 3.55 4.2
      vertex -6.4750000000000005 3.55 4.2
    endloop
  endfacet
  facet normal -1 0 0
    outer loop
      vertex -13.975 9.85 -4.2
      vertex -13.975 3.55 -4.2
      vertex -13.975 9.85 4.2
    endloop
  endfacet
  facet normal 0 1 0
    outer loop
      vertex -13.975 9.85 -4.2
      vertex -12.511541433831999 9.85 -1.527818140803906
      vertex -12.169543648263005 9.85 -1.9445436482630059
    endloop
  endfacet
  facet normal 0 1 0
    outer loop
      vertex -13.975 9.85 -4.2
      vertex -12.765668714406038 9.85 -1.0523794390039969
      vertex -12.511541433831999 9.85 -1.527818140803906
    endloop
  endfacet
  facet normal 0 1 0
    outer loop
      vertex -13.975 9.85 -4.2
      vertex -12.922159521108883 9.85 -0.5364983855443527
      vertex -12.765668714406038 9.85 -1.0523794390039969
    endloop
  endfacet
  facet normal 0 1 0
    outer loop
      vertex -13.975 9.85 -4.2
      vertex -12.169543648263005 9.85 -1.9445436482630059
      vertex -11.752818140803905 9.85 -2.2865414338319994
    endloop
  endfacet
  facet normal 0 1 0
    outer loop
      vertex -13.975 9.85 -4.2
      vertex -11.277379439003997 9.85 -2.5406687144060385
      vertex -10.761498385544352 9.85 -2.6971595211088837
    endloop
  endfacet
  facet normal 0 1 0
    outer loop
      vertex -13.975 9.85 -4.2
      vertex -11.752818140803905 9.85 -2.2865414338319994
      vertex -11.277379439003997 9.85 -2.5406687144060385
    endloop
  endfacet
  facet normal 0 1 0
    outer loop
      vertex -13.975 9.85 -4.2
      vertex -10.761498385544352 9.85 -2.6971595211088837
      vertex -10.225 9.85 -2.75
    endloop
  endfacet
  facet normal 0 1 0
    outer loop
      vertex -13.975 9.85 -4.2
      vertex -10.225 9.85 -2.75
      vertex -9.688501614455648 9.85 -2.6971595211088837
    endloop
  endfacet
  facet normal 0 1 0
    outer loop
      vertex -13.975 9.85 -4.2
      vertex -13.975 9.85 4.2
      vertex -12.922159521108883 9.85 -0.5364983855443527
    endloop
  endfacet
  facet normal 0 1 0
    outer loop
      vertex -13.975 9.85 4.2
      vertex -12.975 9.85 0
      vertex -12.922159521108883 9.85 -0.5364983855443527
    endloop
  endfacet
  facet normal 0 1 0
    outer loop
      vertex -13.975 9.85 -4.2
      vertex -9.688501614455648 9.85 -2.6971595211088837
      vertex -6.475 9.85 -4.2
    endloop
  endfacet
  facet normal 0 1 0
    outer loop
      vertex -6.475 9.85 -4.2
      vertex -9.688501614455648 9.85 -2.6971595211088837
      vertex -9.172620560996002 9.85 -2.5406687144060385
    endloop
  endfacet
  facet normal 0 1 0
    outer loop
      vertex -6.475 9.85 -4.2
      vertex -9.172620560996002 9.85 -2.5406687144060385
      vertex -8.697181859196094 9.85 -2.2865414338319994
    endloop
  endfacet
  facet normal 0 1 0
    outer loop
      vertex -6.475 9.85 -4.2
      vertex -8.697181859196094 9.85 -2.2865414338319994
      vertex -8.280456351736994 9.85 -1.9445436482630059
    endloop
  endfacet
  facet normal 0 1 0
    outer loop
      vertex -6.475 9.85 -4.2
      vertex -8.280456351736994 9.85 -1.9445436482630059
      vertex -7.938458566168 9.85 -1.527818140803906
    endloop
  endfacet
  facet normal 0 1 0
    outer loop
      vertex -6.475 9.85 -4.2
      vertex -7.938458566168 9.85 -1.527818140803906
      vertex -7.684331285593961 9.85 -1.0523794390039969
    endloop
  endfacet
  facet normal 0 1 0
    outer loop
      vertex -13.975 9.85 4.2
      vertex -12.922159521108883 9.85 0.5364983855443527
      vertex -12.975 9.85 0
    endloop
  endfacet
  facet normal 0 1 0
    outer loop
      vertex -13.975 9.85 4.2
      vertex -12.765668714406038 9.85 1.0523794390039969
      vertex -12.922159521108883 9.85 0.5364983855443527
    endloop
  endfacet
  facet normal 0 1 0
    outer loop
      vertex -13.975 9.85 4.2
      vertex -12.511541433831999 9.85 1.527818140803906
      vertex -12.765668714406038 9.85 1.0523794390039969
    endloop
  endfacet
  facet normal 0 1 0
    outer loop
      vertex -13.975 9.85 4.2
      vertex -12.169543648263005 9.85 1.9445436482630059
      vertex -12.511541433831999 9.85 1.527818140803906
    endloop
  endfacet
  facet normal 0 1 0
    outer loop
      vertex -13.975 9.85 4.2
      vertex -11.752818140803905 9.85 2.2865414338319994
      vertex -12.169543648263005 9.85 1.9445436482630059
    endloop
  endfacet
  facet normal 0 1 0
    outer loop
      vertex -13.975 9.85 4.2
      vertex -11.277379439003997 9.85 2.5406687144060385
      vertex -11.752818140803905 9.85 2.2865414338319994
    endloop
  endfacet
  facet normal 0 1 0
    outer loop
      vertex -13.975 9.85 4.2
      vertex -10.761498385544352 9.85 2.6971595211088837
      vertex -11.277379439003997 9.85 2.5406687144060385
    endloop
  endfacet
  facet normal 0 0 1
    outer loop
      vertex -13.975 9.85 4.2
      vertex -6.4750000000000005 3.55 4.2
      vertex -6.475 9.85 4.2
    endloop
  endfacet
  facet normal 0 1 0
    outer loop
      vertex -13.975 9.85 4.2
      vertex -6.475 9.85 4.2
      vertex -10.761498385544352 9.85 2.6971595211088837
    endloop
  endfacet
  facet normal 0 1 0
    outer loop
      vertex -6.475 9.85 4.2
      vertex -7.684331285593961 9.85 1.0523794390039969
      vertex -7.938458566168 9.85 1.527818140803906
    endloop
  endfacet
  facet normal 0 1 0
    outer loop
      vertex -6.475 9.85 4.2
      vertex -7.938458566168 9.85 1.527818140803906
      vertex -8.280456351736994 9.85 1.9445436482630059
    endloop
  endfacet
  facet normal 0 1 0
    outer loop
      vertex -6.475 9.85 4.2
      vertex -10.225 9.85 2.75
      vertex -10.761498385544352 9.85 2.6971595211088837
    endloop
  endfacet
  facet normal 0 1 0
    outer loop
      vertex -6.475 9.85 4.2
      vertex -9.688501614455648 9.85 2.6971595211088837
      vertex -10.225 9.85 2.75
    endloop
  endfacet
  facet normal 0 1 0
    outer loop
      vertex -6.475 9.85 4.2
      vertex -9.172620560996002 9.85 2.5406687144060385
      vertex -9.688501614455648 9.85 2.6971595211088837
    endloop
  endfacet
  facet normal 0 1 0
    outer loop
      vertex -6.475 9.85 4.2
      vertex -8.697181859196094 9.85 2.2865414338319994
      vertex -9.172620560996002 9.85 2.5406687144060385
    endloop
  endfacet
  facet normal 0 1 0
    outer loop
      vertex -6.475 9.85 4.2
      vertex -8.280456351736994 9.85 1.9445436482630059
      vertex -8.697181859196094 9.85 2.2865414338319994
    endloop
  endfacet
  facet normal 1 0 1.0573552615477681e-16
    outer loop
      vertex -6.475 9.85 -4.2
      vertex -6.4750000000000005 3.55 4.2
      vertex -6.475 3.55 -4.2
    endloop
  endfacet
  facet normal -1 0 -1.586032892321652e-16
    outer loop
      vertex -2.325 9.85 4.2
      vertex -2.324999999999999 3.55 -4.2
      vertex -2.325 3.55 4.2
    endloop
  endfacet
  facet normal 0 1 0
    outer loop
      vertex -6.475 9.85 -4.2
      vertex -7.684331285593961 9.85 -1.0523794390039969
      vertex -7.527840478891116 9.85 -0.5364983855443527
    endloop
  endfacet
  facet normal 0 1 0
    outer loop
      vertex -6.475 9.85 -4.2
      vertex -7.527840478891116 9.85 -0.5364983855443527
      vertex -7.475 9.85 0
    endloop
  endfacet
  facet normal 0 1 0
    outer loop
      vertex -6.475 9.85 -4.2
      vertex -7.475 9.85 0
      vertex -7.527840478891116 9.85 0.5364983855443527
    endloop
  endfacet
  facet normal 0 1 0
    outer loop
      vertex -6.475 9.85 -4.2
      vertex -7.527840478891116 9.85 0.5364983855443527
      vertex -6.475 9.85 4.2
    endloop
  endfacet
  facet normal -1 -2.1147105230955364e-16 0
    outer loop
      vertex -2.325 9.85 -4.2
      vertex -2.324999999999999 3.55 -4.2
      vertex -2.325 9.85 4.2
    endloop
  endfacet
  facet normal 1 -1.409807015397024e-16 0
    outer loop
      vertex -6.475 9.85 -4.2
      vertex -6.475 9.85 4.2
      vertex -6.4750000000000005 3.55 4.2
    endloop
  endfacet
  facet normal 0 1 0
    outer loop
      vertex -6.475 9.85 4.2
      vertex -7.527840478891116 9.85 0.5364983855443527
      vertex -7.684331285593961 9.85 1.0523794390039969
    endloop
  endfacet
  facet normal 0 0 -1
    outer loop
      vertex -2.325 9.85 -4.2
      vertex 13.975000000000001 9.85 -4.2
      vertex -2.324999999999999 3.55 -4.2
    endloop
  endfacet
  facet normal 0 0 -1
    outer loop
      vertex 13.975000000000001 9.85 -4.2
      vertex 13.975000000000001 3.55 -4.2
      vertex -2.324999999999999 3.55 -4.2
    endloop
  endfacet
  facet normal 0 0 1
    outer loop
      vertex -2.325 9.85 4.2
      vertex -2.325 3.55 4.2
      vertex 13.975 3.55 4.2
    endloop
  endfacet
  facet normal 0 1 0
    outer loop
      vertex -2.325 9.85 -4.2
      vertex -2.325 9.85 4.2
      vertex 6.225 9.85 2.5
    endloop
  endfacet
  facet normal 0 1 0
    outer loop
      vertex -2.325 9.85 -4.2
      vertex 6.225 9.85 2.5
      vertex 6.225 9.85 -2.5
    endloop
  endfacet
  facet normal 0 1 0
    outer loop
      vertex -2.325 9.85 -4.2
      vertex 6.225 9.85 -2.5
      vertex 13.975000000000001 9.85 -4.2
    endloop
  endfacet
  facet normal 0 1 0
    outer loop
      vertex -2.325 9.85 4.2
      vertex 13.975000000000001 9.85 4.2
      vertex 6.225 9.85 2.5
    endloop
  endfacet
  facet normal 1 0 2.1147105230955362e-16
    outer loop
      vertex 13.975000000000001 9.85 -4.2
      vertex 13.975 3.55 4.2
      vertex 13.975000000000001 3.55 -4.2
    endloop
  endfacet
  facet normal 0 1 0
    outer loop
      vertex 13.975000000000001 9.85 -4.2
      vertex 6.225 9.85 -2.5
      vertex 12.725 9.85 -2.5
    endloop
  endfacet
  facet normal 0 1 0
    outer loop
      vertex 13.975000000000001 9.85 -4.2
      vertex 12.725 9.85 -2.5
      vertex 13.975000000000001 9.85 4.2
    endloop
  endfacet
  facet normal 0 0 1
    outer loop
      vertex -2.325 9.85 4.2
      vertex 13.975 3.55 4.2
      vertex 13.975000000000001 9.85 4.2
    endloop
  endfacet
  facet normal 0 1 0
    outer loop
      vertex 13.975000000000001 9.85 4.2
      vertex 12.725 9.85 2.5
      vertex 6.225 9.85 2.5
    endloop
  endfacet
  facet normal 1 -2.819614030794048e-16 0
    outer loop
      vertex 13.975000000000001 9.85 -4.2
      vertex 13.975000000000001 9.85 4.2
      vertex 13.975 3.55 4.2
    endloop
  endfacet
  facet normal 0 1 0
    outer loop
      vertex 13.975000000000001 9.85 4.2
      vertex 12.725 9.85 -2.5
      vertex 12.725 9.85 2.5
    endloop
  endfacet
  facet normal -0.773010453362737 0 -0.6343932841636456
    outer loop
      vertex -12.511541433831999 11.85 -1.527818140803906
      vertex -12.169543648263005 9.85 -1.9445436482630059
      vertex -12.511541433831999 9.85 -1.527818140803906
    endloop
  endfacet
  facet normal -0.6343932841636448 0 -0.7730104533627374
    outer loop
      vertex -11.752818140803905 11.85 -2.2865414338319994
      vertex -11.752818140803905 9.85 -2.2865414338319994
      vertex -12.169543648263005 9.85 -1.9445436482630059
    endloop
  endfacet
  facet normal -0.47139673682599886 0 -0.8819212643483545
    outer loop
      vertex -11.277379439003997 11.85 -2.5406687144060385
      vertex -11.277379439003997 9.85 -2.5406687144060385
      vertex -11.752818140803905 9.85 -2.2865414338319994
    endloop
  endfacet
  facet normal -0.773010453362737 0 -0.6343932841636456
    outer loop
      vertex -12.511541433831999 11.85 -1.527818140803906
      vertex -12.169543648263005 11.85 -1.9445436482630059
      vertex -12.169543648263005 9.85 -1.9445436482630059
    endloop
  endfacet
  facet normal -0.6343932841636448 0 -0.7730104533627374
    outer loop
      vertex -12.169543648263005 11.85 -1.9445436482630059
      vertex -11.752818140803905 11.85 -2.2865414338319994
      vertex -12.169543648263005 9.85 -1.9445436482630059
    endloop
  endfacet
  facet normal -0.47139673682599886 0 -0.8819212643483545
    outer loop
      vertex -11.752818140803905 11.85 -2.2865414338319994
      vertex -11.277379439003997 11.85 -2.5406687144060385
      vertex -11.752818140803905 9.85 -2.2865414338319994
    endloop
  endfacet
  facet normal -0.29028467725446155 0 -0.9569403357322092
    outer loop
      vertex -11.277379439003997 11.85 -2.5406687144060385
      vertex -10.761498385544352 11.85 -2.6971595211088837
      vertex -11.277379439003997 9.85 -2.5406687144060385
    endloop
  endfacet
  facet normal -0.9951847266721968 0 -0.09801714032956152
    outer loop
      vertex -12.975 11.85 0
      vertex -12.922159521108883 9.85 -0.5364983855443527
      vertex -12.975 9.85 0
    endloop
  endfacet
  facet normal -0.9951847266721968 0 0.09801714032956152
    outer loop
      vertex -12.922159521108883 11.85 0.5364983855443527
      vertex -12.975 9.85 0
      vertex -12.922159521108883 9.85 0.5364983855443527
    endloop
  endfacet
  facet normal -0.9951847266721968 0 -0.09801714032956152
    outer loop
      vertex -12.922159521108883 11.85 -0.5364983855443527
      vertex -12.922159521108883 9.85 -0.5364983855443527
      vertex -12.975 11.85 0
    endloop
  endfacet
  facet normal -0.9951847266721968 0 0.09801714032956152
    outer loop
      vertex -12.975 11.85 0
      vertex -12.975 9.85 0
      vertex -12.922159521108883 11.85 0.5364983855443527
    endloop
  endfacet
  facet normal -0.8819212643483549 0 -0.47139673682599764
    outer loop
      vertex -12.765668714406038 11.85 -1.0523794390039969
      vertex -12.511541433831999 9.85 -1.527818140803906
      vertex -12.765668714406038 9.85 -1.0523794390039969
    endloop
  endfacet
  facet normal -0.9569403357322092 0 -0.2902846772544617
    outer loop
      vertex -12.922159521108883 11.85 -0.5364983855443527
      vertex -12.765668714406038 9.85 -1.0523794390039969
      vertex -12.922159521108883 9.85 -0.5364983855443527
    endloop
  endfacet
  facet normal -0.9569403357322092 0 0.2902846772544617
    outer loop
      vertex -12.765668714406038 11.85 1.0523794390039969
      vertex -12.922159521108883 9.85 0.5364983855443527
      vertex -12.765668714406038 9.85 1.0523794390039969
    endloop
  endfacet
  facet normal -0.8819212643483549 0 -0.47139673682599764
    outer loop
      vertex -12.511541433831999 11.85 -1.527818140803906
      vertex -12.511541433831999 9.85 -1.527818140803906
      vertex -12.765668714406038 11.85 -1.0523794390039969
    endloop
  endfacet
  facet normal -0.9569403357322092 0 -0.2902846772544617
    outer loop
      vertex -12.922159521108883 11.85 -0.5364983855443527
      vertex -12.765668714406038 11.85 -1.0523794390039969
      vertex -12.765668714406038 9.85 -1.0523794390039969
    endloop
  endfacet
  facet normal 0 1 0
    outer loop
      vertex -12.511541433831999 11.85 -1.527818140803906
      vertex -12.765668714406038 11.85 -1.0523794390039969
      vertex -7.938458566168 11.85 -1.527818140803906
    endloop
  endfacet
  facet normal 0 1 0
    outer loop
      vertex -12.922159521108883 11.85 -0.5364983855443527
      vertex -7.684331285593961 11.85 -1.0523794390039969
      vertex -12.765668714406038 11.85 -1.0523794390039969
    endloop
  endfacet
  facet normal 0 1 0
    outer loop
      vertex -12.922159521108883 11.85 -0.5364983855443527
      vertex -12.975 11.85 0
      vertex -7.527840478891116 11.85 -0.5364983855443527
    endloop
  endfacet
  facet normal -0.9569403357322092 0 0.2902846772544617
    outer loop
      vertex -12.922159521108883 11.85 0.5364983855443527
      vertex -12.922159521108883 9.85 0.5364983855443527
      vertex -12.765668714406038 11.85 1.0523794390039969
    endloop
  endfacet
  facet normal -0.8819212643483549 0 0.47139673682599764
    outer loop
      vertex -12.765668714406038 11.85 1.0523794390039969
      vertex -12.765668714406038 9.85 1.0523794390039969
      vertex -12.511541433831999 11.85 1.527818140803906
    endloop
  endfacet
  facet normal 0 1 0
    outer loop
      vertex -12.975 11.85 0
      vertex -12.922159521108883 11.85 0.5364983855443527
      vertex -7.475 11.85 0
    endloop
  endfacet
  facet normal 0 1 0
    outer loop
      vertex -12.922159521108883 11.85 0.5364983855443527
      vertex -12.765668714406038 11.85 1.0523794390039969
      vertex -7.527840478891116 11.85 0.5364983855443527
    endloop
  endfacet
  facet normal -0.09801714032956084 0 -0.9951847266721968
    outer loop
      vertex -10.225 11.85 -2.75
      vertex -10.225 9.85 -2.75
      vertex -10.761498385544352 9.85 -2.6971595211088837
    endloop
  endfacet
  facet normal -0.29028467725446155 0 -0.9569403357322092
    outer loop
      vertex -10.761498385544352 11.85 -2.6971595211088837
      vertex -10.761498385544352 9.85 -2.6971595211088837
      vertex -11.277379439003997 9.85 -2.5406687144060385
    endloop
  endfacet
  facet normal 0.09801714032956084 0 -0.9951847266721968
    outer loop
      vertex -9.688501614455648 11.85 -2.6971595211088837
      vertex -9.688501614455648 9.85 -2.6971595211088837
      vertex -10.225 9.85 -2.75
    endloop
  endfacet
  facet normal 0.29028467725446155 0 -0.9569403357322092
    outer loop
      vertex -9.172620560996002 11.85 -2.5406687144060385
      vertex -9.172620560996002 9.85 -2.5406687144060385
      vertex -9.688501614455648 9.85 -2.6971595211088837
    endloop
  endfacet
  facet normal 0.09801714032956084 0 -0.9951847266721968
    outer loop
      vertex -10.225 11.85 -2.75
      vertex -9.688501614455648 11.85 -2.6971595211088837
      vertex -10.225 9.85 -2.75
    endloop
  endfacet
  facet normal -0.09801714032956084 0 -0.9951847266721968
    outer loop
      vertex -10.225 11.85 -2.75
      vertex -10.761498385544352 9.85 -2.6971595211088837
      vertex -10.761498385544352 11.85 -2.6971595211088837
    endloop
  endfacet
  facet normal 0 1 0
    outer loop
      vertex -11.752818140803905 11.85 -2.2865414338319994
      vertex -9.172620560996002 11.85 -2.5406687144060385
      vertex -11.277379439003997 11.85 -2.5406687144060385
    endloop
  endfacet
  facet normal 0 1 0
    outer loop
      vertex -12.169543648263005 11.85 -1.9445436482630059
      vertex -8.697181859196094 11.85 -2.2865414338319994
      vertex -11.752818140803905 11.85 -2.2865414338319994
    endloop
  endfacet
  facet normal 0 1 0
    outer loop
      vertex -11.277379439003997 11.85 -2.5406687144060385
      vertex -9.688501614455648 11.85 -2.6971595211088837
      vertex -10.761498385544352 11.85 -2.6971595211088837
    endloop
  endfacet
  facet normal 0 1 0
    outer loop
      vertex -10.225 11.85 -2.75
      vertex -10.761498385544352 11.85 -2.6971595211088837
      vertex -9.688501614455648 11.85 -2.6971595211088837
    endloop
  endfacet
  facet normal 0 1 0
    outer loop
      vertex -12.511541433831999 11.85 -1.527818140803906
      vertex -8.280456351736994 11.85 -1.9445436482630059
      vertex -12.169543648263005 11.85 -1.9445436482630059
    endloop
  endfacet
  facet normal 0.29028467725446155 0 -0.9569403357322092
    outer loop
      vertex -9.688501614455648 11.85 -2.6971595211088837
      vertex -9.172620560996002 11.85 -2.5406687144060385
      vertex -9.688501614455648 9.85 -2.6971595211088837
    endloop
  endfacet
  facet normal 0 1 0
    outer loop
      vertex -11.277379439003997 11.85 -2.5406687144060385
      vertex -9.172620560996002 11.85 -2.5406687144060385
      vertex -9.688501614455648 11.85 -2.6971595211088837
    endloop
  endfacet
  facet normal 0 1 0
    outer loop
      vertex -11.752818140803905 11.85 -2.2865414338319994
      vertex -8.697181859196094 11.85 -2.2865414338319994
      vertex -9.172620560996002 11.85 -2.5406687144060385
    endloop
  endfacet
  facet normal 0 1 0
    outer loop
      vertex -12.169543648263005 11.85 -1.9445436482630059
      vertex -8.280456351736994 11.85 -1.9445436482630059
      vertex -8.697181859196094 11.85 -2.2865414338319994
    endloop
  endfacet
  facet normal 0 1 0
    outer loop
      vertex -12.511541433831999 11.85 -1.527818140803906
      vertex -7.938458566168 11.85 -1.527818140803906
      vertex -8.280456351736994 11.85 -1.9445436482630059
    endloop
  endfacet
  facet normal 0.47139673682599886 0 -0.8819212643483545
    outer loop
      vertex -8.697181859196094 11.85 -2.2865414338319994
      vertex -8.697181859196094 9.85 -2.2865414338319994
      vertex -9.172620560996002 9.85 -2.5406687144060385
    endloop
  endfacet
  facet normal 0.6343932841636448 0 -0.7730104533627374
    outer loop
      vertex -8.280456351736994 11.85 -1.9445436482630059
      vertex -8.280456351736994 9.85 -1.9445436482630059
      vertex -8.697181859196094 9.85 -2.2865414338319994
    endloop
  endfacet
  facet normal 0.773010453362737 0 -0.6343932841636456
    outer loop
      vertex -8.280456351736994 11.85 -1.9445436482630059
      vertex -7.938458566168 9.85 -1.527818140803906
      vertex -8.280456351736994 9.85 -1.9445436482630059
    endloop
  endfacet
  facet normal 0.47139673682599886 0 -0.8819212643483545
    outer loop
      vertex -9.172620560996002 11.85 -2.5406687144060385
      vertex -8.697181859196094 11.85 -2.2865414338319994
      vertex -9.172620560996002 9.85 -2.5406687144060385
    endloop
  endfacet
  facet normal 0.6343932841636448 0 -0.7730104533627374
    outer loop
      vertex -8.697181859196094 11.85 -2.2865414338319994
      vertex -8.280456351736994 11.85 -1.9445436482630059
      vertex -8.697181859196094 9.85 -2.2865414338319994
    endloop
  endfacet
  facet normal 0.773010453362737 0 -0.6343932841636456
    outer loop
      vertex -8.280456351736994 11.85 -1.9445436482630059
      vertex -7.938458566168 11.85 -1.527818140803906
      vertex -7.938458566168 9.85 -1.527818140803906
    endloop
  endfacet
  facet normal 0 1 0
    outer loop
      vertex -12.765668714406038 11.85 -1.0523794390039969
      vertex -7.684331285593961 11.85 -1.0523794390039969
      vertex -7.938458566168 11.85 -1.527818140803906
    endloop
  endfacet
  facet normal 0 1 0
    outer loop
      vertex -12.922159521108883 11.85 -0.5364983855443527
      vertex -7.527840478891116 11.85 -0.5364983855443527
      vertex -7.684331285593961 11.85 -1.0523794390039969
    endloop
  endfacet
  facet normal 0 1 0
    outer loop
      vertex -12.975 11.85 0
      vertex -7.475 11.85 0
      vertex -7.527840478891116 11.85 -0.5364983855443527
    endloop
  endfacet
  facet normal 0 1 0
    outer loop
      vertex -12.765668714406038 11.85 1.0523794390039969
      vertex -12.511541433831999 11.85 1.527818140803906
      vertex -7.684331285593961 11.85 1.0523794390039969
    endloop
  endfacet
  facet normal 0 1 0
    outer loop
      vertex -12.922159521108883 11.85 0.5364983855443527
      vertex -7.527840478891116 11.85 0.5364983855443527
      vertex -7.475 11.85 0
    endloop
  endfacet
  facet normal 0 1 0
    outer loop
      vertex -12.765668714406038 11.85 1.0523794390039969
      vertex -7.684331285593961 11.85 1.0523794390039969
      vertex -7.527840478891116 11.85 0.5364983855443527
    endloop
  endfacet
  facet normal 0.8819212643483549 0 -0.47139673682599764
    outer loop
      vertex -7.938458566168 11.85 -1.527818140803906
      vertex -7.684331285593961 9.85 -1.0523794390039969
      vertex -7.938458566168 9.85 -1.527818140803906
    endloop
  endfacet
  facet normal 0.9569403357322092 0 -0.2902846772544617
    outer loop
      vertex -7.684331285593961 11.85 -1.0523794390039969
      vertex -7.527840478891116 9.85 -0.5364983855443527
      vertex -7.684331285593961 9.85 -1.0523794390039969
    endloop
  endfacet
  facet normal 0.9951847266721968 0 -0.09801714032956152
    outer loop
      vertex -7.527840478891116 11.85 -0.5364983855443527
      vertex -7.475 9.85 0
      vertex -7.527840478891116 9.85 -0.5364983855443527
    endloop
  endfacet
  facet normal 0.9951847266721968 0 0.09801714032956152
    outer loop
      vertex -7.475 11.85 0
      vertex -7.527840478891116 9.85 0.5364983855443527
      vertex -7.475 9.85 0
    endloop
  endfacet
  facet normal 0.9569403357322092 0 0.2902846772544617
    outer loop
      vertex -7.527840478891116 11.85 0.5364983855443527
      vertex -7.684331285593961 9.85 1.0523794390039969
      vertex -7.527840478891116 9.85 0.5364983855443527
    endloop
  endfacet
  facet normal 0.8819212643483549 0 0.47139673682599764
    outer loop
      vertex -7.684331285593961 11.85 1.0523794390039969
      vertex -7.938458566168 9.85 1.527818140803906
      vertex -7.684331285593961 9.85 1.0523794390039969
    endloop
  endfacet
  facet normal 0.8819212643483549 0 -0.47139673682599764
    outer loop
      vertex -7.938458566168 11.85 -1.527818140803906
      vertex -7.684331285593961 11.85 -1.0523794390039969
      vertex -7.684331285593961 9.85 -1.0523794390039969
    endloop
  endfacet
  facet normal 0.9569403357322092 0 -0.2902846772544617
    outer loop
      vertex -7.684331285593961 11.85 -1.0523794390039969
      vertex -7.527840478891116 11.85 -0.5364983855443527
      vertex -7.527840478891116 9.85 -0.5364983855443527
    endloop
  endfacet
  facet normal 0.9951847266721968 0 -0.09801714032956152
    outer loop
      vertex -7.527840478891116 11.85 -0.5364983855443527
      vertex -7.475 11.85 0
      vertex -7.475 9.85 0
    endloop
  endfacet
  facet normal 0.9951847266721968 0 0.09801714032956152
    outer loop
      vertex -7.475 11.85 0
      vertex -7.527840478891116 11.85 0.5364983855443527
      vertex -7.527840478891116 9.85 0.5364983855443527
    endloop
  endfacet
  facet normal 0.9569403357322092 0 0.2902846772544617
    outer loop
      vertex -7.527840478891116 11.85 0.5364983855443527
      vertex -7.684331285593961 11.85 1.0523794390039969
      vertex -7.684331285593961 9.85 1.0523794390039969
    endloop
  endfacet
  facet normal -0.8819212643483549 0 0.47139673682599764
    outer loop
      vertex -12.511541433831999 11.85 1.527818140803906
      vertex -12.765668714406038 9.85 1.0523794390039969
      vertex -12.511541433831999 9.85 1.527818140803906
    endloop
  endfacet
  facet normal -0.773010453362737 0 0.6343932841636456
    outer loop
      vertex -12.169543648263005 11.85 1.9445436482630059
      vertex -12.511541433831999 9.85 1.527818140803906
      vertex -12.169543648263005 9.85 1.9445436482630059
    endloop
  endfacet
  facet normal -0.6343932841636448 0 0.7730104533627374
    outer loop
      vertex -12.169543648263005 11.85 1.9445436482630059
      vertex -12.169543648263005 9.85 1.9445436482630059
      vertex -11.752818140803905 9.85 2.2865414338319994
    endloop
  endfacet
  facet normal -0.47139673682599886 0 0.8819212643483545
    outer loop
      vertex -11.752818140803905 11.85 2.2865414338319994
      vertex -11.752818140803905 9.85 2.2865414338319994
      vertex -11.277379439003997 9.85 2.5406687144060385
    endloop
  endfacet
  facet normal -0.29028467725446155 0 0.9569403357322092
    outer loop
      vertex -11.277379439003997 11.85 2.5406687144060385
      vertex -11.277379439003997 9.85 2.5406687144060385
      vertex -10.761498385544352 9.85 2.6971595211088837
    endloop
  endfacet
  facet normal -0.773010453362737 0 0.6343932841636456
    outer loop
      vertex -12.511541433831999 11.85 1.527818140803906
      vertex -12.511541433831999 9.85 1.527818140803906
      vertex -12.169543648263005 11.85 1.9445436482630059
    endloop
  endfacet
  facet normal -0.6343932841636448 0 0.7730104533627374
    outer loop
      vertex -12.169543648263005 11.85 1.9445436482630059
      vertex -11.752818140803905 9.85 2.2865414338319994
      vertex -11.752818140803905 11.85 2.2865414338319994
    endloop
  endfacet
  facet normal -0.47139673682599886 0 0.8819212643483545
    outer loop
      vertex -11.752818140803905 11.85 2.2865414338319994
      vertex -11.277379439003997 9.85 2.5406687144060385
      vertex -11.277379439003997 11.85 2.5406687144060385
    endloop
  endfacet
  facet normal -0.09801714032956084 0 0.9951847266721968
    outer loop
      vertex -10.761498385544352 11.85 2.6971595211088837
      vertex -10.761498385544352 9.85 2.6971595211088837
      vertex -10.225 9.85 2.75
    endloop
  endfacet
  facet normal 0.09801714032956084 0 0.9951847266721968
    outer loop
      vertex -10.225 11.85 2.75
      vertex -10.225 9.85 2.75
      vertex -9.688501614455648 9.85 2.6971595211088837
    endloop
  endfacet
  facet normal 0.29028467725446155 0 0.9569403357322092
    outer loop
      vertex -9.688501614455648 11.85 2.6971595211088837
      vertex -9.688501614455648 9.85 2.6971595211088837
      vertex -9.172620560996002 9.85 2.5406687144060385
    endloop
  endfacet
  facet normal 0 1 0
    outer loop
      vertex -12.511541433831999 11.85 1.527818140803906
      vertex -12.169543648263005 11.85 1.9445436482630059
      vertex -7.938458566168 11.85 1.527818140803906
    endloop
  endfacet
  facet normal 0 1 0
    outer loop
      vertex -12.169543648263005 11.85 1.9445436482630059
      vertex -11.752818140803905 11.85 2.2865414338319994
      vertex -8.280456351736994 11.85 1.9445436482630059
    endloop
  endfacet
  facet normal 0 1 0
    outer loop
      vertex -11.752818140803905 11.85 2.2865414338319994
      vertex -11.277379439003997 11.85 2.5406687144060385
      vertex -8.697181859196094 11.85 2.2865414338319994
    endloop
  endfacet
  facet normal 0 1 0
    outer loop
      vertex -7.684331285593961 11.85 1.0523794390039969
      vertex -12.511541433831999 11.85 1.527818140803906
      vertex -7.938458566168 11.85 1.527818140803906
    endloop
  endfacet
  facet normal 0 1 0
    outer loop
      vertex -12.169543648263005 11.85 1.9445436482630059
      vertex -8.280456351736994 11.85 1.9445436482630059
      vertex -7.938458566168 11.85 1.527818140803906
    endloop
  endfacet
  facet normal 0 1 0
    outer loop
      vertex -11.277379439003997 11.85 2.5406687144060385
      vertex -9.172620560996002 11.85 2.5406687144060385
      vertex -8.697181859196094 11.85 2.2865414338319994
    endloop
  endfacet
  facet normal 0 1 0
    outer loop
      vertex -11.752818140803905 11.85 2.2865414338319994
      vertex -8.697181859196094 11.85 2.2865414338319994
      vertex -8.280456351736994 11.85 1.9445436482630059
    endloop
  endfacet
  facet normal -0.29028467725446155 0 0.9569403357322092
    outer loop
      vertex -11.277379439003997 11.85 2.5406687144060385
      vertex -10.761498385544352 9.85 2.6971595211088837
      vertex -10.761498385544352 11.85 2.6971595211088837
    endloop
  endfacet
  facet normal -0.09801714032956084 0 0.9951847266721968
    outer loop
      vertex -10.761498385544352 11.85 2.6971595211088837
      vertex -10.225 9.85 2.75
      vertex -10.225 11.85 2.75
    endloop
  endfacet
  facet normal 0 1 0
    outer loop
      vertex -11.277379439003997 11.85 2.5406687144060385
      vertex -10.761498385544352 11.85 2.6971595211088837
      vertex -9.172620560996002 11.85 2.5406687144060385
    endloop
  endfacet
  facet normal 0 1 0
    outer loop
      vertex -10.761498385544352 11.85 2.6971595211088837
      vertex -10.225 11.85 2.75
      vertex -9.688501614455648 11.85 2.6971595211088837
    endloop
  endfacet
  facet normal 0.09801714032956084 0 0.9951847266721968
    outer loop
      vertex -10.225 11.85 2.75
      vertex -9.688501614455648 9.85 2.6971595211088837
      vertex -9.688501614455648 11.85 2.6971595211088837
    endloop
  endfacet
  facet normal 0.29028467725446155 0 0.9569403357322092
    outer loop
      vertex -9.688501614455648 11.85 2.6971595211088837
      vertex -9.172620560996002 9.85 2.5406687144060385
      vertex -9.172620560996002 11.85 2.5406687144060385
    endloop
  endfacet
  facet normal 0 1 0
    outer loop
      vertex -10.761498385544352 11.85 2.6971595211088837
      vertex -9.688501614455648 11.85 2.6971595211088837
      vertex -9.172620560996002 11.85 2.5406687144060385
    endloop
  endfacet
  facet normal 0.47139673682599886 0 0.8819212643483545
    outer loop
      vertex -9.172620560996002 11.85 2.5406687144060385
      vertex -9.172620560996002 9.85 2.5406687144060385
      vertex -8.697181859196094 9.85 2.2865414338319994
    endloop
  endfacet
  facet normal 0.6343932841636448 0 0.7730104533627374
    outer loop
      vertex -8.697181859196094 11.85 2.2865414338319994
      vertex -8.697181859196094 9.85 2.2865414338319994
      vertex -8.280456351736994 9.85 1.9445436482630059
    endloop
  endfacet
  facet normal 0.773010453362737 0 0.6343932841636456
    outer loop
      vertex -7.938458566168 11.85 1.527818140803906
      vertex -8.280456351736994 9.85 1.9445436482630059
      vertex -7.938458566168 9.85 1.527818140803906
    endloop
  endfacet
  facet normal 0.47139673682599886 0 0.8819212643483545
    outer loop
      vertex -9.172620560996002 11.85 2.5406687144060385
      vertex -8.697181859196094 9.85 2.2865414338319994
      vertex -8.697181859196094 11.85 2.2865414338319994
    endloop
  endfacet
  facet normal 0.6343932841636448 0 0.7730104533627374
    outer loop
      vertex -8.697181859196094 11.85 2.2865414338319994
      vertex -8.280456351736994 9.85 1.9445436482630059
      vertex -8.280456351736994 11.85 1.9445436482630059
    endloop
  endfacet
  facet normal 0.8819212643483549 0 0.47139673682599764
    outer loop
      vertex -7.684331285593961 11.85 1.0523794390039969
      vertex -7.938458566168 11.85 1.527818140803906
      vertex -7.938458566168 9.85 1.527818140803906
    endloop
  endfacet
  facet normal 0.773010453362737 0 0.6343932841636456
    outer loop
      vertex -7.938458566168 11.85 1.527818140803906
      vertex -8.280456351736994 11.85 1.9445436482630059
      vertex -8.280456351736994 9.85 1.9445436482630059
    endloop
  endfacet
  facet normal -1 0 0
    outer loop
      vertex 6.225 11.85 2.5
      vertex 6.225 9.85 -2.5
      vertex 6.225 9.85 2.5
    endloop
  endfacet
  facet normal -1 0 0
    outer loop
      vertex 6.225 11.85 -2.5
      vertex 6.225 9.85 -2.5
      vertex 6.225 11.85 2.5
    endloop
  endfacet
  facet normal 0 0 -1
    outer loop
      vertex 6.225 11.85 -2.5
      vertex 12.725 11.85 -2.5
      vertex 6.225 9.85 -2.5
    endloop
  endfacet
  facet normal 0 0 -1
    outer loop
      vertex 12.725 11.85 -2.5
      vertex 12.725 9.85 -2.5
      vertex 6.225 9.85 -2.5
    endloop
  endfacet
  facet normal 0 1 0
    outer loop
      vertex 6.225 11.85 -2.5
      vertex 6.225 11.85 2.5
      vertex 12.725 11.85 -2.5
    endloop
  endfacet
  facet normal 0 1 0
    outer loop
      vertex 6.225 11.85 2.5
      vertex 12.725 11.85 2.5
      vertex 12.725 11.85 -2.5
    endloop
  endfacet
  facet normal 1 0 0
    outer loop
      vertex 12.725 11.85 -2.5
      vertex 12.725 9.85 2.5
      vertex 12.725 9.85 -2.5
    endloop
  endfacet
  facet normal 1 0 0
    outer loop
      vertex 12.725 11.85 -2.5
      vertex 12.725 11.85 2.5
      vertex 12.725 9.85 2.5
    endloop
  endfacet
  facet normal 0 0 1
    outer loop
      vertex 6.225 11.85 2.5
      vertex 6.225 9.85 2.5
      vertex 12.725 9.85 2.5
    endloop
  endfacet
  facet normal 0 0 1
    outer loop
      vertex 6.225 11.85 2.5
      vertex 12.725 9.85 2.5
      vertex 12.725 11.85 2.5
    endloop
  endfacet
  facet normal 0 0 -1
    outer loop
      vertex -8.725000000000001 -7.1000000000000005 -14.625
      vertex -8.125 -6.500000000000001 -14.625
      vertex -8.125 -7.1000000000000005 -14.625
    endloop
  endfacet
  facet normal 0 -1 0
    outer loop
      vertex -8.725000000000001 -7.1000000000000005 -14.625
      vertex -8.125 -7.1000000000000005 -14.625
      vertex -8.725000000000001 -7.1000000000000005 -12.375
    endloop
  endfacet
  facet normal 1 0 0
    outer loop
      vertex -8.125 -7.1000000000000005 -14.625
      vertex -8.125 -6.500000000000001 -14.625
      vertex -8.125 -7.1000000000000005 -12.375
    endloop
  endfacet
  facet normal -1 0 0
    outer loop
      vertex -8.725000000000001 -7.1000000000000005 -14.625
      vertex -8.725000000000001 -7.1000000000000005 -12.375
      vertex -8.725000000000001 -6.500000000000001 -12.375
    endloop
  endfacet
  facet normal 0 -1 0
    outer loop
      vertex -8.125 -7.1000000000000005 -14.625
      vertex -8.125 -7.1000000000000005 -12.375
      vertex -8.725000000000001 -7.1000000000000005 -12.375
    endloop
  endfacet
  facet normal 0 0 -1
    outer loop
      vertex -8.725000000000001 -7.1000000000000005 -14.625
      vertex -8.725000000000001 -6.500000000000001 -14.625
      vertex -8.125 -6.500000000000001 -14.625
    endloop
  endfacet
  facet normal -1 0 0
    outer loop
      vertex -8.725000000000001 -7.1000000000000005 -14.625
      vertex -8.725000000000001 -6.500000000000001 -12.375
      vertex -8.725000000000001 -6.500000000000001 -14.625
    endloop
  endfacet
  facet normal 0 1 0
    outer loop
      vertex -8.725000000000001 -6.500000000000001 -14.625
      vertex -8.125 -6.500000000000001 -12.375
      vertex -8.125 -6.500000000000001 -14.625
    endloop
  endfacet
  facet normal 0 1 0
    outer loop
      vertex -8.725000000000001 -6.500000000000001 -14.625
      vertex -8.725000000000001 -6.500000000000001 -12.375
      vertex -8.125 -6.500000000000001 -12.375
    endloop
  endfacet
  facet normal 1 0 0
    outer loop
      vertex -8.125 -7.1000000000000005 -12.375
      vertex -8.125 -6.500000000000001 -14.625
      vertex -8.125 -6.500000000000001 -12.375
    endloop
  endfacet
  facet normal 0 0 -1
    outer loop
      vertex -6.225 -7.1000000000000005 -14.625
      vertex -5.625 -6.500000000000001 -14.625
      vertex -5.625 -7.1000000000000005 -14.625
    endloop
  endfacet
  facet normal 0 -1 0
    outer loop
      vertex -6.225 -7.1000000000000005 -14.625
      vertex -5.625 -7.1000000000000005 -14.625
      vertex -6.225 -7.1000000000000005 -12.375
    endloop
  endfacet
  facet normal 1 0 0
    outer loop
      vertex -5.625 -7.1000000000000005 -14.625
      vertex -5.625 -6.500000000000001 -14.625
      vertex -5.625 -7.1000000000000005 -12.375
    endloop
  endfacet
  facet normal -1 0 0
    outer loop
      vertex -6.225 -7.1000000000000005 -14.625
      vertex -6.225 -7.1000000000000005 -12.375
      vertex -6.225 -6.500000000000001 -12.375
    endloop
  endfacet
  facet normal 0 -1 0
    outer loop
      vertex -5.625 -7.1000000000000005 -14.625
      vertex -5.625 -7.1000000000000005 -12.375
      vertex -6.225 -7.1000000000000005 -12.375
    endloop
  endfacet
  facet normal 0 0 -1
    outer loop
      vertex -6.225 -7.1000000000000005 -14.625
      vertex -6.225 -6.500000000000001 -14.625
      vertex -5.625 -6.500000000000001 -14.625
    endloop
  endfacet
  facet normal -1 0 0
    outer loop
      vertex -6.225 -7.1000000000000005 -14.625
      vertex -6.225 -6.500000000000001 -12.375
      vertex -6.225 -6.500000000000001 -14.625
    endloop
  endfacet
  facet normal 0 1 0
    outer loop
      vertex -6.225 -6.500000000000001 -14.625
      vertex -5.625 -6.500000000000001 -12.375
      vertex -5.625 -6.500000000000001 -14.625
    endloop
  endfacet
  facet normal 0 1 0
    outer loop
      vertex -6.225 -6.500000000000001 -14.625
      vertex -6.225 -6.500000000000001 -12.375
      vertex -5.625 -6.500000000000001 -12.375
    endloop
  endfacet
  facet normal 1 0 0
    outer loop
      vertex -5.625 -7.1000000000000005 -12.375
      vertex -5.625 -6.500000000000001 -14.625
      vertex -5.625 -6.500000000000001 -12.375
    endloop
  endfacet
  facet normal -1 0 0
    outer loop
      vertex -3.7249999999999996 -7.1000000000000005 -14.625
      vertex -3.7249999999999996 -7.1000000000000005 -12.375
      vertex -3.7249999999999996 -6.500000000000001 -12.375
    endloop
  endfacet
  facet normal -1 0 0
    outer loop
      vertex -3.7249999999999996 -7.1000000000000005 -14.625
      vertex -3.7249999999999996 -6.500000000000001 -12.375
      vertex -3.7249999999999996 -6.500000000000001 -14.625
    endloop
  endfacet
  facet normal 0 0 -1
    outer loop
      vertex -3.7249999999999996 -7.1000000000000005 -14.625
      vertex -3.125 -6.500000000000001 -14.625
      vertex -3.125 -7.1000000000000005 -14.625
    endloop
  endfacet
  facet normal 0 -1 0
    outer loop
      vertex -3.7249999999999996 -7.1000000000000005 -14.625
      vertex -3.125 -7.1000000000000005 -14.625
      vertex -3.7249999999999996 -7.1000000000000005 -12.375
    endloop
  endfacet
  facet normal 1 0 0
    outer loop
      vertex -3.125 -7.1000000000000005 -14.625
      vertex -3.125 -6.500000000000001 -14.625
      vertex -3.125 -7.1000000000000005 -12.375
    endloop
  endfacet
  facet normal 0 -1 0
    outer loop
      vertex -3.7249999999999996 -7.1000000000000005 -12.375
      vertex -3.125 -7.1000000000000005 -14.625
      vertex -3.125 -7.1000000000000005 -12.375
    endloop
  endfacet
  facet normal 0 0 -1
    outer loop
      vertex -3.7249999999999996 -7.1000000000000005 -14.625
      vertex -3.7249999999999996 -6.500000000000001 -14.625
      vertex -3.125 -6.500000000000001 -14.625
    endloop
  endfacet
  facet normal 0 1 0
    outer loop
      vertex -3.7249999999999996 -6.500000000000001 -14.625
      vertex -3.125 -6.500000000000001 -12.375
      vertex -3.125 -6.500000000000001 -14.625
    endloop
  endfacet
  facet normal 0 1 0
    outer loop
      vertex -3.7249999999999996 -6.500000000000001 -14.625
      vertex -3.7249999999999996 -6.500000000000001 -12.375
      vertex -3.125 -6.500000000000001 -12.375
    endloop
  endfacet
  facet normal 1 0 0
    outer loop
      vertex -3.125 -7.1000000000000005 -12.375
      vertex -3.125 -6.500000000000001 -14.625
      vertex -3.125 -6.500000000000001 -12.375
    endloop
  endfacet
  facet normal 0 0 -1
    outer loop
      vertex -14.724999999999998 -3.5499999999999994 -6.525
      vertex -14.725 3.55 -6.525
      vertex 14.725 3.55 -6.525
    endloop
  endfacet
  facet normal -1 -2.5019110414088036e-16 0
    outer loop
      vertex -14.724999999999998 -3.5499999999999994 -6.525
      vertex -14.725 3.55 6.525
      vertex -14.725 3.55 -6.525
    endloop
  endfacet
  facet normal -1 0 -1.3611929803833336e-16
    outer loop
      vertex -14.724999999999998 -3.5499999999999994 -6.525
      vertex -14.725 -3.55 6.525
      vertex -14.725 3.55 6.525
    endloop
  endfacet
  facet normal 0 0 1
    outer loop
      vertex -14.725 -3.55 6.525
      vertex 14.724999999999998 -3.5499999999999994 6.525
      vertex -14.725 3.55 6.525
    endloop
  endfacet
  facet normal 0 1 0
    outer loop
      vertex -14.725 3.55 -6.525
      vertex -13.975 3.55 -4.2
      vertex -6.475 3.55 -4.2
    endloop
  endfacet
  facet normal 0 1 0
    outer loop
      vertex -14.725 3.55 -6.525
      vertex -6.475 3.55 -4.2
      vertex 14.725 3.55 -6.525
    endloop
  endfacet
  facet normal 0 1 0
    outer loop
      vertex -14.725 3.55 -6.525
      vertex -13.975 3.55 4.2
      vertex -13.975 3.55 -4.2
    endloop
  endfacet
  facet normal 0 1 0
    outer loop
      vertex -14.725 3.55 -6.525
      vertex -14.725 3.55 6.525
      vertex -13.975 3.55 4.2
    endloop
  endfacet
  facet normal 0 1 0
    outer loop
      vertex -6.4750000000000005 3.55 4.2
      vertex -2.324999999999999 3.55 -4.2
      vertex -6.475 3.55 -4.2
    endloop
  endfacet
  facet normal 0 1 0
    outer loop
      vertex -6.4750000000000005 3.55 4.2
      vertex -2.325 3.55 4.2
      vertex -2.324999999999999 3.55 -4.2
    endloop
  endfacet
  facet normal 0 1 0
    outer loop
      vertex -14.725 3.55 6.525
      vertex 14.725 3.55 6.525
      vertex -13.975 3.55 4.2
    endloop
  endfacet
  facet normal 0 1 0
    outer loop
      vertex 14.725 3.55 6.525
      vertex -6.4750000000000005 3.55 4.2
      vertex -13.975 3.55 4.2
    endloop
  endfacet
  facet normal 0 0 -1
    outer loop
      vertex -14.724999999999998 -3.5499999999999994 -6.525
      vertex 14.725 3.55 -6.525
      vertex 14.725 -3.5499999999999994 -6.525
    endloop
  endfacet
  facet normal 0 0 1
    outer loop
      vertex -14.725 3.55 6.525
      vertex 14.724999999999998 -3.5499999999999994 6.525
      vertex 14.725 3.55 6.525
    endloop
  endfacet
  facet normal 1 0 1.3611929803833336e-16
    outer loop
      vertex 14.725 -3.5499999999999994 -6.525
      vertex 14.725 3.55 -6.525
      vertex 14.724999999999998 -3.5499999999999994 6.525
    endloop
  endfacet
  facet normal 1 -2.5019110414088036e-16 0
    outer loop
      vertex 14.724999999999998 -3.5499999999999994 6.525
      vertex 14.725 3.55 -6.525
      vertex 14.725 3.55 6.525
    endloop
  endfacet
  facet normal 0 1 0
    outer loop
      vertex 14.725 3.55 -6.525
      vertex -6.475 3.55 -4.2
      vertex -2.324999999999999 3.55 -4.2
    endloop
  endfacet
  facet normal 0 1 0
    outer loop
      vertex 14.725 3.55 -6.525
      vertex -2.324999999999999 3.55 -4.2
      vertex 13.975000000000001 3.55 -4.2
    endloop
  endfacet
  facet normal 0 1 0
    outer loop
      vertex 14.725 3.55 6.525
      vertex -2.325 3.55 4.2
      vertex -6.4750000000000005 3.55 4.2
    endloop
  endfacet
  facet normal 0 1 0
    outer loop
      vertex 14.725 3.55 -6.525
      vertex 13.975000000000001 3.55 -4.2
      vertex 14.725 3.55 6.525
    endloop
  endfacet
  facet normal 0 1 0
    outer loop
      vertex 14.725 3.55 6.525
      vertex 13.975 3.55 4.2
      vertex -2.325 3.55 4.2
    endloop
  endfacet
  facet normal 0 1 0
    outer loop
      vertex 14.725 3.55 6.525
      vertex 13.975000000000001 3.55 -4.2
      vertex 13.975 3.55 4.2
    endloop
  endfacet
  facet normal 0 0 -1
    outer loop
      vertex -14.725 -4.749999999999999 -6.975
      vertex -14.725 -3.5499999999999994 -6.975
      vertex -10.975 -4.749999999999999 -6.975
    endloop
  endfacet
  facet normal -1 0 3.947459643111674e-15
    outer loop
      vertex -14.725 -4.749999999999999 -6.975
      vertex -14.724999999999998 -3.5499999999999994 -6.525
      vertex -14.725 -3.5499999999999994 -6.975
    endloop
  endfacet
  facet normal 0 0 -1
    outer loop
      vertex -14.725 -3.5499999999999994 -6.975
      vertex -10.975 -3.5500000000000007 -6.975
      vertex -10.975 -4.749999999999999 -6.975
    endloop
  endfacet
  facet normal 0 -1 0
    outer loop
      vertex -14.725 -4.749999999999999 -6.975
      vertex -10.975 -4.749999999999999 -6.975
      vertex -10.975 -4.749999999999999 -5.375
    endloop
  endfacet
  facet normal 0 1 0
    outer loop
      vertex -14.725 -3.5499999999999994 -6.975
      vertex -14.724999999999998 -3.5499999999999994 -6.525
      vertex 14.725 -3.5499999999999994 -6.525
    endloop
  endfacet
  facet normal 3.552713678800501e-16 1 -2.3250537297927757e-14
    outer loop
      vertex -14.725 -3.5499999999999994 -6.975
      vertex 14.725 -3.5499999999999994 -6.525
      vertex -10.975 -3.5500000000000007 -6.975
    endloop
  endfacet
  facet normal -1 1.5313421029312507e-15 -1.361192980383333e-16
    outer loop
      vertex -14.725 -4.749999999999999 -6.975
      vertex -14.725 -3.55 6.525
      vertex -14.724999999999998 -3.5499999999999994 -6.525
    endloop
  endfacet
  facet normal -1 0 0
    outer loop
      vertex -14.725 -4.749999999999999 -6.975
      vertex -14.725 -4.749999999999999 6.525
      vertex -14.725 -3.55 6.525
    endloop
  endfacet
  facet normal 0 -1 0
    outer loop
      vertex -14.725 -4.749999999999999 -6.975
      vertex -10.975 -4.749999999999999 -5.375
      vertex 14.725 -4.749999999999999 6.525
    endloop
  endfacet
  facet normal 0 -1 0
    outer loop
      vertex -14.725 -4.749999999999999 -6.975
      vertex 14.725 -4.749999999999999 6.525
      vertex -14.725 -4.749999999999999 6.525
    endloop
  endfacet
  facet normal 0 0 1
    outer loop
      vertex -14.725 -4.749999999999999 6.525
      vertex 14.725 -4.749999999999999 6.525
      vertex -14.725 -3.55 6.525
    endloop
  endfacet
  facet normal 0 1 -2.9605947323337552e-15
    outer loop
      vertex -10.975 -3.5500000000000007 -6.975
      vertex 14.725 -3.5499999999999994 -6.525
      vertex -0.875 -3.5500000000000007 -6.975
    endloop
  endfacet
  facet normal 0 0 -1
    outer loop
      vertex -0.875 -4.749999999999999 -6.975
      vertex -0.875 -3.5500000000000007 -6.975
      vertex 14.725 -4.749999999999999 -6.975
    endloop
  endfacet
  facet normal 0 -1 0
    outer loop
      vertex -0.875 -4.749999999999999 -6.975
      vertex 14.725 -4.749999999999999 -6.975
      vertex -0.875 -4.749999999999999 -5.375
    endloop
  endfacet
  facet normal 0 0 -1
    outer loop
      vertex -0.875 -3.5500000000000007 -6.975
      vertex 14.725 -3.5499999999999994 -6.975
      vertex 14.725 -4.749999999999999 -6.975
    endloop
  endfacet
  facet normal -8.540177112501205e-17 1 0
    outer loop
      vertex -0.875 -3.5500000000000007 -6.975
      vertex 14.725 -3.5499999999999994 -6.525
      vertex 14.725 -3.5499999999999994 -6.975
    endloop
  endfacet
  facet normal 0 -1 0
    outer loop
      vertex -10.975 -4.749999999999999 -5.375
      vertex -0.875 -4.749999999999999 -5.375
      vertex 14.725 -4.749999999999999 6.525
    endloop
  endfacet
  facet normal 0 0 1
    outer loop
      vertex -14.725 -3.55 6.525
      vertex 14.725 -4.749999999999999 6.525
      vertex 14.724999999999998 -3.5499999999999994 6.525
    endloop
  endfacet
  facet normal 0 -1 0
    outer loop
      vertex -0.875 -4.749999999999999 -5.375
      vertex 14.725 -4.749999999999999 -6.975
      vertex 14.725 -4.749999999999999 6.525
    endloop
  endfacet
  facet normal 1 0 0
    outer loop
      vertex 14.725 -4.749999999999999 -6.975
      vertex 14.725 -3.5499999999999994 -6.975
      vertex 14.725 -4.749999999999999 6.525
    endloop
  endfacet
  facet normal 1 0 0
    outer loop
      vertex 14.725 -3.5499999999999994 -6.975
      vertex 14.725 -3.5499999999999994 -6.525
      vertex 14.725 -4.749999999999999 6.525
    endloop
  endfacet
  facet normal 1 1.4802973661668758e-15 1.3611929803833336e-16
    outer loop
      vertex 14.725 -3.5499999999999994 -6.525
      vertex 14.724999999999998 -3.5499999999999994 6.525
      vertex 14.725 -4.749999999999999 6.525
    endloop
  endfacet
  facet normal 0 0 -1
    outer loop
      vertex -10.975 -8.05 -12.375
      vertex -8.725000000000001 -6.500000000000001 -12.375
      vertex -8.725000000000001 -7.1000000000000005 -12.375
    endloop
  endfacet
  facet normal 0 0 -1
    outer loop
      vertex -10.975 -8.05 -12.375
      vertex -10.975 -3.5500000000000007 -12.375
      vertex -8.725000000000001 -6.500000000000001 -12.375
    endloop
  endfacet
  facet normal 0 0 -1
    outer loop
      vertex -8.725000000000001 -6.500000000000001 -12.375
      vertex -10.975 -3.5500000000000007 -12.375
      vertex -8.125 -6.500000000000001 -12.375
    endloop
  endfacet
  facet normal -1 0 0
    outer loop
      vertex -10.975 -8.05 -12.375
      vertex -10.975 -4.749999999999999 -6.975
      vertex -10.975 -3.5500000000000007 -12.375
    endloop
  endfacet
  facet normal 0 1 0
    outer loop
      vertex -10.975 -3.5500000000000007 -12.375
      vertex -10.975 -3.5500000000000007 -6.975
      vertex -0.875 -3.5500000000000007 -12.375
    endloop
  endfacet
  facet normal -1 0 0
    outer loop
      vertex -10.975 -8.05 -12.375
      vertex -10.975 -8.05 -5.375
      vertex -10.975 -4.749999999999999 -6.975
    endloop
  endfacet
  facet normal 0 -1 0
    outer loop
      vertex -10.975 -8.05 -12.375
      vertex -0.875 -8.05 -5.375
      vertex -10.975 -8.05 -5.375
    endloop
  endfacet
  facet normal -1 0 0
    outer loop
      vertex -10.975 -8.05 -5.375
      vertex -10.975 -4.749999999999999 -5.375
      vertex -10.975 -4.749999999999999 -6.975
    endloop
  endfacet
  facet normal 0 0 1
    outer loop
      vertex -10.975 -8.05 -5.375
      vertex -0.875 -4.749999999999999 -5.375
      vertex -10.975 -4.749999999999999 -5.375
    endloop
  endfacet
  facet normal -1 0 0
    outer loop
      vertex -10.975 -3.5500000000000007 -12.375
      vertex -10.975 -4.749999999999999 -6.975
      vertex -10.975 -3.5500000000000007 -6.975
    endloop
  endfacet
  facet normal 0 0 -1
    outer loop
      vertex -10.975 -8.05 -12.375
      vertex -8.725000000000001 -7.1000000000000005 -12.375
      vertex -0.875 -8.05 -12.375
    endloop
  endfacet
  facet normal 0 0 -1
    outer loop
      vertex -8.125 -7.1000000000000005 -12.375
      vertex -6.225 -6.500000000000001 -12.375
      vertex -6.225 -7.1000000000000005 -12.375
    endloop
  endfacet
  facet normal 0 0 -1
    outer loop
      vertex -8.725000000000001 -7.1000000000000005 -12.375
      vertex -8.125 -7.1000000000000005 -12.375
      vertex -0.875 -8.05 -12.375
    endloop
  endfacet
  facet normal 0 0 -1
    outer loop
      vertex -8.125 -7.1000000000000005 -12.375
      vertex -8.125 -6.500000000000001 -12.375
      vertex -0.875 -3.5500000000000007 -12.375
    endloop
  endfacet
  facet normal 0 0 -1
    outer loop
      vertex -8.125 -7.1000000000000005 -12.375
      vertex -6.225 -7.1000000000000005 -12.375
      vertex -0.875 -8.05 -12.375
    endloop
  endfacet
  facet normal 0 0 -1
    outer loop
      vertex -6.225 -7.1000000000000005 -12.375
      vertex -5.625 -7.1000000000000005 -12.375
      vertex -0.875 -8.05 -12.375
    endloop
  endfacet
  facet normal 0 0 -1
    outer loop
      vertex -5.625 -7.1000000000000005 -12.375
      vertex -3.7249999999999996 -6.500000000000001 -12.375
      vertex -3.7249999999999996 -7.1000000000000005 -12.375
    endloop
  endfacet
  facet normal 0 0 -1
    outer loop
      vertex -5.625 -7.1000000000000005 -12.375
      vertex -5.625 -6.500000000000001 -12.375
      vertex -3.7249999999999996 -6.500000000000001 -12.375
    endloop
  endfacet
  facet normal 0 0 -1
    outer loop
      vertex -8.125 -7.1000000000000005 -12.375
      vertex -0.875 -3.5500000000000007 -12.375
      vertex -6.225 -6.500000000000001 -12.375
    endloop
  endfacet
  facet normal 0 -1 0
    outer loop
      vertex -10.975 -8.05 -12.375
      vertex -0.875 -8.05 -12.375
      vertex -0.875 -8.05 -5.375
    endloop
  endfacet
  facet normal 0 0 -1
    outer loop
      vertex -8.125 -6.500000000000001 -12.375
      vertex -10.975 -3.5500000000000007 -12.375
      vertex -0.875 -3.5500000000000007 -12.375
    endloop
  endfacet
  facet normal 0 0 -1
    outer loop
      vertex -6.225 -6.500000000000001 -12.375
      vertex -0.875 -3.5500000000000007 -12.375
      vertex -5.625 -6.500000000000001 -12.375
    endloop
  endfacet
  facet normal 0 0 -1
    outer loop
      vertex -5.625 -7.1000000000000005 -12.375
      vertex -3.7249999999999996 -7.1000000000000005 -12.375
      vertex -0.875 -8.05 -12.375
    endloop
  endfacet
  facet normal 0 0 -1
    outer loop
      vertex -3.7249999999999996 -7.1000000000000005 -12.375
      vertex -3.125 -7.1000000000000005 -12.375
      vertex -0.875 -8.05 -12.375
    endloop
  endfacet
  facet normal 0 0 -1
    outer loop
      vertex -3.125 -7.1000000000000005 -12.375
      vertex -3.125 -6.500000000000001 -12.375
      vertex -0.875 -8.05 -12.375
    endloop
  endfacet
  facet normal 0 0 -1
    outer loop
      vertex -3.125 -6.500000000000001 -12.375
      vertex -0.875 -3.5500000000000007 -12.375
      vertex -0.875 -8.05 -12.375
    endloop
  endfacet
  facet normal 1 0 0
    outer loop
      vertex -0.875 -8.05 -12.375
      vertex -0.875 -3.5500000000000007 -12.375
      vertex -0.875 -8.05 -5.375
    endloop
  endfacet
  facet normal 0 0 -1
    outer loop
      vertex -5.625 -6.500000000000001 -12.375
      vertex -0.875 -3.5500000000000007 -12.375
      vertex -3.7249999999999996 -6.500000000000001 -12.375
    endloop
  endfacet
  facet normal 0 0 -1
    outer loop
      vertex -3.7249999999999996 -6.500000000000001 -12.375
      vertex -0.875 -3.5500000000000007 -12.375
      vertex -3.125 -6.500000000000001 -12.375
    endloop
  endfacet
  facet normal 0 0 1
    outer loop
      vertex -10.975 -8.05 -5.375
      vertex -0.875 -8.05 -5.375
      vertex -0.875 -4.749999999999999 -5.375
    endloop
  endfacet
  facet normal 0 1 0
    outer loop
      vertex -10.975 -3.5500000000000007 -6.975
      vertex -0.875 -3.5500000000000007 -6.975
      vertex -0.875 -3.5500000000000007 -12.375
    endloop
  endfacet
  facet normal 1 0 0
    outer loop
      vertex -0.875 -8.05 -5.375
      vertex -0.875 -4.749999999999999 -6.975
      vertex -0.875 -4.749999999999999 -5.375
    endloop
  endfacet
  facet normal 1 0 0
    outer loop
      vertex -0.875 -3.5500000000000007 -12.375
      vertex -0.875 -4.749999999999999 -6.975
      vertex -0.875 -8.05 -5.375
    endloop
  endfacet
  facet normal 1 0 0
    outer loop
      vertex -0.875 -3.5500000000000007 -12.375
      vertex -0.875 -3.5500000000000007 -6.975
      vertex -0.875 -4.749999999999999 -6.975
    endloop
  endfacet
endsolid OpenSCAD_Model
