solid OpenSCAD_Model
  facet normal 0 0 -1
    outer loop
      vertex 5.542562584220407 3.2 0
      vertex 5.542562584220407 3.3000000000000003 0
      vertex 5.629165124598851 3.35 0
    endloop
  endfacet
  facet normal 0 0 -1
    outer loop
      vertex 5.542562584220407 3.2 0
      vertex 5.629165124598851 3.35 0
      vertex 5.629165124598851 3.15 0
    endloop
  endfacet
  facet normal 0 0 -1
    outer loop
      vertex 5.629165124598851 3.15 0
      vertex 5.715767664977294 3.3 0
      vertex 5.715767664977294 3.1999999999999997 0
    endloop
  endfacet
  facet normal 0 0 -1
    outer loop
      vertex 5.629165124598851 3.15 0
      vertex 5.629165124598851 3.35 0
      vertex 5.715767664977294 3.3 0
    endloop
  endfacet
  facet normal -1 0 0
    outer loop
      vertex 5.542562584220407 3.2 0
      vertex 5.542562584220407 3.3000000000000003 5.3
      vertex 5.542562584220407 3.3000000000000003 0
    endloop
  endfacet
  facet normal -0.5000000000000041 -0.8660254037844364 0
    outer loop
      vertex 5.542562584220407 3.2 0
      vertex 5.629165124598851 3.15 0
      vertex 5.629165124598851 3.15 5.3
    endloop
  endfacet
  facet normal 0.5000000000000008 -0.8660254037844383 0
    outer loop
      vertex 5.629165124598851 3.15 0
      vertex 5.715767664977294 3.1999999999999997 0
      vertex 5.715767664977294 3.1999999999999997 5.3
    endloop
  endfacet
  facet normal -0.5000000000000041 -0.8660254037844364 0
    outer loop
      vertex 5.542562584220407 3.2 0
      vertex 5.629165124598851 3.15 5.3
      vertex 5.542562584220407 3.2 5.3
    endloop
  endfacet
  facet normal -1 0 0
    outer loop
      vertex 5.542562584220407 3.2 0
      vertex 5.542562584220407 3.2 5.3
      vertex 5.542562584220407 3.3000000000000003 5.3
    endloop
  endfacet
  facet normal 0.5000000000000008 -0.8660254037844383 0
    outer loop
      vertex 5.629165124598851 3.15 0
      vertex 5.715767664977294 3.1999999999999997 5.3
      vertex 5.629165124598851 3.15 5.3
    endloop
  endfacet
  facet normal 0 0 1
    outer loop
      vertex 5.542562584220407 3.2 5.3
      vertex 5.629165124598851 3.15 5.3
      vertex 5.542562584220407 3.3000000000000003 5.3
    endloop
  endfacet
  facet normal 0 0 1
    outer loop
      vertex 5.629165124598851 3.15 5.3
      vertex 5.629165124598851 3.35 5.3
      vertex 5.542562584220407 3.3000000000000003 5.3
    endloop
  endfacet
  facet normal 0 0 1
    outer loop
      vertex 5.629165124598851 3.15 5.3
      vertex 5.715767664977294 3.1999999999999997 5.3
      vertex 5.629165124598851 3.35 5.3
    endloop
  endfacet
  facet normal 0 0 1
    outer loop
      vertex 5.715767664977294 3.1999999999999997 5.3
      vertex 5.715767664977294 3.3 5.3
      vertex 5.629165124598851 3.35 5.3
    endloop
  endfacet
  facet normal 1 0 0
    outer loop
      vertex 5.715767664977294 3.1999999999999997 0
      vertex 5.715767664977294 3.3 0
      vertex 5.715767664977294 3.1999999999999997 5.3
    endloop
  endfacet
  facet normal 1 0 0
    outer loop
      vertex 5.715767664977294 3.3 0
      vertex 5.715767664977294 3.3 5.3
      vertex 5.715767664977294 3.1999999999999997 5.3
    endloop
  endfacet
  facet normal -0.5000000000000008 0.8660254037844383 0
    outer loop
      vertex 5.542562584220407 3.3000000000000003 0
      vertex 5.542562584220407 3.3000000000000003 5.3
      vertex 5.629165124598851 3.35 0
    endloop
  endfacet
  facet normal 0.5000000000000041 0.8660254037844364 0
    outer loop
      vertex 5.715767664977294 3.3 0
      vertex 5.629165124598851 3.35 0
      vertex 5.629165124598851 3.35 5.3
    endloop
  endfacet
  facet normal -0.5000000000000008 0.8660254037844383 0
    outer loop
      vertex 5.629165124598851 3.35 0
      vertex 5.542562584220407 3.3000000000000003 5.3
      vertex 5.629165124598851 3.35 5.3
    endloop
  endfacet
  facet normal 0.5000000000000041 0.8660254037844364 0
    outer loop
      vertex 5.715767664977294 3.3 0
      vertex 5.629165124598851 3.35 5.3
      vertex 5.715767664977294 3.3 5.3
    endloop
  endfacet
  facet normal 0 0 -1
    outer loop
      vertex -0.08660254037844387 6.45 0
      vertex 0 6.6 0
      vertex 0 6.4 0
    endloop
  endfacet
  facet normal 0 0 -1
    outer loop
      vertex -0.08660254037844387 6.45 0
      vertex -0.08660254037844387 6.55 0
      vertex 0 6.6 0
    endloop
  endfacet
  facet normal -0.4999999999999987 -0.8660254037844395 0
    outer loop
      vertex -0.08660254037844387 6.45 0
      vertex 0 6.4 0
      vertex 0 6.4 5.3
    endloop
  endfacet
  facet normal -1 0 0
    outer loop
      vertex -0.08660254037844387 6.45 0
      vertex -0.08660254037844387 6.55 5.3
      vertex -0.08660254037844387 6.55 0
    endloop
  endfacet
  facet normal -0.4999999999999987 0.8660254037844395 0
    outer loop
      vertex -0.08660254037844387 6.55 0
      vertex -0.08660254037844387 6.55 5.3
      vertex 0 6.6 0
    endloop
  endfacet
  facet normal -0.4999999999999987 -0.8660254037844395 0
    outer loop
      vertex -0.08660254037844387 6.45 0
      vertex 0 6.4 5.3
      vertex -0.08660254037844387 6.45 5.3
    endloop
  endfacet
  facet normal -1 0 0
    outer loop
      vertex -0.08660254037844387 6.45 0
      vertex -0.08660254037844387 6.45 5.3
      vertex -0.08660254037844387 6.55 5.3
    endloop
  endfacet
  facet normal -0.4999999999999987 0.8660254037844395 0
    outer loop
      vertex -0.08660254037844387 6.55 5.3
      vertex 0 6.6 5.3
      vertex 0 6.6 0
    endloop
  endfacet
  facet normal 0 0 1
    outer loop
      vertex -0.08660254037844387 6.45 5.3
      vertex 0 6.4 5.3
      vertex -0.08660254037844387 6.55 5.3
    endloop
  endfacet
  facet normal 0 0 1
    outer loop
      vertex -0.08660254037844387 6.55 5.3
      vertex 0 6.4 5.3
      vertex 0 6.6 5.3
    endloop
  endfacet
  facet normal 0 0 -1
    outer loop
      vertex 0 6.4 0
      vertex 0.08660254037844387 6.55 0
      vertex 0.08660254037844387 6.45 0
    endloop
  endfacet
  facet normal 0 0 -1
    outer loop
      vertex 0 6.4 0
      vertex 0 6.6 0
      vertex 0.08660254037844387 6.55 0
    endloop
  endfacet
  facet normal 0.4999999999999987 -0.8660254037844395 0
    outer loop
      vertex 0 6.4 0
      vertex 0.08660254037844387 6.45 0
      vertex 0.08660254037844387 6.45 5.3
    endloop
  endfacet
  facet normal 1 0 0
    outer loop
      vertex 0.08660254037844387 6.45 0
      vertex 0.08660254037844387 6.55 0
      vertex 0.08660254037844387 6.45 5.3
    endloop
  endfacet
  facet normal 0.4999999999999987 0.8660254037844395 0
    outer loop
      vertex 0 6.6 0
      vertex 0 6.6 5.3
      vertex 0.08660254037844387 6.55 0
    endloop
  endfacet
  facet normal 0.4999999999999987 -0.8660254037844395 0
    outer loop
      vertex 0 6.4 0
      vertex 0.08660254037844387 6.45 5.3
      vertex 0 6.4 5.3
    endloop
  endfacet
  facet normal 1 0 0
    outer loop
      vertex 0.08660254037844387 6.55 0
      vertex 0.08660254037844387 6.55 5.3
      vertex 0.08660254037844387 6.45 5.3
    endloop
  endfacet
  facet normal 0.4999999999999987 0.8660254037844395 0
    outer loop
      vertex 0.08660254037844387 6.55 0
      vertex 0 6.6 5.3
      vertex 0.08660254037844387 6.55 5.3
    endloop
  endfacet
  facet normal 0 0 1
    outer loop
      vertex 0 6.4 5.3
      vertex 0.08660254037844387 6.45 5.3
      vertex 0 6.6 5.3
    endloop
  endfacet
  facet normal 0 0 1
    outer loop
      vertex 0.08660254037844387 6.45 5.3
      vertex 0.08660254037844387 6.55 5.3
      vertex 0 6.6 5.3
    endloop
  endfacet
  facet normal 0 0 -1
    outer loop
      vertex -5.715767664977294 3.1999999999999997 0
      vertex -5.629165124598851 3.35 0
      vertex -5.629165124598851 3.15 0
    endloop
  endfacet
  facet normal 0 0 -1
    outer loop
      vertex -5.715767664977294 3.1999999999999997 0
      vertex -5.715767664977294 3.3 0
      vertex -5.629165124598851 3.35 0
    endloop
  endfacet
  facet normal 0 0 -1
    outer loop
      vertex -5.629165124598851 3.15 0
      vertex -5.629165124598851 3.35 0
      vertex -5.542562584220407 3.3000000000000003 0
    endloop
  endfacet
  facet normal 0 0 -1
    outer loop
      vertex -5.629165124598851 3.15 0
      vertex -5.542562584220407 3.3000000000000003 0
      vertex -5.542562584220407 3.2 0
    endloop
  endfacet
  facet normal -1 0 0
    outer loop
      vertex -5.715767664977294 3.1999999999999997 0
      vertex -5.715767664977294 3.3 5.3
      vertex -5.715767664977294 3.3 0
    endloop
  endfacet
  facet normal -1 0 0
    outer loop
      vertex -5.715767664977294 3.1999999999999997 0
      vertex -5.715767664977294 3.1999999999999997 5.3
      vertex -5.715767664977294 3.3 5.3
    endloop
  endfacet
  facet normal -0.5000000000000008 -0.8660254037844383 0
    outer loop
      vertex -5.715767664977294 3.1999999999999997 0
      vertex -5.629165124598851 3.15 0
      vertex -5.629165124598851 3.15 5.3
    endloop
  endfacet
  facet normal 0.5000000000000041 -0.8660254037844364 0
    outer loop
      vertex -5.629165124598851 3.15 0
      vertex -5.542562584220407 3.2 0
      vertex -5.542562584220407 3.2 5.3
    endloop
  endfacet
  facet normal 1 0 0
    outer loop
      vertex -5.542562584220407 3.2 0
      vertex -5.542562584220407 3.3000000000000003 0
      vertex -5.542562584220407 3.2 5.3
    endloop
  endfacet
  facet normal -0.5000000000000008 -0.8660254037844383 0
    outer loop
      vertex -5.715767664977294 3.1999999999999997 0
      vertex -5.629165124598851 3.15 5.3
      vertex -5.715767664977294 3.1999999999999997 5.3
    endloop
  endfacet
  facet normal 0.5000000000000041 -0.8660254037844364 0
    outer loop
      vertex -5.629165124598851 3.15 0
      vertex -5.542562584220407 3.2 5.3
      vertex -5.629165124598851 3.15 5.3
    endloop
  endfacet
  facet normal 1 0 0
    outer loop
      vertex -5.542562584220407 3.3000000000000003 0
      vertex -5.542562584220407 3.3000000000000003 5.3
      vertex -5.542562584220407 3.2 5.3
    endloop
  endfacet
  facet normal 0 0 1
    outer loop
      vertex -5.715767664977294 3.1999999999999997 5.3
      vertex -5.629165124598851 3.15 5.3
      vertex -5.715767664977294 3.3 5.3
    endloop
  endfacet
  facet normal 0 0 1
    outer loop
      vertex -5.715767664977294 3.3 5.3
      vertex -5.629165124598851 3.15 5.3
      vertex -5.629165124598851 3.35 5.3
    endloop
  endfacet
  facet normal 0 0 1
    outer loop
      vertex -5.629165124598851 3.15 5.3
      vertex -5.542562584220407 3.2 5.3
      vertex -5.629165124598851 3.35 5.3
    endloop
  endfacet
  facet normal 0 0 1
    outer loop
      vertex -5.542562584220407 3.2 5.3
      vertex -5.542562584220407 3.3000000000000003 5.3
      vertex -5.629165124598851 3.35 5.3
    endloop
  endfacet
  facet normal -0.5000000000000041 0.8660254037844364 0
    outer loop
      vertex -5.715767664977294 3.3 0
      vertex -5.715767664977294 3.3 5.3
      vertex -5.629165124598851 3.35 0
    endloop
  endfacet
  facet normal 0.5000000000000008 0.8660254037844383 0
    outer loop
      vertex -5.629165124598851 3.35 0
      vertex -5.629165124598851 3.35 5.3
      vertex -5.542562584220407 3.3000000000000003 0
    endloop
  endfacet
  facet normal -0.5000000000000041 0.8660254037844364 0
    outer loop
      vertex -5.629165124598851 3.35 0
      vertex -5.715767664977294 3.3 5.3
      vertex -5.629165124598851 3.35 5.3
    endloop
  endfacet
  facet normal 0.5000000000000008 0.8660254037844383 0
    outer loop
      vertex -5.542562584220407 3.3000000000000003 0
      vertex -5.629165124598851 3.35 5.3
      vertex -5.542562584220407 3.3000000000000003 5.3
    endloop
  endfacet
  facet normal -0.5000000000000041 -0.8660254037844364 0
    outer loop
      vertex -5.629165124598851 -3.35 0
      vertex -5.629165124598851 -3.35 5.3
      vertex -5.715767664977294 -3.3 0
    endloop
  endfacet
  facet normal 0.5000000000000008 -0.8660254037844383 0
    outer loop
      vertex -5.629165124598851 -3.35 0
      vertex -5.542562584220407 -3.3000000000000003 0
      vertex -5.542562584220407 -3.3000000000000003 5.3
    endloop
  endfacet
  facet normal -0.5000000000000041 -0.8660254037844364 0
    outer loop
      vertex -5.715767664977294 -3.3 0
      vertex -5.629165124598851 -3.35 5.3
      vertex -5.715767664977294 -3.3 5.3
    endloop
  endfacet
  facet normal 0.5000000000000008 -0.8660254037844383 0
    outer loop
      vertex -5.629165124598851 -3.35 0
      vertex -5.542562584220407 -3.3000000000000003 5.3
      vertex -5.629165124598851 -3.35 5.3
    endloop
  endfacet
  facet normal 0 0 -1
    outer loop
      vertex -5.629165124598851 -3.35 0
      vertex -5.715767664977294 -3.3 0
      vertex -5.629165124598851 -3.15 0
    endloop
  endfacet
  facet normal 0 0 -1
    outer loop
      vertex -5.715767664977294 -3.3 0
      vertex -5.715767664977294 -3.1999999999999997 0
      vertex -5.629165124598851 -3.15 0
    endloop
  endfacet
  facet normal 0 0 -1
    outer loop
      vertex -5.629165124598851 -3.35 0
      vertex -5.629165124598851 -3.15 0
      vertex -5.542562584220407 -3.2 0
    endloop
  endfacet
  facet normal 0 0 -1
    outer loop
      vertex -5.629165124598851 -3.35 0
      vertex -5.542562584220407 -3.2 0
      vertex -5.542562584220407 -3.3000000000000003 0
    endloop
  endfacet
  facet normal -1 0 0
    outer loop
      vertex -5.715767664977294 -3.3 0
      vertex -5.715767664977294 -3.1999999999999997 5.3
      vertex -5.715767664977294 -3.1999999999999997 0
    endloop
  endfacet
  facet normal -1 0 0
    outer loop
      vertex -5.715767664977294 -3.3 0
      vertex -5.715767664977294 -3.3 5.3
      vertex -5.715767664977294 -3.1999999999999997 5.3
    endloop
  endfacet
  facet normal -0.5000000000000008 0.8660254037844383 0
    outer loop
      vertex -5.715767664977294 -3.1999999999999997 0
      vertex -5.715767664977294 -3.1999999999999997 5.3
      vertex -5.629165124598851 -3.15 0
    endloop
  endfacet
  facet normal 0.5000000000000041 0.8660254037844364 0
    outer loop
      vertex -5.629165124598851 -3.15 0
      vertex -5.629165124598851 -3.15 5.3
      vertex -5.542562584220407 -3.2 0
    endloop
  endfacet
  facet normal 1 0 0
    outer loop
      vertex -5.542562584220407 -3.3000000000000003 0
      vertex -5.542562584220407 -3.2 0
      vertex -5.542562584220407 -3.3000000000000003 5.3
    endloop
  endfacet
  facet normal -0.5000000000000008 0.8660254037844383 0
    outer loop
      vertex -5.629165124598851 -3.15 0
      vertex -5.715767664977294 -3.1999999999999997 5.3
      vertex -5.629165124598851 -3.15 5.3
    endloop
  endfacet
  facet normal 1 0 0
    outer loop
      vertex -5.542562584220407 -3.2 0
      vertex -5.542562584220407 -3.2 5.3
      vertex -5.542562584220407 -3.3000000000000003 5.3
    endloop
  endfacet
  facet normal 0.5000000000000041 0.8660254037844364 0
    outer loop
      vertex -5.542562584220407 -3.2 0
      vertex -5.629165124598851 -3.15 5.3
      vertex -5.542562584220407 -3.2 5.3
    endloop
  endfacet
  facet normal 0 0 1
    outer loop
      vertex -5.629165124598851 -3.35 5.3
      vertex -5.715767664977294 -3.1999999999999997 5.3
      vertex -5.715767664977294 -3.3 5.3
    endloop
  endfacet
  facet normal 0 0 1
    outer loop
      vertex -5.629165124598851 -3.35 5.3
      vertex -5.629165124598851 -3.15 5.3
      vertex -5.715767664977294 -3.1999999999999997 5.3
    endloop
  endfacet
  facet normal 0 0 1
    outer loop
      vertex -5.629165124598851 -3.35 5.3
      vertex -5.542562584220407 -3.3000000000000003 5.3
      vertex -5.629165124598851 -3.15 5.3
    endloop
  endfacet
  facet normal 0 0 1
    outer loop
      vertex -5.542562584220407 -3.3000000000000003 5.3
      vertex -5.542562584220407 -3.2 5.3
      vertex -5.629165124598851 -3.15 5.3
    endloop
  endfacet
  facet normal 0 0 -1
    outer loop
      vertex -0.08660254037844387 -6.55 0
      vertex 0 -6.4 0
      vertex 0 -6.6 0
    endloop
  endfacet
  facet normal 0 0 -1
    outer loop
      vertex -0.08660254037844387 -6.55 0
      vertex -0.08660254037844387 -6.45 0
      vertex 0 -6.4 0
    endloop
  endfacet
  facet normal -0.4999999999999987 -0.8660254037844395 0
    outer loop
      vertex -0.08660254037844387 -6.55 0
      vertex 0 -6.6 0
      vertex 0 -6.6 5.3
    endloop
  endfacet
  facet normal -1 0 0
    outer loop
      vertex -0.08660254037844387 -6.55 0
      vertex -0.08660254037844387 -6.45 5.3
      vertex -0.08660254037844387 -6.45 0
    endloop
  endfacet
  facet normal -0.4999999999999987 0.8660254037844395 0
    outer loop
      vertex -0.08660254037844387 -6.45 0
      vertex -0.08660254037844387 -6.45 5.3
      vertex 0 -6.4 0
    endloop
  endfacet
  facet normal -0.4999999999999987 -0.8660254037844395 0
    outer loop
      vertex -0.08660254037844387 -6.55 0
      vertex 0 -6.6 5.3
      vertex -0.08660254037844387 -6.55 5.3
    endloop
  endfacet
  facet normal -1 0 0
    outer loop
      vertex -0.08660254037844387 -6.55 0
      vertex -0.08660254037844387 -6.55 5.3
      vertex -0.08660254037844387 -6.45 5.3
    endloop
  endfacet
  facet normal -0.4999999999999987 0.8660254037844395 0
    outer loop
      vertex -0.08660254037844387 -6.45 5.3
      vertex 0 -6.4 5.3
      vertex 0 -6.4 0
    endloop
  endfacet
  facet normal 0 0 1
    outer loop
      vertex -0.08660254037844387 -6.55 5.3
      vertex 0 -6.6 5.3
      vertex -0.08660254037844387 -6.45 5.3
    endloop
  endfacet
  facet normal 0 0 1
    outer loop
      vertex -0.08660254037844387 -6.45 5.3
      vertex 0 -6.6 5.3
      vertex 0 -6.4 5.3
    endloop
  endfacet
  facet normal 0 0 -1
    outer loop
      vertex 0 -6.6 0
      vertex 0.08660254037844387 -6.45 0
      vertex 0.08660254037844387 -6.55 0
    endloop
  endfacet
  facet normal 0 0 -1
    outer loop
      vertex 0 -6.6 0
      vertex 0 -6.4 0
      vertex 0.08660254037844387 -6.45 0
    endloop
  endfacet
  facet normal 0.4999999999999987 -0.8660254037844395 0
    outer loop
      vertex 0 -6.6 0
      vertex 0.08660254037844387 -6.55 0
      vertex 0.08660254037844387 -6.55 5.3
    endloop
  endfacet
  facet normal 1 0 0
    outer loop
      vertex 0.08660254037844387 -6.55 0
      vertex 0.08660254037844387 -6.45 0
      vertex 0.08660254037844387 -6.55 5.3
    endloop
  endfacet
  facet normal 0.4999999999999987 0.8660254037844395 0
    outer loop
      vertex 0 -6.4 0
      vertex 0 -6.4 5.3
      vertex 0.08660254037844387 -6.45 0
    endloop
  endfacet
  facet normal 0.4999999999999987 -0.8660254037844395 0
    outer loop
      vertex 0 -6.6 0
      vertex 0.08660254037844387 -6.55 5.3
      vertex 0 -6.6 5.3
    endloop
  endfacet
  facet normal 1 0 0
    outer loop
      vertex 0.08660254037844387 -6.45 0
      vertex 0.08660254037844387 -6.45 5.3
      vertex 0.08660254037844387 -6.55 5.3
    endloop
  endfacet
  facet normal 0.4999999999999987 0.8660254037844395 0
    outer loop
      vertex 0.08660254037844387 -6.45 0
      vertex 0 -6.4 5.3
      vertex 0.08660254037844387 -6.45 5.3
    endloop
  endfacet
  facet normal 0 0 1
    outer loop
      vertex 0 -6.6 5.3
      vertex 0.08660254037844387 -6.55 5.3
      vertex 0 -6.4 5.3
    endloop
  endfacet
  facet normal 0 0 1
    outer loop
      vertex 0.08660254037844387 -6.55 5.3
      vertex 0.08660254037844387 -6.45 5.3
      vertex 0 -6.4 5.3
    endloop
  endfacet
  facet normal -0.5000000000000008 -0.8660254037844383 0
    outer loop
      vertex 5.542562584220407 -3.3000000000000003 0
      vertex 5.629165124598851 -3.35 0
      vertex 5.629165124598851 -3.35 5.3
    endloop
  endfacet
  facet normal 0.5000000000000041 -0.8660254037844364 0
    outer loop
      vertex 5.629165124598851 -3.35 0
      vertex 5.715767664977294 -3.3 0
      vertex 5.715767664977294 -3.3 5.3
    endloop
  endfacet
  facet normal -0.5000000000000008 -0.8660254037844383 0
    outer loop
      vertex 5.542562584220407 -3.3000000000000003 0
      vertex 5.629165124598851 -3.35 5.3
      vertex 5.542562584220407 -3.3000000000000003 5.3
    endloop
  endfacet
  facet normal 0.5000000000000041 -0.8660254037844364 0
    outer loop
      vertex 5.629165124598851 -3.35 0
      vertex 5.715767664977294 -3.3 5.3
      vertex 5.629165124598851 -3.35 5.3
    endloop
  endfacet
  facet normal 0 0 -1
    outer loop
      vertex 5.542562584220407 -3.3000000000000003 0
      vertex 5.542562584220407 -3.2 0
      vertex 5.629165124598851 -3.15 0
    endloop
  endfacet
  facet normal 0 0 -1
    outer loop
      vertex 5.542562584220407 -3.3000000000000003 0
      vertex 5.629165124598851 -3.15 0
      vertex 5.629165124598851 -3.35 0
    endloop
  endfacet
  facet normal 0 0 -1
    outer loop
      vertex 5.629165124598851 -3.35 0
      vertex 5.715767664977294 -3.1999999999999997 0
      vertex 5.715767664977294 -3.3 0
    endloop
  endfacet
  facet normal 0 0 -1
    outer loop
      vertex 5.629165124598851 -3.35 0
      vertex 5.629165124598851 -3.15 0
      vertex 5.715767664977294 -3.1999999999999997 0
    endloop
  endfacet
  facet normal -1 0 0
    outer loop
      vertex 5.542562584220407 -3.3000000000000003 0
      vertex 5.542562584220407 -3.2 5.3
      vertex 5.542562584220407 -3.2 0
    endloop
  endfacet
  facet normal -0.5000000000000041 0.8660254037844364 0
    outer loop
      vertex 5.542562584220407 -3.2 0
      vertex 5.542562584220407 -3.2 5.3
      vertex 5.629165124598851 -3.15 0
    endloop
  endfacet
  facet normal 0.5000000000000008 0.8660254037844383 0
    outer loop
      vertex 5.629165124598851 -3.15 0
      vertex 5.629165124598851 -3.15 5.3
      vertex 5.715767664977294 -3.1999999999999997 0
    endloop
  endfacet
  facet normal -1 0 0
    outer loop
      vertex 5.542562584220407 -3.3000000000000003 0
      vertex 5.542562584220407 -3.3000000000000003 5.3
      vertex 5.542562584220407 -3.2 5.3
    endloop
  endfacet
  facet normal -0.5000000000000041 0.8660254037844364 0
    outer loop
      vertex 5.629165124598851 -3.15 0
      vertex 5.542562584220407 -3.2 5.3
      vertex 5.629165124598851 -3.15 5.3
    endloop
  endfacet
  facet normal 0.5000000000000008 0.8660254037844383 0
    outer loop
      vertex 5.715767664977294 -3.1999999999999997 0
      vertex 5.629165124598851 -3.15 5.3
      vertex 5.715767664977294 -3.1999999999999997 5.3
    endloop
  endfacet
  facet normal 0 0 1
    outer loop
      vertex 5.542562584220407 -3.3000000000000003 5.3
      vertex 5.629165124598851 -3.35 5.3
      vertex 5.542562584220407 -3.2 5.3
    endloop
  endfacet
  facet normal 0 0 1
    outer loop
      vertex 5.629165124598851 -3.35 5.3
      vertex 5.629165124598851 -3.15 5.3
      vertex 5.542562584220407 -3.2 5.3
    endloop
  endfacet
  facet normal 0 0 1
    outer loop
      vertex 5.629165124598851 -3.35 5.3
      vertex 5.715767664977294 -3.3 5.3
      vertex 5.629165124598851 -3.15 5.3
    endloop
  endfacet
  facet normal 0 0 1
    outer loop
      vertex 5.629165124598851 -3.15 5.3
      vertex 5.715767664977294 -3.3 5.3
      vertex 5.715767664977294 -3.1999999999999997 5.3
    endloop
  endfacet
  facet normal 1 0 0
    outer loop
      vertex 5.715767664977294 -3.3 0
      vertex 5.715767664977294 -3.1999999999999997 0
      vertex 5.715767664977294 -3.3 5.3
    endloop
  endfacet
  facet normal 1 0 0
    outer loop
      vertex 5.715767664977294 -3.1999999999999997 0
      vertex 5.715767664977294 -3.1999999999999997 5.3
      vertex 5.715767664977294 -3.3 5.3
    endloop
  endfacet
  facet normal -0.8660254037844386 -0.5000000000000001 0
    outer loop
      vertex -3.25 -5.629165124598851 0.1
      vertex -3.25 -5.629165124598851 5.3
      vertex -6.5 0 5.3
    endloop
  endfacet
  facet normal -0.8660254037844386 -0.5000000000000001 0
    outer loop
      vertex -3.25 -5.629165124598851 0.1
      vertex -6.5 0 5.3
      vertex -6.5 0 0.1
    endloop
  endfacet
  facet normal 0 -1 0
    outer loop
      vertex -3.25 -5.629165124598851 0.1
      vertex 3.25 -5.629165124598851 0.1
      vertex -3.25 -5.629165124598851 5.3
    endloop
  endfacet
  facet normal 0 0 1
    outer loop
      vertex -3.25 -5.629165124598851 5.3
      vertex 3.25 -5.629165124598851 5.3
      vertex -3.25 5.629165124598851 5.3
    endloop
  endfacet
  facet normal -0.8660254037844386 0.5000000000000001 0
    outer loop
      vertex -6.5 0 0.1
      vertex -6.5 0 5.3
      vertex -3.25 5.629165124598851 5.3
    endloop
  endfacet
  facet normal 0 0 1
    outer loop
      vertex -3.25 -5.629165124598851 5.3
      vertex -3.25 5.629165124598851 5.3
      vertex -6.5 0 5.3
    endloop
  endfacet
  facet normal -0.8660254037844386 0.5000000000000001 0
    outer loop
      vertex -6.5 0 0.1
      vertex -3.25 5.629165124598851 5.3
      vertex -3.25 5.629165124598851 0.1
    endloop
  endfacet
  facet normal 0 1 0
    outer loop
      vertex -3.25 5.629165124598851 0.1
      vertex -3.25 5.629165124598851 5.3
      vertex 3.25 5.629165124598851 5.3
    endloop
  endfacet
  facet normal 0 -1 0
    outer loop
      vertex -3.25 -5.629165124598851 5.3
      vertex 3.25 -5.629165124598851 0.1
      vertex 3.25 -5.629165124598851 5.3
    endloop
  endfacet
  facet normal 0.8660254037844386 -0.5000000000000001 0
    outer loop
      vertex 3.25 -5.629165124598851 0.1
      vertex 6.5 0 0.1
      vertex 3.25 -5.629165124598851 5.3
    endloop
  endfacet
  facet normal 0.8660254037844386 -0.5000000000000001 0
    outer loop
      vertex 3.25 -5.629165124598851 5.3
      vertex 6.5 0 0.1
      vertex 6.5 0 5.3
    endloop
  endfacet
  facet normal 0 0 1
    outer loop
      vertex -3.25 5.629165124598851 5.3
      vertex 3.25 -5.629165124598851 5.3
      vertex 3.25 5.629165124598851 5.3
    endloop
  endfacet
  facet normal 0 1 0
    outer loop
      vertex -3.25 5.629165124598851 0.1
      vertex 3.25 5.629165124598851 5.3
      vertex 3.25 5.629165124598851 0.1
    endloop
  endfacet
  facet normal 0 0 1
    outer loop
      vertex 3.25 -5.629165124598851 5.3
      vertex 6.5 0 5.3
      vertex 3.25 5.629165124598851 5.3
    endloop
  endfacet
  facet normal 0.8660254037844386 0.5000000000000001 0
    outer loop
      vertex 6.5 0 0.1
      vertex 3.25 5.629165124598851 0.1
      vertex 6.5 0 5.3
    endloop
  endfacet
  facet normal 0.8660254037844386 0.5000000000000001 0
    outer loop
      vertex 3.25 5.629165124598851 0.1
      vertex 3.25 5.629165124598851 5.3
      vertex 6.5 0 5.3
    endloop
  endfacet
  facet normal -0.8660254037844387 -0.5000000000000001 0
    outer loop
      vertex -3.25 -5.629165124598851 0
      vertex -3.25 -5.629165124598851 0.1
      vertex -6.5 0 0.1
    endloop
  endfacet
  facet normal -0.8660254037844387 -0.5000000000000001 0
    outer loop
      vertex -3.25 -5.629165124598851 0
      vertex -6.5 0 0.1
      vertex -6.5 0 0
    endloop
  endfacet
  facet normal 0 0 -1
    outer loop
      vertex -3.25 -5.629165124598851 0
      vertex -6.5 0 0
      vertex -2.994042992684404 -2.652490632963181 0
    endloop
  endfacet
  facet normal 0 0 -1
    outer loop
      vertex -6.5 0 0
      vertex -3.883767269704208 -0.9572626571502305 0
      vertex -2.994042992684404 -2.652490632963181 0
    endloop
  endfacet
  facet normal 0 0 -1
    outer loop
      vertex -3.25 -5.629165124598851 0
      vertex -2.994042992684404 -2.652490632963181 0
      vertex -1.4184195481701427 -3.7400649707416593 0
    endloop
  endfacet
  facet normal 0 -1 0
    outer loop
      vertex -3.25 -5.629165124598851 0
      vertex 3.25 -5.629165124598851 0.1
      vertex -3.25 -5.629165124598851 0.1
    endloop
  endfacet
  facet normal 0 0 -1
    outer loop
      vertex -3.25 -5.629165124598851 0
      vertex -1.4184195481701427 -3.7400649707416593 0
      vertex 0.482146721021291 -3.9708354963922163 0
    endloop
  endfacet
  facet normal -0.8660254037844387 0.5000000000000001 0
    outer loop
      vertex -6.5 0 0
      vertex -6.5 0 0.1
      vertex -3.25 5.629165124598851 0.1
    endloop
  endfacet
  facet normal 0 0 -1
    outer loop
      vertex -6.5 0 0
      vertex -3.883767269704208 0.9572626571502305 0
      vertex -3.883767269704208 -0.9572626571502305 0
    endloop
  endfacet
  facet normal 0 0 -1
    outer loop
      vertex -6.5 0 0
      vertex -3.25 5.629165124598851 0
      vertex -3.883767269704208 0.9572626571502305 0
    endloop
  endfacet
  facet normal 0 0 -1
    outer loop
      vertex -3.25 5.629165124598851 0
      vertex -2.994042992684404 2.652490632963181 0
      vertex -3.883767269704208 0.9572626571502305 0
    endloop
  endfacet
  facet normal -0.8660254037844387 0.5000000000000001 0
    outer loop
      vertex -6.5 0 0
      vertex -3.25 5.629165124598851 0.1
      vertex -3.25 5.629165124598851 0
    endloop
  endfacet
  facet normal 0 0 -1
    outer loop
      vertex -3.25 5.629165124598851 0
      vertex -1.4184195481701427 3.7400649707416593 0
      vertex -2.994042992684404 2.652490632963181 0
    endloop
  endfacet
  facet normal 0 0 -1
    outer loop
      vertex -3.25 5.629165124598851 0
      vertex 0.48214672102129197 3.970835496392216 0
      vertex -1.4184195481701427 3.7400649707416593 0
    endloop
  endfacet
  facet normal 0 1 0
    outer loop
      vertex -3.25 5.629165124598851 0
      vertex -3.25 5.629165124598851 0.1
      vertex 3.25 5.629165124598851 0
    endloop
  endfacet
  facet normal 0 0 -1
    outer loop
      vertex -3.25 -5.629165124598851 0
      vertex 0.482146721021291 -3.9708354963922163 0
      vertex 3.25 -5.629165124598851 0
    endloop
  endfacet
  facet normal 0 -1 0
    outer loop
      vertex -3.25 -5.629165124598851 0
      vertex 3.25 -5.629165124598851 0
      vertex 3.25 -5.629165124598851 0.1
    endloop
  endfacet
  facet normal 0 0 -1
    outer loop
      vertex 3.25 -5.629165124598851 0
      vertex 0.482146721021291 -3.9708354963922163 0
      vertex 2.2722589869246246 -3.2919354635746245 0
    endloop
  endfacet
  facet normal 0 0 -1
    outer loop
      vertex 3.25 -5.629165124598851 0
      vertex 2.2722589869246246 -3.2919354635746245 0
      vertex 3.54182410261284 -1.8588926881750734 0
    endloop
  endfacet
  facet normal 0.8660254037844387 -0.5000000000000001 0
    outer loop
      vertex 3.25 -5.629165124598851 0
      vertex 6.5 0 0
      vertex 3.25 -5.629165124598851 0.1
    endloop
  endfacet
  facet normal 0 0 -1
    outer loop
      vertex 3.25 -5.629165124598851 0
      vertex 3.54182410261284 -1.8588926881750734 0
      vertex 6.5 0 0
    endloop
  endfacet
  facet normal 0 0 -1
    outer loop
      vertex 6.5 0 0
      vertex 3.54182410261284 -1.8588926881750734 0
      vertex 4 0 0
    endloop
  endfacet
  facet normal 0.8660254037844387 -0.5000000000000001 0
    outer loop
      vertex 3.25 -5.629165124598851 0.1
      vertex 6.5 0 0
      vertex 6.5 0 0.1
    endloop
  endfacet
  facet normal 0 0 -1
    outer loop
      vertex -3.25 5.629165124598851 0
      vertex 3.25 5.629165124598851 0
      vertex 0.48214672102129197 3.970835496392216 0
    endloop
  endfacet
  facet normal 0 1 0
    outer loop
      vertex -3.25 5.629165124598851 0.1
      vertex 3.25 5.629165124598851 0.1
      vertex 3.25 5.629165124598851 0
    endloop
  endfacet
  facet normal 0 0 -1
    outer loop
      vertex 3.25 5.629165124598851 0
      vertex 2.272258986924623 3.291935463574626 0
      vertex 0.48214672102129197 3.970835496392216 0
    endloop
  endfacet
  facet normal 0 0 -1
    outer loop
      vertex 6.5 0 0
      vertex 4 0 0
      vertex 3.5418241026128396 1.8588926881750742 0
    endloop
  endfacet
  facet normal 0 0 -1
    outer loop
      vertex 6.5 0 0
      vertex 2.272258986924623 3.291935463574626 0
      vertex 3.25 5.629165124598851 0
    endloop
  endfacet
  facet normal 0 0 -1
    outer loop
      vertex 6.5 0 0
      vertex 3.5418241026128396 1.8588926881750742 0
      vertex 2.272258986924623 3.291935463574626 0
    endloop
  endfacet
  facet normal 0.8660254037844387 0.5000000000000001 0
    outer loop
      vertex 6.5 0 0
      vertex 3.25 5.629165124598851 0
      vertex 6.5 0 0.1
    endloop
  endfacet
  facet normal 0.8660254037844387 0.5000000000000001 0
    outer loop
      vertex 6.5 0 0.1
      vertex 3.25 5.629165124598851 0
      vertex 3.25 5.629165124598851 0.1
    endloop
  endfacet
  facet normal 0 0 -1
    outer loop
      vertex -2.994042992684404 -2.652490632963181 -30
      vertex -3.883767269704208 -0.9572626571502305 -30
      vertex -2.994042992684404 2.652490632963181 -30
    endloop
  endfacet
  facet normal -0.8854560256532098 -0.4647231720437685 0
    outer loop
      vertex -2.994042992684404 -2.652490632963181 -30
      vertex -3.883767269704208 -0.9572626571502305 0
      vertex -3.883767269704208 -0.9572626571502305 -30
    endloop
  endfacet
  facet normal -0.5680647467311558 -0.8229838658936564 0
    outer loop
      vertex -2.994042992684404 -2.652490632963181 -30
      vertex -1.4184195481701427 -3.7400649707416593 -30
      vertex -1.4184195481701427 -3.7400649707416593 0
    endloop
  endfacet
  facet normal -0.12053668025532327 -0.9927088740980539 0
    outer loop
      vertex -1.4184195481701427 -3.7400649707416593 -30
      vertex 0.482146721021291 -3.9708354963922163 -30
      vertex 0.482146721021291 -3.9708354963922163 0
    endloop
  endfacet
  facet normal 0 0 -1
    outer loop
      vertex -2.994042992684404 -2.652490632963181 -30
      vertex -1.4184195481701427 3.7400649707416593 -30
      vertex -1.4184195481701427 -3.7400649707416593 -30
    endloop
  endfacet
  facet normal 0 0 -1
    outer loop
      vertex -1.4184195481701427 -3.7400649707416593 -30
      vertex 0.48214672102129197 3.970835496392216 -30
      vertex 0.482146721021291 -3.9708354963922163 -30
    endloop
  endfacet
  facet normal -0.8854560256532098 -0.4647231720437685 0
    outer loop
      vertex -2.994042992684404 -2.652490632963181 -30
      vertex -2.994042992684404 -2.652490632963181 0
      vertex -3.883767269704208 -0.9572626571502305 0
    endloop
  endfacet
  facet normal -1 0 0
    outer loop
      vertex -3.883767269704208 -0.9572626571502305 -30
      vertex -3.883767269704208 -0.9572626571502305 0
      vertex -3.883767269704208 0.9572626571502305 0
    endloop
  endfacet
  facet normal -0.12053668025532327 -0.9927088740980539 0
    outer loop
      vertex -1.4184195481701427 -3.7400649707416593 -30
      vertex 0.482146721021291 -3.9708354963922163 0
      vertex -1.4184195481701427 -3.7400649707416593 0
    endloop
  endfacet
  facet normal -0.5680647467311558 -0.8229838658936564 0
    outer loop
      vertex -2.994042992684404 -2.652490632963181 -30
      vertex -1.4184195481701427 -3.7400649707416593 0
      vertex -2.994042992684404 -2.652490632963181 0
    endloop
  endfacet
  facet normal 0 0 -1
    outer loop
      vertex -3.883767269704208 -0.9572626571502305 -30
      vertex -3.883767269704208 0.9572626571502305 -30
      vertex -2.994042992684404 2.652490632963181 -30
    endloop
  endfacet
  facet normal -1 0 0
    outer loop
      vertex -3.883767269704208 -0.9572626571502305 -30
      vertex -3.883767269704208 0.9572626571502305 0
      vertex -3.883767269704208 0.9572626571502305 -30
    endloop
  endfacet
  facet normal -0.8854560256532098 0.4647231720437685 0
    outer loop
      vertex -3.883767269704208 0.9572626571502305 -30
      vertex -2.994042992684404 2.652490632963181 0
      vertex -2.994042992684404 2.652490632963181 -30
    endloop
  endfacet
  facet normal 0 0 -1
    outer loop
      vertex -2.994042992684404 -2.652490632963181 -30
      vertex -2.994042992684404 2.652490632963181 -30
      vertex -1.4184195481701427 3.7400649707416593 -30
    endloop
  endfacet
  facet normal 0 0 -1
    outer loop
      vertex -1.4184195481701427 -3.7400649707416593 -30
      vertex -1.4184195481701427 3.7400649707416593 -30
      vertex 0.48214672102129197 3.970835496392216 -30
    endloop
  endfacet
  facet normal -0.5680647467311558 0.8229838658936564 0
    outer loop
      vertex -2.994042992684404 2.652490632963181 -30
      vertex -2.994042992684404 2.652490632963181 0
      vertex -1.4184195481701427 3.7400649707416593 -30
    endloop
  endfacet
  facet normal -0.12053668025532299 0.9927088740980541 0
    outer loop
      vertex -1.4184195481701427 3.7400649707416593 -30
      vertex -1.4184195481701427 3.7400649707416593 0
      vertex 0.48214672102129197 3.970835496392216 -30
    endloop
  endfacet
  facet normal -0.8854560256532098 0.4647231720437685 0
    outer loop
      vertex -3.883767269704208 0.9572626571502305 -30
      vertex -3.883767269704208 0.9572626571502305 0
      vertex -2.994042992684404 2.652490632963181 0
    endloop
  endfacet
  facet normal -0.5680647467311558 0.8229838658936564 0
    outer loop
      vertex -1.4184195481701427 3.7400649707416593 -30
      vertex -2.994042992684404 2.652490632963181 0
      vertex -1.4184195481701427 3.7400649707416593 0
    endloop
  endfacet
  facet normal -0.12053668025532299 0.9927088740980541 0
    outer loop
      vertex 0.48214672102129197 3.970835496392216 -30
      vertex -1.4184195481701427 3.7400649707416593 0
      vertex 0.48214672102129197 3.970835496392216 0
    endloop
  endfacet
  facet normal 0.35460488704253584 -0.9350162426854147 0
    outer loop
      vertex 0.482146721021291 -3.9708354963922163 -30
      vertex 2.2722589869246246 -3.2919354635746245 -30
      vertex 2.2722589869246246 -3.2919354635746245 0
    endloop
  endfacet
  facet normal 0 0 -1
    outer loop
      vertex 0.482146721021291 -3.9708354963922163 -30
      vertex 2.272258986924623 3.291935463574626 -30
      vertex 2.2722589869246246 -3.2919354635746245 -30
    endloop
  endfacet
  facet normal 0 0 -1
    outer loop
      vertex 2.2722589869246246 -3.2919354635746245 -30
      vertex 3.5418241026128396 1.8588926881750742 -30
      vertex 3.54182410261284 -1.8588926881750734 -30
    endloop
  endfacet
  facet normal 0.7485107481711013 -0.663122658240795 0
    outer loop
      vertex 2.2722589869246246 -3.2919354635746245 -30
      vertex 3.54182410261284 -1.8588926881750734 -30
      vertex 2.2722589869246246 -3.2919354635746245 0
    endloop
  endfacet
  facet normal 0.9709418174260521 -0.23931566428755766 0
    outer loop
      vertex 3.54182410261284 -1.8588926881750734 -30
      vertex 4 0 -30
      vertex 3.54182410261284 -1.8588926881750734 0
    endloop
  endfacet
  facet normal 0.35460488704253584 -0.9350162426854147 0
    outer loop
      vertex 0.482146721021291 -3.9708354963922163 -30
      vertex 2.2722589869246246 -3.2919354635746245 0
      vertex 0.482146721021291 -3.9708354963922163 0
    endloop
  endfacet
  facet normal 0.7485107481711013 -0.663122658240795 0
    outer loop
      vertex 3.54182410261284 -1.8588926881750734 -30
      vertex 3.54182410261284 -1.8588926881750734 0
      vertex 2.2722589869246246 -3.2919354635746245 0
    endloop
  endfacet
  facet normal 0.9709418174260521 -0.23931566428755766 0
    outer loop
      vertex 4 0 -30
      vertex 4 0 0
      vertex 3.54182410261284 -1.8588926881750734 0
    endloop
  endfacet
  facet normal 0 0 -1
    outer loop
      vertex 0.482146721021291 -3.9708354963922163 -30
      vertex 0.48214672102129197 3.970835496392216 -30
      vertex 2.272258986924623 3.291935463574626 -30
    endloop
  endfacet
  facet normal 0 0 -1
    outer loop
      vertex 2.2722589869246246 -3.2919354635746245 -30
      vertex 2.272258986924623 3.291935463574626 -30
      vertex 3.5418241026128396 1.8588926881750742 -30
    endloop
  endfacet
  facet normal 0.748510748171101 0.6631226582407953 0
    outer loop
      vertex 3.5418241026128396 1.8588926881750742 -30
      vertex 2.272258986924623 3.291935463574626 -30
      vertex 3.5418241026128396 1.8588926881750742 0
    endloop
  endfacet
  facet normal 0.35460488704253545 0.9350162426854148 0
    outer loop
      vertex 0.48214672102129197 3.970835496392216 -30
      vertex 0.48214672102129197 3.970835496392216 0
      vertex 2.272258986924623 3.291935463574626 -30
    endloop
  endfacet
  facet normal 0 0 -1
    outer loop
      vertex 3.54182410261284 -1.8588926881750734 -30
      vertex 3.5418241026128396 1.8588926881750742 -30
      vertex 4 0 -30
    endloop
  endfacet
  facet normal 0.970941817426052 0.2393156642875577 0
    outer loop
      vertex 4 0 -30
      vertex 3.5418241026128396 1.8588926881750742 -30
      vertex 4 0 0
    endloop
  endfacet
  facet normal 0.748510748171101 0.6631226582407953 0
    outer loop
      vertex 2.272258986924623 3.291935463574626 -30
      vertex 2.272258986924623 3.291935463574626 0
      vertex 3.5418241026128396 1.8588926881750742 0
    endloop
  endfacet
  facet normal 0.35460488704253545 0.9350162426854148 0
    outer loop
      vertex 2.272258986924623 3.291935463574626 -30
      vertex 0.48214672102129197 3.970835496392216 0
      vertex 2.272258986924623 3.291935463574626 0
    endloop
  endfacet
  facet normal 0.970941817426052 0.2393156642875577 0
    outer loop
      vertex 3.5418241026128396 1.8588926881750742 -30
      vertex 3.5418241026128396 1.8588926881750742 0
      vertex 4 0 0
    endloop
  endfacet
endsolid OpenSCAD_Model
