solid OpenSCAD_Model
  facet normal -0.6069495347012942 -0.7947403741637153 0
    outer loop
      vertex -3.25 -3.25 0
      vertex -3.25 -3.25 5.3
      vertex -7.505553498864174 0 5.3
    endloop
  endfacet
  facet normal -0.6069495347012942 -0.7947403741637153 0
    outer loop
      vertex -3.25 -3.25 0
      vertex -7.505553498864174 0 5.3
      vertex -7.505553498864174 0 0
    endloop
  endfacet
  facet normal 0 -1 0
    outer loop
      vertex -3.25 -3.25 0
      vertex 3.25 -3.25 0
      vertex -3.25 -3.25 5.3
    endloop
  endfacet
  facet normal -0.6069495347012942 0.7947403741637153 0
    outer loop
      vertex -7.505553498864174 0 0
      vertex -7.505553498864174 0 5.3
      vertex -3.25 3.25 5.3
    endloop
  endfacet
  facet normal 0 0 -1
    outer loop
      vertex -3.25 -3.25 0
      vertex -7.505553498864174 0 0
      vertex -3.25 3.25 0
    endloop
  endfacet
  facet normal 0 0 1
    outer loop
      vertex -3.25 -3.25 5.3
      vertex -3.25 3.25 5.3
      vertex -7.505553498864174 0 5.3
    endloop
  endfacet
  facet normal -0.6069495347012942 0.7947403741637153 0
    outer loop
      vertex -7.505553498864174 0 0
      vertex -3.25 3.25 5.3
      vertex -3.25 3.25 0
    endloop
  endfacet
  facet normal 0 0 -1
    outer loop
      vertex -3.25 -3.25 0
      vertex -3.25 3.25 0
      vertex 3.25 3.25 0
    endloop
  endfacet
  facet normal 0 0 1
    outer loop
      vertex -3.25 -3.25 5.3
      vertex 3.25 3.25 5.3
      vertex -3.25 3.25 5.3
    endloop
  endfacet
  facet normal 0 1 0
    outer loop
      vertex -3.25 3.25 0
      vertex -3.25 3.25 5.3
      vertex 3.25 3.25 5.3
    endloop
  endfacet
  facet normal 0 -1 0
    outer loop
      vertex -3.25 -3.25 5.3
      vertex 3.25 -3.25 0
      vertex 3.25 -3.25 5.3
    endloop
  endfacet
  facet normal 0 0 -1
    outer loop
      vertex -3.25 -3.25 0
      vertex 3.25 3.25 0
      vertex 3.25 -3.25 0
    endloop
  endfacet
  facet normal 0 0 1
    outer loop
      vertex -3.25 -3.25 5.3
      vertex 3.25 -3.25 5.3
      vertex 3.25 3.25 5.3
    endloop
  endfacet
  facet normal 0.6069495347012942 -0.7947403741637153 0
    outer loop
      vertex 3.25 -3.25 0
      vertex 7.505553498864174 0 0
      vertex 3.25 -3.25 5.3
    endloop
  endfacet
  facet normal 0.6069495347012942 -0.7947403741637153 0
    outer loop
      vertex 3.25 -3.25 5.3
      vertex 7.505553498864174 0 0
      vertex 7.505553498864174 0 5.3
    endloop
  endfacet
  facet normal 0 1 0
    outer loop
      vertex -3.25 3.25 0
      vertex 3.25 3.25 5.3
      vertex 3.25 3.25 0
    endloop
  endfacet
  facet normal 0 0 -1
    outer loop
      vertex 3.25 -3.25 0
      vertex 3.25 3.25 0
      vertex 7.505553498864174 0 0
    endloop
  endfacet
  facet normal 0 0 1
    outer loop
      vertex 3.25 -3.25 5.3
      vertex 7.505553498864174 0 5.3
      vertex 3.25 3.25 5.3
    endloop
  endfacet
  facet normal 0.6069495347012942 0.7947403741637153 0
    outer loop
      vertex 3.25 3.25 0
      vertex 7.505553498864174 0 5.3
      vertex 7.505553498864174 0 0
    endloop
  endfacet
  facet normal 0.6069495347012942 0.7947403741637153 0
    outer loop
      vertex 3.25 3.25 0
      vertex 3.25 3.25 5.3
      vertex 7.505553498864174 0 5.3
    endloop
  endfacet
  facet normal -1 0 0
    outer loop
      vertex -3.883767269704208 -0.9572626571502305 -25.6
      vertex -3.883767269704208 0.9572626571502305 -25.6
      vertex -3.883767269704208 -0.9572626571502305 -34.4
    endloop
  endfacet
  facet normal -0.5680647467311558 -0.8229838658936564 0
    outer loop
      vertex -1.4184195481701427 -3.7400649707416593 -25.6
      vertex -2.994042992684404 -2.652490632963181 -34.4
      vertex -1.4184195481701427 -3.7400649707416593 -34.4
    endloop
  endfacet
  facet normal -0.5680647467311558 -0.8229838658936564 0
    outer loop
      vertex -1.4184195481701427 -3.7400649707416593 -25.6
      vertex -2.994042992684404 -2.652490632963181 -25.6
      vertex -2.994042992684404 -2.652490632963181 -34.4
    endloop
  endfacet
  facet normal -0.8854560256532099 -0.4647231720437685 0
    outer loop
      vertex -3.883767269704208 -0.9572626571502305 -25.6
      vertex -2.994042992684404 -2.652490632963181 -34.4
      vertex -2.994042992684404 -2.652490632963181 -25.6
    endloop
  endfacet
  facet normal -0.12053668025532327 -0.992708874098054 0
    outer loop
      vertex -1.4184195481701427 -3.7400649707416593 -25.6
      vertex -1.4184195481701427 -3.7400649707416593 -34.4
      vertex 0.482146721021291 -3.9708354963922163 -34.4
    endloop
  endfacet
  facet normal -0.12053668025532327 -0.992708874098054 0
    outer loop
      vertex -1.4184195481701427 -3.7400649707416593 -25.6
      vertex 0.482146721021291 -3.9708354963922163 -34.4
      vertex 0.482146721021291 -3.9708354963922163 -25.6
    endloop
  endfacet
  facet normal -0.8854560256532099 -0.4647231720437685 0
    outer loop
      vertex -3.883767269704208 -0.9572626571502305 -25.6
      vertex -3.883767269704208 -0.9572626571502305 -34.4
      vertex -2.994042992684404 -2.652490632963181 -34.4
    endloop
  endfacet
  facet normal 0 0 1
    outer loop
      vertex -2.994042992684404 -2.652490632963181 -25.6
      vertex -1.4184195481701427 -3.7400649707416593 -25.6
      vertex -2.994042992684404 2.652490632963181 -25.6
    endloop
  endfacet
  facet normal 0 0 1
    outer loop
      vertex -2.994042992684404 -2.652490632963181 -25.6
      vertex -3.883767269704208 0.9572626571502305 -25.6
      vertex -3.883767269704208 -0.9572626571502305 -25.6
    endloop
  endfacet
  facet normal 0 0 1
    outer loop
      vertex -1.4184195481701427 -3.7400649707416593 -25.6
      vertex 0.482146721021291 -3.9708354963922163 -25.6
      vertex -1.4184195481701427 3.7400649707416593 -25.6
    endloop
  endfacet
  facet normal -1 0 0
    outer loop
      vertex -3.883767269704208 0.9572626571502305 -34.4
      vertex -3.883767269704208 -0.9572626571502305 -34.4
      vertex -3.883767269704208 0.9572626571502305 -25.6
    endloop
  endfacet
  facet normal -0.8854560256532099 0.4647231720437685 0
    outer loop
      vertex -3.883767269704208 0.9572626571502305 -34.4
      vertex -3.883767269704208 0.9572626571502305 -25.6
      vertex -2.994042992684404 2.652490632963181 -25.6
    endloop
  endfacet
  facet normal 0 0 1
    outer loop
      vertex -2.994042992684404 -2.652490632963181 -25.6
      vertex -2.994042992684404 2.652490632963181 -25.6
      vertex -3.883767269704208 0.9572626571502305 -25.6
    endloop
  endfacet
  facet normal 0 0 1
    outer loop
      vertex -1.4184195481701427 -3.7400649707416593 -25.6
      vertex -1.4184195481701427 3.7400649707416593 -25.6
      vertex -2.994042992684404 2.652490632963181 -25.6
    endloop
  endfacet
  facet normal 0 0 1
    outer loop
      vertex -1.4184195481701427 3.7400649707416593 -25.6
      vertex 0.482146721021291 -3.9708354963922163 -25.6
      vertex 0.48214672102129197 3.970835496392216 -25.6
    endloop
  endfacet
  facet normal -0.8854560256532099 0.4647231720437685 0
    outer loop
      vertex -3.883767269704208 0.9572626571502305 -34.4
      vertex -2.994042992684404 2.652490632963181 -25.6
      vertex -2.994042992684404 2.652490632963181 -34.4
    endloop
  endfacet
  facet normal -0.5680647467311558 0.8229838658936564 0
    outer loop
      vertex -2.994042992684404 2.652490632963181 -25.6
      vertex -1.4184195481701427 3.7400649707416593 -34.4
      vertex -2.994042992684404 2.652490632963181 -34.4
    endloop
  endfacet
  facet normal -0.5680647467311558 0.8229838658936564 0
    outer loop
      vertex -2.994042992684404 2.652490632963181 -25.6
      vertex -1.4184195481701427 3.7400649707416593 -25.6
      vertex -1.4184195481701427 3.7400649707416593 -34.4
    endloop
  endfacet
  facet normal -0.120536680255323 0.992708874098054 0
    outer loop
      vertex -1.4184195481701427 3.7400649707416593 -34.4
      vertex -1.4184195481701427 3.7400649707416593 -25.6
      vertex 0.48214672102129197 3.970835496392216 -34.4
    endloop
  endfacet
  facet normal -0.120536680255323 0.992708874098054 0
    outer loop
      vertex -1.4184195481701427 3.7400649707416593 -25.6
      vertex 0.48214672102129197 3.970835496392216 -25.6
      vertex 0.48214672102129197 3.970835496392216 -34.4
    endloop
  endfacet
  facet normal 0.35460488704253573 -0.9350162426854147 0
    outer loop
      vertex 0.482146721021291 -3.9708354963922163 -25.6
      vertex 0.482146721021291 -3.9708354963922163 -34.4
      vertex 1.1941231904146625 -3.7008184378852196 -30.9
    endloop
  endfacet
  facet normal 0.3546048870425357 -0.9350162426854147 0
    outer loop
      vertex 2.2722589869246246 -3.2919354635746245 -30.9
      vertex 1.560282517531253 -3.5619525220816213 -34.4
      vertex 2.2722589869246246 -3.2919354635746245 -34.4
    endloop
  endfacet
  facet normal 0.3546048870425359 -0.9350162426854147 0
    outer loop
      vertex 2.2722589869246246 -3.2919354635746245 -25.6
      vertex 1.1941231904146625 -3.7008184378852196 -30.9
      vertex 2.2722589869246246 -3.2919354635746245 -30.9
    endloop
  endfacet
  facet normal 0.7485107481711013 -0.663122658240795 0
    outer loop
      vertex 2.2722589869246246 -3.2919354635746245 -30.9
      vertex 2.2722589869246246 -3.2919354635746245 -34.4
      vertex 3.54182410261284 -1.8588926881750734 -34.4
    endloop
  endfacet
  facet normal 0.7485107481711013 -0.6631226582407951 0
    outer loop
      vertex 2.2722589869246246 -3.2919354635746245 -25.6
      vertex 2.2722589869246246 -3.2919354635746245 -30.9
      vertex 3.54182410261284 -1.8588926881750734 -34.4
    endloop
  endfacet
  facet normal 0.7485107481711013 -0.6631226582407951 0
    outer loop
      vertex 2.2722589869246246 -3.2919354635746245 -25.6
      vertex 3.54182410261284 -1.8588926881750734 -34.4
      vertex 3.54182410261284 -1.8588926881750734 -25.6
    endloop
  endfacet
  facet normal 0.35460488704253584 -0.9350162426854148 5.470704430425463e-18
    outer loop
      vertex 0.482146721021291 -3.9708354963922163 -25.6
      vertex 1.1941231904146625 -3.7008184378852196 -30.9
      vertex 2.2722589869246246 -3.2919354635746245 -25.6
    endloop
  endfacet
  facet normal 0.9709418174260521 -0.23931566428755763 0
    outer loop
      vertex 3.54182410261284 -1.8588926881750734 -25.6
      vertex 3.54182410261284 -1.8588926881750734 -34.4
      vertex 4 0 -34.4
    endloop
  endfacet
  facet normal 0 0 1
    outer loop
      vertex 0.482146721021291 -3.9708354963922163 -25.6
      vertex 2.2722589869246246 -3.2919354635746245 -25.6
      vertex 0.48214672102129197 3.970835496392216 -25.6
    endloop
  endfacet
  facet normal 0 0 1
    outer loop
      vertex 2.2722589869246246 -3.2919354635746245 -25.6
      vertex 3.54182410261284 -1.8588926881750734 -25.6
      vertex 2.272258986924623 3.291935463574626 -25.6
    endloop
  endfacet
  facet normal 0.9709418174260521 -0.23931566428755768 0
    outer loop
      vertex 3.54182410261284 -1.8588926881750734 -25.6
      vertex 4 0 -34.4
      vertex 4 0 -30.9
    endloop
  endfacet
  facet normal 0.970941817426052 -0.23931566428755754 0
    outer loop
      vertex 3.54182410261284 -1.8588926881750734 -25.6
      vertex 4 0 -30.9
      vertex 4 0 -25.6
    endloop
  endfacet
  facet normal 0.970941817426052 0.23931566428755766 0
    outer loop
      vertex 4 0 -25.6
      vertex 3.5418241026128396 1.8588926881750742 -34.4
      vertex 3.5418241026128396 1.8588926881750742 -30.9
    endloop
  endfacet
  facet normal 0 0 1
    outer loop
      vertex 2.2722589869246246 -3.2919354635746245 -25.6
      vertex 2.272258986924623 3.291935463574626 -25.6
      vertex 0.48214672102129197 3.970835496392216 -25.6
    endloop
  endfacet
  facet normal 0 0 1
    outer loop
      vertex 3.54182410261284 -1.8588926881750734 -25.6
      vertex 4 0 -25.6
      vertex 3.5418241026128396 1.8588926881750742 -25.6
    endloop
  endfacet
  facet normal 0.970941817426052 0.23931566428755774 0
    outer loop
      vertex 4 0 -25.6
      vertex 3.5418241026128396 1.8588926881750742 -30.9
      vertex 3.5418241026128396 1.8588926881750742 -25.6
    endloop
  endfacet
  facet normal 0 0 1
    outer loop
      vertex 3.54182410261284 -1.8588926881750734 -25.6
      vertex 3.5418241026128396 1.8588926881750742 -25.6
      vertex 2.272258986924623 3.291935463574626 -25.6
    endloop
  endfacet
  facet normal 0.35460488704253545 0.9350162426854148 0
    outer loop
      vertex 0.48214672102129197 3.970835496392216 -25.6
      vertex 2.272258986924623 3.291935463574626 -34.4
      vertex 0.48214672102129197 3.970835496392216 -34.4
    endloop
  endfacet
  facet normal 0.35460488704253545 0.9350162426854148 0
    outer loop
      vertex 0.48214672102129197 3.970835496392216 -25.6
      vertex 2.272258986924623 3.291935463574626 -25.6
      vertex 2.272258986924623 3.291935463574626 -34.4
    endloop
  endfacet
  facet normal 0.7485107481711011 0.6631226582407953 0
    outer loop
      vertex 3.5418241026128396 1.8588926881750742 -25.6
      vertex 2.272258986924623 3.291935463574626 -34.4
      vertex 2.272258986924623 3.291935463574626 -25.6
    endloop
  endfacet
  facet normal 0.7485107481711011 0.6631226582407953 0
    outer loop
      vertex 3.5418241026128396 1.8588926881750742 -25.6
      vertex 3.5418241026128396 1.8588926881750742 -30.9
      vertex 2.272258986924623 3.291935463574626 -34.4
    endloop
  endfacet
  facet normal 0.7485107481711012 0.6631226582407953 -1.1003931197198658e-16
    outer loop
      vertex 3.5418241026128396 1.8588926881750742 -30.9
      vertex 3.0368834316004802 2.4288528829362597 -34.4
      vertex 2.272258986924623 3.291935463574626 -34.4
    endloop
  endfacet
  facet normal 0.970941817426052 0.23931566428755774 0
    outer loop
      vertex 4 0 -30.9
      vertex 4 0 -34.4
      vertex 3.5418241026128396 1.8588926881750742 -34.4
    endloop
  endfacet
  facet normal 0.970941817426052 0.23931566428755774 0
    outer loop
      vertex 4 0 -25.6
      vertex 4 0 -30.9
      vertex 3.5418241026128396 1.8588926881750742 -34.4
    endloop
  endfacet
  facet normal -1 0 0
    outer loop
      vertex -3.883767269704208 -0.9572626571502305 -39.699999999999996
      vertex -3.883767269704208 -0.9572626571502305 -34.4
      vertex -3.883767269704208 0.9572626571502305 -34.4
    endloop
  endfacet
  facet normal -0.5680647467311559 -0.8229838658936564 0
    outer loop
      vertex -2.994042992684404 -2.652490632963181 -39.699999999999996
      vertex -1.4184195481701427 -3.7400649707416593 -39.699999999999996
      vertex -2.994042992684404 -2.652490632963181 -34.4
    endloop
  endfacet
  facet normal -0.5680647467311559 -0.8229838658936564 0
    outer loop
      vertex -1.4184195481701427 -3.7400649707416593 -39.699999999999996
      vertex -1.4184195481701427 -3.7400649707416593 -34.4
      vertex -2.994042992684404 -2.652490632963181 -34.4
    endloop
  endfacet
  facet normal -0.8854560256532099 -0.4647231720437685 0
    outer loop
      vertex -2.994042992684404 -2.652490632963181 -39.699999999999996
      vertex -2.994042992684404 -2.652490632963181 -34.4
      vertex -3.883767269704208 -0.9572626571502305 -34.4
    endloop
  endfacet
  facet normal -0.12053668025532328 -0.992708874098054 0
    outer loop
      vertex -1.4184195481701427 -3.7400649707416593 -39.699999999999996
      vertex 0.482146721021291 -3.9708354963922163 -39.699999999999996
      vertex -1.4184195481701427 -3.7400649707416593 -34.4
    endloop
  endfacet
  facet normal -0.12053668025532328 -0.992708874098054 0
    outer loop
      vertex 0.482146721021291 -3.9708354963922163 -39.699999999999996
      vertex 0.482146721021291 -3.9708354963922163 -34.4
      vertex -1.4184195481701427 -3.7400649707416593 -34.4
    endloop
  endfacet
  facet normal -0.8854560256532099 -0.4647231720437685 0
    outer loop
      vertex -3.883767269704208 -0.9572626571502305 -39.699999999999996
      vertex -2.994042992684404 -2.652490632963181 -39.699999999999996
      vertex -3.883767269704208 -0.9572626571502305 -34.4
    endloop
  endfacet
  facet normal 0 0 -1
    outer loop
      vertex -3.883767269704208 -0.9572626571502305 -39.699999999999996
      vertex -2.994042992684404 2.652490632963181 -39.699999999999996
      vertex -2.994042992684404 -2.652490632963181 -39.699999999999996
    endloop
  endfacet
  facet normal 0 0 -1
    outer loop
      vertex -2.994042992684404 -2.652490632963181 -39.699999999999996
      vertex -1.4184195481701427 3.7400649707416593 -39.699999999999996
      vertex -1.4184195481701427 -3.7400649707416593 -39.699999999999996
    endloop
  endfacet
  facet normal 0 0 -1
    outer loop
      vertex -1.4184195481701427 -3.7400649707416593 -39.699999999999996
      vertex 0.48214672102129197 3.970835496392216 -39.699999999999996
      vertex 0.482146721021291 -3.9708354963922163 -39.699999999999996
    endloop
  endfacet
  facet normal -1 0 0
    outer loop
      vertex -3.883767269704208 -0.9572626571502305 -39.699999999999996
      vertex -3.883767269704208 0.9572626571502305 -34.4
      vertex -3.883767269704208 0.9572626571502305 -39.699999999999996
    endloop
  endfacet
  facet normal 0 0 -1
    outer loop
      vertex -3.883767269704208 -0.9572626571502305 -39.699999999999996
      vertex -3.883767269704208 0.9572626571502305 -39.699999999999996
      vertex -2.994042992684404 2.652490632963181 -39.699999999999996
    endloop
  endfacet
  facet normal -0.8854560256532099 0.4647231720437685 0
    outer loop
      vertex -3.883767269704208 0.9572626571502305 -39.699999999999996
      vertex -3.883767269704208 0.9572626571502305 -34.4
      vertex -2.994042992684404 2.652490632963181 -34.4
    endloop
  endfacet
  facet normal 0 0 -1
    outer loop
      vertex -2.994042992684404 -2.652490632963181 -39.699999999999996
      vertex -2.994042992684404 2.652490632963181 -39.699999999999996
      vertex -1.4184195481701427 3.7400649707416593 -39.699999999999996
    endloop
  endfacet
  facet normal 0 0 -1
    outer loop
      vertex -1.4184195481701427 -3.7400649707416593 -39.699999999999996
      vertex -1.4184195481701427 3.7400649707416593 -39.699999999999996
      vertex 0.48214672102129197 3.970835496392216 -39.699999999999996
    endloop
  endfacet
  facet normal -0.8854560256532099 0.4647231720437685 0
    outer loop
      vertex -3.883767269704208 0.9572626571502305 -39.699999999999996
      vertex -2.994042992684404 2.652490632963181 -34.4
      vertex -2.994042992684404 2.652490632963181 -39.699999999999996
    endloop
  endfacet
  facet normal -0.5680647467311559 0.8229838658936564 0
    outer loop
      vertex -2.994042992684404 2.652490632963181 -39.699999999999996
      vertex -1.4184195481701427 3.7400649707416593 -34.4
      vertex -1.4184195481701427 3.7400649707416593 -39.699999999999996
    endloop
  endfacet
  facet normal -0.5680647467311559 0.8229838658936564 0
    outer loop
      vertex -2.994042992684404 2.652490632963181 -39.699999999999996
      vertex -2.994042992684404 2.652490632963181 -34.4
      vertex -1.4184195481701427 3.7400649707416593 -34.4
    endloop
  endfacet
  facet normal -0.12053668025532298 0.992708874098054 0
    outer loop
      vertex -1.4184195481701427 3.7400649707416593 -39.699999999999996
      vertex 0.48214672102129197 3.970835496392216 -34.4
      vertex 0.48214672102129197 3.970835496392216 -39.699999999999996
    endloop
  endfacet
  facet normal -0.12053668025532298 0.992708874098054 0
    outer loop
      vertex -1.4184195481701427 3.7400649707416593 -39.699999999999996
      vertex -1.4184195481701427 3.7400649707416593 -34.4
      vertex 0.48214672102129197 3.970835496392216 -34.4
    endloop
  endfacet
  facet normal 0.3546048870425359 -0.9350162426854146 0
    outer loop
      vertex 0.482146721021291 -3.9708354963922163 -39.699999999999996
      vertex 1.560282517531253 -3.5619525220816213 -34.4
      vertex 0.482146721021291 -3.9708354963922163 -34.4
    endloop
  endfacet
  facet normal 0.35460488704253584 -0.9350162426854148 2.1882817721701853e-17
    outer loop
      vertex 0.482146721021291 -3.9708354963922163 -39.699999999999996
      vertex 2.2722589869246246 -3.2919354635746245 -39.699999999999996
      vertex 1.560282517531253 -3.5619525220816213 -34.4
    endloop
  endfacet
  facet normal 0.35460488704253595 -0.9350162426854147 -4.1264741989494915e-17
    outer loop
      vertex 0.482146721021291 -3.9708354963922163 -34.4
      vertex 1.560282517531253 -3.5619525220816213 -34.4
      vertex 1.1941231904146625 -3.7008184378852196 -30.9
    endloop
  endfacet
  facet normal 0.35460488704253584 -0.9350162426854147 -4.12647419894949e-17
    outer loop
      vertex 2.2722589869246246 -3.2919354635746245 -30.9
      vertex 1.1941231904146625 -3.7008184378852196 -30.9
      vertex 1.560282517531253 -3.5619525220816213 -34.4
    endloop
  endfacet
  facet normal 0.3546048870425357 -0.9350162426854148 0
    outer loop
      vertex 2.2722589869246246 -3.2919354635746245 -39.699999999999996
      vertex 2.2722589869246246 -3.2919354635746245 -34.4
      vertex 1.560282517531253 -3.5619525220816213 -34.4
    endloop
  endfacet
  facet normal 0.7485107481711013 -0.6631226582407951 0
    outer loop
      vertex 2.2722589869246246 -3.2919354635746245 -39.699999999999996
      vertex 3.54182410261284 -1.8588926881750734 -39.699999999999996
      vertex 2.2722589869246246 -3.2919354635746245 -34.4
    endloop
  endfacet
  facet normal 0.7485107481711013 -0.6631226582407951 0
    outer loop
      vertex 3.54182410261284 -1.8588926881750734 -39.699999999999996
      vertex 3.54182410261284 -1.8588926881750734 -34.4
      vertex 2.2722589869246246 -3.2919354635746245 -34.4
    endloop
  endfacet
  facet normal 0 0 -1
    outer loop
      vertex 0.482146721021291 -3.9708354963922163 -39.699999999999996
      vertex 2.272258986924623 3.291935463574626 -39.699999999999996
      vertex 2.2722589869246246 -3.2919354635746245 -39.699999999999996
    endloop
  endfacet
  facet normal 0 0 -1
    outer loop
      vertex 2.2722589869246246 -3.2919354635746245 -39.699999999999996
      vertex 3.5418241026128396 1.8588926881750742 -39.699999999999996
      vertex 3.54182410261284 -1.8588926881750734 -39.699999999999996
    endloop
  endfacet
  facet normal 0.970941817426052 -0.23931566428755754 0
    outer loop
      vertex 3.54182410261284 -1.8588926881750734 -39.699999999999996
      vertex 4 0 -39.699999999999996
      vertex 3.54182410261284 -1.8588926881750734 -34.4
    endloop
  endfacet
  facet normal 0.970941817426052 -0.23931566428755754 0
    outer loop
      vertex 4 0 -39.699999999999996
      vertex 4 0 -34.4
      vertex 3.54182410261284 -1.8588926881750734 -34.4
    endloop
  endfacet
  facet normal 0 0 -1
    outer loop
      vertex 0.482146721021291 -3.9708354963922163 -39.699999999999996
      vertex 0.48214672102129197 3.970835496392216 -39.699999999999996
      vertex 2.272258986924623 3.291935463574626 -39.699999999999996
    endloop
  endfacet
  facet normal 0 0 -1
    outer loop
      vertex 2.2722589869246246 -3.2919354635746245 -39.699999999999996
      vertex 2.272258986924623 3.291935463574626 -39.699999999999996
      vertex 3.5418241026128396 1.8588926881750742 -39.699999999999996
    endloop
  endfacet
  facet normal 0 0 -1
    outer loop
      vertex 3.54182410261284 -1.8588926881750734 -39.699999999999996
      vertex 3.5418241026128396 1.8588926881750742 -39.699999999999996
      vertex 4 0 -39.699999999999996
    endloop
  endfacet
  facet normal 0.970941817426052 0.23931566428755774 0
    outer loop
      vertex 3.5418241026128396 1.8588926881750742 -39.699999999999996
      vertex 3.5418241026128396 1.8588926881750742 -34.4
      vertex 4 0 -34.4
    endloop
  endfacet
  facet normal 0.35460488704253545 0.9350162426854148 0
    outer loop
      vertex 0.48214672102129197 3.970835496392216 -39.699999999999996
      vertex 2.272258986924623 3.291935463574626 -34.4
      vertex 2.272258986924623 3.291935463574626 -39.699999999999996
    endloop
  endfacet
  facet normal 0.35460488704253545 0.9350162426854148 0
    outer loop
      vertex 0.48214672102129197 3.970835496392216 -39.699999999999996
      vertex 0.48214672102129197 3.970835496392216 -34.4
      vertex 2.272258986924623 3.291935463574626 -34.4
    endloop
  endfacet
  facet normal 0.7485107481711011 0.6631226582407953 0
    outer loop
      vertex 3.5418241026128396 1.8588926881750742 -39.699999999999996
      vertex 2.272258986924623 3.291935463574626 -39.699999999999996
      vertex 3.5418241026128396 1.8588926881750742 -34.4
    endloop
  endfacet
  facet normal 0.7485107481711009 0.6631226582407955 1.1003931197198655e-16
    outer loop
      vertex 2.272258986924623 3.291935463574626 -39.699999999999996
      vertex 3.0368834316004802 2.4288528829362597 -34.4
      vertex 3.5418241026128396 1.8588926881750742 -34.4
    endloop
  endfacet
  facet normal 0.7485107481711009 0.6631226582407955 0
    outer loop
      vertex 3.0368834316004802 2.4288528829362597 -34.4
      vertex 3.5418241026128396 1.8588926881750742 -30.9
      vertex 3.5418241026128396 1.8588926881750742 -34.4
    endloop
  endfacet
  facet normal 0.7485107481711012 0.6631226582407951 0
    outer loop
      vertex 2.272258986924623 3.291935463574626 -39.699999999999996
      vertex 2.272258986924623 3.291935463574626 -34.4
      vertex 3.0368834316004802 2.4288528829362597 -34.4
    endloop
  endfacet
  facet normal 0.970941817426052 0.23931566428755774 0
    outer loop
      vertex 3.5418241026128396 1.8588926881750742 -39.699999999999996
      vertex 4 0 -34.4
      vertex 4 0 -39.699999999999996
    endloop
  endfacet
endsolid OpenSCAD_Model
