solid OpenSCAD_Model
  facet normal 0 0 1
    outer loop
      vertex 0 3 3
      vertex 8.581580451829858 16.25993502925834 3
      vertex 7.005957007315596 17.347509367036817 3
    endloop
  endfacet
  facet normal 0 0 -1
    outer loop
      vertex 0 3 0
      vertex 8.409009742330268 18.40900974233027 0
      vertex 10 17.75 0
    endloop
  endfacet
  facet normal 0 0 -1
    outer loop
      vertex 0 3 0
      vertex 7.75 20 0
      vertex 8.409009742330268 18.40900974233027 0
    endloop
  endfacet
  facet normal 0 0 1
    outer loop
      vertex 0 3 3
      vertex 7.005957007315596 17.347509367036817 3
      vertex 6.116232730295792 19.04273734284977 3
    endloop
  endfacet
  facet normal -1 0 0
    outer loop
      vertex 0 3 0
      vertex 0 3 3
      vertex 0 40 0
    endloop
  endfacet
  facet normal 0 0 1
    outer loop
      vertex 0 3 3
      vertex 10.48214672102129 16.029164503607785 3
      vertex 8.581580451829858 16.25993502925834 3
    endloop
  endfacet
  facet normal 0 0 1
    outer loop
      vertex 0 3 3
      vertex 12.272258986924625 16.708064536425375 3
      vertex 10.48214672102129 16.029164503607785 3
    endloop
  endfacet
  facet normal 0 0 -1
    outer loop
      vertex 0 3 0
      vertex 10 17.75 0
      vertex 11.590990257669732 18.40900974233027 0
    endloop
  endfacet
  facet normal 0 0 1
    outer loop
      vertex 0 3 3
      vertex 50 3 3
      vertex 12.272258986924625 16.708064536425375 3
    endloop
  endfacet
  facet normal 0 0 -1
    outer loop
      vertex 0 0 0
      vertex 0 3 0
      vertex 50 40 0
    endloop
  endfacet
  facet normal 0 0 -1
    outer loop
      vertex 0 3 0
      vertex 0 40 0
      vertex 7.75 20 0
    endloop
  endfacet
  facet normal 0 0 1
    outer loop
      vertex 0 3 3
      vertex 6.116232730295792 19.04273734284977 3
      vertex 0 40 3
    endloop
  endfacet
  facet normal -1 0 0
    outer loop
      vertex 0 3 3
      vertex 0 40 3
      vertex 0 40 0
    endloop
  endfacet
  facet normal 0 0 -1
    outer loop
      vertex 0 40 0
      vertex 8.409009742330268 21.59099025766973 0
      vertex 7.75 20 0
    endloop
  endfacet
  facet normal 0 0 1
    outer loop
      vertex 0 40 3
      vertex 6.116232730295792 19.04273734284977 3
      vertex 6.116232730295792 20.95726265715023 3
    endloop
  endfacet
  facet normal 0 0 -1
    outer loop
      vertex 0 40 0
      vertex 10 22.25 0
      vertex 8.409009742330268 21.59099025766973 0
    endloop
  endfacet
  facet normal 0 0 1
    outer loop
      vertex 0 40 3
      vertex 6.116232730295792 20.95726265715023 3
      vertex 7.005957007315596 22.652490632963183 3
    endloop
  endfacet
  facet normal 0 0 1
    outer loop
      vertex 0 40 3
      vertex 7.005957007315596 22.652490632963183 3
      vertex 8.581580451829858 23.74006497074166 3
    endloop
  endfacet
  facet normal 0 0 1
    outer loop
      vertex 0 40 3
      vertex 8.581580451829858 23.74006497074166 3
      vertex 10.482146721021293 23.970835496392215 3
    endloop
  endfacet
  facet normal 0 0 1
    outer loop
      vertex 0 40 3
      vertex 10.482146721021293 23.970835496392215 3
      vertex 12.272258986924623 23.291935463574625 3
    endloop
  endfacet
  facet normal 0 0 1
    outer loop
      vertex 0 40 3
      vertex 12.272258986924623 23.291935463574625 3
      vertex 13.54182410261284 21.858892688175075 3
    endloop
  endfacet
  facet normal 0 0 -1
    outer loop
      vertex 0 3 0
      vertex 11.590990257669732 18.40900974233027 0
      vertex 50 40 0
    endloop
  endfacet
  facet normal 0 0 1
    outer loop
      vertex 0 40 3
      vertex 13.54182410261284 21.858892688175075 3
      vertex 50 3 3
    endloop
  endfacet
  facet normal 0 0 -1
    outer loop
      vertex 50 40 0
      vertex 11.590990257669732 18.40900974233027 0
      vertex 12.25 20 0
    endloop
  endfacet
  facet normal 0 0 -1
    outer loop
      vertex 50 40 0
      vertex 12.25 20 0
      vertex 11.590990257669732 21.59099025766973 0
    endloop
  endfacet
  facet normal 0 0 1
    outer loop
      vertex 0 40 3
      vertex 37.005957007315594 17.347509367036817 3
      vertex 36.11623273029579 19.04273734284977 3
    endloop
  endfacet
  facet normal 0 0 1
    outer loop
      vertex 0 40 3
      vertex 36.11623273029579 19.04273734284977 3
      vertex 36.11623273029579 20.95726265715023 3
    endloop
  endfacet
  facet normal 0 0 -1
    outer loop
      vertex 50 40 0
      vertex 11.590990257669732 21.59099025766973 0
      vertex 10 22.25 0
    endloop
  endfacet
  facet normal 0 0 1
    outer loop
      vertex 0 40 3
      vertex 36.11623273029579 20.95726265715023 3
      vertex 37.005957007315594 22.652490632963183 3
    endloop
  endfacet
  facet normal 0 1 0
    outer loop
      vertex 0 40 0
      vertex 0 40 3
      vertex 50 40 0
    endloop
  endfacet
  facet normal 0 0 -1
    outer loop
      vertex 0 40 0
      vertex 50 40 0
      vertex 10 22.25 0
    endloop
  endfacet
  facet normal 0 0 -1
    outer loop
      vertex 0 0 0
      vertex 38.40900974233027 18.40900974233027 0
      vertex 50 0 0
    endloop
  endfacet
  facet normal 0 0 -1
    outer loop
      vertex 0 0 0
      vertex 37.75 20 0
      vertex 38.40900974233027 18.40900974233027 0
    endloop
  endfacet
  facet normal 0 0 -1
    outer loop
      vertex 0 0 0
      vertex 38.40900974233027 21.59099025766973 0
      vertex 37.75 20 0
    endloop
  endfacet
  facet normal 0 0 1
    outer loop
      vertex 50 3 3
      vertex 13.54182410261284 18.141107311824925 3
      vertex 12.272258986924625 16.708064536425375 3
    endloop
  endfacet
  facet normal 0 0 1
    outer loop
      vertex 50 3 3
      vertex 14 20 3
      vertex 13.54182410261284 18.141107311824925 3
    endloop
  endfacet
  facet normal 0 0 1
    outer loop
      vertex 50 3 3
      vertex 13.54182410261284 21.858892688175075 3
      vertex 14 20 3
    endloop
  endfacet
  facet normal 0 0 1
    outer loop
      vertex 0 40 3
      vertex 50 3 3
      vertex 38.58158045182986 16.25993502925834 3
    endloop
  endfacet
  facet normal 1 0 0
    outer loop
      vertex 50 0 0
      vertex 50 2.7906976744186047 2.7906976744186047
      vertex 50 0 3
    endloop
  endfacet
  facet normal 1 0 0
    outer loop
      vertex 50 0 3
      vertex 50 2.7906976744186047 2.7906976744186047
      vertex 50 2.5813953488372094 3
    endloop
  endfacet
  facet normal 1 0 0
    outer loop
      vertex 50 2.7906976744186047 2.7906976744186047
      vertex 50 3 3
      vertex 50 2.775 3
    endloop
  endfacet
  facet normal 0 0 -1
    outer loop
      vertex 50 0 0
      vertex 38.40900974233027 18.40900974233027 0
      vertex 40 17.75 0
    endloop
  endfacet
  facet normal 0 0 1
    outer loop
      vertex 50 3 3
      vertex 40.482146721021294 16.029164503607785 3
      vertex 38.58158045182986 16.25993502925834 3
    endloop
  endfacet
  facet normal 0 0 -1
    outer loop
      vertex 50 0 0
      vertex 40 17.75 0
      vertex 41.59099025766973 18.40900974233027 0
    endloop
  endfacet
  facet normal 0 0 1
    outer loop
      vertex 50 3 3
      vertex 42.272258986924626 16.708064536425375 3
      vertex 40.482146721021294 16.029164503607785 3
    endloop
  endfacet
  facet normal 0 0 -1
    outer loop
      vertex 50 0 0
      vertex 41.59099025766973 18.40900974233027 0
      vertex 42.25 20 0
    endloop
  endfacet
  facet normal 0 0 1
    outer loop
      vertex 50 3 3
      vertex 43.54182410261284 18.141107311824925 3
      vertex 42.272258986924626 16.708064536425375 3
    endloop
  endfacet
  facet normal 0 0 1
    outer loop
      vertex 50 3 3
      vertex 44 20 3
      vertex 43.54182410261284 18.141107311824925 3
    endloop
  endfacet
  facet normal 1 0 0
    outer loop
      vertex 50 0 0
      vertex 50 40 0
      vertex 50 2.7906976744186047 2.7906976744186047
    endloop
  endfacet
  facet normal 1 0 0
    outer loop
      vertex 50 2.7906976744186047 2.7906976744186047
      vertex 50 40 3
      vertex 50 3 3
    endloop
  endfacet
  facet normal 0 0 1
    outer loop
      vertex 0 40 3
      vertex 38.58158045182986 16.25993502925834 3
      vertex 37.005957007315594 17.347509367036817 3
    endloop
  endfacet
  facet normal 0 0 -1
    outer loop
      vertex 0 0 0
      vertex 50 40 0
      vertex 38.40900974233027 21.59099025766973 0
    endloop
  endfacet
  facet normal 0 0 1
    outer loop
      vertex 0 40 3
      vertex 37.005957007315594 22.652490632963183 3
      vertex 38.58158045182986 23.74006497074166 3
    endloop
  endfacet
  facet normal 0 0 1
    outer loop
      vertex 0 40 3
      vertex 38.58158045182986 23.74006497074166 3
      vertex 40.482146721021294 23.970835496392215 3
    endloop
  endfacet
  facet normal 0 0 1
    outer loop
      vertex 0 40 3
      vertex 40.482146721021294 23.970835496392215 3
      vertex 50 40 3
    endloop
  endfacet
  facet normal 0 1 0
    outer loop
      vertex 0 40 3
      vertex 50 40 3
      vertex 50 40 0
    endloop
  endfacet
  facet normal 0 0 -1
    outer loop
      vertex 50 40 0
      vertex 40 22.25 0
      vertex 38.40900974233027 21.59099025766973 0
    endloop
  endfacet
  facet normal 0 0 -1
    outer loop
      vertex 50 0 0
      vertex 42.25 20 0
      vertex 50 40 0
    endloop
  endfacet
  facet normal 0 0 1
    outer loop
      vertex 50 3 3
      vertex 50 40 3
      vertex 44 20 3
    endloop
  endfacet
  facet normal 0 0 -1
    outer loop
      vertex 50 40 0
      vertex 42.25 20 0
      vertex 41.59099025766973 21.59099025766973 0
    endloop
  endfacet
  facet normal 0 0 1
    outer loop
      vertex 50 40 3
      vertex 43.54182410261284 21.858892688175075 3
      vertex 44 20 3
    endloop
  endfacet
  facet normal 0 0 -1
    outer loop
      vertex 50 40 0
      vertex 41.59099025766973 21.59099025766973 0
      vertex 40 22.25 0
    endloop
  endfacet
  facet normal 0 0 1
    outer loop
      vertex 50 40 3
      vertex 42.272258986924626 23.291935463574625 3
      vertex 43.54182410261284 21.858892688175075 3
    endloop
  endfacet
  facet normal 0 0 1
    outer loop
      vertex 50 40 3
      vertex 40.482146721021294 23.970835496392215 3
      vertex 42.272258986924626 23.291935463574625 3
    endloop
  endfacet
  facet normal 1 0 0
    outer loop
      vertex 50 2.7906976744186047 2.7906976744186047
      vertex 50 40 0
      vertex 50 40 3
    endloop
  endfacet
  facet normal -1 0 0
    outer loop
      vertex 0 0 0
      vertex 0 3 3
      vertex 0 3 0
    endloop
  endfacet
  facet normal -1 0 0
    outer loop
      vertex 0 0 0
      vertex 0 3 40
      vertex 0 3 3
    endloop
  endfacet
  facet normal 0 1 0
    outer loop
      vertex 0 3 3
      vertex 0 3 40
      vertex 50 3 3
    endloop
  endfacet
  facet normal -1 0 0
    outer loop
      vertex 0 0 0
      vertex 0 0 40
      vertex 0 3 40
    endloop
  endfacet
  facet normal 0 -1 0
    outer loop
      vertex 0 0 0
      vertex 50 0 40
      vertex 0 0 40
    endloop
  endfacet
  facet normal 0 0 1
    outer loop
      vertex 0 0 40
      vertex 50 0 40
      vertex 0 3 40
    endloop
  endfacet
  facet normal 0 -1 0
    outer loop
      vertex 0 0 0
      vertex 50 0 0
      vertex 50 0 3
    endloop
  endfacet
  facet normal 0 -1 0
    outer loop
      vertex 0 0 0
      vertex 50 0 3
      vertex 50 0 40
    endloop
  endfacet
  facet normal 1 0 0
    outer loop
      vertex 50 2.7906976744186047 2.7906976744186047
      vertex 50 2.775 3
      vertex 50 2.5813953488372094 3
    endloop
  endfacet
  facet normal 1 0 0
    outer loop
      vertex 50 0 3
      vertex 50 2.5813953488372094 3
      vertex 50 0 40
    endloop
  endfacet
  facet normal 1 0 0
    outer loop
      vertex 50 2.5813953488372094 3
      vertex 50 2.775 3
      vertex 50 0 40
    endloop
  endfacet
  facet normal 1 0 0
    outer loop
      vertex 50 2.775 3
      vertex 50 3 3
      vertex 50 3 40
    endloop
  endfacet
  facet normal 0 1 0
    outer loop
      vertex 0 3 40
      vertex 50 3 40
      vertex 50 3 3
    endloop
  endfacet
  facet normal 0 0 1
    outer loop
      vertex 0 3 40
      vertex 50 0 40
      vertex 50 3 40
    endloop
  endfacet
  facet normal 1 0 0
    outer loop
      vertex 50 2.775 3
      vertex 50 3 40
      vertex 50 0 40
    endloop
  endfacet
  facet normal 0.9238795325112876 0.382683432365088 0
    outer loop
      vertex 7.815380910791383 19.842156518447137 1
      vertex 7.75 20 0
      vertex 7.75 20 1.0769572795850133
    endloop
  endfacet
  facet normal 0.9238795325112834 0.38268343236509755 0
    outer loop
      vertex 8.388904145508434 18.457548946857145 1
      vertex 8.409009742330268 18.40900974233027 1.0335764729055437
      vertex 8.409009742330268 18.40900974233027 0
    endloop
  endfacet
  facet normal 0.38268343236508884 0.9238795325112871 0
    outer loop
      vertex 8.409009742330268 18.40900974233027 1.0335764729055437
      vertex 8.534577558753268 18.356997849770288 1
      vertex 8.409009742330268 18.40900974233027 0
    endloop
  endfacet
  facet normal 0.3826834323650909 0.9238795325112863 -2.3726466425389514e-16
    outer loop
      vertex 9.831499288163867 17.819795280112046 1
      vertex 8.409009742330268 18.40900974233027 0
      vertex 8.534577558753268 18.356997849770288 1
    endloop
  endfacet
  facet normal 0.9238795325112867 0.38268343236508984 4.392022645927244e-16
    outer loop
      vertex 8.388904145508434 18.457548946857145 1
      vertex 8.409009742330268 18.40900974233027 0
      vertex 7.75 20 0
    endloop
  endfacet
  facet normal 0.9238795325112867 0.3826834323650898 3.4261834319286175e-16
    outer loop
      vertex 7.815380910791383 19.842156518447137 1
      vertex 8.388904145508434 18.457548946857145 1
      vertex 7.75 20 0
    endloop
  endfacet
  facet normal 0.3826834323650904 0.9238795325112865 5.802305146913049e-16
    outer loop
      vertex 9.831499288163867 17.819795280112046 1
      vertex 10 17.75 0
      vertex 8.409009742330268 18.40900974233027 0
    endloop
  endfacet
  facet normal 0.3826834323650874 0.9238795325112877 0
    outer loop
      vertex 9.831499288163867 17.819795280112046 1
      vertex 10 17.75 1.057647564908338
      vertex 10 17.75 0
    endloop
  endfacet
  facet normal -0.3826834323650967 0.9238795325112839 0
    outer loop
      vertex 10.092106638389177 17.788151818805392 1
      vertex 10 17.75 0
      vertex 10 17.75 1.057647564908338
    endloop
  endfacet
  facet normal -0.3826834323650896 0.9238795325112868 -7.6765630735582345e-16
    outer loop
      vertex 10.092106638389177 17.788151818805392 1
      vertex 11.461671542792395 18.355444176759416 1
      vertex 10 17.75 0
    endloop
  endfacet
  facet normal -0.3826834323650904 0.9238795325112865 5.077017003548918e-16
    outer loop
      vertex 11.461671542792395 18.355444176759416 1
      vertex 11.590990257669732 18.40900974233027 0
      vertex 10 17.75 0
    endloop
  endfacet
  facet normal -0.3826834323650938 0.9238795325112852 0
    outer loop
      vertex 11.461671542792395 18.355444176759416 1
      vertex 11.590990257669732 18.40900974233027 1.0721254432041045
      vertex 11.590990257669732 18.40900974233027 0
    endloop
  endfacet
  facet normal -0.9238795325112861 0.38268343236509134 0
    outer loop
      vertex 11.590990257669732 18.40900974233027 1.0721254432041045
      vertex 11.662875831584794 18.582556869814983 1
      vertex 11.590990257669732 18.40900974233027 0
    endloop
  endfacet
  facet normal -0.9238795325112868 0.38268343236508967 3.437269163659737e-16
    outer loop
      vertex 11.662875831584794 18.582556869814983 1
      vertex 12.25 20 1
      vertex 11.590990257669732 18.40900974233027 0
    endloop
  endfacet
  facet normal -0.9238795325112867 0.38268343236508984 0
    outer loop
      vertex 12.25 20 1
      vertex 12.25 20 0
      vertex 11.590990257669732 18.40900974233027 0
    endloop
  endfacet
  facet normal 0.9238795325112874 -0.3826834323650879 0
    outer loop
      vertex 7.75 20 1.0769572795850133
      vertex 7.75 20 0
      vertex 7.815380910791383 20.157843481552863 1
    endloop
  endfacet
  facet normal 0.9238795325112867 -0.38268343236508984 3.5458531453357565e-16
    outer loop
      vertex 7.815380910791383 20.157843481552863 1
      vertex 7.75 20 0
      vertex 8.409009742330268 21.59099025766973 0
    endloop
  endfacet
  facet normal 0.9238795325112867 -0.3826834323650898 4.444778506285775e-16
    outer loop
      vertex 7.815380910791383 20.157843481552863 1
      vertex 8.409009742330268 21.59099025766973 0
      vertex 8.388904145508434 21.542451053142855 1
    endloop
  endfacet
  facet normal 0.9238795325112834 -0.38268343236509755 0
    outer loop
      vertex 8.388904145508434 21.542451053142855 1
      vertex 8.409009742330268 21.59099025766973 0
      vertex 8.409009742330268 21.59099025766973 1.0335764729055437
    endloop
  endfacet
  facet normal 0.38268343236508884 -0.9238795325112871 0
    outer loop
      vertex 8.409009742330268 21.59099025766973 1.0335764729055437
      vertex 8.409009742330268 21.59099025766973 0
      vertex 8.534577558753268 21.643002150229712 1
    endloop
  endfacet
  facet normal 0.3826834323650904 -0.9238795325112865 -2.1758644300923932e-16
    outer loop
      vertex 8.534577558753268 21.643002150229712 1
      vertex 8.409009742330268 21.59099025766973 0
      vertex 10 22.25 0
    endloop
  endfacet
  facet normal 0.38268343236509095 -0.9238795325112862 7.908822141796559e-16
    outer loop
      vertex 8.534577558753268 21.643002150229712 1
      vertex 10 22.25 0
      vertex 9.831499288163858 22.18020471988795 1
    endloop
  endfacet
  facet normal 0.3826834323650869 -0.9238795325112881 0
    outer loop
      vertex 9.831499288163858 22.18020471988795 1
      vertex 10 22.25 0
      vertex 10 22.25 1.0576475649083417
    endloop
  endfacet
  facet normal -0.38268343236507146 -0.9238795325112943 0
    outer loop
      vertex 10.092106638389184 22.211848181194608 1
      vertex 10 22.25 1.0576475649083417
      vertex 10 22.25 0
    endloop
  endfacet
  facet normal -0.3826834323650904 -0.9238795325112865 2.030806801419567e-15
    outer loop
      vertex 10.092106638389184 22.211848181194608 1
      vertex 10 22.25 0
      vertex 11.590990257669732 21.59099025766973 0
    endloop
  endfacet
  facet normal -0.9238795325112868 -0.38268343236508967 0
    outer loop
      vertex 12.25 20 1
      vertex 11.662875831584794 21.417443130185017 1
      vertex 12.25 20 0
    endloop
  endfacet
  facet normal -0.9238795325112867 -0.38268343236508984 3.062327716426335e-16
    outer loop
      vertex 11.662875831584794 21.417443130185017 1
      vertex 11.590990257669732 21.59099025766973 0
      vertex 12.25 20 0
    endloop
  endfacet
  facet normal -0.3826834323650917 -0.923879532511286 -3.744664913930867e-16
    outer loop
      vertex 10.092106638389184 22.211848181194608 1
      vertex 11.590990257669732 21.59099025766973 0
      vertex 11.461671542792393 21.644555823240584 1
    endloop
  endfacet
  facet normal -0.9238795325112861 -0.38268343236509134 0
    outer loop
      vertex 11.662875831584794 21.417443130185017 1
      vertex 11.590990257669732 21.59099025766973 1.0721254432041045
      vertex 11.590990257669732 21.59099025766973 0
    endloop
  endfacet
  facet normal -0.3826834323650892 -0.9238795325112871 0
    outer loop
      vertex 11.461671542792393 21.644555823240584 1
      vertex 11.590990257669732 21.59099025766973 0
      vertex 11.590990257669732 21.59099025766973 1.0721254432041045
    endloop
  endfacet
  facet normal 0.43292184088727886 0.6271955658107922 0.6474599616270105
    outer loop
      vertex 8.315850816615022 18.507974018958212 1
      vertex 7.005957007315596 17.347509367036817 3
      vertex 8.581580451829858 16.25993502925834 3
    endloop
  endfacet
  facet normal 0.6748055654858993 0.35416528186597585 0.6474599616270102
    outer loop
      vertex 8.315850816615022 18.507974018958212 1
      vertex 6.116232730295792 19.04273734284977 3
      vertex 7.005957007315596 17.347509367036817 3
    endloop
  endfacet
  facet normal 0.7620994673203431 0 0.64745996162701
    outer loop
      vertex 7.815380910791383 19.461539755352995 1
      vertex 6.116232730295792 20.95726265715023 3
      vertex 6.116232730295792 19.04273734284977 3
    endloop
  endfacet
  facet normal 0.6748055654858993 0.35416528186597634 0.64745996162701
    outer loop
      vertex 7.815380910791383 19.461539755352995 1
      vertex 6.116232730295792 19.04273734284977 3
      vertex 8.315850816615022 18.507974018958212 1
    endloop
  endfacet
  facet normal 0 0 1
    outer loop
      vertex 9.831499288163867 17.819795280112046 1
      vertex 8.534577558753268 18.356997849770288 1
      vertex 9.202139004154295 17.896213453957817 1
    endloop
  endfacet
  facet normal 0.43292184088727703 0.6271955658107925 0.6474599616270114
    outer loop
      vertex 8.388904145508434 18.457548946857145 1
      vertex 8.581580451829858 16.25993502925834 3
      vertex 8.409009742330268 18.40900974233027 1.0335764729055437
    endloop
  endfacet
  facet normal 0.4329218408872677 0.627195565810795 0.6474599616270151
    outer loop
      vertex 8.388904145508434 18.457548946857145 1
      vertex 8.315850816615022 18.507974018958212 1
      vertex 8.581580451829858 16.25993502925834 3
    endloop
  endfacet
  facet normal 0.4329218408872805 0.6271955658107915 0.6474599616270101
    outer loop
      vertex 8.409009742330268 18.40900974233027 1.0335764729055437
      vertex 8.581580451829858 16.25993502925834 3
      vertex 8.534577558753268 18.356997849770288 1
    endloop
  endfacet
  facet normal 0.43292184088728053 0.6271955658107915 0.64745996162701
    outer loop
      vertex 8.534577558753268 18.356997849770288 1
      vertex 8.581580451829858 16.25993502925834 3
      vertex 9.202139004154295 17.896213453957817 1
    endloop
  endfacet
  facet normal 0 0 1
    outer loop
      vertex 7.815380910791383 19.461539755352995 1
      vertex 8.315850816615022 18.507974018958212 1
      vertex 8.388904145508434 18.457548946857145 1
    endloop
  endfacet
  facet normal 0 0 1
    outer loop
      vertex 7.815380910791383 19.461539755352995 1
      vertex 8.388904145508434 18.457548946857145 1
      vertex 7.815380910791383 19.842156518447137 1
    endloop
  endfacet
  facet normal 0.0918609398151439 0.7565429041543045 0.64745996162701
    outer loop
      vertex 9.202139004154295 17.896213453957817 1
      vertex 8.581580451829858 16.25993502925834 3
      vertex 10.48214672102129 16.029164503607785 3
    endloop
  endfacet
  facet normal 0.09186093981514766 0.7565429041543053 0.6474599616270085
    outer loop
      vertex 9.831499288163867 17.819795280112046 1
      vertex 9.202139004154295 17.896213453957817 1
      vertex 10.48214672102129 16.029164503607785 3
    endloop
  endfacet
  facet normal 0.09186093981514361 0.756542904154305 0.6474599616270095
    outer loop
      vertex 9.831499288163867 17.819795280112046 1
      vertex 10.48214672102129 16.029164503607785 3
      vertex 10 17.75 1.057647564908338
    endloop
  endfacet
  facet normal 0.09186093981513575 0.7565429041543047 0.6474599616270111
    outer loop
      vertex 10.092106638389177 17.788151818805392 1
      vertex 10 17.75 1.057647564908338
      vertex 10.48214672102129 16.029164503607785 3
    endloop
  endfacet
  facet normal 0.09186093981514805 0.7565429041543049 0.647459961627009
    outer loop
      vertex 10.092106638389177 17.788151818805392 1
      vertex 10.48214672102129 16.029164503607785 3
      vertex 10.271207530574475 17.766405033279376 1
    endloop
  endfacet
  facet normal -0.27024419552430734 0.7125753804864237 0.6474599616270095
    outer loop
      vertex 10.271207530574475 17.766405033279376 1
      vertex 10.48214672102129 16.029164503607785 3
      vertex 11.278145680145101 18.148286301739272 1
    endloop
  endfacet
  facet normal -0.27024419552430673 0.7125753804864235 0.6474599616270097
    outer loop
      vertex 11.278145680145101 18.148286301739272 1
      vertex 10.48214672102129 16.029164503607785 3
      vertex 12.272258986924625 16.708064536425375 3
    endloop
  endfacet
  facet normal 0 0 1
    outer loop
      vertex 10.092106638389177 17.788151818805392 1
      vertex 10.271207530574475 17.766405033279376 1
      vertex 11.461671542792395 18.355444176759416 1
    endloop
  endfacet
  facet normal 0 0 1
    outer loop
      vertex 10.271207530574475 17.766405033279376 1
      vertex 11.278145680145101 18.148286301739272 1
      vertex 11.461671542792395 18.355444176759416 1
    endloop
  endfacet
  facet normal -0.5704396424647474 0.5053654246133603 0.6474599616270099
    outer loop
      vertex 11.278145680145101 18.148286301739272 1
      vertex 12.272258986924625 16.708064536425375 3
      vertex 11.461671542792395 18.355444176759416 1
    endloop
  endfacet
  facet normal -0.5704396424647509 0.5053654246133576 0.6474599616270091
    outer loop
      vertex 11.461671542792395 18.355444176759416 1
      vertex 12.272258986924625 16.708064536425375 3
      vertex 11.590990257669732 18.40900974233027 1.0721254432041045
    endloop
  endfacet
  facet normal -0.570439642464747 0.5053654246133605 0.6474599616270101
    outer loop
      vertex 11.590990257669732 18.40900974233027 1.0721254432041045
      vertex 12.272258986924625 16.708064536425375 3
      vertex 11.662875831584794 18.582556869814983 1
    endloop
  endfacet
  facet normal -0.5704396424647492 0.505365424613359 0.6474599616270095
    outer loop
      vertex 11.662875831584794 18.582556869814983 1
      vertex 12.272258986924625 16.708064536425375 3
      vertex 11.992276057719723 18.954372862901522 1
    endloop
  endfacet
  facet normal 0 0 1
    outer loop
      vertex 11.662875831584794 18.582556869814983 1
      vertex 11.992276057719723 18.954372862901522 1
      vertex 12.25 20 1
    endloop
  endfacet
  facet normal -0.5704396424647475 0.5053654246133599 0.6474599616270102
    outer loop
      vertex 11.992276057719723 18.954372862901522 1
      vertex 12.272258986924625 16.708064536425375 3
      vertex 13.54182410261284 18.141107311824925 3
    endloop
  endfacet
  facet normal -0.73995424185944 0.1823823402749619 0.64745996162701
    outer loop
      vertex 11.992276057719723 18.954372862901522 1
      vertex 13.54182410261284 18.141107311824925 3
      vertex 14 20 3
    endloop
  endfacet
  facet normal -0.7399542418594401 0.18238234027496172 0.64745996162701
    outer loop
      vertex 11.992276057719723 18.954372862901522 1
      vertex 14 20 3
      vertex 12.25 20 1
    endloop
  endfacet
  facet normal 0.762099467320343 0 0.64745996162701
    outer loop
      vertex 7.815380910791383 19.461539755352995 1
      vertex 7.815380910791383 19.842156518447137 1
      vertex 6.116232730295792 20.95726265715023 3
    endloop
  endfacet
  facet normal 0.7620994673203432 3.6807548559463505e-16 0.64745996162701
    outer loop
      vertex 7.815380910791383 19.842156518447137 1
      vertex 7.75 20 1.0769572795850133
      vertex 6.116232730295792 20.95726265715023 3
    endloop
  endfacet
  facet normal 0.7620994673203431 -1.6822950031067947e-16 0.6474599616270101
    outer loop
      vertex 7.75 20 1.0769572795850133
      vertex 7.815380910791383 20.157843481552863 1
      vertex 6.116232730295792 20.95726265715023 3
    endloop
  endfacet
  facet normal 0.762099467320343 0 0.64745996162701
    outer loop
      vertex 7.815380910791383 20.157843481552863 1
      vertex 7.815380910791383 20.538460244647005 1
      vertex 6.116232730295792 20.95726265715023 3
    endloop
  endfacet
  facet normal 0.6748055654858993 -0.35416528186597634 0.64745996162701
    outer loop
      vertex 7.815380910791383 20.538460244647005 1
      vertex 8.315850816615022 21.492025981041788 1
      vertex 6.116232730295792 20.95726265715023 3
    endloop
  endfacet
  facet normal 0.6748055654858993 -0.35416528186597585 0.6474599616270102
    outer loop
      vertex 8.315850816615022 21.492025981041788 1
      vertex 7.005957007315596 22.652490632963183 3
      vertex 6.116232730295792 20.95726265715023 3
    endloop
  endfacet
  facet normal 0 0 1
    outer loop
      vertex 7.815380910791383 20.157843481552863 1
      vertex 8.315850816615022 21.492025981041788 1
      vertex 7.815380910791383 20.538460244647005 1
    endloop
  endfacet
  facet normal 0 0 1
    outer loop
      vertex 7.815380910791383 20.157843481552863 1
      vertex 8.388904145508434 21.542451053142855 1
      vertex 8.315850816615022 21.492025981041788 1
    endloop
  endfacet
  facet normal 0 0 1
    outer loop
      vertex 8.534577558753268 21.643002150229712 1
      vertex 9.831499288163858 22.18020471988795 1
      vertex 9.202139004154295 22.103786546042183 1
    endloop
  endfacet
  facet normal 0.4329218408872677 -0.627195565810795 0.6474599616270151
    outer loop
      vertex 8.315850816615022 21.492025981041788 1
      vertex 8.388904145508434 21.542451053142855 1
      vertex 8.581580451829858 23.74006497074166 3
    endloop
  endfacet
  facet normal 0.43292184088727703 -0.6271955658107925 0.6474599616270114
    outer loop
      vertex 8.388904145508434 21.542451053142855 1
      vertex 8.409009742330268 21.59099025766973 1.0335764729055437
      vertex 8.581580451829858 23.74006497074166 3
    endloop
  endfacet
  facet normal 0.4329218408872805 -0.6271955658107915 0.6474599616270101
    outer loop
      vertex 8.409009742330268 21.59099025766973 1.0335764729055437
      vertex 8.534577558753268 21.643002150229712 1
      vertex 8.581580451829858 23.74006497074166 3
    endloop
  endfacet
  facet normal 0.43292184088728053 -0.6271955658107915 0.64745996162701
    outer loop
      vertex 8.534577558753268 21.643002150229712 1
      vertex 9.202139004154295 22.103786546042183 1
      vertex 8.581580451829858 23.74006497074166 3
    endloop
  endfacet
  facet normal 0.43292184088727886 -0.6271955658107922 0.6474599616270105
    outer loop
      vertex 8.315850816615022 21.492025981041788 1
      vertex 8.581580451829858 23.74006497074166 3
      vertex 7.005957007315596 22.652490632963183 3
    endloop
  endfacet
  facet normal 0 0 1
    outer loop
      vertex 10.092106638389184 22.211848181194608 1
      vertex 11.2781456801451 21.851713698260728 1
      vertex 10.271207530574477 22.23359496672062 1
    endloop
  endfacet
  facet normal 0 0 1
    outer loop
      vertex 12.25 20 1
      vertex 11.992276057719723 21.045627137098478 1
      vertex 11.662875831584794 21.417443130185017 1
    endloop
  endfacet
  facet normal 0 0 1
    outer loop
      vertex 10.092106638389184 22.211848181194608 1
      vertex 11.461671542792393 21.644555823240584 1
      vertex 11.2781456801451 21.851713698260728 1
    endloop
  endfacet
  facet normal -0.5704396424647474 -0.5053654246133603 0.6474599616270099
    outer loop
      vertex 11.2781456801451 21.851713698260728 1
      vertex 11.461671542792393 21.644555823240584 1
      vertex 12.272258986924623 23.291935463574625 3
    endloop
  endfacet
  facet normal -0.5704396424647454 -0.5053654246133619 0.6474599616270105
    outer loop
      vertex 11.461671542792393 21.644555823240584 1
      vertex 11.590990257669732 21.59099025766973 1.0721254432041045
      vertex 12.272258986924623 23.291935463574625 3
    endloop
  endfacet
  facet normal -0.5704396424647473 -0.5053654246133605 0.6474599616270098
    outer loop
      vertex 11.662875831584794 21.417443130185017 1
      vertex 12.272258986924623 23.291935463574625 3
      vertex 11.590990257669732 21.59099025766973 1.0721254432041045
    endloop
  endfacet
  facet normal -0.5704396424647494 -0.5053654246133591 0.6474599616270091
    outer loop
      vertex 11.662875831584794 21.417443130185017 1
      vertex 11.992276057719723 21.045627137098478 1
      vertex 12.272258986924623 23.291935463574625 3
    endloop
  endfacet
  facet normal 0.0918609398151446 -0.7565429041543046 0.6474599616270097
    outer loop
      vertex 9.202139004154295 22.103786546042183 1
      vertex 9.831499288163858 22.18020471988795 1
      vertex 10.482146721021293 23.970835496392215 3
    endloop
  endfacet
  facet normal 0.09186093981513936 -0.7565429041543043 0.647459961627011
    outer loop
      vertex 9.831499288163858 22.18020471988795 1
      vertex 10 22.25 1.0576475649083417
      vertex 10.482146721021293 23.970835496392215 3
    endloop
  endfacet
  facet normal 0.0918609398151438 -0.7565429041543044 0.64745996162701
    outer loop
      vertex 9.202139004154295 22.103786546042183 1
      vertex 10.482146721021293 23.970835496392215 3
      vertex 8.581580451829858 23.74006497074166 3
    endloop
  endfacet
  facet normal 0.09186093981515321 -0.7565429041543048 0.6474599616270083
    outer loop
      vertex 10.092106638389184 22.211848181194608 1
      vertex 10.482146721021293 23.970835496392215 3
      vertex 10 22.25 1.0576475649083417
    endloop
  endfacet
  facet normal 0.09186093981513571 -0.7565429041543045 0.6474599616270112
    outer loop
      vertex 10.092106638389184 22.211848181194608 1
      vertex 10.271207530574477 22.23359496672062 1
      vertex 10.482146721021293 23.970835496392215 3
    endloop
  endfacet
  facet normal -0.2702441955243057 -0.7125753804864234 0.6474599616270104
    outer loop
      vertex 10.271207530574477 22.23359496672062 1
      vertex 11.2781456801451 21.851713698260728 1
      vertex 10.482146721021293 23.970835496392215 3
    endloop
  endfacet
  facet normal -0.27024419552430723 -0.7125753804864234 0.6474599616270098
    outer loop
      vertex 11.2781456801451 21.851713698260728 1
      vertex 12.272258986924623 23.291935463574625 3
      vertex 10.482146721021293 23.970835496392215 3
    endloop
  endfacet
  facet normal -0.73995424185944 -0.1823823402749617 0.64745996162701
    outer loop
      vertex 12.25 20 1
      vertex 14 20 3
      vertex 11.992276057719723 21.045627137098478 1
    endloop
  endfacet
  facet normal -0.73995424185944 -0.1823823402749619 0.64745996162701
    outer loop
      vertex 11.992276057719723 21.045627137098478 1
      vertex 14 20 3
      vertex 13.54182410261284 21.858892688175075 3
    endloop
  endfacet
  facet normal -0.5704396424647472 -0.5053654246133603 0.6474599616270102
    outer loop
      vertex 11.992276057719723 21.045627137098478 1
      vertex 13.54182410261284 21.858892688175075 3
      vertex 12.272258986924623 23.291935463574625 3
    endloop
  endfacet
  facet normal 0.9238795325112715 0.3826834323651264 0
    outer loop
      vertex 38.388904145508434 18.457548946857145 1
      vertex 38.40900974233027 18.40900974233027 1.0335764729055437
      vertex 38.40900974233027 18.40900974233027 0
    endloop
  endfacet
  facet normal 0.38268343236508884 0.9238795325112871 0
    outer loop
      vertex 38.40900974233027 18.40900974233027 1.0335764729055437
      vertex 38.53457755875327 18.356997849770288 1
      vertex 38.40900974233027 18.40900974233027 0
    endloop
  endfacet
  facet normal 0.3826834323650909 0.9238795325112863 -2.3726466425389514e-16
    outer loop
      vertex 39.83149928816387 17.819795280112046 1
      vertex 38.40900974233027 18.40900974233027 0
      vertex 38.53457755875327 18.356997849770288 1
    endloop
  endfacet
  facet normal 0.9238795325112863 0.3826834323650907 2.0308068014195688e-15
    outer loop
      vertex 38.388904145508434 18.457548946857145 1
      vertex 38.40900974233027 18.40900974233027 0
      vertex 37.75 20 0
    endloop
  endfacet
  facet normal 0.9238795325112874 0.3826834323650879 0
    outer loop
      vertex 37.75 20 1.0769572795850133
      vertex 37.81538091079138 19.842156518447137 1
      vertex 37.75 20 0
    endloop
  endfacet
  facet normal 0.9238795325112867 0.3826834323650898 3.7039820885714786e-16
    outer loop
      vertex 38.388904145508434 18.457548946857145 1
      vertex 37.75 20 0
      vertex 37.81538091079138 19.842156518447137 1
    endloop
  endfacet
  facet normal 0.3826834323650907 0.9238795325112863 -2.417627144547106e-17
    outer loop
      vertex 39.83149928816387 17.819795280112046 1
      vertex 40 17.75 0
      vertex 38.40900974233027 18.40900974233027 0
    endloop
  endfacet
  facet normal 0.3826834323650909 0.9238795325112863 0
    outer loop
      vertex 39.83149928816387 17.819795280112046 1
      vertex 40 17.75 1.057647564908338
      vertex 40 17.75 0
    endloop
  endfacet
  facet normal -0.38268343236510305 0.9238795325112813 0
    outer loop
      vertex 40 17.75 1.057647564908338
      vertex 40.092106638389176 17.788151818805392 1
      vertex 40 17.75 0
    endloop
  endfacet
  facet normal -0.38268343236508917 0.923879532511287 -1.4931851344299232e-15
    outer loop
      vertex 40.092106638389176 17.788151818805392 1
      vertex 41.461671542792395 18.355444176759416 1
      vertex 40 17.75 0
    endloop
  endfacet
  facet normal -0.3826834323650907 0.9238795325112863 1.1362847579371397e-15
    outer loop
      vertex 41.461671542792395 18.355444176759416 1
      vertex 41.59099025766973 18.40900974233027 0
      vertex 40 17.75 0
    endloop
  endfacet
  facet normal -0.3826834323650981 0.9238795325112832 0
    outer loop
      vertex 41.461671542792395 18.355444176759416 1
      vertex 41.59099025766973 18.40900974233027 1.0721254432041043
      vertex 41.59099025766973 18.40900974233027 0
    endloop
  endfacet
  facet normal -0.9238795325112861 0.38268343236509134 0
    outer loop
      vertex 41.59099025766973 18.40900974233027 1.0721254432041043
      vertex 41.66287583158479 18.582556869814983 1
      vertex 41.59099025766973 18.40900974233027 0
    endloop
  endfacet
  facet normal -0.9238795325112863 0.3826834323650906 1.4472712268040991e-16
    outer loop
      vertex 41.66287583158479 18.582556869814983 1
      vertex 42.25 20 1
      vertex 41.59099025766973 18.40900974233027 0
    endloop
  endfacet
  facet normal -0.9238795325112863 0.3826834323650907 0
    outer loop
      vertex 42.25 20 1
      vertex 42.25 20 0
      vertex 41.59099025766973 18.40900974233027 0
    endloop
  endfacet
  facet normal 0.9238795325112863 -0.3826834323650907 5.157604575033826e-16
    outer loop
      vertex 37.81538091079138 20.157843481552863 1
      vertex 37.75 20 0
      vertex 38.40900974233027 21.59099025766973 0
    endloop
  endfacet
  facet normal 0.9238795325112874 -0.3826834323650879 0
    outer loop
      vertex 37.75 20 1.0769572795850133
      vertex 37.75 20 0
      vertex 37.81538091079138 20.157843481552863 1
    endloop
  endfacet
  facet normal 0.9238795325112867 -0.3826834323650898 2.1483096113714576e-15
    outer loop
      vertex 37.81538091079138 20.157843481552863 1
      vertex 38.40900974233027 21.59099025766973 0
      vertex 38.388904145508434 21.542451053142855 1
    endloop
  endfacet
  facet normal 0.3826834323650907 -0.9238795325112863 -2.73997743048672e-16
    outer loop
      vertex 38.53457755875327 21.643002150229712 1
      vertex 38.40900974233027 21.59099025766973 0
      vertex 40 22.25 0
    endloop
  endfacet
  facet normal 0.9238795325112715 -0.3826834323651264 0
    outer loop
      vertex 38.388904145508434 21.542451053142855 1
      vertex 38.40900974233027 21.59099025766973 0
      vertex 38.40900974233027 21.59099025766973 1.0335764729055437
    endloop
  endfacet
  facet normal 0.38268343236508884 -0.9238795325112871 0
    outer loop
      vertex 38.40900974233027 21.59099025766973 1.0335764729055437
      vertex 38.40900974233027 21.59099025766973 0
      vertex 38.53457755875327 21.643002150229712 1
    endloop
  endfacet
  facet normal 0.3826834323650905 -0.9238795325112865 -6.32705771343724e-16
    outer loop
      vertex 38.53457755875327 21.643002150229712 1
      vertex 40 22.25 0
      vertex 39.83149928816386 22.18020471988795 1
    endloop
  endfacet
  facet normal -0.3826834323650907 -0.9238795325112863 -1.8897785513209878e-15
    outer loop
      vertex 40.09210663838918 22.211848181194604 1
      vertex 40 22.25 0
      vertex 41.59099025766973 21.59099025766973 0
    endloop
  endfacet
  facet normal 0.3826834323650937 -0.9238795325112852 0
    outer loop
      vertex 39.83149928816386 22.18020471988795 1
      vertex 40 22.25 0
      vertex 40 22.25 1.0576475649083419
    endloop
  endfacet
  facet normal -0.3826834323651082 -0.9238795325112791 0
    outer loop
      vertex 40 22.25 1.0576475649083419
      vertex 40 22.25 0
      vertex 40.09210663838918 22.211848181194604 1
    endloop
  endfacet
  facet normal -0.9238795325112863 -0.3826834323650906 0
    outer loop
      vertex 42.25 20 1
      vertex 41.66287583158479 21.417443130185017 1
      vertex 42.25 20 0
    endloop
  endfacet
  facet normal -0.9238795325112863 -0.3826834323650907 1.2894011437584564e-16
    outer loop
      vertex 41.66287583158479 21.417443130185017 1
      vertex 41.59099025766973 21.59099025766973 0
      vertex 42.25 20 0
    endloop
  endfacet
  facet normal -0.38268343236508884 -0.9238795325112872 1.4229726672937275e-15
    outer loop
      vertex 40.09210663838918 22.211848181194604 1
      vertex 41.59099025766973 21.59099025766973 0
      vertex 41.461671542792395 21.644555823240584 1
    endloop
  endfacet
  facet normal -0.9238795325112861 -0.38268343236509134 0
    outer loop
      vertex 41.66287583158479 21.417443130185017 1
      vertex 41.59099025766973 21.59099025766973 1.0721254432041043
      vertex 41.59099025766973 21.59099025766973 0
    endloop
  endfacet
  facet normal -0.3826834323650983 -0.9238795325112833 0
    outer loop
      vertex 41.59099025766973 21.59099025766973 1.0721254432041043
      vertex 41.461671542792395 21.644555823240584 1
      vertex 41.59099025766973 21.59099025766973 0
    endloop
  endfacet
  facet normal 0.674805565485899 0.35416528186597496 0.6474599616270112
    outer loop
      vertex 38.315850816615026 18.507974018958212 1
      vertex 36.11623273029579 19.04273734284977 3
      vertex 37.005957007315594 17.347509367036817 3
    endloop
  endfacet
  facet normal 0.7620994673203431 0 0.64745996162701
    outer loop
      vertex 37.81538091079138 19.461539755352995 1
      vertex 36.11623273029579 20.95726265715023 3
      vertex 36.11623273029579 19.04273734284977 3
    endloop
  endfacet
  facet normal 0.6748055654858984 0.3541652818659784 0.6474599616270097
    outer loop
      vertex 38.315850816615026 18.507974018958212 1
      vertex 37.81538091079138 19.461539755352995 1
      vertex 36.11623273029579 19.04273734284977 3
    endloop
  endfacet
  facet normal 0.43292184088727825 0.6271955658107919 0.647459961627011
    outer loop
      vertex 38.315850816615026 18.507974018958212 1
      vertex 37.005957007315594 17.347509367036817 3
      vertex 38.58158045182986 16.25993502925834 3
    endloop
  endfacet
  facet normal 0.09186093981514372 0.7565429041543045 0.6474599616270101
    outer loop
      vertex 39.2021390041543 17.896213453957817 1
      vertex 38.58158045182986 16.25993502925834 3
      vertex 40.482146721021294 16.029164503607785 3
    endloop
  endfacet
  facet normal 0.09186093981514766 0.7565429041543053 0.6474599616270085
    outer loop
      vertex 39.83149928816387 17.819795280112046 1
      vertex 39.2021390041543 17.896213453957817 1
      vertex 40.482146721021294 16.029164503607785 3
    endloop
  endfacet
  facet normal 0.09186093981514475 0.7565429041543053 0.6474599616270093
    outer loop
      vertex 39.83149928816387 17.819795280112046 1
      vertex 40.482146721021294 16.029164503607785 3
      vertex 40 17.75 1.057647564908338
    endloop
  endfacet
  facet normal 0.09186093981513721 0.7565429041543048 0.6474599616270108
    outer loop
      vertex 40 17.75 1.057647564908338
      vertex 40.482146721021294 16.029164503607785 3
      vertex 40.092106638389176 17.788151818805392 1
    endloop
  endfacet
  facet normal 0.09186093981514531 0.7565429041543049 0.6474599616270094
    outer loop
      vertex 40.092106638389176 17.788151818805392 1
      vertex 40.482146721021294 16.029164503607785 3
      vertex 40.27120753057448 17.766405033279376 1
    endloop
  endfacet
  facet normal 0.4329218408872388 0.627195565810803 0.6474599616270267
    outer loop
      vertex 38.388904145508434 18.457548946857145 1
      vertex 38.58158045182986 16.25993502925834 3
      vertex 38.40900974233027 18.40900974233027 1.0335764729055437
    endloop
  endfacet
  facet normal 0.43292184088728536 0.6271955658107902 0.647459961627008
    outer loop
      vertex 38.388904145508434 18.457548946857145 1
      vertex 38.315850816615026 18.507974018958212 1
      vertex 38.58158045182986 16.25993502925834 3
    endloop
  endfacet
  facet normal 0.4329218408872805 0.6271955658107914 0.6474599616270102
    outer loop
      vertex 38.40900974233027 18.40900974233027 1.0335764729055437
      vertex 38.58158045182986 16.25993502925834 3
      vertex 38.53457755875327 18.356997849770288 1
    endloop
  endfacet
  facet normal 0.4329218408872805 0.6271955658107914 0.6474599616270102
    outer loop
      vertex 38.53457755875327 18.356997849770288 1
      vertex 38.58158045182986 16.25993502925834 3
      vertex 39.2021390041543 17.896213453957817 1
    endloop
  endfacet
  facet normal 0 0 1
    outer loop
      vertex 38.388904145508434 18.457548946857145 1
      vertex 37.81538091079138 19.461539755352995 1
      vertex 38.315850816615026 18.507974018958212 1
    endloop
  endfacet
  facet normal 0 0 1
    outer loop
      vertex 38.388904145508434 18.457548946857145 1
      vertex 37.81538091079138 19.842156518447137 1
      vertex 37.81538091079138 19.461539755352995 1
    endloop
  endfacet
  facet normal 0 0 1
    outer loop
      vertex 39.83149928816387 17.819795280112046 1
      vertex 38.53457755875327 18.356997849770288 1
      vertex 39.2021390041543 17.896213453957817 1
    endloop
  endfacet
  facet normal 0 0 1
    outer loop
      vertex 40.092106638389176 17.788151818805392 1
      vertex 40.27120753057448 17.766405033279376 1
      vertex 41.461671542792395 18.355444176759416 1
    endloop
  endfacet
  facet normal -0.27024419552430823 0.7125753804864234 0.6474599616270094
    outer loop
      vertex 40.27120753057448 17.766405033279376 1
      vertex 40.482146721021294 16.029164503607785 3
      vertex 41.2781456801451 18.148286301739272 1
    endloop
  endfacet
  facet normal -0.27024419552430695 0.7125753804864234 0.6474599616270099
    outer loop
      vertex 41.2781456801451 18.148286301739272 1
      vertex 40.482146721021294 16.029164503607785 3
      vertex 42.272258986924626 16.708064536425375 3
    endloop
  endfacet
  facet normal 0 0 1
    outer loop
      vertex 40.27120753057448 17.766405033279376 1
      vertex 41.2781456801451 18.148286301739272 1
      vertex 41.461671542792395 18.355444176759416 1
    endloop
  endfacet
  facet normal -0.5704396424647472 0.5053654246133602 0.6474599616270101
    outer loop
      vertex 41.2781456801451 18.148286301739272 1
      vertex 42.272258986924626 16.708064536425375 3
      vertex 41.461671542792395 18.355444176759416 1
    endloop
  endfacet
  facet normal -0.5704396424647553 0.5053654246133537 0.6474599616270081
    outer loop
      vertex 41.461671542792395 18.355444176759416 1
      vertex 42.272258986924626 16.708064536425375 3
      vertex 41.59099025766973 18.40900974233027 1.0721254432041043
    endloop
  endfacet
  facet normal -0.5704396424647469 0.5053654246133599 0.6474599616270107
    outer loop
      vertex 41.59099025766973 18.40900974233027 1.0721254432041043
      vertex 42.272258986924626 16.708064536425375 3
      vertex 41.66287583158479 18.582556869814983 1
    endloop
  endfacet
  facet normal -0.5704396424647489 0.5053654246133586 0.64745996162701
    outer loop
      vertex 41.66287583158479 18.582556869814983 1
      vertex 42.272258986924626 16.708064536425375 3
      vertex 41.99227605771972 18.954372862901522 1
    endloop
  endfacet
  facet normal 0 0 1
    outer loop
      vertex 41.66287583158479 18.582556869814983 1
      vertex 41.99227605771972 18.954372862901522 1
      vertex 42.25 20 1
    endloop
  endfacet
  facet normal -0.5704396424647467 0.5053654246133598 0.647459961627011
    outer loop
      vertex 41.99227605771972 18.954372862901522 1
      vertex 42.272258986924626 16.708064536425375 3
      vertex 43.54182410261284 18.141107311824925 3
    endloop
  endfacet
  facet normal -0.7399542418594399 0.18238234027496295 0.6474599616270099
    outer loop
      vertex 41.99227605771972 18.954372862901522 1
      vertex 44 20 3
      vertex 42.25 20 1
    endloop
  endfacet
  facet normal -0.7399542418594396 0.18238234027496036 0.647459961627011
    outer loop
      vertex 41.99227605771972 18.954372862901522 1
      vertex 43.54182410261284 18.141107311824925 3
      vertex 44 20 3
    endloop
  endfacet
  facet normal 0.762099467320343 0 0.64745996162701
    outer loop
      vertex 37.81538091079138 19.461539755352995 1
      vertex 37.81538091079138 19.842156518447137 1
      vertex 36.11623273029579 20.95726265715023 3
    endloop
  endfacet
  facet normal 0.7620994673203432 2.7605661419597626e-16 0.6474599616270099
    outer loop
      vertex 37.75 20 1.0769572795850133
      vertex 36.11623273029579 20.95726265715023 3
      vertex 37.81538091079138 19.842156518447137 1
    endloop
  endfacet
  facet normal 0.7620994673203431 -1.6822950031067947e-16 0.6474599616270101
    outer loop
      vertex 37.75 20 1.0769572795850133
      vertex 37.81538091079138 20.157843481552863 1
      vertex 36.11623273029579 20.95726265715023 3
    endloop
  endfacet
  facet normal 0.762099467320343 0 0.64745996162701
    outer loop
      vertex 37.81538091079138 20.157843481552863 1
      vertex 37.81538091079138 20.538460244647005 1
      vertex 36.11623273029579 20.95726265715023 3
    endloop
  endfacet
  facet normal 0.6748055654858984 -0.3541652818659784 0.6474599616270096
    outer loop
      vertex 37.81538091079138 20.538460244647005 1
      vertex 38.315850816615026 21.492025981041788 1
      vertex 36.11623273029579 20.95726265715023 3
    endloop
  endfacet
  facet normal 0.674805565485899 -0.35416528186597496 0.6474599616270112
    outer loop
      vertex 38.315850816615026 21.492025981041788 1
      vertex 37.005957007315594 22.652490632963183 3
      vertex 36.11623273029579 20.95726265715023 3
    endloop
  endfacet
  facet normal 0 0 1
    outer loop
      vertex 37.81538091079138 20.157843481552863 1
      vertex 38.315850816615026 21.492025981041788 1
      vertex 37.81538091079138 20.538460244647005 1
    endloop
  endfacet
  facet normal 0 0 1
    outer loop
      vertex 37.81538091079138 20.157843481552863 1
      vertex 38.388904145508434 21.542451053142855 1
      vertex 38.315850816615026 21.492025981041788 1
    endloop
  endfacet
  facet normal 0.43292184088728536 -0.6271955658107902 0.647459961627008
    outer loop
      vertex 38.315850816615026 21.492025981041788 1
      vertex 38.388904145508434 21.542451053142855 1
      vertex 38.58158045182986 23.74006497074166 3
    endloop
  endfacet
  facet normal 0.4329218408872388 -0.627195565810803 0.6474599616270267
    outer loop
      vertex 38.388904145508434 21.542451053142855 1
      vertex 38.40900974233027 21.59099025766973 1.0335764729055437
      vertex 38.58158045182986 23.74006497074166 3
    endloop
  endfacet
  facet normal 0.4329218408872805 -0.6271955658107914 0.6474599616270102
    outer loop
      vertex 38.40900974233027 21.59099025766973 1.0335764729055437
      vertex 38.53457755875327 21.643002150229712 1
      vertex 38.58158045182986 23.74006497074166 3
    endloop
  endfacet
  facet normal 0.4329218408872805 -0.6271955658107914 0.6474599616270102
    outer loop
      vertex 38.53457755875327 21.643002150229712 1
      vertex 39.2021390041543 22.103786546042183 1
      vertex 38.58158045182986 23.74006497074166 3
    endloop
  endfacet
  facet normal 0 0 1
    outer loop
      vertex 38.53457755875327 21.643002150229712 1
      vertex 39.83149928816386 22.18020471988795 1
      vertex 39.2021390041543 22.103786546042183 1
    endloop
  endfacet
  facet normal 0 0 1
    outer loop
      vertex 40.09210663838918 22.211848181194604 1
      vertex 41.2781456801451 21.851713698260728 1
      vertex 40.27120753057448 22.23359496672062 1
    endloop
  endfacet
  facet normal 0.43292184088727825 -0.6271955658107919 0.647459961627011
    outer loop
      vertex 38.315850816615026 21.492025981041788 1
      vertex 38.58158045182986 23.74006497074166 3
      vertex 37.005957007315594 22.652490632963183 3
    endloop
  endfacet
  facet normal 0.09186093981514433 -0.7565429041543046 0.6474599616270098
    outer loop
      vertex 39.2021390041543 22.103786546042183 1
      vertex 39.83149928816386 22.18020471988795 1
      vertex 40.482146721021294 23.970835496392215 3
    endloop
  endfacet
  facet normal 0.09186093981514372 -0.7565429041543045 0.6474599616270101
    outer loop
      vertex 39.2021390041543 22.103786546042183 1
      vertex 40.482146721021294 23.970835496392215 3
      vertex 38.58158045182986 23.74006497074166 3
    endloop
  endfacet
  facet normal 0.09186093981514057 -0.7565429041543043 0.6474599616270109
    outer loop
      vertex 39.83149928816386 22.18020471988795 1
      vertex 40 22.25 1.0576475649083419
      vertex 40.482146721021294 23.970835496392215 3
    endloop
  endfacet
  facet normal 0.09186093981513072 -0.7565429041543039 0.6474599616270128
    outer loop
      vertex 40 22.25 1.0576475649083419
      vertex 40.09210663838918 22.211848181194604 1
      vertex 40.482146721021294 23.970835496392215 3
    endloop
  endfacet
  facet normal 0.09186093981514887 -0.7565429041543043 0.6474599616270097
    outer loop
      vertex 40.09210663838918 22.211848181194604 1
      vertex 40.27120753057448 22.23359496672062 1
      vertex 40.482146721021294 23.970835496392215 3
    endloop
  endfacet
  facet normal 0 0 1
    outer loop
      vertex 42.25 20 1
      vertex 41.99227605771972 21.045627137098478 1
      vertex 41.66287583158479 21.417443130185017 1
    endloop
  endfacet
  facet normal 0 0 1
    outer loop
      vertex 40.09210663838918 22.211848181194604 1
      vertex 41.461671542792395 21.644555823240584 1
      vertex 41.2781456801451 21.851713698260728 1
    endloop
  endfacet
  facet normal -0.5704396424647553 -0.5053654246133537 0.647459961627008
    outer loop
      vertex 41.59099025766973 21.59099025766973 1.0721254432041043
      vertex 42.272258986924626 23.291935463574625 3
      vertex 41.461671542792395 21.644555823240584 1
    endloop
  endfacet
  facet normal -0.5704396424647472 -0.5053654246133602 0.6474599616270102
    outer loop
      vertex 41.461671542792395 21.644555823240584 1
      vertex 42.272258986924626 23.291935463574625 3
      vertex 41.2781456801451 21.851713698260728 1
    endloop
  endfacet
  facet normal -0.5704396424647489 -0.5053654246133586 0.64745996162701
    outer loop
      vertex 41.66287583158479 21.417443130185017 1
      vertex 41.99227605771972 21.045627137098478 1
      vertex 42.272258986924626 23.291935463574625 3
    endloop
  endfacet
  facet normal -0.570439642464747 -0.5053654246133599 0.6474599616270107
    outer loop
      vertex 41.66287583158479 21.417443130185017 1
      vertex 42.272258986924626 23.291935463574625 3
      vertex 41.59099025766973 21.59099025766973 1.0721254432041043
    endloop
  endfacet
  facet normal -0.7399542418594399 -0.18238234027496295 0.6474599616270099
    outer loop
      vertex 42.25 20 1
      vertex 44 20 3
      vertex 41.99227605771972 21.045627137098478 1
    endloop
  endfacet
  facet normal -0.7399542418594396 -0.18238234027496036 0.647459961627011
    outer loop
      vertex 41.99227605771972 21.045627137098478 1
      vertex 44 20 3
      vertex 43.54182410261284 21.858892688175075 3
    endloop
  endfacet
  facet normal -0.5704396424647467 -0.5053654246133598 0.647459961627011
    outer loop
      vertex 41.99227605771972 21.045627137098478 1
      vertex 43.54182410261284 21.858892688175075 3
      vertex 42.272258986924626 23.291935463574625 3
    endloop
  endfacet
  facet normal -0.2702441955243057 -0.7125753804864234 0.6474599616270104
    outer loop
      vertex 40.27120753057448 22.23359496672062 1
      vertex 41.2781456801451 21.851713698260728 1
      vertex 40.482146721021294 23.970835496392215 3
    endloop
  endfacet
  facet normal -0.27024419552430695 -0.7125753804864234 0.6474599616270099
    outer loop
      vertex 41.2781456801451 21.851713698260728 1
      vertex 42.272258986924626 23.291935463574625 3
      vertex 40.482146721021294 23.970835496392215 3
    endloop
  endfacet
endsolid OpenSCAD_Model
