solid OpenSCAD_Model
  facet normal 0 1 0
    outer loop
      vertex 37.75 15 0
      vertex 38.40900974233027 15 1.5909902576697321
      vertex 42.25 15 0
    endloop
  endfacet
  facet normal 0 1 0
    outer loop
      vertex 42.25 15 0
      vertex 38.40900974233027 15 1.5909902576697321
      vertex 40 15 2.25
    endloop
  endfacet
  facet normal 0 1 0
    outer loop
      vertex 42.25 15 0
      vertex 40 15 2.25
      vertex 41.59099025766973 15 1.5909902576697321
    endloop
  endfacet
  facet normal 0.9238795325112866 0 -0.38268343236509045
    outer loop
      vertex 37.75 15 0
      vertex 37.75 20 0
      vertex 38.40900974233027 15 1.5909902576697321
    endloop
  endfacet
  facet normal 0.9238795325112866 0 -0.38268343236509045
    outer loop
      vertex 38.40900974233027 15 1.5909902576697321
      vertex 37.75 20 0
      vertex 38.40900974233027 20 1.5909902576697321
    endloop
  endfacet
  facet normal 0.3826834323650899 0 -0.9238795325112866
    outer loop
      vertex 38.40900974233027 15 1.5909902576697321
      vertex 38.40900974233027 20 1.5909902576697321
      vertex 40 20 2.25
    endloop
  endfacet
  facet normal 0.3826834323650899 0 -0.9238795325112866
    outer loop
      vertex 38.40900974233027 15 1.5909902576697321
      vertex 40 20 2.25
      vertex 40 15 2.25
    endloop
  endfacet
  facet normal -0.3826834323650899 0 -0.9238795325112866
    outer loop
      vertex 40 15 2.25
      vertex 40 20 2.25
      vertex 41.59099025766973 20 1.5909902576697321
    endloop
  endfacet
  facet normal 0 -1 0
    outer loop
      vertex 39.06801948466054 20 0
      vertex 39.50342367341902 20 0
      vertex 39.34099157596208 20 0.6590129249695231
    endloop
  endfacet
  facet normal -0.9238795325112866 0 -0.38268343236509045
    outer loop
      vertex 42.25 15 0
      vertex 41.59099025766973 15 1.5909902576697321
      vertex 41.59099025766973 20 1.5909902576697321
    endloop
  endfacet
  facet normal -0.3826834323650899 0 -0.9238795325112866
    outer loop
      vertex 41.59099025766973 15 1.5909902576697321
      vertex 40 15 2.25
      vertex 41.59099025766973 20 1.5909902576697321
    endloop
  endfacet
  facet normal -0.9238795325112866 0 -0.38268343236509045
    outer loop
      vertex 42.25 15 0
      vertex 41.59099025766973 20 1.5909902576697321
      vertex 42.25 20 0
    endloop
  endfacet
  facet normal 0 -1 0
    outer loop
      vertex 40.93198051533947 20 0
      vertex 41.46086976862357 20 0
      vertex 41.263562087734385 20 0.8005087291088117
    endloop
  endfacet
  facet normal 0 1 0
    outer loop
      vertex 7.75 15 0
      vertex 8.409009742330268 15 1.5909902576697321
      vertex 12.25 15 0
    endloop
  endfacet
  facet normal 0 1 0
    outer loop
      vertex 12.25 15 0
      vertex 8.409009742330268 15 1.5909902576697321
      vertex 10 15 2.25
    endloop
  endfacet
  facet normal 0 1 0
    outer loop
      vertex 12.25 15 0
      vertex 10 15 2.25
      vertex 11.590990257669732 15 1.5909902576697321
    endloop
  endfacet
  facet normal 0.9238795325112868 0 -0.3826834323650895
    outer loop
      vertex 7.75 15 0
      vertex 7.75 20 0
      vertex 8.409009742330268 15 1.5909902576697321
    endloop
  endfacet
  facet normal 0.9238795325112868 0 -0.3826834323650895
    outer loop
      vertex 8.409009742330268 15 1.5909902576697321
      vertex 7.75 20 0
      vertex 8.409009742330268 20 1.5909902576697321
    endloop
  endfacet
  facet normal 0.3826834323650895 0 -0.9238795325112867
    outer loop
      vertex 8.409009742330268 15 1.5909902576697321
      vertex 8.409009742330268 20 1.5909902576697321
      vertex 10 20 2.25
    endloop
  endfacet
  facet normal 0 -1 0
    outer loop
      vertex 9.068019484660535 20 0
      vertex 9.503423673419016 20 0
      vertex 9.340991575962075 20 0.6590129249695231
    endloop
  endfacet
  facet normal 0.3826834323650895 0 -0.9238795325112867
    outer loop
      vertex 8.409009742330268 15 1.5909902576697321
      vertex 10 20 2.25
      vertex 10 15 2.25
    endloop
  endfacet
  facet normal -0.3826834323650895 0 -0.9238795325112867
    outer loop
      vertex 10 15 2.25
      vertex 10 20 2.25
      vertex 11.590990257669732 20 1.5909902576697321
    endloop
  endfacet
  facet normal -0.9238795325112868 0 -0.3826834323650895
    outer loop
      vertex 12.25 15 0
      vertex 11.590990257669732 15 1.5909902576697321
      vertex 11.590990257669732 20 1.5909902576697321
    endloop
  endfacet
  facet normal -0.3826834323650895 0 -0.9238795325112867
    outer loop
      vertex 11.590990257669732 15 1.5909902576697321
      vertex 10 15 2.25
      vertex 11.590990257669732 20 1.5909902576697321
    endloop
  endfacet
  facet normal -0.9238795325112868 0 -0.3826834323650895
    outer loop
      vertex 12.25 15 0
      vertex 11.590990257669732 20 1.5909902576697321
      vertex 12.25 20 0
    endloop
  endfacet
  facet normal 0 -1 0
    outer loop
      vertex 10.931980515339463 20 0
      vertex 11.460869768623567 20 0
      vertex 11.263562087734384 20 0.8005087291088117
    endloop
  endfacet
  facet normal 1 0 0
    outer loop
      vertex 25 40 28.539130231376433
      vertex 25 40.80050872910881 28.736437912265615
      vertex 25 40 29.068019484660535
    endloop
  endfacet
  facet normal 0 -0.3826834323650908 0.9238795325112864
    outer loop
      vertex 25 40 27.75
      vertex 30 40 27.75
      vertex 25 41.59099025766973 28.40900974233027
    endloop
  endfacet
  facet normal 0 -0.9238795325112864 0.3826834323650908
    outer loop
      vertex 25 41.59099025766973 28.40900974233027
      vertex 30 42.25 30
      vertex 25 42.25 30
    endloop
  endfacet
  facet normal 0 -0.3826834323650908 0.9238795325112864
    outer loop
      vertex 30 40 27.75
      vertex 30 41.59099025766973 28.40900974233027
      vertex 25 41.59099025766973 28.40900974233027
    endloop
  endfacet
  facet normal 0 -0.9238795325112864 0.3826834323650908
    outer loop
      vertex 25 41.59099025766973 28.40900974233027
      vertex 30 41.59099025766973 28.40900974233027
      vertex 30 42.25 30
    endloop
  endfacet
  facet normal -1 0 0
    outer loop
      vertex 30 40 27.75
      vertex 30 42.25 30
      vertex 30 41.59099025766973 28.40900974233027
    endloop
  endfacet
  facet normal -1 0 0
    outer loop
      vertex 30 40 27.75
      vertex 30 41.59099025766973 31.59099025766973
      vertex 30 42.25 30
    endloop
  endfacet
  facet normal 1 0 0
    outer loop
      vertex 25 40 30.496576326580985
      vertex 25 40.659012924969524 30.659008424037925
      vertex 25 40 30.931980515339465
    endloop
  endfacet
  facet normal 0 -0.3826834323650908 -0.9238795325112864
    outer loop
      vertex 25 40 32.25
      vertex 25 41.59099025766973 31.59099025766973
      vertex 30 41.59099025766973 31.59099025766973
    endloop
  endfacet
  facet normal 0 -0.9238795325112864 -0.3826834323650908
    outer loop
      vertex 25 41.59099025766973 31.59099025766973
      vertex 25 42.25 30
      vertex 30 41.59099025766973 31.59099025766973
    endloop
  endfacet
  facet normal 0 -0.3826834323650908 -0.9238795325112864
    outer loop
      vertex 25 40 32.25
      vertex 30 41.59099025766973 31.59099025766973
      vertex 30 40 32.25
    endloop
  endfacet
  facet normal 0 -0.9238795325112864 -0.3826834323650908
    outer loop
      vertex 30 41.59099025766973 31.59099025766973
      vertex 25 42.25 30
      vertex 30 42.25 30
    endloop
  endfacet
  facet normal -1 0 0
    outer loop
      vertex 30 40 27.75
      vertex 30 40 32.25
      vertex 30 41.59099025766973 31.59099025766973
    endloop
  endfacet
  facet normal 1 0 0
    outer loop
      vertex 25 40 8.539130231376433
      vertex 25 40.80050872910881 8.736437912265616
      vertex 25 40 9.068019484660537
    endloop
  endfacet
  facet normal 0 -0.3826834323650899 0.9238795325112868
    outer loop
      vertex 25 40 7.75
      vertex 30 40 7.75
      vertex 25 41.59099025766973 8.409009742330268
    endloop
  endfacet
  facet normal 0 -0.9238795325112865 0.38268343236509034
    outer loop
      vertex 25 41.59099025766973 8.409009742330268
      vertex 30 42.25 10
      vertex 25 42.25 10
    endloop
  endfacet
  facet normal 0 -0.3826834323650899 0.9238795325112868
    outer loop
      vertex 30 40 7.75
      vertex 30 41.59099025766973 8.409009742330268
      vertex 25 41.59099025766973 8.409009742330268
    endloop
  endfacet
  facet normal 0 -0.9238795325112865 0.38268343236509034
    outer loop
      vertex 25 41.59099025766973 8.409009742330268
      vertex 30 41.59099025766973 8.409009742330268
      vertex 30 42.25 10
    endloop
  endfacet
  facet normal -1 0 0
    outer loop
      vertex 30 40 7.75
      vertex 30 42.25 10
      vertex 30 41.59099025766973 8.409009742330268
    endloop
  endfacet
  facet normal -1 0 0
    outer loop
      vertex 30 40 7.75
      vertex 30 41.59099025766973 11.590990257669732
      vertex 30 42.25 10
    endloop
  endfacet
  facet normal 1 0 0
    outer loop
      vertex 25 40 10.496576326580984
      vertex 25 40.659012924969524 10.659008424037925
      vertex 25 40 10.931980515339465
    endloop
  endfacet
  facet normal 0 -0.3826834323650899 -0.9238795325112868
    outer loop
      vertex 25 40 12.25
      vertex 25 41.59099025766973 11.590990257669732
      vertex 30 41.59099025766973 11.590990257669732
    endloop
  endfacet
  facet normal 0 -0.9238795325112865 -0.38268343236509034
    outer loop
      vertex 25 41.59099025766973 11.590990257669732
      vertex 25 42.25 10
      vertex 30 41.59099025766973 11.590990257669732
    endloop
  endfacet
  facet normal 0 -0.3826834323650899 -0.9238795325112868
    outer loop
      vertex 25 40 12.25
      vertex 30 41.59099025766973 11.590990257669732
      vertex 30 40 12.25
    endloop
  endfacet
  facet normal 0 -0.9238795325112865 -0.38268343236509034
    outer loop
      vertex 30 41.59099025766973 11.590990257669732
      vertex 25 42.25 10
      vertex 30 42.25 10
    endloop
  endfacet
  facet normal -1 0 0
    outer loop
      vertex 30 40 7.75
      vertex 30 40 12.25
      vertex 30 41.59099025766973 11.590990257669732
    endloop
  endfacet
  facet normal 0 -1 0
    outer loop
      vertex 37.75 20 0
      vertex 39.06801948466054 20 0
      vertex 39.34099157596208 20 0.6590129249695231
    endloop
  endfacet
  facet normal 0 -1 0
    outer loop
      vertex 37.75 20 0
      vertex 39.34099157596208 20 0.6590129249695231
      vertex 38.40900974233027 20 1.5909902576697321
    endloop
  endfacet
  facet normal 0 -1 0
    outer loop
      vertex 39.50342367341902 20 0
      vertex 40 20 2.25
      vertex 39.34099157596208 20 0.6590129249695231
    endloop
  endfacet
  facet normal 0 -1 0
    outer loop
      vertex 39.50342367341902 20 0
      vertex 40.93198051533947 20 0
      vertex 41.263562087734385 20 0.8005087291088117
    endloop
  endfacet
  facet normal 0 -1 0
    outer loop
      vertex 39.50342367341902 20 0
      vertex 41.263562087734385 20 0.8005087291088117
      vertex 40 20 2.25
    endloop
  endfacet
  facet normal 0 -1 0
    outer loop
      vertex 39.34099157596208 20 0.6590129249695231
      vertex 40 20 2.25
      vertex 38.40900974233027 20 1.5909902576697321
    endloop
  endfacet
  facet normal 0 -1 0
    outer loop
      vertex 41.46086976862357 20 0
      vertex 42.25 20 0
      vertex 41.263562087734385 20 0.8005087291088117
    endloop
  endfacet
  facet normal 0 -1 0
    outer loop
      vertex 42.25 20 0
      vertex 41.59099025766973 20 1.5909902576697321
      vertex 41.263562087734385 20 0.8005087291088117
    endloop
  endfacet
  facet normal 0 -1 0
    outer loop
      vertex 41.263562087734385 20 0.8005087291088117
      vertex 41.59099025766973 20 1.5909902576697321
      vertex 40 20 2.25
    endloop
  endfacet
  facet normal 0 -1 0
    outer loop
      vertex 7.75 20 0
      vertex 9.340991575962075 20 0.6590129249695231
      vertex 8.409009742330268 20 1.5909902576697321
    endloop
  endfacet
  facet normal 0 -1 0
    outer loop
      vertex 7.75 20 0
      vertex 9.068019484660535 20 0
      vertex 9.340991575962075 20 0.6590129249695231
    endloop
  endfacet
  facet normal 0 -1 0
    outer loop
      vertex 9.340991575962075 20 0.6590129249695231
      vertex 10 20 2.25
      vertex 8.409009742330268 20 1.5909902576697321
    endloop
  endfacet
  facet normal 0 -1 0
    outer loop
      vertex 9.503423673419016 20 0
      vertex 10 20 2.25
      vertex 9.340991575962075 20 0.6590129249695231
    endloop
  endfacet
  facet normal 0 -1 0
    outer loop
      vertex 9.503423673419016 20 0
      vertex 10.931980515339463 20 0
      vertex 11.263562087734384 20 0.8005087291088117
    endloop
  endfacet
  facet normal 0 -1 0
    outer loop
      vertex 9.503423673419016 20 0
      vertex 11.263562087734384 20 0.8005087291088117
      vertex 10 20 2.25
    endloop
  endfacet
  facet normal 0 -1 0
    outer loop
      vertex 11.460869768623567 20 0
      vertex 12.25 20 0
      vertex 11.263562087734384 20 0.8005087291088117
    endloop
  endfacet
  facet normal 0 -1 0
    outer loop
      vertex 12.25 20 0
      vertex 11.590990257669732 20 1.5909902576697321
      vertex 11.263562087734384 20 0.8005087291088117
    endloop
  endfacet
  facet normal 0 -1 0
    outer loop
      vertex 11.263562087734384 20 0.8005087291088117
      vertex 11.590990257669732 20 1.5909902576697321
      vertex 10 20 2.25
    endloop
  endfacet
  facet normal 1 0 0
    outer loop
      vertex 25 40 27.75
      vertex 25 40.80050872910881 28.736437912265615
      vertex 25 40 28.539130231376433
    endloop
  endfacet
  facet normal 1 0 0
    outer loop
      vertex 25 40 29.068019484660535
      vertex 25 40.80050872910881 28.736437912265615
      vertex 25 40 30.496576326580985
    endloop
  endfacet
  facet normal 1 0 0
    outer loop
      vertex 25 40 27.75
      vertex 25 41.59099025766973 28.40900974233027
      vertex 25 40.80050872910881 28.736437912265615
    endloop
  endfacet
  facet normal 1 0 0
    outer loop
      vertex 25 40.80050872910881 28.736437912265615
      vertex 25 41.59099025766973 28.40900974233027
      vertex 25 42.25 30
    endloop
  endfacet
  facet normal 1 0 0
    outer loop
      vertex 25 40 30.496576326580985
      vertex 25 40.80050872910881 28.736437912265615
      vertex 25 42.25 30
    endloop
  endfacet
  facet normal 1 0 0
    outer loop
      vertex 25 40 30.931980515339465
      vertex 25 40.659012924969524 30.659008424037925
      vertex 25 40 32.25
    endloop
  endfacet
  facet normal 1 0 0
    outer loop
      vertex 25 40 30.496576326580985
      vertex 25 42.25 30
      vertex 25 40.659012924969524 30.659008424037925
    endloop
  endfacet
  facet normal 1 0 0
    outer loop
      vertex 25 40.659012924969524 30.659008424037925
      vertex 25 42.25 30
      vertex 25 41.59099025766973 31.59099025766973
    endloop
  endfacet
  facet normal 1 0 0
    outer loop
      vertex 25 40 32.25
      vertex 25 40.659012924969524 30.659008424037925
      vertex 25 41.59099025766973 31.59099025766973
    endloop
  endfacet
  facet normal 1 0 0
    outer loop
      vertex 25 40 7.75
      vertex 25 40.80050872910881 8.736437912265616
      vertex 25 40 8.539130231376433
    endloop
  endfacet
  facet normal 1 0 0
    outer loop
      vertex 25 40 9.068019484660537
      vertex 25 40.80050872910881 8.736437912265616
      vertex 25 40 10.496576326580984
    endloop
  endfacet
  facet normal 1 0 0
    outer loop
      vertex 25 40 7.75
      vertex 25 41.59099025766973 8.409009742330268
      vertex 25 40.80050872910881 8.736437912265616
    endloop
  endfacet
  facet normal 1 0 0
    outer loop
      vertex 25 40.80050872910881 8.736437912265616
      vertex 25 41.59099025766973 8.409009742330268
      vertex 25 42.25 10
    endloop
  endfacet
  facet normal 1 0 0
    outer loop
      vertex 25 40 10.496576326580984
      vertex 25 40.80050872910881 8.736437912265616
      vertex 25 42.25 10
    endloop
  endfacet
  facet normal 1 0 0
    outer loop
      vertex 25 40 10.931980515339465
      vertex 25 40.659012924969524 10.659008424037925
      vertex 25 40 12.25
    endloop
  endfacet
  facet normal 1 0 0
    outer loop
      vertex 25 40 10.496576326580984
      vertex 25 42.25 10
      vertex 25 40.659012924969524 10.659008424037925
    endloop
  endfacet
  facet normal 1 0 0
    outer loop
      vertex 25 40.659012924969524 10.659008424037925
      vertex 25 42.25 10
      vertex 25 41.59099025766973 11.590990257669732
    endloop
  endfacet
  facet normal 1 0 0
    outer loop
      vertex 25 40 12.25
      vertex 25 40.659012924969524 10.659008424037925
      vertex 25 41.59099025766973 11.590990257669732
    endloop
  endfacet
  facet normal 0 0 -1
    outer loop
      vertex 0 0 0
      vertex 7.75 15 0
      vertex 12.25 15 0
    endloop
  endfacet
  facet normal -1 0 0
    outer loop
      vertex 0 0 0
      vertex 0 0 3
      vertex 0 40 3
    endloop
  endfacet
  facet normal 0 0 -1
    outer loop
      vertex 0 0 0
      vertex 0 40 0
      vertex 7.75 15 0
    endloop
  endfacet
  facet normal 0 -1 0
    outer loop
      vertex 0 0 0
      vertex 50 0 3
      vertex 0 0 3
    endloop
  endfacet
  facet normal 0 0 1
    outer loop
      vertex 0 0 3
      vertex 50 0 3
      vertex 0 40 3
    endloop
  endfacet
  facet normal 0 0 -1
    outer loop
      vertex 0 0 0
      vertex 12.25 15 0
      vertex 50 40 0
    endloop
  endfacet
  facet normal -1 0 0
    outer loop
      vertex 0 0 0
      vertex 0 40 3
      vertex 0 40 0
    endloop
  endfacet
  facet normal 0 0 -1
    outer loop
      vertex 7.75 15 0
      vertex 0 40 0
      vertex 7.75 20 0
    endloop
  endfacet
  facet normal 0 0 -1
    outer loop
      vertex 7.75 20 0
      vertex 50 40 0
      vertex 9.068019484660535 20 0
    endloop
  endfacet
  facet normal 0 0 -1
    outer loop
      vertex 9.068019484660535 20 0
      vertex 50 40 0
      vertex 9.503423673419016 20 0
    endloop
  endfacet
  facet normal 0 0 -1
    outer loop
      vertex 12.25 15 0
      vertex 12.25 20 0
      vertex 50 40 0
    endloop
  endfacet
  facet normal 0 0 -1
    outer loop
      vertex 9.503423673419016 20 0
      vertex 50 40 0
      vertex 10.931980515339463 20 0
    endloop
  endfacet
  facet normal 0 0 -1
    outer loop
      vertex 10.931980515339463 20 0
      vertex 50 40 0
      vertex 11.460869768623567 20 0
    endloop
  endfacet
  facet normal 0 0 -1
    outer loop
      vertex 11.460869768623567 20 0
      vertex 50 40 0
      vertex 12.25 20 0
    endloop
  endfacet
  facet normal 0 0 -1
    outer loop
      vertex 7.75 20 0
      vertex 0 40 0
      vertex 50 40 0
    endloop
  endfacet
  facet normal 0 0 -1
    outer loop
      vertex 0 0 0
      vertex 37.75 15 0
      vertex 50 0 0
    endloop
  endfacet
  facet normal 0 -1 0
    outer loop
      vertex 0 0 0
      vertex 50 0 0
      vertex 50 0 3
    endloop
  endfacet
  facet normal 0 0 -1
    outer loop
      vertex 0 0 0
      vertex 37.75 20 0
      vertex 37.75 15 0
    endloop
  endfacet
  facet normal 0 0 -1
    outer loop
      vertex 0 0 0
      vertex 50 40 0
      vertex 37.75 20 0
    endloop
  endfacet
  facet normal 0 0 -1
    outer loop
      vertex 50 0 0
      vertex 37.75 15 0
      vertex 42.25 15 0
    endloop
  endfacet
  facet normal 1 0 0
    outer loop
      vertex 50 0 0
      vertex 50 40 0
      vertex 50 0 3
    endloop
  endfacet
  facet normal 0 0 -1
    outer loop
      vertex 50 0 0
      vertex 42.25 15 0
      vertex 50 40 0
    endloop
  endfacet
  facet normal 0 0 1
    outer loop
      vertex 50 0 3
      vertex 50 40 3
      vertex 0 40 3
    endloop
  endfacet
  facet normal 0 0 -1
    outer loop
      vertex 37.75 20 0
      vertex 50 40 0
      vertex 39.06801948466054 20 0
    endloop
  endfacet
  facet normal 0 0 -1
    outer loop
      vertex 39.06801948466054 20 0
      vertex 50 40 0
      vertex 39.50342367341902 20 0
    endloop
  endfacet
  facet normal 0 0 -1
    outer loop
      vertex 39.50342367341902 20 0
      vertex 50 40 0
      vertex 40.93198051533947 20 0
    endloop
  endfacet
  facet normal 0 0 -1
    outer loop
      vertex 42.25 15 0
      vertex 42.25 20 0
      vertex 50 40 0
    endloop
  endfacet
  facet normal 0 0 -1
    outer loop
      vertex 40.93198051533947 20 0
      vertex 50 40 0
      vertex 41.46086976862357 20 0
    endloop
  endfacet
  facet normal 0 0 -1
    outer loop
      vertex 41.46086976862357 20 0
      vertex 50 40 0
      vertex 42.25 20 0
    endloop
  endfacet
  facet normal 1 0 0
    outer loop
      vertex 50 0 3
      vertex 50 40 0
      vertex 50 40 3
    endloop
  endfacet
  facet normal -1 0 0
    outer loop
      vertex 0 43 40
      vertex 0 40 0
      vertex 0 40 3
    endloop
  endfacet
  facet normal -1 0 0
    outer loop
      vertex 0 43 0
      vertex 0 40 0
      vertex 0 43 40
    endloop
  endfacet
  facet normal 0 0 -1
    outer loop
      vertex 0 43 0
      vertex 50 43 0
      vertex 0 40 0
    endloop
  endfacet
  facet normal 0 -1 0
    outer loop
      vertex 25 40 7.75
      vertex 25 40 8.539130231376433
      vertex 0 40 3
    endloop
  endfacet
  facet normal 0 -1 0
    outer loop
      vertex 25 40 8.539130231376433
      vertex 25 40 9.068019484660537
      vertex 0 40 3
    endloop
  endfacet
  facet normal 0 -1 0
    outer loop
      vertex 25 40 7.75
      vertex 0 40 3
      vertex 30 40 7.75
    endloop
  endfacet
  facet normal 0 -1 0
    outer loop
      vertex 25 40 9.068019484660537
      vertex 25 40 10.496576326580984
      vertex 0 40 3
    endloop
  endfacet
  facet normal 0 -1 0
    outer loop
      vertex 25 40 10.496576326580984
      vertex 25 40 10.931980515339465
      vertex 0 40 3
    endloop
  endfacet
  facet normal 0 -1 0
    outer loop
      vertex 25 40 10.931980515339465
      vertex 25 40 12.25
      vertex 0 40 3
    endloop
  endfacet
  facet normal 0 1 0
    outer loop
      vertex 0 43 0
      vertex 0 43 40
      vertex 50 43 0
    endloop
  endfacet
  facet normal 0 -1 0
    outer loop
      vertex 25 40 27.75
      vertex 0 40 3
      vertex 30 40 27.75
    endloop
  endfacet
  facet normal -1 0 0
    outer loop
      vertex 0 40 40
      vertex 0 43 40
      vertex 0 40 3
    endloop
  endfacet
  facet normal 0 -1 0
    outer loop
      vertex 0 40 40
      vertex 0 40 3
      vertex 25 40 27.75
    endloop
  endfacet
  facet normal 0 -1 0
    outer loop
      vertex 0 40 40
      vertex 25 40 27.75
      vertex 25 40 28.539130231376433
    endloop
  endfacet
  facet normal 0 -1 0
    outer loop
      vertex 0 40 40
      vertex 25 40 28.539130231376433
      vertex 25 40 29.068019484660535
    endloop
  endfacet
  facet normal 0 -1 0
    outer loop
      vertex 0 40 40
      vertex 25 40 29.068019484660535
      vertex 25 40 30.496576326580985
    endloop
  endfacet
  facet normal 0 -1 0
    outer loop
      vertex 0 40 40
      vertex 25 40 30.496576326580985
      vertex 25 40 30.931980515339465
    endloop
  endfacet
  facet normal 0 -1 0
    outer loop
      vertex 0 40 40
      vertex 25 40 30.931980515339465
      vertex 25 40 32.25
    endloop
  endfacet
  facet normal 0 -1 0
    outer loop
      vertex 0 40 40
      vertex 25 40 32.25
      vertex 30 40 32.25
    endloop
  endfacet
  facet normal 0 0 1
    outer loop
      vertex 0 40 40
      vertex 50 40 40
      vertex 0 43 40
    endloop
  endfacet
  facet normal 0 -1 0
    outer loop
      vertex 30 40 7.75
      vertex 0 40 3
      vertex 50 40 3
    endloop
  endfacet
  facet normal 0 0 -1
    outer loop
      vertex 50 43 0
      vertex 50 40 0
      vertex 0 40 0
    endloop
  endfacet
  facet normal 0 -1 0
    outer loop
      vertex 25 40 12.25
      vertex 50 40 40
      vertex 0 40 3
    endloop
  endfacet
  facet normal 1 0 0
    outer loop
      vertex 50 43 0
      vertex 50 40 3
      vertex 50 40 0
    endloop
  endfacet
  facet normal 0 -1 0
    outer loop
      vertex 30 40 7.75
      vertex 50 40 3
      vertex 50 40 40
    endloop
  endfacet
  facet normal 1 0 0
    outer loop
      vertex 50 40 40
      vertex 50 40 3
      vertex 50 43 0
    endloop
  endfacet
  facet normal 0 -1 0
    outer loop
      vertex 30 40 27.75
      vertex 0 40 3
      vertex 50 40 40
    endloop
  endfacet
  facet normal 0 -1 0
    outer loop
      vertex 25 40 12.25
      vertex 30 40 12.25
      vertex 50 40 40
    endloop
  endfacet
  facet normal 0 -1 0
    outer loop
      vertex 30 40 7.75
      vertex 50 40 40
      vertex 30 40 12.25
    endloop
  endfacet
  facet normal 0 1 0
    outer loop
      vertex 0 43 40
      vertex 50 43 40
      vertex 50 43 0
    endloop
  endfacet
  facet normal 0 -1 0
    outer loop
      vertex 0 40 40
      vertex 30 40 32.25
      vertex 50 40 40
    endloop
  endfacet
  facet normal 0 -1 0
    outer loop
      vertex 30 40 27.75
      vertex 50 40 40
      vertex 30 40 32.25
    endloop
  endfacet
  facet normal 0 0 1
    outer loop
      vertex 0 43 40
      vertex 50 40 40
      vertex 50 43 40
    endloop
  endfacet
  facet normal 1 0 0
    outer loop
      vertex 50 40 40
      vertex 50 43 0
      vertex 50 43 40
    endloop
  endfacet
endsolid OpenSCAD_Model
