solid OpenSCAD_Model
  facet normal 0.9659258262890683 0 0.2588190451025211
    outer loop
      vertex -7.912590402935223 -15 0.16835323672896263
      vertex -7.8674802891105315 -15 0
      vertex -7.912590402935223 -3 0.16835323672896263
    endloop
  endfacet
  facet normal 0.9876883405951379 0 0.15643446504022995
    outer loop
      vertex -7.912590402935223 -15 0.16835323672896263
      vertex -7.978087581473093 3 0.5818861469293861
      vertex -7.978087581473093 -15 0.5818861469293861
    endloop
  endfacet
  facet normal 0.9986295347545738 0 0.05233595624294428
    outer loop
      vertex -7.978087581473093 -15 0.5818861469293861
      vertex -8 3 1
      vertex -8 -15 1
    endloop
  endfacet
  facet normal 0.9876883405951379 0 -0.15643446504022882
    outer loop
      vertex -7.978087581473093 -15 1.4181138530706139
      vertex -7.978087581473093 -3 1.4181138530706139
      vertex -7.951888710057945 -15 1.5835270171507834
    endloop
  endfacet
  facet normal 0.998629534754574 0 -0.05233595624294214
    outer loop
      vertex -8 -15 1
      vertex -8 3 1
      vertex -7.991235032589238 -15 1.1672455412282456
    endloop
  endfacet
  facet normal 0.9659258262890683 0 0.2588190451025211
    outer loop
      vertex -7.912590402935223 3 0.16835323672896263
      vertex -7.8674802891105315 -15 0
      vertex -7.8674802891105315 -9 0
    endloop
  endfacet
  facet normal 0.9659258262890683 0 0.2588190451025211
    outer loop
      vertex -7.912590402935223 -3 0.16835323672896263
      vertex -7.8674802891105315 -15 0
      vertex -7.912590402935223 3 0.16835323672896263
    endloop
  endfacet
  facet normal 0.9659258262890682 0 0.258819045102521
    outer loop
      vertex -7.8674802891105315 2.5115426091072557 0
      vertex -7.912590402935223 3 0.16835323672896263
      vertex -7.8674802891105315 -9 0
    endloop
  endfacet
  facet normal 0.998629534754574 4.920097662303139e-17 0.05233595624294217
    outer loop
      vertex -7.978087581473093 -15 0.5818861469293861
      vertex -7.991235032589238 3 0.8327544587717545
      vertex -8 3 1
    endloop
  endfacet
  facet normal 0.998629534754574 -4.9605589917628666e-17 -0.05233595624294214
    outer loop
      vertex -7.991235032589238 -15 1.1672455412282456
      vertex -7.992695860491031 -3 1.1393712843568713
      vertex -7.98831337678565 -3 1.2229940549709941
    endloop
  endfacet
  facet normal 0.9986295347545736 -6.610482093065182e-17 -0.05233595624294923
    outer loop
      vertex -7.991235032589238 -15 1.1672455412282456
      vertex -8 3 1
      vertex -7.992695860491031 -3 1.1393712843568713
    endloop
  endfacet
  facet normal 0.9876883405951379 0 -0.15643446504022882
    outer loop
      vertex -7.951888710057945 -15 1.5835270171507834
      vertex -7.978087581473093 -3 1.4181138530706139
      vertex -7.978087581473093 3 1.4181138530706139
    endloop
  endfacet
  facet normal 0.9876883405951388 -5.0657584483581684e-17 -0.15643446504022365
    outer loop
      vertex -7.951888710057945 -15 1.5835270171507834
      vertex -7.956255188627136 -3 1.555958156470755
      vertex -7.943155752919562 -3 1.6386647385108397
    endloop
  endfacet
  facet normal 0.987688340595136 -9.37586668859945e-17 -0.15643446504024192
    outer loop
      vertex -7.951888710057945 -15 1.5835270171507834
      vertex -7.970227920048549 0.5999999999999934 1.4677378022946648
      vertex -7.956255188627136 -3 1.555958156470755
    endloop
  endfacet
  facet normal 0.9876883405951385 3.107430102507246e-17 -0.15643446504022548
    outer loop
      vertex -7.951888710057945 -15 1.5835270171507834
      vertex -7.978087581473093 3 1.4181138530706139
      vertex -7.970227920048549 0.5999999999999934 1.4677378022946648
    endloop
  endfacet
  facet normal 0.9659258262890688 8.700980117594835e-16 0.25881904510251863
    outer loop
      vertex -7.8674802891105315 2.5115426091072557 0
      vertex -7.86924466783338 3 0.006584751037461728
      vertex -7.912590402935223 3 0.16835323672896263
    endloop
  endfacet
  facet normal 0.9986295347545738 -3.294451358676664e-17 -0.052335956242945715
    outer loop
      vertex -7.991235032589238 -15 1.1672455412282456
      vertex -7.98831337678565 -3 1.2229940549709941
      vertex -7.978087581473093 -15 1.4181138530706139
    endloop
  endfacet
  facet normal 0.9876883405951378 -1.7551225578976115e-17 -0.1564344650402307
    outer loop
      vertex -7.951888710057945 -15 1.5835270171507834
      vertex -7.943155752919562 -3 1.6386647385108397
      vertex -7.912590402935223 -15 1.8316467632710374
    endloop
  endfacet
  facet normal 0.9659258262890682 0 -0.258819045102521
    outer loop
      vertex -7.912590402935223 -15 1.8316467632710374
      vertex -7.8674802891105315 4.493074434535644 2
      vertex -7.8674802891105315 -15 2
    endloop
  endfacet
  facet normal 0.9876883405951379 0 0.15643446504022893
    outer loop
      vertex -7.912590402935223 -15 0.16835323672896263
      vertex -7.912590402935223 -3 0.16835323672896263
      vertex -7.938789274350371 -3 0.333766400809132
    endloop
  endfacet
  facet normal 0.9876883405951377 -3.539017616744362e-17 0.1564344650402315
    outer loop
      vertex -7.912590402935223 -15 0.16835323672896263
      vertex -7.938789274350371 -3 0.333766400809132
      vertex -7.978087581473093 3 0.5818861469293861
    endloop
  endfacet
  facet normal 0.9986295347545736 0 0.05233595624294568
    outer loop
      vertex -7.978087581473093 -15 0.5818861469293861
      vertex -7.978087581473093 3 0.5818861469293861
      vertex -7.991235032589238 3 0.8327544587717545
    endloop
  endfacet
  facet normal 0.9986295347545739 0 -0.05233595624294369
    outer loop
      vertex -7.978087581473093 -15 1.4181138530706139
      vertex -7.98831337678565 -3 1.2229940549709941
      vertex -7.978087581473093 -3 1.4181138530706139
    endloop
  endfacet
  facet normal 0.9876883405951379 0 -0.15643446504022962
    outer loop
      vertex -7.912590402935223 -15 1.8316467632710374
      vertex -7.943155752919562 -3 1.6386647385108397
      vertex -7.912590402935223 -3 1.8316467632710374
    endloop
  endfacet
  facet normal 0.9659258262890683 0 -0.2588190451025211
    outer loop
      vertex -7.912590402935223 -15 1.8316467632710374
      vertex -7.912590402935223 -3 1.8316467632710374
      vertex -7.8674802891105315 4.493074434535644 2
    endloop
  endfacet
  facet normal -0.9659258262890685 2.2341522758879234e-18 -0.2588190451025199
    outer loop
      vertex -0.13068455703600157 -15 1.9931511125791552
      vertex -0.1325197108894686 -15 2
      vertex -0.13068455703600154 -3 1.9931511125791552
    endloop
  endfacet
  facet normal -0.9659258262890685 2.2341522758879234e-18 -0.2588190451025199
    outer loop
      vertex -0.1325197108894686 -15 2
      vertex -0.13251971088946857 -3 2
      vertex -0.13068455703600154 -3 1.9931511125791552
    endloop
  endfacet
  facet normal 0.9659258262890527 0 0.2588190451025789
    outer loop
      vertex -7.86924466783338 3 0.006584751037461728
      vertex -7.8674802891105315 2.5115426091072557 0
      vertex -7.8674802891105315 15 0
    endloop
  endfacet
  facet normal 0.9659258262890689 0 0.2588190451025187
    outer loop
      vertex -7.86924466783338 3 0.006584751037461728
      vertex -7.912590402935223 15 0.16835323672896263
      vertex -7.912590402935223 3 0.16835323672896263
    endloop
  endfacet
  facet normal 0.9986295347545738 0 0.052335956242945694
    outer loop
      vertex -7.978087581473093 3 0.5818861469293861
      vertex -7.978087581473093 15 0.5818861469293861
      vertex -7.991235032589238 3 0.8327544587717545
    endloop
  endfacet
  facet normal 0.998629534754574 0 0.052335956242942176
    outer loop
      vertex -7.991235032589238 3 0.8327544587717545
      vertex -8 15 1
      vertex -8 3 1
    endloop
  endfacet
  facet normal 0.9659258262890683 -3.4031889715613604e-17 0.2588190451025211
    outer loop
      vertex -7.86924466783338 3 0.006584751037461728
      vertex -7.8674802891105315 15 0
      vertex -7.912590402935223 15 0.16835323672896263
    endloop
  endfacet
  facet normal 0.9986295347545739 -2.943426847097141e-17 0.052335956242944286
    outer loop
      vertex -7.991235032589238 3 0.8327544587717545
      vertex -7.978087581473093 15 0.5818861469293861
      vertex -8 15 1
    endloop
  endfacet
  facet normal 0.9876883405951379 7.078035233488727e-17 0.15643446504022893
    outer loop
      vertex -7.912590402935223 -3 0.16835323672896263
      vertex -7.978087581473093 3 0.5818861469293861
      vertex -7.938789274350371 -3 0.333766400809132
    endloop
  endfacet
  facet normal 0.998629534754574 9.904933451741841e-17 -0.05233595624294214
    outer loop
      vertex -7.992695860491031 -3 1.1393712843568713
      vertex -8 3 1
      vertex -7.98831337678565 -3 1.2229940549709941
    endloop
  endfacet
  facet normal 0.9986295347545739 4.1432401366763285e-17 -0.05233595624294369
    outer loop
      vertex -7.98831337678565 -3 1.2229940549709941
      vertex -8 3 1
      vertex -7.978087581473093 -3 1.4181138530706139
    endloop
  endfacet
  facet normal 0.987688340595139 3.654107620540937e-16 -0.15643446504022368
    outer loop
      vertex -7.956255188627136 -3 1.555958156470755
      vertex -7.970227920048549 0.5999999999999934 1.4677378022946648
      vertex -7.943155752919562 -3 1.6386647385108397
    endloop
  endfacet
  facet normal 0.987688340595138 7.521953819561203e-17 -0.15643446504022965
    outer loop
      vertex -7.943155752919562 -3 1.6386647385108397
      vertex -7.970227920048549 0.5999999999999934 1.4677378022946648
      vertex -7.912590402935223 -3 1.8316467632710374
    endloop
  endfacet
  facet normal 0.9876883405951379 0 0.15643446504022995
    outer loop
      vertex -7.912590402935223 -3 0.16835323672896263
      vertex -7.912590402935223 3 0.16835323672896263
      vertex -7.978087581473093 15 0.5818861469293861
    endloop
  endfacet
  facet normal 0.9876883405951379 0 0.15643446504022995
    outer loop
      vertex -7.912590402935223 -3 0.16835323672896263
      vertex -7.978087581473093 15 0.5818861469293861
      vertex -7.978087581473093 3 0.5818861469293861
    endloop
  endfacet
  facet normal 0.9986295347545739 0 -0.052335956242944286
    outer loop
      vertex -7.978087581473093 -3 1.4181138530706139
      vertex -8 3 1
      vertex -7.978087581473093 3 1.4181138530706139
    endloop
  endfacet
  facet normal 0.9986295347545739 0 -0.052335956242944286
    outer loop
      vertex -8 3 1
      vertex -8 15 1
      vertex -7.978087581473093 3 1.4181138530706139
    endloop
  endfacet
  facet normal 0.9876883405951382 0 -0.15643446504022696
    outer loop
      vertex -7.970227920048549 0.5999999999999934 1.4677378022946648
      vertex -7.978087581473093 3 1.4181138530706139
      vertex -7.978087581473093 15 1.4181138530706139
    endloop
  endfacet
  facet normal 0.9876883405951378 0 -0.15643446504023034
    outer loop
      vertex -7.912590402935223 -3 1.8316467632710374
      vertex -7.970227920048549 0.5999999999999934 1.4677378022946648
      vertex -7.912590402935223 15 1.8316467632710374
    endloop
  endfacet
  facet normal 0.9659258262890682 0 -0.258819045102521
    outer loop
      vertex -7.912590402935223 -3 1.8316467632710374
      vertex -7.8674802891105315 15 2
      vertex -7.8674802891105315 4.493074434535644 2
    endloop
  endfacet
  facet normal 0.9876883405951379 0 0.15643446504022995
    outer loop
      vertex -7.912590402935223 3 0.16835323672896263
      vertex -7.912590402935223 15 0.16835323672896263
      vertex -7.978087581473093 15 0.5818861469293861
    endloop
  endfacet
  facet normal 0.9986295347545739 0 -0.052335956242944286
    outer loop
      vertex -7.978087581473093 3 1.4181138530706139
      vertex -8 15 1
      vertex -7.978087581473093 15 1.4181138530706139
    endloop
  endfacet
  facet normal 0.9659258262890683 0 -0.258819045102521
    outer loop
      vertex -7.912590402935223 -3 1.8316467632710374
      vertex -7.912590402935223 15 1.8316467632710374
      vertex -7.8674802891105315 15 2
    endloop
  endfacet
  facet normal 0.9876883405951379 -1.0501962846436521e-17 -0.15643446504022995
    outer loop
      vertex -7.970227920048549 0.5999999999999934 1.4677378022946648
      vertex -7.978087581473093 15 1.4181138530706139
      vertex -7.912590402935223 15 1.8316467632710374
    endloop
  endfacet
  facet normal -0.9659258262890685 0 -0.2588190451025199
    outer loop
      vertex -0.13068455703600154 -3 1.9931511125791552
      vertex -0.13251971088946857 -3 2
      vertex -0.13068455703600154 15 1.9931511125791552
    endloop
  endfacet
  facet normal -0.9659258262890685 0 -0.2588190451025199
    outer loop
      vertex -0.13251971088946857 -3 2
      vertex -0.13251971088946857 15 2
      vertex -0.13068455703600154 15 1.9931511125791552
    endloop
  endfacet
  facet normal 0 -1 0
    outer loop
      vertex -25 -15 2
      vertex -25 -15 0
      vertex -7.978087581473093 -15 1.4181138530706139
    endloop
  endfacet
  facet normal -1 0 0
    outer loop
      vertex -25 -15 2
      vertex -25 15 2
      vertex -25 -15 0
    endloop
  endfacet
  facet normal 0 -1 0
    outer loop
      vertex -7.912590402935223 -15 0.16835323672896263
      vertex -25 -15 0
      vertex -7.8674802891105315 -15 0
    endloop
  endfacet
  facet normal 0 -1 0
    outer loop
      vertex -7.912590402935223 -15 0.16835323672896263
      vertex -7.978087581473093 -15 0.5818861469293861
      vertex -25 -15 0
    endloop
  endfacet
  facet normal 0 -1 0
    outer loop
      vertex -7.978087581473093 -15 0.5818861469293861
      vertex -8 -15 1
      vertex -25 -15 0
    endloop
  endfacet
  facet normal 0 -1 0
    outer loop
      vertex -8 -15 1
      vertex -7.991235032589238 -15 1.1672455412282456
      vertex -25 -15 0
    endloop
  endfacet
  facet normal 0 -1 0
    outer loop
      vertex -7.991235032589238 -15 1.1672455412282456
      vertex -7.978087581473093 -15 1.4181138530706139
      vertex -25 -15 0
    endloop
  endfacet
  facet normal 0 -1 0
    outer loop
      vertex -25 -15 2
      vertex -7.978087581473093 -15 1.4181138530706139
      vertex -7.951888710057945 -15 1.5835270171507834
    endloop
  endfacet
  facet normal 0 -1 0
    outer loop
      vertex -25 -15 2
      vertex -7.951888710057945 -15 1.5835270171507834
      vertex -7.912590402935223 -15 1.8316467632710374
    endloop
  endfacet
  facet normal 0 -1 0
    outer loop
      vertex -25 -15 2
      vertex -7.912590402935223 -15 1.8316467632710374
      vertex -7.8674802891105315 -15 2
    endloop
  endfacet
  facet normal 0 0 1
    outer loop
      vertex -25 -15 2
      vertex -7.8674802891105315 -15 2
      vertex -7.8674802891105315 4.493074434535644 2
    endloop
  endfacet
  facet normal -1 0 0
    outer loop
      vertex -25 15 0
      vertex -25 -15 0
      vertex -25 15 2
    endloop
  endfacet
  facet normal 0 0 1
    outer loop
      vertex -25 -15 2
      vertex -7.8674802891105315 4.493074434535644 2
      vertex -25 15 2
    endloop
  endfacet
  facet normal 0 1 0
    outer loop
      vertex -25 15 0
      vertex -25 15 2
      vertex -7.978087581473093 15 0.5818861469293861
    endloop
  endfacet
  facet normal 0 1 0
    outer loop
      vertex -25 15 0
      vertex -7.912590402935223 15 0.16835323672896263
      vertex -7.8674802891105315 15 0
    endloop
  endfacet
  facet normal 0 1 0
    outer loop
      vertex -25 15 0
      vertex -7.978087581473093 15 0.5818861469293861
      vertex -7.912590402935223 15 0.16835323672896263
    endloop
  endfacet
  facet normal 0 0 1
    outer loop
      vertex -25 15 2
      vertex -7.8674802891105315 4.493074434535644 2
      vertex -7.8674802891105315 15 2
    endloop
  endfacet
  facet normal 0 1 0
    outer loop
      vertex -25 15 2
      vertex -8 15 1
      vertex -7.978087581473093 15 0.5818861469293861
    endloop
  endfacet
  facet normal 0 1 0
    outer loop
      vertex -25 15 2
      vertex -7.978087581473093 15 1.4181138530706139
      vertex -8 15 1
    endloop
  endfacet
  facet normal 0 1 0
    outer loop
      vertex -25 15 2
      vertex -7.912590402935223 15 1.8316467632710374
      vertex -7.978087581473093 15 1.4181138530706139
    endloop
  endfacet
  facet normal 0 1 0
    outer loop
      vertex -25 15 2
      vertex -7.8674802891105315 15 2
      vertex -7.912590402935223 15 1.8316467632710374
    endloop
  endfacet
  facet normal 0 -1 0
    outer loop
      vertex -0.13068455703600157 -15 1.9931511125791552
      vertex 0 -15 2
      vertex -0.1325197108894686 -15 2
    endloop
  endfacet
  facet normal 0 0 1
    outer loop
      vertex -0.1325197108894686 -15 2
      vertex 0 -15 2
      vertex 0 15 2
    endloop
  endfacet
  facet normal 0 0 1
    outer loop
      vertex -0.1325197108894686 -15 2
      vertex 0 15 2
      vertex -0.13251971088946857 -3 2
    endloop
  endfacet
  facet normal 0 0 1
    outer loop
      vertex -0.13251971088946857 -3 2
      vertex 0 15 2
      vertex -0.13251971088946857 15 2
    endloop
  endfacet
  facet normal 0 1 0
    outer loop
      vertex -0.13068455703600154 15 1.9931511125791552
      vertex -0.13251971088946857 15 2
      vertex 0 15 2
    endloop
  endfacet
  facet normal 0.9659258262890683 0 0.2588190451025211
    outer loop
      vertex -7.912590402935223 -15 -1.8316467632710374
      vertex -7.8674802891105315 -15 -2
      vertex -7.912590402935223 -9 -1.8316467632710374
    endloop
  endfacet
  facet normal 0.9876883405951379 0 0.15643446504022995
    outer loop
      vertex -7.978087581473093 -15 -1.4181138530706139
      vertex -7.912590402935223 -15 -1.8316467632710374
      vertex -7.912590402935223 -9 -1.8316467632710374
    endloop
  endfacet
  facet normal 0.9986295347545739 0 0.052335956242944286
    outer loop
      vertex -8 -15 -1
      vertex -7.978087581473093 -15 -1.4181138530706139
      vertex -7.978087581473093 -9 -1.4181138530706139
    endloop
  endfacet
  facet normal 0.9876883405951379 0 0.15643446504022995
    outer loop
      vertex -7.978087581473093 -15 -1.4181138530706139
      vertex -7.912590402935223 -9 -1.8316467632710374
      vertex -7.978087581473093 -9 -1.4181138530706139
    endloop
  endfacet
  facet normal 0.9986295347545739 5.904117194763766e-17 -0.052335956242944286
    outer loop
      vertex -7.978087581473093 -15 -0.5818861469293861
      vertex -8 -15 -1
      vertex -7.991235032589238 -9 -0.8327544587717545
    endloop
  endfacet
  facet normal 0.9876883405951379 0 -0.15643446504022995
    outer loop
      vertex -7.912590402935223 -15 -0.16835323672896263
      vertex -7.978087581473093 -15 -0.5818861469293861
      vertex -7.978087581473093 -9 -0.5818861469293861
    endloop
  endfacet
  facet normal 0.9659258262890683 0 -0.2588190451025211
    outer loop
      vertex -7.912590402935223 -15 -0.16835323672896263
      vertex -7.8674802891105315 -9 0
      vertex -7.8674802891105315 -15 0
    endloop
  endfacet
  facet normal 0.9986295347545738 0 -0.052335956242945694
    outer loop
      vertex -7.978087581473093 -15 -0.5818861469293861
      vertex -7.991235032589238 -9 -0.8327544587717545
      vertex -7.978087581473093 -9 -0.5818861469293861
    endloop
  endfacet
  facet normal 0.9876883405951379 7.250670239183575e-17 -0.15643446504022893
    outer loop
      vertex -7.912590402935223 -15 -0.16835323672896263
      vertex -7.978087581473093 -9 -0.5818861469293861
      vertex -7.951888710057945 -9 -0.41647298284921674
    endloop
  endfacet
  facet normal 0.9876883405951379 0 -0.15643446504023065
    outer loop
      vertex -7.912590402935223 -15 -0.16835323672896263
      vertex -7.951888710057945 -9 -0.41647298284921674
      vertex -7.912590402935223 -9 -0.16835323672896263
    endloop
  endfacet
  facet normal 0.9659258262890683 0 -0.2588190451025211
    outer loop
      vertex -7.912590402935223 -15 -0.16835323672896263
      vertex -7.912590402935223 -9 -0.16835323672896263
      vertex -7.8674802891105315 -9 0
    endloop
  endfacet
  facet normal 0.9659258262890683 0 0.258819045102521
    outer loop
      vertex -7.8674802891105315 -15 -2
      vertex -7.912590402935223 9 -1.8316467632710374
      vertex -7.912590402935223 -9 -1.8316467632710374
    endloop
  endfacet
  facet normal 0.9986295347545739 0 0.052335956242944286
    outer loop
      vertex -8 -15 -1
      vertex -7.978087581473093 -9 -1.4181138530706139
      vertex -8 9 -1
    endloop
  endfacet
  facet normal 0.9876883405951379 0 0.15643446504022995
    outer loop
      vertex -7.978087581473093 -9 -1.4181138530706139
      vertex -7.912590402935223 -9 -1.8316467632710374
      vertex -7.978087581473093 9 -1.4181138530706139
    endloop
  endfacet
  facet normal 0.998629534754574 0 -0.052335956242942176
    outer loop
      vertex -7.991235032589238 -9 -0.8327544587717545
      vertex -8 -15 -1
      vertex -8 9 -1
    endloop
  endfacet
  facet normal 0.9876883405951381 0 -0.15643446504022893
    outer loop
      vertex -7.951888710057945 -9 -0.41647298284921674
      vertex -7.978087581473093 -9 -0.5818861469293861
      vertex -7.978087581473093 9 -0.5818861469293861
    endloop
  endfacet
  facet normal -0.9659258262890685 -4.076144775334804e-18 0.25881904510251985
    outer loop
      vertex -0.1325197108894685 -15 -2
      vertex -0.1306845570360015 -15 -1.9931511125791552
      vertex -0.13068455703600154 -1.8117561956040358 -1.9931511125791552
    endloop
  endfacet
  facet normal -0.9659258262890685 -3.973864880198851e-18 0.2588190451025197
    outer loop
      vertex -0.1325197108894685 -15 -2
      vertex -0.13068455703600154 -1.8117561956040358 -1.9931511125791552
      vertex -0.13251971088946857 -1.506925565464356 -2
    endloop
  endfacet
  facet normal 0.9659258262890682 0 0.258819045102521
    outer loop
      vertex -7.8674802891105315 -15 -2
      vertex -7.8674802891105315 8.511542609107261 -2
      vertex -7.912590402935223 9 -1.8316467632710374
    endloop
  endfacet
  facet normal 0.998629534754574 4.977642664201419e-17 0.05233595624294214
    outer loop
      vertex -7.978087581473093 -9 -1.4181138530706139
      vertex -7.991235032589238 9 -1.1672455412282456
      vertex -8 9 -1
    endloop
  endfacet
  facet normal 0.9986295347545736 -3.2752696913772344e-17 -0.05233595624294568
    outer loop
      vertex -7.991235032589238 -9 -0.8327544587717545
      vertex -8 9 -1
      vertex -7.9868525488838555 9 -0.7491316881576316
    endloop
  endfacet
  facet normal 0.9876883405951377 -1.592078385852477e-17 -0.1564344650402306
    outer loop
      vertex -7.951888710057945 -9 -0.41647298284921674
      vertex -7.978087581473093 9 -0.5818861469293861
      vertex -7.938789274350371 9 -0.333766400809132
    endloop
  endfacet
  facet normal 0.9659258262890689 8.906410722046905e-16 0.25881904510251863
    outer loop
      vertex -7.912590402935223 9 -1.8316467632710374
      vertex -7.8674802891105315 8.511542609107261 -2
      vertex -7.86924466783338 9 -1.9934152489625383
    endloop
  endfacet
  facet normal 0.9659258262890682 0 -0.258819045102521
    outer loop
      vertex -7.8674802891105315 -9 0
      vertex -7.912590402935223 -9 -0.16835323672896263
      vertex -7.8674802891105315 2.5115426091072557 0
    endloop
  endfacet
  facet normal 0.9986295347545736 -3.2704742745523777e-17 -0.05233595624294568
    outer loop
      vertex -7.978087581473093 -9 -0.5818861469293861
      vertex -7.991235032589238 -9 -0.8327544587717545
      vertex -7.9868525488838555 9 -0.7491316881576316
    endloop
  endfacet
  facet normal 0.9876883405951379 -1.5920783858524777e-17 -0.15643446504023065
    outer loop
      vertex -7.912590402935223 -9 -0.16835323672896263
      vertex -7.951888710057945 -9 -0.41647298284921674
      vertex -7.938789274350371 9 -0.333766400809132
    endloop
  endfacet
  facet normal 0.9876883405951379 0 0.15643446504022995
    outer loop
      vertex -7.912590402935223 -9 -1.8316467632710374
      vertex -7.912590402935223 9 -1.8316467632710374
      vertex -7.978087581473093 9 -1.4181138530706139
    endloop
  endfacet
  facet normal 0.9986295347545738 0 0.05233595624294571
    outer loop
      vertex -7.978087581473093 -9 -1.4181138530706139
      vertex -7.978087581473093 9 -1.4181138530706139
      vertex -7.991235032589238 9 -1.1672455412282456
    endloop
  endfacet
  facet normal 0.998629534754574 0 -0.05233595624294217
    outer loop
      vertex -7.978087581473093 -9 -0.5818861469293861
      vertex -7.9868525488838555 9 -0.7491316881576316
      vertex -7.978087581473093 9 -0.5818861469293861
    endloop
  endfacet
  facet normal 0.9659258262890682 0 -0.258819045102521
    outer loop
      vertex -7.912590402935223 -9 -0.16835323672896263
      vertex -7.8674802891105315 15 0
      vertex -7.8674802891105315 2.5115426091072557 0
    endloop
  endfacet
  facet normal 0.9876883405951379 0 -0.15643446504022893
    outer loop
      vertex -7.912590402935223 -9 -0.16835323672896263
      vertex -7.938789274350371 9 -0.333766400809132
      vertex -7.912590402935223 15 -0.16835323672896263
    endloop
  endfacet
  facet normal 0.9659258262890683 0 -0.2588190451025211
    outer loop
      vertex -7.912590402935223 -9 -0.16835323672896263
      vertex -7.912590402935223 15 -0.16835323672896263
      vertex -7.8674802891105315 15 0
    endloop
  endfacet
  facet normal 0.9659258262890525 0 0.25881904510257997
    outer loop
      vertex -7.8674802891105315 8.511542609107261 -2
      vertex -7.8674802891105315 15 -2
      vertex -7.86924466783338 9 -1.9934152489625383
    endloop
  endfacet
  facet normal 0.9659258262890689 -7.250670239183578e-17 0.25881904510251863
    outer loop
      vertex -7.912590402935223 9 -1.8316467632710374
      vertex -7.86924466783338 9 -1.9934152489625383
      vertex -7.8674802891105315 15 -2
    endloop
  endfacet
  facet normal 0.9876883405951379 0 0.15643446504022995
    outer loop
      vertex -7.978087581473093 9 -1.4181138530706139
      vertex -7.912590402935223 9 -1.8316467632710374
      vertex -7.912590402935223 15 -1.8316467632710374
    endloop
  endfacet
  facet normal 0.9986295347545738 0 0.052335956242945715
    outer loop
      vertex -7.991235032589238 9 -1.1672455412282456
      vertex -7.978087581473093 9 -1.4181138530706139
      vertex -7.978087581473093 15 -1.4181138530706139
    endloop
  endfacet
  facet normal 0.998629534754574 -1.497608674402797e-16 0.05233595624294214
    outer loop
      vertex -8 9 -1
      vertex -7.991235032589238 9 -1.1672455412282456
      vertex -7.978087581473093 15 -1.4181138530706139
    endloop
  endfacet
  facet normal 0.9659258262890683 0 0.2588190451025211
    outer loop
      vertex -7.912590402935223 9 -1.8316467632710374
      vertex -7.8674802891105315 15 -2
      vertex -7.912590402935223 15 -1.8316467632710374
    endloop
  endfacet
  facet normal 0.9876883405951379 0 0.15643446504022995
    outer loop
      vertex -7.978087581473093 9 -1.4181138530706139
      vertex -7.912590402935223 15 -1.8316467632710374
      vertex -7.978087581473093 15 -1.4181138530706139
    endloop
  endfacet
  facet normal 0.9986295347545739 0 0.052335956242944286
    outer loop
      vertex -8 9 -1
      vertex -7.978087581473093 15 -1.4181138530706139
      vertex -8 15 -1
    endloop
  endfacet
  facet normal 0.9986295347545738 0 -0.052335956242945694
    outer loop
      vertex -7.9868525488838555 9 -0.7491316881576316
      vertex -8 9 -1
      vertex -8 15 -1
    endloop
  endfacet
  facet normal 0.998629534754574 1.4717134235485708e-16 -0.052335956242942176
    outer loop
      vertex -7.978087581473093 9 -0.5818861469293861
      vertex -7.9868525488838555 9 -0.7491316881576316
      vertex -8 15 -1
    endloop
  endfacet
  facet normal 0.9876883405951379 0 -0.15643446504023065
    outer loop
      vertex -7.938789274350371 9 -0.333766400809132
      vertex -7.978087581473093 9 -0.5818861469293861
      vertex -7.978087581473093 15 -0.5818861469293861
    endloop
  endfacet
  facet normal 0.9986295347545739 0 -0.052335956242944286
    outer loop
      vertex -7.978087581473093 9 -0.5818861469293861
      vertex -8 15 -1
      vertex -7.978087581473093 15 -0.5818861469293861
    endloop
  endfacet
  facet normal 0.9876883405951379 2.86574109453446e-17 -0.15643446504022995
    outer loop
      vertex -7.938789274350371 9 -0.333766400809132
      vertex -7.978087581473093 15 -0.5818861469293861
      vertex -7.912590402935223 15 -0.16835323672896263
    endloop
  endfacet
  facet normal -0.9659258262890685 1.6241563096853337e-18 0.25881904510251996
    outer loop
      vertex -0.13251971088946857 -1.506925565464356 -2
      vertex -0.13068455703600154 -1.8117561956040358 -1.9931511125791552
      vertex -0.13251971088946854 15 -2
    endloop
  endfacet
  facet normal -0.9659258262890685 1.6059033720251598e-18 0.2588190451025199
    outer loop
      vertex -0.13251971088946854 15 -2
      vertex -0.13068455703600154 -1.8117561956040358 -1.9931511125791552
      vertex -0.13068455703600151 15 -1.9931511125791552
    endloop
  endfacet
  facet normal 0 -1 0
    outer loop
      vertex -7.978087581473093 -15 -0.5818861469293861
      vertex -25 -15 0
      vertex -25 -15 -2
    endloop
  endfacet
  facet normal 0 0 -1
    outer loop
      vertex -7.8674802891105315 -15 -2
      vertex -25 -15 -2
      vertex -25 15 -2
    endloop
  endfacet
  facet normal -1 0 0
    outer loop
      vertex -25 -15 -2
      vertex -25 -15 0
      vertex -25 15 0
    endloop
  endfacet
  facet normal 0 -1 0
    outer loop
      vertex -7.912590402935223 -15 -1.8316467632710374
      vertex -25 -15 -2
      vertex -7.8674802891105315 -15 -2
    endloop
  endfacet
  facet normal 0 -1 0
    outer loop
      vertex -7.978087581473093 -15 -1.4181138530706139
      vertex -25 -15 -2
      vertex -7.912590402935223 -15 -1.8316467632710374
    endloop
  endfacet
  facet normal 0 -1 0
    outer loop
      vertex -8 -15 -1
      vertex -25 -15 -2
      vertex -7.978087581473093 -15 -1.4181138530706139
    endloop
  endfacet
  facet normal 0 -1 0
    outer loop
      vertex -7.978087581473093 -15 -0.5818861469293861
      vertex -25 -15 -2
      vertex -8 -15 -1
    endloop
  endfacet
  facet normal 0 -1 0
    outer loop
      vertex -7.912590402935223 -15 -0.16835323672896263
      vertex -25 -15 0
      vertex -7.978087581473093 -15 -0.5818861469293861
    endloop
  endfacet
  facet normal 0 -1 0
    outer loop
      vertex -7.912590402935223 -15 -0.16835323672896263
      vertex -7.8674802891105315 -15 0
      vertex -25 -15 0
    endloop
  endfacet
  facet normal -1 0 0
    outer loop
      vertex -25 -15 -2
      vertex -25 15 0
      vertex -25 15 -2
    endloop
  endfacet
  facet normal 0 1 0
    outer loop
      vertex -7.978087581473093 15 -1.4181138530706139
      vertex -25 15 -2
      vertex -25 15 0
    endloop
  endfacet
  facet normal 0 0 -1
    outer loop
      vertex -7.8674802891105315 -15 -2
      vertex -25 15 -2
      vertex -7.8674802891105315 8.511542609107261 -2
    endloop
  endfacet
  facet normal 0 0 -1
    outer loop
      vertex -7.8674802891105315 8.511542609107261 -2
      vertex -25 15 -2
      vertex -7.8674802891105315 15 -2
    endloop
  endfacet
  facet normal 0 1 0
    outer loop
      vertex -7.912590402935223 15 -1.8316467632710374
      vertex -7.8674802891105315 15 -2
      vertex -25 15 -2
    endloop
  endfacet
  facet normal 0 1 0
    outer loop
      vertex -7.978087581473093 15 -1.4181138530706139
      vertex -7.912590402935223 15 -1.8316467632710374
      vertex -25 15 -2
    endloop
  endfacet
  facet normal 0 1 0
    outer loop
      vertex -8 15 -1
      vertex -7.978087581473093 15 -1.4181138530706139
      vertex -25 15 0
    endloop
  endfacet
  facet normal 0 1 0
    outer loop
      vertex -7.978087581473093 15 -0.5818861469293861
      vertex -8 15 -1
      vertex -25 15 0
    endloop
  endfacet
  facet normal 0 1 0
    outer loop
      vertex -7.912590402935223 15 -0.16835323672896263
      vertex -7.978087581473093 15 -0.5818861469293861
      vertex -25 15 0
    endloop
  endfacet
  facet normal 0 1 0
    outer loop
      vertex -7.8674802891105315 15 0
      vertex -7.912590402935223 15 -0.16835323672896263
      vertex -25 15 0
    endloop
  endfacet
  facet normal 0 -1 0
    outer loop
      vertex -0.1325197108894685 -15 -2
      vertex 0 -15 -2
      vertex -0.1306845570360015 -15 -1.9931511125791552
    endloop
  endfacet
  facet normal 0 0 -1
    outer loop
      vertex -0.1325197108894685 -15 -2
      vertex -0.13251971088946857 -1.506925565464356 -2
      vertex 0 -15 -2
    endloop
  endfacet
  facet normal 0 0 -1
    outer loop
      vertex -0.13251971088946857 -1.506925565464356 -2
      vertex -0.13251971088946854 15 -2
      vertex 0 -15 -2
    endloop
  endfacet
  facet normal 0 0 -1
    outer loop
      vertex -0.13251971088946854 15 -2
      vertex 0 15 -2
      vertex 0 -15 -2
    endloop
  endfacet
  facet normal 0 1 0
    outer loop
      vertex -0.13251971088946854 15 -2
      vertex -0.13068455703600151 15 -1.9931511125791552
      vertex 0 15 -2
    endloop
  endfacet
  facet normal -0.05233595624294428 -6.007698198180675e-17 -0.9986295347545738
    outer loop
      vertex -0.20905692653530694 -16 -1.9890437907365466
      vertex -0.1306845570360015 -15 -1.9931511125791552
      vertex 0 -16 -2
    endloop
  endfacet
  facet normal 0 -1 0
    outer loop
      vertex -0.6180339887498948 -16 -1.902113032590307
      vertex -0.4158233816355187 -16 -1.9562952014676114
      vertex 0.6180339887498948 -16 -1.902113032590307
    endloop
  endfacet
  facet normal 0 -1 0
    outer loop
      vertex -0.20905692653530694 -16 -1.9890437907365466
      vertex 0 -16 -2
      vertex 0.20905692653530694 -16 -1.9890437907365466
    endloop
  endfacet
  facet normal 0 -1 0
    outer loop
      vertex -0.4158233816355187 -16 -1.9562952014676114
      vertex -0.20905692653530694 -16 -1.9890437907365466
      vertex 0.4158233816355187 -16 -1.9562952014676114
    endloop
  endfacet
  facet normal 0 -1 0
    outer loop
      vertex -0.20905692653530694 -16 -1.9890437907365466
      vertex 0.20905692653530694 -16 -1.9890437907365466
      vertex 0.4158233816355187 -16 -1.9562952014676114
    endloop
  endfacet
  facet normal 0 -1 0
    outer loop
      vertex -0.4158233816355187 -16 -1.9562952014676114
      vertex 0.4158233816355187 -16 -1.9562952014676114
      vertex 0.6180339887498948 -16 -1.902113032590307
    endloop
  endfacet
  facet normal 0 -1 0
    outer loop
      vertex -0.6180339887498948 -16 -1.902113032590307
      vertex 0.6180339887498948 -16 -1.902113032590307
      vertex 0.8134732861516004 -16 -1.8270909152852017
    endloop
  endfacet
  facet normal -0.05233595624294382 0 -0.9986295347545738
    outer loop
      vertex 0 -16 -2
      vertex -0.1306845570360015 -15 -1.9931511125791552
      vertex 0 -15 -2
    endloop
  endfacet
  facet normal 0 -1 0
    outer loop
      vertex -0.6180339887498948 -16 -1.902113032590307
      vertex 0.8134732861516004 -16 -1.8270909152852017
      vertex -0.8134732861516004 -16 -1.8270909152852017
    endloop
  endfacet
  facet normal 0 -1 0
    outer loop
      vertex -0.8134732861516004 -16 -1.8270909152852017
      vertex 1 -16 -1.7320508075688772
      vertex -1 -16 -1.7320508075688772
    endloop
  endfacet
  facet normal 0 -1 0
    outer loop
      vertex -1 -16 -1.7320508075688772
      vertex 1.1755705045849463 -16 -1.618033988749895
      vertex -1.1755705045849463 -16 -1.618033988749895
    endloop
  endfacet
  facet normal 0 -1 0
    outer loop
      vertex -1.1755705045849463 -16 -1.618033988749895
      vertex 1.3382612127177165 -16 -1.4862896509547885
      vertex -1.3382612127177165 -16 -1.4862896509547885
    endloop
  endfacet
  facet normal 0 -1 0
    outer loop
      vertex -0.8134732861516004 -16 -1.8270909152852017
      vertex 0.8134732861516004 -16 -1.8270909152852017
      vertex 1 -16 -1.7320508075688772
    endloop
  endfacet
  facet normal 0 -1 0
    outer loop
      vertex -1 -16 -1.7320508075688772
      vertex 1 -16 -1.7320508075688772
      vertex 1.1755705045849463 -16 -1.618033988749895
    endloop
  endfacet
  facet normal 0 -1 0
    outer loop
      vertex -1.1755705045849463 -16 -1.618033988749895
      vertex 1.1755705045849463 -16 -1.618033988749895
      vertex 1.3382612127177165 -16 -1.4862896509547885
    endloop
  endfacet
  facet normal 0 -1 0
    outer loop
      vertex -1.4862896509547885 -16 -1.3382612127177165
      vertex -1.3382612127177165 -16 -1.4862896509547885
      vertex 1.4862896509547885 -16 -1.3382612127177165
    endloop
  endfacet
  facet normal 0 -1 0
    outer loop
      vertex -1.618033988749895 -16 -1.1755705045849463
      vertex 1.7320508075688772 -16 -1
      vertex -1.7320508075688772 -16 -1
    endloop
  endfacet
  facet normal 0 -1 0
    outer loop
      vertex -1.4862896509547885 -16 -1.3382612127177165
      vertex 1.618033988749895 -16 -1.1755705045849463
      vertex -1.618033988749895 -16 -1.1755705045849463
    endloop
  endfacet
  facet normal 0 -1 0
    outer loop
      vertex -1.3382612127177165 -16 -1.4862896509547885
      vertex 1.3382612127177165 -16 -1.4862896509547885
      vertex 1.4862896509547885 -16 -1.3382612127177165
    endloop
  endfacet
  facet normal 0 -1 0
    outer loop
      vertex -1.4862896509547885 -16 -1.3382612127177165
      vertex 1.4862896509547885 -16 -1.3382612127177165
      vertex 1.618033988749895 -16 -1.1755705045849463
    endloop
  endfacet
  facet normal 0 -1 0
    outer loop
      vertex -1.618033988749895 -16 -1.1755705045849463
      vertex 1.618033988749895 -16 -1.1755705045849463
      vertex 1.7320508075688772 -16 -1
    endloop
  endfacet
  facet normal 0 -1 0
    outer loop
      vertex -1.7320508075688772 -16 -1
      vertex 1.8270909152852017 -16 -0.8134732861516004
      vertex -1.8270909152852017 -16 -0.8134732861516004
    endloop
  endfacet
  facet normal 0 -1 0
    outer loop
      vertex -1.8270909152852017 -16 -0.8134732861516004
      vertex 1.902113032590307 -16 -0.6180339887498948
      vertex -1.902113032590307 -16 -0.6180339887498948
    endloop
  endfacet
  facet normal 0 -1 0
    outer loop
      vertex -1.7320508075688772 -16 -1
      vertex 1.7320508075688772 -16 -1
      vertex 1.8270909152852017 -16 -0.8134732861516004
    endloop
  endfacet
  facet normal 0 -1 0
    outer loop
      vertex -1.8270909152852017 -16 -0.8134732861516004
      vertex 1.8270909152852017 -16 -0.8134732861516004
      vertex 1.902113032590307 -16 -0.6180339887498948
    endloop
  endfacet
  facet normal 0 -1 0
    outer loop
      vertex -1.902113032590307 -16 -0.6180339887498948
      vertex 1.902113032590307 -16 -0.6180339887498948
      vertex 1.9562952014676114 -16 -0.4158233816355187
    endloop
  endfacet
  facet normal 0 -1 0
    outer loop
      vertex -1.902113032590307 -16 -0.6180339887498948
      vertex 1.9562952014676114 -16 -0.4158233816355187
      vertex -1.9562952014676114 -16 -0.4158233816355187
    endloop
  endfacet
  facet normal 0 -1 0
    outer loop
      vertex -1.9562952014676114 -16 -0.4158233816355187
      vertex 1.9890437907365466 -16 -0.20905692653530694
      vertex -1.9890437907365466 -16 -0.20905692653530694
    endloop
  endfacet
  facet normal 0 -1 0
    outer loop
      vertex -1.9890437907365466 -16 -0.20905692653530694
      vertex 2 -16 0
      vertex -2 -16 0
    endloop
  endfacet
  facet normal 0 -1 0
    outer loop
      vertex -1.9562952014676114 -16 -0.4158233816355187
      vertex 1.9562952014676114 -16 -0.4158233816355187
      vertex 1.9890437907365466 -16 -0.20905692653530694
    endloop
  endfacet
  facet normal 0 -1 0
    outer loop
      vertex -1.9890437907365466 -16 -0.20905692653530694
      vertex 1.9890437907365466 -16 -0.20905692653530694
      vertex 2 -16 0
    endloop
  endfacet
  facet normal -0.7071067811865476 0 -0.7071067811865476
    outer loop
      vertex -1.4862896509547885 -16 -1.3382612127177165
      vertex -1.4862896509547885 16 -1.3382612127177165
      vertex -1.3382612127177165 -16 -1.4862896509547885
    endloop
  endfacet
  facet normal -0.7771459614569709 0 -0.6293203910498375
    outer loop
      vertex -1.4862896509547885 -16 -1.3382612127177165
      vertex -1.618033988749895 -16 -1.1755705045849463
      vertex -1.618033988749895 16 -1.1755705045849463
    endloop
  endfacet
  facet normal -0.8386705679454244 0 -0.5446390350150265
    outer loop
      vertex -1.618033988749895 -16 -1.1755705045849463
      vertex -1.7320508075688772 -16 -1
      vertex -1.7320508075688772 16 -1
    endloop
  endfacet
  facet normal -0.35836794954530005 0 -0.9335804264972017
    outer loop
      vertex -0.6180339887498948 -16 -1.902113032590307
      vertex -0.8134732861516004 -16 -1.8270909152852017
      vertex -0.6180339887498948 16 -1.902113032590307
    endloop
  endfacet
  facet normal -0.45399049973954697 0 -0.8910065241883678
    outer loop
      vertex -0.8134732861516004 -16 -1.8270909152852017
      vertex -1 -16 -1.7320508075688772
      vertex -0.8134732861516004 16 -1.8270909152852017
    endloop
  endfacet
  facet normal -0.2588190451025217 0 -0.9659258262890681
    outer loop
      vertex -0.6180339887498948 -16 -1.902113032590307
      vertex -0.4158233816355187 16 -1.9562952014676114
      vertex -0.4158233816355187 -16 -1.9562952014676114
    endloop
  endfacet
  facet normal -0.15643446504022995 0 -0.9876883405951379
    outer loop
      vertex -0.4158233816355187 -16 -1.9562952014676114
      vertex -0.20905692653530694 16 -1.9890437907365466
      vertex -0.20905692653530694 -16 -1.9890437907365466
    endloop
  endfacet
  facet normal 0.05233595624294428 0 -0.9986295347545738
    outer loop
      vertex 0 -16 -2
      vertex 0.20905692653530694 16 -1.9890437907365466
      vertex 0.20905692653530694 -16 -1.9890437907365466
    endloop
  endfacet
  facet normal -0.05233595624294505 0 -0.9986295347545738
    outer loop
      vertex -0.20905692653530694 -16 -1.9890437907365466
      vertex -0.20905692653530694 16 -1.9890437907365466
      vertex -0.1306845570360015 -15 -1.9931511125791552
    endloop
  endfacet
  facet normal 0.05233595624294428 0 -0.9986295347545738
    outer loop
      vertex 0 -16 -2
      vertex 0 -15 -2
      vertex 0.20905692653530694 16 -1.9890437907365466
    endloop
  endfacet
  facet normal -0.5446390350150265 0 -0.8386705679454244
    outer loop
      vertex -1 -16 -1.7320508075688772
      vertex -1.1755705045849463 -16 -1.618033988749895
      vertex -1 16 -1.7320508075688772
    endloop
  endfacet
  facet normal -0.6293203910498375 0 -0.7771459614569709
    outer loop
      vertex -1.1755705045849463 -16 -1.618033988749895
      vertex -1.3382612127177165 -16 -1.4862896509547885
      vertex -1.1755705045849463 16 -1.618033988749895
    endloop
  endfacet
  facet normal 0.15643446504022995 0 -0.9876883405951379
    outer loop
      vertex 0.20905692653530694 -16 -1.9890437907365466
      vertex 0.4158233816355187 16 -1.9562952014676114
      vertex 0.4158233816355187 -16 -1.9562952014676114
    endloop
  endfacet
  facet normal 0.2588190451025217 0 -0.9659258262890681
    outer loop
      vertex 0.4158233816355187 -16 -1.9562952014676114
      vertex 0.6180339887498948 16 -1.902113032590307
      vertex 0.6180339887498948 -16 -1.902113032590307
    endloop
  endfacet
  facet normal 0.35836794954530005 0 -0.9335804264972017
    outer loop
      vertex 0.6180339887498948 -16 -1.902113032590307
      vertex 0.8134732861516004 16 -1.8270909152852017
      vertex 0.8134732861516004 -16 -1.8270909152852017
    endloop
  endfacet
  facet normal 0.45399049973954697 0 -0.8910065241883678
    outer loop
      vertex 0.8134732861516004 -16 -1.8270909152852017
      vertex 1 16 -1.7320508075688772
      vertex 1 -16 -1.7320508075688772
    endloop
  endfacet
  facet normal 0.5446390350150265 0 -0.8386705679454244
    outer loop
      vertex 1 -16 -1.7320508075688772
      vertex 1.1755705045849463 16 -1.618033988749895
      vertex 1.1755705045849463 -16 -1.618033988749895
    endloop
  endfacet
  facet normal 0.6293203910498375 0 -0.7771459614569709
    outer loop
      vertex 1.1755705045849463 -16 -1.618033988749895
      vertex 1.3382612127177165 16 -1.4862896509547885
      vertex 1.3382612127177165 -16 -1.4862896509547885
    endloop
  endfacet
  facet normal 0.7071067811865476 0 -0.7071067811865476
    outer loop
      vertex 1.3382612127177165 -16 -1.4862896509547885
      vertex 1.3382612127177165 16 -1.4862896509547885
      vertex 1.4862896509547885 -16 -1.3382612127177165
    endloop
  endfacet
  facet normal 0.7771459614569709 0 -0.6293203910498375
    outer loop
      vertex 1.4862896509547885 -16 -1.3382612127177165
      vertex 1.4862896509547885 16 -1.3382612127177165
      vertex 1.618033988749895 -16 -1.1755705045849463
    endloop
  endfacet
  facet normal 0.8386705679454244 0 -0.5446390350150265
    outer loop
      vertex 1.618033988749895 -16 -1.1755705045849463
      vertex 1.618033988749895 16 -1.1755705045849463
      vertex 1.7320508075688772 -16 -1
    endloop
  endfacet
  facet normal -0.05233595624294513 -2.0950516326007486e-19 -0.9986295347545737
    outer loop
      vertex -0.20905692653530694 16 -1.9890437907365466
      vertex -0.13068455703600154 -1.8117561956040358 -1.9931511125791552
      vertex -0.1306845570360015 -15 -1.9931511125791552
    endloop
  endfacet
  facet normal -0.8910065241883678 0 -0.45399049973954697
    outer loop
      vertex -1.7320508075688772 -16 -1
      vertex -1.8270909152852017 -16 -0.8134732861516004
      vertex -1.8270909152852017 16 -0.8134732861516004
    endloop
  endfacet
  facet normal -0.9335804264972017 0 -0.35836794954530005
    outer loop
      vertex -1.8270909152852017 -16 -0.8134732861516004
      vertex -1.902113032590307 -16 -0.6180339887498948
      vertex -1.902113032590307 16 -0.6180339887498948
    endloop
  endfacet
  facet normal -0.9659258262890681 0 -0.2588190451025217
    outer loop
      vertex -1.902113032590307 -16 -0.6180339887498948
      vertex -1.9562952014676114 -16 -0.4158233816355187
      vertex -1.9562952014676114 16 -0.4158233816355187
    endloop
  endfacet
  facet normal -0.9876883405951379 0 -0.15643446504022995
    outer loop
      vertex -1.9562952014676114 -16 -0.4158233816355187
      vertex -1.9890437907365466 -16 -0.20905692653530694
      vertex -1.9890437907365466 16 -0.20905692653530694
    endloop
  endfacet
  facet normal -0.9986295347545738 0 -0.05233595624294428
    outer loop
      vertex -1.9890437907365466 -16 -0.20905692653530694
      vertex -2 -16 0
      vertex -2 16 0
    endloop
  endfacet
  facet normal 0.8910065241883678 0 -0.45399049973954697
    outer loop
      vertex 1.7320508075688772 -16 -1
      vertex 1.7320508075688772 16 -1
      vertex 1.8270909152852017 -16 -0.8134732861516004
    endloop
  endfacet
  facet normal 0.9335804264972017 0 -0.35836794954530005
    outer loop
      vertex 1.8270909152852017 -16 -0.8134732861516004
      vertex 1.8270909152852017 16 -0.8134732861516004
      vertex 1.902113032590307 -16 -0.6180339887498948
    endloop
  endfacet
  facet normal 0.9659258262890681 0 -0.2588190451025217
    outer loop
      vertex 1.902113032590307 -16 -0.6180339887498948
      vertex 1.902113032590307 16 -0.6180339887498948
      vertex 1.9562952014676114 -16 -0.4158233816355187
    endloop
  endfacet
  facet normal 0.9876883405951379 0 -0.15643446504022995
    outer loop
      vertex 1.9562952014676114 -16 -0.4158233816355187
      vertex 1.9562952014676114 16 -0.4158233816355187
      vertex 1.9890437907365466 -16 -0.20905692653530694
    endloop
  endfacet
  facet normal 0.9986295347545738 0 -0.05233595624294428
    outer loop
      vertex 1.9890437907365466 -16 -0.20905692653530694
      vertex 1.9890437907365466 16 -0.20905692653530694
      vertex 2 -16 0
    endloop
  endfacet
  facet normal 0 -1 0
    outer loop
      vertex -2 -16 0
      vertex 1.9890437907365466 -16 0.20905692653530694
      vertex -1.9890437907365466 -16 0.20905692653530694
    endloop
  endfacet
  facet normal 0 -1 0
    outer loop
      vertex -1.9890437907365466 -16 0.20905692653530694
      vertex 1.9562952014676114 -16 0.4158233816355187
      vertex -1.9562952014676114 -16 0.4158233816355187
    endloop
  endfacet
  facet normal 0 -1 0
    outer loop
      vertex -2 -16 0
      vertex 2 -16 0
      vertex 1.9890437907365466 -16 0.20905692653530694
    endloop
  endfacet
  facet normal 0 -1 0
    outer loop
      vertex -1.9890437907365466 -16 0.20905692653530694
      vertex 1.9890437907365466 -16 0.20905692653530694
      vertex 1.9562952014676114 -16 0.4158233816355187
    endloop
  endfacet
  facet normal 0 -1 0
    outer loop
      vertex -1.9562952014676114 -16 0.4158233816355187
      vertex 1.9562952014676114 -16 0.4158233816355187
      vertex 1.902113032590307 -16 0.6180339887498948
    endloop
  endfacet
  facet normal 0 -1 0
    outer loop
      vertex -1.9562952014676114 -16 0.4158233816355187
      vertex 1.902113032590307 -16 0.6180339887498948
      vertex -1.902113032590307 -16 0.6180339887498948
    endloop
  endfacet
  facet normal 0 -1 0
    outer loop
      vertex -1.902113032590307 -16 0.6180339887498948
      vertex 1.8270909152852017 -16 0.8134732861516004
      vertex -1.8270909152852017 -16 0.8134732861516004
    endloop
  endfacet
  facet normal 0 -1 0
    outer loop
      vertex -1.8270909152852017 -16 0.8134732861516004
      vertex 1.7320508075688772 -16 1
      vertex -1.7320508075688772 -16 1
    endloop
  endfacet
  facet normal 0 -1 0
    outer loop
      vertex -1.902113032590307 -16 0.6180339887498948
      vertex 1.902113032590307 -16 0.6180339887498948
      vertex 1.8270909152852017 -16 0.8134732861516004
    endloop
  endfacet
  facet normal 0 -1 0
    outer loop
      vertex -1.8270909152852017 -16 0.8134732861516004
      vertex 1.8270909152852017 -16 0.8134732861516004
      vertex 1.7320508075688772 -16 1
    endloop
  endfacet
  facet normal 0 -1 0
    outer loop
      vertex -1.7320508075688772 -16 1
      vertex 1.618033988749895 -16 1.1755705045849463
      vertex -1.618033988749895 -16 1.1755705045849463
    endloop
  endfacet
  facet normal 0 -1 0
    outer loop
      vertex -1.618033988749895 -16 1.1755705045849463
      vertex 1.4862896509547885 -16 1.3382612127177165
      vertex -1.4862896509547885 -16 1.3382612127177165
    endloop
  endfacet
  facet normal 0 -1 0
    outer loop
      vertex -1.4862896509547885 -16 1.3382612127177165
      vertex 1.3382612127177165 -16 1.4862896509547885
      vertex -1.3382612127177165 -16 1.4862896509547885
    endloop
  endfacet
  facet normal 0 -1 0
    outer loop
      vertex -1.7320508075688772 -16 1
      vertex 1.7320508075688772 -16 1
      vertex 1.618033988749895 -16 1.1755705045849463
    endloop
  endfacet
  facet normal 0 -1 0
    outer loop
      vertex -1.618033988749895 -16 1.1755705045849463
      vertex 1.618033988749895 -16 1.1755705045849463
      vertex 1.4862896509547885 -16 1.3382612127177165
    endloop
  endfacet
  facet normal 0 -1 0
    outer loop
      vertex -1.4862896509547885 -16 1.3382612127177165
      vertex 1.4862896509547885 -16 1.3382612127177165
      vertex 1.3382612127177165 -16 1.4862896509547885
    endloop
  endfacet
  facet normal 0 -1 0
    outer loop
      vertex -1.3382612127177165 -16 1.4862896509547885
      vertex 1.1755705045849463 -16 1.618033988749895
      vertex -1.1755705045849463 -16 1.618033988749895
    endloop
  endfacet
  facet normal 0 -1 0
    outer loop
      vertex -1.1755705045849463 -16 1.618033988749895
      vertex 1 -16 1.7320508075688772
      vertex -1 -16 1.7320508075688772
    endloop
  endfacet
  facet normal 0 -1 0
    outer loop
      vertex -1 -16 1.7320508075688772
      vertex 0.8134732861516004 -16 1.8270909152852017
      vertex -0.8134732861516004 -16 1.8270909152852017
    endloop
  endfacet
  facet normal 0 -1 0
    outer loop
      vertex -1 -16 1.7320508075688772
      vertex 1 -16 1.7320508075688772
      vertex 0.8134732861516004 -16 1.8270909152852017
    endloop
  endfacet
  facet normal 0 -1 0
    outer loop
      vertex -0.8134732861516004 -16 1.8270909152852017
      vertex 0.8134732861516004 -16 1.8270909152852017
      vertex 0.6180339887498948 -16 1.902113032590307
    endloop
  endfacet
  facet normal 0 -1 0
    outer loop
      vertex -0.8134732861516004 -16 1.8270909152852017
      vertex 0.6180339887498948 -16 1.902113032590307
      vertex -0.6180339887498948 -16 1.902113032590307
    endloop
  endfacet
  facet normal 0 -1 0
    outer loop
      vertex -0.6180339887498948 -16 1.902113032590307
      vertex 0.4158233816355187 -16 1.9562952014676114
      vertex -0.4158233816355187 -16 1.9562952014676114
    endloop
  endfacet
  facet normal 0 -1 0
    outer loop
      vertex -0.4158233816355187 -16 1.9562952014676114
      vertex 0.20905692653530694 -16 1.9890437907365466
      vertex -0.20905692653530694 -16 1.9890437907365466
    endloop
  endfacet
  facet normal -0.05233595624294428 -6.473812713556761e-17 0.9986295347545738
    outer loop
      vertex -0.20905692653530694 -16 1.9890437907365466
      vertex 0 -16 2
      vertex -0.13068455703600157 -15 1.9931511125791552
    endloop
  endfacet
  facet normal 0 -1 0
    outer loop
      vertex -0.6180339887498948 -16 1.902113032590307
      vertex 0.6180339887498948 -16 1.902113032590307
      vertex 0.4158233816355187 -16 1.9562952014676114
    endloop
  endfacet
  facet normal 0 -1 0
    outer loop
      vertex -0.4158233816355187 -16 1.9562952014676114
      vertex 0.4158233816355187 -16 1.9562952014676114
      vertex 0.20905692653530694 -16 1.9890437907365466
    endloop
  endfacet
  facet normal 0 -1 0
    outer loop
      vertex -0.20905692653530694 -16 1.9890437907365466
      vertex 0.20905692653530694 -16 1.9890437907365466
      vertex 0 -16 2
    endloop
  endfacet
  facet normal 0.05233595624294428 0 0.9986295347545738
    outer loop
      vertex 0 -16 2
      vertex 0.20905692653530694 -16 1.9890437907365466
      vertex 0 -15 2
    endloop
  endfacet
  facet normal -0.052335956242943786 0 0.9986295347545738
    outer loop
      vertex 0 -16 2
      vertex 0 -15 2
      vertex -0.13068455703600157 -15 1.9931511125791552
    endloop
  endfacet
  facet normal 0 -1 0
    outer loop
      vertex -1.3382612127177165 -16 1.4862896509547885
      vertex 1.3382612127177165 -16 1.4862896509547885
      vertex 1.1755705045849463 -16 1.618033988749895
    endloop
  endfacet
  facet normal 0 -1 0
    outer loop
      vertex -1.1755705045849463 -16 1.618033988749895
      vertex 1.1755705045849463 -16 1.618033988749895
      vertex 1 -16 1.7320508075688772
    endloop
  endfacet
  facet normal -0.05233595624294511 1.1512521547306858e-19 0.9986295347545738
    outer loop
      vertex -0.20905692653530694 -16 1.9890437907365466
      vertex -0.13068455703600157 -15 1.9931511125791552
      vertex -0.13068455703600154 -3 1.9931511125791552
    endloop
  endfacet
  facet normal -0.9986295347545738 0 0.05233595624294428
    outer loop
      vertex -2 -16 0
      vertex -1.9890437907365466 -16 0.20905692653530694
      vertex -1.9890437907365466 16 0.20905692653530694
    endloop
  endfacet
  facet normal -0.9876883405951379 0 0.15643446504022995
    outer loop
      vertex -1.9890437907365466 -16 0.20905692653530694
      vertex -1.9562952014676114 -16 0.4158233816355187
      vertex -1.9562952014676114 16 0.4158233816355187
    endloop
  endfacet
  facet normal -0.9659258262890681 0 0.2588190451025217
    outer loop
      vertex -1.9562952014676114 -16 0.4158233816355187
      vertex -1.902113032590307 -16 0.6180339887498948
      vertex -1.902113032590307 16 0.6180339887498948
    endloop
  endfacet
  facet normal -0.9335804264972017 0 0.35836794954530005
    outer loop
      vertex -1.902113032590307 -16 0.6180339887498948
      vertex -1.8270909152852017 -16 0.8134732861516004
      vertex -1.8270909152852017 16 0.8134732861516004
    endloop
  endfacet
  facet normal -0.8910065241883678 0 0.45399049973954697
    outer loop
      vertex -1.8270909152852017 -16 0.8134732861516004
      vertex -1.7320508075688772 -16 1
      vertex -1.7320508075688772 16 1
    endloop
  endfacet
  facet normal 0.9986295347545738 0 0.05233595624294428
    outer loop
      vertex 2 -16 0
      vertex 2 16 0
      vertex 1.9890437907365466 -16 0.20905692653530694
    endloop
  endfacet
  facet normal 0.9876883405951379 0 0.15643446504022995
    outer loop
      vertex 1.9890437907365466 -16 0.20905692653530694
      vertex 1.9890437907365466 16 0.20905692653530694
      vertex 1.9562952014676114 -16 0.4158233816355187
    endloop
  endfacet
  facet normal 0.9659258262890681 0 0.2588190451025217
    outer loop
      vertex 1.9562952014676114 -16 0.4158233816355187
      vertex 1.9562952014676114 16 0.4158233816355187
      vertex 1.902113032590307 -16 0.6180339887498948
    endloop
  endfacet
  facet normal 0.9335804264972017 0 0.35836794954530005
    outer loop
      vertex 1.902113032590307 -16 0.6180339887498948
      vertex 1.902113032590307 16 0.6180339887498948
      vertex 1.8270909152852017 -16 0.8134732861516004
    endloop
  endfacet
  facet normal 0.8910065241883678 0 0.45399049973954697
    outer loop
      vertex 1.8270909152852017 -16 0.8134732861516004
      vertex 1.8270909152852017 16 0.8134732861516004
      vertex 1.7320508075688772 -16 1
    endloop
  endfacet
  facet normal -0.8386705679454244 0 0.5446390350150265
    outer loop
      vertex -1.7320508075688772 -16 1
      vertex -1.618033988749895 -16 1.1755705045849463
      vertex -1.618033988749895 16 1.1755705045849463
    endloop
  endfacet
  facet normal -0.7771459614569709 0 0.6293203910498375
    outer loop
      vertex -1.618033988749895 -16 1.1755705045849463
      vertex -1.4862896509547885 -16 1.3382612127177165
      vertex -1.4862896509547885 16 1.3382612127177165
    endloop
  endfacet
  facet normal -0.7071067811865476 0 0.7071067811865476
    outer loop
      vertex -1.4862896509547885 -16 1.3382612127177165
      vertex -1.3382612127177165 -16 1.4862896509547885
      vertex -1.3382612127177165 16 1.4862896509547885
    endloop
  endfacet
  facet normal 0.8386705679454244 0 0.5446390350150265
    outer loop
      vertex 1.7320508075688772 -16 1
      vertex 1.7320508075688772 16 1
      vertex 1.618033988749895 -16 1.1755705045849463
    endloop
  endfacet
  facet normal 0.7771459614569709 0 0.6293203910498375
    outer loop
      vertex 1.618033988749895 -16 1.1755705045849463
      vertex 1.618033988749895 16 1.1755705045849463
      vertex 1.4862896509547885 -16 1.3382612127177165
    endloop
  endfacet
  facet normal 0.7071067811865476 0 0.7071067811865476
    outer loop
      vertex 1.4862896509547885 -16 1.3382612127177165
      vertex 1.4862896509547885 16 1.3382612127177165
      vertex 1.3382612127177165 -16 1.4862896509547885
    endloop
  endfacet
  facet normal -0.6293203910498375 0 0.7771459614569709
    outer loop
      vertex -1.3382612127177165 -16 1.4862896509547885
      vertex -1.1755705045849463 -16 1.618033988749895
      vertex -1.3382612127177165 16 1.4862896509547885
    endloop
  endfacet
  facet normal -0.5446390350150265 0 0.8386705679454244
    outer loop
      vertex -1.1755705045849463 -16 1.618033988749895
      vertex -1 -16 1.7320508075688772
      vertex -1.1755705045849463 16 1.618033988749895
    endloop
  endfacet
  facet normal -0.45399049973954697 0 0.8910065241883678
    outer loop
      vertex -1 -16 1.7320508075688772
      vertex -0.8134732861516004 -16 1.8270909152852017
      vertex -1 16 1.7320508075688772
    endloop
  endfacet
  facet normal -0.35836794954530005 0 0.9335804264972017
    outer loop
      vertex -0.8134732861516004 -16 1.8270909152852017
      vertex -0.6180339887498948 -16 1.902113032590307
      vertex -0.8134732861516004 16 1.8270909152852017
    endloop
  endfacet
  facet normal -0.2588190451025217 0 0.9659258262890681
    outer loop
      vertex -0.6180339887498948 -16 1.902113032590307
      vertex -0.4158233816355187 -16 1.9562952014676114
      vertex -0.6180339887498948 16 1.902113032590307
    endloop
  endfacet
  facet normal -0.15643446504022995 0 0.9876883405951379
    outer loop
      vertex -0.4158233816355187 -16 1.9562952014676114
      vertex -0.20905692653530694 -16 1.9890437907365466
      vertex -0.4158233816355187 16 1.9562952014676114
    endloop
  endfacet
  facet normal 0.05233595624294427 0 0.9986295347545738
    outer loop
      vertex 0.20905692653530694 -16 1.9890437907365466
      vertex 0 15 2
      vertex 0 -15 2
    endloop
  endfacet
  facet normal 0.15643446504022995 0 0.9876883405951379
    outer loop
      vertex 0.20905692653530694 -16 1.9890437907365466
      vertex 0.4158233816355187 -16 1.9562952014676114
      vertex 0.20905692653530694 16 1.9890437907365466
    endloop
  endfacet
  facet normal 0.5446390350150265 0 0.8386705679454244
    outer loop
      vertex 1 -16 1.7320508075688772
      vertex 1.1755705045849463 -16 1.618033988749895
      vertex 1 16 1.7320508075688772
    endloop
  endfacet
  facet normal 0.6293203910498375 0 0.7771459614569709
    outer loop
      vertex 1.3382612127177165 -16 1.4862896509547885
      vertex 1.1755705045849463 16 1.618033988749895
      vertex 1.1755705045849463 -16 1.618033988749895
    endloop
  endfacet
  facet normal 0.45399049973954697 0 0.8910065241883678
    outer loop
      vertex 1 -16 1.7320508075688772
      vertex 0.8134732861516004 16 1.8270909152852017
      vertex 0.8134732861516004 -16 1.8270909152852017
    endloop
  endfacet
  facet normal 0.35836794954530005 0 0.9335804264972017
    outer loop
      vertex 0.8134732861516004 -16 1.8270909152852017
      vertex 0.6180339887498948 16 1.902113032590307
      vertex 0.6180339887498948 -16 1.902113032590307
    endloop
  endfacet
  facet normal 0.2588190451025217 0 0.9659258262890681
    outer loop
      vertex 0.6180339887498948 -16 1.902113032590307
      vertex 0.4158233816355187 16 1.9562952014676114
      vertex 0.4158233816355187 -16 1.9562952014676114
    endloop
  endfacet
  facet normal -0.052335956242945084 0 0.9986295347545738
    outer loop
      vertex -0.20905692653530694 -16 1.9890437907365466
      vertex -0.13068455703600154 -3 1.9931511125791552
      vertex -0.13068455703600154 15 1.9931511125791552
    endloop
  endfacet
  facet normal -0.7071067811865476 0 -0.7071067811865476
    outer loop
      vertex -1.3382612127177165 -16 -1.4862896509547885
      vertex -1.4862896509547885 16 -1.3382612127177165
      vertex -1.3382612127177165 16 -1.4862896509547885
    endloop
  endfacet
  facet normal -0.7771459614569709 0 -0.6293203910498375
    outer loop
      vertex -1.4862896509547885 -16 -1.3382612127177165
      vertex -1.618033988749895 16 -1.1755705045849463
      vertex -1.4862896509547885 16 -1.3382612127177165
    endloop
  endfacet
  facet normal -0.8386705679454244 0 -0.5446390350150265
    outer loop
      vertex -1.618033988749895 -16 -1.1755705045849463
      vertex -1.7320508075688772 16 -1
      vertex -1.618033988749895 16 -1.1755705045849463
    endloop
  endfacet
  facet normal -0.2588190451025217 0 -0.9659258262890681
    outer loop
      vertex -0.6180339887498948 -16 -1.902113032590307
      vertex -0.6180339887498948 16 -1.902113032590307
      vertex -0.4158233816355187 16 -1.9562952014676114
    endloop
  endfacet
  facet normal -0.35836794954530005 0 -0.9335804264972017
    outer loop
      vertex -0.8134732861516004 -16 -1.8270909152852017
      vertex -0.8134732861516004 16 -1.8270909152852017
      vertex -0.6180339887498948 16 -1.902113032590307
    endloop
  endfacet
  facet normal -0.45399049973954697 0 -0.8910065241883678
    outer loop
      vertex -1 -16 -1.7320508075688772
      vertex -1 16 -1.7320508075688772
      vertex -0.8134732861516004 16 -1.8270909152852017
    endloop
  endfacet
  facet normal -0.15643446504022995 0 -0.9876883405951379
    outer loop
      vertex -0.4158233816355187 -16 -1.9562952014676114
      vertex -0.4158233816355187 16 -1.9562952014676114
      vertex -0.20905692653530694 16 -1.9890437907365466
    endloop
  endfacet
  facet normal 0.05233595624294427 0 -0.9986295347545738
    outer loop
      vertex 0.20905692653530694 16 -1.9890437907365466
      vertex 0 -15 -2
      vertex 0 15 -2
    endloop
  endfacet
  facet normal 0.15643446504022995 0 -0.9876883405951379
    outer loop
      vertex 0.20905692653530694 -16 -1.9890437907365466
      vertex 0.20905692653530694 16 -1.9890437907365466
      vertex 0.4158233816355187 16 -1.9562952014676114
    endloop
  endfacet
  facet normal -0.5446390350150265 0 -0.8386705679454244
    outer loop
      vertex -1.1755705045849463 -16 -1.618033988749895
      vertex -1.1755705045849463 16 -1.618033988749895
      vertex -1 16 -1.7320508075688772
    endloop
  endfacet
  facet normal -0.6293203910498375 0 -0.7771459614569709
    outer loop
      vertex -1.3382612127177165 -16 -1.4862896509547885
      vertex -1.3382612127177165 16 -1.4862896509547885
      vertex -1.1755705045849463 16 -1.618033988749895
    endloop
  endfacet
  facet normal 0.2588190451025217 0 -0.9659258262890681
    outer loop
      vertex 0.4158233816355187 -16 -1.9562952014676114
      vertex 0.4158233816355187 16 -1.9562952014676114
      vertex 0.6180339887498948 16 -1.902113032590307
    endloop
  endfacet
  facet normal 0.35836794954530005 0 -0.9335804264972017
    outer loop
      vertex 0.6180339887498948 -16 -1.902113032590307
      vertex 0.6180339887498948 16 -1.902113032590307
      vertex 0.8134732861516004 16 -1.8270909152852017
    endloop
  endfacet
  facet normal 0.45399049973954697 0 -0.8910065241883678
    outer loop
      vertex 0.8134732861516004 -16 -1.8270909152852017
      vertex 0.8134732861516004 16 -1.8270909152852017
      vertex 1 16 -1.7320508075688772
    endloop
  endfacet
  facet normal 0.5446390350150265 0 -0.8386705679454244
    outer loop
      vertex 1 -16 -1.7320508075688772
      vertex 1 16 -1.7320508075688772
      vertex 1.1755705045849463 16 -1.618033988749895
    endloop
  endfacet
  facet normal 0.6293203910498375 0 -0.7771459614569709
    outer loop
      vertex 1.1755705045849463 -16 -1.618033988749895
      vertex 1.1755705045849463 16 -1.618033988749895
      vertex 1.3382612127177165 16 -1.4862896509547885
    endloop
  endfacet
  facet normal 0.7071067811865476 0 -0.7071067811865476
    outer loop
      vertex 1.4862896509547885 -16 -1.3382612127177165
      vertex 1.3382612127177165 16 -1.4862896509547885
      vertex 1.4862896509547885 16 -1.3382612127177165
    endloop
  endfacet
  facet normal 0.7771459614569709 0 -0.6293203910498375
    outer loop
      vertex 1.618033988749895 -16 -1.1755705045849463
      vertex 1.4862896509547885 16 -1.3382612127177165
      vertex 1.618033988749895 16 -1.1755705045849463
    endloop
  endfacet
  facet normal 0.8386705679454244 0 -0.5446390350150265
    outer loop
      vertex 1.7320508075688772 -16 -1
      vertex 1.618033988749895 16 -1.1755705045849463
      vertex 1.7320508075688772 16 -1
    endloop
  endfacet
  facet normal -0.8910065241883678 0 -0.45399049973954697
    outer loop
      vertex -1.7320508075688772 -16 -1
      vertex -1.8270909152852017 16 -0.8134732861516004
      vertex -1.7320508075688772 16 -1
    endloop
  endfacet
  facet normal -0.9335804264972017 0 -0.35836794954530005
    outer loop
      vertex -1.8270909152852017 -16 -0.8134732861516004
      vertex -1.902113032590307 16 -0.6180339887498948
      vertex -1.8270909152852017 16 -0.8134732861516004
    endloop
  endfacet
  facet normal -0.9659258262890681 0 -0.2588190451025217
    outer loop
      vertex -1.902113032590307 -16 -0.6180339887498948
      vertex -1.9562952014676114 16 -0.4158233816355187
      vertex -1.902113032590307 16 -0.6180339887498948
    endloop
  endfacet
  facet normal -0.9876883405951379 0 -0.15643446504022995
    outer loop
      vertex -1.9562952014676114 -16 -0.4158233816355187
      vertex -1.9890437907365466 16 -0.20905692653530694
      vertex -1.9562952014676114 16 -0.4158233816355187
    endloop
  endfacet
  facet normal -0.9986295347545738 0 -0.05233595624294428
    outer loop
      vertex -1.9890437907365466 -16 -0.20905692653530694
      vertex -2 16 0
      vertex -1.9890437907365466 16 -0.20905692653530694
    endloop
  endfacet
  facet normal 0.8910065241883678 0 -0.45399049973954697
    outer loop
      vertex 1.8270909152852017 -16 -0.8134732861516004
      vertex 1.7320508075688772 16 -1
      vertex 1.8270909152852017 16 -0.8134732861516004
    endloop
  endfacet
  facet normal 0.9335804264972017 0 -0.35836794954530005
    outer loop
      vertex 1.902113032590307 -16 -0.6180339887498948
      vertex 1.8270909152852017 16 -0.8134732861516004
      vertex 1.902113032590307 16 -0.6180339887498948
    endloop
  endfacet
  facet normal 0.9659258262890681 0 -0.2588190451025217
    outer loop
      vertex 1.9562952014676114 -16 -0.4158233816355187
      vertex 1.902113032590307 16 -0.6180339887498948
      vertex 1.9562952014676114 16 -0.4158233816355187
    endloop
  endfacet
  facet normal 0.9876883405951379 0 -0.15643446504022995
    outer loop
      vertex 1.9890437907365466 -16 -0.20905692653530694
      vertex 1.9562952014676114 16 -0.4158233816355187
      vertex 1.9890437907365466 16 -0.20905692653530694
    endloop
  endfacet
  facet normal 0.9986295347545738 0 -0.05233595624294428
    outer loop
      vertex 2 -16 0
      vertex 1.9890437907365466 16 -0.20905692653530694
      vertex 2 16 0
    endloop
  endfacet
  facet normal -0.05233595624294507 8.217479302002128e-20 -0.9986295347545738
    outer loop
      vertex -0.20905692653530694 16 -1.9890437907365466
      vertex -0.13068455703600151 15 -1.9931511125791552
      vertex -0.13068455703600154 -1.8117561956040358 -1.9931511125791552
    endloop
  endfacet
  facet normal -0.05233595624294428 6.163069703306036e-17 -0.9986295347545738
    outer loop
      vertex -0.20905692653530694 16 -1.9890437907365466
      vertex 0 16 -2
      vertex -0.13068455703600151 15 -1.9931511125791552
    endloop
  endfacet
  facet normal 0 1 0
    outer loop
      vertex -0.4158233816355187 16 -1.9562952014676114
      vertex 0.20905692653530694 16 -1.9890437907365466
      vertex -0.20905692653530694 16 -1.9890437907365466
    endloop
  endfacet
  facet normal 0 1 0
    outer loop
      vertex -0.6180339887498948 16 -1.902113032590307
      vertex 0.4158233816355187 16 -1.9562952014676114
      vertex -0.4158233816355187 16 -1.9562952014676114
    endloop
  endfacet
  facet normal 0 1 0
    outer loop
      vertex -0.6180339887498948 16 -1.902113032590307
      vertex -0.8134732861516004 16 -1.8270909152852017
      vertex 0.6180339887498948 16 -1.902113032590307
    endloop
  endfacet
  facet normal -0.05233595624294381 0 -0.9986295347545738
    outer loop
      vertex 0 16 -2
      vertex 0 15 -2
      vertex -0.13068455703600151 15 -1.9931511125791552
    endloop
  endfacet
  facet normal 0.05233595624294428 0 -0.9986295347545738
    outer loop
      vertex 0 16 -2
      vertex 0.20905692653530694 16 -1.9890437907365466
      vertex 0 15 -2
    endloop
  endfacet
  facet normal 0 1 0
    outer loop
      vertex -0.20905692653530694 16 -1.9890437907365466
      vertex 0.20905692653530694 16 -1.9890437907365466
      vertex 0 16 -2
    endloop
  endfacet
  facet normal 0 1 0
    outer loop
      vertex -0.4158233816355187 16 -1.9562952014676114
      vertex 0.4158233816355187 16 -1.9562952014676114
      vertex 0.20905692653530694 16 -1.9890437907365466
    endloop
  endfacet
  facet normal 0 1 0
    outer loop
      vertex -0.6180339887498948 16 -1.902113032590307
      vertex 0.6180339887498948 16 -1.902113032590307
      vertex 0.4158233816355187 16 -1.9562952014676114
    endloop
  endfacet
  facet normal 0 1 0
    outer loop
      vertex -0.8134732861516004 16 -1.8270909152852017
      vertex -1 16 -1.7320508075688772
      vertex 0.8134732861516004 16 -1.8270909152852017
    endloop
  endfacet
  facet normal 0 1 0
    outer loop
      vertex -0.8134732861516004 16 -1.8270909152852017
      vertex 0.8134732861516004 16 -1.8270909152852017
      vertex 0.6180339887498948 16 -1.902113032590307
    endloop
  endfacet
  facet normal 0 1 0
    outer loop
      vertex -1 16 -1.7320508075688772
      vertex 1 16 -1.7320508075688772
      vertex 0.8134732861516004 16 -1.8270909152852017
    endloop
  endfacet
  facet normal 0 1 0
    outer loop
      vertex -1 16 -1.7320508075688772
      vertex -1.1755705045849463 16 -1.618033988749895
      vertex 1 16 -1.7320508075688772
    endloop
  endfacet
  facet normal 0 1 0
    outer loop
      vertex -1.1755705045849463 16 -1.618033988749895
      vertex -1.3382612127177165 16 -1.4862896509547885
      vertex 1.1755705045849463 16 -1.618033988749895
    endloop
  endfacet
  facet normal 0 1 0
    outer loop
      vertex -1.1755705045849463 16 -1.618033988749895
      vertex 1.1755705045849463 16 -1.618033988749895
      vertex 1 16 -1.7320508075688772
    endloop
  endfacet
  facet normal 0 1 0
    outer loop
      vertex 1.1755705045849463 16 -1.618033988749895
      vertex -1.3382612127177165 16 -1.4862896509547885
      vertex 1.3382612127177165 16 -1.4862896509547885
    endloop
  endfacet
  facet normal 0 1 0
    outer loop
      vertex -1.4862896509547885 16 -1.3382612127177165
      vertex -1.618033988749895 16 -1.1755705045849463
      vertex 1.4862896509547885 16 -1.3382612127177165
    endloop
  endfacet
  facet normal 0 1 0
    outer loop
      vertex -1.4862896509547885 16 -1.3382612127177165
      vertex 1.3382612127177165 16 -1.4862896509547885
      vertex -1.3382612127177165 16 -1.4862896509547885
    endloop
  endfacet
  facet normal 0 1 0
    outer loop
      vertex -1.618033988749895 16 -1.1755705045849463
      vertex -1.7320508075688772 16 -1
      vertex 1.618033988749895 16 -1.1755705045849463
    endloop
  endfacet
  facet normal 0 1 0
    outer loop
      vertex -1.4862896509547885 16 -1.3382612127177165
      vertex 1.4862896509547885 16 -1.3382612127177165
      vertex 1.3382612127177165 16 -1.4862896509547885
    endloop
  endfacet
  facet normal 0 1 0
    outer loop
      vertex -1.618033988749895 16 -1.1755705045849463
      vertex 1.618033988749895 16 -1.1755705045849463
      vertex 1.4862896509547885 16 -1.3382612127177165
    endloop
  endfacet
  facet normal 0 1 0
    outer loop
      vertex 1.618033988749895 16 -1.1755705045849463
      vertex -1.7320508075688772 16 -1
      vertex 1.7320508075688772 16 -1
    endloop
  endfacet
  facet normal 0 1 0
    outer loop
      vertex -1.7320508075688772 16 -1
      vertex -1.8270909152852017 16 -0.8134732861516004
      vertex 1.7320508075688772 16 -1
    endloop
  endfacet
  facet normal 0 1 0
    outer loop
      vertex -1.8270909152852017 16 -0.8134732861516004
      vertex -1.902113032590307 16 -0.6180339887498948
      vertex 1.8270909152852017 16 -0.8134732861516004
    endloop
  endfacet
  facet normal 0 1 0
    outer loop
      vertex -1.902113032590307 16 -0.6180339887498948
      vertex -1.9562952014676114 16 -0.4158233816355187
      vertex 1.902113032590307 16 -0.6180339887498948
    endloop
  endfacet
  facet normal 0 1 0
    outer loop
      vertex -1.8270909152852017 16 -0.8134732861516004
      vertex 1.8270909152852017 16 -0.8134732861516004
      vertex 1.7320508075688772 16 -1
    endloop
  endfacet
  facet normal 0 1 0
    outer loop
      vertex -1.902113032590307 16 -0.6180339887498948
      vertex 1.902113032590307 16 -0.6180339887498948
      vertex 1.8270909152852017 16 -0.8134732861516004
    endloop
  endfacet
  facet normal 0 1 0
    outer loop
      vertex -1.9562952014676114 16 -0.4158233816355187
      vertex -1.9890437907365466 16 -0.20905692653530694
      vertex 1.9562952014676114 16 -0.4158233816355187
    endloop
  endfacet
  facet normal 0 1 0
    outer loop
      vertex -1.9890437907365466 16 -0.20905692653530694
      vertex -2 16 0
      vertex 1.9890437907365466 16 -0.20905692653530694
    endloop
  endfacet
  facet normal 0 1 0
    outer loop
      vertex -1.9562952014676114 16 -0.4158233816355187
      vertex 1.9562952014676114 16 -0.4158233816355187
      vertex 1.902113032590307 16 -0.6180339887498948
    endloop
  endfacet
  facet normal 0 1 0
    outer loop
      vertex -1.9890437907365466 16 -0.20905692653530694
      vertex 1.9890437907365466 16 -0.20905692653530694
      vertex 1.9562952014676114 16 -0.4158233816355187
    endloop
  endfacet
  facet normal 0 1 0
    outer loop
      vertex 1.9890437907365466 16 -0.20905692653530694
      vertex -2 16 0
      vertex 2 16 0
    endloop
  endfacet
  facet normal -0.9986295347545738 0 0.05233595624294428
    outer loop
      vertex -2 -16 0
      vertex -1.9890437907365466 16 0.20905692653530694
      vertex -2 16 0
    endloop
  endfacet
  facet normal -0.9876883405951379 0 0.15643446504022995
    outer loop
      vertex -1.9890437907365466 -16 0.20905692653530694
      vertex -1.9562952014676114 16 0.4158233816355187
      vertex -1.9890437907365466 16 0.20905692653530694
    endloop
  endfacet
  facet normal -0.9659258262890681 0 0.2588190451025217
    outer loop
      vertex -1.9562952014676114 -16 0.4158233816355187
      vertex -1.902113032590307 16 0.6180339887498948
      vertex -1.9562952014676114 16 0.4158233816355187
    endloop
  endfacet
  facet normal -0.9335804264972017 0 0.35836794954530005
    outer loop
      vertex -1.902113032590307 -16 0.6180339887498948
      vertex -1.8270909152852017 16 0.8134732861516004
      vertex -1.902113032590307 16 0.6180339887498948
    endloop
  endfacet
  facet normal -0.8910065241883678 0 0.45399049973954697
    outer loop
      vertex -1.8270909152852017 -16 0.8134732861516004
      vertex -1.7320508075688772 16 1
      vertex -1.8270909152852017 16 0.8134732861516004
    endloop
  endfacet
  facet normal 0.9986295347545738 0 0.05233595624294428
    outer loop
      vertex 1.9890437907365466 -16 0.20905692653530694
      vertex 2 16 0
      vertex 1.9890437907365466 16 0.20905692653530694
    endloop
  endfacet
  facet normal 0.9876883405951379 0 0.15643446504022995
    outer loop
      vertex 1.9562952014676114 -16 0.4158233816355187
      vertex 1.9890437907365466 16 0.20905692653530694
      vertex 1.9562952014676114 16 0.4158233816355187
    endloop
  endfacet
  facet normal 0.9659258262890681 0 0.2588190451025217
    outer loop
      vertex 1.902113032590307 -16 0.6180339887498948
      vertex 1.9562952014676114 16 0.4158233816355187
      vertex 1.902113032590307 16 0.6180339887498948
    endloop
  endfacet
  facet normal 0.9335804264972017 0 0.35836794954530005
    outer loop
      vertex 1.8270909152852017 -16 0.8134732861516004
      vertex 1.902113032590307 16 0.6180339887498948
      vertex 1.8270909152852017 16 0.8134732861516004
    endloop
  endfacet
  facet normal 0.8910065241883678 0 0.45399049973954697
    outer loop
      vertex 1.7320508075688772 -16 1
      vertex 1.8270909152852017 16 0.8134732861516004
      vertex 1.7320508075688772 16 1
    endloop
  endfacet
  facet normal -0.8386705679454244 0 0.5446390350150265
    outer loop
      vertex -1.7320508075688772 -16 1
      vertex -1.618033988749895 16 1.1755705045849463
      vertex -1.7320508075688772 16 1
    endloop
  endfacet
  facet normal -0.7771459614569709 0 0.6293203910498375
    outer loop
      vertex -1.618033988749895 -16 1.1755705045849463
      vertex -1.4862896509547885 16 1.3382612127177165
      vertex -1.618033988749895 16 1.1755705045849463
    endloop
  endfacet
  facet normal -0.7071067811865476 0 0.7071067811865476
    outer loop
      vertex -1.4862896509547885 -16 1.3382612127177165
      vertex -1.3382612127177165 16 1.4862896509547885
      vertex -1.4862896509547885 16 1.3382612127177165
    endloop
  endfacet
  facet normal 0.8386705679454244 0 0.5446390350150265
    outer loop
      vertex 1.618033988749895 -16 1.1755705045849463
      vertex 1.7320508075688772 16 1
      vertex 1.618033988749895 16 1.1755705045849463
    endloop
  endfacet
  facet normal 0.7771459614569709 0 0.6293203910498375
    outer loop
      vertex 1.4862896509547885 -16 1.3382612127177165
      vertex 1.618033988749895 16 1.1755705045849463
      vertex 1.4862896509547885 16 1.3382612127177165
    endloop
  endfacet
  facet normal 0.7071067811865476 0 0.7071067811865476
    outer loop
      vertex 1.3382612127177165 -16 1.4862896509547885
      vertex 1.4862896509547885 16 1.3382612127177165
      vertex 1.3382612127177165 16 1.4862896509547885
    endloop
  endfacet
  facet normal -0.6293203910498375 0 0.7771459614569709
    outer loop
      vertex -1.1755705045849463 -16 1.618033988749895
      vertex -1.1755705045849463 16 1.618033988749895
      vertex -1.3382612127177165 16 1.4862896509547885
    endloop
  endfacet
  facet normal -0.5446390350150265 0 0.8386705679454244
    outer loop
      vertex -1 -16 1.7320508075688772
      vertex -1 16 1.7320508075688772
      vertex -1.1755705045849463 16 1.618033988749895
    endloop
  endfacet
  facet normal -0.45399049973954697 0 0.8910065241883678
    outer loop
      vertex -0.8134732861516004 -16 1.8270909152852017
      vertex -0.8134732861516004 16 1.8270909152852017
      vertex -1 16 1.7320508075688772
    endloop
  endfacet
  facet normal -0.35836794954530005 0 0.9335804264972017
    outer loop
      vertex -0.6180339887498948 -16 1.902113032590307
      vertex -0.6180339887498948 16 1.902113032590307
      vertex -0.8134732861516004 16 1.8270909152852017
    endloop
  endfacet
  facet normal -0.2588190451025217 0 0.9659258262890681
    outer loop
      vertex -0.4158233816355187 -16 1.9562952014676114
      vertex -0.4158233816355187 16 1.9562952014676114
      vertex -0.6180339887498948 16 1.902113032590307
    endloop
  endfacet
  facet normal -0.052335956242945084 0 0.9986295347545738
    outer loop
      vertex -0.20905692653530694 -16 1.9890437907365466
      vertex -0.13068455703600154 15 1.9931511125791552
      vertex -0.20905692653530694 16 1.9890437907365466
    endloop
  endfacet
  facet normal -0.15643446504022995 0 0.9876883405951379
    outer loop
      vertex -0.20905692653530694 -16 1.9890437907365466
      vertex -0.20905692653530694 16 1.9890437907365466
      vertex -0.4158233816355187 16 1.9562952014676114
    endloop
  endfacet
  facet normal 0.05233595624294436 0 0.9986295347545738
    outer loop
      vertex 0.20905692653530694 -16 1.9890437907365466
      vertex 0 16 2
      vertex 0 15 2
    endloop
  endfacet
  facet normal 0.05233595624294428 0 0.9986295347545738
    outer loop
      vertex 0.20905692653530694 -16 1.9890437907365466
      vertex 0.20905692653530694 16 1.9890437907365466
      vertex 0 16 2
    endloop
  endfacet
  facet normal 0.5446390350150265 0 0.8386705679454244
    outer loop
      vertex 1.1755705045849463 -16 1.618033988749895
      vertex 1.1755705045849463 16 1.618033988749895
      vertex 1 16 1.7320508075688772
    endloop
  endfacet
  facet normal 0.6293203910498375 0 0.7771459614569709
    outer loop
      vertex 1.3382612127177165 -16 1.4862896509547885
      vertex 1.3382612127177165 16 1.4862896509547885
      vertex 1.1755705045849463 16 1.618033988749895
    endloop
  endfacet
  facet normal 0.45399049973954697 0 0.8910065241883678
    outer loop
      vertex 1 -16 1.7320508075688772
      vertex 1 16 1.7320508075688772
      vertex 0.8134732861516004 16 1.8270909152852017
    endloop
  endfacet
  facet normal 0.35836794954530005 0 0.9335804264972017
    outer loop
      vertex 0.8134732861516004 -16 1.8270909152852017
      vertex 0.8134732861516004 16 1.8270909152852017
      vertex 0.6180339887498948 16 1.902113032590307
    endloop
  endfacet
  facet normal 0.2588190451025217 0 0.9659258262890681
    outer loop
      vertex 0.6180339887498948 -16 1.902113032590307
      vertex 0.6180339887498948 16 1.902113032590307
      vertex 0.4158233816355187 16 1.9562952014676114
    endloop
  endfacet
  facet normal 0.15643446504022995 0 0.9876883405951379
    outer loop
      vertex 0.4158233816355187 -16 1.9562952014676114
      vertex 0.4158233816355187 16 1.9562952014676114
      vertex 0.20905692653530694 16 1.9890437907365466
    endloop
  endfacet
  facet normal 0 1 0
    outer loop
      vertex -2 16 0
      vertex -1.9890437907365466 16 0.20905692653530694
      vertex 2 16 0
    endloop
  endfacet
  facet normal 0 1 0
    outer loop
      vertex -1.9890437907365466 16 0.20905692653530694
      vertex -1.9562952014676114 16 0.4158233816355187
      vertex 1.9890437907365466 16 0.20905692653530694
    endloop
  endfacet
  facet normal 0 1 0
    outer loop
      vertex -1.9562952014676114 16 0.4158233816355187
      vertex -1.902113032590307 16 0.6180339887498948
      vertex 1.9562952014676114 16 0.4158233816355187
    endloop
  endfacet
  facet normal 0 1 0
    outer loop
      vertex -1.9890437907365466 16 0.20905692653530694
      vertex 1.9890437907365466 16 0.20905692653530694
      vertex 2 16 0
    endloop
  endfacet
  facet normal 0 1 0
    outer loop
      vertex -1.9562952014676114 16 0.4158233816355187
      vertex 1.9562952014676114 16 0.4158233816355187
      vertex 1.9890437907365466 16 0.20905692653530694
    endloop
  endfacet
  facet normal 0 1 0
    outer loop
      vertex -1.902113032590307 16 0.6180339887498948
      vertex -1.8270909152852017 16 0.8134732861516004
      vertex 1.902113032590307 16 0.6180339887498948
    endloop
  endfacet
  facet normal 0 1 0
    outer loop
      vertex -1.8270909152852017 16 0.8134732861516004
      vertex -1.7320508075688772 16 1
      vertex 1.8270909152852017 16 0.8134732861516004
    endloop
  endfacet
  facet normal 0 1 0
    outer loop
      vertex -1.902113032590307 16 0.6180339887498948
      vertex 1.902113032590307 16 0.6180339887498948
      vertex 1.9562952014676114 16 0.4158233816355187
    endloop
  endfacet
  facet normal 0 1 0
    outer loop
      vertex -1.8270909152852017 16 0.8134732861516004
      vertex 1.8270909152852017 16 0.8134732861516004
      vertex 1.902113032590307 16 0.6180339887498948
    endloop
  endfacet
  facet normal 0 1 0
    outer loop
      vertex 1.8270909152852017 16 0.8134732861516004
      vertex -1.7320508075688772 16 1
      vertex 1.7320508075688772 16 1
    endloop
  endfacet
  facet normal 0 1 0
    outer loop
      vertex -1.7320508075688772 16 1
      vertex -1.618033988749895 16 1.1755705045849463
      vertex 1.7320508075688772 16 1
    endloop
  endfacet
  facet normal 0 1 0
    outer loop
      vertex -1.618033988749895 16 1.1755705045849463
      vertex -1.4862896509547885 16 1.3382612127177165
      vertex 1.618033988749895 16 1.1755705045849463
    endloop
  endfacet
  facet normal 0 1 0
    outer loop
      vertex -1.4862896509547885 16 1.3382612127177165
      vertex -1.3382612127177165 16 1.4862896509547885
      vertex 1.4862896509547885 16 1.3382612127177165
    endloop
  endfacet
  facet normal 0 1 0
    outer loop
      vertex -1.618033988749895 16 1.1755705045849463
      vertex 1.618033988749895 16 1.1755705045849463
      vertex 1.7320508075688772 16 1
    endloop
  endfacet
  facet normal 0 1 0
    outer loop
      vertex -1.4862896509547885 16 1.3382612127177165
      vertex 1.4862896509547885 16 1.3382612127177165
      vertex 1.618033988749895 16 1.1755705045849463
    endloop
  endfacet
  facet normal 0 1 0
    outer loop
      vertex -1.3382612127177165 16 1.4862896509547885
      vertex 1.3382612127177165 16 1.4862896509547885
      vertex 1.4862896509547885 16 1.3382612127177165
    endloop
  endfacet
  facet normal 0 1 0
    outer loop
      vertex -1.3382612127177165 16 1.4862896509547885
      vertex -1.1755705045849463 16 1.618033988749895
      vertex 1.3382612127177165 16 1.4862896509547885
    endloop
  endfacet
  facet normal 0 1 0
    outer loop
      vertex -1.1755705045849463 16 1.618033988749895
      vertex -1 16 1.7320508075688772
      vertex 1.1755705045849463 16 1.618033988749895
    endloop
  endfacet
  facet normal 0 1 0
    outer loop
      vertex -1 16 1.7320508075688772
      vertex -0.8134732861516004 16 1.8270909152852017
      vertex 1 16 1.7320508075688772
    endloop
  endfacet
  facet normal 0 1 0
    outer loop
      vertex -0.8134732861516004 16 1.8270909152852017
      vertex -0.6180339887498948 16 1.902113032590307
      vertex 0.8134732861516004 16 1.8270909152852017
    endloop
  endfacet
  facet normal 0 1 0
    outer loop
      vertex -0.6180339887498948 16 1.902113032590307
      vertex -0.4158233816355187 16 1.9562952014676114
      vertex 0.6180339887498948 16 1.902113032590307
    endloop
  endfacet
  facet normal -0.05233595624294428 6.370231710139853e-17 0.9986295347545738
    outer loop
      vertex -0.13068455703600154 15 1.9931511125791552
      vertex 0 16 2
      vertex -0.20905692653530694 16 1.9890437907365466
    endloop
  endfacet
  facet normal -0.0523359562429438 0 0.9986295347545738
    outer loop
      vertex -0.13068455703600154 15 1.9931511125791552
      vertex 0 15 2
      vertex 0 16 2
    endloop
  endfacet
  facet normal 0 1 0
    outer loop
      vertex -0.6180339887498948 16 1.902113032590307
      vertex 0.6180339887498948 16 1.902113032590307
      vertex 0.8134732861516004 16 1.8270909152852017
    endloop
  endfacet
  facet normal 0 1 0
    outer loop
      vertex -0.4158233816355187 16 1.9562952014676114
      vertex -0.20905692653530694 16 1.9890437907365466
      vertex 0.4158233816355187 16 1.9562952014676114
    endloop
  endfacet
  facet normal 0 1 0
    outer loop
      vertex -0.20905692653530694 16 1.9890437907365466
      vertex 0 16 2
      vertex 0.20905692653530694 16 1.9890437907365466
    endloop
  endfacet
  facet normal 0 1 0
    outer loop
      vertex -0.4158233816355187 16 1.9562952014676114
      vertex 0.4158233816355187 16 1.9562952014676114
      vertex 0.6180339887498948 16 1.902113032590307
    endloop
  endfacet
  facet normal 0 1 0
    outer loop
      vertex -0.20905692653530694 16 1.9890437907365466
      vertex 0.20905692653530694 16 1.9890437907365466
      vertex 0.4158233816355187 16 1.9562952014676114
    endloop
  endfacet
  facet normal 0 1 0
    outer loop
      vertex 1.3382612127177165 16 1.4862896509547885
      vertex -1.1755705045849463 16 1.618033988749895
      vertex 1.1755705045849463 16 1.618033988749895
    endloop
  endfacet
  facet normal 0 1 0
    outer loop
      vertex -1 16 1.7320508075688772
      vertex 1 16 1.7320508075688772
      vertex 1.1755705045849463 16 1.618033988749895
    endloop
  endfacet
  facet normal 0 1 0
    outer loop
      vertex -0.8134732861516004 16 1.8270909152852017
      vertex 0.8134732861516004 16 1.8270909152852017
      vertex 1 16 1.7320508075688772
    endloop
  endfacet
endsolid OpenSCAD_Model
