solid OpenSCAD_Model
  facet normal 0 0 -1
    outer loop
      vertex -2.994042992684404 -2.652490632963181 -15
      vertex -3.883767269704208 -0.9572626571502305 -15
      vertex -2.994042992684404 2.652490632963181 -15
    endloop
  endfacet
  facet normal 0 0 -1
    outer loop
      vertex -2.994042992684404 -2.652490632963181 -15
      vertex -1.4184195481701427 3.7400649707416593 -15
      vertex -1.4184195481701427 -3.7400649707416593 -15
    endloop
  endfacet
  facet normal 0 0 -1
    outer loop
      vertex -1.4184195481701427 -3.7400649707416593 -15
      vertex 0.48214672102129197 3.970835496392216 -15
      vertex 0.482146721021291 -3.9708354963922163 -15
    endloop
  endfacet
  facet normal -0.5680647467311558 -0.8229838658936564 0
    outer loop
      vertex -2.994042992684404 -2.652490632963181 -15
      vertex -1.4184195481701427 -3.7400649707416593 -15
      vertex -1.4184195481701427 -3.7400649707416593 15
    endloop
  endfacet
  facet normal -0.8854560256532098 -0.4647231720437685 0
    outer loop
      vertex -2.994042992684404 -2.652490632963181 -15
      vertex -3.883767269704208 -0.9572626571502305 15
      vertex -3.883767269704208 -0.9572626571502305 -15
    endloop
  endfacet
  facet normal -0.12053668025532327 -0.9927088740980539 0
    outer loop
      vertex -1.4184195481701427 -3.7400649707416593 -15
      vertex 0.482146721021291 -3.9708354963922163 -15
      vertex 0.482146721021291 -3.9708354963922163 15
    endloop
  endfacet
  facet normal 0 0 -1
    outer loop
      vertex -3.883767269704208 -0.9572626571502305 -15
      vertex -3.883767269704208 0.9572626571502305 -15
      vertex -2.994042992684404 2.652490632963181 -15
    endloop
  endfacet
  facet normal 0 0 -1
    outer loop
      vertex -2.994042992684404 -2.652490632963181 -15
      vertex -2.994042992684404 2.652490632963181 -15
      vertex -1.4184195481701427 3.7400649707416593 -15
    endloop
  endfacet
  facet normal 0 0 -1
    outer loop
      vertex -1.4184195481701427 -3.7400649707416593 -15
      vertex -1.4184195481701427 3.7400649707416593 -15
      vertex 0.48214672102129197 3.970835496392216 -15
    endloop
  endfacet
  facet normal -1 0 0
    outer loop
      vertex -3.883767269704208 -0.9572626571502305 -15
      vertex -3.883767269704208 0.9572626571502305 15
      vertex -3.883767269704208 0.9572626571502305 -15
    endloop
  endfacet
  facet normal -0.8854560256532098 0.4647231720437685 0
    outer loop
      vertex -3.883767269704208 0.9572626571502305 -15
      vertex -2.994042992684404 2.652490632963181 15
      vertex -2.994042992684404 2.652490632963181 -15
    endloop
  endfacet
  facet normal -0.5680647467311558 0.8229838658936564 0
    outer loop
      vertex -2.994042992684404 2.652490632963181 -15
      vertex -2.994042992684404 2.652490632963181 15
      vertex -1.4184195481701427 3.7400649707416593 -15
    endloop
  endfacet
  facet normal -0.12053668025532299 0.9927088740980541 0
    outer loop
      vertex -1.4184195481701427 3.7400649707416593 -15
      vertex -1.4184195481701427 3.7400649707416593 15
      vertex 0.48214672102129197 3.970835496392216 -15
    endloop
  endfacet
  facet normal -0.12053668025532271 0.992708874098054 0
    outer loop
      vertex 0.48214672102129197 3.970835496392216 -15
      vertex 0 3.912292285321701 0
      vertex 0.48214672102129197 3.970835496392216 0
    endloop
  endfacet
  facet normal 0 0 -1
    outer loop
      vertex 0.482146721021291 -3.9708354963922163 -15
      vertex 2.272258986924623 3.291935463574626 -15
      vertex 2.2722589869246246 -3.2919354635746245 -15
    endloop
  endfacet
  facet normal 0 0 -1
    outer loop
      vertex 2.2722589869246246 -3.2919354635746245 -15
      vertex 3.5418241026128396 1.8588926881750742 -15
      vertex 3.54182410261284 -1.8588926881750734 -15
    endloop
  endfacet
  facet normal 0 0 -1
    outer loop
      vertex 3.54182410261284 -1.8588926881750734 -15
      vertex 3.5418241026128396 1.8588926881750742 -15
      vertex 4 0 -15
    endloop
  endfacet
  facet normal 0.35460488704253584 -0.9350162426854147 0
    outer loop
      vertex 0.482146721021291 -3.9708354963922163 -15
      vertex 2.2722589869246246 -3.2919354635746245 -15
      vertex 2.2722589869246246 -3.2919354635746245 15
    endloop
  endfacet
  facet normal 0.7485107481711013 -0.663122658240795 0
    outer loop
      vertex 2.2722589869246246 -3.2919354635746245 -15
      vertex 3.54182410261284 -1.8588926881750734 -15
      vertex 2.2722589869246246 -3.2919354635746245 15
    endloop
  endfacet
  facet normal 0.9709418174260521 -0.23931566428755766 0
    outer loop
      vertex 3.54182410261284 -1.8588926881750734 -15
      vertex 4 0 -15
      vertex 3.54182410261284 -1.8588926881750734 15
    endloop
  endfacet
  facet normal 0 0 -1
    outer loop
      vertex 0.482146721021291 -3.9708354963922163 -15
      vertex 0.48214672102129197 3.970835496392216 -15
      vertex 2.272258986924623 3.291935463574626 -15
    endloop
  endfacet
  facet normal 0.35460488704253545 0.9350162426854148 0
    outer loop
      vertex 0.48214672102129197 3.970835496392216 -15
      vertex 2.272258986924623 3.291935463574626 0
      vertex 2.272258986924623 3.291935463574626 -15
    endloop
  endfacet
  facet normal 0 0 -1
    outer loop
      vertex 2.2722589869246246 -3.2919354635746245 -15
      vertex 2.272258986924623 3.291935463574626 -15
      vertex 3.5418241026128396 1.8588926881750742 -15
    endloop
  endfacet
  facet normal 0.748510748171101 0.6631226582407953 0
    outer loop
      vertex 3.5418241026128396 1.8588926881750742 -15
      vertex 2.272258986924623 3.291935463574626 -15
      vertex 3.5418241026128396 1.8588926881750742 0
    endloop
  endfacet
  facet normal 0.970941817426052 0.2393156642875577 0
    outer loop
      vertex 4 0 -15
      vertex 3.5418241026128396 1.8588926881750742 -15
      vertex 4 0 0
    endloop
  endfacet
  facet normal 0.35460488704253545 0.9350162426854148 0
    outer loop
      vertex 0.48214672102129197 3.970835496392216 -15
      vertex 0.48214672102129197 3.970835496392216 0
      vertex 2.272258986924623 3.291935463574626 0
    endloop
  endfacet
  facet normal 0.970941817426052 0.2393156642875577 0
    outer loop
      vertex 3.5418241026128396 1.8588926881750742 -15
      vertex 3.5418241026128396 1.8588926881750742 0
      vertex 4 0 0
    endloop
  endfacet
  facet normal 0.748510748171101 0.6631226582407953 0
    outer loop
      vertex 2.272258986924623 3.291935463574626 -15
      vertex 2.272258986924623 3.291935463574626 0
      vertex 3.5418241026128396 1.8588926881750742 0
    endloop
  endfacet
  facet normal -0.8854560256532098 -0.4647231720437685 0
    outer loop
      vertex -2.994042992684404 -2.652490632963181 -15
      vertex -2.994042992684404 -2.652490632963181 15
      vertex -3.883767269704208 -0.9572626571502305 15
    endloop
  endfacet
  facet normal -0.5680647467311558 -0.8229838658936564 0
    outer loop
      vertex -2.994042992684404 -2.652490632963181 -15
      vertex -1.4184195481701427 -3.7400649707416593 15
      vertex -2.994042992684404 -2.652490632963181 15
    endloop
  endfacet
  facet normal -1 0 0
    outer loop
      vertex -3.883767269704208 -0.9572626571502305 -15
      vertex -3.883767269704208 -0.9572626571502305 15
      vertex -3.883767269704208 0.9572626571502305 15
    endloop
  endfacet
  facet normal -0.12053668025532327 -0.9927088740980539 0
    outer loop
      vertex -1.4184195481701427 -3.7400649707416593 -15
      vertex 0.482146721021291 -3.9708354963922163 15
      vertex -1.4184195481701427 -3.7400649707416593 15
    endloop
  endfacet
  facet normal 0 0 1
    outer loop
      vertex -2.994042992684404 -2.652490632963181 15
      vertex -3.883767269704208 0.9572626571502305 15
      vertex -3.883767269704208 -0.9572626571502305 15
    endloop
  endfacet
  facet normal 0 0 1
    outer loop
      vertex -2.994042992684404 -2.652490632963181 15
      vertex -1.4184195481701427 -3.7400649707416593 15
      vertex -2.994042992684404 2.652490632963181 15
    endloop
  endfacet
  facet normal 0 0 1
    outer loop
      vertex -1.4184195481701427 -3.7400649707416593 15
      vertex 0.482146721021291 -3.9708354963922163 15
      vertex -1.4184195481701427 3.7400649707416593 15
    endloop
  endfacet
  facet normal -0.8854560256532098 0.4647231720437685 0
    outer loop
      vertex -3.883767269704208 0.9572626571502305 -15
      vertex -3.883767269704208 0.9572626571502305 15
      vertex -2.994042992684404 2.652490632963181 15
    endloop
  endfacet
  facet normal -0.5680647467311558 0.8229838658936564 0
    outer loop
      vertex -1.4184195481701427 3.7400649707416593 -15
      vertex -2.994042992684404 2.652490632963181 15
      vertex -1.4184195481701427 3.7400649707416593 15
    endloop
  endfacet
  facet normal 1 0 0
    outer loop
      vertex 0 0 5.5
      vertex 0 0 5.3
      vertex 0 3.912292285321701 5.5
    endloop
  endfacet
  facet normal -0.1205366802553233 0.9927088740980541 -1.9619072148189782e-17
    outer loop
      vertex -1.4184195481701427 3.7400649707416593 15
      vertex 0 3.912292285321701 0
      vertex 0.48214672102129197 3.970835496392216 -15
    endloop
  endfacet
  facet normal 1 0 0
    outer loop
      vertex 0 3.912292285321701 5.5
      vertex 0 0 5.3
      vertex 0 3.912292285321701 5.3
    endloop
  endfacet
  facet normal 0 0 -1
    outer loop
      vertex 0 0 5.5
      vertex 0 3.912292285321701 5.5
      vertex 0.48214672102129197 3.970835496392216 5.5
    endloop
  endfacet
  facet normal -0.12053668025532308 0.992708874098054 0
    outer loop
      vertex -1.4184195481701427 3.7400649707416593 15
      vertex 0 3.912292285321701 5.3
      vertex 0 3.912292285321701 0
    endloop
  endfacet
  facet normal 0 0 1
    outer loop
      vertex -2.994042992684404 -2.652490632963181 15
      vertex -2.994042992684404 2.652490632963181 15
      vertex -3.883767269704208 0.9572626571502305 15
    endloop
  endfacet
  facet normal 0 0 1
    outer loop
      vertex -1.4184195481701427 -3.7400649707416593 15
      vertex -1.4184195481701427 3.7400649707416593 15
      vertex -2.994042992684404 2.652490632963181 15
    endloop
  endfacet
  facet normal 0 0 1
    outer loop
      vertex -1.4184195481701427 3.7400649707416593 15
      vertex 0.482146721021291 -3.9708354963922163 15
      vertex 0.48214672102129197 3.970835496392216 15
    endloop
  endfacet
  facet normal -0.1205366802553231 0.9927088740980541 0
    outer loop
      vertex 0 3.912292285321701 5.5
      vertex 0 3.912292285321701 5.3
      vertex -1.4184195481701427 3.7400649707416593 15
    endloop
  endfacet
  facet normal -0.12053668025532271 0.9927088740980541 0
    outer loop
      vertex 0 3.912292285321701 5.5
      vertex 0.48214672102129197 3.970835496392216 15
      vertex 0.48214672102129197 3.970835496392216 5.5
    endloop
  endfacet
  facet normal -0.12053668025532298 0.992708874098054 1.3734347438489201e-17
    outer loop
      vertex 0 3.912292285321701 5.5
      vertex -1.4184195481701427 3.7400649707416593 15
      vertex 0.48214672102129197 3.970835496392216 15
    endloop
  endfacet
  facet normal 0.35460488704253584 -0.9350162426854147 0
    outer loop
      vertex 0.482146721021291 -3.9708354963922163 -15
      vertex 2.2722589869246246 -3.2919354635746245 15
      vertex 0.482146721021291 -3.9708354963922163 15
    endloop
  endfacet
  facet normal 0 1 0
    outer loop
      vertex 0 0 5.5
      vertex 4 0 5.3
      vertex 0 0 5.3
    endloop
  endfacet
  facet normal 0.7485107481711013 -0.663122658240795 0
    outer loop
      vertex 3.54182410261284 -1.8588926881750734 -15
      vertex 3.54182410261284 -1.8588926881750734 15
      vertex 2.2722589869246246 -3.2919354635746245 15
    endloop
  endfacet
  facet normal 0.9709418174260521 -0.23931566428755766 0
    outer loop
      vertex 3.54182410261284 -1.8588926881750734 15
      vertex 4 0 -15
      vertex 4 0 0
    endloop
  endfacet
  facet normal 0 1 0
    outer loop
      vertex 0 0 5.5
      vertex 4 0 5.5
      vertex 4 0 5.3
    endloop
  endfacet
  facet normal 0.9709418174260521 -0.23931566428755766 0
    outer loop
      vertex 3.54182410261284 -1.8588926881750734 15
      vertex 4 0 0
      vertex 4 0 5.3
    endloop
  endfacet
  facet normal 0 0 1
    outer loop
      vertex 0.482146721021291 -3.9708354963922163 15
      vertex 2.2722589869246246 -3.2919354635746245 15
      vertex 0.48214672102129197 3.970835496392216 15
    endloop
  endfacet
  facet normal 0.9709418174260517 -0.23931566428755913 0
    outer loop
      vertex 3.54182410261284 -1.8588926881750734 15
      vertex 4 0 5.3
      vertex 4 0 5.5
    endloop
  endfacet
  facet normal 0 0 1
    outer loop
      vertex 2.2722589869246246 -3.2919354635746245 15
      vertex 3.54182410261284 -1.8588926881750734 15
      vertex 2.272258986924623 3.291935463574626 15
    endloop
  endfacet
  facet normal 0.970941817426052 -0.2393156642875576 0
    outer loop
      vertex 3.54182410261284 -1.8588926881750734 15
      vertex 4 0 5.5
      vertex 4 0 15
    endloop
  endfacet
  facet normal 0 0 1
    outer loop
      vertex 3.54182410261284 -1.8588926881750734 15
      vertex 4 0 15
      vertex 3.5418241026128396 1.8588926881750742 15
    endloop
  endfacet
  facet normal 0 0 1
    outer loop
      vertex 0 0 5.3
      vertex 4 0 5.3
      vertex 0 3.912292285321701 5.3
    endloop
  endfacet
  facet normal 0 0 -1
    outer loop
      vertex 0 0 5.5
      vertex 2.272258986924623 3.291935463574626 5.5
      vertex 3.5418241026128396 1.8588926881750742 5.5
    endloop
  endfacet
  facet normal 0 0 -1
    outer loop
      vertex 0 0 5.5
      vertex 0.48214672102129197 3.970835496392216 5.5
      vertex 2.272258986924623 3.291935463574626 5.5
    endloop
  endfacet
  facet normal 0 0 -1
    outer loop
      vertex 0 0 5.5
      vertex 3.5418241026128396 1.8588926881750742 5.5
      vertex 4 0 5.5
    endloop
  endfacet
  facet normal 0 0 1
    outer loop
      vertex 2.2722589869246246 -3.2919354635746245 15
      vertex 2.272258986924623 3.291935463574626 15
      vertex 0.48214672102129197 3.970835496392216 15
    endloop
  endfacet
  facet normal 0.3546048870425355 0.9350162426854149 0
    outer loop
      vertex 0.48214672102129197 3.970835496392216 5.5
      vertex 2.272258986924623 3.291935463574626 15
      vertex 2.272258986924623 3.291935463574626 5.5
    endloop
  endfacet
  facet normal 0.3546048870425355 0.9350162426854149 0
    outer loop
      vertex 0.48214672102129197 3.970835496392216 5.5
      vertex 0.48214672102129197 3.970835496392216 15
      vertex 2.272258986924623 3.291935463574626 15
    endloop
  endfacet
  facet normal 0.748510748171101 0.6631226582407952 0
    outer loop
      vertex 3.5418241026128396 1.8588926881750742 5.5
      vertex 2.272258986924623 3.291935463574626 5.5
      vertex 3.5418241026128396 1.8588926881750742 15
    endloop
  endfacet
  facet normal 0.970941817426052 0.23931566428755768 0
    outer loop
      vertex 4 0 5.5
      vertex 3.5418241026128396 1.8588926881750742 5.5
      vertex 4 0 15
    endloop
  endfacet
  facet normal 0 0 1
    outer loop
      vertex 3.54182410261284 -1.8588926881750734 15
      vertex 3.5418241026128396 1.8588926881750742 15
      vertex 2.272258986924623 3.291935463574626 15
    endloop
  endfacet
  facet normal 0.970941817426052 0.23931566428755768 0
    outer loop
      vertex 3.5418241026128396 1.8588926881750742 5.5
      vertex 3.5418241026128396 1.8588926881750742 15
      vertex 4 0 15
    endloop
  endfacet
  facet normal 0.748510748171101 0.6631226582407952 0
    outer loop
      vertex 3.5418241026128396 1.8588926881750742 15
      vertex 2.272258986924623 3.291935463574626 5.5
      vertex 2.272258986924623 3.291935463574626 15
    endloop
  endfacet
  facet normal 0 0 -1
    outer loop
      vertex 0 13 0
      vertex 0.48214672102129197 3.970835496392216 0
      vertex 0 3.912292285321701 0
    endloop
  endfacet
  facet normal -1 0 0
    outer loop
      vertex 0 13 0
      vertex 0 3.912292285321701 0
      vertex 0 3.912292285321701 5.3
    endloop
  endfacet
  facet normal -1 0 0
    outer loop
      vertex 0 13 0
      vertex 0 3.912292285321701 5.3
      vertex 0 13 5.3
    endloop
  endfacet
  facet normal 0 0 1
    outer loop
      vertex 0 13 5.3
      vertex 0 3.912292285321701 5.3
      vertex 4 0 5.3
    endloop
  endfacet
  facet normal 0 0 -1
    outer loop
      vertex 0 13 0
      vertex 13 13 0
      vertex 0.48214672102129197 3.970835496392216 0
    endloop
  endfacet
  facet normal 0 1 0
    outer loop
      vertex 0 13 0
      vertex 0 13 5.3
      vertex 13 13 0
    endloop
  endfacet
  facet normal 0 -1 0
    outer loop
      vertex 13 0 5.3
      vertex 4 0 5.3
      vertex 4 0 0
    endloop
  endfacet
  facet normal 0 0 1
    outer loop
      vertex 0 13 5.3
      vertex 4 0 5.3
      vertex 13 0 5.3
    endloop
  endfacet
  facet normal 0 0 -1
    outer loop
      vertex 13 0 0
      vertex 4 0 0
      vertex 3.5418241026128396 1.8588926881750742 0
    endloop
  endfacet
  facet normal 0 -1 0
    outer loop
      vertex 13 0 0
      vertex 13 0 5.3
      vertex 4 0 0
    endloop
  endfacet
  facet normal 1 0 0
    outer loop
      vertex 13 0 0
      vertex 13 13 0
      vertex 13 0 5.3
    endloop
  endfacet
  facet normal 0 0 -1
    outer loop
      vertex 13 13 0
      vertex 3.5418241026128396 1.8588926881750742 0
      vertex 2.272258986924623 3.291935463574626 0
    endloop
  endfacet
  facet normal 0 0 -1
    outer loop
      vertex 13 13 0
      vertex 2.272258986924623 3.291935463574626 0
      vertex 0.48214672102129197 3.970835496392216 0
    endloop
  endfacet
  facet normal 0 0 1
    outer loop
      vertex 0 13 5.3
      vertex 13 0 5.3
      vertex 13 13 5.3
    endloop
  endfacet
  facet normal 0 1 0
    outer loop
      vertex 0 13 5.3
      vertex 13 13 5.3
      vertex 13 13 0
    endloop
  endfacet
  facet normal 0 0 -1
    outer loop
      vertex 13 0 0
      vertex 3.5418241026128396 1.8588926881750742 0
      vertex 13 13 0
    endloop
  endfacet
  facet normal 1 0 0
    outer loop
      vertex 13 0 5.3
      vertex 13 13 0
      vertex 13 13 5.3
    endloop
  endfacet
endsolid OpenSCAD_Model
