solid OpenSCAD_Model
  facet normal 1 0 0
    outer loop
      vertex -3.883767269704208 0 0
      vertex -3.883767269704208 0.9572626571502305 0
      vertex -3.883767269704208 0 2
    endloop
  endfacet
  facet normal 1 0 0
    outer loop
      vertex -3.883767269704208 0.9572626571502305 0
      vertex -3.883767269704208 0.9572626571502305 2
      vertex -3.883767269704208 0 2
    endloop
  endfacet
  facet normal 0.8854560256532099 -0.4647231720437685 0
    outer loop
      vertex -3.883767269704208 0.9572626571502305 0
      vertex -2.994042992684404 2.652490632963181 2
      vertex -3.883767269704208 0.9572626571502305 2
    endloop
  endfacet
  facet normal 0.8854560256532099 -0.4647231720437685 0
    outer loop
      vertex -3.883767269704208 0.9572626571502305 0
      vertex -2.994042992684404 2.652490632963181 0
      vertex -2.994042992684404 2.652490632963181 2
    endloop
  endfacet
  facet normal 0.5680647467311559 -0.8229838658936564 0
    outer loop
      vertex -2.994042992684404 2.652490632963181 0
      vertex -1.4184195481701427 3.7400649707416593 0
      vertex -2.994042992684404 2.652490632963181 2
    endloop
  endfacet
  facet normal 0.5680647467311559 -0.8229838658936564 0
    outer loop
      vertex -1.4184195481701427 3.7400649707416593 0
      vertex -1.4184195481701427 3.7400649707416593 2
      vertex -2.994042992684404 2.652490632963181 2
    endloop
  endfacet
  facet normal 0.120536680255323 -0.9927088740980541 0
    outer loop
      vertex -1.4184195481701427 3.7400649707416593 0
      vertex 0.48214672102129197 3.970835496392216 0
      vertex -1.4184195481701427 3.7400649707416593 2
    endloop
  endfacet
  facet normal 0.120536680255323 -0.9927088740980541 0
    outer loop
      vertex -1.4184195481701427 3.7400649707416593 2
      vertex 0.48214672102129197 3.970835496392216 0
      vertex 0.48214672102129197 3.970835496392216 2
    endloop
  endfacet
  facet normal -0.9709418174260519 -0.2393156642875577 0
    outer loop
      vertex 3.5418241026128396 1.8588926881750742 0
      vertex 4 0 0
      vertex 4 0 2
    endloop
  endfacet
  facet normal -0.9709418174260519 -0.2393156642875577 0
    outer loop
      vertex 3.5418241026128396 1.8588926881750742 0
      vertex 4 0 2
      vertex 3.5418241026128396 1.8588926881750742 2
    endloop
  endfacet
  facet normal -0.3546048870425355 -0.9350162426854149 0
    outer loop
      vertex 2.272258986924623 3.291935463574626 0
      vertex 0.48214672102129197 3.970835496392216 2
      vertex 0.48214672102129197 3.970835496392216 0
    endloop
  endfacet
  facet normal -0.7485107481711011 -0.6631226582407953 0
    outer loop
      vertex 2.272258986924623 3.291935463574626 0
      vertex 3.5418241026128396 1.8588926881750742 0
      vertex 3.5418241026128396 1.8588926881750742 2
    endloop
  endfacet
  facet normal -0.7485107481711011 -0.6631226582407953 0
    outer loop
      vertex 2.272258986924623 3.291935463574626 0
      vertex 3.5418241026128396 1.8588926881750742 2
      vertex 2.272258986924623 3.291935463574626 2
    endloop
  endfacet
  facet normal -0.3546048870425355 -0.9350162426854149 0
    outer loop
      vertex 2.272258986924623 3.291935463574626 0
      vertex 2.272258986924623 3.291935463574626 2
      vertex 0.48214672102129197 3.970835496392216 2
    endloop
  endfacet
  facet normal -0.9238795325112868 0.3826834323650898 0
    outer loop
      vertex -2.3 0 0
      vertex -2.3 0 2
      vertex -1.6263455967290592 1.6263455967290592 2
    endloop
  endfacet
  facet normal -0.9238795325112868 0.3826834323650898 0
    outer loop
      vertex -2.3 0 0
      vertex -1.6263455967290592 1.6263455967290592 2
      vertex -1.6263455967290592 1.6263455967290592 0
    endloop
  endfacet
  facet normal -0.3826834323650898 0.9238795325112868 0
    outer loop
      vertex -1.6263455967290592 1.6263455967290592 0
      vertex -1.6263455967290592 1.6263455967290592 2
      vertex 0 2.3 0
    endloop
  endfacet
  facet normal -0.3826834323650898 0.9238795325112868 0
    outer loop
      vertex -1.6263455967290592 1.6263455967290592 2
      vertex 0 2.3 2
      vertex 0 2.3 0
    endloop
  endfacet
  facet normal 0.3826834323650898 0.9238795325112868 0
    outer loop
      vertex 1.6263455967290592 1.6263455967290592 0
      vertex 0 2.3 2
      vertex 1.6263455967290592 1.6263455967290592 2
    endloop
  endfacet
  facet normal 0.9238795325112868 0.3826834323650898 0
    outer loop
      vertex 2.3 0 0
      vertex 1.6263455967290592 1.6263455967290592 0
      vertex 2.3 0 2
    endloop
  endfacet
  facet normal 0.9238795325112868 0.3826834323650898 0
    outer loop
      vertex 1.6263455967290592 1.6263455967290592 0
      vertex 1.6263455967290592 1.6263455967290592 2
      vertex 2.3 0 2
    endloop
  endfacet
  facet normal 0.3826834323650898 0.9238795325112868 0
    outer loop
      vertex 0 2.3 0
      vertex 0 2.3 2
      vertex 1.6263455967290592 1.6263455967290592 0
    endloop
  endfacet
  facet normal 0.8854560256532097 0.46472317204376873 0
    outer loop
      vertex -2.994042992684404 9.34750936703682 0
      vertex -3.883767269704208 11.042737342849769 2
      vertex -2.994042992684404 9.34750936703682 2
    endloop
  endfacet
  facet normal 0.5680647467311563 0.8229838658936562 0
    outer loop
      vertex -2.994042992684404 9.34750936703682 0
      vertex -1.4184195481701427 8.25993502925834 2
      vertex -1.4184195481701427 8.25993502925834 0
    endloop
  endfacet
  facet normal 0.5680647467311563 0.8229838658936562 0
    outer loop
      vertex -2.994042992684404 9.34750936703682 0
      vertex -2.994042992684404 9.34750936703682 2
      vertex -1.4184195481701427 8.25993502925834 2
    endloop
  endfacet
  facet normal 0.12053668025532259 0.992708874098054 0
    outer loop
      vertex -1.4184195481701427 8.25993502925834 0
      vertex 0.482146721021291 8.029164503607785 2
      vertex 0.482146721021291 8.029164503607785 0
    endloop
  endfacet
  facet normal 0.12053668025532259 0.992708874098054 0
    outer loop
      vertex -1.4184195481701427 8.25993502925834 0
      vertex -1.4184195481701427 8.25993502925834 2
      vertex 0.482146721021291 8.029164503607785 2
    endloop
  endfacet
  facet normal 0.8854560256532097 0.46472317204376873 0
    outer loop
      vertex -3.883767269704208 11.042737342849769 0
      vertex -3.883767269704208 11.042737342849769 2
      vertex -2.994042992684404 9.34750936703682 0
    endloop
  endfacet
  facet normal 1 0 0
    outer loop
      vertex -3.883767269704208 11.042737342849769 0
      vertex -3.883767269704208 12.957262657150231 2
      vertex -3.883767269704208 11.042737342849769 2
    endloop
  endfacet
  facet normal 1 0 0
    outer loop
      vertex -3.883767269704208 11.042737342849769 0
      vertex -3.883767269704208 12.957262657150231 0
      vertex -3.883767269704208 12.957262657150231 2
    endloop
  endfacet
  facet normal 0.8854560256532097 -0.46472317204376873 0
    outer loop
      vertex -3.883767269704208 12.957262657150231 0
      vertex -2.994042992684404 14.65249063296318 2
      vertex -3.883767269704208 12.957262657150231 2
    endloop
  endfacet
  facet normal -0.35460488704253545 0.9350162426854149 0
    outer loop
      vertex 0.482146721021291 8.029164503607785 0
      vertex 0.482146721021291 8.029164503607785 2
      vertex 2.2722589869246246 8.708064536425375 2
    endloop
  endfacet
  facet normal -0.35460488704253545 0.9350162426854149 0
    outer loop
      vertex 0.482146721021291 8.029164503607785 0
      vertex 2.2722589869246246 8.708064536425375 2
      vertex 2.2722589869246246 8.708064536425375 0
    endloop
  endfacet
  facet normal -0.7485107481711013 0.6631226582407951 0
    outer loop
      vertex 2.2722589869246246 8.708064536425375 0
      vertex 2.2722589869246246 8.708064536425375 2
      vertex 3.54182410261284 10.141107311824927 0
    endloop
  endfacet
  facet normal -0.7485107481711013 0.6631226582407951 0
    outer loop
      vertex 3.54182410261284 10.141107311824927 0
      vertex 2.2722589869246246 8.708064536425375 2
      vertex 3.54182410261284 10.141107311824927 2
    endloop
  endfacet
  facet normal -0.970941817426052 0.23931566428755763 0
    outer loop
      vertex 3.54182410261284 10.141107311824927 0
      vertex 3.54182410261284 10.141107311824927 2
      vertex 4 12 0
    endloop
  endfacet
  facet normal -0.970941817426052 0.23931566428755763 0
    outer loop
      vertex 4 12 0
      vertex 3.54182410261284 10.141107311824927 2
      vertex 4 12 2
    endloop
  endfacet
  facet normal -0.9709418174260521 -0.23931566428755763 0
    outer loop
      vertex 4 12 0
      vertex 4 12 2
      vertex 3.5418241026128396 13.858892688175075 0
    endloop
  endfacet
  facet normal -0.9709418174260521 -0.23931566428755763 0
    outer loop
      vertex 3.5418241026128396 13.858892688175075 0
      vertex 4 12 2
      vertex 3.5418241026128396 13.858892688175075 2
    endloop
  endfacet
  facet normal 0.8854560256532097 -0.46472317204376873 0
    outer loop
      vertex -3.883767269704208 12.957262657150231 0
      vertex -2.994042992684404 14.65249063296318 0
      vertex -2.994042992684404 14.65249063296318 2
    endloop
  endfacet
  facet normal 0.5680647467311563 -0.8229838658936562 0
    outer loop
      vertex -2.994042992684404 14.65249063296318 0
      vertex -1.4184195481701427 15.74006497074166 0
      vertex -2.994042992684404 14.65249063296318 2
    endloop
  endfacet
  facet normal 0.5680647467311563 -0.8229838658936562 0
    outer loop
      vertex -2.994042992684404 14.65249063296318 2
      vertex -1.4184195481701427 15.74006497074166 0
      vertex -1.4184195481701427 15.74006497074166 2
    endloop
  endfacet
  facet normal 0.12053668025532253 -0.9927088740980541 0
    outer loop
      vertex -1.4184195481701427 15.74006497074166 0
      vertex 0.48214672102129197 15.970835496392215 0
      vertex -1.4184195481701427 15.74006497074166 2
    endloop
  endfacet
  facet normal 0.12053668025532253 -0.9927088740980541 0
    outer loop
      vertex -1.4184195481701427 15.74006497074166 2
      vertex 0.48214672102129197 15.970835496392215 0
      vertex 0.48214672102129197 15.970835496392215 2
    endloop
  endfacet
  facet normal -0.3546048870425351 -0.935016242685415 0
    outer loop
      vertex 0.48214672102129197 15.970835496392215 0
      vertex 2.272258986924623 15.291935463574626 0
      vertex 0.48214672102129197 15.970835496392215 2
    endloop
  endfacet
  facet normal -0.7485107481711009 -0.6631226582407954 0
    outer loop
      vertex 3.5418241026128396 13.858892688175075 0
      vertex 3.5418241026128396 13.858892688175075 2
      vertex 2.272258986924623 15.291935463574626 0
    endloop
  endfacet
  facet normal -0.7485107481711009 -0.6631226582407954 0
    outer loop
      vertex 3.5418241026128396 13.858892688175075 2
      vertex 2.272258986924623 15.291935463574626 2
      vertex 2.272258986924623 15.291935463574626 0
    endloop
  endfacet
  facet normal -0.3546048870425351 -0.935016242685415 0
    outer loop
      vertex 2.272258986924623 15.291935463574626 0
      vertex 2.272258986924623 15.291935463574626 2
      vertex 0.48214672102129197 15.970835496392215 2
    endloop
  endfacet
  facet normal -0.38268343236508995 -0.9238795325112866 0
    outer loop
      vertex -1.6263455967290592 10.37365440327094 0
      vertex 0 9.7 0
      vertex 0 9.7 2
    endloop
  endfacet
  facet normal -0.9238795325112868 -0.38268343236508967 0
    outer loop
      vertex -1.6263455967290592 10.37365440327094 0
      vertex -1.6263455967290592 10.37365440327094 2
      vertex -2.3 12 2
    endloop
  endfacet
  facet normal -0.9238795325112868 -0.38268343236508967 0
    outer loop
      vertex -1.6263455967290592 10.37365440327094 0
      vertex -2.3 12 2
      vertex -2.3 12 0
    endloop
  endfacet
  facet normal -0.38268343236508995 -0.9238795325112866 0
    outer loop
      vertex -1.6263455967290592 10.37365440327094 0
      vertex 0 9.7 2
      vertex -1.6263455967290592 10.37365440327094 2
    endloop
  endfacet
  facet normal -0.9238795325112868 0.38268343236508967 0
    outer loop
      vertex -2.3 12 0
      vertex -2.3 12 2
      vertex -1.6263455967290592 13.62634559672906 2
    endloop
  endfacet
  facet normal -0.9238795325112868 0.38268343236508967 0
    outer loop
      vertex -2.3 12 0
      vertex -1.6263455967290592 13.62634559672906 2
      vertex -1.6263455967290592 13.62634559672906 0
    endloop
  endfacet
  facet normal -0.38268343236508995 0.9238795325112866 0
    outer loop
      vertex -1.6263455967290592 13.62634559672906 0
      vertex -1.6263455967290592 13.62634559672906 2
      vertex 0 14.3 0
    endloop
  endfacet
  facet normal 0.38268343236508995 -0.9238795325112866 0
    outer loop
      vertex 0 9.7 0
      vertex 1.6263455967290592 10.37365440327094 2
      vertex 0 9.7 2
    endloop
  endfacet
  facet normal 0.38268343236508995 -0.9238795325112866 0
    outer loop
      vertex 0 9.7 0
      vertex 1.6263455967290592 10.37365440327094 0
      vertex 1.6263455967290592 10.37365440327094 2
    endloop
  endfacet
  facet normal 0.9238795325112868 -0.38268343236508967 0
    outer loop
      vertex 1.6263455967290592 10.37365440327094 0
      vertex 2.3 12 0
      vertex 1.6263455967290592 10.37365440327094 2
    endloop
  endfacet
  facet normal 0.9238795325112868 -0.38268343236508967 0
    outer loop
      vertex 2.3 12 0
      vertex 2.3 12 2
      vertex 1.6263455967290592 10.37365440327094 2
    endloop
  endfacet
  facet normal 0.38268343236508995 0.9238795325112866 0
    outer loop
      vertex 1.6263455967290592 13.62634559672906 0
      vertex 0 14.3 2
      vertex 1.6263455967290592 13.62634559672906 2
    endloop
  endfacet
  facet normal 0.9238795325112868 0.38268343236508967 0
    outer loop
      vertex 2.3 12 0
      vertex 1.6263455967290592 13.62634559672906 0
      vertex 2.3 12 2
    endloop
  endfacet
  facet normal 0.9238795325112868 0.38268343236508967 0
    outer loop
      vertex 1.6263455967290592 13.62634559672906 0
      vertex 1.6263455967290592 13.62634559672906 2
      vertex 2.3 12 2
    endloop
  endfacet
  facet normal -0.38268343236508995 0.9238795325112866 0
    outer loop
      vertex -1.6263455967290592 13.62634559672906 2
      vertex 0 14.3 2
      vertex 0 14.3 0
    endloop
  endfacet
  facet normal 0.38268343236508995 0.9238795325112866 0
    outer loop
      vertex 0 14.3 0
      vertex 0 14.3 2
      vertex 1.6263455967290592 13.62634559672906 0
    endloop
  endfacet
  facet normal 0.2748694918074665 0.5142446495871912 -0.8124033498481233
    outer loop
      vertex 23.333289300941193 5.505591163092364 0
      vertex 24.111087627168637 6.669648620315927 1
      vertex 23.85194970290473 5.22836140246614 0
    endloop
  endfacet
  facet normal 0.1692637973136428 0.5579879605103627 -0.8124033498481232
    outer loop
      vertex 23.85194970290473 5.22836140246614 0
      vertex 24.387706508215857 6.521792747981941 1
      vertex 24.414729033951616 5.057644158790309 0
    endloop
  endfacet
  facet normal 0.057153390013287945 0.5802881070343737 -0.8124033498481232
    outer loop
      vertex 25 5 0
      vertex 24.414729033951616 5.057644158790309 0
      vertex 24.687855484774193 6.430743551354832 1
    endloop
  endfacet
  facet normal 0.16926379731364297 0.5579879605103625 -0.8124033498481231
    outer loop
      vertex 24.414729033951616 5.057644158790309 0
      vertex 24.387706508215857 6.521792747981941 1
      vertex 24.687855484774193 6.430743551354832 1
    endloop
  endfacet
  facet normal 0.05715339001328754 0.5802881070343736 -0.8124033498481232
    outer loop
      vertex 25 5 0
      vertex 24.687855484774193 6.430743551354832 1
      vertex 25 6.4 1
    endloop
  endfacet
  facet normal 0.45073920517210636 0.369912105879715 -0.8124033498481233
    outer loop
      vertex 22.878679656440358 5.878679656440357 0
      vertex 22.505591163092365 6.3332893009411935 0
      vertex 23.66964862031593 7.1110876271686365 1
    endloop
  endfacet
  facet normal 0.3699121058797161 0.450739205172106 -0.812403349848123
    outer loop
      vertex 23.333289300941193 5.505591163092364 0
      vertex 22.878679656440358 5.878679656440357 0
      vertex 23.868629150101523 6.8686291501015235 1
    endloop
  endfacet
  facet normal 0.5142446495871922 0.27486949180746567 -0.812403349848123
    outer loop
      vertex 22.505591163092365 6.3332893009411935 0
      vertex 22.228361402466142 6.851949702904731 0
      vertex 23.52179274798194 7.387706508215857 1
    endloop
  endfacet
  facet normal 0.5142446495871897 0.27486949180746834 -0.8124033498481236
    outer loop
      vertex 22.505591163092365 6.3332893009411935 0
      vertex 23.52179274798194 7.387706508215857 1
      vertex 23.66964862031593 7.1110876271686365 1
    endloop
  endfacet
  facet normal 0.5579879605103631 0.16926379731364374 -0.8124033498481227
    outer loop
      vertex 22.228361402466142 6.851949702904731 0
      vertex 22.05764415879031 7.414729033951615 0
      vertex 23.43074355135483 7.687855484774195 1
    endloop
  endfacet
  facet normal 0.5802881070343742 0.05715339001328967 -0.812403349848123
    outer loop
      vertex 22.05764415879031 7.414729033951615 0
      vertex 22 8 0
      vertex 23.4 8 1
    endloop
  endfacet
  facet normal 0.5579879605103623 0.1692637973136452 -0.8124033498481229
    outer loop
      vertex 22.228361402466142 6.851949702904731 0
      vertex 23.43074355135483 7.687855484774195 1
      vertex 23.52179274798194 7.387706508215857 1
    endloop
  endfacet
  facet normal 0.5802881070343746 0.05715339001328797 -0.8124033498481226
    outer loop
      vertex 22.05764415879031 7.414729033951615 0
      vertex 23.4 8 1
      vertex 23.43074355135483 7.687855484774195 1
    endloop
  endfacet
  facet normal 0.3699121058797143 0.450739205172107 -0.8124033498481235
    outer loop
      vertex 23.333289300941193 5.505591163092364 0
      vertex 23.868629150101523 6.8686291501015235 1
      vertex 24.111087627168637 6.669648620315927 1
    endloop
  endfacet
  facet normal 0.27486949180743164 0.5142446495872018 -0.8124033498481283
    outer loop
      vertex 23.85194970290473 5.22836140246614 0
      vertex 24.193516195619335 6.625589632558547 1
      vertex 24.2 6.614359353944899 0.9950850637480798
    endloop
  endfacet
  facet normal 0.2748694918074362 0.5142446495872028 -0.8124033498481261
    outer loop
      vertex 23.85194970290473 5.22836140246614 0
      vertex 24.2 6.614359353944899 0.9950850637480798
      vertex 24.214526569133206 6.614359353944899 1
    endloop
  endfacet
  facet normal 0.2748694918074689 0.51424464958719 -0.812403349848123
    outer loop
      vertex 23.85194970290473 5.22836140246614 0
      vertex 24.214526569133206 6.614359353944899 1
      vertex 24.387706508215857 6.521792747981941 1
    endloop
  endfacet
  facet normal 0.27486949180746734 0.5142446495871908 -0.812403349848123
    outer loop
      vertex 23.85194970290473 5.22836140246614 0
      vertex 24.111087627168637 6.669648620315927 1
      vertex 24.193516195619335 6.625589632558547 1
    endloop
  endfacet
  facet normal 0.45073920517210936 0.3699121058797126 -0.8124033498481228
    outer loop
      vertex 22.878679656440358 5.878679656440357 0
      vertex 23.66964862031593 7.1110876271686365 1
      vertex 23.868629150101523 6.8686291501015235 1
    endloop
  endfacet
  facet normal 0 0 -1
    outer loop
      vertex 24.387706508215857 6.521792747981941 1
      vertex 24.214526569133206 6.614359353944899 1
      vertex 24.687855484774193 6.430743551354832 1
    endloop
  endfacet
  facet normal 0 0 -1
    outer loop
      vertex 24.214526569133206 6.614359353944899 1
      vertex 25 6.4 1
      vertex 24.687855484774193 6.430743551354832 1
    endloop
  endfacet
  facet normal 0 0 -1
    outer loop
      vertex 24.214526569133206 6.614359353944899 1
      vertex 25.312144515225807 6.430743551354832 1
      vertex 25 6.4 1
    endloop
  endfacet
  facet normal 0 0 -1
    outer loop
      vertex 23.868629150101523 6.8686291501015235 1
      vertex 23.4 8 1
      vertex 24.111087627168637 6.669648620315927 1
    endloop
  endfacet
  facet normal 0 0 -1
    outer loop
      vertex 23.66964862031593 7.1110876271686365 1
      vertex 23.52179274798194 7.387706508215857 1
      vertex 23.4 8 1
    endloop
  endfacet
  facet normal 0 0 -1
    outer loop
      vertex 23.868629150101523 6.8686291501015235 1
      vertex 23.66964862031593 7.1110876271686365 1
      vertex 23.4 8 1
    endloop
  endfacet
  facet normal 0 0 -1
    outer loop
      vertex 23.4 8 1
      vertex 24.193516195619335 6.625589632558547 1
      vertex 24.111087627168637 6.669648620315927 1
    endloop
  endfacet
  facet normal 0 0 -1
    outer loop
      vertex 23.52179274798194 7.387706508215857 1
      vertex 23.43074355135483 7.687855484774195 1
      vertex 23.4 8 1
    endloop
  endfacet
  facet normal 0.5802881070343741 -0.05715339001328974 -0.8124033498481229
    outer loop
      vertex 22 8 0
      vertex 22.05764415879031 8.585270966048384 0
      vertex 23.4 8 1
    endloop
  endfacet
  facet normal 0.5579879605103633 -0.16926379731364352 -0.8124033498481226
    outer loop
      vertex 22.05764415879031 8.585270966048384 0
      vertex 22.228361402466142 9.148050297095269 0
      vertex 23.43074355135483 8.312144515225805 1
    endloop
  endfacet
  facet normal 0.5802881070343746 -0.05715339001328797 -0.8124033498481226
    outer loop
      vertex 22.05764415879031 8.585270966048384 0
      vertex 23.43074355135483 8.312144515225805 1
      vertex 23.4 8 1
    endloop
  endfacet
  facet normal 0.5579879605103623 -0.1692637973136452 -0.8124033498481229
    outer loop
      vertex 22.228361402466142 9.148050297095269 0
      vertex 23.52179274798194 8.612293491784143 1
      vertex 23.43074355135483 8.312144515225805 1
    endloop
  endfacet
  facet normal 0.5142446495871923 -0.2748694918074653 -0.8124033498481229
    outer loop
      vertex 22.228361402466142 9.148050297095269 0
      vertex 22.505591163092365 9.666710699058807 0
      vertex 23.52179274798194 8.612293491784143 1
    endloop
  endfacet
  facet normal 0.5142446495871897 -0.27486949180746834 -0.8124033498481233
    outer loop
      vertex 22.505591163092365 9.666710699058807 0
      vertex 23.66964862031593 8.888912372831363 1
      vertex 23.52179274798194 8.612293491784143 1
    endloop
  endfacet
  facet normal 0.4507392051721057 -0.3699121058797159 -0.8124033498481235
    outer loop
      vertex 22.505591163092365 9.666710699058807 0
      vertex 22.878679656440358 10.121320343559642 0
      vertex 23.66964862031593 8.888912372831363 1
    endloop
  endfacet
  facet normal 0.3699121058797161 -0.450739205172106 -0.812403349848123
    outer loop
      vertex 23.868629150101523 9.131370849898476 1
      vertex 22.878679656440358 10.121320343559642 0
      vertex 23.333289300941193 10.494408836907635 0
    endloop
  endfacet
  facet normal 0 0 -1
    outer loop
      vertex 23.4 8 1
      vertex 23.43074355135483 8.312144515225805 1
      vertex 24.193516195619335 9.374410367441453 1
    endloop
  endfacet
  facet normal 0 0 -1
    outer loop
      vertex 23.43074355135483 8.312144515225805 1
      vertex 23.52179274798194 8.612293491784143 1
      vertex 24.193516195619335 9.374410367441453 1
    endloop
  endfacet
  facet normal 0 0 -1
    outer loop
      vertex 23.52179274798194 8.612293491784143 1
      vertex 23.66964862031593 8.888912372831363 1
      vertex 24.193516195619335 9.374410367441453 1
    endloop
  endfacet
  facet normal 0.45073920517210864 -0.3699121058797134 -0.8124033498481228
    outer loop
      vertex 23.66964862031593 8.888912372831363 1
      vertex 22.878679656440358 10.121320343559642 0
      vertex 23.868629150101523 9.131370849898476 1
    endloop
  endfacet
  facet normal 0.3699121058797154 -0.45073920517210636 -0.8124033498481231
    outer loop
      vertex 23.868629150101523 9.131370849898476 1
      vertex 23.333289300941193 10.494408836907635 0
      vertex 24.111087627168637 9.330351379684073 1
    endloop
  endfacet
  facet normal 0.27486949180746256 -0.5142446495871923 -0.8124033498481239
    outer loop
      vertex 24.111087627168637 9.330351379684073 1
      vertex 23.85194970290473 10.77163859753386 0
      vertex 24.193516195619335 9.374410367441453 1
    endloop
  endfacet
  facet normal 0.2748694918074843 -0.514244649587185 -0.812403349848121
    outer loop
      vertex 24.2 9.385640646055101 0.9950850637480798
      vertex 24.193516195619335 9.374410367441453 1
      vertex 23.85194970290473 10.77163859753386 0
    endloop
  endfacet
  facet normal 0.2748694918074317 -0.5142446495872028 -0.8124033498481276
    outer loop
      vertex 24.2 9.385640646055101 0.9950850637480798
      vertex 23.85194970290473 10.77163859753386 0
      vertex 24.214526569133206 9.385640646055101 1
    endloop
  endfacet
  facet normal 0.2748694918074689 -0.51424464958719 -0.8124033498481232
    outer loop
      vertex 24.214526569133206 9.385640646055101 1
      vertex 23.85194970290473 10.77163859753386 0
      vertex 24.387706508215857 9.47820725201806 1
    endloop
  endfacet
  facet normal 0.16926379731364297 -0.5579879605103625 -0.8124033498481231
    outer loop
      vertex 24.387706508215857 9.47820725201806 1
      vertex 24.414729033951616 10.942355841209691 0
      vertex 24.687855484774193 9.569256448645168 1
    endloop
  endfacet
  facet normal 0 0 -1
    outer loop
      vertex 23.66964862031593 8.888912372831363 1
      vertex 23.868629150101523 9.131370849898476 1
      vertex 24.193516195619335 9.374410367441453 1
    endloop
  endfacet
  facet normal 0 0 -1
    outer loop
      vertex 23.868629150101523 9.131370849898476 1
      vertex 24.111087627168637 9.330351379684073 1
      vertex 24.193516195619335 9.374410367441453 1
    endloop
  endfacet
  facet normal 0 0 -1
    outer loop
      vertex 24.214526569133206 9.385640646055101 1
      vertex 24.387706508215857 9.47820725201806 1
      vertex 25.785473430866794 9.385640646055101 1
    endloop
  endfacet
  facet normal 0 0 -1
    outer loop
      vertex 24.387706508215857 9.47820725201806 1
      vertex 24.687855484774193 9.569256448645168 1
      vertex 25.785473430866794 9.385640646055101 1
    endloop
  endfacet
  facet normal 0.2748694918074673 -0.514244649587191 -0.8124033498481232
    outer loop
      vertex 24.111087627168637 9.330351379684073 1
      vertex 23.333289300941193 10.494408836907635 0
      vertex 23.85194970290473 10.77163859753386 0
    endloop
  endfacet
  facet normal 0.16926379731364277 -0.5579879605103626 -0.8124033498481232
    outer loop
      vertex 24.387706508215857 9.47820725201806 1
      vertex 23.85194970290473 10.77163859753386 0
      vertex 24.414729033951616 10.942355841209691 0
    endloop
  endfacet
  facet normal 0.057153390013287945 -0.5802881070343737 -0.8124033498481232
    outer loop
      vertex 24.687855484774193 9.569256448645168 1
      vertex 24.414729033951616 10.942355841209691 0
      vertex 25 11 0
    endloop
  endfacet
  facet normal 0.05715339001328754 -0.5802881070343736 -0.8124033498481232
    outer loop
      vertex 24.687855484774193 9.569256448645168 1
      vertex 25 11 0
      vertex 25 9.6 1
    endloop
  endfacet
  facet normal -0.057153390013287945 0.5802881070343737 -0.8124033498481233
    outer loop
      vertex 25 5 0
      vertex 25 6.4 1
      vertex 25.585270966048384 5.057644158790309 0
    endloop
  endfacet
  facet normal -0.05715339001328756 0.5802881070343737 -0.8124033498481232
    outer loop
      vertex 25.585270966048384 5.057644158790309 0
      vertex 25 6.4 1
      vertex 25.312144515225807 6.430743551354832 1
    endloop
  endfacet
  facet normal -0.16926379731364297 0.5579879605103625 -0.8124033498481231
    outer loop
      vertex 25.585270966048384 5.057644158790309 0
      vertex 25.312144515225807 6.430743551354832 1
      vertex 25.612293491784143 6.521792747981941 1
    endloop
  endfacet
  facet normal -0.16926379731364277 0.5579879605103626 -0.8124033498481232
    outer loop
      vertex 25.585270966048384 5.057644158790309 0
      vertex 25.612293491784143 6.521792747981941 1
      vertex 26.14805029709527 5.22836140246614 0
    endloop
  endfacet
  facet normal -0.2748694918074665 0.5142446495871912 -0.8124033498481233
    outer loop
      vertex 26.14805029709527 5.22836140246614 0
      vertex 25.888912372831363 6.669648620315927 1
      vertex 26.666710699058807 5.505591163092364 0
    endloop
  endfacet
  facet normal -0.2748694918074689 0.51424464958719 -0.812403349848123
    outer loop
      vertex 26.14805029709527 5.22836140246614 0
      vertex 25.612293491784143 6.521792747981941 1
      vertex 25.785473430866794 6.614359353944899 1
    endloop
  endfacet
  facet normal -0.2748694918074362 0.5142446495872028 -0.8124033498481261
    outer loop
      vertex 26.14805029709527 5.22836140246614 0
      vertex 25.785473430866794 6.614359353944899 1
      vertex 25.8 6.614359353944899 0.9950850637480798
    endloop
  endfacet
  facet normal -0.27486949180743164 0.5142446495872018 -0.8124033498481283
    outer loop
      vertex 26.14805029709527 5.22836140246614 0
      vertex 25.8 6.614359353944899 0.9950850637480798
      vertex 25.806483804380665 6.625589632558547 1
    endloop
  endfacet
  facet normal -0.27486949180746734 0.5142446495871908 -0.812403349848123
    outer loop
      vertex 26.14805029709527 5.22836140246614 0
      vertex 25.806483804380665 6.625589632558547 1
      vertex 25.888912372831363 6.669648620315927 1
    endloop
  endfacet
  facet normal -0.3699121058797143 0.450739205172107 -0.8124033498481235
    outer loop
      vertex 26.666710699058807 5.505591163092364 0
      vertex 25.888912372831363 6.669648620315927 1
      vertex 26.131370849898477 6.8686291501015235 1
    endloop
  endfacet
  facet normal -0.45073920517210936 0.3699121058797126 -0.8124033498481228
    outer loop
      vertex 27.121320343559642 5.878679656440357 0
      vertex 26.131370849898477 6.8686291501015235 1
      vertex 26.33035137968407 7.1110876271686365 1
    endloop
  endfacet
  facet normal 0 0 -1
    outer loop
      vertex 24.214526569133206 6.614359353944899 1
      vertex 25.612293491784143 6.521792747981941 1
      vertex 25.312144515225807 6.430743551354832 1
    endloop
  endfacet
  facet normal 0 0 -1
    outer loop
      vertex 24.214526569133206 6.614359353944899 1
      vertex 25.785473430866794 6.614359353944899 1
      vertex 25.612293491784143 6.521792747981941 1
    endloop
  endfacet
  facet normal 0 0 -1
    outer loop
      vertex 25.806483804380665 6.625589632558547 1
      vertex 26.131370849898477 6.8686291501015235 1
      vertex 25.888912372831363 6.669648620315927 1
    endloop
  endfacet
  facet normal 0 0 -1
    outer loop
      vertex 25.806483804380665 6.625589632558547 1
      vertex 26.33035137968407 7.1110876271686365 1
      vertex 26.131370849898477 6.8686291501015235 1
    endloop
  endfacet
  facet normal 0 0 -1
    outer loop
      vertex 25.806483804380665 6.625589632558547 1
      vertex 26.47820725201806 7.387706508215857 1
      vertex 26.33035137968407 7.1110876271686365 1
    endloop
  endfacet
  facet normal 0 0 -1
    outer loop
      vertex 25.806483804380665 6.625589632558547 1
      vertex 26.56925644864517 7.687855484774195 1
      vertex 26.47820725201806 7.387706508215857 1
    endloop
  endfacet
  facet normal 0 0 -1
    outer loop
      vertex 25.806483804380665 6.625589632558547 1
      vertex 26.6 8 1
      vertex 26.56925644864517 7.687855484774195 1
    endloop
  endfacet
  facet normal -0.3699121058797161 0.450739205172106 -0.812403349848123
    outer loop
      vertex 26.666710699058807 5.505591163092364 0
      vertex 26.131370849898477 6.8686291501015235 1
      vertex 27.121320343559642 5.878679656440357 0
    endloop
  endfacet
  facet normal -0.45073920517210636 0.369912105879715 -0.8124033498481233
    outer loop
      vertex 27.121320343559642 5.878679656440357 0
      vertex 26.33035137968407 7.1110876271686365 1
      vertex 27.494408836907635 6.3332893009411935 0
    endloop
  endfacet
  facet normal -0.5142446495871922 0.27486949180746567 -0.812403349848123
    outer loop
      vertex 27.494408836907635 6.3332893009411935 0
      vertex 26.47820725201806 7.387706508215857 1
      vertex 27.771638597533858 6.851949702904731 0
    endloop
  endfacet
  facet normal -0.5142446495871897 0.27486949180746834 -0.8124033498481233
    outer loop
      vertex 26.33035137968407 7.1110876271686365 1
      vertex 26.47820725201806 7.387706508215857 1
      vertex 27.494408836907635 6.3332893009411935 0
    endloop
  endfacet
  facet normal -0.5579879605103624 0.16926379731364521 -0.812403349848123
    outer loop
      vertex 26.47820725201806 7.387706508215857 1
      vertex 26.56925644864517 7.687855484774195 1
      vertex 27.771638597533858 6.851949702904731 0
    endloop
  endfacet
  facet normal -0.5802881070343746 0.05715339001328797 -0.8124033498481226
    outer loop
      vertex 26.56925644864517 7.687855484774195 1
      vertex 26.6 8 1
      vertex 27.94235584120969 7.414729033951615 0
    endloop
  endfacet
  facet normal -0.5579879605103631 0.16926379731364374 -0.8124033498481227
    outer loop
      vertex 26.56925644864517 7.687855484774195 1
      vertex 27.94235584120969 7.414729033951615 0
      vertex 27.771638597533858 6.851949702904731 0
    endloop
  endfacet
  facet normal -0.5802881070343742 0.05715339001328967 -0.812403349848123
    outer loop
      vertex 26.6 8 1
      vertex 28 8 0
      vertex 27.94235584120969 7.414729033951615 0
    endloop
  endfacet
  facet normal 0 0 -1
    outer loop
      vertex 26.6 8 1
      vertex 26.47820725201806 8.612293491784143 1
      vertex 26.56925644864517 8.312144515225805 1
    endloop
  endfacet
  facet normal 0 0 -1
    outer loop
      vertex 26.6 8 1
      vertex 26.33035137968407 8.888912372831363 1
      vertex 26.47820725201806 8.612293491784143 1
    endloop
  endfacet
  facet normal 0 0 -1
    outer loop
      vertex 26.6 8 1
      vertex 25.806483804380665 9.374410367441453 1
      vertex 25.888912372831363 9.330351379684073 1
    endloop
  endfacet
  facet normal 0 0 -1
    outer loop
      vertex 26.6 8 1
      vertex 26.131370849898477 9.131370849898476 1
      vertex 26.33035137968407 8.888912372831363 1
    endloop
  endfacet
  facet normal 0 0 -1
    outer loop
      vertex 26.6 8 1
      vertex 25.888912372831363 9.330351379684073 1
      vertex 26.131370849898477 9.131370849898476 1
    endloop
  endfacet
  facet normal -0.16926379731364297 -0.5579879605103625 -0.8124033498481231
    outer loop
      vertex 25.612293491784143 9.47820725201806 1
      vertex 25.312144515225807 9.569256448645168 1
      vertex 25.585270966048384 10.942355841209691 0
    endloop
  endfacet
  facet normal -0.45073920517210864 -0.3699121058797134 -0.8124033498481228
    outer loop
      vertex 26.33035137968407 8.888912372831363 1
      vertex 26.131370849898477 9.131370849898476 1
      vertex 27.121320343559642 10.121320343559642 0
    endloop
  endfacet
  facet normal -0.2748694918074689 -0.51424464958719 -0.8124033498481232
    outer loop
      vertex 25.612293491784143 9.47820725201806 1
      vertex 26.14805029709527 10.77163859753386 0
      vertex 25.785473430866794 9.385640646055101 1
    endloop
  endfacet
  facet normal -0.2748694918074843 -0.514244649587185 -0.812403349848121
    outer loop
      vertex 25.8 9.385640646055101 0.9950850637480798
      vertex 26.14805029709527 10.77163859753386 0
      vertex 25.806483804380665 9.374410367441453 1
    endloop
  endfacet
  facet normal -0.27486949180746256 -0.5142446495871923 -0.8124033498481239
    outer loop
      vertex 25.806483804380665 9.374410367441453 1
      vertex 26.14805029709527 10.77163859753386 0
      vertex 25.888912372831363 9.330351379684073 1
    endloop
  endfacet
  facet normal -0.2748694918074317 -0.5142446495872028 -0.8124033498481276
    outer loop
      vertex 25.8 9.385640646055101 0.9950850637480798
      vertex 25.785473430866794 9.385640646055101 1
      vertex 26.14805029709527 10.77163859753386 0
    endloop
  endfacet
  facet normal -0.3699121058797154 -0.45073920517210636 -0.8124033498481231
    outer loop
      vertex 26.131370849898477 9.131370849898476 1
      vertex 25.888912372831363 9.330351379684073 1
      vertex 26.666710699058807 10.494408836907635 0
    endloop
  endfacet
  facet normal 0 0 -1
    outer loop
      vertex 24.687855484774193 9.569256448645168 1
      vertex 25 9.6 1
      vertex 25.785473430866794 9.385640646055101 1
    endloop
  endfacet
  facet normal 0 0 -1
    outer loop
      vertex 25 9.6 1
      vertex 25.312144515225807 9.569256448645168 1
      vertex 25.785473430866794 9.385640646055101 1
    endloop
  endfacet
  facet normal 0 0 -1
    outer loop
      vertex 25.612293491784143 9.47820725201806 1
      vertex 25.785473430866794 9.385640646055101 1
      vertex 25.312144515225807 9.569256448645168 1
    endloop
  endfacet
  facet normal -0.5802881070343746 -0.05715339001328797 -0.8124033498481226
    outer loop
      vertex 26.6 8 1
      vertex 26.56925644864517 8.312144515225805 1
      vertex 27.94235584120969 8.585270966048384 0
    endloop
  endfacet
  facet normal -0.5579879605103624 -0.16926379731364521 -0.812403349848123
    outer loop
      vertex 26.56925644864517 8.312144515225805 1
      vertex 26.47820725201806 8.612293491784143 1
      vertex 27.771638597533858 9.148050297095269 0
    endloop
  endfacet
  facet normal -0.5802881070343741 -0.05715339001328974 -0.8124033498481229
    outer loop
      vertex 26.6 8 1
      vertex 27.94235584120969 8.585270966048384 0
      vertex 28 8 0
    endloop
  endfacet
  facet normal -0.5579879605103633 -0.16926379731364352 -0.8124033498481226
    outer loop
      vertex 26.56925644864517 8.312144515225805 1
      vertex 27.771638597533858 9.148050297095269 0
      vertex 27.94235584120969 8.585270966048384 0
    endloop
  endfacet
  facet normal -0.5142446495871924 -0.27486949180746534 -0.8124033498481229
    outer loop
      vertex 26.47820725201806 8.612293491784143 1
      vertex 27.494408836907635 9.666710699058807 0
      vertex 27.771638597533858 9.148050297095269 0
    endloop
  endfacet
  facet normal -0.5142446495871897 -0.27486949180746834 -0.8124033498481236
    outer loop
      vertex 26.33035137968407 8.888912372831363 1
      vertex 27.494408836907635 9.666710699058807 0
      vertex 26.47820725201806 8.612293491784143 1
    endloop
  endfacet
  facet normal -0.3699121058797161 -0.450739205172106 -0.812403349848123
    outer loop
      vertex 26.131370849898477 9.131370849898476 1
      vertex 26.666710699058807 10.494408836907635 0
      vertex 27.121320343559642 10.121320343559642 0
    endloop
  endfacet
  facet normal -0.4507392051721057 -0.3699121058797159 -0.8124033498481235
    outer loop
      vertex 26.33035137968407 8.888912372831363 1
      vertex 27.121320343559642 10.121320343559642 0
      vertex 27.494408836907635 9.666710699058807 0
    endloop
  endfacet
  facet normal -0.057153390013287945 -0.5802881070343737 -0.8124033498481232
    outer loop
      vertex 25.312144515225807 9.569256448645168 1
      vertex 25 11 0
      vertex 25.585270966048384 10.942355841209691 0
    endloop
  endfacet
  facet normal -0.05715339001328754 -0.5802881070343736 -0.8124033498481232
    outer loop
      vertex 25 9.6 1
      vertex 25 11 0
      vertex 25.312144515225807 9.569256448645168 1
    endloop
  endfacet
  facet normal -0.16926379731364277 -0.5579879605103626 -0.8124033498481232
    outer loop
      vertex 25.612293491784143 9.47820725201806 1
      vertex 25.585270966048384 10.942355841209691 0
      vertex 26.14805029709527 10.77163859753386 0
    endloop
  endfacet
  facet normal -0.2748694918074673 -0.514244649587191 -0.8124033498481232
    outer loop
      vertex 25.888912372831363 9.330351379684073 1
      vertex 26.14805029709527 10.77163859753386 0
      vertex 26.666710699058807 10.494408836907635 0
    endloop
  endfacet
  facet normal 0.5802881070343742 -0.05715339001328967 -0.812403349848123
    outer loop
      vertex 22 0 0
      vertex 22.05764415879031 0.5852709660483848 0
      vertex 23.4 0 1
    endloop
  endfacet
  facet normal 0.5579879605103631 -0.16926379731364363 -0.8124033498481227
    outer loop
      vertex 22.05764415879031 0.5852709660483848 0
      vertex 22.228361402466142 1.1480502970952693 0
      vertex 23.43074355135483 0.3121445152258052 1
    endloop
  endfacet
  facet normal 0.5802881070343747 -0.05715339001328796 -0.8124033498481228
    outer loop
      vertex 22.05764415879031 0.5852709660483848 0
      vertex 23.43074355135483 0.3121445152258052 1
      vertex 23.4 0 1
    endloop
  endfacet
  facet normal 0.5579879605103624 -0.16926379731364508 -0.8124033498481228
    outer loop
      vertex 22.228361402466142 1.1480502970952693 0
      vertex 23.52179274798194 0.6122934917841437 1
      vertex 23.43074355135483 0.3121445152258052 1
    endloop
  endfacet
  facet normal 0.5142446495871921 -0.2748694918074659 -0.812403349848123
    outer loop
      vertex 22.228361402466142 1.1480502970952693 0
      vertex 22.505591163092365 1.6667106990588065 0
      vertex 23.52179274798194 0.6122934917841437 1
    endloop
  endfacet
  facet normal 0.5142446495871896 -0.27486949180746867 -0.8124033498481233
    outer loop
      vertex 22.505591163092365 1.6667106990588065 0
      vertex 23.66964862031593 0.8889123728313635 1
      vertex 23.52179274798194 0.6122934917841437 1
    endloop
  endfacet
  facet normal 0.45073920517210647 -0.36991210587971507 -0.8124033498481235
    outer loop
      vertex 22.505591163092365 1.6667106990588065 0
      vertex 22.878679656440358 2.121320343559643 0
      vertex 23.66964862031593 0.8889123728313635 1
    endloop
  endfacet
  facet normal 0.3699121058797161 -0.450739205172106 -0.8124033498481231
    outer loop
      vertex 23.868629150101523 1.1313708498984762 1
      vertex 22.878679656440358 2.121320343559643 0
      vertex 23.333289300941193 2.4944088369076356 0
    endloop
  endfacet
  facet normal 0 0 -1
    outer loop
      vertex 23.4 0 1
      vertex 23.43074355135483 0.3121445152258052 1
      vertex 24.193516195619335 1.3744103674414532 1
    endloop
  endfacet
  facet normal 0 0 -1
    outer loop
      vertex 23.43074355135483 0.3121445152258052 1
      vertex 23.52179274798194 0.6122934917841437 1
      vertex 24.193516195619335 1.3744103674414532 1
    endloop
  endfacet
  facet normal 0 0 -1
    outer loop
      vertex 23.52179274798194 0.6122934917841437 1
      vertex 23.66964862031593 0.8889123728313635 1
      vertex 24.193516195619335 1.3744103674414532 1
    endloop
  endfacet
  facet normal 0.45073920517210914 -0.3699121058797128 -0.8124033498481228
    outer loop
      vertex 23.66964862031593 0.8889123728313635 1
      vertex 22.878679656440358 2.121320343559643 0
      vertex 23.868629150101523 1.1313708498984762 1
    endloop
  endfacet
  facet normal 0.36991210587971396 -0.45073920517210714 -0.8124033498481235
    outer loop
      vertex 23.868629150101523 1.1313708498984762 1
      vertex 23.333289300941193 2.4944088369076356 0
      vertex 24.111087627168637 1.3303513796840725 1
    endloop
  endfacet
  facet normal 0.2748694918074685 -0.5142446495871904 -0.812403349848123
    outer loop
      vertex 24.111087627168637 1.3303513796840725 1
      vertex 23.85194970290473 2.77163859753386 0
      vertex 24.193516195619335 1.3744103674414532 1
    endloop
  endfacet
  facet normal 0.2748694918074727 -0.514244649587189 -0.8124033498481223
    outer loop
      vertex 24.2 1.3856406460551018 0.9950850637480798
      vertex 24.193516195619335 1.3744103674414532 1
      vertex 23.85194970290473 2.77163859753386 0
    endloop
  endfacet
  facet normal 0.2748694918074317 -0.5142446495872031 -0.8124033498481276
    outer loop
      vertex 24.2 1.3856406460551018 0.9950850637480798
      vertex 23.85194970290473 2.77163859753386 0
      vertex 24.214526569133206 1.3856406460551018 1
    endloop
  endfacet
  facet normal 0.2748694918074673 -0.5142446495871906 -0.8124033498481233
    outer loop
      vertex 24.214526569133206 1.3856406460551018 1
      vertex 23.85194970290473 2.77163859753386 0
      vertex 24.387706508215857 1.478207252018059 1
    endloop
  endfacet
  facet normal 0.16926379731364416 -0.5579879605103624 -0.812403349848123
    outer loop
      vertex 24.387706508215857 1.478207252018059 1
      vertex 24.414729033951616 2.9423558412096913 0
      vertex 24.687855484774193 1.5692564486451688 1
    endloop
  endfacet
  facet normal 0 0 -1
    outer loop
      vertex 23.66964862031593 0.8889123728313635 1
      vertex 23.868629150101523 1.1313708498984762 1
      vertex 24.193516195619335 1.3744103674414532 1
    endloop
  endfacet
  facet normal 0 0 -1
    outer loop
      vertex 23.868629150101523 1.1313708498984762 1
      vertex 24.111087627168637 1.3303513796840725 1
      vertex 24.193516195619335 1.3744103674414532 1
    endloop
  endfacet
  facet normal 0 0 -1
    outer loop
      vertex 24.214526569133206 1.3856406460551018 1
      vertex 24.387706508215857 1.478207252018059 1
      vertex 25.785473430866794 1.3856406460551018 1
    endloop
  endfacet
  facet normal 0 0 -1
    outer loop
      vertex 24.387706508215857 1.478207252018059 1
      vertex 24.687855484774193 1.5692564486451688 1
      vertex 25.785473430866794 1.3856406460551018 1
    endloop
  endfacet
  facet normal 0.27486949180746645 -0.5142446495871911 -0.8124033498481233
    outer loop
      vertex 24.111087627168637 1.3303513796840725 1
      vertex 23.333289300941193 2.4944088369076356 0
      vertex 23.85194970290473 2.77163859753386 0
    endloop
  endfacet
  facet normal 0.16926379731364277 -0.5579879605103626 -0.8124033498481233
    outer loop
      vertex 24.387706508215857 1.478207252018059 1
      vertex 23.85194970290473 2.77163859753386 0
      vertex 24.414729033951616 2.9423558412096913 0
    endloop
  endfacet
  facet normal 0.05715339001328796 -0.5802881070343738 -0.8124033498481232
    outer loop
      vertex 24.687855484774193 1.5692564486451688 1
      vertex 24.414729033951616 2.9423558412096913 0
      vertex 25 3 0
    endloop
  endfacet
  facet normal 0.05715339001328756 -0.5802881070343737 -0.8124033498481232
    outer loop
      vertex 24.687855484774193 1.5692564486451688 1
      vertex 25 3 0
      vertex 25 1.6 1
    endloop
  endfacet
  facet normal 0 0 -1
    outer loop
      vertex 26.6 0 1
      vertex 26.47820725201806 0.6122934917841437 1
      vertex 26.56925644864517 0.3121445152258052 1
    endloop
  endfacet
  facet normal 0 0 -1
    outer loop
      vertex 26.6 0 1
      vertex 26.33035137968407 0.8889123728313635 1
      vertex 26.47820725201806 0.6122934917841437 1
    endloop
  endfacet
  facet normal 0 0 -1
    outer loop
      vertex 26.6 0 1
      vertex 25.806483804380665 1.3744103674414532 1
      vertex 25.888912372831363 1.3303513796840725 1
    endloop
  endfacet
  facet normal 0 0 -1
    outer loop
      vertex 26.6 0 1
      vertex 26.131370849898477 1.1313708498984762 1
      vertex 26.33035137968407 0.8889123728313635 1
    endloop
  endfacet
  facet normal 0 0 -1
    outer loop
      vertex 26.6 0 1
      vertex 25.888912372831363 1.3303513796840725 1
      vertex 26.131370849898477 1.1313708498984762 1
    endloop
  endfacet
  facet normal -0.16926379731364416 -0.5579879605103624 -0.812403349848123
    outer loop
      vertex 25.612293491784143 1.478207252018059 1
      vertex 25.312144515225807 1.5692564486451688 1
      vertex 25.585270966048384 2.9423558412096913 0
    endloop
  endfacet
  facet normal -0.45073920517210914 -0.3699121058797128 -0.8124033498481228
    outer loop
      vertex 26.33035137968407 0.8889123728313635 1
      vertex 26.131370849898477 1.1313708498984762 1
      vertex 27.121320343559642 2.121320343559643 0
    endloop
  endfacet
  facet normal -0.2748694918074673 -0.5142446495871906 -0.8124033498481233
    outer loop
      vertex 25.612293491784143 1.478207252018059 1
      vertex 26.14805029709527 2.77163859753386 0
      vertex 25.785473430866794 1.3856406460551018 1
    endloop
  endfacet
  facet normal -0.2748694918074727 -0.514244649587189 -0.8124033498481223
    outer loop
      vertex 25.8 1.3856406460551018 0.9950850637480798
      vertex 26.14805029709527 2.77163859753386 0
      vertex 25.806483804380665 1.3744103674414532 1
    endloop
  endfacet
  facet normal -0.2748694918074317 -0.5142446495872031 -0.8124033498481276
    outer loop
      vertex 25.8 1.3856406460551018 0.9950850637480798
      vertex 25.785473430866794 1.3856406460551018 1
      vertex 26.14805029709527 2.77163859753386 0
    endloop
  endfacet
  facet normal -0.2748694918074685 -0.5142446495871905 -0.812403349848123
    outer loop
      vertex 25.806483804380665 1.3744103674414532 1
      vertex 26.14805029709527 2.77163859753386 0
      vertex 25.888912372831363 1.3303513796840725 1
    endloop
  endfacet
  facet normal -0.36991210587971396 -0.45073920517210714 -0.8124033498481235
    outer loop
      vertex 26.131370849898477 1.1313708498984762 1
      vertex 25.888912372831363 1.3303513796840725 1
      vertex 26.666710699058807 2.4944088369076356 0
    endloop
  endfacet
  facet normal 0 0 -1
    outer loop
      vertex 24.687855484774193 1.5692564486451688 1
      vertex 25 1.6 1
      vertex 25.785473430866794 1.3856406460551018 1
    endloop
  endfacet
  facet normal 0 0 -1
    outer loop
      vertex 25 1.6 1
      vertex 25.312144515225807 1.5692564486451688 1
      vertex 25.785473430866794 1.3856406460551018 1
    endloop
  endfacet
  facet normal 0 0 -1
    outer loop
      vertex 25.612293491784143 1.478207252018059 1
      vertex 25.785473430866794 1.3856406460551018 1
      vertex 25.312144515225807 1.5692564486451688 1
    endloop
  endfacet
  facet normal -0.5802881070343747 -0.05715339001328796 -0.8124033498481228
    outer loop
      vertex 26.6 0 1
      vertex 26.56925644864517 0.3121445152258052 1
      vertex 27.94235584120969 0.5852709660483848 0
    endloop
  endfacet
  facet normal -0.5579879605103624 -0.16926379731364508 -0.8124033498481228
    outer loop
      vertex 26.56925644864517 0.3121445152258052 1
      vertex 26.47820725201806 0.6122934917841437 1
      vertex 27.771638597533858 1.1480502970952693 0
    endloop
  endfacet
  facet normal -0.5802881070343742 -0.05715339001328967 -0.812403349848123
    outer loop
      vertex 26.6 0 1
      vertex 27.94235584120969 0.5852709660483848 0
      vertex 28 0 0
    endloop
  endfacet
  facet normal -0.5579879605103631 -0.16926379731364363 -0.8124033498481226
    outer loop
      vertex 26.56925644864517 0.3121445152258052 1
      vertex 27.771638597533858 1.1480502970952693 0
      vertex 27.94235584120969 0.5852709660483848 0
    endloop
  endfacet
  facet normal -0.514244649587192 -0.2748694918074659 -0.8124033498481229
    outer loop
      vertex 26.47820725201806 0.6122934917841437 1
      vertex 27.494408836907635 1.6667106990588065 0
      vertex 27.771638597533858 1.1480502970952693 0
    endloop
  endfacet
  facet normal -0.5142446495871896 -0.2748694918074686 -0.8124033498481235
    outer loop
      vertex 26.33035137968407 0.8889123728313635 1
      vertex 27.494408836907635 1.6667106990588065 0
      vertex 26.47820725201806 0.6122934917841437 1
    endloop
  endfacet
  facet normal -0.3699121058797161 -0.450739205172106 -0.8124033498481231
    outer loop
      vertex 26.131370849898477 1.1313708498984762 1
      vertex 26.666710699058807 2.4944088369076356 0
      vertex 27.121320343559642 2.121320343559643 0
    endloop
  endfacet
  facet normal -0.45073920517210647 -0.36991210587971507 -0.8124033498481235
    outer loop
      vertex 26.33035137968407 0.8889123728313635 1
      vertex 27.121320343559642 2.121320343559643 0
      vertex 27.494408836907635 1.6667106990588065 0
    endloop
  endfacet
  facet normal -0.05715339001328796 -0.5802881070343738 -0.8124033498481232
    outer loop
      vertex 25.312144515225807 1.5692564486451688 1
      vertex 25 3 0
      vertex 25.585270966048384 2.9423558412096913 0
    endloop
  endfacet
  facet normal -0.05715339001328757 -0.5802881070343738 -0.8124033498481233
    outer loop
      vertex 25 1.6 1
      vertex 25 3 0
      vertex 25.312144515225807 1.5692564486451688 1
    endloop
  endfacet
  facet normal -0.16926379731364277 -0.5579879605103626 -0.8124033498481233
    outer loop
      vertex 25.612293491784143 1.478207252018059 1
      vertex 25.585270966048384 2.9423558412096913 0
      vertex 26.14805029709527 2.77163859753386 0
    endloop
  endfacet
  facet normal -0.27486949180746645 -0.5142446495871911 -0.8124033498481233
    outer loop
      vertex 25.888912372831363 1.3303513796840725 1
      vertex 26.14805029709527 2.77163859753386 0
      vertex 26.666710699058807 2.4944088369076356 0
    endloop
  endfacet
  facet normal 0 -1 0
    outer loop
      vertex 24.2 6.614359353944899 0
      vertex 24.214526569133206 6.614359353944899 1
      vertex 24.2 6.614359353944899 0.9950850637480798
    endloop
  endfacet
  facet normal -0.8660254037844265 -0.5000000000000212 0
    outer loop
      vertex 24.2 6.614359353944899 0
      vertex 24.2 6.614359353944899 0.9950850637480798
      vertex 24.193516195619335 6.625589632558547 1
    endloop
  endfacet
  facet normal 0 -1 0
    outer loop
      vertex 24.2 6.614359353944899 0
      vertex 25.8 6.614359353944899 0
      vertex 24.214526569133206 6.614359353944899 1
    endloop
  endfacet
  facet normal -0.8660254037844385 -0.5000000000000003 -2.7982365848465955e-16
    outer loop
      vertex 23.4 8 1
      vertex 24.2 6.614359353944899 0
      vertex 24.193516195619335 6.625589632558547 1
    endloop
  endfacet
  facet normal -0.8660254037844384 -0.5000000000000004 0
    outer loop
      vertex 23.4 8 0
      vertex 24.2 6.614359353944899 0
      vertex 23.4 8 1
    endloop
  endfacet
  facet normal -0.8660254037844383 0.5000000000000004 0
    outer loop
      vertex 23.4 8 0
      vertex 23.4 8 1
      vertex 24.193516195619335 9.374410367441453 1
    endloop
  endfacet
  facet normal -0.8660254037844384 0.5000000000000004 1.3877787807814457e-16
    outer loop
      vertex 23.4 8 0
      vertex 24.193516195619335 9.374410367441453 1
      vertex 24.2 9.385640646055101 0
    endloop
  endfacet
  facet normal -0.8660254037844436 0.49999999999999145 0
    outer loop
      vertex 24.2 9.385640646055101 0
      vertex 24.193516195619335 9.374410367441453 1
      vertex 24.2 9.385640646055101 0.9950850637480798
    endloop
  endfacet
  facet normal 0 1 0
    outer loop
      vertex 24.2 9.385640646055101 0
      vertex 24.2 9.385640646055101 0.9950850637480798
      vertex 24.214526569133206 9.385640646055101 1
    endloop
  endfacet
  facet normal 0 1 0
    outer loop
      vertex 24.2 9.385640646055101 0
      vertex 24.214526569133206 9.385640646055101 1
      vertex 25.785473430866794 9.385640646055101 1
    endloop
  endfacet
  facet normal 0 -1 0
    outer loop
      vertex 24.214526569133206 6.614359353944899 1
      vertex 25.8 6.614359353944899 0
      vertex 25.785473430866794 6.614359353944899 1
    endloop
  endfacet
  facet normal 0 -1 0
    outer loop
      vertex 25.8 6.614359353944899 0
      vertex 25.8 6.614359353944899 0.9950850637480798
      vertex 25.785473430866794 6.614359353944899 1
    endloop
  endfacet
  facet normal 0.8660254037844265 -0.5000000000000212 0
    outer loop
      vertex 25.8 6.614359353944899 0
      vertex 25.806483804380665 6.625589632558547 1
      vertex 25.8 6.614359353944899 0.9950850637480798
    endloop
  endfacet
  facet normal 0.8660254037844384 -0.5000000000000004 -3.1008182133085427e-16
    outer loop
      vertex 25.8 6.614359353944899 0
      vertex 26.6 8 0
      vertex 25.806483804380665 6.625589632558547 1
    endloop
  endfacet
  facet normal 0.8660254037844385 -0.5000000000000003 0
    outer loop
      vertex 25.806483804380665 6.625589632558547 1
      vertex 26.6 8 0
      vertex 26.6 8 1
    endloop
  endfacet
  facet normal 0.8660254037844384 0.5000000000000004 0
    outer loop
      vertex 26.6 8 0
      vertex 25.8 9.385640646055101 0
      vertex 26.6 8 1
    endloop
  endfacet
  facet normal 0.8660254037844383 0.5000000000000004 1.3991182924232985e-16
    outer loop
      vertex 26.6 8 1
      vertex 25.8 9.385640646055101 0
      vertex 25.806483804380665 9.374410367441453 1
    endloop
  endfacet
  facet normal 0 1 0
    outer loop
      vertex 24.2 9.385640646055101 0
      vertex 25.785473430866794 9.385640646055101 1
      vertex 25.8 9.385640646055101 0
    endloop
  endfacet
  facet normal 0 1 0
    outer loop
      vertex 25.8 9.385640646055101 0
      vertex 25.785473430866794 9.385640646055101 1
      vertex 25.8 9.385640646055101 0.9950850637480798
    endloop
  endfacet
  facet normal 0.8660254037844436 0.49999999999999145 0
    outer loop
      vertex 25.8 9.385640646055101 0
      vertex 25.8 9.385640646055101 0.9950850637480798
      vertex 25.806483804380665 9.374410367441453 1
    endloop
  endfacet
  facet normal -0.8660254037844385 0.5000000000000003 0
    outer loop
      vertex 23.4 0 0
      vertex 23.4 0 1
      vertex 24.193516195619335 1.3744103674414532 1
    endloop
  endfacet
  facet normal -0.8660254037844385 0.5000000000000003 1.3877787807814454e-16
    outer loop
      vertex 23.4 0 0
      vertex 24.193516195619335 1.3744103674414532 1
      vertex 24.2 1.3856406460551018 0
    endloop
  endfacet
  facet normal -0.8660254037844393 0.49999999999999883 0
    outer loop
      vertex 24.2 1.3856406460551018 0
      vertex 24.193516195619335 1.3744103674414532 1
      vertex 24.2 1.3856406460551018 0.9950850637480798
    endloop
  endfacet
  facet normal 0 1 0
    outer loop
      vertex 24.2 1.3856406460551018 0
      vertex 24.2 1.3856406460551018 0.9950850637480798
      vertex 24.214526569133206 1.3856406460551018 1
    endloop
  endfacet
  facet normal 0 1 0
    outer loop
      vertex 24.2 1.3856406460551018 0
      vertex 24.214526569133206 1.3856406460551018 1
      vertex 25.785473430866794 1.3856406460551018 1
    endloop
  endfacet
  facet normal 0.8660254037844385 0.5000000000000003 0
    outer loop
      vertex 26.6 0 0
      vertex 25.8 1.3856406460551018 0
      vertex 26.6 0 1
    endloop
  endfacet
  facet normal 0.8660254037844385 0.5000000000000003 1.399118292423298e-16
    outer loop
      vertex 26.6 0 1
      vertex 25.8 1.3856406460551018 0
      vertex 25.806483804380665 1.3744103674414532 1
    endloop
  endfacet
  facet normal 0 1 0
    outer loop
      vertex 24.2 1.3856406460551018 0
      vertex 25.785473430866794 1.3856406460551018 1
      vertex 25.8 1.3856406460551018 0
    endloop
  endfacet
  facet normal 0 1 0
    outer loop
      vertex 25.8 1.3856406460551018 0
      vertex 25.785473430866794 1.3856406460551018 1
      vertex 25.8 1.3856406460551018 0.9950850637480798
    endloop
  endfacet
  facet normal 0.8660254037844393 0.49999999999999883 0
    outer loop
      vertex 25.8 1.3856406460551018 0
      vertex 25.8 1.3856406460551018 0.9950850637480798
      vertex 25.806483804380665 1.3744103674414532 1
    endloop
  endfacet
  facet normal 0 -1 0
    outer loop
      vertex -12.5 0 0
      vertex -3.883767269704208 0 2
      vertex -12.5 0 2
    endloop
  endfacet
  facet normal 0 -1 0
    outer loop
      vertex -12.5 0 0
      vertex -3.883767269704208 0 0
      vertex -3.883767269704208 0 2
    endloop
  endfacet
  facet normal 0 0 -1
    outer loop
      vertex -12.5 0 0
      vertex -3.883767269704208 0.9572626571502305 0
      vertex -3.883767269704208 0 0
    endloop
  endfacet
  facet normal 0 0 -1
    outer loop
      vertex -12.5 0 0
      vertex -2.994042992684404 2.652490632963181 0
      vertex -3.883767269704208 0.9572626571502305 0
    endloop
  endfacet
  facet normal 0 0 1
    outer loop
      vertex -12.5 0 2
      vertex -3.883767269704208 0 2
      vertex -3.883767269704208 0.9572626571502305 2
    endloop
  endfacet
  facet normal 0 0 1
    outer loop
      vertex -12.5 0 2
      vertex -3.883767269704208 0.9572626571502305 2
      vertex -2.994042992684404 2.652490632963181 2
    endloop
  endfacet
  facet normal 0 -1 0
    outer loop
      vertex -2.3 0 0
      vertex -1.801937735804838 0 0
      vertex -2.3 0 2
    endloop
  endfacet
  facet normal 0 -1 0
    outer loop
      vertex -2.3 0 2
      vertex -1.801937735804838 0 0
      vertex -1.801937735804838 0 2
    endloop
  endfacet
  facet normal 0 0 -1
    outer loop
      vertex -2.3 0 0
      vertex -1.1558049312341372 0.4739411154832364 0
      vertex -1.801937735804838 0 0
    endloop
  endfacet
  facet normal 0 0 -1
    outer loop
      vertex -2.3 0 0
      vertex 0 2.3 0
      vertex -1.1558049312341372 0.4739411154832364 0
    endloop
  endfacet
  facet normal 0 0 -1
    outer loop
      vertex -2.3 0 0
      vertex -1.6263455967290592 1.6263455967290592 0
      vertex 0 2.3 0
    endloop
  endfacet
  facet normal 0 0 1
    outer loop
      vertex -2.3 0 2
      vertex -1.801937735804838 0 2
      vertex -1.801937735804838 0.8677674782351165 2
    endloop
  endfacet
  facet normal 0 0 1
    outer loop
      vertex -2.3 0 2
      vertex -1.801937735804838 0.8677674782351165 2
      vertex -1.6263455967290592 1.6263455967290592 2
    endloop
  endfacet
  facet normal 0 0 1
    outer loop
      vertex -1.6263455967290592 1.6263455967290592 2
      vertex -1.801937735804838 0.8677674782351165 2
      vertex -0.44504186791262895 1.9498558243636472 2
    endloop
  endfacet
  facet normal 0 0 1
    outer loop
      vertex -1.6263455967290592 1.6263455967290592 2
      vertex -0.44504186791262895 1.9498558243636472 2
      vertex 0 2.3 2
    endloop
  endfacet
  facet normal 0 0 -1
    outer loop
      vertex -12.5 0 0
      vertex -2.994042992684404 9.34750936703682 0
      vertex -2.994042992684404 2.652490632963181 0
    endloop
  endfacet
  facet normal 0 0 1
    outer loop
      vertex -12.5 0 2
      vertex -2.994042992684404 2.652490632963181 2
      vertex -2.994042992684404 9.34750936703682 2
    endloop
  endfacet
  facet normal 0 0 -1
    outer loop
      vertex -2.994042992684404 2.652490632963181 0
      vertex -1.4184195481701427 8.25993502925834 0
      vertex -1.4184195481701427 3.7400649707416593 0
    endloop
  endfacet
  facet normal 0 0 -1
    outer loop
      vertex -1.4184195481701427 3.7400649707416593 0
      vertex 0.482146721021291 8.029164503607785 0
      vertex 0.48214672102129197 3.970835496392216 0
    endloop
  endfacet
  facet normal 0 0 1
    outer loop
      vertex -2.994042992684404 2.652490632963181 2
      vertex -1.4184195481701427 3.7400649707416593 2
      vertex -1.4184195481701427 8.25993502925834 2
    endloop
  endfacet
  facet normal 0 0 1
    outer loop
      vertex -1.4184195481701427 3.7400649707416593 2
      vertex 0.48214672102129197 3.970835496392216 2
      vertex 0.482146721021291 8.029164503607785 2
    endloop
  endfacet
  facet normal -1 0 0
    outer loop
      vertex -12.5 0 0
      vertex -12.5 0 2
      vertex -12.5 30 2
    endloop
  endfacet
  facet normal 0 0 -1
    outer loop
      vertex -12.5 0 0
      vertex -3.883767269704208 11.042737342849769 0
      vertex -2.994042992684404 9.34750936703682 0
    endloop
  endfacet
  facet normal 0 0 1
    outer loop
      vertex -12.5 0 2
      vertex -2.994042992684404 9.34750936703682 2
      vertex -3.883767269704208 11.042737342849769 2
    endloop
  endfacet
  facet normal 0 0 1
    outer loop
      vertex -12.5 0 2
      vertex -3.883767269704208 11.042737342849769 2
      vertex -3.883767269704208 12.957262657150231 2
    endloop
  endfacet
  facet normal 0 0 -1
    outer loop
      vertex -12.5 0 0
      vertex -12.5 30 0
      vertex -3.883767269704208 11.042737342849769 0
    endloop
  endfacet
  facet normal 0 0 -1
    outer loop
      vertex -2.994042992684404 2.652490632963181 0
      vertex -2.994042992684404 9.34750936703682 0
      vertex -1.4184195481701427 8.25993502925834 0
    endloop
  endfacet
  facet normal 0 0 -1
    outer loop
      vertex -1.4184195481701427 3.7400649707416593 0
      vertex -1.4184195481701427 8.25993502925834 0
      vertex 0.482146721021291 8.029164503607785 0
    endloop
  endfacet
  facet normal 0 0 1
    outer loop
      vertex -2.994042992684404 2.652490632963181 2
      vertex -1.4184195481701427 8.25993502925834 2
      vertex -2.994042992684404 9.34750936703682 2
    endloop
  endfacet
  facet normal 0 0 1
    outer loop
      vertex -1.4184195481701427 3.7400649707416593 2
      vertex 0.482146721021291 8.029164503607785 2
      vertex -1.4184195481701427 8.25993502925834 2
    endloop
  endfacet
  facet normal 0 0 -1
    outer loop
      vertex -1.6263455967290592 10.37365440327094 0
      vertex -2.3 12 0
      vertex 2.3 12 0
    endloop
  endfacet
  facet normal 0 0 1
    outer loop
      vertex -1.6263455967290592 10.37365440327094 2
      vertex 1.6263455967290592 10.37365440327094 2
      vertex -2.3 12 2
    endloop
  endfacet
  facet normal 0 0 -1
    outer loop
      vertex -2.3 12 0
      vertex -1.6263455967290592 13.62634559672906 0
      vertex 2.3 12 0
    endloop
  endfacet
  facet normal 0 0 1
    outer loop
      vertex -2.3 12 2
      vertex 0 14.3 2
      vertex -1.6263455967290592 13.62634559672906 2
    endloop
  endfacet
  facet normal 0 0 1
    outer loop
      vertex -2.3 12 2
      vertex 1.6263455967290592 13.62634559672906 2
      vertex 0 14.3 2
    endloop
  endfacet
  facet normal 0 -1 0
    outer loop
      vertex 2.3 0 0
      vertex 2 0 2
      vertex 2 0 0
    endloop
  endfacet
  facet normal 0 -1 0
    outer loop
      vertex 2.3 0 0
      vertex 2.3 0 2
      vertex 2 0 2
    endloop
  endfacet
  facet normal 0 0 -1
    outer loop
      vertex 0 2.3 0
      vertex 1.246979603717467 1.469207057320521 0
      vertex -1.1558049312341372 0.4739411154832364 0
    endloop
  endfacet
  facet normal 0 0 -1
    outer loop
      vertex 0 2.3 0
      vertex 1.6263455967290592 1.6263455967290592 0
      vertex 1.246979603717467 1.469207057320521 0
    endloop
  endfacet
  facet normal 0 0 -1
    outer loop
      vertex 2.3 0 0
      vertex 2 0 0
      vertex 1.6263455967290592 1.6263455967290592 0
    endloop
  endfacet
  facet normal 0 0 -1
    outer loop
      vertex 1.6263455967290592 1.6263455967290592 0
      vertex 2 0 0
      vertex 1.246979603717467 1.469207057320521 0
    endloop
  endfacet
  facet normal 0 0 1
    outer loop
      vertex 0 2.3 2
      vertex -0.44504186791262895 1.9498558243636472 2
      vertex 1.6263455967290592 1.6263455967290592 2
    endloop
  endfacet
  facet normal 0 0 1
    outer loop
      vertex 1.6263455967290592 1.6263455967290592 2
      vertex -0.44504186791262895 1.9498558243636472 2
      vertex 1.246979603717467 1.5636629649360596 2
    endloop
  endfacet
  facet normal 0 0 1
    outer loop
      vertex 2.3 0 2
      vertex 1.246979603717467 1.5636629649360596 2
      vertex 2 0 2
    endloop
  endfacet
  facet normal 0 0 1
    outer loop
      vertex 2.3 0 2
      vertex 1.6263455967290592 1.6263455967290592 2
      vertex 1.246979603717467 1.5636629649360596 2
    endloop
  endfacet
  facet normal 0 0 -1
    outer loop
      vertex 2.272258986924623 3.291935463574626 0
      vertex 2.2722589869246246 8.708064536425375 0
      vertex 3.5418241026128396 1.8588926881750742 0
    endloop
  endfacet
  facet normal 0 0 -1
    outer loop
      vertex 2.272258986924623 3.291935463574626 0
      vertex 0.48214672102129197 3.970835496392216 0
      vertex 2.2722589869246246 8.708064536425375 0
    endloop
  endfacet
  facet normal 0 0 1
    outer loop
      vertex 2.272258986924623 3.291935463574626 2
      vertex 3.5418241026128396 1.8588926881750742 2
      vertex 2.2722589869246246 8.708064536425375 2
    endloop
  endfacet
  facet normal 0 0 1
    outer loop
      vertex 2.272258986924623 3.291935463574626 2
      vertex 2.2722589869246246 8.708064536425375 2
      vertex 0.48214672102129197 3.970835496392216 2
    endloop
  endfacet
  facet normal 0 -1 0
    outer loop
      vertex 4 0 0
      vertex 12.5 0 2
      vertex 4 0 2
    endloop
  endfacet
  facet normal 0 0 -1
    outer loop
      vertex 3.5418241026128396 1.8588926881750742 0
      vertex 12.5 0 0
      vertex 4 0 0
    endloop
  endfacet
  facet normal 0 0 1
    outer loop
      vertex 3.5418241026128396 1.8588926881750742 2
      vertex 4 0 2
      vertex 12.5 0 2
    endloop
  endfacet
  facet normal 0 -1 0
    outer loop
      vertex 4 0 0
      vertex 12.5 0 0
      vertex 12.5 0 2
    endloop
  endfacet
  facet normal 0 0 -1
    outer loop
      vertex 3.5418241026128396 1.8588926881750742 0
      vertex 3.54182410261284 10.141107311824927 0
      vertex 12.5 0 0
    endloop
  endfacet
  facet normal 0 0 1
    outer loop
      vertex 3.5418241026128396 1.8588926881750742 2
      vertex 12.5 0 2
      vertex 3.54182410261284 10.141107311824927 2
    endloop
  endfacet
  facet normal 0 0 -1
    outer loop
      vertex 0.48214672102129197 3.970835496392216 0
      vertex 0.482146721021291 8.029164503607785 0
      vertex 2.2722589869246246 8.708064536425375 0
    endloop
  endfacet
  facet normal 0 0 -1
    outer loop
      vertex 3.5418241026128396 1.8588926881750742 0
      vertex 2.2722589869246246 8.708064536425375 0
      vertex 3.54182410261284 10.141107311824927 0
    endloop
  endfacet
  facet normal 0 0 1
    outer loop
      vertex 0.48214672102129197 3.970835496392216 2
      vertex 2.2722589869246246 8.708064536425375 2
      vertex 0.482146721021291 8.029164503607785 2
    endloop
  endfacet
  facet normal 0 0 1
    outer loop
      vertex 3.5418241026128396 1.8588926881750742 2
      vertex 3.54182410261284 10.141107311824927 2
      vertex 2.2722589869246246 8.708064536425375 2
    endloop
  endfacet
  facet normal 0 0 -1
    outer loop
      vertex -1.6263455967290592 10.37365440327094 0
      vertex 1.6263455967290592 10.37365440327094 0
      vertex 0 9.7 0
    endloop
  endfacet
  facet normal 0 0 -1
    outer loop
      vertex -1.6263455967290592 10.37365440327094 0
      vertex 2.3 12 0
      vertex 1.6263455967290592 10.37365440327094 0
    endloop
  endfacet
  facet normal 0 0 1
    outer loop
      vertex -1.6263455967290592 10.37365440327094 2
      vertex 0 9.7 2
      vertex 1.6263455967290592 10.37365440327094 2
    endloop
  endfacet
  facet normal 0 0 1
    outer loop
      vertex -2.3 12 2
      vertex 1.6263455967290592 10.37365440327094 2
      vertex 2.3 12 2
    endloop
  endfacet
  facet normal 0 0 -1
    outer loop
      vertex -1.6263455967290592 13.62634559672906 0
      vertex 0 14.3 0
      vertex 2.3 12 0
    endloop
  endfacet
  facet normal 0 0 -1
    outer loop
      vertex 0 14.3 0
      vertex 1.6263455967290592 13.62634559672906 0
      vertex 2.3 12 0
    endloop
  endfacet
  facet normal 0 0 1
    outer loop
      vertex -2.3 12 2
      vertex 2.3 12 2
      vertex 1.6263455967290592 13.62634559672906 2
    endloop
  endfacet
  facet normal 0 0 -1
    outer loop
      vertex 3.54182410261284 10.141107311824927 0
      vertex 4 12 0
      vertex 12.5 0 0
    endloop
  endfacet
  facet normal 0 0 -1
    outer loop
      vertex 4 12 0
      vertex 3.5418241026128396 13.858892688175075 0
      vertex 12.5 0 0
    endloop
  endfacet
  facet normal 0 0 1
    outer loop
      vertex 3.54182410261284 10.141107311824927 2
      vertex 12.5 0 2
      vertex 12.5 30 2
    endloop
  endfacet
  facet normal 0 0 1
    outer loop
      vertex -12.5 0 2
      vertex -3.883767269704208 12.957262657150231 2
      vertex -12.5 30 2
    endloop
  endfacet
  facet normal 0 0 -1
    outer loop
      vertex -3.883767269704208 11.042737342849769 0
      vertex -12.5 30 0
      vertex -3.883767269704208 12.957262657150231 0
    endloop
  endfacet
  facet normal -1 0 0
    outer loop
      vertex -12.5 0 0
      vertex -12.5 30 2
      vertex -12.5 30 0
    endloop
  endfacet
  facet normal 0 0 -1
    outer loop
      vertex -3.883767269704208 12.957262657150231 0
      vertex -12.5 30 0
      vertex -2.994042992684404 14.65249063296318 0
    endloop
  endfacet
  facet normal 0 0 1
    outer loop
      vertex -3.883767269704208 12.957262657150231 2
      vertex -2.994042992684404 14.65249063296318 2
      vertex -12.5 30 2
    endloop
  endfacet
  facet normal 0 0 -1
    outer loop
      vertex -2.994042992684404 14.65249063296318 0
      vertex -12.5 30 0
      vertex -1.4184195481701427 15.74006497074166 0
    endloop
  endfacet
  facet normal 0 0 -1
    outer loop
      vertex -12.5 30 0
      vertex 0.48214672102129197 15.970835496392215 0
      vertex -1.4184195481701427 15.74006497074166 0
    endloop
  endfacet
  facet normal 0 0 1
    outer loop
      vertex -2.994042992684404 14.65249063296318 2
      vertex -1.4184195481701427 15.74006497074166 2
      vertex -12.5 30 2
    endloop
  endfacet
  facet normal 0 0 1
    outer loop
      vertex -12.5 30 2
      vertex -1.4184195481701427 15.74006497074166 2
      vertex 0.48214672102129197 15.970835496392215 2
    endloop
  endfacet
  facet normal 0 1 0
    outer loop
      vertex -12.5 30 0
      vertex -12.5 30 2
      vertex 12.5 30 0
    endloop
  endfacet
  facet normal 0 0 -1
    outer loop
      vertex 3.5418241026128396 13.858892688175075 0
      vertex 2.272258986924623 15.291935463574626 0
      vertex 12.5 30 0
    endloop
  endfacet
  facet normal 0 0 1
    outer loop
      vertex 3.5418241026128396 13.858892688175075 2
      vertex 12.5 30 2
      vertex 2.272258986924623 15.291935463574626 2
    endloop
  endfacet
  facet normal 0 0 -1
    outer loop
      vertex 0.48214672102129197 15.970835496392215 0
      vertex 12.5 30 0
      vertex 2.272258986924623 15.291935463574626 0
    endloop
  endfacet
  facet normal 0 0 1
    outer loop
      vertex 0.48214672102129197 15.970835496392215 2
      vertex 2.272258986924623 15.291935463574626 2
      vertex 12.5 30 2
    endloop
  endfacet
  facet normal 0 0 1
    outer loop
      vertex 3.54182410261284 10.141107311824927 2
      vertex 12.5 30 2
      vertex 4 12 2
    endloop
  endfacet
  facet normal 0 0 -1
    outer loop
      vertex 3.5418241026128396 13.858892688175075 0
      vertex 12.5 30 0
      vertex 12.5 0 0
    endloop
  endfacet
  facet normal 0 0 1
    outer loop
      vertex 4 12 2
      vertex 12.5 30 2
      vertex 3.5418241026128396 13.858892688175075 2
    endloop
  endfacet
  facet normal 0 0 -1
    outer loop
      vertex -12.5 30 0
      vertex 12.5 30 0
      vertex 0.48214672102129197 15.970835496392215 0
    endloop
  endfacet
  facet normal 0 0 1
    outer loop
      vertex -12.5 30 2
      vertex 0.48214672102129197 15.970835496392215 2
      vertex 12.5 30 2
    endloop
  endfacet
  facet normal 0 1 0
    outer loop
      vertex -12.5 30 2
      vertex 12.5 30 2
      vertex 12.5 30 0
    endloop
  endfacet
  facet normal 0 -1 0
    outer loop
      vertex 23.4 0 1
      vertex 12.5 0 2
      vertex 12.5 0 0
    endloop
  endfacet
  facet normal 0 -1 0
    outer loop
      vertex 22 0 0
      vertex 23.4 0 1
      vertex 12.5 0 0
    endloop
  endfacet
  facet normal 0 0 -1
    outer loop
      vertex 22 0 0
      vertex 12.5 0 0
      vertex 22.05764415879031 0.5852709660483848 0
    endloop
  endfacet
  facet normal 0 0 -1
    outer loop
      vertex 22.05764415879031 0.5852709660483848 0
      vertex 12.5 0 0
      vertex 22.228361402466142 1.1480502970952693 0
    endloop
  endfacet
  facet normal 0 0 -1
    outer loop
      vertex 22.228361402466142 1.1480502970952693 0
      vertex 12.5 0 0
      vertex 22.505591163092365 1.6667106990588065 0
    endloop
  endfacet
  facet normal 0 0 -1
    outer loop
      vertex 22.505591163092365 1.6667106990588065 0
      vertex 12.5 0 0
      vertex 22.878679656440358 2.121320343559643 0
    endloop
  endfacet
  facet normal 0 -1 0
    outer loop
      vertex 23.4 0 0
      vertex 26.6 0 0
      vertex 23.4 0 1
    endloop
  endfacet
  facet normal 0 -1 0
    outer loop
      vertex 23.4 0 1
      vertex 37.5 0 2
      vertex 12.5 0 2
    endloop
  endfacet
  facet normal 0 0 -1
    outer loop
      vertex 23.4 0 0
      vertex 24.2 1.3856406460551018 0
      vertex 25.8 1.3856406460551018 0
    endloop
  endfacet
  facet normal 0 0 -1
    outer loop
      vertex 22.878679656440358 2.121320343559643 0
      vertex 12.5 0 0
      vertex 24.414729033951616 5.057644158790309 0
    endloop
  endfacet
  facet normal 0 0 -1
    outer loop
      vertex 23.85194970290473 5.22836140246614 0
      vertex 24.414729033951616 5.057644158790309 0
      vertex 12.5 0 0
    endloop
  endfacet
  facet normal 0 0 -1
    outer loop
      vertex 23.333289300941193 5.505591163092364 0
      vertex 23.85194970290473 5.22836140246614 0
      vertex 12.5 0 0
    endloop
  endfacet
  facet normal 0 0 -1
    outer loop
      vertex 23.333289300941193 5.505591163092364 0
      vertex 12.5 0 0
      vertex 22.878679656440358 5.878679656440357 0
    endloop
  endfacet
  facet normal 0 0 -1
    outer loop
      vertex 22.505591163092365 6.3332893009411935 0
      vertex 12.5 0 0
      vertex 22.228361402466142 6.851949702904731 0
    endloop
  endfacet
  facet normal 0 0 -1
    outer loop
      vertex 22.878679656440358 5.878679656440357 0
      vertex 12.5 0 0
      vertex 22.505591163092365 6.3332893009411935 0
    endloop
  endfacet
  facet normal 0 0 -1
    outer loop
      vertex 22.228361402466142 6.851949702904731 0
      vertex 12.5 0 0
      vertex 22.05764415879031 7.414729033951615 0
    endloop
  endfacet
  facet normal 0 0 -1
    outer loop
      vertex 22.05764415879031 7.414729033951615 0
      vertex 12.5 0 0
      vertex 22 8 0
    endloop
  endfacet
  facet normal 0 0 -1
    outer loop
      vertex 22 8 0
      vertex 12.5 0 0
      vertex 22.05764415879031 8.585270966048384 0
    endloop
  endfacet
  facet normal 0 0 -1
    outer loop
      vertex 22.05764415879031 8.585270966048384 0
      vertex 12.5 0 0
      vertex 22.228361402466142 9.148050297095269 0
    endloop
  endfacet
  facet normal 0 0 -1
    outer loop
      vertex 22.878679656440358 2.121320343559643 0
      vertex 24.414729033951616 5.057644158790309 0
      vertex 23.333289300941193 2.4944088369076356 0
    endloop
  endfacet
  facet normal 0 0 -1
    outer loop
      vertex 23.333289300941193 2.4944088369076356 0
      vertex 24.414729033951616 5.057644158790309 0
      vertex 23.85194970290473 2.77163859753386 0
    endloop
  endfacet
  facet normal 0 0 -1
    outer loop
      vertex 23.85194970290473 2.77163859753386 0
      vertex 24.414729033951616 5.057644158790309 0
      vertex 24.414729033951616 2.9423558412096913 0
    endloop
  endfacet
  facet normal 0 0 -1
    outer loop
      vertex 24.414729033951616 2.9423558412096913 0
      vertex 24.414729033951616 5.057644158790309 0
      vertex 25 3 0
    endloop
  endfacet
  facet normal 0 0 -1
    outer loop
      vertex 25 3 0
      vertex 24.414729033951616 5.057644158790309 0
      vertex 25 5 0
    endloop
  endfacet
  facet normal 0 0 -1
    outer loop
      vertex 22.228361402466142 9.148050297095269 0
      vertex 12.5 0 0
      vertex 22.505591163092365 9.666710699058807 0
    endloop
  endfacet
  facet normal 0 0 1
    outer loop
      vertex 37.5 0 2
      vertex 12.5 30 2
      vertex 12.5 0 2
    endloop
  endfacet
  facet normal 0 0 -1
    outer loop
      vertex 23.4 8 0
      vertex 24.2 9.385640646055101 0
      vertex 24.2 6.614359353944899 0
    endloop
  endfacet
  facet normal 0 0 -1
    outer loop
      vertex 24.2 6.614359353944899 0
      vertex 24.2 9.385640646055101 0
      vertex 25.8 6.614359353944899 0
    endloop
  endfacet
  facet normal 0 0 -1
    outer loop
      vertex 22.505591163092365 9.666710699058807 0
      vertex 12.5 0 0
      vertex 37.5 30 0
    endloop
  endfacet
  facet normal 0 -1 0
    outer loop
      vertex 23.4 0 1
      vertex 26.6 0 0
      vertex 26.6 0 1
    endloop
  endfacet
  facet normal 0 0 -1
    outer loop
      vertex 23.4 0 0
      vertex 25.8 1.3856406460551018 0
      vertex 26.6 0 0
    endloop
  endfacet
  facet normal 0 -1 0
    outer loop
      vertex 23.4 0 1
      vertex 26.6 0 1
      vertex 37.5 0 2
    endloop
  endfacet
  facet normal 0 -1 0
    outer loop
      vertex 26.6 0 1
      vertex 28 0 0
      vertex 37.5 0 2
    endloop
  endfacet
  facet normal 0 0 -1
    outer loop
      vertex 28 0 0
      vertex 27.94235584120969 0.5852709660483848 0
      vertex 37.5 0 0
    endloop
  endfacet
  facet normal 0 0 -1
    outer loop
      vertex 27.94235584120969 0.5852709660483848 0
      vertex 27.771638597533858 1.1480502970952693 0
      vertex 37.5 0 0
    endloop
  endfacet
  facet normal 0 0 -1
    outer loop
      vertex 27.494408836907635 1.6667106990588065 0
      vertex 37.5 0 0
      vertex 27.771638597533858 1.1480502970952693 0
    endloop
  endfacet
  facet normal 0 0 -1
    outer loop
      vertex 25 3 0
      vertex 25 5 0
      vertex 25.585270966048384 2.9423558412096913 0
    endloop
  endfacet
  facet normal 0 0 -1
    outer loop
      vertex 25.585270966048384 2.9423558412096913 0
      vertex 25.585270966048384 5.057644158790309 0
      vertex 26.14805029709527 2.77163859753386 0
    endloop
  endfacet
  facet normal 0 0 -1
    outer loop
      vertex 25 5 0
      vertex 25.585270966048384 5.057644158790309 0
      vertex 25.585270966048384 2.9423558412096913 0
    endloop
  endfacet
  facet normal 0 0 -1
    outer loop
      vertex 26.14805029709527 2.77163859753386 0
      vertex 25.585270966048384 5.057644158790309 0
      vertex 26.14805029709527 5.22836140246614 0
    endloop
  endfacet
  facet normal 0 0 -1
    outer loop
      vertex 26.14805029709527 2.77163859753386 0
      vertex 26.14805029709527 5.22836140246614 0
      vertex 26.666710699058807 5.505591163092364 0
    endloop
  endfacet
  facet normal 0 0 -1
    outer loop
      vertex 26.14805029709527 2.77163859753386 0
      vertex 26.666710699058807 5.505591163092364 0
      vertex 27.121320343559642 5.878679656440357 0
    endloop
  endfacet
  facet normal 0 0 -1
    outer loop
      vertex 26.14805029709527 2.77163859753386 0
      vertex 27.121320343559642 5.878679656440357 0
      vertex 27.494408836907635 6.3332893009411935 0
    endloop
  endfacet
  facet normal 0 0 -1
    outer loop
      vertex 26.14805029709527 2.77163859753386 0
      vertex 27.494408836907635 6.3332893009411935 0
      vertex 27.771638597533858 6.851949702904731 0
    endloop
  endfacet
  facet normal 0 -1 0
    outer loop
      vertex 28 0 0
      vertex 37.5 0 0
      vertex 37.5 0 2
    endloop
  endfacet
  facet normal 0 0 -1
    outer loop
      vertex 25.8 6.614359353944899 0
      vertex 25.8 9.385640646055101 0
      vertex 26.6 8 0
    endloop
  endfacet
  facet normal 0 0 -1
    outer loop
      vertex 24.2 9.385640646055101 0
      vertex 25.8 9.385640646055101 0
      vertex 25.8 6.614359353944899 0
    endloop
  endfacet
  facet normal 0 0 -1
    outer loop
      vertex 26.14805029709527 2.77163859753386 0
      vertex 37.5 30 0
      vertex 26.666710699058807 2.4944088369076356 0
    endloop
  endfacet
  facet normal 0 0 -1
    outer loop
      vertex 26.666710699058807 2.4944088369076356 0
      vertex 37.5 30 0
      vertex 27.121320343559642 2.121320343559643 0
    endloop
  endfacet
  facet normal 0 0 -1
    outer loop
      vertex 27.494408836907635 1.6667106990588065 0
      vertex 27.121320343559642 2.121320343559643 0
      vertex 37.5 30 0
    endloop
  endfacet
  facet normal 0 0 -1
    outer loop
      vertex 26.14805029709527 2.77163859753386 0
      vertex 27.771638597533858 6.851949702904731 0
      vertex 37.5 30 0
    endloop
  endfacet
  facet normal 1 0 0
    outer loop
      vertex 37.5 0 0
      vertex 37.5 30 0
      vertex 37.5 0 2
    endloop
  endfacet
  facet normal 0 0 -1
    outer loop
      vertex 27.494408836907635 1.6667106990588065 0
      vertex 37.5 30 0
      vertex 37.5 0 0
    endloop
  endfacet
  facet normal 0 0 -1
    outer loop
      vertex 37.5 30 0
      vertex 12.5 0 0
      vertex 12.5 30 0
    endloop
  endfacet
  facet normal 0 1 0
    outer loop
      vertex 37.5 30 0
      vertex 12.5 30 0
      vertex 12.5 30 2
    endloop
  endfacet
  facet normal 0 0 -1
    outer loop
      vertex 22.505591163092365 9.666710699058807 0
      vertex 37.5 30 0
      vertex 22.878679656440358 10.121320343559642 0
    endloop
  endfacet
  facet normal 0 0 -1
    outer loop
      vertex 22.878679656440358 10.121320343559642 0
      vertex 37.5 30 0
      vertex 23.333289300941193 10.494408836907635 0
    endloop
  endfacet
  facet normal 0 0 -1
    outer loop
      vertex 27.771638597533858 6.851949702904731 0
      vertex 27.94235584120969 7.414729033951615 0
      vertex 37.5 30 0
    endloop
  endfacet
  facet normal 0 0 -1
    outer loop
      vertex 27.94235584120969 7.414729033951615 0
      vertex 28 8 0
      vertex 37.5 30 0
    endloop
  endfacet
  facet normal 0 0 -1
    outer loop
      vertex 28 8 0
      vertex 27.94235584120969 8.585270966048384 0
      vertex 37.5 30 0
    endloop
  endfacet
  facet normal 0 0 -1
    outer loop
      vertex 27.94235584120969 8.585270966048384 0
      vertex 27.771638597533858 9.148050297095269 0
      vertex 37.5 30 0
    endloop
  endfacet
  facet normal 0 0 -1
    outer loop
      vertex 23.333289300941193 10.494408836907635 0
      vertex 37.5 30 0
      vertex 23.85194970290473 10.77163859753386 0
    endloop
  endfacet
  facet normal 0 0 -1
    outer loop
      vertex 23.85194970290473 10.77163859753386 0
      vertex 37.5 30 0
      vertex 24.414729033951616 10.942355841209691 0
    endloop
  endfacet
  facet normal 0 0 -1
    outer loop
      vertex 24.414729033951616 10.942355841209691 0
      vertex 37.5 30 0
      vertex 25 11 0
    endloop
  endfacet
  facet normal 0 0 -1
    outer loop
      vertex 25 11 0
      vertex 37.5 30 0
      vertex 25.585270966048384 10.942355841209691 0
    endloop
  endfacet
  facet normal 0 0 -1
    outer loop
      vertex 26.666710699058807 10.494408836907635 0
      vertex 37.5 30 0
      vertex 27.121320343559642 10.121320343559642 0
    endloop
  endfacet
  facet normal 0 0 -1
    outer loop
      vertex 27.494408836907635 9.666710699058807 0
      vertex 37.5 30 0
      vertex 27.771638597533858 9.148050297095269 0
    endloop
  endfacet
  facet normal 0 0 -1
    outer loop
      vertex 27.494408836907635 9.666710699058807 0
      vertex 27.121320343559642 10.121320343559642 0
      vertex 37.5 30 0
    endloop
  endfacet
  facet normal 0 0 -1
    outer loop
      vertex 25.585270966048384 10.942355841209691 0
      vertex 37.5 30 0
      vertex 26.14805029709527 10.77163859753386 0
    endloop
  endfacet
  facet normal 0 0 -1
    outer loop
      vertex 26.14805029709527 10.77163859753386 0
      vertex 37.5 30 0
      vertex 26.666710699058807 10.494408836907635 0
    endloop
  endfacet
  facet normal 0 0 1
    outer loop
      vertex 37.5 0 2
      vertex 37.5 30 2
      vertex 12.5 30 2
    endloop
  endfacet
  facet normal 1 0 0
    outer loop
      vertex 37.5 0 2
      vertex 37.5 30 0
      vertex 37.5 30 2
    endloop
  endfacet
  facet normal 0 1 0
    outer loop
      vertex 37.5 30 0
      vertex 12.5 30 2
      vertex 37.5 30 2
    endloop
  endfacet
  facet normal 0 0 -1
    outer loop
      vertex -1.801937735804838 -0.8677674782351165 0
      vertex -1.801937735804838 0 0
      vertex -1.1558049312341372 0.4739411154832364 0
    endloop
  endfacet
  facet normal -1 0 0
    outer loop
      vertex -1.801937735804838 -0.8677674782351165 0
      vertex -1.801937735804838 0 2
      vertex -1.801937735804838 0 0
    endloop
  endfacet
  facet normal 0 0 -1
    outer loop
      vertex -1.801937735804838 -0.8677674782351165 0
      vertex 1.246979603717467 1.469207057320521 0
      vertex -0.44504186791262795 -1.9498558243636475 0
    endloop
  endfacet
  facet normal 0 0 -1
    outer loop
      vertex -1.801937735804838 -0.8677674782351165 0
      vertex -1.1558049312341372 0.4739411154832364 0
      vertex 1.246979603717467 1.469207057320521 0
    endloop
  endfacet
  facet normal -1 0 0
    outer loop
      vertex -1.801937735804838 -0.8677674782351165 0
      vertex -1.801937735804838 0.8677674782351165 32
      vertex -1.801937735804838 0 2
    endloop
  endfacet
  facet normal -0.6234898018587334 -0.7818314824680299 0
    outer loop
      vertex -1.801937735804838 -0.8677674782351165 0
      vertex -0.44504186791262795 -1.9498558243636475 0
      vertex -0.44504186791262795 -1.9498558243636475 32
    endloop
  endfacet
  facet normal -1 0 0
    outer loop
      vertex -1.801937735804838 0.8677674782351165 32
      vertex -1.801937735804838 0.8677674782351165 2
      vertex -1.801937735804838 0 2
    endloop
  endfacet
  facet normal -0.6234898018587336 0.7818314824680297 0
    outer loop
      vertex -0.44504186791262895 1.9498558243636472 32
      vertex -0.44504186791262895 1.9498558243636472 2
      vertex -1.801937735804838 0.8677674782351165 2
    endloop
  endfacet
  facet normal 0 0 -1
    outer loop
      vertex -0.44504186791262795 -1.9498558243636475 0
      vertex 1.246979603717467 1.469207057320521 0
      vertex 1.2469796037174667 -1.5636629649360598 0
    endloop
  endfacet
  facet normal 0 0 -1
    outer loop
      vertex 1.2469796037174667 -1.5636629649360598 0
      vertex 1.246979603717467 1.469207057320521 0
      vertex 2 0 0
    endloop
  endfacet
  facet normal 0.22252093395631456 -0.9749279121818236 0
    outer loop
      vertex -0.44504186791262795 -1.9498558243636475 0
      vertex 1.2469796037174667 -1.5636629649360598 0
      vertex 1.2469796037174667 -1.5636629649360598 32
    endloop
  endfacet
  facet normal 0.900968867902419 -0.4338837391175582 0
    outer loop
      vertex 1.2469796037174667 -1.5636629649360598 0
      vertex 2 0 0
      vertex 1.2469796037174667 -1.5636629649360598 32
    endloop
  endfacet
  facet normal 0.9009688679024191 -0.433883739117558 0
    outer loop
      vertex 1.2469796037174667 -1.5636629649360598 32
      vertex 2 0 0
      vertex 2 0 2
    endloop
  endfacet
  facet normal 0.2225209339563144 0.9749279121818236 0
    outer loop
      vertex 1.246979603717467 1.5636629649360596 32
      vertex 1.246979603717467 1.5636629649360596 2
      vertex -0.44504186791262895 1.9498558243636472 2
    endloop
  endfacet
  facet normal 0.9009688679024191 0.43388373911755823 0
    outer loop
      vertex 2 0 32
      vertex 2 0 2
      vertex 1.246979603717467 1.5636629649360596 2
    endloop
  endfacet
  facet normal -1 0 0
    outer loop
      vertex -1.801937735804838 -0.8677674782351165 0
      vertex -1.801937735804838 -0.8677674782351165 32
      vertex -1.801937735804838 0.8677674782351165 32
    endloop
  endfacet
  facet normal -0.6234898018587334 -0.7818314824680299 0
    outer loop
      vertex -1.801937735804838 -0.8677674782351165 0
      vertex -0.44504186791262795 -1.9498558243636475 32
      vertex -1.801937735804838 -0.8677674782351165 32
    endloop
  endfacet
  facet normal -0.6234898018587336 0.7818314824680297 0
    outer loop
      vertex -1.801937735804838 0.8677674782351165 32
      vertex -0.44504186791262895 1.9498558243636472 32
      vertex -1.801937735804838 0.8677674782351165 2
    endloop
  endfacet
  facet normal 0 0 1
    outer loop
      vertex -1.801937735804838 -0.8677674782351165 32
      vertex -0.44504186791262795 -1.9498558243636475 32
      vertex -1.801937735804838 0.8677674782351165 32
    endloop
  endfacet
  facet normal 0 0 1
    outer loop
      vertex -0.44504186791262795 -1.9498558243636475 32
      vertex -0.44504186791262895 1.9498558243636472 32
      vertex -1.801937735804838 0.8677674782351165 32
    endloop
  endfacet
  facet normal 0.22252093395631456 -0.9749279121818236 0
    outer loop
      vertex -0.44504186791262795 -1.9498558243636475 0
      vertex 1.2469796037174667 -1.5636629649360598 32
      vertex -0.44504186791262795 -1.9498558243636475 32
    endloop
  endfacet
  facet normal 0.900968867902419 -0.43388373911755823 0
    outer loop
      vertex 1.2469796037174667 -1.5636629649360598 32
      vertex 2 0 2
      vertex 2 0 32
    endloop
  endfacet
  facet normal 0.9009688679024191 0.43388373911755823 0
    outer loop
      vertex 2 0 32
      vertex 1.246979603717467 1.5636629649360596 2
      vertex 1.246979603717467 1.5636629649360596 32
    endloop
  endfacet
  facet normal 0.2225209339563144 0.9749279121818236 0
    outer loop
      vertex -0.44504186791262895 1.9498558243636472 32
      vertex 1.246979603717467 1.5636629649360596 32
      vertex -0.44504186791262895 1.9498558243636472 2
    endloop
  endfacet
  facet normal 0 0 1
    outer loop
      vertex -0.44504186791262795 -1.9498558243636475 32
      vertex 1.2469796037174667 -1.5636629649360598 32
      vertex -0.44504186791262895 1.9498558243636472 32
    endloop
  endfacet
  facet normal 0 0 1
    outer loop
      vertex 1.2469796037174667 -1.5636629649360598 32
      vertex 2 0 32
      vertex 1.246979603717467 1.5636629649360596 32
    endloop
  endfacet
  facet normal 0 0 1
    outer loop
      vertex -0.44504186791262895 1.9498558243636472 32
      vertex 1.2469796037174667 -1.5636629649360598 32
      vertex 1.246979603717467 1.5636629649360596 32
    endloop
  endfacet
endsolid OpenSCAD_Model
