solid OpenSCAD_Model
  facet normal 0 0 -1
    outer loop
      vertex -32.3606797749979 -23.511410091698927 0
      vertex -31.65323878355803 -16.780558669283483 0
      vertex -29.12461179749811 -21.160269082529034 0
    endloop
  endfacet
  facet normal 0 0 -1
    outer loop
      vertex -26.76522425435433 -29.725793019095768 0
      vertex -20 -29.723829480229067 0
      vertex -20 -34.64101615137754 0
    endloop
  endfacet
  facet normal 0 0 -1
    outer loop
      vertex -32.3606797749979 -23.511410091698927 0
      vertex -26.76522425435433 -23.780634415276616 0
      vertex -26.76522425435433 -29.725793019095768 0
    endloop
  endfacet
  facet normal 0 0 -1
    outer loop
      vertex -26.76522425435433 -29.725793019095768 0
      vertex -26.205678702289973 -24.4020727080163 0
      vertex -24.088701828918897 -26.753213717186192 0
    endloop
  endfacet
  facet normal 0 0 -1
    outer loop
      vertex -32.3606797749979 -23.511410091698927 0
      vertex -29.12461179749811 -21.160269082529034 0
      vertex -26.76522425435433 -23.780634415276616 0
    endloop
  endfacet
  facet normal 0 0 -1
    outer loop
      vertex -26.76522425435433 -29.725793019095768 0
      vertex -24.088701828918897 -26.753213717186192 0
      vertex -20 -29.723829480229067 0
    endloop
  endfacet
  facet normal -0.743144825477394 -0.6691306063588585 0
    outer loop
      vertex -32.3606797749979 -23.511410091698927 6
      vertex -26.76522425435433 -29.725793019095768 6
      vertex -32.3606797749979 -23.511410091698927 100
    endloop
  endfacet
  facet normal -0.5877852522924729 -0.8090169943749476 0
    outer loop
      vertex -26.76522425435433 -29.725793019095768 6
      vertex -20 -34.64101615137754 6
      vertex -26.76522425435433 -29.725793019095768 100
    endloop
  endfacet
  facet normal 0 0 -1
    outer loop
      vertex -32.3606797749979 -23.511410091698927 0
      vertex -36.541818305704034 -16.26946572303201 0
      vertex -32.3606797749979 -15.555234928752737 0
    endloop
  endfacet
  facet normal 0 0 -1
    outer loop
      vertex -36.541818305704034 -16.26946572303201 0
      vertex -32.88763647513363 -14.642519150728807 0
      vertex -32.3606797749979 -15.555234928752737 0
    endloop
  endfacet
  facet normal 0 0 -1
    outer loop
      vertex -36.541818305704034 -16.26946572303201 0
      vertex -35.213313626417005 -7.4848208694393366 0
      vertex -32.88763647513363 -14.642519150728807 0
    endloop
  endfacet
  facet normal 0 0 -1
    outer loop
      vertex -36.541818305704034 -16.26946572303201 0
      vertex -35.41591427635181 -5.557204447297225 0
      vertex -35.213313626417005 -7.4848208694393366 0
    endloop
  endfacet
  facet normal 0 0 -1
    outer loop
      vertex -36.541818305704034 -16.26946572303201 0
      vertex -39.12590402935223 -8.316467632710374 0
      vertex -36.541818305704034 16.26946572303201 0
    endloop
  endfacet
  facet normal -0.8660254037844388 -0.4999999999999996 0
    outer loop
      vertex -32.3606797749979 -23.511410091698927 6
      vertex -36.541818305704034 -16.26946572303201 100
      vertex -36.541818305704034 -16.26946572303201 6
    endloop
  endfacet
  facet normal -0.9510565162951534 -0.30901699437494784 0
    outer loop
      vertex -36.541818305704034 -16.26946572303201 6
      vertex -39.12590402935223 -8.316467632710374 100
      vertex -39.12590402935223 -8.316467632710374 6
    endloop
  endfacet
  facet normal -0.9945218953682734 -0.10452846326765323 0
    outer loop
      vertex -39.12590402935223 -8.316467632710374 6
      vertex -40 0 100
      vertex -40 0 6
    endloop
  endfacet
  facet normal 0 0 -1
    outer loop
      vertex -20 -34.64101615137754 0
      vertex -19.519848517354784 -30.072679952255644 0
      vertex -18 -31.17691453623979 0
    endloop
  endfacet
  facet normal 0 0 -1
    outer loop
      vertex -20 -34.64101615137754 0
      vertex -18 -31.17691453623979 0
      vertex -12.360679774997896 -33.68770166605131 0
    endloop
  endfacet
  facet normal 0 0 -1
    outer loop
      vertex -20 -34.64101615137754 0
      vertex -12.360679774997896 -33.68770166605131 0
      vertex -12.360679774997896 -38.04226065180614 0
    endloop
  endfacet
  facet normal 0 0 -1
    outer loop
      vertex -12.360679774997896 -38.04226065180614 0
      vertex -11.923457197253136 -33.88236569952782 0
      vertex -11.124611797498106 -34.238034586625524 0
    endloop
  endfacet
  facet normal 0 0 -1
    outer loop
      vertex -12.360679774997896 -38.04226065180614 0
      vertex -11.124611797498106 -34.238034586625524 0
      vertex -4.181138530706139 -35.71391539026254 0
    endloop
  endfacet
  facet normal -0.20791169081775984 -0.9781476007338056 0
    outer loop
      vertex -12.360679774997896 -38.04226065180614 0
      vertex -4.181138530706139 -39.78087581473093 0
      vertex -4.181138530706139 -39.78087581473093 6
    endloop
  endfacet
  facet normal 0 0 -1
    outer loop
      vertex -12.360679774997896 -38.04226065180614 0
      vertex -4.181138530706139 -35.71391539026254 0
      vertex -4.181138530706139 -39.78087581473093 0
    endloop
  endfacet
  facet normal 0 0 -1
    outer loop
      vertex -4.181138530706139 -39.78087581473093 0
      vertex -3.763024677635525 -35.802788233257836 0
      vertex 3.763024677635525 -35.802788233257836 0
    endloop
  endfacet
  facet normal -0.4067366430758001 -0.913545457642601 0
    outer loop
      vertex -20 -34.64101615137754 6
      vertex -12.360679774997896 -38.04226065180614 6
      vertex -20 -34.64101615137754 100
    endloop
  endfacet
  facet normal -0.20791169081775987 -0.9781476007338056 0
    outer loop
      vertex -12.360679774997896 -38.04226065180614 6
      vertex -4.181138530706139 -39.78087581473093 6
      vertex -12.360679774997896 -38.04226065180614 100
    endloop
  endfacet
  facet normal 0 -1 0
    outer loop
      vertex -4.181138530706139 -39.78087581473093 6
      vertex 4.181138530706139 -39.78087581473093 6
      vertex -4.181138530706139 -39.78087581473093 100
    endloop
  endfacet
  facet normal -0.8660254037844388 -0.4999999999999996 0
    outer loop
      vertex -32.3606797749979 -23.511410091698927 6
      vertex -32.3606797749979 -23.511410091698927 100
      vertex -36.541818305704034 -16.26946572303201 100
    endloop
  endfacet
  facet normal -0.5877852522924729 -0.8090169943749476 0
    outer loop
      vertex -20 -34.64101615137754 6
      vertex -20 -34.64101615137754 100
      vertex -26.76522425435433 -29.725793019095768 100
    endloop
  endfacet
  facet normal -0.743144825477394 -0.6691306063588585 0
    outer loop
      vertex -26.76522425435433 -29.725793019095768 6
      vertex -26.76522425435433 -29.725793019095768 100
      vertex -32.3606797749979 -23.511410091698927 100
    endloop
  endfacet
  facet normal 0 0 1
    outer loop
      vertex -26.76522425435433 -29.725793019095768 100
      vertex -20 -34.64101615137754 100
      vertex -24.088701828918897 -26.753213717186192 100
    endloop
  endfacet
  facet normal 0 0 1
    outer loop
      vertex -20 -34.64101615137754 100
      vertex -18 -31.17691453623979 100
      vertex -24.088701828918897 -26.753213717186192 100
    endloop
  endfacet
  facet normal 0 0 1
    outer loop
      vertex -26.76522425435433 -29.725793019095768 100
      vertex -24.088701828918897 -26.753213717186192 100
      vertex -29.12461179749811 -21.160269082529034 100
    endloop
  endfacet
  facet normal 0 0 1
    outer loop
      vertex -32.3606797749979 -23.511410091698927 100
      vertex -26.76522425435433 -29.725793019095768 100
      vertex -29.12461179749811 -21.160269082529034 100
    endloop
  endfacet
  facet normal -0.9510565162951534 -0.30901699437494784 0
    outer loop
      vertex -36.541818305704034 -16.26946572303201 6
      vertex -36.541818305704034 -16.26946572303201 100
      vertex -39.12590402935223 -8.316467632710374 100
    endloop
  endfacet
  facet normal -0.9945218953682734 -0.10452846326765323 0
    outer loop
      vertex -39.12590402935223 -8.316467632710374 6
      vertex -39.12590402935223 -8.316467632710374 100
      vertex -40 0 100
    endloop
  endfacet
  facet normal 0 0 1
    outer loop
      vertex -32.3606797749979 -23.511410091698927 100
      vertex -35.213313626417005 -7.4848208694393366 100
      vertex -36.541818305704034 -16.26946572303201 100
    endloop
  endfacet
  facet normal 0 0 1
    outer loop
      vertex -32.3606797749979 -23.511410091698927 100
      vertex -32.88763647513363 -14.642519150728807 100
      vertex -35.213313626417005 -7.4848208694393366 100
    endloop
  endfacet
  facet normal 0 0 1
    outer loop
      vertex -32.3606797749979 -23.511410091698927 100
      vertex -29.12461179749811 -21.160269082529034 100
      vertex -32.88763647513363 -14.642519150728807 100
    endloop
  endfacet
  facet normal 0 0 1
    outer loop
      vertex -36.541818305704034 -16.26946572303201 100
      vertex -39.12590402935223 8.316467632710374 100
      vertex -39.12590402935223 -8.316467632710374 100
    endloop
  endfacet
  facet normal 0 0 1
    outer loop
      vertex -36.541818305704034 -16.26946572303201 100
      vertex -35.213313626417005 -7.4848208694393366 100
      vertex -36 0 100
    endloop
  endfacet
  facet normal -0.4067366430758001 -0.913545457642601 0
    outer loop
      vertex -12.360679774997896 -38.04226065180614 6
      vertex -12.360679774997896 -38.04226065180614 100
      vertex -20 -34.64101615137754 100
    endloop
  endfacet
  facet normal -0.20791169081775987 -0.9781476007338056 0
    outer loop
      vertex -4.181138530706139 -39.78087581473093 6
      vertex -4.181138530706139 -39.78087581473093 100
      vertex -12.360679774997896 -38.04226065180614 100
    endloop
  endfacet
  facet normal 0 0 1
    outer loop
      vertex -20 -34.64101615137754 100
      vertex -12.360679774997896 -38.04226065180614 100
      vertex -18 -31.17691453623979 100
    endloop
  endfacet
  facet normal 0 0 1
    outer loop
      vertex -12.360679774997896 -38.04226065180614 100
      vertex -11.124611797498106 -34.238034586625524 100
      vertex -18 -31.17691453623979 100
    endloop
  endfacet
  facet normal 0 0 1
    outer loop
      vertex -12.360679774997896 -38.04226065180614 100
      vertex -4.181138530706139 -39.78087581473093 100
      vertex -11.124611797498106 -34.238034586625524 100
    endloop
  endfacet
  facet normal 0 0 1
    outer loop
      vertex -4.181138530706139 -39.78087581473093 100
      vertex -3.763024677635525 -35.802788233257836 100
      vertex -11.124611797498106 -34.238034586625524 100
    endloop
  endfacet
  facet normal 0 0 1
    outer loop
      vertex -4.181138530706139 -39.78087581473093 100
      vertex 4.181138530706139 -39.78087581473093 100
      vertex -3.763024677635525 -35.802788233257836 100
    endloop
  endfacet
  facet normal 0 0 -1
    outer loop
      vertex -32.3606797749979 23.511410091698927 0
      vertex -32.88763647513363 14.642519150728807 0
      vertex -33.486583804350126 12.79914881596413 0
    endloop
  endfacet
  facet normal 0 0 -1
    outer loop
      vertex -32.3606797749979 23.511410091698927 0
      vertex -32.3606797749979 15.555234928752737 0
      vertex -32.88763647513363 14.642519150728807 0
    endloop
  endfacet
  facet normal -0.9945218953682734 0.10452846326765323 0
    outer loop
      vertex -40 0 6
      vertex -39.12590402935223 8.316467632710374 100
      vertex -39.12590402935223 8.316467632710374 6
    endloop
  endfacet
  facet normal -0.9510565162951534 0.30901699437494784 0
    outer loop
      vertex -39.12590402935223 8.316467632710374 6
      vertex -36.541818305704034 16.26946572303201 100
      vertex -36.541818305704034 16.26946572303201 6
    endloop
  endfacet
  facet normal 0 0 -1
    outer loop
      vertex -26.76522425435433 29.725793019095768 0
      vertex -26.76522425435433 23.780634415276616 0
      vertex -27.472665245794193 22.99494159668033 0
    endloop
  endfacet
  facet normal 0 0 -1
    outer loop
      vertex -20 34.64101615137754 0
      vertex -20 29.723829480229067 0
      vertex -20.559545552064357 29.317295840298076 0
    endloop
  endfacet
  facet normal -0.8660254037844388 0.4999999999999996 0
    outer loop
      vertex -36.541818305704034 16.26946572303201 6
      vertex -32.3606797749979 23.511410091698927 100
      vertex -32.3606797749979 23.511410091698927 6
    endloop
  endfacet
  facet normal -0.743144825477394 0.6691306063588585 0
    outer loop
      vertex -32.3606797749979 23.511410091698927 6
      vertex -26.76522425435433 29.725793019095768 100
      vertex -26.76522425435433 29.725793019095768 6
    endloop
  endfacet
  facet normal -0.5877852522924729 0.8090169943749476 0
    outer loop
      vertex -26.76522425435433 29.725793019095768 6
      vertex -20 34.64101615137754 100
      vertex -20 34.64101615137754 6
    endloop
  endfacet
  facet normal 0 0 -1
    outer loop
      vertex -12.360679774997896 38.04226065180614 0
      vertex -12.360679774997896 33.68770166605131 0
      vertex -12.84083125764311 33.47392445268424 0
    endloop
  endfacet
  facet normal -0.2079116908177594 0.9781476007338056 6.026241591479478e-16
    outer loop
      vertex -12.360679774997896 38.04226065180614 6
      vertex -4.671911005363644 39.67655890495544 6
      vertex -4.181138530706139 39.78087581473093 0
    endloop
  endfacet
  facet normal 0 0 -1
    outer loop
      vertex -4.181138530706139 39.78087581473093 0
      vertex -4.181138530706139 35.71391539026254 0
      vertex -4.6183611084509 35.62098086245261 0
    endloop
  endfacet
  facet normal -0.20791169081776675 0.978147600733804 0
    outer loop
      vertex -4.181138530706139 39.78087581473093 0
      vertex -4.671911005363644 39.67655890495544 6
      vertex -4.181138530706139 39.78087581473093 5.660377358490566
    endloop
  endfacet
  facet normal -0.4067366430758001 0.913545457642601 0
    outer loop
      vertex -20 34.64101615137754 6
      vertex -12.360679774997896 38.04226065180614 100
      vertex -12.360679774997896 38.04226065180614 6
    endloop
  endfacet
  facet normal -0.20791169081775943 0.9781476007338056 0
    outer loop
      vertex -12.360679774997896 38.04226065180614 6
      vertex -12.360679774997896 38.04226065180614 100
      vertex -4.671911005363644 39.67655890495544 6
    endloop
  endfacet
  facet normal -0.20791169081776675 0.9781476007338041 0
    outer loop
      vertex -4.671911005363644 39.67655890495544 6
      vertex -4.181138530706139 39.78087581473093 100
      vertex -4.181138530706139 39.78087581473093 6
    endloop
  endfacet
  facet normal 0 1 0
    outer loop
      vertex -4.181138530706139 39.78087581473093 6
      vertex -4.181138530706139 39.78087581473093 100
      vertex 3.6794019070214024 39.78087581473093 6
    endloop
  endfacet
  facet normal -0.9945218953682734 0.10452846326765323 0
    outer loop
      vertex -40 0 6
      vertex -40 0 100
      vertex -39.12590402935223 8.316467632710374 100
    endloop
  endfacet
  facet normal -0.9510565162951534 0.30901699437494784 0
    outer loop
      vertex -39.12590402935223 8.316467632710374 6
      vertex -39.12590402935223 8.316467632710374 100
      vertex -36.541818305704034 16.26946572303201 100
    endloop
  endfacet
  facet normal -0.8660254037844388 0.4999999999999996 0
    outer loop
      vertex -36.541818305704034 16.26946572303201 6
      vertex -36.541818305704034 16.26946572303201 100
      vertex -32.3606797749979 23.511410091698927 100
    endloop
  endfacet
  facet normal 0 0 1
    outer loop
      vertex -39.12590402935223 -8.316467632710374 100
      vertex -39.12590402935223 8.316467632710374 100
      vertex -40 0 100
    endloop
  endfacet
  facet normal 0 0 1
    outer loop
      vertex -36.541818305704034 -16.26946572303201 100
      vertex -36 0 100
      vertex -36.541818305704034 16.26946572303201 100
    endloop
  endfacet
  facet normal 0 0 1
    outer loop
      vertex -36.541818305704034 -16.26946572303201 100
      vertex -36.541818305704034 16.26946572303201 100
      vertex -39.12590402935223 8.316467632710374 100
    endloop
  endfacet
  facet normal 0 0 1
    outer loop
      vertex -36.541818305704034 16.26946572303201 100
      vertex -36 0 100
      vertex -35.213313626417005 7.4848208694393366 100
    endloop
  endfacet
  facet normal 0 0 1
    outer loop
      vertex -36.541818305704034 16.26946572303201 100
      vertex -35.213313626417005 7.4848208694393366 100
      vertex -32.88763647513363 14.642519150728807 100
    endloop
  endfacet
  facet normal 0 0 1
    outer loop
      vertex -36.541818305704034 16.26946572303201 100
      vertex -32.88763647513363 14.642519150728807 100
      vertex -29.12461179749811 21.160269082529034 100
    endloop
  endfacet
  facet normal -0.743144825477394 0.6691306063588585 0
    outer loop
      vertex -32.3606797749979 23.511410091698927 6
      vertex -32.3606797749979 23.511410091698927 100
      vertex -26.76522425435433 29.725793019095768 100
    endloop
  endfacet
  facet normal -0.5877852522924729 0.8090169943749476 0
    outer loop
      vertex -26.76522425435433 29.725793019095768 6
      vertex -26.76522425435433 29.725793019095768 100
      vertex -20 34.64101615137754 100
    endloop
  endfacet
  facet normal 0 0 1
    outer loop
      vertex -36.541818305704034 16.26946572303201 100
      vertex -29.12461179749811 21.160269082529034 100
      vertex -32.3606797749979 23.511410091698927 100
    endloop
  endfacet
  facet normal 0 0 1
    outer loop
      vertex -32.3606797749979 23.511410091698927 100
      vertex -29.12461179749811 21.160269082529034 100
      vertex -24.088701828918897 26.753213717186192 100
    endloop
  endfacet
  facet normal 0 0 1
    outer loop
      vertex -32.3606797749979 23.511410091698927 100
      vertex -24.088701828918897 26.753213717186192 100
      vertex -26.76522425435433 29.725793019095768 100
    endloop
  endfacet
  facet normal 0 0 1
    outer loop
      vertex -26.76522425435433 29.725793019095768 100
      vertex -24.088701828918897 26.753213717186192 100
      vertex -18 31.17691453623979 100
    endloop
  endfacet
  facet normal 0 0 1
    outer loop
      vertex -26.76522425435433 29.725793019095768 100
      vertex -18 31.17691453623979 100
      vertex -20 34.64101615137754 100
    endloop
  endfacet
  facet normal -0.4067366430758001 0.913545457642601 0
    outer loop
      vertex -20 34.64101615137754 6
      vertex -20 34.64101615137754 100
      vertex -12.360679774997896 38.04226065180614 100
    endloop
  endfacet
  facet normal -0.2079116908177599 0.9781476007338056 -3.771108995918018e-17
    outer loop
      vertex -4.671911005363644 39.67655890495544 6
      vertex -12.360679774997896 38.04226065180614 100
      vertex -4.181138530706139 39.78087581473093 100
    endloop
  endfacet
  facet normal 0 0 1
    outer loop
      vertex -20 34.64101615137754 100
      vertex -18 31.17691453623979 100
      vertex -11.124611797498106 34.238034586625524 100
    endloop
  endfacet
  facet normal 0 0 1
    outer loop
      vertex -20 34.64101615137754 100
      vertex -11.124611797498106 34.238034586625524 100
      vertex -12.360679774997896 38.04226065180614 100
    endloop
  endfacet
  facet normal 0 0 1
    outer loop
      vertex -12.360679774997896 38.04226065180614 100
      vertex -11.124611797498106 34.238034586625524 100
      vertex -3.763024677635525 35.802788233257836 100
    endloop
  endfacet
  facet normal 0 0 1
    outer loop
      vertex -12.360679774997896 38.04226065180614 100
      vertex -3.763024677635525 35.802788233257836 100
      vertex -4.181138530706139 39.78087581473093 100
    endloop
  endfacet
  facet normal 0 0 1
    outer loop
      vertex -4.181138530706139 39.78087581473093 100
      vertex -3.763024677635525 35.802788233257836 100
      vertex 3.763024677635525 35.802788233257836 100
    endloop
  endfacet
  facet normal 0 0 -1
    outer loop
      vertex -4.181138530706139 -39.78087581473093 0
      vertex 3.763024677635525 -35.802788233257836 0
      vertex 4.181138530706139 -39.78087581473093 0
    endloop
  endfacet
  facet normal 0 0 -1
    outer loop
      vertex 4.181138530706139 -39.78087581473093 0
      vertex 3.763024677635525 -35.802788233257836 0
      vertex 4.181138530706139 -35.71391539026254 0
    endloop
  endfacet
  facet normal 0 0 -1
    outer loop
      vertex 4.181138530706139 -39.78087581473093 0
      vertex 4.6183611084509 -35.62098086245261 0
      vertex 12.360679774997896 -38.04226065180614 0
    endloop
  endfacet
  facet normal 0.2079116908177594 -0.9781476007338056 6.308721666080079e-16
    outer loop
      vertex 4.181138530706139 -39.78087581473093 0
      vertex 12.360679774997896 -38.04226065180614 6
      vertex 4.671911005363644 -39.67655890495544 6
    endloop
  endfacet
  facet normal 0.20791169081775984 -0.9781476007338056 0
    outer loop
      vertex 4.181138530706139 -39.78087581473093 0
      vertex 12.360679774997896 -38.04226065180614 0
      vertex 12.360679774997896 -38.04226065180614 6
    endloop
  endfacet
  facet normal 0 0 -1
    outer loop
      vertex 12.360679774997896 -38.04226065180614 0
      vertex 4.6183611084509 -35.62098086245261 0
      vertex 11.124611797498106 -34.238034586625524 0
    endloop
  endfacet
  facet normal 0 0 -1
    outer loop
      vertex 12.360679774997896 -38.04226065180614 0
      vertex 11.124611797498106 -34.238034586625524 0
      vertex 12.360679774997896 -33.68770166605131 0
    endloop
  endfacet
  facet normal 0.20791169081776675 -0.9781476007338041 0
    outer loop
      vertex 4.181138530706139 -39.78087581473093 6
      vertex 4.671911005363644 -39.67655890495544 6
      vertex 4.181138530706139 -39.78087581473093 100
    endloop
  endfacet
  facet normal 0.20791169081775943 -0.9781476007338056 0
    outer loop
      vertex 4.671911005363644 -39.67655890495544 6
      vertex 12.360679774997896 -38.04226065180614 6
      vertex 12.360679774997896 -38.04226065180614 100
    endloop
  endfacet
  facet normal 0.4067366430758001 -0.913545457642601 0
    outer loop
      vertex 12.360679774997896 -38.04226065180614 6
      vertex 20 -34.64101615137754 6
      vertex 12.360679774997896 -38.04226065180614 100
    endloop
  endfacet
  facet normal 0 0 -1
    outer loop
      vertex 20 -34.64101615137754 0
      vertex 20.559545552064357 -29.317295840298076 0
      vertex 26.76522425435433 -29.725793019095768 0
    endloop
  endfacet
  facet normal 0 0 -1
    outer loop
      vertex 26.76522425435433 -29.725793019095768 0
      vertex 20.559545552064357 -29.317295840298076 0
      vertex 24.088701828918897 -26.753213717186192 0
    endloop
  endfacet
  facet normal 0 0 -1
    outer loop
      vertex 26.76522425435433 -29.725793019095768 0
      vertex 24.088701828918897 -26.753213717186192 0
      vertex 29.12461179749811 -21.160269082529034 0
    endloop
  endfacet
  facet normal 0 0 -1
    outer loop
      vertex 26.76522425435433 -29.725793019095768 0
      vertex 29.12461179749811 -21.160269082529034 0
      vertex 32.3606797749979 -23.511410091698927 0
    endloop
  endfacet
  facet normal 0.7431448254773912 -0.6691306063588616 0
    outer loop
      vertex 32.3606797749979 -23.511410091698927 0
      vertex 32.3606797749979 -23.511410091698927 6
      vertex 32.02495244375928 -23.884273067342736 6
    endloop
  endfacet
  facet normal 0 0 -1
    outer loop
      vertex 32.3606797749979 -23.511410091698927 0
      vertex 29.12461179749811 -21.160269082529034 0
      vertex 32.3606797749979 -15.555234928752737 0
    endloop
  endfacet
  facet normal 0.5877852522924729 -0.8090169943749476 0
    outer loop
      vertex 20 -34.64101615137754 6
      vertex 26.76522425435433 -29.725793019095768 6
      vertex 20 -34.64101615137754 100
    endloop
  endfacet
  facet normal 0.7431448254773942 -0.6691306063588582 0
    outer loop
      vertex 26.76522425435433 -29.725793019095768 6
      vertex 32.02495244375928 -23.884273067342736 6
      vertex 26.76522425435433 -29.725793019095768 100
    endloop
  endfacet
  facet normal 0.7431448254773912 -0.6691306063588616 0
    outer loop
      vertex 32.02495244375928 -23.884273067342736 6
      vertex 32.3606797749979 -23.511410091698927 6
      vertex 32.3606797749979 -23.511410091698927 100
    endloop
  endfacet
  facet normal 0.8660254037844388 -0.4999999999999996 0
    outer loop
      vertex 32.3606797749979 -23.511410091698927 6
      vertex 36.541818305704034 -16.26946572303201 6
      vertex 32.3606797749979 -23.511410091698927 100
    endloop
  endfacet
  facet normal 0.9510565162951534 -0.30901699437494784 0
    outer loop
      vertex 36.541818305704034 -16.26946572303201 6
      vertex 39.12590402935223 -8.316467632710374 6
      vertex 36.541818305704034 -16.26946572303201 100
    endloop
  endfacet
  facet normal 0.9945218953682734 -0.10452846326765323 0
    outer loop
      vertex 39.12590402935223 -8.316467632710374 6
      vertex 40 0 6
      vertex 39.12590402935223 -8.316467632710374 100
    endloop
  endfacet
  facet normal 0 -1 0
    outer loop
      vertex -4.181138530706139 -39.78087581473093 100
      vertex 4.181138530706139 -39.78087581473093 6
      vertex 4.181138530706139 -39.78087581473093 100
    endloop
  endfacet
  facet normal 0.2079116908177599 -0.9781476007338056 -3.771108995918018e-17
    outer loop
      vertex 4.671911005363644 -39.67655890495544 6
      vertex 12.360679774997896 -38.04226065180614 100
      vertex 4.181138530706139 -39.78087581473093 100
    endloop
  endfacet
  facet normal 0.4067366430758001 -0.913545457642601 0
    outer loop
      vertex 20 -34.64101615137754 6
      vertex 20 -34.64101615137754 100
      vertex 12.360679774997896 -38.04226065180614 100
    endloop
  endfacet
  facet normal 0 0 1
    outer loop
      vertex 4.181138530706139 -39.78087581473093 100
      vertex 3.763024677635525 -35.802788233257836 100
      vertex -3.763024677635525 -35.802788233257836 100
    endloop
  endfacet
  facet normal 0 0 1
    outer loop
      vertex 4.181138530706139 -39.78087581473093 100
      vertex 12.360679774997896 -38.04226065180614 100
      vertex 3.763024677635525 -35.802788233257836 100
    endloop
  endfacet
  facet normal 0 0 1
    outer loop
      vertex 12.360679774997896 -38.04226065180614 100
      vertex 11.124611797498106 -34.238034586625524 100
      vertex 3.763024677635525 -35.802788233257836 100
    endloop
  endfacet
  facet normal 0 0 1
    outer loop
      vertex 12.360679774997896 -38.04226065180614 100
      vertex 20 -34.64101615137754 100
      vertex 11.124611797498106 -34.238034586625524 100
    endloop
  endfacet
  facet normal 0 0 1
    outer loop
      vertex 20 -34.64101615137754 100
      vertex 18 -31.17691453623979 100
      vertex 11.124611797498106 -34.238034586625524 100
    endloop
  endfacet
  facet normal 0.5877852522924729 -0.8090169943749476 0
    outer loop
      vertex 26.76522425435433 -29.725793019095768 6
      vertex 26.76522425435433 -29.725793019095768 100
      vertex 20 -34.64101615137754 100
    endloop
  endfacet
  facet normal 0.7431448254773941 -0.6691306063588585 -2.231592589344745e-17
    outer loop
      vertex 32.02495244375928 -23.884273067342736 6
      vertex 32.3606797749979 -23.511410091698927 100
      vertex 26.76522425435433 -29.725793019095768 100
    endloop
  endfacet
  facet normal 0 0 1
    outer loop
      vertex 20 -34.64101615137754 100
      vertex 26.76522425435433 -29.725793019095768 100
      vertex 18 -31.17691453623979 100
    endloop
  endfacet
  facet normal 0 0 1
    outer loop
      vertex 26.76522425435433 -29.725793019095768 100
      vertex 24.088701828918897 -26.753213717186192 100
      vertex 18 -31.17691453623979 100
    endloop
  endfacet
  facet normal 0 0 1
    outer loop
      vertex 26.76522425435433 -29.725793019095768 100
      vertex 32.3606797749979 -23.511410091698927 100
      vertex 24.088701828918897 -26.753213717186192 100
    endloop
  endfacet
  facet normal 0 0 1
    outer loop
      vertex 32.3606797749979 -23.511410091698927 100
      vertex 29.12461179749811 -21.160269082529034 100
      vertex 24.088701828918897 -26.753213717186192 100
    endloop
  endfacet
  facet normal 0 0 1
    outer loop
      vertex 32.3606797749979 -23.511410091698927 100
      vertex 36.541818305704034 -16.26946572303201 100
      vertex 29.12461179749811 -21.160269082529034 100
    endloop
  endfacet
  facet normal 0.8660254037844388 -0.4999999999999996 0
    outer loop
      vertex 36.541818305704034 -16.26946572303201 6
      vertex 36.541818305704034 -16.26946572303201 100
      vertex 32.3606797749979 -23.511410091698927 100
    endloop
  endfacet
  facet normal 0.9510565162951534 -0.30901699437494784 0
    outer loop
      vertex 39.12590402935223 -8.316467632710374 6
      vertex 39.12590402935223 -8.316467632710374 100
      vertex 36.541818305704034 -16.26946572303201 100
    endloop
  endfacet
  facet normal 0.9945218953682734 -0.10452846326765323 0
    outer loop
      vertex 39.12590402935223 -8.316467632710374 100
      vertex 40 0 6
      vertex 40 0 100
    endloop
  endfacet
  facet normal 0 0 1
    outer loop
      vertex 36.541818305704034 -16.26946572303201 100
      vertex 32.88763647513363 -14.642519150728807 100
      vertex 29.12461179749811 -21.160269082529034 100
    endloop
  endfacet
  facet normal 0 0 1
    outer loop
      vertex 36.541818305704034 -16.26946572303201 100
      vertex 35.213313626417005 -7.4848208694393366 100
      vertex 32.88763647513363 -14.642519150728807 100
    endloop
  endfacet
  facet normal 0 0 1
    outer loop
      vertex 36.541818305704034 -16.26946572303201 100
      vertex 36 0 100
      vertex 35.213313626417005 -7.4848208694393366 100
    endloop
  endfacet
  facet normal 0 0 1
    outer loop
      vertex 36.541818305704034 -16.26946572303201 100
      vertex 39.12590402935223 -8.316467632710374 100
      vertex 36.541818305704034 16.26946572303201 100
    endloop
  endfacet
  facet normal 0 1 0
    outer loop
      vertex -4.181138530706139 39.78087581473093 6
      vertex 3.6794019070214024 39.78087581473093 6
      vertex 4.181138530706139 39.78087581473093 0
    endloop
  endfacet
  facet normal 0 0 -1
    outer loop
      vertex 4.181138530706139 39.78087581473093 0
      vertex 4.181138530706139 35.71391539026254 0
      vertex 3.763024677635525 35.802788233257836 0
    endloop
  endfacet
  facet normal 0.20791169081775984 0.9781476007338056 0
    outer loop
      vertex 4.181138530706139 39.78087581473093 0
      vertex 4.181138530706139 39.78087581473093 6
      vertex 12.360679774997896 38.04226065180614 0
    endloop
  endfacet
  facet normal 0.2079116908177603 0.9781476007338055 6.402881690946946e-16
    outer loop
      vertex 4.181138530706139 39.78087581473093 6
      vertex 11.86990730034039 38.14657756158162 6
      vertex 12.360679774997896 38.04226065180614 0
    endloop
  endfacet
  facet normal 0 0 -1
    outer loop
      vertex 12.360679774997896 38.04226065180614 0
      vertex 12.360679774997896 33.68770166605131 0
      vertex 11.923457197253136 33.88236569952782 0
    endloop
  endfacet
  facet normal 0.20791169081775288 0.9781476007338071 0
    outer loop
      vertex 12.360679774997896 38.04226065180614 0
      vertex 11.86990730034039 38.14657756158162 6
      vertex 12.360679774997896 38.04226065180614 5.660377358490566
    endloop
  endfacet
  facet normal 0 1 0
    outer loop
      vertex 3.6794019070214024 39.78087581473093 6
      vertex 4.181138530706139 39.78087581473093 100
      vertex 4.181138530706139 39.78087581473093 6
    endloop
  endfacet
  facet normal 0.2079116908177603 0.9781476007338055 0
    outer loop
      vertex 4.181138530706139 39.78087581473093 6
      vertex 4.181138530706139 39.78087581473093 100
      vertex 11.86990730034039 38.14657756158162 6
    endloop
  endfacet
  facet normal 0.20791169081775282 0.9781476007338069 0
    outer loop
      vertex 11.86990730034039 38.14657756158162 6
      vertex 12.360679774997896 38.04226065180614 100
      vertex 12.360679774997896 38.04226065180614 6
    endloop
  endfacet
  facet normal 0.4067366430758001 0.913545457642601 0
    outer loop
      vertex 12.360679774997896 38.04226065180614 6
      vertex 20 34.64101615137754 100
      vertex 20 34.64101615137754 6
    endloop
  endfacet
  facet normal 0.9945218953682734 0.10452846326765323 0
    outer loop
      vertex 40 0 6
      vertex 39.12590402935223 8.316467632710374 6
      vertex 40 0 100
    endloop
  endfacet
  facet normal 0.9510565162951534 0.30901699437494784 0
    outer loop
      vertex 39.12590402935223 8.316467632710374 6
      vertex 36.541818305704034 16.26946572303201 6
      vertex 39.12590402935223 8.316467632710374 100
    endloop
  endfacet
  facet normal 0.8660254037844388 0.4999999999999996 0
    outer loop
      vertex 36.541818305704034 16.26946572303201 6
      vertex 32.3606797749979 23.511410091698927 6
      vertex 36.541818305704034 16.26946572303201 100
    endloop
  endfacet
  facet normal 0 0 -1
    outer loop
      vertex 32.3606797749979 23.511410091698927 0
      vertex 29.12461179749811 21.160269082529034 0
      vertex 26.205678702289973 24.4020727080163 0
    endloop
  endfacet
  facet normal 0.5877852522924711 0.809016994374949 0
    outer loop
      vertex 26.76522425435433 29.725793019095768 0
      vertex 26.35931079909307 30.020706407032673 6
      vertex 26.76522425435433 29.725793019095768 6
    endloop
  endfacet
  facet normal 0 0 -1
    outer loop
      vertex 26.76522425435433 29.725793019095768 0
      vertex 32.3606797749979 23.511410091698927 0
      vertex 26.205678702289973 24.4020727080163 0
    endloop
  endfacet
  facet normal 0.7431448254773942 0.6691306063588582 -3.766400994674675e-16
    outer loop
      vertex 26.76522425435433 29.725793019095768 0
      vertex 27.100951585592945 29.35293004345196 6
      vertex 32.3606797749979 23.511410091698927 6
    endloop
  endfacet
  facet normal 0 0 -1
    outer loop
      vertex 32.3606797749979 23.511410091698927 0
      vertex 32.3606797749979 15.555234928752737 0
      vertex 29.12461179749811 21.160269082529034 0
    endloop
  endfacet
  facet normal 0.743144825477394 0.6691306063588585 0
    outer loop
      vertex 26.76522425435433 29.725793019095768 0
      vertex 32.3606797749979 23.511410091698927 6
      vertex 32.3606797749979 23.511410091698927 0
    endloop
  endfacet
  facet normal 0.587785252292471 0.809016994374949 0
    outer loop
      vertex 26.76522425435433 29.725793019095768 6
      vertex 26.35931079909307 30.020706407032673 6
      vertex 26.76522425435433 29.725793019095768 100
    endloop
  endfacet
  facet normal 0.7431448254773912 0.6691306063588616 0
    outer loop
      vertex 26.76522425435433 29.725793019095768 6
      vertex 26.76522425435433 29.725793019095768 100
      vertex 27.100951585592945 29.35293004345196 6
    endloop
  endfacet
  facet normal 0.587785252292473 0.8090169943749476 0
    outer loop
      vertex 20 34.64101615137754 6
      vertex 20 34.64101615137754 100
      vertex 26.35931079909307 30.020706407032673 6
    endloop
  endfacet
  facet normal 0.7431448254773942 0.6691306063588582 0
    outer loop
      vertex 27.100951585592945 29.35293004345196 6
      vertex 32.3606797749979 23.511410091698927 100
      vertex 32.3606797749979 23.511410091698927 6
    endloop
  endfacet
  facet normal 0 1 0
    outer loop
      vertex -4.181138530706139 39.78087581473093 100
      vertex 4.181138530706139 39.78087581473093 100
      vertex 3.6794019070214024 39.78087581473093 6
    endloop
  endfacet
  facet normal 0.20791169081775987 0.9781476007338056 -3.8134810071081076e-17
    outer loop
      vertex 11.86990730034039 38.14657756158162 6
      vertex 4.181138530706139 39.78087581473093 100
      vertex 12.360679774997896 38.04226065180614 100
    endloop
  endfacet
  facet normal 0.4067366430758001 0.913545457642601 0
    outer loop
      vertex 12.360679774997896 38.04226065180614 6
      vertex 12.360679774997896 38.04226065180614 100
      vertex 20 34.64101615137754 100
    endloop
  endfacet
  facet normal 0 0 1
    outer loop
      vertex -4.181138530706139 39.78087581473093 100
      vertex 3.763024677635525 35.802788233257836 100
      vertex 4.181138530706139 39.78087581473093 100
    endloop
  endfacet
  facet normal 0 0 1
    outer loop
      vertex 4.181138530706139 39.78087581473093 100
      vertex 3.763024677635525 35.802788233257836 100
      vertex 11.124611797498106 34.238034586625524 100
    endloop
  endfacet
  facet normal 0 0 1
    outer loop
      vertex 4.181138530706139 39.78087581473093 100
      vertex 11.124611797498106 34.238034586625524 100
      vertex 12.360679774997896 38.04226065180614 100
    endloop
  endfacet
  facet normal 0 0 1
    outer loop
      vertex 12.360679774997896 38.04226065180614 100
      vertex 11.124611797498106 34.238034586625524 100
      vertex 18 31.17691453623979 100
    endloop
  endfacet
  facet normal 0 0 1
    outer loop
      vertex 12.360679774997896 38.04226065180614 100
      vertex 18 31.17691453623979 100
      vertex 20 34.64101615137754 100
    endloop
  endfacet
  facet normal 0.9945218953682734 0.10452846326765323 0
    outer loop
      vertex 39.12590402935223 8.316467632710374 6
      vertex 39.12590402935223 8.316467632710374 100
      vertex 40 0 100
    endloop
  endfacet
  facet normal 0.9510565162951534 0.30901699437494784 0
    outer loop
      vertex 36.541818305704034 16.26946572303201 6
      vertex 36.541818305704034 16.26946572303201 100
      vertex 39.12590402935223 8.316467632710374 100
    endloop
  endfacet
  facet normal 0 0 1
    outer loop
      vertex 36.541818305704034 -16.26946572303201 100
      vertex 36.541818305704034 16.26946572303201 100
      vertex 36 0 100
    endloop
  endfacet
  facet normal 0 0 1
    outer loop
      vertex 39.12590402935223 -8.316467632710374 100
      vertex 40 0 100
      vertex 39.12590402935223 8.316467632710374 100
    endloop
  endfacet
  facet normal 0 0 1
    outer loop
      vertex 36.541818305704034 16.26946572303201 100
      vertex 35.213313626417005 7.4848208694393366 100
      vertex 36 0 100
    endloop
  endfacet
  facet normal 0 0 1
    outer loop
      vertex 39.12590402935223 -8.316467632710374 100
      vertex 39.12590402935223 8.316467632710374 100
      vertex 36.541818305704034 16.26946572303201 100
    endloop
  endfacet
  facet normal 0 0 1
    outer loop
      vertex 32.3606797749979 23.511410091698927 100
      vertex 29.12461179749811 21.160269082529034 100
      vertex 32.88763647513363 14.642519150728807 100
    endloop
  endfacet
  facet normal 0 0 1
    outer loop
      vertex 32.3606797749979 23.511410091698927 100
      vertex 32.88763647513363 14.642519150728807 100
      vertex 35.213313626417005 7.4848208694393366 100
    endloop
  endfacet
  facet normal 0 0 1
    outer loop
      vertex 36.541818305704034 16.26946572303201 100
      vertex 32.3606797749979 23.511410091698927 100
      vertex 35.213313626417005 7.4848208694393366 100
    endloop
  endfacet
  facet normal 0.7431448254773941 0.6691306063588585 2.231592589344745e-17
    outer loop
      vertex 27.100951585592945 29.35293004345196 6
      vertex 26.76522425435433 29.725793019095768 100
      vertex 32.3606797749979 23.511410091698927 100
    endloop
  endfacet
  facet normal 0.5877852522924729 0.8090169943749476 -1.2429123282426424e-17
    outer loop
      vertex 26.35931079909307 30.020706407032673 6
      vertex 20 34.64101615137754 100
      vertex 26.76522425435433 29.725793019095768 100
    endloop
  endfacet
  facet normal 0.8660254037844388 0.4999999999999996 0
    outer loop
      vertex 32.3606797749979 23.511410091698927 6
      vertex 32.3606797749979 23.511410091698927 100
      vertex 36.541818305704034 16.26946572303201 100
    endloop
  endfacet
  facet normal 0 0 1
    outer loop
      vertex 26.76522425435433 29.725793019095768 100
      vertex 29.12461179749811 21.160269082529034 100
      vertex 32.3606797749979 23.511410091698927 100
    endloop
  endfacet
  facet normal 0 0 1
    outer loop
      vertex 26.76522425435433 29.725793019095768 100
      vertex 24.088701828918897 26.753213717186192 100
      vertex 29.12461179749811 21.160269082529034 100
    endloop
  endfacet
  facet normal 0 0 1
    outer loop
      vertex 20 34.64101615137754 100
      vertex 18 31.17691453623979 100
      vertex 24.088701828918897 26.753213717186192 100
    endloop
  endfacet
  facet normal 0 0 1
    outer loop
      vertex 26.76522425435433 29.725793019095768 100
      vertex 20 34.64101615137754 100
      vertex 24.088701828918897 26.753213717186192 100
    endloop
  endfacet
  facet normal -0.743144825477394 -0.6691306063588585 0
    outer loop
      vertex -32.3606797749979 -23.511410091698927 0
      vertex -26.76522425435433 -29.725793019095768 0
      vertex -32.3606797749979 -23.511410091698927 6
    endloop
  endfacet
  facet normal -0.8660254037844388 -0.49999999999999967 0
    outer loop
      vertex -32.3606797749979 -23.511410091698927 0
      vertex -32.3606797749979 -23.511410091698927 6
      vertex -36.541818305704034 -16.26946572303201 6
    endloop
  endfacet
  facet normal -0.5877852522924729 -0.8090169943749476 0
    outer loop
      vertex -26.76522425435433 -29.725793019095768 0
      vertex -20 -34.64101615137754 6
      vertex -26.76522425435433 -29.725793019095768 6
    endloop
  endfacet
  facet normal -0.5877852522924729 -0.8090169943749476 0
    outer loop
      vertex -26.76522425435433 -29.725793019095768 0
      vertex -20 -34.64101615137754 0
      vertex -20 -34.64101615137754 6
    endloop
  endfacet
  facet normal -0.743144825477394 -0.6691306063588585 0
    outer loop
      vertex -32.3606797749979 -23.511410091698927 6
      vertex -26.76522425435433 -29.725793019095768 0
      vertex -26.76522425435433 -29.725793019095768 6
    endloop
  endfacet
  facet normal 0 0 -1
    outer loop
      vertex -26.76522425435433 -29.725793019095768 0
      vertex -26.76522425435433 -23.780634415276616 0
      vertex -26.205678702289973 -24.4020727080163 0
    endloop
  endfacet
  facet normal -0.8660254037844388 -0.49999999999999967 0
    outer loop
      vertex -32.3606797749979 -23.511410091698927 0
      vertex -36.541818305704034 -16.26946572303201 6
      vertex -36.541818305704034 -16.26946572303201 0
    endloop
  endfacet
  facet normal -0.9510565162951534 -0.30901699437494784 0
    outer loop
      vertex -36.541818305704034 -16.26946572303201 0
      vertex -39.12590402935223 -8.316467632710374 6
      vertex -39.12590402935223 -8.316467632710374 0
    endloop
  endfacet
  facet normal -0.9510565162951534 -0.30901699437494784 0
    outer loop
      vertex -36.541818305704034 -16.26946572303201 0
      vertex -36.541818305704034 -16.26946572303201 6
      vertex -39.12590402935223 -8.316467632710374 6
    endloop
  endfacet
  facet normal 0 0 -1
    outer loop
      vertex -32.3606797749979 -23.511410091698927 0
      vertex -32.3606797749979 -15.555234928752737 0
      vertex -31.65323878355803 -16.780558669283483 0
    endloop
  endfacet
  facet normal -0.9945218953682735 -0.10452846326765323 0
    outer loop
      vertex -39.12590402935223 -8.316467632710374 0
      vertex -39.12590402935223 -8.316467632710374 6
      vertex -40 0 6
    endloop
  endfacet
  facet normal 0 0 -1
    outer loop
      vertex -36.541818305704034 -16.26946572303201 0
      vertex -36 0 0
      vertex -35.41591427635181 -5.557204447297225 0
    endloop
  endfacet
  facet normal -0.9945218953682735 -0.10452846326765323 0
    outer loop
      vertex -39.12590402935223 -8.316467632710374 0
      vertex -40 0 6
      vertex -40 0 0
    endloop
  endfacet
  facet normal -0.4067366430758001 -0.913545457642601 0
    outer loop
      vertex -20 -34.64101615137754 0
      vertex -12.360679774997896 -38.04226065180614 6
      vertex -20 -34.64101615137754 6
    endloop
  endfacet
  facet normal 0 0 -1
    outer loop
      vertex -20 -34.64101615137754 0
      vertex -20 -29.723829480229067 0
      vertex -19.519848517354784 -30.072679952255644 0
    endloop
  endfacet
  facet normal -0.4067366430758001 -0.913545457642601 0
    outer loop
      vertex -20 -34.64101615137754 0
      vertex -12.360679774997896 -38.04226065180614 0
      vertex -12.360679774997896 -38.04226065180614 6
    endloop
  endfacet
  facet normal 0 0 -1
    outer loop
      vertex -12.360679774997896 -38.04226065180614 0
      vertex -12.360679774997896 -33.68770166605131 0
      vertex -11.923457197253136 -33.88236569952782 0
    endloop
  endfacet
  facet normal -0.20791169081775984 -0.9781476007338056 0
    outer loop
      vertex -12.360679774997896 -38.04226065180614 0
      vertex -4.181138530706139 -39.78087581473093 6
      vertex -12.360679774997896 -38.04226065180614 6
    endloop
  endfacet
  facet normal 0 0 -1
    outer loop
      vertex -4.181138530706139 -39.78087581473093 0
      vertex -4.181138530706139 -35.71391539026254 0
      vertex -3.763024677635525 -35.802788233257836 0
    endloop
  endfacet
  facet normal 0 -1 0
    outer loop
      vertex -4.181138530706139 -39.78087581473093 0
      vertex 4.181138530706139 -39.78087581473093 6
      vertex -4.181138530706139 -39.78087581473093 6
    endloop
  endfacet
  facet normal 0 0 -1
    outer loop
      vertex -39.12590402935223 -8.316467632710374 0
      vertex -40 0 0
      vertex -39.12590402935223 8.316467632710374 0
    endloop
  endfacet
  facet normal -0.9945218953682735 0.10452846326765323 0
    outer loop
      vertex -40 0 0
      vertex -40 0 6
      vertex -39.12590402935223 8.316467632710374 6
    endloop
  endfacet
  facet normal 0 0 -1
    outer loop
      vertex -36.541818305704034 -16.26946572303201 0
      vertex -36.541818305704034 16.26946572303201 0
      vertex -36 0 0
    endloop
  endfacet
  facet normal -0.9945218953682735 0.10452846326765323 0
    outer loop
      vertex -40 0 0
      vertex -39.12590402935223 8.316467632710374 6
      vertex -39.12590402935223 8.316467632710374 0
    endloop
  endfacet
  facet normal 0 0 -1
    outer loop
      vertex -39.12590402935223 -8.316467632710374 0
      vertex -39.12590402935223 8.316467632710374 0
      vertex -36.541818305704034 16.26946572303201 0
    endloop
  endfacet
  facet normal 0 0 -1
    outer loop
      vertex -36.541818305704034 16.26946572303201 0
      vertex -35.213313626417005 7.4848208694393366 0
      vertex -36 0 0
    endloop
  endfacet
  facet normal -0.9510565162951534 0.30901699437494784 0
    outer loop
      vertex -39.12590402935223 8.316467632710374 0
      vertex -39.12590402935223 8.316467632710374 6
      vertex -36.541818305704034 16.26946572303201 6
    endloop
  endfacet
  facet normal 0 0 -1
    outer loop
      vertex -36.541818305704034 16.26946572303201 0
      vertex -33.486583804350126 12.79914881596413 0
      vertex -35.213313626417005 7.4848208694393366 0
    endloop
  endfacet
  facet normal -0.9510565162951534 0.30901699437494784 0
    outer loop
      vertex -39.12590402935223 8.316467632710374 0
      vertex -36.541818305704034 16.26946572303201 6
      vertex -36.541818305704034 16.26946572303201 0
    endloop
  endfacet
  facet normal -0.8660254037844388 0.49999999999999967 0
    outer loop
      vertex -36.541818305704034 16.26946572303201 0
      vertex -36.541818305704034 16.26946572303201 6
      vertex -32.3606797749979 23.511410091698927 6
    endloop
  endfacet
  facet normal 0 0 -1
    outer loop
      vertex -36.541818305704034 16.26946572303201 0
      vertex -32.3606797749979 23.511410091698927 0
      vertex -33.486583804350126 12.79914881596413 0
    endloop
  endfacet
  facet normal -0.8660254037844388 0.49999999999999967 0
    outer loop
      vertex -36.541818305704034 16.26946572303201 0
      vertex -32.3606797749979 23.511410091698927 6
      vertex -32.3606797749979 23.511410091698927 0
    endloop
  endfacet
  facet normal 0 0 -1
    outer loop
      vertex -32.3606797749979 23.511410091698927 0
      vertex -29.12461179749811 21.160269082529034 0
      vertex -32.3606797749979 15.555234928752737 0
    endloop
  endfacet
  facet normal -0.743144825477394 0.6691306063588585 0
    outer loop
      vertex -32.3606797749979 23.511410091698927 0
      vertex -32.3606797749979 23.511410091698927 6
      vertex -26.76522425435433 29.725793019095768 6
    endloop
  endfacet
  facet normal 0 0 -1
    outer loop
      vertex -32.3606797749979 23.511410091698927 0
      vertex -27.472665245794193 22.99494159668033 0
      vertex -29.12461179749811 21.160269082529034 0
    endloop
  endfacet
  facet normal 0 0 -1
    outer loop
      vertex -32.3606797749979 23.511410091698927 0
      vertex -26.76522425435433 29.725793019095768 0
      vertex -27.472665245794193 22.99494159668033 0
    endloop
  endfacet
  facet normal -0.743144825477394 0.6691306063588585 0
    outer loop
      vertex -32.3606797749979 23.511410091698927 0
      vertex -26.76522425435433 29.725793019095768 6
      vertex -26.76522425435433 29.725793019095768 0
    endloop
  endfacet
  facet normal 0 0 -1
    outer loop
      vertex -26.76522425435433 29.725793019095768 0
      vertex -24.088701828918897 26.753213717186192 0
      vertex -26.76522425435433 23.780634415276616 0
    endloop
  endfacet
  facet normal 0 0 -1
    outer loop
      vertex -26.76522425435433 29.725793019095768 0
      vertex -20.559545552064357 29.317295840298076 0
      vertex -24.088701828918897 26.753213717186192 0
    endloop
  endfacet
  facet normal -0.5877852522924729 0.8090169943749476 0
    outer loop
      vertex -26.76522425435433 29.725793019095768 0
      vertex -26.76522425435433 29.725793019095768 6
      vertex -20 34.64101615137754 0
    endloop
  endfacet
  facet normal 0 0 -1
    outer loop
      vertex -26.76522425435433 29.725793019095768 0
      vertex -20 34.64101615137754 0
      vertex -20.559545552064357 29.317295840298076 0
    endloop
  endfacet
  facet normal -0.5877852522924729 0.8090169943749476 0
    outer loop
      vertex -26.76522425435433 29.725793019095768 6
      vertex -20 34.64101615137754 6
      vertex -20 34.64101615137754 0
    endloop
  endfacet
  facet normal 0 0 -1
    outer loop
      vertex -20 34.64101615137754 0
      vertex -18 31.17691453623979 0
      vertex -20 29.723829480229067 0
    endloop
  endfacet
  facet normal 0 0 -1
    outer loop
      vertex -20 34.64101615137754 0
      vertex -12.84083125764311 33.47392445268424 0
      vertex -18 31.17691453623979 0
    endloop
  endfacet
  facet normal -0.4067366430758001 0.913545457642601 0
    outer loop
      vertex -20 34.64101615137754 0
      vertex -20 34.64101615137754 6
      vertex -12.360679774997896 38.04226065180614 0
    endloop
  endfacet
  facet normal 0 0 -1
    outer loop
      vertex -20 34.64101615137754 0
      vertex -12.360679774997896 38.04226065180614 0
      vertex -12.84083125764311 33.47392445268424 0
    endloop
  endfacet
  facet normal -0.4067366430758001 0.913545457642601 0
    outer loop
      vertex -20 34.64101615137754 6
      vertex -12.360679774997896 38.04226065180614 6
      vertex -12.360679774997896 38.04226065180614 0
    endloop
  endfacet
  facet normal 0 0 -1
    outer loop
      vertex -12.360679774997896 38.04226065180614 0
      vertex -11.124611797498106 34.238034586625524 0
      vertex -12.360679774997896 33.68770166605131 0
    endloop
  endfacet
  facet normal 0 0 -1
    outer loop
      vertex -12.360679774997896 38.04226065180614 0
      vertex -4.6183611084509 35.62098086245261 0
      vertex -11.124611797498106 34.238034586625524 0
    endloop
  endfacet
  facet normal -0.20791169081775984 0.9781476007338056 0
    outer loop
      vertex -12.360679774997896 38.04226065180614 0
      vertex -12.360679774997896 38.04226065180614 6
      vertex -4.181138530706139 39.78087581473093 0
    endloop
  endfacet
  facet normal 0 0 -1
    outer loop
      vertex -12.360679774997896 38.04226065180614 0
      vertex -4.181138530706139 39.78087581473093 0
      vertex -4.6183611084509 35.62098086245261 0
    endloop
  endfacet
  facet normal 0 0 -1
    outer loop
      vertex -4.181138530706139 39.78087581473093 0
      vertex -3.763024677635525 35.802788233257836 0
      vertex -4.181138530706139 35.71391539026254 0
    endloop
  endfacet
  facet normal -0.20791169081776675 0.9781476007338041 0
    outer loop
      vertex -4.671911005363644 39.67655890495544 6
      vertex -4.181138530706139 39.78087581473093 6
      vertex -4.181138530706139 39.78087581473093 5.660377358490566
    endloop
  endfacet
  facet normal 0 0 -1
    outer loop
      vertex -4.181138530706139 39.78087581473093 0
      vertex 4.181138530706139 39.78087581473093 0
      vertex -3.763024677635525 35.802788233257836 0
    endloop
  endfacet
  facet normal 0 1 0
    outer loop
      vertex -4.181138530706139 39.78087581473093 0
      vertex -4.181138530706139 39.78087581473093 5.660377358490566
      vertex 4.181138530706139 39.78087581473093 0
    endloop
  endfacet
  facet normal 0 1 0
    outer loop
      vertex -4.181138530706139 39.78087581473093 5.660377358490566
      vertex -4.181138530706139 39.78087581473093 6
      vertex 4.181138530706139 39.78087581473093 0
    endloop
  endfacet
  facet normal 0 -1 0
    outer loop
      vertex -4.181138530706139 -39.78087581473093 0
      vertex 4.181138530706139 -39.78087581473093 0
      vertex 4.181138530706139 -39.78087581473093 6
    endloop
  endfacet
  facet normal 0.20791169081776675 -0.978147600733804 0
    outer loop
      vertex 4.181138530706139 -39.78087581473093 0
      vertex 4.671911005363644 -39.67655890495544 6
      vertex 4.181138530706139 -39.78087581473093 6
    endloop
  endfacet
  facet normal 0 0 -1
    outer loop
      vertex 4.181138530706139 -39.78087581473093 0
      vertex 4.181138530706139 -35.71391539026254 0
      vertex 4.6183611084509 -35.62098086245261 0
    endloop
  endfacet
  facet normal 0.4067366430758001 -0.913545457642601 0
    outer loop
      vertex 12.360679774997896 -38.04226065180614 0
      vertex 20 -34.64101615137754 6
      vertex 12.360679774997896 -38.04226065180614 6
    endloop
  endfacet
  facet normal 0 0 -1
    outer loop
      vertex 12.360679774997896 -38.04226065180614 0
      vertex 12.360679774997896 -33.68770166605131 0
      vertex 18 -31.17691453623979 0
    endloop
  endfacet
  facet normal 0.4067366430758001 -0.913545457642601 0
    outer loop
      vertex 12.360679774997896 -38.04226065180614 0
      vertex 20 -34.64101615137754 0
      vertex 20 -34.64101615137754 6
    endloop
  endfacet
  facet normal 0 0 -1
    outer loop
      vertex 12.360679774997896 -38.04226065180614 0
      vertex 18 -31.17691453623979 0
      vertex 20 -34.64101615137754 0
    endloop
  endfacet
  facet normal 0 0 -1
    outer loop
      vertex 20 -34.64101615137754 0
      vertex 18 -31.17691453623979 0
      vertex 20.559545552064357 -29.317295840298076 0
    endloop
  endfacet
  facet normal 0.5877852522924729 -0.8090169943749476 0
    outer loop
      vertex 20 -34.64101615137754 0
      vertex 26.76522425435433 -29.725793019095768 6
      vertex 20 -34.64101615137754 6
    endloop
  endfacet
  facet normal 0.5877852522924729 -0.8090169943749476 0
    outer loop
      vertex 20 -34.64101615137754 0
      vertex 26.76522425435433 -29.725793019095768 0
      vertex 26.76522425435433 -29.725793019095768 6
    endloop
  endfacet
  facet normal 0.743144825477394 -0.6691306063588585 0
    outer loop
      vertex 26.76522425435433 -29.725793019095768 0
      vertex 32.3606797749979 -23.511410091698927 0
      vertex 26.76522425435433 -29.725793019095768 6
    endloop
  endfacet
  facet normal 0.7431448254773942 -0.6691306063588582 4.51968119360961e-16
    outer loop
      vertex 26.76522425435433 -29.725793019095768 6
      vertex 32.3606797749979 -23.511410091698927 0
      vertex 32.02495244375928 -23.884273067342736 6
    endloop
  endfacet
  facet normal 0.8660254037844388 -0.49999999999999967 0
    outer loop
      vertex 32.3606797749979 -23.511410091698927 0
      vertex 36.541818305704034 -16.26946572303201 0
      vertex 32.3606797749979 -23.511410091698927 6
    endloop
  endfacet
  facet normal 0 0 -1
    outer loop
      vertex 32.3606797749979 -23.511410091698927 0
      vertex 32.3606797749979 -15.555234928752737 0
      vertex 32.88763647513363 -14.642519150728807 0
    endloop
  endfacet
  facet normal 0 0 -1
    outer loop
      vertex 32.3606797749979 -23.511410091698927 0
      vertex 32.88763647513363 -14.642519150728807 0
      vertex 35.213313626417005 -7.4848208694393366 0
    endloop
  endfacet
  facet normal 0 0 -1
    outer loop
      vertex 32.3606797749979 -23.511410091698927 0
      vertex 35.213313626417005 -7.4848208694393366 0
      vertex 36.541818305704034 -16.26946572303201 0
    endloop
  endfacet
  facet normal 0.8660254037844388 -0.49999999999999967 0
    outer loop
      vertex 32.3606797749979 -23.511410091698927 6
      vertex 36.541818305704034 -16.26946572303201 0
      vertex 36.541818305704034 -16.26946572303201 6
    endloop
  endfacet
  facet normal 0.9510565162951534 -0.30901699437494784 0
    outer loop
      vertex 36.541818305704034 -16.26946572303201 0
      vertex 39.12590402935223 -8.316467632710374 0
      vertex 36.541818305704034 -16.26946572303201 6
    endloop
  endfacet
  facet normal 0.9510565162951534 -0.30901699437494784 0
    outer loop
      vertex 36.541818305704034 -16.26946572303201 6
      vertex 39.12590402935223 -8.316467632710374 0
      vertex 39.12590402935223 -8.316467632710374 6
    endloop
  endfacet
  facet normal 0 0 -1
    outer loop
      vertex 36.541818305704034 -16.26946572303201 0
      vertex 35.213313626417005 -7.4848208694393366 0
      vertex 36 0 0
    endloop
  endfacet
  facet normal 0 0 -1
    outer loop
      vertex 36.541818305704034 -16.26946572303201 0
      vertex 39.12590402935223 8.316467632710374 0
      vertex 39.12590402935223 -8.316467632710374 0
    endloop
  endfacet
  facet normal 0.9945218953682735 -0.10452846326765323 0
    outer loop
      vertex 39.12590402935223 -8.316467632710374 0
      vertex 40 0 0
      vertex 39.12590402935223 -8.316467632710374 6
    endloop
  endfacet
  facet normal 0.9945218953682735 -0.10452846326765323 0
    outer loop
      vertex 39.12590402935223 -8.316467632710374 6
      vertex 40 0 0
      vertex 40 0 6
    endloop
  endfacet
  facet normal 0 0 -1
    outer loop
      vertex 4.181138530706139 39.78087581473093 0
      vertex 3.763024677635525 35.802788233257836 0
      vertex -3.763024677635525 35.802788233257836 0
    endloop
  endfacet
  facet normal 0 1 0
    outer loop
      vertex 4.181138530706139 39.78087581473093 0
      vertex 3.6794019070214024 39.78087581473093 6
      vertex 4.181138530706139 39.78087581473093 6
    endloop
  endfacet
  facet normal 0 0 -1
    outer loop
      vertex 4.181138530706139 39.78087581473093 0
      vertex 12.360679774997896 38.04226065180614 0
      vertex 4.181138530706139 35.71391539026254 0
    endloop
  endfacet
  facet normal 0 0 -1
    outer loop
      vertex 12.360679774997896 38.04226065180614 0
      vertex 11.124611797498106 34.238034586625524 0
      vertex 4.181138530706139 35.71391539026254 0
    endloop
  endfacet
  facet normal 0 0 -1
    outer loop
      vertex 12.360679774997896 38.04226065180614 0
      vertex 11.923457197253136 33.88236569952782 0
      vertex 11.124611797498106 34.238034586625524 0
    endloop
  endfacet
  facet normal 0.20791169081775285 0.978147600733807 0
    outer loop
      vertex 11.86990730034039 38.14657756158162 6
      vertex 12.360679774997896 38.04226065180614 6
      vertex 12.360679774997896 38.04226065180614 5.660377358490566
    endloop
  endfacet
  facet normal 0 0 -1
    outer loop
      vertex 12.360679774997896 38.04226065180614 0
      vertex 20 34.64101615137754 0
      vertex 12.360679774997896 33.68770166605131 0
    endloop
  endfacet
  facet normal 0.40673664307580015 0.913545457642601 0
    outer loop
      vertex 12.360679774997896 38.04226065180614 0
      vertex 12.360679774997896 38.04226065180614 5.660377358490566
      vertex 20 34.64101615137754 0
    endloop
  endfacet
  facet normal 0.40673664307580015 0.913545457642601 0
    outer loop
      vertex 12.360679774997896 38.04226065180614 5.660377358490566
      vertex 12.360679774997896 38.04226065180614 6
      vertex 20 34.64101615137754 0
    endloop
  endfacet
  facet normal 0 0 -1
    outer loop
      vertex 20 34.64101615137754 0
      vertex 18 31.17691453623979 0
      vertex 12.360679774997896 33.68770166605131 0
    endloop
  endfacet
  facet normal 0.4067366430758001 0.913545457642601 0
    outer loop
      vertex 12.360679774997896 38.04226065180614 6
      vertex 20 34.64101615137754 6
      vertex 20 34.64101615137754 0
    endloop
  endfacet
  facet normal 0 0 -1
    outer loop
      vertex 36.541818305704034 -16.26946572303201 0
      vertex 36 0 0
      vertex 36.541818305704034 16.26946572303201 0
    endloop
  endfacet
  facet normal 0 0 -1
    outer loop
      vertex 36.541818305704034 -16.26946572303201 0
      vertex 36.541818305704034 16.26946572303201 0
      vertex 39.12590402935223 8.316467632710374 0
    endloop
  endfacet
  facet normal 0 0 -1
    outer loop
      vertex 39.12590402935223 -8.316467632710374 0
      vertex 39.12590402935223 8.316467632710374 0
      vertex 40 0 0
    endloop
  endfacet
  facet normal 0.9945218953682735 0.10452846326765323 0
    outer loop
      vertex 40 0 0
      vertex 39.12590402935223 8.316467632710374 0
      vertex 40 0 6
    endloop
  endfacet
  facet normal 0 0 -1
    outer loop
      vertex 36.541818305704034 16.26946572303201 0
      vertex 36 0 0
      vertex 35.213313626417005 7.4848208694393366 0
    endloop
  endfacet
  facet normal 0.9945218953682735 0.10452846326765323 0
    outer loop
      vertex 40 0 6
      vertex 39.12590402935223 8.316467632710374 0
      vertex 39.12590402935223 8.316467632710374 6
    endloop
  endfacet
  facet normal 0 0 -1
    outer loop
      vertex 36.541818305704034 16.26946572303201 0
      vertex 35.213313626417005 7.4848208694393366 0
      vertex 32.88763647513363 14.642519150728807 0
    endloop
  endfacet
  facet normal 0 0 -1
    outer loop
      vertex 36.541818305704034 16.26946572303201 0
      vertex 32.88763647513363 14.642519150728807 0
      vertex 32.3606797749979 15.555234928752737 0
    endloop
  endfacet
  facet normal 0 0 -1
    outer loop
      vertex 36.541818305704034 16.26946572303201 0
      vertex 32.3606797749979 15.555234928752737 0
      vertex 32.3606797749979 23.511410091698927 0
    endloop
  endfacet
  facet normal 0.9510565162951534 0.30901699437494784 0
    outer loop
      vertex 39.12590402935223 8.316467632710374 6
      vertex 36.541818305704034 16.26946572303201 0
      vertex 36.541818305704034 16.26946572303201 6
    endloop
  endfacet
  facet normal 0.9510565162951534 0.30901699437494784 0
    outer loop
      vertex 39.12590402935223 8.316467632710374 0
      vertex 36.541818305704034 16.26946572303201 0
      vertex 39.12590402935223 8.316467632710374 6
    endloop
  endfacet
  facet normal 0.8660254037844388 0.49999999999999967 0
    outer loop
      vertex 36.541818305704034 16.26946572303201 0
      vertex 32.3606797749979 23.511410091698927 0
      vertex 36.541818305704034 16.26946572303201 6
    endloop
  endfacet
  facet normal 0 0 -1
    outer loop
      vertex 26.76522425435433 29.725793019095768 0
      vertex 24.088701828918897 26.753213717186192 0
      vertex 18 31.17691453623979 0
    endloop
  endfacet
  facet normal 0 0 -1
    outer loop
      vertex 26.76522425435433 29.725793019095768 0
      vertex 26.205678702289973 24.4020727080163 0
      vertex 24.088701828918897 26.753213717186192 0
    endloop
  endfacet
  facet normal 0.7431448254773912 0.6691306063588616 0
    outer loop
      vertex 26.76522425435433 29.725793019095768 0
      vertex 26.76522425435433 29.725793019095768 6
      vertex 27.100951585592945 29.35293004345196 6
    endloop
  endfacet
  facet normal 0 0 -1
    outer loop
      vertex 26.76522425435433 29.725793019095768 0
      vertex 18 31.17691453623979 0
      vertex 20 34.64101615137754 0
    endloop
  endfacet
  facet normal 0.5877852522924729 0.8090169943749476 0
    outer loop
      vertex 26.76522425435433 29.725793019095768 0
      vertex 20 34.64101615137754 0
      vertex 20 34.64101615137754 6
    endloop
  endfacet
  facet normal 0.5877852522924729 0.8090169943749475 2.0715205470710704e-16
    outer loop
      vertex 26.76522425435433 29.725793019095768 0
      vertex 20 34.64101615137754 6
      vertex 26.35931079909307 30.020706407032673 6
    endloop
  endfacet
  facet normal 0.8660254037844388 0.49999999999999967 0
    outer loop
      vertex 36.541818305704034 16.26946572303201 6
      vertex 32.3606797749979 23.511410091698927 0
      vertex 32.3606797749979 23.511410091698927 6
    endloop
  endfacet
  facet normal 0.7431448254773941 0.6691306063588583 0
    outer loop
      vertex -26.76522425435433 -23.780634415276616 0
      vertex -29.12461179749811 -21.160269082529034 0
      vertex -29.12461179749811 -21.160269082529034 100
    endloop
  endfacet
  facet normal 0.7431448254773944 0.669130606358858 2.5266059105510178e-17
    outer loop
      vertex -26.205678702289973 -24.4020727080163 0
      vertex -29.12461179749811 -21.160269082529034 100
      vertex -24.088701828918897 -26.753213717186192 0
    endloop
  endfacet
  facet normal 0.7431448254773934 0.6691306063588593 -4.5140315921176037e-17
    outer loop
      vertex -26.205678702289973 -24.4020727080163 0
      vertex -26.76522425435433 -23.780634415276616 0
      vertex -29.12461179749811 -21.160269082529034 100
    endloop
  endfacet
  facet normal 0.5877852522924728 0.8090169943749476 0
    outer loop
      vertex -20 -29.723829480229067 0
      vertex -24.088701828918897 -26.753213717186192 0
      vertex -24.088701828918897 -26.753213717186192 100
    endloop
  endfacet
  facet normal 0.5877852522924726 0.8090169943749478 -1.8706373445310816e-17
    outer loop
      vertex -19.519848517354784 -30.072679952255644 0
      vertex -20 -29.723829480229067 0
      vertex -24.088701828918897 -26.753213717186192 100
    endloop
  endfacet
  facet normal 0.587785252292473 0.8090169943749475 1.4183349735901702e-17
    outer loop
      vertex -19.519848517354784 -30.072679952255644 0
      vertex -24.088701828918897 -26.753213717186192 100
      vertex -18 -31.17691453623979 0
    endloop
  endfacet
  facet normal 0.8660254037844388 0.4999999999999998 0
    outer loop
      vertex -32.3606797749979 -15.555234928752737 0
      vertex -32.88763647513363 -14.642519150728807 0
      vertex -32.88763647513363 -14.642519150728807 100
    endloop
  endfacet
  facet normal 0.8660254037844389 0.4999999999999995 2.9856189185161814e-17
    outer loop
      vertex -31.65323878355803 -16.780558669283483 0
      vertex -32.88763647513363 -14.642519150728807 100
      vertex -29.12461179749811 -21.160269082529034 0
    endloop
  endfacet
  facet normal 0.866025403784438 0.5000000000000011 -1.5693507134291192e-17
    outer loop
      vertex -31.65323878355803 -16.780558669283483 0
      vertex -32.3606797749979 -15.555234928752737 0
      vertex -32.88763647513363 -14.642519150728807 100
    endloop
  endfacet
  facet normal 0.9945218953682733 0.10452846326765475 -1.1456025110065242e-16
    outer loop
      vertex -35.41591427635181 -5.557204447297225 0
      vertex -36 0 100
      vertex -35.213313626417005 -7.4848208694393366 0
    endloop
  endfacet
  facet normal 0.9945218953682734 0.10452846326765271 0
    outer loop
      vertex -35.41591427635181 -5.557204447297225 0
      vertex -36 0 0
      vertex -36 0 100
    endloop
  endfacet
  facet normal 0.9510565162951535 0.3090169943749476 0
    outer loop
      vertex -32.88763647513363 -14.642519150728807 0
      vertex -35.213313626417005 -7.4848208694393366 0
      vertex -35.213313626417005 -7.4848208694393366 100
    endloop
  endfacet
  facet normal 0.40673664307579976 0.913545457642601 0
    outer loop
      vertex -12.360679774997896 -33.68770166605131 0
      vertex -18 -31.17691453623979 0
      vertex -18 -31.17691453623979 100
    endloop
  endfacet
  facet normal 0.40673664307579555 0.9135454576426029 -2.8300730299534734e-16
    outer loop
      vertex -11.923457197253136 -33.88236569952782 0
      vertex -12.360679774997896 -33.68770166605131 0
      vertex -18 -31.17691453623979 100
    endloop
  endfacet
  facet normal 0.4067366430758034 0.9135454576425995 2.793189074056929e-16
    outer loop
      vertex -11.923457197253136 -33.88236569952782 0
      vertex -18 -31.17691453623979 100
      vertex -11.124611797498106 -34.238034586625524 0
    endloop
  endfacet
  facet normal 0.2079116908177568 0.9781476007338062 -2.025884443378714e-16
    outer loop
      vertex -4.181138530706139 -35.71391539026254 0
      vertex -11.124611797498106 -34.238034586625524 100
      vertex -3.763024677635525 -35.802788233257836 0
    endloop
  endfacet
  facet normal 0.20791169081775956 0.9781476007338056 0
    outer loop
      vertex -4.181138530706139 -35.71391539026254 0
      vertex -11.124611797498106 -34.238034586625524 0
      vertex -11.124611797498106 -34.238034586625524 100
    endloop
  endfacet
  facet normal 0 1 0
    outer loop
      vertex -3.763024677635525 -35.802788233257836 100
      vertex 3.763024677635525 -35.802788233257836 0
      vertex -3.763024677635525 -35.802788233257836 0
    endloop
  endfacet
  facet normal 0.7431448254773941 0.6691306063588582 0
    outer loop
      vertex -29.12461179749811 -21.160269082529034 100
      vertex -24.088701828918897 -26.753213717186192 100
      vertex -24.088701828918897 -26.753213717186192 0
    endloop
  endfacet
  facet normal 0.5877852522924729 0.8090169943749476 0
    outer loop
      vertex -18 -31.17691453623979 0
      vertex -24.088701828918897 -26.753213717186192 100
      vertex -18 -31.17691453623979 100
    endloop
  endfacet
  facet normal 0.8660254037844388 0.49999999999999994 0
    outer loop
      vertex -32.88763647513363 -14.642519150728807 100
      vertex -29.12461179749811 -21.160269082529034 100
      vertex -29.12461179749811 -21.160269082529034 0
    endloop
  endfacet
  facet normal 0.9510565162951535 0.3090169943749476 0
    outer loop
      vertex -35.213313626417005 -7.4848208694393366 100
      vertex -32.88763647513363 -14.642519150728807 100
      vertex -32.88763647513363 -14.642519150728807 0
    endloop
  endfacet
  facet normal 0.9945218953682733 0.10452846326765322 0
    outer loop
      vertex -35.213313626417005 -7.4848208694393366 0
      vertex -36 0 100
      vertex -35.213313626417005 -7.4848208694393366 100
    endloop
  endfacet
  facet normal 0.4067366430758 0.913545457642601 0
    outer loop
      vertex -11.124611797498106 -34.238034586625524 0
      vertex -18 -31.17691453623979 100
      vertex -11.124611797498106 -34.238034586625524 100
    endloop
  endfacet
  facet normal 0.2079116908177594 0.9781476007338057 0
    outer loop
      vertex -3.763024677635525 -35.802788233257836 0
      vertex -11.124611797498106 -34.238034586625524 100
      vertex -3.763024677635525 -35.802788233257836 100
    endloop
  endfacet
  facet normal 0.9945218953682733 -0.10452846326765322 0
    outer loop
      vertex -36 0 0
      vertex -35.213313626417005 7.4848208694393366 0
      vertex -35.213313626417005 7.4848208694393366 100
    endloop
  endfacet
  facet normal 0.9510565162951536 -0.3090169943749472 -3.973728579551235e-17
    outer loop
      vertex -33.486583804350126 12.79914881596413 0
      vertex -32.88763647513363 14.642519150728807 100
      vertex -35.213313626417005 7.4848208694393366 0
    endloop
  endfacet
  facet normal 0.951056516295153 -0.30901699437494906 0
    outer loop
      vertex -33.486583804350126 12.79914881596413 0
      vertex -32.88763647513363 14.642519150728807 0
      vertex -32.88763647513363 14.642519150728807 100
    endloop
  endfacet
  facet normal 0.8660254037844388 -0.4999999999999998 -4.213716323710023e-18
    outer loop
      vertex -32.3606797749979 15.555234928752737 0
      vertex -29.12461179749811 21.160269082529034 100
      vertex -32.88763647513363 14.642519150728807 0
    endloop
  endfacet
  facet normal 0.8660254037844388 -0.4999999999999999 0
    outer loop
      vertex -32.3606797749979 15.555234928752737 0
      vertex -29.12461179749811 21.160269082529034 0
      vertex -29.12461179749811 21.160269082529034 100
    endloop
  endfacet
  facet normal 0.7431448254773939 -0.6691306063588586 1.7988093014141222e-17
    outer loop
      vertex -27.472665245794193 22.99494159668033 0
      vertex -24.088701828918897 26.753213717186192 100
      vertex -29.12461179749811 21.160269082529034 0
    endloop
  endfacet
  facet normal 0.7431448254773945 -0.6691306063588579 -2.1002011889330716e-17
    outer loop
      vertex -27.472665245794193 22.99494159668033 0
      vertex -26.76522425435433 23.780634415276616 0
      vertex -24.088701828918897 26.753213717186192 100
    endloop
  endfacet
  facet normal 0.7431448254773941 -0.6691306063588583 0
    outer loop
      vertex -26.76522425435433 23.780634415276616 0
      vertex -24.088701828918897 26.753213717186192 0
      vertex -24.088701828918897 26.753213717186192 100
    endloop
  endfacet
  facet normal 0.5877852522924731 -0.8090169943749475 -1.628834495739396e-17
    outer loop
      vertex -20.559545552064357 29.317295840298076 0
      vertex -18 31.17691453623979 100
      vertex -24.088701828918897 26.753213717186192 0
    endloop
  endfacet
  facet normal 0.5877852522924715 -0.8090169943749487 4.4945938989815194e-17
    outer loop
      vertex -20.559545552064357 29.317295840298076 0
      vertex -20 29.723829480229067 0
      vertex -18 31.17691453623979 100
    endloop
  endfacet
  facet normal 0.5877852522924729 -0.8090169943749476 0
    outer loop
      vertex -20 29.723829480229067 0
      vertex -18 31.17691453623979 0
      vertex -18 31.17691453623979 100
    endloop
  endfacet
  facet normal 0.40673664307579965 -0.9135454576426011 2.4377117171204783e-17
    outer loop
      vertex -12.84083125764311 33.47392445268424 0
      vertex -11.124611797498106 34.238034586625524 100
      vertex -18 31.17691453623979 0
    endloop
  endfacet
  facet normal 0.4067366430758014 -0.9135454576426004 -1.0561658536686919e-17
    outer loop
      vertex -12.84083125764311 33.47392445268424 0
      vertex -12.360679774997896 33.68770166605131 0
      vertex -11.124611797498106 34.238034586625524 100
    endloop
  endfacet
  facet normal 0.4067366430758006 -0.9135454576426006 0
    outer loop
      vertex -12.360679774997896 33.68770166605131 0
      vertex -11.124611797498106 34.238034586625524 0
      vertex -11.124611797498106 34.238034586625524 100
    endloop
  endfacet
  facet normal 0.20791169081775956 -0.9781476007338056 -1.0682276251245347e-17
    outer loop
      vertex -4.6183611084509 35.62098086245261 0
      vertex -3.763024677635525 35.802788233257836 100
      vertex -11.124611797498106 34.238034586625524 0
    endloop
  endfacet
  facet normal 0.20791169081775981 -0.9781476007338055 -1.3350284229652345e-17
    outer loop
      vertex -4.6183611084509 35.62098086245261 0
      vertex -4.181138530706139 35.71391539026254 0
      vertex -3.763024677635525 35.802788233257836 100
    endloop
  endfacet
  facet normal 0.2079116908177568 -0.9781476007338062 0
    outer loop
      vertex -4.181138530706139 35.71391539026254 0
      vertex -3.763024677635525 35.802788233257836 0
      vertex -3.763024677635525 35.802788233257836 100
    endloop
  endfacet
  facet normal 0.9945218953682733 -0.10452846326765322 0
    outer loop
      vertex -35.213313626417005 7.4848208694393366 100
      vertex -36 0 100
      vertex -36 0 0
    endloop
  endfacet
  facet normal 0.9510565162951535 -0.3090169943749476 0
    outer loop
      vertex -35.213313626417005 7.4848208694393366 0
      vertex -32.88763647513363 14.642519150728807 100
      vertex -35.213313626417005 7.4848208694393366 100
    endloop
  endfacet
  facet normal 0.8660254037844388 -0.49999999999999994 0
    outer loop
      vertex -29.12461179749811 21.160269082529034 100
      vertex -32.88763647513363 14.642519150728807 100
      vertex -32.88763647513363 14.642519150728807 0
    endloop
  endfacet
  facet normal 0.7431448254773941 -0.6691306063588582 0
    outer loop
      vertex -24.088701828918897 26.753213717186192 100
      vertex -29.12461179749811 21.160269082529034 100
      vertex -29.12461179749811 21.160269082529034 0
    endloop
  endfacet
  facet normal 0.5877852522924729 -0.8090169943749476 0
    outer loop
      vertex -24.088701828918897 26.753213717186192 0
      vertex -18 31.17691453623979 100
      vertex -24.088701828918897 26.753213717186192 100
    endloop
  endfacet
  facet normal 0.4067366430758 -0.913545457642601 0
    outer loop
      vertex -18 31.17691453623979 0
      vertex -11.124611797498106 34.238034586625524 100
      vertex -18 31.17691453623979 100
    endloop
  endfacet
  facet normal 0.2079116908177594 -0.9781476007338057 0
    outer loop
      vertex -11.124611797498106 34.238034586625524 0
      vertex -3.763024677635525 35.802788233257836 100
      vertex -11.124611797498106 34.238034586625524 100
    endloop
  endfacet
  facet normal 0 -1 0
    outer loop
      vertex 3.763024677635525 35.802788233257836 100
      vertex -3.763024677635525 35.802788233257836 100
      vertex -3.763024677635525 35.802788233257836 0
    endloop
  endfacet
  facet normal -0.2079116908177568 0.9781476007338062 0
    outer loop
      vertex 4.181138530706139 -35.71391539026254 0
      vertex 3.763024677635525 -35.802788233257836 0
      vertex 3.763024677635525 -35.802788233257836 100
    endloop
  endfacet
  facet normal -0.20791169081775981 0.9781476007338055 -1.3350284229652345e-17
    outer loop
      vertex 4.6183611084509 -35.62098086245261 0
      vertex 4.181138530706139 -35.71391539026254 0
      vertex 3.763024677635525 -35.802788233257836 100
    endloop
  endfacet
  facet normal -0.20791169081775956 0.9781476007338056 -1.0682276251245347e-17
    outer loop
      vertex 4.6183611084509 -35.62098086245261 0
      vertex 3.763024677635525 -35.802788233257836 100
      vertex 11.124611797498106 -34.238034586625524 0
    endloop
  endfacet
  facet normal -0.4067366430758006 0.9135454576426006 0
    outer loop
      vertex 12.360679774997896 -33.68770166605131 0
      vertex 11.124611797498106 -34.238034586625524 0
      vertex 11.124611797498106 -34.238034586625524 100
    endloop
  endfacet
  facet normal -0.40673664307579976 0.913545457642601 1.1510484647364468e-17
    outer loop
      vertex 18 -31.17691453623979 0
      vertex 12.360679774997896 -33.68770166605131 0
      vertex 11.124611797498106 -34.238034586625524 100
    endloop
  endfacet
  facet normal -0.5877852522924727 0.8090169943749479 0
    outer loop
      vertex 20.559545552064357 -29.317295840298076 0
      vertex 18 -31.17691453623979 0
      vertex 18 -31.17691453623979 100
    endloop
  endfacet
  facet normal -0.5877852522924731 0.8090169943749475 -1.628834495739396e-17
    outer loop
      vertex 20.559545552064357 -29.317295840298076 0
      vertex 18 -31.17691453623979 100
      vertex 24.088701828918897 -26.753213717186192 0
    endloop
  endfacet
  facet normal -0.7431448254773941 0.6691306063588582 0
    outer loop
      vertex 29.12461179749811 -21.160269082529034 0
      vertex 24.088701828918897 -26.753213717186192 0
      vertex 24.088701828918897 -26.753213717186192 100
    endloop
  endfacet
  facet normal -0.8660254037844388 0.4999999999999999 0
    outer loop
      vertex 32.3606797749979 -15.555234928752737 0
      vertex 29.12461179749811 -21.160269082529034 0
      vertex 29.12461179749811 -21.160269082529034 100
    endloop
  endfacet
  facet normal -0.8660254037844388 0.4999999999999998 -4.213716323710023e-18
    outer loop
      vertex 32.3606797749979 -15.555234928752737 0
      vertex 29.12461179749811 -21.160269082529034 100
      vertex 32.88763647513363 -14.642519150728807 0
    endloop
  endfacet
  facet normal -0.9510565162951535 0.3090169943749476 0
    outer loop
      vertex 35.213313626417005 -7.4848208694393366 0
      vertex 32.88763647513363 -14.642519150728807 0
      vertex 32.88763647513363 -14.642519150728807 100
    endloop
  endfacet
  facet normal -0.9945218953682733 0.10452846326765322 0
    outer loop
      vertex 35.213313626417005 -7.4848208694393366 0
      vertex 35.213313626417005 -7.4848208694393366 100
      vertex 36 0 0
    endloop
  endfacet
  facet normal 0 1 0
    outer loop
      vertex -3.763024677635525 -35.802788233257836 100
      vertex 3.763024677635525 -35.802788233257836 100
      vertex 3.763024677635525 -35.802788233257836 0
    endloop
  endfacet
  facet normal -0.2079116908177594 0.9781476007338057 0
    outer loop
      vertex 11.124611797498106 -34.238034586625524 0
      vertex 3.763024677635525 -35.802788233257836 100
      vertex 11.124611797498106 -34.238034586625524 100
    endloop
  endfacet
  facet normal -0.4067366430758 0.913545457642601 0
    outer loop
      vertex 18 -31.17691453623979 0
      vertex 11.124611797498106 -34.238034586625524 100
      vertex 18 -31.17691453623979 100
    endloop
  endfacet
  facet normal -0.5877852522924729 0.8090169943749476 0
    outer loop
      vertex 24.088701828918897 -26.753213717186192 0
      vertex 18 -31.17691453623979 100
      vertex 24.088701828918897 -26.753213717186192 100
    endloop
  endfacet
  facet normal -0.7431448254773941 0.6691306063588582 0
    outer loop
      vertex 24.088701828918897 -26.753213717186192 100
      vertex 29.12461179749811 -21.160269082529034 100
      vertex 29.12461179749811 -21.160269082529034 0
    endloop
  endfacet
  facet normal -0.8660254037844388 0.49999999999999994 0
    outer loop
      vertex 29.12461179749811 -21.160269082529034 100
      vertex 32.88763647513363 -14.642519150728807 100
      vertex 32.88763647513363 -14.642519150728807 0
    endloop
  endfacet
  facet normal -0.9510565162951535 0.3090169943749476 0
    outer loop
      vertex 35.213313626417005 -7.4848208694393366 0
      vertex 32.88763647513363 -14.642519150728807 100
      vertex 35.213313626417005 -7.4848208694393366 100
    endloop
  endfacet
  facet normal -0.9945218953682733 0.10452846326765322 0
    outer loop
      vertex 35.213313626417005 -7.4848208694393366 100
      vertex 36 0 100
      vertex 36 0 0
    endloop
  endfacet
  facet normal 0 -1 0
    outer loop
      vertex 3.763024677635525 35.802788233257836 0
      vertex 3.763024677635525 35.802788233257836 100
      vertex -3.763024677635525 35.802788233257836 0
    endloop
  endfacet
  facet normal -0.20791169081775956 -0.9781476007338056 0
    outer loop
      vertex 4.181138530706139 35.71391539026254 0
      vertex 11.124611797498106 34.238034586625524 0
      vertex 11.124611797498106 34.238034586625524 100
    endloop
  endfacet
  facet normal -0.2079116908177568 -0.9781476007338062 -2.025884443378714e-16
    outer loop
      vertex 4.181138530706139 35.71391539026254 0
      vertex 11.124611797498106 34.238034586625524 100
      vertex 3.763024677635525 35.802788233257836 0
    endloop
  endfacet
  facet normal -0.4067366430758034 -0.9135454576425995 2.793189074056929e-16
    outer loop
      vertex 11.923457197253136 33.88236569952782 0
      vertex 18 31.17691453623979 100
      vertex 11.124611797498106 34.238034586625524 0
    endloop
  endfacet
  facet normal -0.40673664307579555 -0.9135454576426029 -2.8300730299534734e-16
    outer loop
      vertex 11.923457197253136 33.88236569952782 0
      vertex 12.360679774997896 33.68770166605131 0
      vertex 18 31.17691453623979 100
    endloop
  endfacet
  facet normal -0.40673664307579976 -0.913545457642601 0
    outer loop
      vertex 12.360679774997896 33.68770166605131 0
      vertex 18 31.17691453623979 0
      vertex 18 31.17691453623979 100
    endloop
  endfacet
  facet normal -0.9510565162951535 -0.3090169943749476 0
    outer loop
      vertex 32.88763647513363 14.642519150728807 0
      vertex 35.213313626417005 7.4848208694393366 0
      vertex 35.213313626417005 7.4848208694393366 100
    endloop
  endfacet
  facet normal -0.9945218953682733 -0.10452846326765322 0
    outer loop
      vertex 35.213313626417005 7.4848208694393366 0
      vertex 36 0 0
      vertex 36 0 100
    endloop
  endfacet
  facet normal -0.8660254037844388 -0.4999999999999999 0
    outer loop
      vertex 29.12461179749811 21.160269082529034 0
      vertex 32.3606797749979 15.555234928752737 0
      vertex 32.88763647513363 14.642519150728807 100
    endloop
  endfacet
  facet normal -0.8660254037844388 -0.4999999999999998 0
    outer loop
      vertex 32.3606797749979 15.555234928752737 0
      vertex 32.88763647513363 14.642519150728807 0
      vertex 32.88763647513363 14.642519150728807 100
    endloop
  endfacet
  facet normal -0.5877852522924729 -0.8090169943749476 0
    outer loop
      vertex 18 31.17691453623979 0
      vertex 24.088701828918897 26.753213717186192 0
      vertex 24.088701828918897 26.753213717186192 100
    endloop
  endfacet
  facet normal -0.7431448254773944 -0.669130606358858 2.5266059105510178e-17
    outer loop
      vertex 26.205678702289973 24.4020727080163 0
      vertex 29.12461179749811 21.160269082529034 100
      vertex 24.088701828918897 26.753213717186192 0
    endloop
  endfacet
  facet normal -0.743144825477394 -0.6691306063588586 0
    outer loop
      vertex 26.205678702289973 24.4020727080163 0
      vertex 29.12461179749811 21.160269082529034 0
      vertex 29.12461179749811 21.160269082529034 100
    endloop
  endfacet
  facet normal -0.2079116908177594 -0.9781476007338057 0
    outer loop
      vertex 3.763024677635525 35.802788233257836 0
      vertex 11.124611797498106 34.238034586625524 100
      vertex 3.763024677635525 35.802788233257836 100
    endloop
  endfacet
  facet normal -0.4067366430758 -0.913545457642601 0
    outer loop
      vertex 11.124611797498106 34.238034586625524 0
      vertex 18 31.17691453623979 100
      vertex 11.124611797498106 34.238034586625524 100
    endloop
  endfacet
  facet normal -0.9945218953682733 -0.10452846326765322 0
    outer loop
      vertex 35.213313626417005 7.4848208694393366 0
      vertex 36 0 100
      vertex 35.213313626417005 7.4848208694393366 100
    endloop
  endfacet
  facet normal -0.9510565162951535 -0.3090169943749476 0
    outer loop
      vertex 35.213313626417005 7.4848208694393366 100
      vertex 32.88763647513363 14.642519150728807 100
      vertex 32.88763647513363 14.642519150728807 0
    endloop
  endfacet
  facet normal -0.8660254037844388 -0.49999999999999994 0
    outer loop
      vertex 32.88763647513363 14.642519150728807 100
      vertex 29.12461179749811 21.160269082529034 100
      vertex 29.12461179749811 21.160269082529034 0
    endloop
  endfacet
  facet normal -0.5877852522924729 -0.8090169943749476 0
    outer loop
      vertex 18 31.17691453623979 0
      vertex 24.088701828918897 26.753213717186192 100
      vertex 18 31.17691453623979 100
    endloop
  endfacet
  facet normal -0.7431448254773941 -0.6691306063588582 0
    outer loop
      vertex 29.12461179749811 21.160269082529034 100
      vertex 24.088701828918897 26.753213717186192 100
      vertex 24.088701828918897 26.753213717186192 0
    endloop
  endfacet
endsolid OpenSCAD_Model
