solid OpenSCAD_Model
  facet normal 0 0 -1
    outer loop
      vertex 6.499999999479552 3.752776749432087 0
      vertex 6.1304060835617324 4.3302949800778165 0
      vertex 6.358509036187402 3.987818475734748 0
    endloop
  endfacet
  facet normal 0 0 -1
    outer loop
      vertex 6.499999999479552 3.752776749432087 0
      vertex 6.358509036187402 3.987818475734748 0
      vertex 6.430328514858214 3.87094413556065 0
    endloop
  endfacet
  facet normal 0 0 -1
    outer loop
      vertex 6.1304060835617324 4.3302949800778165 0
      vertex 6.284565551551928 4.103360709866631 0
      vertex 6.358509036187402 3.987818475734748 0
    endloop
  endfacet
  facet normal 0 0 -1
    outer loop
      vertex 6.1304060835617324 4.3302949800778165 0
      vertex 6.20852276771176 4.21753226162136 0
      vertex 6.284565551551928 4.103360709866631 0
    endloop
  endfacet
  facet normal 0.8614200407863832 0.5078932105586624 0
    outer loop
      vertex 6.430328514858214 3.87094413556065 0
      vertex 6.499999999479552 3.752776749432087 5.3
      vertex 6.499999999479552 3.752776749432087 0
    endloop
  endfacet
  facet normal 0.8422831343857057 0.5390353620398121 0
    outer loop
      vertex 6.284565551551928 4.103360709866631 0
      vertex 6.358509036187402 3.987818475734748 5.3
      vertex 6.358509036187402 3.987818475734748 0
    endloop
  endfacet
  facet normal 0.8519939117237103 0.5235516921811356 0
    outer loop
      vertex 6.358509036187402 3.987818475734748 0
      vertex 6.430328514858214 3.87094413556065 5.3
      vertex 6.430328514858214 3.87094413556065 0
    endloop
  endfacet
  facet normal -0.8422831552908681 -0.5390353293739283 0
    outer loop
      vertex 6.499999999479552 3.752776749432087 0
      vertex 6.1304060835617324 4.3302949800778165 5.3
      vertex 6.1304060835617324 4.3302949800778165 0
    endloop
  endfacet
  facet normal 0.8322910628654131 0.554338873501003 0
    outer loop
      vertex 6.20852276771176 4.21753226162136 0
      vertex 6.284565551551928 4.103360709866631 5.3
      vertex 6.284565551551928 4.103360709866631 0
    endloop
  endfacet
  facet normal 0.8220209353005858 0.5694572696239377 0
    outer loop
      vertex 6.1304060835617324 4.3302949800778165 0
      vertex 6.20852276771176 4.21753226162136 5.3
      vertex 6.20852276771176 4.21753226162136 0
    endloop
  endfacet
  facet normal 0.8220209353005858 0.5694572696239377 0
    outer loop
      vertex 6.1304060835617324 4.3302949800778165 0
      vertex 6.1304060835617324 4.3302949800778165 5.3
      vertex 6.20852276771176 4.21753226162136 5.3
    endloop
  endfacet
  facet normal 0.8422831343857057 0.5390353620398121 0
    outer loop
      vertex 6.284565551551928 4.103360709866631 0
      vertex 6.284565551551928 4.103360709866631 5.3
      vertex 6.358509036187402 3.987818475734748 5.3
    endloop
  endfacet
  facet normal 0.8614200407863832 0.5078932105586624 0
    outer loop
      vertex 6.430328514858214 3.87094413556065 0
      vertex 6.430328514858214 3.87094413556065 5.3
      vertex 6.499999999479552 3.752776749432087 5.3
    endloop
  endfacet
  facet normal -0.8422831552908681 -0.5390353293739283 0
    outer loop
      vertex 6.499999999479552 3.752776749432087 0
      vertex 6.499999999479552 3.752776749432087 5.3
      vertex 6.1304060835617324 4.3302949800778165 5.3
    endloop
  endfacet
  facet normal 0.8519939117237103 0.5235516921811356 0
    outer loop
      vertex 6.358509036187402 3.987818475734748 0
      vertex 6.358509036187402 3.987818475734748 5.3
      vertex 6.430328514858214 3.87094413556065 5.3
    endloop
  endfacet
  facet normal 0 0 1
    outer loop
      vertex 6.358509036187402 3.987818475734748 5.3
      vertex 6.1304060835617324 4.3302949800778165 5.3
      vertex 6.499999999479552 3.752776749432087 5.3
    endloop
  endfacet
  facet normal 0 0 1
    outer loop
      vertex 6.430328514858214 3.87094413556065 5.3
      vertex 6.358509036187402 3.987818475734748 5.3
      vertex 6.499999999479552 3.752776749432087 5.3
    endloop
  endfacet
  facet normal 0.8322910628654131 0.554338873501003 0
    outer loop
      vertex 6.20852276771176 4.21753226162136 0
      vertex 6.20852276771176 4.21753226162136 5.3
      vertex 6.284565551551928 4.103360709866631 5.3
    endloop
  endfacet
  facet normal 0 0 1
    outer loop
      vertex 6.358509036187402 3.987818475734748 5.3
      vertex 6.284565551551928 4.103360709866631 5.3
      vertex 6.1304060835617324 4.3302949800778165 5.3
    endloop
  endfacet
  facet normal 0 0 1
    outer loop
      vertex 6.284565551551928 4.103360709866631 5.3
      vertex 6.20852276771176 4.21753226162136 5.3
      vertex 6.1304060835617324 4.3302949800778165 5.3
    endloop
  endfacet
  facet normal -0.5680647467311558 -0.8229838658936564 0
    outer loop
      vertex -1.4184195481701427 -3.7400649707416593 0
      vertex -2.994042992684404 -2.652490632963181 -30
      vertex -1.4184195481701427 -3.7400649707416593 -30
    endloop
  endfacet
  facet normal 0 0 -1
    outer loop
      vertex -3.883767269704208 -0.9572626571502305 -30
      vertex -2.994042992684404 2.652490632963181 -30
      vertex -2.994042992684404 -2.652490632963181 -30
    endloop
  endfacet
  facet normal 0 0 -1
    outer loop
      vertex -2.994042992684404 -2.652490632963181 -30
      vertex -1.4184195481701427 3.7400649707416593 -30
      vertex -1.4184195481701427 -3.7400649707416593 -30
    endloop
  endfacet
  facet normal -0.8854560256532098 -0.4647231720437685 0
    outer loop
      vertex -2.994042992684404 -2.652490632963181 -30
      vertex -3.883767269704208 -0.9572626571502305 0
      vertex -3.883767269704208 -0.9572626571502305 -30
    endloop
  endfacet
  facet normal -0.12053668025532327 -0.9927088740980539 0
    outer loop
      vertex 0.482146721021291 -3.9708354963922163 0
      vertex -1.4184195481701427 -3.7400649707416593 -30
      vertex 0.482146721021291 -3.9708354963922163 -30
    endloop
  endfacet
  facet normal 0 0 -1
    outer loop
      vertex -1.4184195481701427 -3.7400649707416593 -30
      vertex 0.48214672102129197 3.970835496392216 -30
      vertex 0.482146721021291 -3.9708354963922163 -30
    endloop
  endfacet
  facet normal -0.8854560256532098 -0.4647231720437685 0
    outer loop
      vertex -3.883767269704208 -0.9572626571502305 0
      vertex -2.994042992684404 -2.652490632963181 -30
      vertex -2.994042992684404 -2.652490632963181 0
    endloop
  endfacet
  facet normal -0.5680647467311558 -0.8229838658936564 0
    outer loop
      vertex -2.994042992684404 -2.652490632963181 -30
      vertex -1.4184195481701427 -3.7400649707416593 0
      vertex -2.994042992684404 -2.652490632963181 0
    endloop
  endfacet
  facet normal -1 0 0
    outer loop
      vertex -3.883767269704208 0.9572626571502305 0
      vertex -3.883767269704208 -0.9572626571502305 -30
      vertex -3.883767269704208 -0.9572626571502305 0
    endloop
  endfacet
  facet normal 0 0 1
    outer loop
      vertex -2.994042992684404 -2.652490632963181 0
      vertex -3.883767269704208 0.9572626571502305 0
      vertex -3.883767269704208 -0.9572626571502305 0
    endloop
  endfacet
  facet normal 0 0 1
    outer loop
      vertex -2.994042992684404 2.652490632963181 0
      vertex -2.994042992684404 -2.652490632963181 0
      vertex -1.4184195481701427 -3.7400649707416593 0
    endloop
  endfacet
  facet normal -0.12053668025532327 -0.9927088740980539 0
    outer loop
      vertex -1.4184195481701427 -3.7400649707416593 -30
      vertex 0.482146721021291 -3.9708354963922163 0
      vertex -1.4184195481701427 -3.7400649707416593 0
    endloop
  endfacet
  facet normal 0.35460488704253584 -0.9350162426854147 0
    outer loop
      vertex 0.482146721021291 -3.9708354963922163 -30
      vertex 2.2722589869246246 -3.2919354635746245 0
      vertex 0.482146721021291 -3.9708354963922163 0
    endloop
  endfacet
  facet normal 0 0 1
    outer loop
      vertex -1.4184195481701427 3.7400649707416593 0
      vertex -1.4184195481701427 -3.7400649707416593 0
      vertex 0.482146721021291 -3.9708354963922163 0
    endloop
  endfacet
  facet normal 0 0 1
    outer loop
      vertex 0.48214672102129197 3.970835496392216 0
      vertex 0.482146721021291 -3.9708354963922163 0
      vertex 2.2722589869246246 -3.2919354635746245 0
    endloop
  endfacet
  facet normal 0 0 -1
    outer loop
      vertex -2.994042992684404 2.652490632963181 -30
      vertex -3.883767269704208 -0.9572626571502305 -30
      vertex -3.883767269704208 0.9572626571502305 -30
    endloop
  endfacet
  facet normal 0 0 -1
    outer loop
      vertex -2.994042992684404 -2.652490632963181 -30
      vertex -2.994042992684404 2.652490632963181 -30
      vertex -1.4184195481701427 3.7400649707416593 -30
    endloop
  endfacet
  facet normal -1 0 0
    outer loop
      vertex -3.883767269704208 -0.9572626571502305 -30
      vertex -3.883767269704208 0.9572626571502305 0
      vertex -3.883767269704208 0.9572626571502305 -30
    endloop
  endfacet
  facet normal -0.8854560256532098 0.4647231720437685 0
    outer loop
      vertex -3.883767269704208 0.9572626571502305 -30
      vertex -2.994042992684404 2.652490632963181 0
      vertex -2.994042992684404 2.652490632963181 -30
    endloop
  endfacet
  facet normal -0.5680647467311558 0.8229838658936564 0
    outer loop
      vertex -2.994042992684404 2.652490632963181 0
      vertex -1.4184195481701427 3.7400649707416593 -30
      vertex -2.994042992684404 2.652490632963181 -30
    endloop
  endfacet
  facet normal 0 0 -1
    outer loop
      vertex -1.4184195481701427 -3.7400649707416593 -30
      vertex -1.4184195481701427 3.7400649707416593 -30
      vertex 0.48214672102129197 3.970835496392216 -30
    endloop
  endfacet
  facet normal 0 0 -1
    outer loop
      vertex 0.482146721021291 -3.9708354963922163 -30
      vertex 0.48214672102129197 3.970835496392216 -30
      vertex 2.272258986924623 3.291935463574626 -30
    endloop
  endfacet
  facet normal -0.12053668025532299 0.9927088740980541 0
    outer loop
      vertex -1.4184195481701427 3.7400649707416593 0
      vertex 0.48214672102129197 3.970835496392216 -30
      vertex -1.4184195481701427 3.7400649707416593 -30
    endloop
  endfacet
  facet normal 0.35460488704253545 0.9350162426854148 0
    outer loop
      vertex 0.48214672102129197 3.970835496392216 0
      vertex 2.272258986924623 3.291935463574626 -30
      vertex 0.48214672102129197 3.970835496392216 -30
    endloop
  endfacet
  facet normal -0.8854560256532098 0.4647231720437685 0
    outer loop
      vertex -2.994042992684404 2.652490632963181 0
      vertex -3.883767269704208 0.9572626571502305 -30
      vertex -3.883767269704208 0.9572626571502305 0
    endloop
  endfacet
  facet normal 0 0 1
    outer loop
      vertex -3.883767269704208 0.9572626571502305 0
      vertex -2.994042992684404 -2.652490632963181 0
      vertex -2.994042992684404 2.652490632963181 0
    endloop
  endfacet
  facet normal 0 0 1
    outer loop
      vertex -2.994042992684404 2.652490632963181 0
      vertex -1.4184195481701427 -3.7400649707416593 0
      vertex -1.4184195481701427 3.7400649707416593 0
    endloop
  endfacet
  facet normal -0.5680647467311558 0.8229838658936564 0
    outer loop
      vertex -1.4184195481701427 3.7400649707416593 -30
      vertex -2.994042992684404 2.652490632963181 0
      vertex -1.4184195481701427 3.7400649707416593 0
    endloop
  endfacet
  facet normal 0 0 1
    outer loop
      vertex -1.4184195481701427 3.7400649707416593 0
      vertex 0.482146721021291 -3.9708354963922163 0
      vertex 0.48214672102129197 3.970835496392216 0
    endloop
  endfacet
  facet normal -0.12053668025532299 0.9927088740980541 0
    outer loop
      vertex 0.48214672102129197 3.970835496392216 -30
      vertex -1.4184195481701427 3.7400649707416593 0
      vertex 0.48214672102129197 3.970835496392216 0
    endloop
  endfacet
  facet normal 0.35460488704253584 -0.9350162426854147 0
    outer loop
      vertex 2.2722589869246246 -3.2919354635746245 0
      vertex 0.482146721021291 -3.9708354963922163 -30
      vertex 2.2722589869246246 -3.2919354635746245 -30
    endloop
  endfacet
  facet normal 0.7485107481711013 -0.663122658240795 0
    outer loop
      vertex 3.54182410261284 -1.8588926881750734 -30
      vertex 2.2722589869246246 -3.2919354635746245 0
      vertex 2.2722589869246246 -3.2919354635746245 -30
    endloop
  endfacet
  facet normal 0 0 -1
    outer loop
      vertex 0.482146721021291 -3.9708354963922163 -30
      vertex 2.272258986924623 3.291935463574626 -30
      vertex 2.2722589869246246 -3.2919354635746245 -30
    endloop
  endfacet
  facet normal 0 0 -1
    outer loop
      vertex 2.2722589869246246 -3.2919354635746245 -30
      vertex 3.5418241026128396 1.8588926881750742 -30
      vertex 3.54182410261284 -1.8588926881750734 -30
    endloop
  endfacet
  facet normal 0 0 -1
    outer loop
      vertex 3.54182410261284 -1.8588926881750734 -30
      vertex 3.5418241026128396 1.8588926881750742 -30
      vertex 4 0 -30
    endloop
  endfacet
  facet normal 0.9709418174260521 -0.23931566428755766 0
    outer loop
      vertex 4 0 -30
      vertex 3.54182410261284 -1.8588926881750734 0
      vertex 3.54182410261284 -1.8588926881750734 -30
    endloop
  endfacet
  facet normal 0.7485107481711013 -0.663122658240795 0
    outer loop
      vertex 2.2722589869246246 -3.2919354635746245 0
      vertex 3.54182410261284 -1.8588926881750734 -30
      vertex 3.54182410261284 -1.8588926881750734 0
    endloop
  endfacet
  facet normal 0.9709418174260521 -0.23931566428755766 0
    outer loop
      vertex 3.54182410261284 -1.8588926881750734 0
      vertex 4 0 -30
      vertex 4 0 0
    endloop
  endfacet
  facet normal 0 0 1
    outer loop
      vertex 2.272258986924623 3.291935463574626 0
      vertex 2.2722589869246246 -3.2919354635746245 0
      vertex 3.54182410261284 -1.8588926881750734 0
    endloop
  endfacet
  facet normal 0 0 1
    outer loop
      vertex 3.5418241026128396 1.8588926881750742 0
      vertex 3.54182410261284 -1.8588926881750734 0
      vertex 4 0 0
    endloop
  endfacet
  facet normal 0 0 -1
    outer loop
      vertex 2.2722589869246246 -3.2919354635746245 -30
      vertex 2.272258986924623 3.291935463574626 -30
      vertex 3.5418241026128396 1.8588926881750742 -30
    endloop
  endfacet
  facet normal 0.970941817426052 0.2393156642875577 0
    outer loop
      vertex 3.5418241026128396 1.8588926881750742 -30
      vertex 4 0 0
      vertex 4 0 -30
    endloop
  endfacet
  facet normal 0.748510748171101 0.6631226582407953 0
    outer loop
      vertex 2.272258986924623 3.291935463574626 -30
      vertex 3.5418241026128396 1.8588926881750742 0
      vertex 3.5418241026128396 1.8588926881750742 -30
    endloop
  endfacet
  facet normal 0.970941817426052 0.2393156642875577 0
    outer loop
      vertex 4 0 0
      vertex 3.5418241026128396 1.8588926881750742 -30
      vertex 3.5418241026128396 1.8588926881750742 0
    endloop
  endfacet
  facet normal 0 0 1
    outer loop
      vertex 0.48214672102129197 3.970835496392216 0
      vertex 2.2722589869246246 -3.2919354635746245 0
      vertex 2.272258986924623 3.291935463574626 0
    endloop
  endfacet
  facet normal 0 0 1
    outer loop
      vertex 2.272258986924623 3.291935463574626 0
      vertex 3.54182410261284 -1.8588926881750734 0
      vertex 3.5418241026128396 1.8588926881750742 0
    endloop
  endfacet
  facet normal 0.35460488704253545 0.9350162426854148 0
    outer loop
      vertex 2.272258986924623 3.291935463574626 -30
      vertex 0.48214672102129197 3.970835496392216 0
      vertex 2.272258986924623 3.291935463574626 0
    endloop
  endfacet
  facet normal 0.748510748171101 0.6631226582407953 0
    outer loop
      vertex 3.5418241026128396 1.8588926881750742 0
      vertex 2.272258986924623 3.291935463574626 -30
      vertex 2.272258986924623 3.291935463574626 0
    endloop
  endfacet
endsolid OpenSCAD_Model
