solid OpenSCAD_Model
  facet normal 0 0 -1
    outer loop
      vertex -14.725 -6.75 -6.525
      vertex -5.05 2.1 -6.525
      vertex -5.05 -5.1 -6.525
    endloop
  endfacet
  facet normal 0 0 -1
    outer loop
      vertex -14.725 -6.75 -6.525
      vertex -5.05 -5.1 -6.525
      vertex 14.725 -6.75 -6.525
    endloop
  endfacet
  facet normal -1 0 0
    outer loop
      vertex -14.725 6.75 6.525
      vertex -14.725 -6.75 -6.525
      vertex -14.725 -6.75 -4.725
    endloop
  endfacet
  facet normal -1 0 0
    outer loop
      vertex -14.725 -6.75 -4.725
      vertex -14.725 -6.75 6.525
      vertex -14.725 6.75 6.525
    endloop
  endfacet
  facet normal 0 -1 0
    outer loop
      vertex -14.725 -6.75 6.525
      vertex -14.725 -6.75 -4.725
      vertex 14.725 -6.75 -4.725
    endloop
  endfacet
  facet normal 0 0 1
    outer loop
      vertex -14.725 -6.75 6.525
      vertex 14.725 -6.75 6.525
      vertex -14.725 6.75 6.525
    endloop
  endfacet
  facet normal 0 0 -1
    outer loop
      vertex -14.725 6.75 -6.525
      vertex -5.05 2.1 -6.525
      vertex -14.725 -6.75 -6.525
    endloop
  endfacet
  facet normal 0 0 -1
    outer loop
      vertex -14.725 6.75 -6.525
      vertex 14.725 6.75 -6.525
      vertex -5.05 2.1 -6.525
    endloop
  endfacet
  facet normal -1 0 0
    outer loop
      vertex -14.725 -6.75 -6.525
      vertex -14.725 6.75 6.525
      vertex -14.725 6.75 -6.525
    endloop
  endfacet
  facet normal 0.7409511561520051 0 0.671558920867713
    outer loop
      vertex -4.141421355307102 3.9299999999999997 -0.24142135679721832
      vertex -4.141421355307102 4.35 -0.24142135679721832
      vertex -4.154602088034153 3.9299999999999997 -0.22687865793704987
    endloop
  endfacet
  facet normal 0.8032075268220934 0 0.5956993107737628
    outer loop
      vertex -4.154602088034153 3.9299999999999997 -0.22687865793704987
      vertex -4.154602088034153 4.35 -0.22687865793704987
      vertex -4.166293919086456 3.9299999999999997 -0.2111140489578247
    endloop
  endfacet
  facet normal 0.9039894190111376 0 0.427554827263014
    outer loop
      vertex -4.176384255290031 3.9299999999999997 -0.19427935034036636
      vertex -4.176384255290031 4.35 -0.19427935034036636
      vertex -4.1847759038209915 3.9299999999999997 -0.1765366867184639
    endloop
  endfacet
  facet normal 0.857728471451364 0 0.5141029753480393
    outer loop
      vertex -4.176384255290031 3.9299999999999997 -0.19427935034036636
      vertex -4.166293919086456 3.9299999999999997 -0.2111140489578247
      vertex -4.166293919086456 4.35 -0.2111140489578247
    endloop
  endfacet
  facet normal 0.998795456762925 0 0.04906766297410044
    outer loop
      vertex -4.1990369483828545 3.9299999999999997 -0.11960343271493912
      vertex -4.1990369483828545 4.35 -0.11960343271493912
      vertex -4.200000002980232 3.9299999999999997 -0.10000000149011612
    endloop
  endfacet
  facet normal 0.9415439578533845 0 0.33689015335830735
    outer loop
      vertex -4.1847759038209915 3.9299999999999997 -0.1765366867184639
      vertex -4.1847759038209915 4.35 -0.1765366867184639
      vertex -4.1913880705833435 3.9299999999999997 -0.15805693715810776
    endloop
  endfacet
  facet normal 0.9700313297539693 0 0.2429798742607013
    outer loop
      vertex -4.1913880705833435 3.9299999999999997 -0.15805693715810776
      vertex -4.1913880705833435 4.35 -0.15805693715810776
      vertex -4.196157053112984 3.9299999999999997 -0.13901806622743607
    endloop
  endfacet
  facet normal 0.9891764623771123 0 0.14673079526500712
    outer loop
      vertex -4.1990369483828545 3.9299999999999997 -0.11960343271493912
      vertex -4.196157053112984 3.9299999999999997 -0.13901806622743607
      vertex -4.196157053112984 4.35 -0.13901806622743607
    endloop
  endfacet
  facet normal 0.7409511561520051 0 0.671558920867713
    outer loop
      vertex -4.154602088034153 3.9299999999999997 -0.22687865793704987
      vertex -4.141421355307102 4.35 -0.24142135679721832
      vertex -4.154602088034153 4.35 -0.22687865793704987
    endloop
  endfacet
  facet normal 0.8032075268220934 0 0.5956993107737628
    outer loop
      vertex -4.166293919086456 3.9299999999999997 -0.2111140489578247
      vertex -4.154602088034153 4.35 -0.22687865793704987
      vertex -4.166293919086456 4.35 -0.2111140489578247
    endloop
  endfacet
  facet normal 0.857728471451364 0 0.5141029753480393
    outer loop
      vertex -4.176384255290031 3.9299999999999997 -0.19427935034036636
      vertex -4.166293919086456 4.35 -0.2111140489578247
      vertex -4.176384255290031 4.35 -0.19427935034036636
    endloop
  endfacet
  facet normal 0.9039894190111376 0 0.427554827263014
    outer loop
      vertex -4.1847759038209915 3.9299999999999997 -0.1765366867184639
      vertex -4.176384255290031 4.35 -0.19427935034036636
      vertex -4.1847759038209915 4.35 -0.1765366867184639
    endloop
  endfacet
  facet normal 0.998795456762925 0 0.04906766297410044
    outer loop
      vertex -4.200000002980232 3.9299999999999997 -0.10000000149011612
      vertex -4.1990369483828545 4.35 -0.11960343271493912
      vertex -4.200000002980232 4.35 -0.10000000149011612
    endloop
  endfacet
  facet normal 0.9415439578533845 0 0.33689015335830735
    outer loop
      vertex -4.1913880705833435 3.9299999999999997 -0.15805693715810776
      vertex -4.1847759038209915 4.35 -0.1765366867184639
      vertex -4.1913880705833435 4.35 -0.15805693715810776
    endloop
  endfacet
  facet normal 0.9700313297539693 0 0.2429798742607013
    outer loop
      vertex -4.196157053112984 3.9299999999999997 -0.13901806622743607
      vertex -4.1913880705833435 4.35 -0.15805693715810776
      vertex -4.196157053112984 4.35 -0.13901806622743607
    endloop
  endfacet
  facet normal 0.9891764623771123 0 0.14673079526500712
    outer loop
      vertex -4.1990369483828545 3.9299999999999997 -0.11960343271493912
      vertex -4.196157053112984 4.35 -0.13901806622743607
      vertex -4.1990369483828545 4.35 -0.11960343271493912
    endloop
  endfacet
  facet normal 0.5956993107737628 0 0.8032075268220934
    outer loop
      vertex -4.126878656446934 3.9299999999999997 -0.2546020895242691
      vertex -4.111114047467709 3.9299999999999997 -0.2662939205765724
      vertex -4.111114047467709 4.35 -0.2662939205765724
    endloop
  endfacet
  facet normal 0.671558920867713 0 0.7409511561520051
    outer loop
      vertex -4.141421355307102 3.9299999999999997 -0.24142135679721832
      vertex -4.126878656446934 3.9299999999999997 -0.2546020895242691
      vertex -4.126878656446934 4.35 -0.2546020895242691
    endloop
  endfacet
  facet normal 0.5141029753480393 0 0.857728471451364
    outer loop
      vertex -4.09427934885025 3.9299999999999997 -0.27638425678014755
      vertex -4.09427934885025 4.35 -0.27638425678014755
      vertex -4.111114047467709 3.9299999999999997 -0.2662939205765724
    endloop
  endfacet
  facet normal 0.33689015335830735 0 0.9415439578533845
    outer loop
      vertex -4.058056935667992 3.9299999999999997 -0.2913880720734596
      vertex -4.058056935667992 4.35 -0.2913880720734596
      vertex -4.076536685228348 3.9299999999999997 -0.28477590531110764
    endloop
  endfacet
  facet normal 0.2429798742607013 0 0.9700313297539693
    outer loop
      vertex -4.058056935667992 3.9299999999999997 -0.2913880720734596
      vertex -4.03901806473732 3.9299999999999997 -0.2961570546030998
      vertex -4.03901806473732 4.35 -0.2961570546030998
    endloop
  endfacet
  facet normal 0.427554827263014 0 0.9039894190111376
    outer loop
      vertex -4.09427934885025 3.9299999999999997 -0.27638425678014755
      vertex -4.076536685228348 3.9299999999999997 -0.28477590531110764
      vertex -4.076536685228348 4.35 -0.28477590531110764
    endloop
  endfacet
  facet normal 0.14673079526500712 0 0.9891764623771123
    outer loop
      vertex -4.03901806473732 3.9299999999999997 -0.2961570546030998
      vertex -4.019603431224823 3.9299999999999997 -0.2990369498729706
      vertex -4.019603431224823 4.35 -0.2990369498729706
    endloop
  endfacet
  facet normal 0.04906766297410044 0 0.998795456762925
    outer loop
      vertex -4.019603431224823 3.9299999999999997 -0.2990369498729706
      vertex -4 3.9299999999999997 -0.30000000447034836
      vertex -4 4.35 -0.30000000447034836
    endloop
  endfacet
  facet normal 0.5956993107737628 0 0.8032075268220934
    outer loop
      vertex -4.126878656446934 3.9299999999999997 -0.2546020895242691
      vertex -4.111114047467709 4.35 -0.2662939205765724
      vertex -4.126878656446934 4.35 -0.2546020895242691
    endloop
  endfacet
  facet normal 0.427554827263014 0 0.9039894190111376
    outer loop
      vertex -4.09427934885025 3.9299999999999997 -0.27638425678014755
      vertex -4.076536685228348 4.35 -0.28477590531110764
      vertex -4.09427934885025 4.35 -0.27638425678014755
    endloop
  endfacet
  facet normal 0.5141029753480393 0 0.857728471451364
    outer loop
      vertex -4.111114047467709 3.9299999999999997 -0.2662939205765724
      vertex -4.09427934885025 4.35 -0.27638425678014755
      vertex -4.111114047467709 4.35 -0.2662939205765724
    endloop
  endfacet
  facet normal 0.33689015335830735 0 0.9415439578533845
    outer loop
      vertex -4.076536685228348 3.9299999999999997 -0.28477590531110764
      vertex -4.058056935667992 4.35 -0.2913880720734596
      vertex -4.076536685228348 4.35 -0.28477590531110764
    endloop
  endfacet
  facet normal 0.14673079526500712 0 0.9891764623771123
    outer loop
      vertex -4.03901806473732 3.9299999999999997 -0.2961570546030998
      vertex -4.019603431224823 4.35 -0.2990369498729706
      vertex -4.03901806473732 4.35 -0.2961570546030998
    endloop
  endfacet
  facet normal 0.2429798742607013 0 0.9700313297539693
    outer loop
      vertex -4.058056935667992 3.9299999999999997 -0.2913880720734596
      vertex -4.03901806473732 4.35 -0.2961570546030998
      vertex -4.058056935667992 4.35 -0.2913880720734596
    endloop
  endfacet
  facet normal 0.04906766297410044 0 0.998795456762925
    outer loop
      vertex -4.019603431224823 3.9299999999999997 -0.2990369498729706
      vertex -4 4.35 -0.30000000447034836
      vertex -4.019603431224823 4.35 -0.2990369498729706
    endloop
  endfacet
  facet normal 0.671558920867713 0 0.7409511561520051
    outer loop
      vertex -4.141421355307102 3.9299999999999997 -0.24142135679721832
      vertex -4.126878656446934 4.35 -0.2546020895242691
      vertex -4.141421355307102 4.35 -0.24142135679721832
    endloop
  endfacet
  facet normal 1 0 0
    outer loop
      vertex -4.200000002980232 3.9299999999999997 -0.10000000149011612
      vertex -4.200000002980232 4.35 -0.10000000149011612
      vertex -4.200000002980232 3.9299999999999997 3.100000001490116
    endloop
  endfacet
  facet normal 0 1 0
    outer loop
      vertex -14.725 6.75 -6.525
      vertex -14.725 6.75 6.525
      vertex 14.725 6.75 -6.525
    endloop
  endfacet
  facet normal 0 1 0
    outer loop
      vertex -4.176384255290031 3.9299999999999997 -0.19427935034036636
      vertex 4.1913880705833435 3.9299999999999997 -0.15805693715810776
      vertex -4.166293919086456 3.9299999999999997 -0.2111140489578247
    endloop
  endfacet
  facet normal 0 1 0
    outer loop
      vertex -4.176384255290031 3.9299999999999997 -0.19427935034036636
      vertex -4.1847759038209915 3.9299999999999997 -0.1765366867184639
      vertex 4.196157053112984 3.9299999999999997 -0.13901806622743607
    endloop
  endfacet
  facet normal 0 1 0
    outer loop
      vertex -4.1847759038209915 3.9299999999999997 -0.1765366867184639
      vertex -4.1913880705833435 3.9299999999999997 -0.15805693715810776
      vertex 4.1990369483828545 3.9299999999999997 -0.11960343271493912
    endloop
  endfacet
  facet normal 0 1 0
    outer loop
      vertex -4.1913880705833435 3.9299999999999997 -0.15805693715810776
      vertex -4.196157053112984 3.9299999999999997 -0.13901806622743607
      vertex 4.200000002980232 3.9299999999999997 -0.10000000149011612
    endloop
  endfacet
  facet normal 0 1 0
    outer loop
      vertex -4.03901806473732 3.9299999999999997 -0.2961570546030998
      vertex 4.076536685228348 3.9299999999999997 -0.28477590531110764
      vertex -4.019603431224823 3.9299999999999997 -0.2990369498729706
    endloop
  endfacet
  facet normal 0 1 0
    outer loop
      vertex -4.058056935667992 3.9299999999999997 -0.2913880720734596
      vertex 4.09427934885025 3.9299999999999997 -0.27638425678014755
      vertex -4.03901806473732 3.9299999999999997 -0.2961570546030998
    endloop
  endfacet
  facet normal 0 1 0
    outer loop
      vertex -4.09427934885025 3.9299999999999997 -0.27638425678014755
      vertex -4.111114047467709 3.9299999999999997 -0.2662939205765724
      vertex 4.141421355307102 3.9299999999999997 -0.24142135679721832
    endloop
  endfacet
  facet normal 0 1 0
    outer loop
      vertex -4.058056935667992 3.9299999999999997 -0.2913880720734596
      vertex -4.076536685228348 3.9299999999999997 -0.28477590531110764
      vertex 4.111114047467709 3.9299999999999997 -0.2662939205765724
    endloop
  endfacet
  facet normal 0 1 0
    outer loop
      vertex -4.09427934885025 3.9299999999999997 -0.27638425678014755
      vertex 4.126878656446934 3.9299999999999997 -0.2546020895242691
      vertex -4.076536685228348 3.9299999999999997 -0.28477590531110764
    endloop
  endfacet
  facet normal 0 1 0
    outer loop
      vertex -4.019603431224823 3.9299999999999997 -0.2990369498729706
      vertex 4.058056935667992 3.9299999999999997 -0.2913880720734596
      vertex -4 3.9299999999999997 -0.30000000447034836
    endloop
  endfacet
  facet normal 0 1 0
    outer loop
      vertex -4.126878656446934 3.9299999999999997 -0.2546020895242691
      vertex 4.154602088034153 3.9299999999999997 -0.22687865793704987
      vertex -4.111114047467709 3.9299999999999997 -0.2662939205765724
    endloop
  endfacet
  facet normal 0 1 0
    outer loop
      vertex -4.141421355307102 3.9299999999999997 -0.24142135679721832
      vertex 4.166293919086456 3.9299999999999997 -0.2111140489578247
      vertex -4.126878656446934 3.9299999999999997 -0.2546020895242691
    endloop
  endfacet
  facet normal 0 1 0
    outer loop
      vertex -4.141421355307102 3.9299999999999997 -0.24142135679721832
      vertex -4.154602088034153 3.9299999999999997 -0.22687865793704987
      vertex 4.176384255290031 3.9299999999999997 -0.19427935034036636
    endloop
  endfacet
  facet normal 0 1 0
    outer loop
      vertex -4.154602088034153 3.9299999999999997 -0.22687865793704987
      vertex -4.166293919086456 3.9299999999999997 -0.2111140489578247
      vertex 4.1847759038209915 3.9299999999999997 -0.1765366867184639
    endloop
  endfacet
  facet normal 0 0 1
    outer loop
      vertex -4 3.9299999999999997 -0.30000000447034836
      vertex 4 4.35 -0.30000000447034836
      vertex -4 4.35 -0.30000000447034836
    endloop
  endfacet
  facet normal 0 1 0
    outer loop
      vertex -4.1990369483828545 3.9299999999999997 -0.11960343271493912
      vertex 4.200000002980232 3.9299999999999997 3.100000001490116
      vertex -4.196157053112984 3.9299999999999997 -0.13901806622743607
    endloop
  endfacet
  facet normal 0 1 0
    outer loop
      vertex -4.1990369483828545 3.9299999999999997 -0.11960343271493912
      vertex -4.200000002980232 3.9299999999999997 -0.10000000149011612
      vertex 4.1990369483828545 3.9299999999999997 3.119603432714939
    endloop
  endfacet
  facet normal 0 -1 0
    outer loop
      vertex -4.176384255290031 4.35 -0.19427935034036636
      vertex -4.166293919086456 4.35 -0.2111140489578247
      vertex 4.1913880705833435 4.35 -0.15805693715810776
    endloop
  endfacet
  facet normal 0 -1 0
    outer loop
      vertex -4.176384255290031 4.35 -0.19427935034036636
      vertex 4.196157053112984 4.35 -0.13901806622743607
      vertex -4.1847759038209915 4.35 -0.1765366867184639
    endloop
  endfacet
  facet normal 0 -1 0
    outer loop
      vertex -4.1847759038209915 4.35 -0.1765366867184639
      vertex 4.1990369483828545 4.35 -0.11960343271493912
      vertex -4.1913880705833435 4.35 -0.15805693715810776
    endloop
  endfacet
  facet normal 0 -1 0
    outer loop
      vertex -4.1913880705833435 4.35 -0.15805693715810776
      vertex 4.200000002980232 4.35 -0.10000000149011612
      vertex -4.196157053112984 4.35 -0.13901806622743607
    endloop
  endfacet
  facet normal 0 -1 0
    outer loop
      vertex -4.03901806473732 4.35 -0.2961570546030998
      vertex -4.019603431224823 4.35 -0.2990369498729706
      vertex 4.076536685228348 4.35 -0.28477590531110764
    endloop
  endfacet
  facet normal 0 -1 0
    outer loop
      vertex -4.058056935667992 4.35 -0.2913880720734596
      vertex -4.03901806473732 4.35 -0.2961570546030998
      vertex 4.09427934885025 4.35 -0.27638425678014755
    endloop
  endfacet
  facet normal 0 -1 0
    outer loop
      vertex -4.09427934885025 4.35 -0.27638425678014755
      vertex 4.141421355307102 4.35 -0.24142135679721832
      vertex -4.111114047467709 4.35 -0.2662939205765724
    endloop
  endfacet
  facet normal 0 -1 0
    outer loop
      vertex -4.058056935667992 4.35 -0.2913880720734596
      vertex 4.111114047467709 4.35 -0.2662939205765724
      vertex -4.076536685228348 4.35 -0.28477590531110764
    endloop
  endfacet
  facet normal 0 -1 0
    outer loop
      vertex -4.09427934885025 4.35 -0.27638425678014755
      vertex -4.076536685228348 4.35 -0.28477590531110764
      vertex 4.126878656446934 4.35 -0.2546020895242691
    endloop
  endfacet
  facet normal 0 -1 0
    outer loop
      vertex -4.019603431224823 4.35 -0.2990369498729706
      vertex -4 4.35 -0.30000000447034836
      vertex 4.058056935667992 4.35 -0.2913880720734596
    endloop
  endfacet
  facet normal 0 -1 0
    outer loop
      vertex -4.126878656446934 4.35 -0.2546020895242691
      vertex -4.111114047467709 4.35 -0.2662939205765724
      vertex 4.154602088034153 4.35 -0.22687865793704987
    endloop
  endfacet
  facet normal 0 -1 0
    outer loop
      vertex -4.141421355307102 4.35 -0.24142135679721832
      vertex -4.126878656446934 4.35 -0.2546020895242691
      vertex 4.166293919086456 4.35 -0.2111140489578247
    endloop
  endfacet
  facet normal 0 -1 0
    outer loop
      vertex -4.141421355307102 4.35 -0.24142135679721832
      vertex 4.176384255290031 4.35 -0.19427935034036636
      vertex -4.154602088034153 4.35 -0.22687865793704987
    endloop
  endfacet
  facet normal 0 -1 0
    outer loop
      vertex -4.154602088034153 4.35 -0.22687865793704987
      vertex 4.1847759038209915 4.35 -0.1765366867184639
      vertex -4.166293919086456 4.35 -0.2111140489578247
    endloop
  endfacet
  facet normal 0 -1 0
    outer loop
      vertex -4.1990369483828545 4.35 -0.11960343271493912
      vertex -4.196157053112984 4.35 -0.13901806622743607
      vertex 4.200000002980232 4.35 3.100000001490116
    endloop
  endfacet
  facet normal 0 -1 0
    outer loop
      vertex -4.1990369483828545 4.35 -0.11960343271493912
      vertex 4.1990369483828545 4.35 3.119603432714939
      vertex -4.200000002980232 4.35 -0.10000000149011612
    endloop
  endfacet
  facet normal 1 0 0
    outer loop
      vertex -4.200000002980232 4.35 -0.10000000149011612
      vertex -4.200000002980232 4.35 3.100000001490116
      vertex -4.200000002980232 3.9299999999999997 3.100000001490116
    endloop
  endfacet
  facet normal 0.998795456762925 0 -0.04906766297410044
    outer loop
      vertex -4.200000002980232 3.9299999999999997 3.100000001490116
      vertex -4.200000002980232 4.35 3.100000001490116
      vertex -4.1990369483828545 3.9299999999999997 3.119603432714939
    endloop
  endfacet
  facet normal 0.9891764623771123 0 -0.14673079526500712
    outer loop
      vertex -4.1990369483828545 3.9299999999999997 3.119603432714939
      vertex -4.1990369483828545 4.35 3.119603432714939
      vertex -4.196157053112984 3.9299999999999997 3.139018066227436
    endloop
  endfacet
  facet normal 0.9700313297539693 0 -0.2429798742607013
    outer loop
      vertex -4.196157053112984 3.9299999999999997 3.139018066227436
      vertex -4.196157053112984 4.35 3.139018066227436
      vertex -4.1913880705833435 3.9299999999999997 3.1580569371581078
    endloop
  endfacet
  facet normal 0.9415439578533845 0 -0.33689015335830735
    outer loop
      vertex -4.1913880705833435 3.9299999999999997 3.1580569371581078
      vertex -4.1913880705833435 4.35 3.1580569371581078
      vertex -4.1847759038209915 3.9299999999999997 3.176536686718464
    endloop
  endfacet
  facet normal 0.9039894190111376 0 -0.427554827263014
    outer loop
      vertex -4.1847759038209915 3.9299999999999997 3.176536686718464
      vertex -4.1847759038209915 4.35 3.176536686718464
      vertex -4.176384255290031 3.9299999999999997 3.1942793503403664
    endloop
  endfacet
  facet normal 0.857728471451364 0 -0.5141029753480393
    outer loop
      vertex -4.176384255290031 3.9299999999999997 3.1942793503403664
      vertex -4.176384255290031 4.35 3.1942793503403664
      vertex -4.166293919086456 3.9299999999999997 3.2111140489578247
    endloop
  endfacet
  facet normal 0.8032075268220934 0 -0.5956993107737628
    outer loop
      vertex -4.166293919086456 3.9299999999999997 3.2111140489578247
      vertex -4.166293919086456 4.35 3.2111140489578247
      vertex -4.154602088034153 3.9299999999999997 3.22687865793705
    endloop
  endfacet
  facet normal 0.7409511561520051 0 -0.671558920867713
    outer loop
      vertex -4.154602088034153 3.9299999999999997 3.22687865793705
      vertex -4.154602088034153 4.35 3.22687865793705
      vertex -4.141421355307102 3.9299999999999997 3.2414213567972183
    endloop
  endfacet
  facet normal 0.998795456762925 0 -0.04906766297410044
    outer loop
      vertex -4.1990369483828545 3.9299999999999997 3.119603432714939
      vertex -4.200000002980232 4.35 3.100000001490116
      vertex -4.1990369483828545 4.35 3.119603432714939
    endloop
  endfacet
  facet normal 0.9891764623771123 0 -0.14673079526500712
    outer loop
      vertex -4.196157053112984 3.9299999999999997 3.139018066227436
      vertex -4.1990369483828545 4.35 3.119603432714939
      vertex -4.196157053112984 4.35 3.139018066227436
    endloop
  endfacet
  facet normal 0.9700313297539693 0 -0.2429798742607013
    outer loop
      vertex -4.1913880705833435 3.9299999999999997 3.1580569371581078
      vertex -4.196157053112984 4.35 3.139018066227436
      vertex -4.1913880705833435 4.35 3.1580569371581078
    endloop
  endfacet
  facet normal 0.9415439578533845 0 -0.33689015335830735
    outer loop
      vertex -4.1847759038209915 3.9299999999999997 3.176536686718464
      vertex -4.1913880705833435 4.35 3.1580569371581078
      vertex -4.1847759038209915 4.35 3.176536686718464
    endloop
  endfacet
  facet normal 0.9039894190111376 0 -0.427554827263014
    outer loop
      vertex -4.176384255290031 3.9299999999999997 3.1942793503403664
      vertex -4.1847759038209915 4.35 3.176536686718464
      vertex -4.176384255290031 4.35 3.1942793503403664
    endloop
  endfacet
  facet normal 0.857728471451364 0 -0.5141029753480393
    outer loop
      vertex -4.166293919086456 3.9299999999999997 3.2111140489578247
      vertex -4.176384255290031 4.35 3.1942793503403664
      vertex -4.166293919086456 4.35 3.2111140489578247
    endloop
  endfacet
  facet normal 0.8032075268220934 0 -0.5956993107737628
    outer loop
      vertex -4.154602088034153 3.9299999999999997 3.22687865793705
      vertex -4.166293919086456 4.35 3.2111140489578247
      vertex -4.154602088034153 4.35 3.22687865793705
    endloop
  endfacet
  facet normal 0.7409511561520051 0 -0.671558920867713
    outer loop
      vertex -4.141421355307102 3.9299999999999997 3.2414213567972183
      vertex -4.154602088034153 4.35 3.22687865793705
      vertex -4.141421355307102 4.35 3.2414213567972183
    endloop
  endfacet
  facet normal 0 1 0
    outer loop
      vertex -4.03901806473732 3.9299999999999997 3.2961570546031
      vertex -4.019603431224823 3.9299999999999997 3.2990369498729706
      vertex -4 3.9299999999999997 3.3000000044703484
    endloop
  endfacet
  facet normal 0.671558920867713 0 -0.7409511561520051
    outer loop
      vertex -4.141421355307102 3.9299999999999997 3.2414213567972183
      vertex -4.141421355307102 4.35 3.2414213567972183
      vertex -4.126878656446934 3.9299999999999997 3.254602089524269
    endloop
  endfacet
  facet normal 0.5956993107737628 0 -0.8032075268220934
    outer loop
      vertex -4.126878656446934 3.9299999999999997 3.254602089524269
      vertex -4.126878656446934 4.35 3.254602089524269
      vertex -4.111114047467709 3.9299999999999997 3.2662939205765724
    endloop
  endfacet
  facet normal 0.5141029753480393 0 -0.857728471451364
    outer loop
      vertex -4.111114047467709 3.9299999999999997 3.2662939205765724
      vertex -4.111114047467709 4.35 3.2662939205765724
      vertex -4.09427934885025 3.9299999999999997 3.2763842567801476
    endloop
  endfacet
  facet normal 0.427554827263014 0 -0.9039894190111376
    outer loop
      vertex -4.09427934885025 3.9299999999999997 3.2763842567801476
      vertex -4.09427934885025 4.35 3.2763842567801476
      vertex -4.076536685228348 3.9299999999999997 3.2847759053111076
    endloop
  endfacet
  facet normal 0.33689015335830735 0 -0.9415439578533845
    outer loop
      vertex -4.076536685228348 3.9299999999999997 3.2847759053111076
      vertex -4.076536685228348 4.35 3.2847759053111076
      vertex -4.058056935667992 3.9299999999999997 3.2913880720734596
    endloop
  endfacet
  facet normal 0.2429798742607013 0 -0.9700313297539693
    outer loop
      vertex -4.058056935667992 3.9299999999999997 3.2913880720734596
      vertex -4.058056935667992 4.35 3.2913880720734596
      vertex -4.03901806473732 3.9299999999999997 3.2961570546031
    endloop
  endfacet
  facet normal 0.14673079526500712 0 -0.9891764623771123
    outer loop
      vertex -4.03901806473732 3.9299999999999997 3.2961570546031
      vertex -4.03901806473732 4.35 3.2961570546031
      vertex -4.019603431224823 3.9299999999999997 3.2990369498729706
    endloop
  endfacet
  facet normal 0.04906766297410044 0 -0.998795456762925
    outer loop
      vertex -4.019603431224823 3.9299999999999997 3.2990369498729706
      vertex -4.019603431224823 4.35 3.2990369498729706
      vertex -4 3.9299999999999997 3.3000000044703484
    endloop
  endfacet
  facet normal 0.671558920867713 0 -0.7409511561520051
    outer loop
      vertex -4.126878656446934 3.9299999999999997 3.254602089524269
      vertex -4.141421355307102 4.35 3.2414213567972183
      vertex -4.126878656446934 4.35 3.254602089524269
    endloop
  endfacet
  facet normal 0.5956993107737628 0 -0.8032075268220934
    outer loop
      vertex -4.111114047467709 3.9299999999999997 3.2662939205765724
      vertex -4.126878656446934 4.35 3.254602089524269
      vertex -4.111114047467709 4.35 3.2662939205765724
    endloop
  endfacet
  facet normal 0.5141029753480393 0 -0.857728471451364
    outer loop
      vertex -4.09427934885025 3.9299999999999997 3.2763842567801476
      vertex -4.111114047467709 4.35 3.2662939205765724
      vertex -4.09427934885025 4.35 3.2763842567801476
    endloop
  endfacet
  facet normal 0.427554827263014 0 -0.9039894190111376
    outer loop
      vertex -4.076536685228348 3.9299999999999997 3.2847759053111076
      vertex -4.09427934885025 4.35 3.2763842567801476
      vertex -4.076536685228348 4.35 3.2847759053111076
    endloop
  endfacet
  facet normal 0.33689015335830735 0 -0.9415439578533845
    outer loop
      vertex -4.058056935667992 3.9299999999999997 3.2913880720734596
      vertex -4.076536685228348 4.35 3.2847759053111076
      vertex -4.058056935667992 4.35 3.2913880720734596
    endloop
  endfacet
  facet normal 0.2429798742607013 0 -0.9700313297539693
    outer loop
      vertex -4.03901806473732 3.9299999999999997 3.2961570546031
      vertex -4.058056935667992 4.35 3.2913880720734596
      vertex -4.03901806473732 4.35 3.2961570546031
    endloop
  endfacet
  facet normal 0.14673079526500712 0 -0.9891764623771123
    outer loop
      vertex -4.019603431224823 3.9299999999999997 3.2990369498729706
      vertex -4.03901806473732 4.35 3.2961570546031
      vertex -4.019603431224823 4.35 3.2990369498729706
    endloop
  endfacet
  facet normal 0.04906766297410044 0 -0.998795456762925
    outer loop
      vertex -4 3.9299999999999997 3.3000000044703484
      vertex -4.019603431224823 4.35 3.2990369498729706
      vertex -4 4.35 3.3000000044703484
    endloop
  endfacet
  facet normal 0 -1 0
    outer loop
      vertex -4.03901806473732 4.35 3.2961570546031
      vertex -4 4.35 3.3000000044703484
      vertex -4.019603431224823 4.35 3.2990369498729706
    endloop
  endfacet
  facet normal 0 1 0
    outer loop
      vertex -4.200000002980232 3.9299999999999997 -0.10000000149011612
      vertex -4.200000002980232 3.9299999999999997 3.100000001490116
      vertex 4.196157053112984 3.9299999999999997 3.139018066227436
    endloop
  endfacet
  facet normal 0 1 0
    outer loop
      vertex -4.200000002980232 3.9299999999999997 3.100000001490116
      vertex -4.1990369483828545 3.9299999999999997 3.119603432714939
      vertex 4.1913880705833435 3.9299999999999997 3.1580569371581078
    endloop
  endfacet
  facet normal 0 1 0
    outer loop
      vertex -4.1990369483828545 3.9299999999999997 3.119603432714939
      vertex -4.196157053112984 3.9299999999999997 3.139018066227436
      vertex 4.1847759038209915 3.9299999999999997 3.176536686718464
    endloop
  endfacet
  facet normal 0 1 0
    outer loop
      vertex -4.196157053112984 3.9299999999999997 3.139018066227436
      vertex -4.1913880705833435 3.9299999999999997 3.1580569371581078
      vertex 4.176384255290031 3.9299999999999997 3.1942793503403664
    endloop
  endfacet
  facet normal 0 1 0
    outer loop
      vertex -4.1913880705833435 3.9299999999999997 3.1580569371581078
      vertex -4.1847759038209915 3.9299999999999997 3.176536686718464
      vertex 4.166293919086456 3.9299999999999997 3.2111140489578247
    endloop
  endfacet
  facet normal 0 1 0
    outer loop
      vertex -4.1847759038209915 3.9299999999999997 3.176536686718464
      vertex -4.176384255290031 3.9299999999999997 3.1942793503403664
      vertex 4.154602088034153 3.9299999999999997 3.22687865793705
    endloop
  endfacet
  facet normal 0 1 0
    outer loop
      vertex -4.176384255290031 3.9299999999999997 3.1942793503403664
      vertex -4.166293919086456 3.9299999999999997 3.2111140489578247
      vertex 4.141421355307102 3.9299999999999997 3.2414213567972183
    endloop
  endfacet
  facet normal 0 1 0
    outer loop
      vertex -4.166293919086456 3.9299999999999997 3.2111140489578247
      vertex -4.154602088034153 3.9299999999999997 3.22687865793705
      vertex 4.126878656446934 3.9299999999999997 3.254602089524269
    endloop
  endfacet
  facet normal 0 1 0
    outer loop
      vertex -4.154602088034153 3.9299999999999997 3.22687865793705
      vertex -4.141421355307102 3.9299999999999997 3.2414213567972183
      vertex 4.111114047467709 3.9299999999999997 3.2662939205765724
    endloop
  endfacet
  facet normal 0 1 0
    outer loop
      vertex -4.141421355307102 3.9299999999999997 3.2414213567972183
      vertex -4.126878656446934 3.9299999999999997 3.254602089524269
      vertex 4.09427934885025 3.9299999999999997 3.2763842567801476
    endloop
  endfacet
  facet normal 0 1 0
    outer loop
      vertex -4.126878656446934 3.9299999999999997 3.254602089524269
      vertex -4.111114047467709 3.9299999999999997 3.2662939205765724
      vertex 4.076536685228348 3.9299999999999997 3.2847759053111076
    endloop
  endfacet
  facet normal 0 1 0
    outer loop
      vertex -4.111114047467709 3.9299999999999997 3.2662939205765724
      vertex -4.09427934885025 3.9299999999999997 3.2763842567801476
      vertex 4.058056935667992 3.9299999999999997 3.2913880720734596
    endloop
  endfacet
  facet normal 0 1 0
    outer loop
      vertex -4.09427934885025 3.9299999999999997 3.2763842567801476
      vertex -4.076536685228348 3.9299999999999997 3.2847759053111076
      vertex 4.03901806473732 3.9299999999999997 3.2961570546031
    endloop
  endfacet
  facet normal 0 1 0
    outer loop
      vertex -4.076536685228348 3.9299999999999997 3.2847759053111076
      vertex -4.058056935667992 3.9299999999999997 3.2913880720734596
      vertex 4.019603431224823 3.9299999999999997 3.2990369498729706
    endloop
  endfacet
  facet normal 0 1 0
    outer loop
      vertex -4.058056935667992 3.9299999999999997 3.2913880720734596
      vertex -4.03901806473732 3.9299999999999997 3.2961570546031
      vertex 4 3.9299999999999997 3.3000000044703484
    endloop
  endfacet
  facet normal 0 1 0
    outer loop
      vertex -4.03901806473732 3.9299999999999997 3.2961570546031
      vertex -4 3.9299999999999997 3.3000000044703484
      vertex 4 3.9299999999999997 3.3000000044703484
    endloop
  endfacet
  facet normal 0 0 -1
    outer loop
      vertex -4 3.9299999999999997 3.3000000044703484
      vertex -4 4.35 3.3000000044703484
      vertex 4 3.9299999999999997 3.3000000044703484
    endloop
  endfacet
  facet normal 0 -1 0
    outer loop
      vertex -4.200000002980232 4.35 -0.10000000149011612
      vertex 4.196157053112984 4.35 3.139018066227436
      vertex -4.200000002980232 4.35 3.100000001490116
    endloop
  endfacet
  facet normal 0 -1 0
    outer loop
      vertex -4.200000002980232 4.35 3.100000001490116
      vertex 4.1913880705833435 4.35 3.1580569371581078
      vertex -4.1990369483828545 4.35 3.119603432714939
    endloop
  endfacet
  facet normal 0 -1 0
    outer loop
      vertex -4.1990369483828545 4.35 3.119603432714939
      vertex 4.1847759038209915 4.35 3.176536686718464
      vertex -4.196157053112984 4.35 3.139018066227436
    endloop
  endfacet
  facet normal 0 -1 0
    outer loop
      vertex -4.196157053112984 4.35 3.139018066227436
      vertex 4.176384255290031 4.35 3.1942793503403664
      vertex -4.1913880705833435 4.35 3.1580569371581078
    endloop
  endfacet
  facet normal 0 -1 0
    outer loop
      vertex -4.1913880705833435 4.35 3.1580569371581078
      vertex 4.166293919086456 4.35 3.2111140489578247
      vertex -4.1847759038209915 4.35 3.176536686718464
    endloop
  endfacet
  facet normal 0 -1 0
    outer loop
      vertex -4.1847759038209915 4.35 3.176536686718464
      vertex 4.154602088034153 4.35 3.22687865793705
      vertex -4.176384255290031 4.35 3.1942793503403664
    endloop
  endfacet
  facet normal 0 -1 0
    outer loop
      vertex -4.176384255290031 4.35 3.1942793503403664
      vertex 4.141421355307102 4.35 3.2414213567972183
      vertex -4.166293919086456 4.35 3.2111140489578247
    endloop
  endfacet
  facet normal 0 -1 0
    outer loop
      vertex -4.166293919086456 4.35 3.2111140489578247
      vertex 4.126878656446934 4.35 3.254602089524269
      vertex -4.154602088034153 4.35 3.22687865793705
    endloop
  endfacet
  facet normal 0 -1 0
    outer loop
      vertex -4.154602088034153 4.35 3.22687865793705
      vertex 4.111114047467709 4.35 3.2662939205765724
      vertex -4.141421355307102 4.35 3.2414213567972183
    endloop
  endfacet
  facet normal 0 -1 0
    outer loop
      vertex -4.141421355307102 4.35 3.2414213567972183
      vertex 4.09427934885025 4.35 3.2763842567801476
      vertex -4.126878656446934 4.35 3.254602089524269
    endloop
  endfacet
  facet normal 0 -1 0
    outer loop
      vertex -4.126878656446934 4.35 3.254602089524269
      vertex 4.076536685228348 4.35 3.2847759053111076
      vertex -4.111114047467709 4.35 3.2662939205765724
    endloop
  endfacet
  facet normal 0 -1 0
    outer loop
      vertex -4.111114047467709 4.35 3.2662939205765724
      vertex 4.058056935667992 4.35 3.2913880720734596
      vertex -4.09427934885025 4.35 3.2763842567801476
    endloop
  endfacet
  facet normal 0 -1 0
    outer loop
      vertex -4.09427934885025 4.35 3.2763842567801476
      vertex 4.03901806473732 4.35 3.2961570546031
      vertex -4.076536685228348 4.35 3.2847759053111076
    endloop
  endfacet
  facet normal 0 -1 0
    outer loop
      vertex -4.076536685228348 4.35 3.2847759053111076
      vertex 4.019603431224823 4.35 3.2990369498729706
      vertex -4.058056935667992 4.35 3.2913880720734596
    endloop
  endfacet
  facet normal 0 -1 0
    outer loop
      vertex -4.058056935667992 4.35 3.2913880720734596
      vertex 4 4.35 3.3000000044703484
      vertex -4.03901806473732 4.35 3.2961570546031
    endloop
  endfacet
  facet normal 0 -1 0
    outer loop
      vertex -4.03901806473732 4.35 3.2961570546031
      vertex 4 4.35 3.3000000044703484
      vertex -4 4.35 3.3000000044703484
    endloop
  endfacet
  facet normal 0 -1 0
    outer loop
      vertex -14.725 -6.75 -6.525
      vertex 14.725 -6.75 -6.525
      vertex 14.725 -6.75 -4.725
    endloop
  endfacet
  facet normal 0 0 -1
    outer loop
      vertex 14.725 -6.75 -6.525
      vertex -5.05 -5.1 -6.525
      vertex 5.05 -5.1 -6.525
    endloop
  endfacet
  facet normal 0 0 -1
    outer loop
      vertex 14.725 -6.75 -6.525
      vertex 5.05 -5.1 -6.525
      vertex 5.05 2.1 -6.525
    endloop
  endfacet
  facet normal 1 0 0
    outer loop
      vertex 14.725 -6.75 -6.525
      vertex 14.725 6.75 -6.525
      vertex 14.725 -6.75 -4.725
    endloop
  endfacet
  facet normal 0 -1 0
    outer loop
      vertex -14.725 -6.75 6.525
      vertex 14.725 -6.75 -4.725
      vertex 14.725 -6.75 6.525
    endloop
  endfacet
  facet normal 1 0 0
    outer loop
      vertex 14.725 6.75 -6.525
      vertex 14.725 -6.75 6.525
      vertex 14.725 -6.75 -4.725
    endloop
  endfacet
  facet normal 0 0 -1
    outer loop
      vertex 14.725 6.75 -6.525
      vertex 5.05 2.1 -6.525
      vertex -5.05 2.1 -6.525
    endloop
  endfacet
  facet normal 0 0 -1
    outer loop
      vertex 14.725 -6.75 -6.525
      vertex 5.05 2.1 -6.525
      vertex 14.725 6.75 -6.525
    endloop
  endfacet
  facet normal 0 0 1
    outer loop
      vertex -14.725 6.75 6.525
      vertex 14.725 -6.75 6.525
      vertex 14.725 6.75 6.525
    endloop
  endfacet
  facet normal 0 1 0
    outer loop
      vertex -4 3.9299999999999997 -0.30000000447034836
      vertex 4.03901806473732 3.9299999999999997 -0.2961570546030998
      vertex 4 3.9299999999999997 -0.30000000447034836
    endloop
  endfacet
  facet normal 0 1 0
    outer loop
      vertex -4 3.9299999999999997 -0.30000000447034836
      vertex 4.058056935667992 3.9299999999999997 -0.2913880720734596
      vertex 4.03901806473732 3.9299999999999997 -0.2961570546030998
    endloop
  endfacet
  facet normal 0 1 0
    outer loop
      vertex -4.019603431224823 3.9299999999999997 -0.2990369498729706
      vertex 4.076536685228348 3.9299999999999997 -0.28477590531110764
      vertex 4.058056935667992 3.9299999999999997 -0.2913880720734596
    endloop
  endfacet
  facet normal 0 1 0
    outer loop
      vertex -4.03901806473732 3.9299999999999997 -0.2961570546030998
      vertex 4.09427934885025 3.9299999999999997 -0.27638425678014755
      vertex 4.076536685228348 3.9299999999999997 -0.28477590531110764
    endloop
  endfacet
  facet normal 0 0 1
    outer loop
      vertex -4 3.9299999999999997 -0.30000000447034836
      vertex 4 3.9299999999999997 -0.30000000447034836
      vertex 4 4.35 -0.30000000447034836
    endloop
  endfacet
  facet normal 0 1 0
    outer loop
      vertex -4.058056935667992 3.9299999999999997 -0.2913880720734596
      vertex 4.111114047467709 3.9299999999999997 -0.2662939205765724
      vertex 4.09427934885025 3.9299999999999997 -0.27638425678014755
    endloop
  endfacet
  facet normal 0 1 0
    outer loop
      vertex -4.076536685228348 3.9299999999999997 -0.28477590531110764
      vertex 4.126878656446934 3.9299999999999997 -0.2546020895242691
      vertex 4.111114047467709 3.9299999999999997 -0.2662939205765724
    endloop
  endfacet
  facet normal 0 1 0
    outer loop
      vertex -4.09427934885025 3.9299999999999997 -0.27638425678014755
      vertex 4.141421355307102 3.9299999999999997 -0.24142135679721832
      vertex 4.126878656446934 3.9299999999999997 -0.2546020895242691
    endloop
  endfacet
  facet normal 0 1 0
    outer loop
      vertex -4.111114047467709 3.9299999999999997 -0.2662939205765724
      vertex 4.154602088034153 3.9299999999999997 -0.22687865793704987
      vertex 4.141421355307102 3.9299999999999997 -0.24142135679721832
    endloop
  endfacet
  facet normal 0 1 0
    outer loop
      vertex -4.126878656446934 3.9299999999999997 -0.2546020895242691
      vertex 4.166293919086456 3.9299999999999997 -0.2111140489578247
      vertex 4.154602088034153 3.9299999999999997 -0.22687865793704987
    endloop
  endfacet
  facet normal 0 1 0
    outer loop
      vertex -4.141421355307102 3.9299999999999997 -0.24142135679721832
      vertex 4.176384255290031 3.9299999999999997 -0.19427935034036636
      vertex 4.166293919086456 3.9299999999999997 -0.2111140489578247
    endloop
  endfacet
  facet normal 0 1 0
    outer loop
      vertex -4.154602088034153 3.9299999999999997 -0.22687865793704987
      vertex 4.1847759038209915 3.9299999999999997 -0.1765366867184639
      vertex 4.176384255290031 3.9299999999999997 -0.19427935034036636
    endloop
  endfacet
  facet normal 0 1 0
    outer loop
      vertex -4.166293919086456 3.9299999999999997 -0.2111140489578247
      vertex 4.1913880705833435 3.9299999999999997 -0.15805693715810776
      vertex 4.1847759038209915 3.9299999999999997 -0.1765366867184639
    endloop
  endfacet
  facet normal 0 1 0
    outer loop
      vertex -4.176384255290031 3.9299999999999997 -0.19427935034036636
      vertex 4.196157053112984 3.9299999999999997 -0.13901806622743607
      vertex 4.1913880705833435 3.9299999999999997 -0.15805693715810776
    endloop
  endfacet
  facet normal 0 1 0
    outer loop
      vertex -4.1847759038209915 3.9299999999999997 -0.1765366867184639
      vertex 4.1990369483828545 3.9299999999999997 -0.11960343271493912
      vertex 4.196157053112984 3.9299999999999997 -0.13901806622743607
    endloop
  endfacet
  facet normal 0 1 0
    outer loop
      vertex -4.1913880705833435 3.9299999999999997 -0.15805693715810776
      vertex 4.200000002980232 3.9299999999999997 -0.10000000149011612
      vertex 4.1990369483828545 3.9299999999999997 -0.11960343271493912
    endloop
  endfacet
  facet normal 0 1 0
    outer loop
      vertex -4.196157053112984 3.9299999999999997 -0.13901806622743607
      vertex 4.200000002980232 3.9299999999999997 3.100000001490116
      vertex 4.200000002980232 3.9299999999999997 -0.10000000149011612
    endloop
  endfacet
  facet normal 0 -1 0
    outer loop
      vertex -4 4.35 -0.30000000447034836
      vertex 4 4.35 -0.30000000447034836
      vertex 4.03901806473732 4.35 -0.2961570546030998
    endloop
  endfacet
  facet normal 0 -1 0
    outer loop
      vertex -4 4.35 -0.30000000447034836
      vertex 4.03901806473732 4.35 -0.2961570546030998
      vertex 4.058056935667992 4.35 -0.2913880720734596
    endloop
  endfacet
  facet normal 0 -1 0
    outer loop
      vertex -4.019603431224823 4.35 -0.2990369498729706
      vertex 4.058056935667992 4.35 -0.2913880720734596
      vertex 4.076536685228348 4.35 -0.28477590531110764
    endloop
  endfacet
  facet normal 0 -1 0
    outer loop
      vertex -4.03901806473732 4.35 -0.2961570546030998
      vertex 4.076536685228348 4.35 -0.28477590531110764
      vertex 4.09427934885025 4.35 -0.27638425678014755
    endloop
  endfacet
  facet normal 0 -1 0
    outer loop
      vertex -4.058056935667992 4.35 -0.2913880720734596
      vertex 4.09427934885025 4.35 -0.27638425678014755
      vertex 4.111114047467709 4.35 -0.2662939205765724
    endloop
  endfacet
  facet normal 0 -1 0
    outer loop
      vertex -4.076536685228348 4.35 -0.28477590531110764
      vertex 4.111114047467709 4.35 -0.2662939205765724
      vertex 4.126878656446934 4.35 -0.2546020895242691
    endloop
  endfacet
  facet normal 0 -1 0
    outer loop
      vertex -4.09427934885025 4.35 -0.27638425678014755
      vertex 4.126878656446934 4.35 -0.2546020895242691
      vertex 4.141421355307102 4.35 -0.24142135679721832
    endloop
  endfacet
  facet normal 0 -1 0
    outer loop
      vertex -4.111114047467709 4.35 -0.2662939205765724
      vertex 4.141421355307102 4.35 -0.24142135679721832
      vertex 4.154602088034153 4.35 -0.22687865793704987
    endloop
  endfacet
  facet normal 0 -1 0
    outer loop
      vertex -4.126878656446934 4.35 -0.2546020895242691
      vertex 4.154602088034153 4.35 -0.22687865793704987
      vertex 4.166293919086456 4.35 -0.2111140489578247
    endloop
  endfacet
  facet normal 0 -1 0
    outer loop
      vertex -4.141421355307102 4.35 -0.24142135679721832
      vertex 4.166293919086456 4.35 -0.2111140489578247
      vertex 4.176384255290031 4.35 -0.19427935034036636
    endloop
  endfacet
  facet normal 0 -1 0
    outer loop
      vertex -4.154602088034153 4.35 -0.22687865793704987
      vertex 4.176384255290031 4.35 -0.19427935034036636
      vertex 4.1847759038209915 4.35 -0.1765366867184639
    endloop
  endfacet
  facet normal 0 -1 0
    outer loop
      vertex -4.166293919086456 4.35 -0.2111140489578247
      vertex 4.1847759038209915 4.35 -0.1765366867184639
      vertex 4.1913880705833435 4.35 -0.15805693715810776
    endloop
  endfacet
  facet normal 0 -1 0
    outer loop
      vertex -4.176384255290031 4.35 -0.19427935034036636
      vertex 4.1913880705833435 4.35 -0.15805693715810776
      vertex 4.196157053112984 4.35 -0.13901806622743607
    endloop
  endfacet
  facet normal 0 -1 0
    outer loop
      vertex -4.1847759038209915 4.35 -0.1765366867184639
      vertex 4.196157053112984 4.35 -0.13901806622743607
      vertex 4.1990369483828545 4.35 -0.11960343271493912
    endloop
  endfacet
  facet normal 0 -1 0
    outer loop
      vertex -4.1913880705833435 4.35 -0.15805693715810776
      vertex 4.1990369483828545 4.35 -0.11960343271493912
      vertex 4.200000002980232 4.35 -0.10000000149011612
    endloop
  endfacet
  facet normal 0 -1 0
    outer loop
      vertex -4.196157053112984 4.35 -0.13901806622743607
      vertex 4.200000002980232 4.35 -0.10000000149011612
      vertex 4.200000002980232 4.35 3.100000001490116
    endloop
  endfacet
  facet normal 0 1 0
    outer loop
      vertex 4 3.9299999999999997 -0.30000000447034836
      vertex 4.03901806473732 3.9299999999999997 -0.2961570546030998
      vertex 4.019603431224823 3.9299999999999997 -0.2990369498729706
    endloop
  endfacet
  facet normal -0.04906766297410044 0 0.998795456762925
    outer loop
      vertex 4 3.9299999999999997 -0.30000000447034836
      vertex 4.019603431224823 3.9299999999999997 -0.2990369498729706
      vertex 4.019603431224823 4.35 -0.2990369498729706
    endloop
  endfacet
  facet normal -0.14673079526500712 0 0.9891764623771123
    outer loop
      vertex 4.019603431224823 3.9299999999999997 -0.2990369498729706
      vertex 4.03901806473732 3.9299999999999997 -0.2961570546030998
      vertex 4.03901806473732 4.35 -0.2961570546030998
    endloop
  endfacet
  facet normal -0.2429798742607013 0 0.9700313297539693
    outer loop
      vertex 4.03901806473732 3.9299999999999997 -0.2961570546030998
      vertex 4.058056935667992 3.9299999999999997 -0.2913880720734596
      vertex 4.058056935667992 4.35 -0.2913880720734596
    endloop
  endfacet
  facet normal -0.33689015335830735 0 0.9415439578533845
    outer loop
      vertex 4.058056935667992 3.9299999999999997 -0.2913880720734596
      vertex 4.076536685228348 3.9299999999999997 -0.28477590531110764
      vertex 4.076536685228348 4.35 -0.28477590531110764
    endloop
  endfacet
  facet normal -0.427554827263014 0 0.9039894190111376
    outer loop
      vertex 4.076536685228348 3.9299999999999997 -0.28477590531110764
      vertex 4.09427934885025 3.9299999999999997 -0.27638425678014755
      vertex 4.09427934885025 4.35 -0.27638425678014755
    endloop
  endfacet
  facet normal -0.5141029753480393 0 0.857728471451364
    outer loop
      vertex 4.09427934885025 3.9299999999999997 -0.27638425678014755
      vertex 4.111114047467709 3.9299999999999997 -0.2662939205765724
      vertex 4.111114047467709 4.35 -0.2662939205765724
    endloop
  endfacet
  facet normal -0.5956993107737628 0 0.8032075268220934
    outer loop
      vertex 4.111114047467709 3.9299999999999997 -0.2662939205765724
      vertex 4.126878656446934 3.9299999999999997 -0.2546020895242691
      vertex 4.126878656446934 4.35 -0.2546020895242691
    endloop
  endfacet
  facet normal -0.671558920867713 0 0.7409511561520051
    outer loop
      vertex 4.126878656446934 3.9299999999999997 -0.2546020895242691
      vertex 4.141421355307102 3.9299999999999997 -0.24142135679721832
      vertex 4.141421355307102 4.35 -0.24142135679721832
    endloop
  endfacet
  facet normal -0.04906766297410044 0 0.998795456762925
    outer loop
      vertex 4 3.9299999999999997 -0.30000000447034836
      vertex 4.019603431224823 4.35 -0.2990369498729706
      vertex 4 4.35 -0.30000000447034836
    endloop
  endfacet
  facet normal -0.14673079526500712 0 0.9891764623771123
    outer loop
      vertex 4.019603431224823 3.9299999999999997 -0.2990369498729706
      vertex 4.03901806473732 4.35 -0.2961570546030998
      vertex 4.019603431224823 4.35 -0.2990369498729706
    endloop
  endfacet
  facet normal -0.2429798742607013 0 0.9700313297539693
    outer loop
      vertex 4.03901806473732 3.9299999999999997 -0.2961570546030998
      vertex 4.058056935667992 4.35 -0.2913880720734596
      vertex 4.03901806473732 4.35 -0.2961570546030998
    endloop
  endfacet
  facet normal -0.33689015335830735 0 0.9415439578533845
    outer loop
      vertex 4.058056935667992 3.9299999999999997 -0.2913880720734596
      vertex 4.076536685228348 4.35 -0.28477590531110764
      vertex 4.058056935667992 4.35 -0.2913880720734596
    endloop
  endfacet
  facet normal -0.427554827263014 0 0.9039894190111376
    outer loop
      vertex 4.076536685228348 3.9299999999999997 -0.28477590531110764
      vertex 4.09427934885025 4.35 -0.27638425678014755
      vertex 4.076536685228348 4.35 -0.28477590531110764
    endloop
  endfacet
  facet normal -0.5141029753480393 0 0.857728471451364
    outer loop
      vertex 4.09427934885025 3.9299999999999997 -0.27638425678014755
      vertex 4.111114047467709 4.35 -0.2662939205765724
      vertex 4.09427934885025 4.35 -0.27638425678014755
    endloop
  endfacet
  facet normal -0.5956993107737628 0 0.8032075268220934
    outer loop
      vertex 4.111114047467709 3.9299999999999997 -0.2662939205765724
      vertex 4.126878656446934 4.35 -0.2546020895242691
      vertex 4.111114047467709 4.35 -0.2662939205765724
    endloop
  endfacet
  facet normal -0.671558920867713 0 0.7409511561520051
    outer loop
      vertex 4.126878656446934 3.9299999999999997 -0.2546020895242691
      vertex 4.141421355307102 4.35 -0.24142135679721832
      vertex 4.126878656446934 4.35 -0.2546020895242691
    endloop
  endfacet
  facet normal -0.7409511561520051 0 0.671558920867713
    outer loop
      vertex 4.141421355307102 3.9299999999999997 -0.24142135679721832
      vertex 4.154602088034153 3.9299999999999997 -0.22687865793704987
      vertex 4.154602088034153 4.35 -0.22687865793704987
    endloop
  endfacet
  facet normal -0.8032075268220934 0 0.5956993107737628
    outer loop
      vertex 4.154602088034153 3.9299999999999997 -0.22687865793704987
      vertex 4.166293919086456 3.9299999999999997 -0.2111140489578247
      vertex 4.166293919086456 4.35 -0.2111140489578247
    endloop
  endfacet
  facet normal -0.857728471451364 0 0.5141029753480393
    outer loop
      vertex 4.166293919086456 3.9299999999999997 -0.2111140489578247
      vertex 4.176384255290031 3.9299999999999997 -0.19427935034036636
      vertex 4.176384255290031 4.35 -0.19427935034036636
    endloop
  endfacet
  facet normal -0.9039894190111376 0 0.427554827263014
    outer loop
      vertex 4.176384255290031 3.9299999999999997 -0.19427935034036636
      vertex 4.1847759038209915 3.9299999999999997 -0.1765366867184639
      vertex 4.1847759038209915 4.35 -0.1765366867184639
    endloop
  endfacet
  facet normal -0.9415439578533845 0 0.33689015335830735
    outer loop
      vertex 4.1847759038209915 3.9299999999999997 -0.1765366867184639
      vertex 4.1913880705833435 3.9299999999999997 -0.15805693715810776
      vertex 4.1913880705833435 4.35 -0.15805693715810776
    endloop
  endfacet
  facet normal -0.9700313297539693 0 0.2429798742607013
    outer loop
      vertex 4.1913880705833435 3.9299999999999997 -0.15805693715810776
      vertex 4.196157053112984 3.9299999999999997 -0.13901806622743607
      vertex 4.196157053112984 4.35 -0.13901806622743607
    endloop
  endfacet
  facet normal -0.9891764623771123 0 0.14673079526500712
    outer loop
      vertex 4.196157053112984 3.9299999999999997 -0.13901806622743607
      vertex 4.1990369483828545 3.9299999999999997 -0.11960343271493912
      vertex 4.1990369483828545 4.35 -0.11960343271493912
    endloop
  endfacet
  facet normal -0.998795456762925 0 0.04906766297410044
    outer loop
      vertex 4.1990369483828545 3.9299999999999997 -0.11960343271493912
      vertex 4.200000002980232 3.9299999999999997 -0.10000000149011612
      vertex 4.200000002980232 4.35 -0.10000000149011612
    endloop
  endfacet
  facet normal -0.7409511561520051 0 0.671558920867713
    outer loop
      vertex 4.141421355307102 3.9299999999999997 -0.24142135679721832
      vertex 4.154602088034153 4.35 -0.22687865793704987
      vertex 4.141421355307102 4.35 -0.24142135679721832
    endloop
  endfacet
  facet normal -0.8032075268220934 0 0.5956993107737628
    outer loop
      vertex 4.154602088034153 3.9299999999999997 -0.22687865793704987
      vertex 4.166293919086456 4.35 -0.2111140489578247
      vertex 4.154602088034153 4.35 -0.22687865793704987
    endloop
  endfacet
  facet normal -0.857728471451364 0 0.5141029753480393
    outer loop
      vertex 4.166293919086456 3.9299999999999997 -0.2111140489578247
      vertex 4.176384255290031 4.35 -0.19427935034036636
      vertex 4.166293919086456 4.35 -0.2111140489578247
    endloop
  endfacet
  facet normal -0.9039894190111376 0 0.427554827263014
    outer loop
      vertex 4.176384255290031 3.9299999999999997 -0.19427935034036636
      vertex 4.1847759038209915 4.35 -0.1765366867184639
      vertex 4.176384255290031 4.35 -0.19427935034036636
    endloop
  endfacet
  facet normal -0.9415439578533845 0 0.33689015335830735
    outer loop
      vertex 4.1847759038209915 3.9299999999999997 -0.1765366867184639
      vertex 4.1913880705833435 4.35 -0.15805693715810776
      vertex 4.1847759038209915 4.35 -0.1765366867184639
    endloop
  endfacet
  facet normal -0.9700313297539693 0 0.2429798742607013
    outer loop
      vertex 4.1913880705833435 3.9299999999999997 -0.15805693715810776
      vertex 4.196157053112984 4.35 -0.13901806622743607
      vertex 4.1913880705833435 4.35 -0.15805693715810776
    endloop
  endfacet
  facet normal -0.9891764623771123 0 0.14673079526500712
    outer loop
      vertex 4.196157053112984 3.9299999999999997 -0.13901806622743607
      vertex 4.1990369483828545 4.35 -0.11960343271493912
      vertex 4.196157053112984 4.35 -0.13901806622743607
    endloop
  endfacet
  facet normal -0.998795456762925 0 0.04906766297410044
    outer loop
      vertex 4.1990369483828545 3.9299999999999997 -0.11960343271493912
      vertex 4.200000002980232 4.35 -0.10000000149011612
      vertex 4.1990369483828545 4.35 -0.11960343271493912
    endloop
  endfacet
  facet normal -1 0 0
    outer loop
      vertex 4.200000002980232 3.9299999999999997 -0.10000000149011612
      vertex 4.200000002980232 4.35 3.100000001490116
      vertex 4.200000002980232 4.35 -0.10000000149011612
    endloop
  endfacet
  facet normal 0 -1 0
    outer loop
      vertex 4 4.35 -0.30000000447034836
      vertex 4.019603431224823 4.35 -0.2990369498729706
      vertex 4.03901806473732 4.35 -0.2961570546030998
    endloop
  endfacet
  facet normal 0 1 0
    outer loop
      vertex -4.1990369483828545 3.9299999999999997 -0.11960343271493912
      vertex 4.1990369483828545 3.9299999999999997 3.119603432714939
      vertex 4.200000002980232 3.9299999999999997 3.100000001490116
    endloop
  endfacet
  facet normal 0 1 0
    outer loop
      vertex -4.200000002980232 3.9299999999999997 -0.10000000149011612
      vertex 4.196157053112984 3.9299999999999997 3.139018066227436
      vertex 4.1990369483828545 3.9299999999999997 3.119603432714939
    endloop
  endfacet
  facet normal 0 1 0
    outer loop
      vertex -4.1847759038209915 3.9299999999999997 3.176536686718464
      vertex 4.154602088034153 3.9299999999999997 3.22687865793705
      vertex 4.166293919086456 3.9299999999999997 3.2111140489578247
    endloop
  endfacet
  facet normal 0 1 0
    outer loop
      vertex -4.176384255290031 3.9299999999999997 3.1942793503403664
      vertex 4.141421355307102 3.9299999999999997 3.2414213567972183
      vertex 4.154602088034153 3.9299999999999997 3.22687865793705
    endloop
  endfacet
  facet normal 0 1 0
    outer loop
      vertex -4.166293919086456 3.9299999999999997 3.2111140489578247
      vertex 4.126878656446934 3.9299999999999997 3.254602089524269
      vertex 4.141421355307102 3.9299999999999997 3.2414213567972183
    endloop
  endfacet
  facet normal 0 1 0
    outer loop
      vertex -4.126878656446934 3.9299999999999997 3.254602089524269
      vertex 4.076536685228348 3.9299999999999997 3.2847759053111076
      vertex 4.09427934885025 3.9299999999999997 3.2763842567801476
    endloop
  endfacet
  facet normal 0 1 0
    outer loop
      vertex -4.111114047467709 3.9299999999999997 3.2662939205765724
      vertex 4.058056935667992 3.9299999999999997 3.2913880720734596
      vertex 4.076536685228348 3.9299999999999997 3.2847759053111076
    endloop
  endfacet
  facet normal 0 1 0
    outer loop
      vertex -4.154602088034153 3.9299999999999997 3.22687865793705
      vertex 4.111114047467709 3.9299999999999997 3.2662939205765724
      vertex 4.126878656446934 3.9299999999999997 3.254602089524269
    endloop
  endfacet
  facet normal 0 1 0
    outer loop
      vertex -4.141421355307102 3.9299999999999997 3.2414213567972183
      vertex 4.09427934885025 3.9299999999999997 3.2763842567801476
      vertex 4.111114047467709 3.9299999999999997 3.2662939205765724
    endloop
  endfacet
  facet normal 0 1 0
    outer loop
      vertex -4.058056935667992 3.9299999999999997 3.2913880720734596
      vertex 4 3.9299999999999997 3.3000000044703484
      vertex 4.019603431224823 3.9299999999999997 3.2990369498729706
    endloop
  endfacet
  facet normal 0 1 0
    outer loop
      vertex -4.09427934885025 3.9299999999999997 3.2763842567801476
      vertex 4.03901806473732 3.9299999999999997 3.2961570546031
      vertex 4.058056935667992 3.9299999999999997 3.2913880720734596
    endloop
  endfacet
  facet normal 0 1 0
    outer loop
      vertex -4.076536685228348 3.9299999999999997 3.2847759053111076
      vertex 4.019603431224823 3.9299999999999997 3.2990369498729706
      vertex 4.03901806473732 3.9299999999999997 3.2961570546031
    endloop
  endfacet
  facet normal 0 0 -1
    outer loop
      vertex -4 4.35 3.3000000044703484
      vertex 4 4.35 3.3000000044703484
      vertex 4 3.9299999999999997 3.3000000044703484
    endloop
  endfacet
  facet normal 0 1 0
    outer loop
      vertex -4.200000002980232 3.9299999999999997 3.100000001490116
      vertex 4.1913880705833435 3.9299999999999997 3.1580569371581078
      vertex 4.196157053112984 3.9299999999999997 3.139018066227436
    endloop
  endfacet
  facet normal 0 1 0
    outer loop
      vertex -4.1990369483828545 3.9299999999999997 3.119603432714939
      vertex 4.1847759038209915 3.9299999999999997 3.176536686718464
      vertex 4.1913880705833435 3.9299999999999997 3.1580569371581078
    endloop
  endfacet
  facet normal 0 1 0
    outer loop
      vertex -4.196157053112984 3.9299999999999997 3.139018066227436
      vertex 4.176384255290031 3.9299999999999997 3.1942793503403664
      vertex 4.1847759038209915 3.9299999999999997 3.176536686718464
    endloop
  endfacet
  facet normal 0 1 0
    outer loop
      vertex -4.1913880705833435 3.9299999999999997 3.1580569371581078
      vertex 4.166293919086456 3.9299999999999997 3.2111140489578247
      vertex 4.176384255290031 3.9299999999999997 3.1942793503403664
    endloop
  endfacet
  facet normal 0 -1 0
    outer loop
      vertex -4.1990369483828545 4.35 -0.11960343271493912
      vertex 4.200000002980232 4.35 3.100000001490116
      vertex 4.1990369483828545 4.35 3.119603432714939
    endloop
  endfacet
  facet normal 0 -1 0
    outer loop
      vertex -4.200000002980232 4.35 -0.10000000149011612
      vertex 4.1990369483828545 4.35 3.119603432714939
      vertex 4.196157053112984 4.35 3.139018066227436
    endloop
  endfacet
  facet normal 0 -1 0
    outer loop
      vertex -4.1847759038209915 4.35 3.176536686718464
      vertex 4.166293919086456 4.35 3.2111140489578247
      vertex 4.154602088034153 4.35 3.22687865793705
    endloop
  endfacet
  facet normal 0 -1 0
    outer loop
      vertex -4.176384255290031 4.35 3.1942793503403664
      vertex 4.154602088034153 4.35 3.22687865793705
      vertex 4.141421355307102 4.35 3.2414213567972183
    endloop
  endfacet
  facet normal 0 -1 0
    outer loop
      vertex -4.166293919086456 4.35 3.2111140489578247
      vertex 4.141421355307102 4.35 3.2414213567972183
      vertex 4.126878656446934 4.35 3.254602089524269
    endloop
  endfacet
  facet normal 0 -1 0
    outer loop
      vertex -4.126878656446934 4.35 3.254602089524269
      vertex 4.09427934885025 4.35 3.2763842567801476
      vertex 4.076536685228348 4.35 3.2847759053111076
    endloop
  endfacet
  facet normal 0 -1 0
    outer loop
      vertex -4.111114047467709 4.35 3.2662939205765724
      vertex 4.076536685228348 4.35 3.2847759053111076
      vertex 4.058056935667992 4.35 3.2913880720734596
    endloop
  endfacet
  facet normal 0 -1 0
    outer loop
      vertex -4.154602088034153 4.35 3.22687865793705
      vertex 4.126878656446934 4.35 3.254602089524269
      vertex 4.111114047467709 4.35 3.2662939205765724
    endloop
  endfacet
  facet normal 0 -1 0
    outer loop
      vertex -4.141421355307102 4.35 3.2414213567972183
      vertex 4.111114047467709 4.35 3.2662939205765724
      vertex 4.09427934885025 4.35 3.2763842567801476
    endloop
  endfacet
  facet normal 0 -1 0
    outer loop
      vertex -4.058056935667992 4.35 3.2913880720734596
      vertex 4.019603431224823 4.35 3.2990369498729706
      vertex 4 4.35 3.3000000044703484
    endloop
  endfacet
  facet normal 0 -1 0
    outer loop
      vertex -4.09427934885025 4.35 3.2763842567801476
      vertex 4.058056935667992 4.35 3.2913880720734596
      vertex 4.03901806473732 4.35 3.2961570546031
    endloop
  endfacet
  facet normal 0 -1 0
    outer loop
      vertex -4.076536685228348 4.35 3.2847759053111076
      vertex 4.03901806473732 4.35 3.2961570546031
      vertex 4.019603431224823 4.35 3.2990369498729706
    endloop
  endfacet
  facet normal 0 -1 0
    outer loop
      vertex -4.200000002980232 4.35 3.100000001490116
      vertex 4.196157053112984 4.35 3.139018066227436
      vertex 4.1913880705833435 4.35 3.1580569371581078
    endloop
  endfacet
  facet normal 0 -1 0
    outer loop
      vertex -4.1990369483828545 4.35 3.119603432714939
      vertex 4.1913880705833435 4.35 3.1580569371581078
      vertex 4.1847759038209915 4.35 3.176536686718464
    endloop
  endfacet
  facet normal 0 -1 0
    outer loop
      vertex -4.196157053112984 4.35 3.139018066227436
      vertex 4.1847759038209915 4.35 3.176536686718464
      vertex 4.176384255290031 4.35 3.1942793503403664
    endloop
  endfacet
  facet normal 0 -1 0
    outer loop
      vertex -4.1913880705833435 4.35 3.1580569371581078
      vertex 4.176384255290031 4.35 3.1942793503403664
      vertex 4.166293919086456 4.35 3.2111140489578247
    endloop
  endfacet
  facet normal -1 0 0
    outer loop
      vertex 4.200000002980232 3.9299999999999997 -0.10000000149011612
      vertex 4.200000002980232 3.9299999999999997 3.100000001490116
      vertex 4.200000002980232 4.35 3.100000001490116
    endloop
  endfacet
  facet normal -0.04906766297410044 0 -0.998795456762925
    outer loop
      vertex 4.019603431224823 3.9299999999999997 3.2990369498729706
      vertex 4 3.9299999999999997 3.3000000044703484
      vertex 4 4.35 3.3000000044703484
    endloop
  endfacet
  facet normal -0.14673079526500712 0 -0.9891764623771123
    outer loop
      vertex 4.019603431224823 3.9299999999999997 3.2990369498729706
      vertex 4.019603431224823 4.35 3.2990369498729706
      vertex 4.03901806473732 3.9299999999999997 3.2961570546031
    endloop
  endfacet
  facet normal -0.5141029753480393 0 -0.857728471451364
    outer loop
      vertex 4.111114047467709 3.9299999999999997 3.2662939205765724
      vertex 4.09427934885025 3.9299999999999997 3.2763842567801476
      vertex 4.09427934885025 4.35 3.2763842567801476
    endloop
  endfacet
  facet normal -0.671558920867713 0 -0.7409511561520051
    outer loop
      vertex 4.126878656446934 3.9299999999999997 3.254602089524269
      vertex 4.126878656446934 4.35 3.254602089524269
      vertex 4.141421355307102 3.9299999999999997 3.2414213567972183
    endloop
  endfacet
  facet normal -0.5956993107737628 0 -0.8032075268220934
    outer loop
      vertex 4.111114047467709 3.9299999999999997 3.2662939205765724
      vertex 4.111114047467709 4.35 3.2662939205765724
      vertex 4.126878656446934 3.9299999999999997 3.254602089524269
    endloop
  endfacet
  facet normal -0.2429798742607013 0 -0.9700313297539693
    outer loop
      vertex 4.03901806473732 3.9299999999999997 3.2961570546031
      vertex 4.03901806473732 4.35 3.2961570546031
      vertex 4.058056935667992 3.9299999999999997 3.2913880720734596
    endloop
  endfacet
  facet normal -0.427554827263014 0 -0.9039894190111376
    outer loop
      vertex 4.09427934885025 3.9299999999999997 3.2763842567801476
      vertex 4.076536685228348 3.9299999999999997 3.2847759053111076
      vertex 4.076536685228348 4.35 3.2847759053111076
    endloop
  endfacet
  facet normal -0.33689015335830735 0 -0.9415439578533845
    outer loop
      vertex 4.076536685228348 3.9299999999999997 3.2847759053111076
      vertex 4.058056935667992 3.9299999999999997 3.2913880720734596
      vertex 4.058056935667992 4.35 3.2913880720734596
    endloop
  endfacet
  facet normal -0.04906766297410044 0 -0.998795456762925
    outer loop
      vertex 4.019603431224823 3.9299999999999997 3.2990369498729706
      vertex 4 4.35 3.3000000044703484
      vertex 4.019603431224823 4.35 3.2990369498729706
    endloop
  endfacet
  facet normal -0.5141029753480393 0 -0.857728471451364
    outer loop
      vertex 4.111114047467709 3.9299999999999997 3.2662939205765724
      vertex 4.09427934885025 4.35 3.2763842567801476
      vertex 4.111114047467709 4.35 3.2662939205765724
    endloop
  endfacet
  facet normal -0.427554827263014 0 -0.9039894190111376
    outer loop
      vertex 4.09427934885025 3.9299999999999997 3.2763842567801476
      vertex 4.076536685228348 4.35 3.2847759053111076
      vertex 4.09427934885025 4.35 3.2763842567801476
    endloop
  endfacet
  facet normal -0.671558920867713 0 -0.7409511561520051
    outer loop
      vertex 4.141421355307102 3.9299999999999997 3.2414213567972183
      vertex 4.126878656446934 4.35 3.254602089524269
      vertex 4.141421355307102 4.35 3.2414213567972183
    endloop
  endfacet
  facet normal -0.5956993107737628 0 -0.8032075268220934
    outer loop
      vertex 4.126878656446934 3.9299999999999997 3.254602089524269
      vertex 4.111114047467709 4.35 3.2662939205765724
      vertex 4.126878656446934 4.35 3.254602089524269
    endloop
  endfacet
  facet normal -0.14673079526500712 0 -0.9891764623771123
    outer loop
      vertex 4.03901806473732 3.9299999999999997 3.2961570546031
      vertex 4.019603431224823 4.35 3.2990369498729706
      vertex 4.03901806473732 4.35 3.2961570546031
    endloop
  endfacet
  facet normal -0.2429798742607013 0 -0.9700313297539693
    outer loop
      vertex 4.058056935667992 3.9299999999999997 3.2913880720734596
      vertex 4.03901806473732 4.35 3.2961570546031
      vertex 4.058056935667992 4.35 3.2913880720734596
    endloop
  endfacet
  facet normal -0.33689015335830735 0 -0.9415439578533845
    outer loop
      vertex 4.076536685228348 3.9299999999999997 3.2847759053111076
      vertex 4.058056935667992 4.35 3.2913880720734596
      vertex 4.076536685228348 4.35 3.2847759053111076
    endloop
  endfacet
  facet normal -0.9891764623771123 0 -0.14673079526500712
    outer loop
      vertex 4.1990369483828545 3.9299999999999997 3.119603432714939
      vertex 4.196157053112984 3.9299999999999997 3.139018066227436
      vertex 4.196157053112984 4.35 3.139018066227436
    endloop
  endfacet
  facet normal -0.998795456762925 0 -0.04906766297410044
    outer loop
      vertex 4.200000002980232 3.9299999999999997 3.100000001490116
      vertex 4.1990369483828545 3.9299999999999997 3.119603432714939
      vertex 4.1990369483828545 4.35 3.119603432714939
    endloop
  endfacet
  facet normal -0.9700313297539693 0 -0.2429798742607013
    outer loop
      vertex 4.196157053112984 3.9299999999999997 3.139018066227436
      vertex 4.1913880705833435 3.9299999999999997 3.1580569371581078
      vertex 4.1913880705833435 4.35 3.1580569371581078
    endloop
  endfacet
  facet normal -0.9415439578533845 0 -0.33689015335830735
    outer loop
      vertex 4.1913880705833435 3.9299999999999997 3.1580569371581078
      vertex 4.1847759038209915 3.9299999999999997 3.176536686718464
      vertex 4.1847759038209915 4.35 3.176536686718464
    endloop
  endfacet
  facet normal -0.857728471451364 0 -0.5141029753480393
    outer loop
      vertex 4.176384255290031 3.9299999999999997 3.1942793503403664
      vertex 4.166293919086456 3.9299999999999997 3.2111140489578247
      vertex 4.166293919086456 4.35 3.2111140489578247
    endloop
  endfacet
  facet normal -0.9039894190111376 0 -0.427554827263014
    outer loop
      vertex 4.1847759038209915 3.9299999999999997 3.176536686718464
      vertex 4.176384255290031 3.9299999999999997 3.1942793503403664
      vertex 4.176384255290031 4.35 3.1942793503403664
    endloop
  endfacet
  facet normal -0.8032075268220934 0 -0.5956993107737628
    outer loop
      vertex 4.166293919086456 3.9299999999999997 3.2111140489578247
      vertex 4.154602088034153 3.9299999999999997 3.22687865793705
      vertex 4.154602088034153 4.35 3.22687865793705
    endloop
  endfacet
  facet normal -0.7409511561520051 0 -0.671558920867713
    outer loop
      vertex 4.154602088034153 3.9299999999999997 3.22687865793705
      vertex 4.141421355307102 3.9299999999999997 3.2414213567972183
      vertex 4.141421355307102 4.35 3.2414213567972183
    endloop
  endfacet
  facet normal -0.9891764623771123 0 -0.14673079526500712
    outer loop
      vertex 4.1990369483828545 3.9299999999999997 3.119603432714939
      vertex 4.196157053112984 4.35 3.139018066227436
      vertex 4.1990369483828545 4.35 3.119603432714939
    endloop
  endfacet
  facet normal -0.998795456762925 0 -0.04906766297410044
    outer loop
      vertex 4.200000002980232 3.9299999999999997 3.100000001490116
      vertex 4.1990369483828545 4.35 3.119603432714939
      vertex 4.200000002980232 4.35 3.100000001490116
    endloop
  endfacet
  facet normal -0.9700313297539693 0 -0.2429798742607013
    outer loop
      vertex 4.196157053112984 3.9299999999999997 3.139018066227436
      vertex 4.1913880705833435 4.35 3.1580569371581078
      vertex 4.196157053112984 4.35 3.139018066227436
    endloop
  endfacet
  facet normal -0.9415439578533845 0 -0.33689015335830735
    outer loop
      vertex 4.1913880705833435 3.9299999999999997 3.1580569371581078
      vertex 4.1847759038209915 4.35 3.176536686718464
      vertex 4.1913880705833435 4.35 3.1580569371581078
    endloop
  endfacet
  facet normal -0.9039894190111376 0 -0.427554827263014
    outer loop
      vertex 4.1847759038209915 3.9299999999999997 3.176536686718464
      vertex 4.176384255290031 4.35 3.1942793503403664
      vertex 4.1847759038209915 4.35 3.176536686718464
    endloop
  endfacet
  facet normal -0.857728471451364 0 -0.5141029753480393
    outer loop
      vertex 4.176384255290031 3.9299999999999997 3.1942793503403664
      vertex 4.166293919086456 4.35 3.2111140489578247
      vertex 4.176384255290031 4.35 3.1942793503403664
    endloop
  endfacet
  facet normal -0.8032075268220934 0 -0.5956993107737628
    outer loop
      vertex 4.166293919086456 3.9299999999999997 3.2111140489578247
      vertex 4.154602088034153 4.35 3.22687865793705
      vertex 4.166293919086456 4.35 3.2111140489578247
    endloop
  endfacet
  facet normal -0.7409511561520051 0 -0.671558920867713
    outer loop
      vertex 4.154602088034153 3.9299999999999997 3.22687865793705
      vertex 4.141421355307102 4.35 3.2414213567972183
      vertex 4.154602088034153 4.35 3.22687865793705
    endloop
  endfacet
  facet normal 0 1 0
    outer loop
      vertex -14.725 6.75 6.525
      vertex 14.725 6.75 6.525
      vertex 14.725 6.75 -6.525
    endloop
  endfacet
  facet normal 1 0 0
    outer loop
      vertex 14.725 -6.75 6.525
      vertex 14.725 6.75 -6.525
      vertex 14.725 6.75 6.525
    endloop
  endfacet
  facet normal 0 -1 0
    outer loop
      vertex -14.725 -6.75 -4.725
      vertex -14.725 -6.75 -6.525
      vertex 14.725 -6.75 -4.725
    endloop
  endfacet
  facet normal 0 -1 0
    outer loop
      vertex -2.84 -5.2 -11.925
      vertex -2.24 -5.2 -11.925
      vertex -2.24 -5.2 -9.625
    endloop
  endfacet
  facet normal -1 0 0
    outer loop
      vertex -2.84 -5.2 -11.925
      vertex -2.84 -5.2 -9.625
      vertex -2.84 -5.1 -9.825000000000001
    endloop
  endfacet
  facet normal -1 0 0
    outer loop
      vertex -2.84 -5.2 -9.625
      vertex -2.84 -5.1 -9.625
      vertex -2.84 -5.1 -9.825000000000001
    endloop
  endfacet
  facet normal 0 -1 0
    outer loop
      vertex -2.84 -5.2 -11.925
      vertex -2.24 -5.2 -9.625
      vertex -2.84 -5.2 -9.625
    endloop
  endfacet
  facet normal 0 0 1
    outer loop
      vertex -2.84 -5.2 -9.625
      vertex -2.24 -5.2 -9.625
      vertex -2.84 -5.1 -9.625
    endloop
  endfacet
  facet normal 0 0 1
    outer loop
      vertex -2.24 -5.2 -9.625
      vertex -2.24 -5.1 -9.625
      vertex -2.84 -5.1 -9.625
    endloop
  endfacet
  facet normal 1 0 0
    outer loop
      vertex -2.24 -5.2 -9.625
      vertex -2.24 -5.1 -9.825000000000001
      vertex -2.24 -5.1 -9.625
    endloop
  endfacet
  facet normal -1 0 0
    outer loop
      vertex -0.3 -5.2 -11.925
      vertex -0.3 -5.2 -9.625
      vertex -0.3 -5.1 -9.825000000000001
    endloop
  endfacet
  facet normal 0 -1 0
    outer loop
      vertex -0.3 -5.2 -11.925
      vertex 0.3 -5.2 -9.625
      vertex -0.3 -5.2 -9.625
    endloop
  endfacet
  facet normal -1 0 0
    outer loop
      vertex -0.3 -5.2 -9.625
      vertex -0.3 -5.1 -9.625
      vertex -0.3 -5.1 -9.825000000000001
    endloop
  endfacet
  facet normal 0 0 1
    outer loop
      vertex -0.3 -5.2 -9.625
      vertex 0.3 -5.2 -9.625
      vertex -0.3 -5.1 -9.625
    endloop
  endfacet
  facet normal -1 0 0
    outer loop
      vertex -2.84 -5.2 -11.925
      vertex -2.84 -4.7 -9.825000000000001
      vertex -2.84 -4.7 -11.925
    endloop
  endfacet
  facet normal 0 0 -1
    outer loop
      vertex -2.84 -5.2 -11.925
      vertex -2.84 -4.7 -11.925
      vertex -2.24 -4.7 -11.925
    endloop
  endfacet
  facet normal 0 0 -1
    outer loop
      vertex -2.84 -5.2 -11.925
      vertex -2.24 -4.7 -11.925
      vertex -2.24 -5.2 -11.925
    endloop
  endfacet
  facet normal 0 1 0
    outer loop
      vertex -2.84 -4.7 -11.925
      vertex -2.24 -4.7 -9.825000000000001
      vertex -2.24 -4.7 -11.925
    endloop
  endfacet
  facet normal 1 0 0
    outer loop
      vertex -2.24 -5.2 -11.925
      vertex -2.24 -4.7 -11.925
      vertex -2.24 -5.2 -9.625
    endloop
  endfacet
  facet normal -1 0 0
    outer loop
      vertex -2.84 -5.2 -11.925
      vertex -2.84 -5.1 -9.825000000000001
      vertex -2.84 -4.7 -9.825000000000001
    endloop
  endfacet
  facet normal 0 1 0
    outer loop
      vertex -2.84 -4.7 -11.925
      vertex -2.84 -4.7 -9.825000000000001
      vertex -2.24 -4.7 -9.825000000000001
    endloop
  endfacet
  facet normal 1 0 0
    outer loop
      vertex -2.24 -5.2 -9.625
      vertex -2.24 -4.7 -11.925
      vertex -2.24 -5.1 -9.825000000000001
    endloop
  endfacet
  facet normal 1 0 0
    outer loop
      vertex -2.24 -4.7 -11.925
      vertex -2.24 -4.7 -9.825000000000001
      vertex -2.24 -5.1 -9.825000000000001
    endloop
  endfacet
  facet normal 0 0 -1
    outer loop
      vertex -0.3 -5.2 -11.925
      vertex -0.3 -4.7 -11.925
      vertex 0.3 -4.7 -11.925
    endloop
  endfacet
  facet normal -1 0 0
    outer loop
      vertex -0.3 -5.2 -11.925
      vertex -0.3 -4.7 -9.825000000000001
      vertex -0.3 -4.7 -11.925
    endloop
  endfacet
  facet normal -1 0 0
    outer loop
      vertex -0.3 -5.2 -11.925
      vertex -0.3 -5.1 -9.825000000000001
      vertex -0.3 -4.7 -9.825000000000001
    endloop
  endfacet
  facet normal 0 1 0
    outer loop
      vertex -0.3 -4.7 -11.925
      vertex -0.3 -4.7 -9.825000000000001
      vertex 0.3 -4.7 -9.825000000000001
    endloop
  endfacet
  facet normal 0 -1 0
    outer loop
      vertex -0.3 -5.2 -11.925
      vertex 0.3 -5.2 -11.925
      vertex 0.3 -5.2 -9.625
    endloop
  endfacet
  facet normal 0 0 1
    outer loop
      vertex 0.3 -5.2 -9.625
      vertex 0.3 -5.1 -9.625
      vertex -0.3 -5.1 -9.625
    endloop
  endfacet
  facet normal 1 0 0
    outer loop
      vertex 0.3 -5.2 -9.625
      vertex 0.3 -5.1 -9.825000000000001
      vertex 0.3 -5.1 -9.625
    endloop
  endfacet
  facet normal 0 -1 0
    outer loop
      vertex 2.24 -5.2 -11.925
      vertex 2.84 -5.2 -11.925
      vertex 2.84 -5.2 -9.625
    endloop
  endfacet
  facet normal -1 0 0
    outer loop
      vertex 2.24 -5.2 -11.925
      vertex 2.24 -5.2 -9.625
      vertex 2.24 -5.1 -9.825000000000001
    endloop
  endfacet
  facet normal 0 -1 0
    outer loop
      vertex 2.24 -5.2 -11.925
      vertex 2.84 -5.2 -9.625
      vertex 2.24 -5.2 -9.625
    endloop
  endfacet
  facet normal -1 0 0
    outer loop
      vertex 2.24 -5.2 -9.625
      vertex 2.24 -5.1 -9.625
      vertex 2.24 -5.1 -9.825000000000001
    endloop
  endfacet
  facet normal 0 0 1
    outer loop
      vertex 2.24 -5.2 -9.625
      vertex 2.84 -5.2 -9.625
      vertex 2.24 -5.1 -9.625
    endloop
  endfacet
  facet normal 0 0 1
    outer loop
      vertex 2.84 -5.2 -9.625
      vertex 2.84 -5.1 -9.625
      vertex 2.24 -5.1 -9.625
    endloop
  endfacet
  facet normal 1 0 0
    outer loop
      vertex 2.84 -5.2 -9.625
      vertex 2.84 -5.1 -9.825000000000001
      vertex 2.84 -5.1 -9.625
    endloop
  endfacet
  facet normal 0 0 -1
    outer loop
      vertex -0.3 -5.2 -11.925
      vertex 0.3 -4.7 -11.925
      vertex 0.3 -5.2 -11.925
    endloop
  endfacet
  facet normal 1 0 0
    outer loop
      vertex 0.3 -5.2 -11.925
      vertex 0.3 -4.7 -11.925
      vertex 0.3 -5.2 -9.625
    endloop
  endfacet
  facet normal 0 1 0
    outer loop
      vertex -0.3 -4.7 -11.925
      vertex 0.3 -4.7 -9.825000000000001
      vertex 0.3 -4.7 -11.925
    endloop
  endfacet
  facet normal 1 0 0
    outer loop
      vertex 0.3 -5.2 -9.625
      vertex 0.3 -4.7 -11.925
      vertex 0.3 -5.1 -9.825000000000001
    endloop
  endfacet
  facet normal 1 0 0
    outer loop
      vertex 0.3 -4.7 -11.925
      vertex 0.3 -4.7 -9.825000000000001
      vertex 0.3 -5.1 -9.825000000000001
    endloop
  endfacet
  facet normal 0 0 -1
    outer loop
      vertex 2.24 -5.2 -11.925
      vertex 2.24 -4.7 -11.925
      vertex 2.84 -4.7 -11.925
    endloop
  endfacet
  facet normal 0 0 -1
    outer loop
      vertex 2.24 -5.2 -11.925
      vertex 2.84 -4.7 -11.925
      vertex 2.84 -5.2 -11.925
    endloop
  endfacet
  facet normal -1 0 0
    outer loop
      vertex 2.24 -5.2 -11.925
      vertex 2.24 -4.7 -9.825000000000001
      vertex 2.24 -4.7 -11.925
    endloop
  endfacet
  facet normal 0 1 0
    outer loop
      vertex 2.24 -4.7 -11.925
      vertex 2.84 -4.7 -9.825000000000001
      vertex 2.84 -4.7 -11.925
    endloop
  endfacet
  facet normal 1 0 0
    outer loop
      vertex 2.84 -5.2 -11.925
      vertex 2.84 -4.7 -11.925
      vertex 2.84 -5.2 -9.625
    endloop
  endfacet
  facet normal -1 0 0
    outer loop
      vertex 2.24 -5.2 -11.925
      vertex 2.24 -5.1 -9.825000000000001
      vertex 2.24 -4.7 -9.825000000000001
    endloop
  endfacet
  facet normal 0 1 0
    outer loop
      vertex 2.24 -4.7 -11.925
      vertex 2.24 -4.7 -9.825000000000001
      vertex 2.84 -4.7 -9.825000000000001
    endloop
  endfacet
  facet normal 1 0 0
    outer loop
      vertex 2.84 -5.2 -9.625
      vertex 2.84 -4.7 -11.925
      vertex 2.84 -5.1 -9.825000000000001
    endloop
  endfacet
  facet normal 1 0 0
    outer loop
      vertex 2.84 -4.7 -11.925
      vertex 2.84 -4.7 -9.825000000000001
      vertex 2.84 -5.1 -9.825000000000001
    endloop
  endfacet
  facet normal 0 -1 0
    outer loop
      vertex -5.05 -5.1 -9.825000000000001
      vertex -2.84 -5.1 -9.825000000000001
      vertex -2.84 -5.1 -9.625
    endloop
  endfacet
  facet normal 0 -1 0
    outer loop
      vertex -2.24 -5.1 -9.625
      vertex -2.24 -5.1 -9.825000000000001
      vertex -0.3 -5.1 -9.625
    endloop
  endfacet
  facet normal 0 -1 0
    outer loop
      vertex -0.3 -5.1 -9.625
      vertex -2.24 -5.1 -9.825000000000001
      vertex -0.3 -5.1 -9.825000000000001
    endloop
  endfacet
  facet normal 0 -1 0
    outer loop
      vertex -5.05 -5.1 -9.825000000000001
      vertex -2.84 -5.1 -9.625
      vertex 5.05 -5.1 -6.525
    endloop
  endfacet
  facet normal 0 -1 0
    outer loop
      vertex -2.84 -5.1 -9.625
      vertex -2.24 -5.1 -9.625
      vertex 5.05 -5.1 -6.525
    endloop
  endfacet
  facet normal 0 -1 0
    outer loop
      vertex -5.05 -5.1 -9.825000000000001
      vertex 5.05 -5.1 -6.525
      vertex -5.05 -5.1 -6.525
    endloop
  endfacet
  facet normal 0 0 -1
    outer loop
      vertex -5.05 -5.1 -9.825000000000001
      vertex -2.84 -4.7 -9.825000000000001
      vertex -2.84 -5.1 -9.825000000000001
    endloop
  endfacet
  facet normal 0 0 -1
    outer loop
      vertex -2.24 -4.7 -9.825000000000001
      vertex -0.3 -4.7 -9.825000000000001
      vertex -2.24 -5.1 -9.825000000000001
    endloop
  endfacet
  facet normal 0 0 -1
    outer loop
      vertex -0.3 -4.7 -9.825000000000001
      vertex -0.3 -5.1 -9.825000000000001
      vertex -2.24 -5.1 -9.825000000000001
    endloop
  endfacet
  facet normal -1 0 0
    outer loop
      vertex -5.05 -5.1 -9.825000000000001
      vertex -5.05 -5.1 -6.525
      vertex -5.05 2.1 -6.525
    endloop
  endfacet
  facet normal -1 0 0
    outer loop
      vertex -5.05 -5.1 -9.825000000000001
      vertex -5.05 2.1 -6.525
      vertex -5.05 2.1 -9.825000000000001
    endloop
  endfacet
  facet normal 0 0 -1
    outer loop
      vertex -5.05 -5.1 -9.825000000000001
      vertex 5.05 2.1 -9.825000000000001
      vertex -2.84 -4.7 -9.825000000000001
    endloop
  endfacet
  facet normal 0 0 -1
    outer loop
      vertex 5.05 2.1 -9.825000000000001
      vertex -2.24 -4.7 -9.825000000000001
      vertex -2.84 -4.7 -9.825000000000001
    endloop
  endfacet
  facet normal 0 0 -1
    outer loop
      vertex -5.05 -5.1 -9.825000000000001
      vertex -5.05 2.1 -9.825000000000001
      vertex 5.05 2.1 -9.825000000000001
    endloop
  endfacet
  facet normal 0 1 0
    outer loop
      vertex -5.05 2.1 -9.825000000000001
      vertex -5.05 2.1 -6.525
      vertex 5.05 2.1 -9.825000000000001
    endloop
  endfacet
  facet normal 0 -1 0
    outer loop
      vertex 0.3 -5.1 -9.625
      vertex 0.3 -5.1 -9.825000000000001
      vertex 2.24 -5.1 -9.825000000000001
    endloop
  endfacet
  facet normal 0 -1 0
    outer loop
      vertex 0.3 -5.1 -9.625
      vertex 2.24 -5.1 -9.825000000000001
      vertex 2.24 -5.1 -9.625
    endloop
  endfacet
  facet normal 0 -1 0
    outer loop
      vertex 5.05 -5.1 -9.825000000000001
      vertex 2.84 -5.1 -9.625
      vertex 2.84 -5.1 -9.825000000000001
    endloop
  endfacet
  facet normal 0 -1 0
    outer loop
      vertex -2.24 -5.1 -9.625
      vertex -0.3 -5.1 -9.625
      vertex 5.05 -5.1 -6.525
    endloop
  endfacet
  facet normal 0 -1 0
    outer loop
      vertex -0.3 -5.1 -9.625
      vertex 0.3 -5.1 -9.625
      vertex 5.05 -5.1 -6.525
    endloop
  endfacet
  facet normal 0 -1 0
    outer loop
      vertex 0.3 -5.1 -9.625
      vertex 2.24 -5.1 -9.625
      vertex 5.05 -5.1 -6.525
    endloop
  endfacet
  facet normal 0 -1 0
    outer loop
      vertex 2.24 -5.1 -9.625
      vertex 2.84 -5.1 -9.625
      vertex 5.05 -5.1 -6.525
    endloop
  endfacet
  facet normal 0 0 -1
    outer loop
      vertex 0.3 -4.7 -9.825000000000001
      vertex 2.24 -4.7 -9.825000000000001
      vertex 0.3 -5.1 -9.825000000000001
    endloop
  endfacet
  facet normal 0 0 -1
    outer loop
      vertex 2.24 -4.7 -9.825000000000001
      vertex 2.24 -5.1 -9.825000000000001
      vertex 0.3 -5.1 -9.825000000000001
    endloop
  endfacet
  facet normal 0 0 -1
    outer loop
      vertex 5.05 -5.1 -9.825000000000001
      vertex 2.84 -5.1 -9.825000000000001
      vertex 2.84 -4.7 -9.825000000000001
    endloop
  endfacet
  facet normal 0 -1 0
    outer loop
      vertex 5.05 -5.1 -9.825000000000001
      vertex 5.05 -5.1 -6.525
      vertex 2.84 -5.1 -9.625
    endloop
  endfacet
  facet normal 0 0 -1
    outer loop
      vertex 5.05 2.1 -9.825000000000001
      vertex -0.3 -4.7 -9.825000000000001
      vertex -2.24 -4.7 -9.825000000000001
    endloop
  endfacet
  facet normal 0 0 -1
    outer loop
      vertex 5.05 2.1 -9.825000000000001
      vertex 0.3 -4.7 -9.825000000000001
      vertex -0.3 -4.7 -9.825000000000001
    endloop
  endfacet
  facet normal 0 0 -1
    outer loop
      vertex 5.05 2.1 -9.825000000000001
      vertex 2.24 -4.7 -9.825000000000001
      vertex 0.3 -4.7 -9.825000000000001
    endloop
  endfacet
  facet normal 0 0 -1
    outer loop
      vertex 5.05 2.1 -9.825000000000001
      vertex 2.84 -4.7 -9.825000000000001
      vertex 2.24 -4.7 -9.825000000000001
    endloop
  endfacet
  facet normal 0 0 -1
    outer loop
      vertex 5.05 -5.1 -9.825000000000001
      vertex 2.84 -4.7 -9.825000000000001
      vertex 5.05 2.1 -9.825000000000001
    endloop
  endfacet
  facet normal 1 0 0
    outer loop
      vertex 5.05 -5.1 -9.825000000000001
      vertex 5.05 2.1 -9.825000000000001
      vertex 5.05 -5.1 -6.525
    endloop
  endfacet
  facet normal 1 0 0
    outer loop
      vertex 5.05 2.1 -9.825000000000001
      vertex 5.05 2.1 -6.525
      vertex 5.05 -5.1 -6.525
    endloop
  endfacet
  facet normal 0 1 0
    outer loop
      vertex 5.05 2.1 -9.825000000000001
      vertex -5.05 2.1 -6.525
      vertex 5.05 2.1 -6.525
    endloop
  endfacet
endsolid OpenSCAD_Model
