solid OpenSCAD_Model
  facet normal -0.5 -0.8660254037844386 0
    outer loop
      vertex -6.5 -3.7527767497325675 0
      vertex 0 -7.505553499465135 5.3
      vertex -6.5 -3.7527767497325675 5.3
    endloop
  endfacet
  facet normal -1 0 0
    outer loop
      vertex -6.5 -3.7527767497325675 0
      vertex -6.5 -3.7527767497325675 5.3
      vertex -6.5 3.752776749732567 5.3
    endloop
  endfacet
  facet normal 0 0 -1
    outer loop
      vertex -6.5 -3.7527767497325675 0
      vertex -3.325878449210181 -2.2222809320784087 0
      vertex -3.092041813450948 -2.537573136654582 0
    endloop
  endfacet
  facet normal 0 0 -1
    outer loop
      vertex -6.5 -3.7527767497325675 0
      vertex -3.092041813450948 -2.537573136654582 0
      vertex -2.8284271247461903 -2.8284271247461903 0
    endloop
  endfacet
  facet normal 0 0 -1
    outer loop
      vertex -6.5 -3.7527767497325675 0
      vertex -3.695518130045147 -1.5307337294603591 0
      vertex -3.52768505739342 -1.8855869473039906 0
    endloop
  endfacet
  facet normal 0 0 -1
    outer loop
      vertex -6.5 -3.7527767497325675 0
      vertex -3.8277613429288353 -1.1611387090178493 0
      vertex -3.695518130045147 -1.5307337294603591 0
    endloop
  endfacet
  facet normal 0 0 -1
    outer loop
      vertex -6.5 -3.7527767497325675 0
      vertex -3.9231411216129217 -0.780361288064513 0
      vertex -3.8277613429288353 -1.1611387090178493 0
    endloop
  endfacet
  facet normal 0 0 -1
    outer loop
      vertex -6.5 -3.7527767497325675 0
      vertex -3.52768505739342 -1.8855869473039906 0
      vertex -3.325878449210181 -2.2222809320784087 0
    endloop
  endfacet
  facet normal 0 0 -1
    outer loop
      vertex -6.5 -3.7527767497325675 0
      vertex -2.8284271247461903 -2.8284271247461903 0
      vertex -2.537573136654582 -3.092041813450948 0
    endloop
  endfacet
  facet normal 0 0 1
    outer loop
      vertex -6.5 -3.7527767497325675 5.3
      vertex 0 -7.505553499465135 5.3
      vertex -6.5 3.752776749732567 5.3
    endloop
  endfacet
  facet normal 0 0 -1
    outer loop
      vertex -6.5 -3.7527767497325675 0
      vertex -3.9807389066887877 -0.3920685613182424 0
      vertex -3.9231411216129217 -0.780361288064513 0
    endloop
  endfacet
  facet normal 0 0 -1
    outer loop
      vertex -6.5 -3.7527767497325675 0
      vertex -4 0 0
      vertex -3.9807389066887877 -0.3920685613182424 0
    endloop
  endfacet
  facet normal 0 0 -1
    outer loop
      vertex -6.5 -3.7527767497325675 0
      vertex -3.9807389066887877 0.3920685613182424 0
      vertex -4 0 0
    endloop
  endfacet
  facet normal -0.5 -0.8660254037844386 0
    outer loop
      vertex -6.5 -3.7527767497325675 0
      vertex 0 -7.505553499465135 0
      vertex 0 -7.505553499465135 5.3
    endloop
  endfacet
  facet normal 0 0 -1
    outer loop
      vertex -6.5 -3.7527767497325675 0
      vertex -2.537573136654582 -3.092041813450948 0
      vertex 0 -7.505553499465135 0
    endloop
  endfacet
  facet normal 0 0 -1
    outer loop
      vertex 0 -7.505553499465135 0
      vertex -2.2222809320784087 -3.325878449210181 0
      vertex -1.8855869473039906 -3.52768505739342 0
    endloop
  endfacet
  facet normal 0 0 -1
    outer loop
      vertex 0 -7.505553499465135 0
      vertex -1.8855869473039906 -3.52768505739342 0
      vertex -1.5307337294603591 -3.695518130045147 0
    endloop
  endfacet
  facet normal 0 0 -1
    outer loop
      vertex 0 -7.505553499465135 0
      vertex -1.5307337294603591 -3.695518130045147 0
      vertex -1.1611387090178493 -3.8277613429288353 0
    endloop
  endfacet
  facet normal 0 0 -1
    outer loop
      vertex 0 -7.505553499465135 0
      vertex -2.537573136654582 -3.092041813450948 0
      vertex -2.2222809320784087 -3.325878449210181 0
    endloop
  endfacet
  facet normal 0 0 -1
    outer loop
      vertex 0 -7.505553499465135 0
      vertex -1.1611387090178493 -3.8277613429288353 0
      vertex -0.780361288064513 -3.9231411216129217 0
    endloop
  endfacet
  facet normal 0 0 -1
    outer loop
      vertex 0 -7.505553499465135 0
      vertex -0.3920685613182424 -3.9807389066887877 0
      vertex 0 -4 0
    endloop
  endfacet
  facet normal 0 0 -1
    outer loop
      vertex 0 -7.505553499465135 0
      vertex -0.780361288064513 -3.9231411216129217 0
      vertex -0.3920685613182424 -3.9807389066887877 0
    endloop
  endfacet
  facet normal 0 0 -1
    outer loop
      vertex -6.5 -3.7527767497325675 0
      vertex -6.5 3.752776749732567 0
      vertex -3.9807389066887877 0.3920685613182424 0
    endloop
  endfacet
  facet normal -1 0 0
    outer loop
      vertex -6.5 -3.7527767497325675 0
      vertex -6.5 3.752776749732567 5.3
      vertex -6.5 3.752776749732567 0
    endloop
  endfacet
  facet normal 0 0 -1
    outer loop
      vertex -6.5 3.752776749732567 0
      vertex -3.9231411216129217 0.780361288064513 0
      vertex -3.9807389066887877 0.3920685613182424 0
    endloop
  endfacet
  facet normal 0 0 -1
    outer loop
      vertex -6.5 3.752776749732567 0
      vertex -3.8277613429288353 1.1611387090178493 0
      vertex -3.9231411216129217 0.780361288064513 0
    endloop
  endfacet
  facet normal 0 0 -1
    outer loop
      vertex -6.5 3.752776749732567 0
      vertex -3.695518130045147 1.5307337294603591 0
      vertex -3.8277613429288353 1.1611387090178493 0
    endloop
  endfacet
  facet normal 0 0 -1
    outer loop
      vertex -6.5 3.752776749732567 0
      vertex -3.52768505739342 1.8855869473039906 0
      vertex -3.695518130045147 1.5307337294603591 0
    endloop
  endfacet
  facet normal 0 0 -1
    outer loop
      vertex -6.5 3.752776749732567 0
      vertex -3.325878449210181 2.2222809320784087 0
      vertex -3.52768505739342 1.8855869473039906 0
    endloop
  endfacet
  facet normal 0 0 -1
    outer loop
      vertex -6.5 3.752776749732567 0
      vertex -3.092041813450948 2.537573136654582 0
      vertex -3.325878449210181 2.2222809320784087 0
    endloop
  endfacet
  facet normal 0 0 -1
    outer loop
      vertex -6.5 3.752776749732567 0
      vertex -2.8284271247461903 2.8284271247461903 0
      vertex -3.092041813450948 2.537573136654582 0
    endloop
  endfacet
  facet normal -0.5000000000000001 0.8660254037844386 0
    outer loop
      vertex -6.5 3.752776749732567 0
      vertex -6.5 3.752776749732567 5.3
      vertex 0 7.505553499465135 0
    endloop
  endfacet
  facet normal 0 0 1
    outer loop
      vertex -6.5 3.752776749732567 5.3
      vertex 0 -7.505553499465135 5.3
      vertex 0 7.505553499465135 5.3
    endloop
  endfacet
  facet normal 0 0 -1
    outer loop
      vertex -6.5 3.752776749732567 0
      vertex 0 7.505553499465135 0
      vertex -2.8284271247461903 2.8284271247461903 0
    endloop
  endfacet
  facet normal 0 0 -1
    outer loop
      vertex 0 7.505553499465135 0
      vertex -2.537573136654582 3.092041813450948 0
      vertex -2.8284271247461903 2.8284271247461903 0
    endloop
  endfacet
  facet normal -0.5000000000000001 0.8660254037844386 0
    outer loop
      vertex -6.5 3.752776749732567 5.3
      vertex 0 7.505553499465135 5.3
      vertex 0 7.505553499465135 0
    endloop
  endfacet
  facet normal 0 0 -1
    outer loop
      vertex 0 7.505553499465135 0
      vertex -2.2222809320784087 3.325878449210181 0
      vertex -2.537573136654582 3.092041813450948 0
    endloop
  endfacet
  facet normal 0 0 -1
    outer loop
      vertex 0 7.505553499465135 0
      vertex -1.8855869473039906 3.52768505739342 0
      vertex -2.2222809320784087 3.325878449210181 0
    endloop
  endfacet
  facet normal 0 0 -1
    outer loop
      vertex 0 7.505553499465135 0
      vertex -1.5307337294603591 3.695518130045147 0
      vertex -1.8855869473039906 3.52768505739342 0
    endloop
  endfacet
  facet normal 0 0 -1
    outer loop
      vertex 0 7.505553499465135 0
      vertex -1.1611387090178493 3.8277613429288353 0
      vertex -1.5307337294603591 3.695518130045147 0
    endloop
  endfacet
  facet normal 0 0 -1
    outer loop
      vertex 0 7.505553499465135 0
      vertex -0.780361288064513 3.9231411216129217 0
      vertex -1.1611387090178493 3.8277613429288353 0
    endloop
  endfacet
  facet normal 0 0 -1
    outer loop
      vertex 0 7.505553499465135 0
      vertex -0.3920685613182424 3.9807389066887877 0
      vertex -0.780361288064513 3.9231411216129217 0
    endloop
  endfacet
  facet normal 0 0 -1
    outer loop
      vertex 0 7.505553499465135 0
      vertex 0 4 0
      vertex -0.3920685613182424 3.9807389066887877 0
    endloop
  endfacet
  facet normal 0 0 -1
    outer loop
      vertex 0 -7.505553499465135 0
      vertex 0 -4 0
      vertex 0.3920685613182424 -3.9807389066887877 0
    endloop
  endfacet
  facet normal 0 0 -1
    outer loop
      vertex 0 -7.505553499465135 0
      vertex 0.3920685613182424 -3.9807389066887877 0
      vertex 0.780361288064513 -3.9231411216129217 0
    endloop
  endfacet
  facet normal 0 0 -1
    outer loop
      vertex 0 -7.505553499465135 0
      vertex 0.780361288064513 -3.9231411216129217 0
      vertex 1.1611387090178493 -3.8277613429288353 0
    endloop
  endfacet
  facet normal 0 0 -1
    outer loop
      vertex 0 -7.505553499465135 0
      vertex 1.1611387090178493 -3.8277613429288353 0
      vertex 1.5307337294603591 -3.695518130045147 0
    endloop
  endfacet
  facet normal 0 0 -1
    outer loop
      vertex 0 -7.505553499465135 0
      vertex 1.5307337294603591 -3.695518130045147 0
      vertex 1.8855869473039906 -3.52768505739342 0
    endloop
  endfacet
  facet normal 0 0 -1
    outer loop
      vertex 0 -7.505553499465135 0
      vertex 1.8855869473039906 -3.52768505739342 0
      vertex 2.2222809320784087 -3.325878449210181 0
    endloop
  endfacet
  facet normal 0 0 -1
    outer loop
      vertex 0 -7.505553499465135 0
      vertex 2.2222809320784087 -3.325878449210181 0
      vertex 2.537573136654582 -3.092041813450948 0
    endloop
  endfacet
  facet normal 0.5000000000000001 -0.8660254037844386 0
    outer loop
      vertex 0 -7.505553499465135 0
      vertex 6.5 -3.752776749732567 5.3
      vertex 0 -7.505553499465135 5.3
    endloop
  endfacet
  facet normal 0 0 -1
    outer loop
      vertex 0 -7.505553499465135 0
      vertex 2.537573136654582 -3.092041813450948 0
      vertex 2.8284271247461903 -2.8284271247461903 0
    endloop
  endfacet
  facet normal 0 0 -1
    outer loop
      vertex 0 -7.505553499465135 0
      vertex 2.8284271247461903 -2.8284271247461903 0
      vertex 6.5 -3.752776749732567 0
    endloop
  endfacet
  facet normal 0 0 1
    outer loop
      vertex 0 -7.505553499465135 5.3
      vertex 6.5 -3.752776749732567 5.3
      vertex 0 7.505553499465135 5.3
    endloop
  endfacet
  facet normal 0.5000000000000001 -0.8660254037844386 0
    outer loop
      vertex 0 -7.505553499465135 0
      vertex 6.5 -3.752776749732567 0
      vertex 6.5 -3.752776749732567 5.3
    endloop
  endfacet
  facet normal 0 0 -1
    outer loop
      vertex 6.5 -3.752776749732567 0
      vertex 2.8284271247461903 -2.8284271247461903 0
      vertex 3.092041813450948 -2.537573136654582 0
    endloop
  endfacet
  facet normal 0 0 -1
    outer loop
      vertex 6.5 -3.752776749732567 0
      vertex 3.092041813450948 -2.537573136654582 0
      vertex 3.325878449210181 -2.2222809320784087 0
    endloop
  endfacet
  facet normal 0 0 -1
    outer loop
      vertex 6.5 -3.752776749732567 0
      vertex 3.325878449210181 -2.2222809320784087 0
      vertex 3.52768505739342 -1.8855869473039906 0
    endloop
  endfacet
  facet normal 0 0 -1
    outer loop
      vertex 6.5 -3.752776749732567 0
      vertex 3.52768505739342 -1.8855869473039906 0
      vertex 3.695518130045147 -1.5307337294603591 0
    endloop
  endfacet
  facet normal 0 0 -1
    outer loop
      vertex 6.5 -3.752776749732567 0
      vertex 3.695518130045147 -1.5307337294603591 0
      vertex 3.8277613429288353 -1.1611387090178493 0
    endloop
  endfacet
  facet normal 0 0 -1
    outer loop
      vertex 6.5 -3.752776749732567 0
      vertex 3.8277613429288353 -1.1611387090178493 0
      vertex 3.9231411216129217 -0.780361288064513 0
    endloop
  endfacet
  facet normal 0 0 -1
    outer loop
      vertex 6.5 -3.752776749732567 0
      vertex 3.9231411216129217 -0.780361288064513 0
      vertex 3.9807389066887877 -0.3920685613182424 0
    endloop
  endfacet
  facet normal 0 0 -1
    outer loop
      vertex 6.5 -3.752776749732567 0
      vertex 3.9807389066887877 -0.3920685613182424 0
      vertex 6.5 3.7527767497325675 0
    endloop
  endfacet
  facet normal 1 0 0
    outer loop
      vertex 6.5 -3.752776749732567 0
      vertex 6.5 3.7527767497325675 0
      vertex 6.5 -3.752776749732567 5.3
    endloop
  endfacet
  facet normal 0 0 -1
    outer loop
      vertex 0 7.505553499465135 0
      vertex 0.780361288064513 3.9231411216129217 0
      vertex 0.3920685613182424 3.9807389066887877 0
    endloop
  endfacet
  facet normal 0 0 -1
    outer loop
      vertex 0 7.505553499465135 0
      vertex 0.3920685613182424 3.9807389066887877 0
      vertex 0 4 0
    endloop
  endfacet
  facet normal 0 0 -1
    outer loop
      vertex 0 7.505553499465135 0
      vertex 1.1611387090178493 3.8277613429288353 0
      vertex 0.780361288064513 3.9231411216129217 0
    endloop
  endfacet
  facet normal 0 0 -1
    outer loop
      vertex 0 7.505553499465135 0
      vertex 2.537573136654582 3.092041813450948 0
      vertex 2.2222809320784087 3.325878449210181 0
    endloop
  endfacet
  facet normal 0 0 -1
    outer loop
      vertex 0 7.505553499465135 0
      vertex 1.5307337294603591 3.695518130045147 0
      vertex 1.1611387090178493 3.8277613429288353 0
    endloop
  endfacet
  facet normal 0 0 -1
    outer loop
      vertex 0 7.505553499465135 0
      vertex 1.8855869473039906 3.52768505739342 0
      vertex 1.5307337294603591 3.695518130045147 0
    endloop
  endfacet
  facet normal 0 0 -1
    outer loop
      vertex 0 7.505553499465135 0
      vertex 2.2222809320784087 3.325878449210181 0
      vertex 1.8855869473039906 3.52768505739342 0
    endloop
  endfacet
  facet normal 0 0 -1
    outer loop
      vertex 0 7.505553499465135 0
      vertex 6.5 3.7527767497325675 0
      vertex 2.537573136654582 3.092041813450948 0
    endloop
  endfacet
  facet normal 0.5 0.8660254037844386 0
    outer loop
      vertex 0 7.505553499465135 0
      vertex 0 7.505553499465135 5.3
      vertex 6.5 3.7527767497325675 0
    endloop
  endfacet
  facet normal 0 0 -1
    outer loop
      vertex 6.5 3.7527767497325675 0
      vertex 3.9807389066887877 -0.3920685613182424 0
      vertex 4 0 0
    endloop
  endfacet
  facet normal 0 0 -1
    outer loop
      vertex 6.5 3.7527767497325675 0
      vertex 4 0 0
      vertex 3.9807389066887877 0.3920685613182424 0
    endloop
  endfacet
  facet normal 0 0 -1
    outer loop
      vertex 6.5 3.7527767497325675 0
      vertex 3.9807389066887877 0.3920685613182424 0
      vertex 3.9231411216129217 0.780361288064513 0
    endloop
  endfacet
  facet normal 0 0 -1
    outer loop
      vertex 6.5 3.7527767497325675 0
      vertex 2.8284271247461903 2.8284271247461903 0
      vertex 2.537573136654582 3.092041813450948 0
    endloop
  endfacet
  facet normal 0 0 -1
    outer loop
      vertex 6.5 3.7527767497325675 0
      vertex 3.52768505739342 1.8855869473039906 0
      vertex 3.325878449210181 2.2222809320784087 0
    endloop
  endfacet
  facet normal 0 0 -1
    outer loop
      vertex 6.5 3.7527767497325675 0
      vertex 3.9231411216129217 0.780361288064513 0
      vertex 3.8277613429288353 1.1611387090178493 0
    endloop
  endfacet
  facet normal 0 0 -1
    outer loop
      vertex 6.5 3.7527767497325675 0
      vertex 3.8277613429288353 1.1611387090178493 0
      vertex 3.695518130045147 1.5307337294603591 0
    endloop
  endfacet
  facet normal 0 0 -1
    outer loop
      vertex 6.5 3.7527767497325675 0
      vertex 3.695518130045147 1.5307337294603591 0
      vertex 3.52768505739342 1.8855869473039906 0
    endloop
  endfacet
  facet normal 0 0 -1
    outer loop
      vertex 6.5 3.7527767497325675 0
      vertex 3.092041813450948 2.537573136654582 0
      vertex 2.8284271247461903 2.8284271247461903 0
    endloop
  endfacet
  facet normal 0 0 -1
    outer loop
      vertex 6.5 3.7527767497325675 0
      vertex 3.325878449210181 2.2222809320784087 0
      vertex 3.092041813450948 2.537573136654582 0
    endloop
  endfacet
  facet normal 0 0 1
    outer loop
      vertex 6.5 -3.752776749732567 5.3
      vertex 6.5 3.7527767497325675 5.3
      vertex 0 7.505553499465135 5.3
    endloop
  endfacet
  facet normal 1 0 0
    outer loop
      vertex 6.5 -3.752776749732567 5.3
      vertex 6.5 3.7527767497325675 0
      vertex 6.5 3.7527767497325675 5.3
    endloop
  endfacet
  facet normal 0.5 0.8660254037844386 0
    outer loop
      vertex 6.5 3.7527767497325675 0
      vertex 0 7.505553499465135 5.3
      vertex 6.5 3.7527767497325675 5.3
    endloop
  endfacet
  facet normal 0 0 -1
    outer loop
      vertex -3.8277613429288353 -1.1611387090178493 -30
      vertex -3.9231411216129217 -0.780361288064513 -30
      vertex -3.8277613429288353 1.1611387090178493 -30
    endloop
  endfacet
  facet normal 0 0 -1
    outer loop
      vertex -3.9231411216129217 -0.780361288064513 -30
      vertex -3.9807389066887877 -0.3920685613182424 -30
      vertex -3.9231411216129217 0.780361288064513 -30
    endloop
  endfacet
  facet normal 0 0 -1
    outer loop
      vertex -3.695518130045147 -1.5307337294603591 -30
      vertex -3.8277613429288353 -1.1611387090178493 -30
      vertex -3.695518130045147 1.5307337294603591 -30
    endloop
  endfacet
  facet normal 0 0 -1
    outer loop
      vertex -3.52768505739342 -1.8855869473039906 -30
      vertex -3.695518130045147 -1.5307337294603591 -30
      vertex -3.52768505739342 1.8855869473039906 -30
    endloop
  endfacet
  facet normal 0 0 -1
    outer loop
      vertex -3.325878449210181 -2.2222809320784087 -30
      vertex -3.52768505739342 -1.8855869473039906 -30
      vertex -3.325878449210181 2.2222809320784087 -30
    endloop
  endfacet
  facet normal -0.8577286100002719 -0.5141027441932221 0
    outer loop
      vertex -3.325878449210181 -2.2222809320784087 -30
      vertex -3.52768505739342 -1.8855869473039906 0
      vertex -3.52768505739342 -1.8855869473039906 -30
    endloop
  endfacet
  facet normal -0.9415440651830208 -0.3368898533922197 0
    outer loop
      vertex -3.695518130045147 -1.5307337294603591 -30
      vertex -3.8277613429288353 -1.1611387090178493 0
      vertex -3.8277613429288353 -1.1611387090178493 -30
    endloop
  endfacet
  facet normal -0.9039892931234433 -0.4275550934302818 0
    outer loop
      vertex -3.52768505739342 -1.8855869473039906 -30
      vertex -3.695518130045147 -1.5307337294603591 0
      vertex -3.695518130045147 -1.5307337294603591 -30
    endloop
  endfacet
  facet normal -0.9700312531945439 -0.24298017990326415 0
    outer loop
      vertex -3.8277613429288353 -1.1611387090178493 -30
      vertex -3.9231411216129217 -0.780361288064513 0
      vertex -3.9231411216129217 -0.780361288064513 -30
    endloop
  endfacet
  facet normal -0.9891765099647808 -0.14673047445536236 0
    outer loop
      vertex -3.9231411216129217 -0.780361288064513 -30
      vertex -3.9807389066887877 -0.3920685613182424 0
      vertex -3.9807389066887877 -0.3920685613182424 -30
    endloop
  endfacet
  facet normal -0.9987954562051723 -0.04906767432741758 0
    outer loop
      vertex -3.9807389066887877 -0.3920685613182424 -30
      vertex -4 0 0
      vertex -4 0 -30
    endloop
  endfacet
  facet normal -0.3368898533922197 -0.9415440651830208 0
    outer loop
      vertex -1.5307337294603591 -3.695518130045147 -30
      vertex -1.1611387090178493 -3.8277613429288353 -30
      vertex -1.1611387090178493 -3.8277613429288353 0
    endloop
  endfacet
  facet normal -0.24298017990326415 -0.9700312531945439 0
    outer loop
      vertex -1.1611387090178493 -3.8277613429288353 -30
      vertex -0.780361288064513 -3.9231411216129217 -30
      vertex -0.780361288064513 -3.9231411216129217 0
    endloop
  endfacet
  facet normal -0.14673047445536236 -0.9891765099647808 0
    outer loop
      vertex -0.780361288064513 -3.9231411216129217 -30
      vertex -0.3920685613182424 -3.9807389066887877 -30
      vertex -0.3920685613182424 -3.9807389066887877 0
    endloop
  endfacet
  facet normal -0.04906767432741758 -0.9987954562051723 0
    outer loop
      vertex -0.3920685613182424 -3.9807389066887877 -30
      vertex 0 -4 -30
      vertex 0 -4 0
    endloop
  endfacet
  facet normal 0 0 -1
    outer loop
      vertex -2.537573136654582 -3.092041813450948 -30
      vertex -2.8284271247461903 -2.8284271247461903 -30
      vertex -2.537573136654582 3.092041813450948 -30
    endloop
  endfacet
  facet normal 0 0 -1
    outer loop
      vertex -3.092041813450948 -2.537573136654582 -30
      vertex -3.325878449210181 -2.2222809320784087 -30
      vertex -3.092041813450948 2.537573136654582 -30
    endloop
  endfacet
  facet normal 0 0 -1
    outer loop
      vertex -3.092041813450948 -2.537573136654582 -30
      vertex -2.8284271247461903 2.8284271247461903 -30
      vertex -2.8284271247461903 -2.8284271247461903 -30
    endloop
  endfacet
  facet normal 0 0 -1
    outer loop
      vertex -2.537573136654582 -3.092041813450948 -30
      vertex -2.2222809320784087 3.325878449210181 -30
      vertex -2.2222809320784087 -3.325878449210181 -30
    endloop
  endfacet
  facet normal 0 0 -1
    outer loop
      vertex -2.2222809320784087 -3.325878449210181 -30
      vertex -1.8855869473039906 3.52768505739342 -30
      vertex -1.8855869473039906 -3.52768505739342 -30
    endloop
  endfacet
  facet normal 0 0 -1
    outer loop
      vertex -1.8855869473039906 -3.52768505739342 -30
      vertex -1.5307337294603591 3.695518130045147 -30
      vertex -1.5307337294603591 -3.695518130045147 -30
    endloop
  endfacet
  facet normal 0 0 -1
    outer loop
      vertex -1.5307337294603591 -3.695518130045147 -30
      vertex -1.1611387090178493 3.8277613429288353 -30
      vertex -1.1611387090178493 -3.8277613429288353 -30
    endloop
  endfacet
  facet normal 0 0 -1
    outer loop
      vertex -1.1611387090178493 -3.8277613429288353 -30
      vertex -0.780361288064513 3.9231411216129217 -30
      vertex -0.780361288064513 -3.9231411216129217 -30
    endloop
  endfacet
  facet normal 0 0 -1
    outer loop
      vertex -0.780361288064513 -3.9231411216129217 -30
      vertex -0.3920685613182424 3.9807389066887877 -30
      vertex -0.3920685613182424 -3.9807389066887877 -30
    endloop
  endfacet
  facet normal 0 0 -1
    outer loop
      vertex -0.3920685613182424 -3.9807389066887877 -30
      vertex 0 4 -30
      vertex 0 -4 -30
    endloop
  endfacet
  facet normal -0.671558954847018 -0.7409511253549593 0
    outer loop
      vertex -2.537573136654582 -3.092041813450948 -30
      vertex -2.537573136654582 -3.092041813450948 0
      vertex -2.8284271247461903 -2.8284271247461903 -30
    endloop
  endfacet
  facet normal -0.7409511253549593 -0.671558954847018 0
    outer loop
      vertex -3.092041813450948 -2.537573136654582 -30
      vertex -2.8284271247461903 -2.8284271247461903 -30
      vertex -3.092041813450948 -2.537573136654582 0
    endloop
  endfacet
  facet normal -0.8032075314806453 -0.5956993044924329 0
    outer loop
      vertex -3.092041813450948 -2.537573136654582 -30
      vertex -3.325878449210181 -2.2222809320784087 0
      vertex -3.325878449210181 -2.2222809320784087 -30
    endloop
  endfacet
  facet normal -0.5956993044924329 -0.8032075314806453 0
    outer loop
      vertex -2.537573136654582 -3.092041813450948 -30
      vertex -2.2222809320784087 -3.325878449210181 -30
      vertex -2.2222809320784087 -3.325878449210181 0
    endloop
  endfacet
  facet normal -0.5141027441932221 -0.8577286100002719 0
    outer loop
      vertex -2.2222809320784087 -3.325878449210181 -30
      vertex -1.8855869473039906 -3.52768505739342 -30
      vertex -1.8855869473039906 -3.52768505739342 0
    endloop
  endfacet
  facet normal -0.4275550934302818 -0.9039892931234433 0
    outer loop
      vertex -1.8855869473039906 -3.52768505739342 -30
      vertex -1.5307337294603591 -3.695518130045147 -30
      vertex -1.5307337294603591 -3.695518130045147 0
    endloop
  endfacet
  facet normal -0.8577286100002719 -0.5141027441932221 0
    outer loop
      vertex -3.325878449210181 -2.2222809320784087 -30
      vertex -3.325878449210181 -2.2222809320784087 0
      vertex -3.52768505739342 -1.8855869473039906 0
    endloop
  endfacet
  facet normal -0.9415440651830208 -0.3368898533922197 0
    outer loop
      vertex -3.695518130045147 -1.5307337294603591 -30
      vertex -3.695518130045147 -1.5307337294603591 0
      vertex -3.8277613429288353 -1.1611387090178493 0
    endloop
  endfacet
  facet normal -0.9700312531945439 -0.24298017990326415 0
    outer loop
      vertex -3.8277613429288353 -1.1611387090178493 -30
      vertex -3.8277613429288353 -1.1611387090178493 0
      vertex -3.9231411216129217 -0.780361288064513 0
    endloop
  endfacet
  facet normal -0.9039892931234433 -0.4275550934302818 0
    outer loop
      vertex -3.52768505739342 -1.8855869473039906 -30
      vertex -3.52768505739342 -1.8855869473039906 0
      vertex -3.695518130045147 -1.5307337294603591 0
    endloop
  endfacet
  facet normal -0.9891765099647808 -0.14673047445536236 0
    outer loop
      vertex -3.9231411216129217 -0.780361288064513 -30
      vertex -3.9231411216129217 -0.780361288064513 0
      vertex -3.9807389066887877 -0.3920685613182424 0
    endloop
  endfacet
  facet normal -0.9987954562051723 -0.04906767432741758 0
    outer loop
      vertex -3.9807389066887877 -0.3920685613182424 -30
      vertex -3.9807389066887877 -0.3920685613182424 0
      vertex -4 0 0
    endloop
  endfacet
  facet normal -0.24298017990326415 -0.9700312531945439 0
    outer loop
      vertex -1.1611387090178493 -3.8277613429288353 -30
      vertex -0.780361288064513 -3.9231411216129217 0
      vertex -1.1611387090178493 -3.8277613429288353 0
    endloop
  endfacet
  facet normal -0.14673047445536236 -0.9891765099647808 0
    outer loop
      vertex -0.780361288064513 -3.9231411216129217 -30
      vertex -0.3920685613182424 -3.9807389066887877 0
      vertex -0.780361288064513 -3.9231411216129217 0
    endloop
  endfacet
  facet normal -0.04906767432741758 -0.9987954562051723 0
    outer loop
      vertex -0.3920685613182424 -3.9807389066887877 -30
      vertex 0 -4 0
      vertex -0.3920685613182424 -3.9807389066887877 0
    endloop
  endfacet
  facet normal -0.671558954847018 -0.7409511253549593 0
    outer loop
      vertex -2.8284271247461903 -2.8284271247461903 -30
      vertex -2.537573136654582 -3.092041813450948 0
      vertex -2.8284271247461903 -2.8284271247461903 0
    endloop
  endfacet
  facet normal -0.8032075314806453 -0.5956993044924329 0
    outer loop
      vertex -3.092041813450948 -2.537573136654582 -30
      vertex -3.092041813450948 -2.537573136654582 0
      vertex -3.325878449210181 -2.2222809320784087 0
    endloop
  endfacet
  facet normal -0.7409511253549593 -0.671558954847018 0
    outer loop
      vertex -2.8284271247461903 -2.8284271247461903 -30
      vertex -2.8284271247461903 -2.8284271247461903 0
      vertex -3.092041813450948 -2.537573136654582 0
    endloop
  endfacet
  facet normal -0.5141027441932221 -0.8577286100002719 0
    outer loop
      vertex -2.2222809320784087 -3.325878449210181 -30
      vertex -1.8855869473039906 -3.52768505739342 0
      vertex -2.2222809320784087 -3.325878449210181 0
    endloop
  endfacet
  facet normal -0.5956993044924329 -0.8032075314806453 0
    outer loop
      vertex -2.537573136654582 -3.092041813450948 -30
      vertex -2.2222809320784087 -3.325878449210181 0
      vertex -2.537573136654582 -3.092041813450948 0
    endloop
  endfacet
  facet normal -0.4275550934302818 -0.9039892931234433 0
    outer loop
      vertex -1.8855869473039906 -3.52768505739342 -30
      vertex -1.5307337294603591 -3.695518130045147 0
      vertex -1.8855869473039906 -3.52768505739342 0
    endloop
  endfacet
  facet normal -0.3368898533922197 -0.9415440651830208 0
    outer loop
      vertex -1.5307337294603591 -3.695518130045147 -30
      vertex -1.1611387090178493 -3.8277613429288353 0
      vertex -1.5307337294603591 -3.695518130045147 0
    endloop
  endfacet
  facet normal 0 0 -1
    outer loop
      vertex -3.9807389066887877 -0.3920685613182424 -30
      vertex -4 0 -30
      vertex -3.9807389066887877 0.3920685613182424 -30
    endloop
  endfacet
  facet normal 0 0 -1
    outer loop
      vertex -3.9807389066887877 -0.3920685613182424 -30
      vertex -3.9807389066887877 0.3920685613182424 -30
      vertex -3.9231411216129217 0.780361288064513 -30
    endloop
  endfacet
  facet normal 0 0 -1
    outer loop
      vertex -3.9231411216129217 -0.780361288064513 -30
      vertex -3.9231411216129217 0.780361288064513 -30
      vertex -3.8277613429288353 1.1611387090178493 -30
    endloop
  endfacet
  facet normal 0 0 -1
    outer loop
      vertex -3.8277613429288353 -1.1611387090178493 -30
      vertex -3.8277613429288353 1.1611387090178493 -30
      vertex -3.695518130045147 1.5307337294603591 -30
    endloop
  endfacet
  facet normal 0 0 -1
    outer loop
      vertex -3.695518130045147 -1.5307337294603591 -30
      vertex -3.695518130045147 1.5307337294603591 -30
      vertex -3.52768505739342 1.8855869473039906 -30
    endloop
  endfacet
  facet normal 0 0 -1
    outer loop
      vertex -3.52768505739342 -1.8855869473039906 -30
      vertex -3.52768505739342 1.8855869473039906 -30
      vertex -3.325878449210181 2.2222809320784087 -30
    endloop
  endfacet
  facet normal -0.9987954562051723 0.04906767432741758 0
    outer loop
      vertex -4 0 -30
      vertex -3.9807389066887877 0.3920685613182424 0
      vertex -3.9807389066887877 0.3920685613182424 -30
    endloop
  endfacet
  facet normal -0.9891765099647808 0.14673047445536236 0
    outer loop
      vertex -3.9807389066887877 0.3920685613182424 -30
      vertex -3.9231411216129217 0.780361288064513 0
      vertex -3.9231411216129217 0.780361288064513 -30
    endloop
  endfacet
  facet normal -0.9700312531945439 0.24298017990326415 0
    outer loop
      vertex -3.9231411216129217 0.780361288064513 -30
      vertex -3.8277613429288353 1.1611387090178493 0
      vertex -3.8277613429288353 1.1611387090178493 -30
    endloop
  endfacet
  facet normal -0.9415440651830208 0.3368898533922197 0
    outer loop
      vertex -3.8277613429288353 1.1611387090178493 -30
      vertex -3.695518130045147 1.5307337294603591 0
      vertex -3.695518130045147 1.5307337294603591 -30
    endloop
  endfacet
  facet normal -0.9039892931234433 0.4275550934302818 0
    outer loop
      vertex -3.695518130045147 1.5307337294603591 -30
      vertex -3.52768505739342 1.8855869473039906 0
      vertex -3.52768505739342 1.8855869473039906 -30
    endloop
  endfacet
  facet normal -0.8577286100002719 0.5141027441932221 0
    outer loop
      vertex -3.52768505739342 1.8855869473039906 -30
      vertex -3.325878449210181 2.2222809320784087 0
      vertex -3.325878449210181 2.2222809320784087 -30
    endloop
  endfacet
  facet normal 0 0 -1
    outer loop
      vertex -3.325878449210181 -2.2222809320784087 -30
      vertex -3.325878449210181 2.2222809320784087 -30
      vertex -3.092041813450948 2.537573136654582 -30
    endloop
  endfacet
  facet normal 0 0 -1
    outer loop
      vertex -3.092041813450948 -2.537573136654582 -30
      vertex -3.092041813450948 2.537573136654582 -30
      vertex -2.8284271247461903 2.8284271247461903 -30
    endloop
  endfacet
  facet normal 0 0 -1
    outer loop
      vertex -2.8284271247461903 -2.8284271247461903 -30
      vertex -2.8284271247461903 2.8284271247461903 -30
      vertex -2.537573136654582 3.092041813450948 -30
    endloop
  endfacet
  facet normal 0 0 -1
    outer loop
      vertex -2.537573136654582 -3.092041813450948 -30
      vertex -2.537573136654582 3.092041813450948 -30
      vertex -2.2222809320784087 3.325878449210181 -30
    endloop
  endfacet
  facet normal 0 0 -1
    outer loop
      vertex -2.2222809320784087 -3.325878449210181 -30
      vertex -2.2222809320784087 3.325878449210181 -30
      vertex -1.8855869473039906 3.52768505739342 -30
    endloop
  endfacet
  facet normal 0 0 -1
    outer loop
      vertex -1.8855869473039906 -3.52768505739342 -30
      vertex -1.8855869473039906 3.52768505739342 -30
      vertex -1.5307337294603591 3.695518130045147 -30
    endloop
  endfacet
  facet normal 0 0 -1
    outer loop
      vertex -1.5307337294603591 -3.695518130045147 -30
      vertex -1.5307337294603591 3.695518130045147 -30
      vertex -1.1611387090178493 3.8277613429288353 -30
    endloop
  endfacet
  facet normal 0 0 -1
    outer loop
      vertex -1.1611387090178493 -3.8277613429288353 -30
      vertex -1.1611387090178493 3.8277613429288353 -30
      vertex -0.780361288064513 3.9231411216129217 -30
    endloop
  endfacet
  facet normal 0 0 -1
    outer loop
      vertex -0.780361288064513 -3.9231411216129217 -30
      vertex -0.780361288064513 3.9231411216129217 -30
      vertex -0.3920685613182424 3.9807389066887877 -30
    endloop
  endfacet
  facet normal 0 0 -1
    outer loop
      vertex -0.3920685613182424 -3.9807389066887877 -30
      vertex -0.3920685613182424 3.9807389066887877 -30
      vertex 0 4 -30
    endloop
  endfacet
  facet normal -0.8032075314806453 0.5956993044924329 0
    outer loop
      vertex -3.325878449210181 2.2222809320784087 -30
      vertex -3.092041813450948 2.537573136654582 0
      vertex -3.092041813450948 2.537573136654582 -30
    endloop
  endfacet
  facet normal -0.7409511253549593 0.671558954847018 0
    outer loop
      vertex -3.092041813450948 2.537573136654582 -30
      vertex -2.8284271247461903 2.8284271247461903 0
      vertex -2.8284271247461903 2.8284271247461903 -30
    endloop
  endfacet
  facet normal -0.671558954847018 0.7409511253549593 0
    outer loop
      vertex -2.8284271247461903 2.8284271247461903 -30
      vertex -2.8284271247461903 2.8284271247461903 0
      vertex -2.537573136654582 3.092041813450948 -30
    endloop
  endfacet
  facet normal -0.5956993044924329 0.8032075314806453 0
    outer loop
      vertex -2.537573136654582 3.092041813450948 -30
      vertex -2.537573136654582 3.092041813450948 0
      vertex -2.2222809320784087 3.325878449210181 -30
    endloop
  endfacet
  facet normal -0.5141027441932221 0.8577286100002719 0
    outer loop
      vertex -2.2222809320784087 3.325878449210181 -30
      vertex -2.2222809320784087 3.325878449210181 0
      vertex -1.8855869473039906 3.52768505739342 -30
    endloop
  endfacet
  facet normal -0.4275550934302818 0.9039892931234433 0
    outer loop
      vertex -1.8855869473039906 3.52768505739342 -30
      vertex -1.8855869473039906 3.52768505739342 0
      vertex -1.5307337294603591 3.695518130045147 -30
    endloop
  endfacet
  facet normal -0.3368898533922197 0.9415440651830208 0
    outer loop
      vertex -1.5307337294603591 3.695518130045147 -30
      vertex -1.5307337294603591 3.695518130045147 0
      vertex -1.1611387090178493 3.8277613429288353 -30
    endloop
  endfacet
  facet normal -0.24298017990326415 0.9700312531945439 0
    outer loop
      vertex -1.1611387090178493 3.8277613429288353 -30
      vertex -1.1611387090178493 3.8277613429288353 0
      vertex -0.780361288064513 3.9231411216129217 -30
    endloop
  endfacet
  facet normal -0.14673047445536236 0.9891765099647808 0
    outer loop
      vertex -0.780361288064513 3.9231411216129217 -30
      vertex -0.780361288064513 3.9231411216129217 0
      vertex -0.3920685613182424 3.9807389066887877 -30
    endloop
  endfacet
  facet normal -0.04906767432741758 0.9987954562051723 0
    outer loop
      vertex -0.3920685613182424 3.9807389066887877 -30
      vertex -0.3920685613182424 3.9807389066887877 0
      vertex 0 4 -30
    endloop
  endfacet
  facet normal -0.9987954562051723 0.04906767432741758 0
    outer loop
      vertex -4 0 -30
      vertex -4 0 0
      vertex -3.9807389066887877 0.3920685613182424 0
    endloop
  endfacet
  facet normal -0.9891765099647808 0.14673047445536236 0
    outer loop
      vertex -3.9807389066887877 0.3920685613182424 -30
      vertex -3.9807389066887877 0.3920685613182424 0
      vertex -3.9231411216129217 0.780361288064513 0
    endloop
  endfacet
  facet normal -0.9700312531945439 0.24298017990326415 0
    outer loop
      vertex -3.9231411216129217 0.780361288064513 -30
      vertex -3.9231411216129217 0.780361288064513 0
      vertex -3.8277613429288353 1.1611387090178493 0
    endloop
  endfacet
  facet normal -0.9415440651830208 0.3368898533922197 0
    outer loop
      vertex -3.8277613429288353 1.1611387090178493 -30
      vertex -3.8277613429288353 1.1611387090178493 0
      vertex -3.695518130045147 1.5307337294603591 0
    endloop
  endfacet
  facet normal -0.9039892931234433 0.4275550934302818 0
    outer loop
      vertex -3.695518130045147 1.5307337294603591 -30
      vertex -3.695518130045147 1.5307337294603591 0
      vertex -3.52768505739342 1.8855869473039906 0
    endloop
  endfacet
  facet normal -0.8577286100002719 0.5141027441932221 0
    outer loop
      vertex -3.52768505739342 1.8855869473039906 -30
      vertex -3.52768505739342 1.8855869473039906 0
      vertex -3.325878449210181 2.2222809320784087 0
    endloop
  endfacet
  facet normal -0.8032075314806453 0.5956993044924329 0
    outer loop
      vertex -3.325878449210181 2.2222809320784087 -30
      vertex -3.325878449210181 2.2222809320784087 0
      vertex -3.092041813450948 2.537573136654582 0
    endloop
  endfacet
  facet normal -0.7409511253549593 0.671558954847018 0
    outer loop
      vertex -3.092041813450948 2.537573136654582 -30
      vertex -3.092041813450948 2.537573136654582 0
      vertex -2.8284271247461903 2.8284271247461903 0
    endloop
  endfacet
  facet normal -0.671558954847018 0.7409511253549593 0
    outer loop
      vertex -2.537573136654582 3.092041813450948 -30
      vertex -2.8284271247461903 2.8284271247461903 0
      vertex -2.537573136654582 3.092041813450948 0
    endloop
  endfacet
  facet normal -0.5956993044924329 0.8032075314806453 0
    outer loop
      vertex -2.2222809320784087 3.325878449210181 -30
      vertex -2.537573136654582 3.092041813450948 0
      vertex -2.2222809320784087 3.325878449210181 0
    endloop
  endfacet
  facet normal -0.5141027441932221 0.8577286100002719 0
    outer loop
      vertex -1.8855869473039906 3.52768505739342 -30
      vertex -2.2222809320784087 3.325878449210181 0
      vertex -1.8855869473039906 3.52768505739342 0
    endloop
  endfacet
  facet normal -0.4275550934302818 0.9039892931234433 0
    outer loop
      vertex -1.5307337294603591 3.695518130045147 -30
      vertex -1.8855869473039906 3.52768505739342 0
      vertex -1.5307337294603591 3.695518130045147 0
    endloop
  endfacet
  facet normal -0.3368898533922197 0.9415440651830208 0
    outer loop
      vertex -1.1611387090178493 3.8277613429288353 -30
      vertex -1.5307337294603591 3.695518130045147 0
      vertex -1.1611387090178493 3.8277613429288353 0
    endloop
  endfacet
  facet normal -0.24298017990326415 0.9700312531945439 0
    outer loop
      vertex -0.780361288064513 3.9231411216129217 -30
      vertex -1.1611387090178493 3.8277613429288353 0
      vertex -0.780361288064513 3.9231411216129217 0
    endloop
  endfacet
  facet normal -0.14673047445536236 0.9891765099647808 0
    outer loop
      vertex -0.3920685613182424 3.9807389066887877 -30
      vertex -0.780361288064513 3.9231411216129217 0
      vertex -0.3920685613182424 3.9807389066887877 0
    endloop
  endfacet
  facet normal -0.04906767432741758 0.9987954562051723 0
    outer loop
      vertex 0 4 -30
      vertex -0.3920685613182424 3.9807389066887877 0
      vertex 0 4 0
    endloop
  endfacet
  facet normal 0.04906767432741758 -0.9987954562051723 0
    outer loop
      vertex 0 -4 -30
      vertex 0.3920685613182424 -3.9807389066887877 -30
      vertex 0.3920685613182424 -3.9807389066887877 0
    endloop
  endfacet
  facet normal 0.14673047445536236 -0.9891765099647808 0
    outer loop
      vertex 0.3920685613182424 -3.9807389066887877 -30
      vertex 0.780361288064513 -3.9231411216129217 -30
      vertex 0.780361288064513 -3.9231411216129217 0
    endloop
  endfacet
  facet normal 0.24298017990326415 -0.9700312531945439 0
    outer loop
      vertex 0.780361288064513 -3.9231411216129217 -30
      vertex 1.1611387090178493 -3.8277613429288353 -30
      vertex 1.1611387090178493 -3.8277613429288353 0
    endloop
  endfacet
  facet normal 0 0 -1
    outer loop
      vertex 0 -4 -30
      vertex 0.3920685613182424 3.9807389066887877 -30
      vertex 0.3920685613182424 -3.9807389066887877 -30
    endloop
  endfacet
  facet normal 0 0 -1
    outer loop
      vertex 0.3920685613182424 -3.9807389066887877 -30
      vertex 0.780361288064513 3.9231411216129217 -30
      vertex 0.780361288064513 -3.9231411216129217 -30
    endloop
  endfacet
  facet normal 0 0 -1
    outer loop
      vertex 0.780361288064513 -3.9231411216129217 -30
      vertex 1.1611387090178493 3.8277613429288353 -30
      vertex 1.1611387090178493 -3.8277613429288353 -30
    endloop
  endfacet
  facet normal 0 0 -1
    outer loop
      vertex 1.1611387090178493 -3.8277613429288353 -30
      vertex 1.5307337294603591 3.695518130045147 -30
      vertex 1.5307337294603591 -3.695518130045147 -30
    endloop
  endfacet
  facet normal 0 0 -1
    outer loop
      vertex 1.5307337294603591 -3.695518130045147 -30
      vertex 1.8855869473039906 3.52768505739342 -30
      vertex 1.8855869473039906 -3.52768505739342 -30
    endloop
  endfacet
  facet normal 0 0 -1
    outer loop
      vertex 1.8855869473039906 -3.52768505739342 -30
      vertex 2.2222809320784087 3.325878449210181 -30
      vertex 2.2222809320784087 -3.325878449210181 -30
    endloop
  endfacet
  facet normal 0 0 -1
    outer loop
      vertex 2.2222809320784087 -3.325878449210181 -30
      vertex 2.537573136654582 3.092041813450948 -30
      vertex 2.537573136654582 -3.092041813450948 -30
    endloop
  endfacet
  facet normal 0 0 -1
    outer loop
      vertex 2.537573136654582 -3.092041813450948 -30
      vertex 2.8284271247461903 2.8284271247461903 -30
      vertex 2.8284271247461903 -2.8284271247461903 -30
    endloop
  endfacet
  facet normal 0 0 -1
    outer loop
      vertex 2.8284271247461903 -2.8284271247461903 -30
      vertex 3.092041813450948 2.537573136654582 -30
      vertex 3.092041813450948 -2.537573136654582 -30
    endloop
  endfacet
  facet normal 0 0 -1
    outer loop
      vertex 3.092041813450948 -2.537573136654582 -30
      vertex 3.325878449210181 2.2222809320784087 -30
      vertex 3.325878449210181 -2.2222809320784087 -30
    endloop
  endfacet
  facet normal 0.3368898533922197 -0.9415440651830208 0
    outer loop
      vertex 1.1611387090178493 -3.8277613429288353 -30
      vertex 1.5307337294603591 -3.695518130045147 -30
      vertex 1.5307337294603591 -3.695518130045147 0
    endloop
  endfacet
  facet normal 0.4275550934302818 -0.9039892931234433 0
    outer loop
      vertex 1.5307337294603591 -3.695518130045147 -30
      vertex 1.8855869473039906 -3.52768505739342 -30
      vertex 1.8855869473039906 -3.52768505739342 0
    endloop
  endfacet
  facet normal 0.5141027441932221 -0.8577286100002719 0
    outer loop
      vertex 1.8855869473039906 -3.52768505739342 -30
      vertex 2.2222809320784087 -3.325878449210181 -30
      vertex 2.2222809320784087 -3.325878449210181 0
    endloop
  endfacet
  facet normal 0.5956993044924329 -0.8032075314806453 0
    outer loop
      vertex 2.2222809320784087 -3.325878449210181 -30
      vertex 2.537573136654582 -3.092041813450948 -30
      vertex 2.537573136654582 -3.092041813450948 0
    endloop
  endfacet
  facet normal 0.671558954847018 -0.7409511253549593 0
    outer loop
      vertex 2.537573136654582 -3.092041813450948 -30
      vertex 2.8284271247461903 -2.8284271247461903 -30
      vertex 2.8284271247461903 -2.8284271247461903 0
    endloop
  endfacet
  facet normal 0.7409511253549593 -0.671558954847018 0
    outer loop
      vertex 2.8284271247461903 -2.8284271247461903 -30
      vertex 3.092041813450948 -2.537573136654582 -30
      vertex 2.8284271247461903 -2.8284271247461903 0
    endloop
  endfacet
  facet normal 0.8032075314806453 -0.5956993044924329 0
    outer loop
      vertex 3.092041813450948 -2.537573136654582 -30
      vertex 3.325878449210181 -2.2222809320784087 -30
      vertex 3.092041813450948 -2.537573136654582 0
    endloop
  endfacet
  facet normal 0 0 -1
    outer loop
      vertex 3.325878449210181 -2.2222809320784087 -30
      vertex 3.52768505739342 1.8855869473039906 -30
      vertex 3.52768505739342 -1.8855869473039906 -30
    endloop
  endfacet
  facet normal 0 0 -1
    outer loop
      vertex 3.52768505739342 -1.8855869473039906 -30
      vertex 3.695518130045147 1.5307337294603591 -30
      vertex 3.695518130045147 -1.5307337294603591 -30
    endloop
  endfacet
  facet normal 0 0 -1
    outer loop
      vertex 3.695518130045147 -1.5307337294603591 -30
      vertex 3.8277613429288353 1.1611387090178493 -30
      vertex 3.8277613429288353 -1.1611387090178493 -30
    endloop
  endfacet
  facet normal 0 0 -1
    outer loop
      vertex 3.8277613429288353 -1.1611387090178493 -30
      vertex 3.9231411216129217 0.780361288064513 -30
      vertex 3.9231411216129217 -0.780361288064513 -30
    endloop
  endfacet
  facet normal 0 0 -1
    outer loop
      vertex 3.9231411216129217 -0.780361288064513 -30
      vertex 3.9807389066887877 0.3920685613182424 -30
      vertex 3.9807389066887877 -0.3920685613182424 -30
    endloop
  endfacet
  facet normal 0.8577286100002719 -0.5141027441932221 0
    outer loop
      vertex 3.325878449210181 -2.2222809320784087 -30
      vertex 3.52768505739342 -1.8855869473039906 -30
      vertex 3.325878449210181 -2.2222809320784087 0
    endloop
  endfacet
  facet normal 0.9039892931234433 -0.4275550934302818 0
    outer loop
      vertex 3.52768505739342 -1.8855869473039906 -30
      vertex 3.695518130045147 -1.5307337294603591 -30
      vertex 3.52768505739342 -1.8855869473039906 0
    endloop
  endfacet
  facet normal 0.9415440651830208 -0.3368898533922197 0
    outer loop
      vertex 3.695518130045147 -1.5307337294603591 -30
      vertex 3.8277613429288353 -1.1611387090178493 -30
      vertex 3.695518130045147 -1.5307337294603591 0
    endloop
  endfacet
  facet normal 0.9700312531945439 -0.24298017990326415 0
    outer loop
      vertex 3.8277613429288353 -1.1611387090178493 -30
      vertex 3.9231411216129217 -0.780361288064513 -30
      vertex 3.8277613429288353 -1.1611387090178493 0
    endloop
  endfacet
  facet normal 0.9891765099647808 -0.14673047445536236 0
    outer loop
      vertex 3.9231411216129217 -0.780361288064513 -30
      vertex 3.9807389066887877 -0.3920685613182424 -30
      vertex 3.9231411216129217 -0.780361288064513 0
    endloop
  endfacet
  facet normal 0.9987954562051723 -0.04906767432741758 0
    outer loop
      vertex 3.9807389066887877 -0.3920685613182424 -30
      vertex 4 0 -30
      vertex 3.9807389066887877 -0.3920685613182424 0
    endloop
  endfacet
  facet normal 0.04906767432741758 -0.9987954562051723 0
    outer loop
      vertex 0 -4 -30
      vertex 0.3920685613182424 -3.9807389066887877 0
      vertex 0 -4 0
    endloop
  endfacet
  facet normal 0.14673047445536236 -0.9891765099647808 0
    outer loop
      vertex 0.3920685613182424 -3.9807389066887877 -30
      vertex 0.780361288064513 -3.9231411216129217 0
      vertex 0.3920685613182424 -3.9807389066887877 0
    endloop
  endfacet
  facet normal 0.24298017990326415 -0.9700312531945439 0
    outer loop
      vertex 0.780361288064513 -3.9231411216129217 -30
      vertex 1.1611387090178493 -3.8277613429288353 0
      vertex 0.780361288064513 -3.9231411216129217 0
    endloop
  endfacet
  facet normal 0.3368898533922197 -0.9415440651830208 0
    outer loop
      vertex 1.1611387090178493 -3.8277613429288353 -30
      vertex 1.5307337294603591 -3.695518130045147 0
      vertex 1.1611387090178493 -3.8277613429288353 0
    endloop
  endfacet
  facet normal 0.4275550934302818 -0.9039892931234433 0
    outer loop
      vertex 1.5307337294603591 -3.695518130045147 -30
      vertex 1.8855869473039906 -3.52768505739342 0
      vertex 1.5307337294603591 -3.695518130045147 0
    endloop
  endfacet
  facet normal 0.5141027441932221 -0.8577286100002719 0
    outer loop
      vertex 1.8855869473039906 -3.52768505739342 -30
      vertex 2.2222809320784087 -3.325878449210181 0
      vertex 1.8855869473039906 -3.52768505739342 0
    endloop
  endfacet
  facet normal 0.5956993044924329 -0.8032075314806453 0
    outer loop
      vertex 2.2222809320784087 -3.325878449210181 -30
      vertex 2.537573136654582 -3.092041813450948 0
      vertex 2.2222809320784087 -3.325878449210181 0
    endloop
  endfacet
  facet normal 0.671558954847018 -0.7409511253549593 0
    outer loop
      vertex 2.537573136654582 -3.092041813450948 -30
      vertex 2.8284271247461903 -2.8284271247461903 0
      vertex 2.537573136654582 -3.092041813450948 0
    endloop
  endfacet
  facet normal 0.7409511253549593 -0.671558954847018 0
    outer loop
      vertex 3.092041813450948 -2.537573136654582 -30
      vertex 3.092041813450948 -2.537573136654582 0
      vertex 2.8284271247461903 -2.8284271247461903 0
    endloop
  endfacet
  facet normal 0.8032075314806453 -0.5956993044924329 0
    outer loop
      vertex 3.325878449210181 -2.2222809320784087 -30
      vertex 3.325878449210181 -2.2222809320784087 0
      vertex 3.092041813450948 -2.537573136654582 0
    endloop
  endfacet
  facet normal 0.8577286100002719 -0.5141027441932221 0
    outer loop
      vertex 3.52768505739342 -1.8855869473039906 -30
      vertex 3.52768505739342 -1.8855869473039906 0
      vertex 3.325878449210181 -2.2222809320784087 0
    endloop
  endfacet
  facet normal 0.9039892931234433 -0.4275550934302818 0
    outer loop
      vertex 3.695518130045147 -1.5307337294603591 -30
      vertex 3.695518130045147 -1.5307337294603591 0
      vertex 3.52768505739342 -1.8855869473039906 0
    endloop
  endfacet
  facet normal 0.9415440651830208 -0.3368898533922197 0
    outer loop
      vertex 3.8277613429288353 -1.1611387090178493 -30
      vertex 3.8277613429288353 -1.1611387090178493 0
      vertex 3.695518130045147 -1.5307337294603591 0
    endloop
  endfacet
  facet normal 0.9700312531945439 -0.24298017990326415 0
    outer loop
      vertex 3.9231411216129217 -0.780361288064513 -30
      vertex 3.9231411216129217 -0.780361288064513 0
      vertex 3.8277613429288353 -1.1611387090178493 0
    endloop
  endfacet
  facet normal 0.9891765099647808 -0.14673047445536236 0
    outer loop
      vertex 3.9807389066887877 -0.3920685613182424 -30
      vertex 3.9807389066887877 -0.3920685613182424 0
      vertex 3.9231411216129217 -0.780361288064513 0
    endloop
  endfacet
  facet normal 0.9987954562051723 -0.04906767432741758 0
    outer loop
      vertex 4 0 -30
      vertex 4 0 0
      vertex 3.9807389066887877 -0.3920685613182424 0
    endloop
  endfacet
  facet normal 0 0 -1
    outer loop
      vertex 0 -4 -30
      vertex 0 4 -30
      vertex 0.3920685613182424 3.9807389066887877 -30
    endloop
  endfacet
  facet normal 0 0 -1
    outer loop
      vertex 0.3920685613182424 -3.9807389066887877 -30
      vertex 0.3920685613182424 3.9807389066887877 -30
      vertex 0.780361288064513 3.9231411216129217 -30
    endloop
  endfacet
  facet normal 0 0 -1
    outer loop
      vertex 0.780361288064513 -3.9231411216129217 -30
      vertex 0.780361288064513 3.9231411216129217 -30
      vertex 1.1611387090178493 3.8277613429288353 -30
    endloop
  endfacet
  facet normal 0 0 -1
    outer loop
      vertex 1.1611387090178493 -3.8277613429288353 -30
      vertex 1.1611387090178493 3.8277613429288353 -30
      vertex 1.5307337294603591 3.695518130045147 -30
    endloop
  endfacet
  facet normal 0 0 -1
    outer loop
      vertex 1.5307337294603591 -3.695518130045147 -30
      vertex 1.5307337294603591 3.695518130045147 -30
      vertex 1.8855869473039906 3.52768505739342 -30
    endloop
  endfacet
  facet normal 0 0 -1
    outer loop
      vertex 1.8855869473039906 -3.52768505739342 -30
      vertex 1.8855869473039906 3.52768505739342 -30
      vertex 2.2222809320784087 3.325878449210181 -30
    endloop
  endfacet
  facet normal 0 0 -1
    outer loop
      vertex 2.2222809320784087 -3.325878449210181 -30
      vertex 2.2222809320784087 3.325878449210181 -30
      vertex 2.537573136654582 3.092041813450948 -30
    endloop
  endfacet
  facet normal 0 0 -1
    outer loop
      vertex 2.8284271247461903 -2.8284271247461903 -30
      vertex 2.8284271247461903 2.8284271247461903 -30
      vertex 3.092041813450948 2.537573136654582 -30
    endloop
  endfacet
  facet normal 0 0 -1
    outer loop
      vertex 3.092041813450948 -2.537573136654582 -30
      vertex 3.092041813450948 2.537573136654582 -30
      vertex 3.325878449210181 2.2222809320784087 -30
    endloop
  endfacet
  facet normal 0 0 -1
    outer loop
      vertex 2.537573136654582 -3.092041813450948 -30
      vertex 2.537573136654582 3.092041813450948 -30
      vertex 2.8284271247461903 2.8284271247461903 -30
    endloop
  endfacet
  facet normal 0.4275550934302818 0.9039892931234433 0
    outer loop
      vertex 1.5307337294603591 3.695518130045147 -30
      vertex 1.5307337294603591 3.695518130045147 0
      vertex 1.8855869473039906 3.52768505739342 -30
    endloop
  endfacet
  facet normal 0.5141027441932221 0.8577286100002719 0
    outer loop
      vertex 1.8855869473039906 3.52768505739342 -30
      vertex 1.8855869473039906 3.52768505739342 0
      vertex 2.2222809320784087 3.325878449210181 -30
    endloop
  endfacet
  facet normal 0.5956993044924329 0.8032075314806453 0
    outer loop
      vertex 2.2222809320784087 3.325878449210181 -30
      vertex 2.2222809320784087 3.325878449210181 0
      vertex 2.537573136654582 3.092041813450948 -30
    endloop
  endfacet
  facet normal 0.8032075314806453 0.5956993044924329 0
    outer loop
      vertex 3.325878449210181 2.2222809320784087 -30
      vertex 3.092041813450948 2.537573136654582 -30
      vertex 3.325878449210181 2.2222809320784087 0
    endloop
  endfacet
  facet normal 0.7409511253549593 0.671558954847018 0
    outer loop
      vertex 2.8284271247461903 2.8284271247461903 -30
      vertex 3.092041813450948 2.537573136654582 0
      vertex 3.092041813450948 2.537573136654582 -30
    endloop
  endfacet
  facet normal 0.671558954847018 0.7409511253549593 0
    outer loop
      vertex 2.8284271247461903 2.8284271247461903 -30
      vertex 2.537573136654582 3.092041813450948 -30
      vertex 2.537573136654582 3.092041813450948 0
    endloop
  endfacet
  facet normal 0.04906767432741758 0.9987954562051723 0
    outer loop
      vertex 0 4 -30
      vertex 0 4 0
      vertex 0.3920685613182424 3.9807389066887877 -30
    endloop
  endfacet
  facet normal 0.14673047445536236 0.9891765099647808 0
    outer loop
      vertex 0.3920685613182424 3.9807389066887877 -30
      vertex 0.3920685613182424 3.9807389066887877 0
      vertex 0.780361288064513 3.9231411216129217 -30
    endloop
  endfacet
  facet normal 0.24298017990326415 0.9700312531945439 0
    outer loop
      vertex 0.780361288064513 3.9231411216129217 -30
      vertex 0.780361288064513 3.9231411216129217 0
      vertex 1.1611387090178493 3.8277613429288353 -30
    endloop
  endfacet
  facet normal 0.3368898533922197 0.9415440651830208 0
    outer loop
      vertex 1.1611387090178493 3.8277613429288353 -30
      vertex 1.1611387090178493 3.8277613429288353 0
      vertex 1.5307337294603591 3.695518130045147 -30
    endloop
  endfacet
  facet normal 0 0 -1
    outer loop
      vertex 3.325878449210181 -2.2222809320784087 -30
      vertex 3.325878449210181 2.2222809320784087 -30
      vertex 3.52768505739342 1.8855869473039906 -30
    endloop
  endfacet
  facet normal 0 0 -1
    outer loop
      vertex 3.52768505739342 -1.8855869473039906 -30
      vertex 3.52768505739342 1.8855869473039906 -30
      vertex 3.695518130045147 1.5307337294603591 -30
    endloop
  endfacet
  facet normal 0 0 -1
    outer loop
      vertex 3.695518130045147 -1.5307337294603591 -30
      vertex 3.695518130045147 1.5307337294603591 -30
      vertex 3.8277613429288353 1.1611387090178493 -30
    endloop
  endfacet
  facet normal 0 0 -1
    outer loop
      vertex 3.9231411216129217 -0.780361288064513 -30
      vertex 3.9231411216129217 0.780361288064513 -30
      vertex 3.9807389066887877 0.3920685613182424 -30
    endloop
  endfacet
  facet normal 0 0 -1
    outer loop
      vertex 3.9807389066887877 -0.3920685613182424 -30
      vertex 3.9807389066887877 0.3920685613182424 -30
      vertex 4 0 -30
    endloop
  endfacet
  facet normal 0 0 -1
    outer loop
      vertex 3.8277613429288353 -1.1611387090178493 -30
      vertex 3.8277613429288353 1.1611387090178493 -30
      vertex 3.9231411216129217 0.780361288064513 -30
    endloop
  endfacet
  facet normal 0.9987954562051723 0.04906767432741758 0
    outer loop
      vertex 4 0 -30
      vertex 3.9807389066887877 0.3920685613182424 -30
      vertex 4 0 0
    endloop
  endfacet
  facet normal 0.9891765099647808 0.14673047445536236 0
    outer loop
      vertex 3.9807389066887877 0.3920685613182424 -30
      vertex 3.9231411216129217 0.780361288064513 -30
      vertex 3.9807389066887877 0.3920685613182424 0
    endloop
  endfacet
  facet normal 0.9700312531945439 0.24298017990326415 0
    outer loop
      vertex 3.9231411216129217 0.780361288064513 -30
      vertex 3.8277613429288353 1.1611387090178493 -30
      vertex 3.9231411216129217 0.780361288064513 0
    endloop
  endfacet
  facet normal 0.9039892931234433 0.4275550934302818 0
    outer loop
      vertex 3.695518130045147 1.5307337294603591 -30
      vertex 3.52768505739342 1.8855869473039906 -30
      vertex 3.695518130045147 1.5307337294603591 0
    endloop
  endfacet
  facet normal 0.9415440651830208 0.3368898533922197 0
    outer loop
      vertex 3.8277613429288353 1.1611387090178493 -30
      vertex 3.695518130045147 1.5307337294603591 -30
      vertex 3.8277613429288353 1.1611387090178493 0
    endloop
  endfacet
  facet normal 0.8577286100002719 0.5141027441932221 0
    outer loop
      vertex 3.52768505739342 1.8855869473039906 -30
      vertex 3.325878449210181 2.2222809320784087 -30
      vertex 3.52768505739342 1.8855869473039906 0
    endloop
  endfacet
  facet normal 0.3368898533922197 0.9415440651830208 0
    outer loop
      vertex 1.5307337294603591 3.695518130045147 -30
      vertex 1.1611387090178493 3.8277613429288353 0
      vertex 1.5307337294603591 3.695518130045147 0
    endloop
  endfacet
  facet normal 0.4275550934302818 0.9039892931234433 0
    outer loop
      vertex 1.8855869473039906 3.52768505739342 -30
      vertex 1.5307337294603591 3.695518130045147 0
      vertex 1.8855869473039906 3.52768505739342 0
    endloop
  endfacet
  facet normal 0.5956993044924329 0.8032075314806453 0
    outer loop
      vertex 2.537573136654582 3.092041813450948 -30
      vertex 2.2222809320784087 3.325878449210181 0
      vertex 2.537573136654582 3.092041813450948 0
    endloop
  endfacet
  facet normal 0.5141027441932221 0.8577286100002719 0
    outer loop
      vertex 2.2222809320784087 3.325878449210181 -30
      vertex 1.8855869473039906 3.52768505739342 0
      vertex 2.2222809320784087 3.325878449210181 0
    endloop
  endfacet
  facet normal 0.7409511253549593 0.671558954847018 0
    outer loop
      vertex 2.8284271247461903 2.8284271247461903 -30
      vertex 2.8284271247461903 2.8284271247461903 0
      vertex 3.092041813450948 2.537573136654582 0
    endloop
  endfacet
  facet normal 0.8032075314806453 0.5956993044924329 0
    outer loop
      vertex 3.092041813450948 2.537573136654582 -30
      vertex 3.092041813450948 2.537573136654582 0
      vertex 3.325878449210181 2.2222809320784087 0
    endloop
  endfacet
  facet normal 0.671558954847018 0.7409511253549593 0
    outer loop
      vertex 2.8284271247461903 2.8284271247461903 -30
      vertex 2.537573136654582 3.092041813450948 0
      vertex 2.8284271247461903 2.8284271247461903 0
    endloop
  endfacet
  facet normal 0.04906767432741758 0.9987954562051723 0
    outer loop
      vertex 0.3920685613182424 3.9807389066887877 -30
      vertex 0 4 0
      vertex 0.3920685613182424 3.9807389066887877 0
    endloop
  endfacet
  facet normal 0.14673047445536236 0.9891765099647808 0
    outer loop
      vertex 0.780361288064513 3.9231411216129217 -30
      vertex 0.3920685613182424 3.9807389066887877 0
      vertex 0.780361288064513 3.9231411216129217 0
    endloop
  endfacet
  facet normal 0.24298017990326415 0.9700312531945439 0
    outer loop
      vertex 1.1611387090178493 3.8277613429288353 -30
      vertex 0.780361288064513 3.9231411216129217 0
      vertex 1.1611387090178493 3.8277613429288353 0
    endloop
  endfacet
  facet normal 0.9987954562051723 0.04906767432741758 0
    outer loop
      vertex 3.9807389066887877 0.3920685613182424 -30
      vertex 3.9807389066887877 0.3920685613182424 0
      vertex 4 0 0
    endloop
  endfacet
  facet normal 0.9891765099647808 0.14673047445536236 0
    outer loop
      vertex 3.9231411216129217 0.780361288064513 -30
      vertex 3.9231411216129217 0.780361288064513 0
      vertex 3.9807389066887877 0.3920685613182424 0
    endloop
  endfacet
  facet normal 0.9039892931234433 0.4275550934302818 0
    outer loop
      vertex 3.52768505739342 1.8855869473039906 -30
      vertex 3.52768505739342 1.8855869473039906 0
      vertex 3.695518130045147 1.5307337294603591 0
    endloop
  endfacet
  facet normal 0.9700312531945439 0.24298017990326415 0
    outer loop
      vertex 3.8277613429288353 1.1611387090178493 -30
      vertex 3.8277613429288353 1.1611387090178493 0
      vertex 3.9231411216129217 0.780361288064513 0
    endloop
  endfacet
  facet normal 0.9415440651830208 0.3368898533922197 0
    outer loop
      vertex 3.695518130045147 1.5307337294603591 -30
      vertex 3.695518130045147 1.5307337294603591 0
      vertex 3.8277613429288353 1.1611387090178493 0
    endloop
  endfacet
  facet normal 0.8577286100002719 0.5141027441932221 0
    outer loop
      vertex 3.325878449210181 2.2222809320784087 -30
      vertex 3.325878449210181 2.2222809320784087 0
      vertex 3.52768505739342 1.8855869473039906 0
    endloop
  endfacet
endsolid OpenSCAD_Model
