solid OpenSCAD_Model
  facet normal 0 0 -1
    outer loop
      vertex -25 -25 -25
      vertex -7.73010453362737 -6.343932841636455 -25
      vertex -7.0710678118654755 -7.0710678118654755 -25
    endloop
  endfacet
  facet normal 0 0 -1
    outer loop
      vertex -25 -25 -25
      vertex -7.0710678118654755 -7.0710678118654755 -25
      vertex -6.343932841636455 -7.73010453362737 -25
    endloop
  endfacet
  facet normal 0 0 -1
    outer loop
      vertex -25 -25 -25
      vertex -25 25 -25
      vertex -9.569403357322088 -2.902846772544623 -25
    endloop
  endfacet
  facet normal 0 0 -1
    outer loop
      vertex -25 -25 -25
      vertex -9.238795325112868 -3.826834323650898 -25
      vertex -8.819212643483551 -4.7139673682599765 -25
    endloop
  endfacet
  facet normal 0 0 -1
    outer loop
      vertex -25 -25 -25
      vertex -9.569403357322088 -2.902846772544623 -25
      vertex -9.238795325112868 -3.826834323650898 -25
    endloop
  endfacet
  facet normal 0 0 -1
    outer loop
      vertex -25 -25 -25
      vertex -8.314696123025453 -5.555702330196022 -25
      vertex -7.73010453362737 -6.343932841636455 -25
    endloop
  endfacet
  facet normal 0 0 -1
    outer loop
      vertex -25 -25 -25
      vertex -8.819212643483551 -4.7139673682599765 -25
      vertex -8.314696123025453 -5.555702330196022 -25
    endloop
  endfacet
  facet normal 0 0 -1
    outer loop
      vertex -25 -25 -25
      vertex -4.7139673682599765 -8.819212643483551 -25
      vertex -3.826834323650898 -9.238795325112868 -25
    endloop
  endfacet
  facet normal 0 0 -1
    outer loop
      vertex -25 -25 -25
      vertex -6.343932841636455 -7.73010453362737 -25
      vertex -5.555702330196022 -8.314696123025453 -25
    endloop
  endfacet
  facet normal 0 0 -1
    outer loop
      vertex -25 -25 -25
      vertex -5.555702330196022 -8.314696123025453 -25
      vertex -4.7139673682599765 -8.819212643483551 -25
    endloop
  endfacet
  facet normal 0 0 -1
    outer loop
      vertex -25 -25 -25
      vertex -3.826834323650898 -9.238795325112868 -25
      vertex -2.902846772544623 -9.569403357322088 -25
    endloop
  endfacet
  facet normal 0 0 -1
    outer loop
      vertex -25 -25 -25
      vertex -2.902846772544623 -9.569403357322088 -25
      vertex -1.9509032201612824 -9.807852804032304 -25
    endloop
  endfacet
  facet normal 0 0 -1
    outer loop
      vertex -25 -25 -25
      vertex -1.9509032201612824 -9.807852804032304 -25
      vertex -0.980171403295606 -9.95184726672197 -25
    endloop
  endfacet
  facet normal 0 0 -1
    outer loop
      vertex -25 -25 -25
      vertex -0.980171403295606 -9.95184726672197 -25
      vertex 0 -10 -25
    endloop
  endfacet
  facet normal 0 0 -1
    outer loop
      vertex -25 -25 -25
      vertex 0 -10 -25
      vertex 0.980171403295606 -9.95184726672197 -25
    endloop
  endfacet
  facet normal 0 0 -1
    outer loop
      vertex -25 -25 -25
      vertex 0.980171403295606 -9.95184726672197 -25
      vertex 1.9509032201612824 -9.807852804032304 -25
    endloop
  endfacet
  facet normal 0 0 -1
    outer loop
      vertex -25 -25 -25
      vertex 1.9509032201612824 -9.807852804032304 -25
      vertex 2.902846772544623 -9.569403357322088 -25
    endloop
  endfacet
  facet normal 0 0 1
    outer loop
      vertex -25 -25 25
      vertex -7.0710678118654755 -7.0710678118654755 25
      vertex -7.73010453362737 -6.343932841636455 25
    endloop
  endfacet
  facet normal 0 0 1
    outer loop
      vertex -25 -25 25
      vertex -6.343932841636455 -7.73010453362737 25
      vertex -7.0710678118654755 -7.0710678118654755 25
    endloop
  endfacet
  facet normal -1 0 0
    outer loop
      vertex -25 -25 -25
      vertex -25 -25 25
      vertex -25 25 25
    endloop
  endfacet
  facet normal 0 0 1
    outer loop
      vertex -25 -25 25
      vertex -8.819212643483551 -4.7139673682599765 25
      vertex -9.238795325112868 -3.826834323650898 25
    endloop
  endfacet
  facet normal 0 0 1
    outer loop
      vertex -25 -25 25
      vertex -9.238795325112868 -3.826834323650898 25
      vertex -9.569403357322088 -2.902846772544623 25
    endloop
  endfacet
  facet normal 0 0 1
    outer loop
      vertex -25 -25 25
      vertex -9.569403357322088 -2.902846772544623 25
      vertex -9.807852804032304 -1.9509032201612824 25
    endloop
  endfacet
  facet normal 0 0 1
    outer loop
      vertex -25 -25 25
      vertex -7.73010453362737 -6.343932841636455 25
      vertex -8.314696123025453 -5.555702330196022 25
    endloop
  endfacet
  facet normal 0 0 1
    outer loop
      vertex -25 -25 25
      vertex -8.314696123025453 -5.555702330196022 25
      vertex -8.819212643483551 -4.7139673682599765 25
    endloop
  endfacet
  facet normal 0 0 1
    outer loop
      vertex -25 -25 25
      vertex -9.807852804032304 -1.9509032201612824 25
      vertex -9.95184726672197 -0.980171403295606 25
    endloop
  endfacet
  facet normal 0 0 1
    outer loop
      vertex -25 -25 25
      vertex -9.95184726672197 -0.980171403295606 25
      vertex -10 0 25
    endloop
  endfacet
  facet normal 0 0 1
    outer loop
      vertex -25 -25 25
      vertex -10 0 25
      vertex -9.95184726672197 0.980171403295606 25
    endloop
  endfacet
  facet normal 0 0 1
    outer loop
      vertex -25 -25 25
      vertex -9.95184726672197 0.980171403295606 25
      vertex -9.807852804032304 1.9509032201612824 25
    endloop
  endfacet
  facet normal 0 0 1
    outer loop
      vertex -25 -25 25
      vertex -9.807852804032304 1.9509032201612824 25
      vertex -9.569403357322088 2.902846772544623 25
    endloop
  endfacet
  facet normal 0 -1 0
    outer loop
      vertex -25 -25 -25
      vertex 25 -25 25
      vertex -25 -25 25
    endloop
  endfacet
  facet normal 0 0 1
    outer loop
      vertex -25 -25 25
      vertex -3.826834323650898 -9.238795325112868 25
      vertex -4.7139673682599765 -8.819212643483551 25
    endloop
  endfacet
  facet normal 0 0 1
    outer loop
      vertex -25 -25 25
      vertex -5.555702330196022 -8.314696123025453 25
      vertex -6.343932841636455 -7.73010453362737 25
    endloop
  endfacet
  facet normal 0 0 1
    outer loop
      vertex -25 -25 25
      vertex -4.7139673682599765 -8.819212643483551 25
      vertex -5.555702330196022 -8.314696123025453 25
    endloop
  endfacet
  facet normal 0 0 1
    outer loop
      vertex -25 -25 25
      vertex 25 -25 25
      vertex -3.826834323650898 -9.238795325112868 25
    endloop
  endfacet
  facet normal 0 0 -1
    outer loop
      vertex -25 25 -25
      vertex -9.95184726672197 -0.980171403295606 -25
      vertex -9.807852804032304 -1.9509032201612824 -25
    endloop
  endfacet
  facet normal 0 0 -1
    outer loop
      vertex -25 25 -25
      vertex -9.807852804032304 -1.9509032201612824 -25
      vertex -9.569403357322088 -2.902846772544623 -25
    endloop
  endfacet
  facet normal 0 0 -1
    outer loop
      vertex -25 25 -25
      vertex -10 0 -25
      vertex -9.95184726672197 -0.980171403295606 -25
    endloop
  endfacet
  facet normal 0 0 -1
    outer loop
      vertex -25 25 -25
      vertex -9.95184726672197 0.980171403295606 -25
      vertex -10 0 -25
    endloop
  endfacet
  facet normal 0 0 -1
    outer loop
      vertex -25 25 -25
      vertex -9.807852804032304 1.9509032201612824 -25
      vertex -9.95184726672197 0.980171403295606 -25
    endloop
  endfacet
  facet normal 0 0 -1
    outer loop
      vertex -25 25 -25
      vertex -9.569403357322088 2.902846772544623 -25
      vertex -9.807852804032304 1.9509032201612824 -25
    endloop
  endfacet
  facet normal 0 0 -1
    outer loop
      vertex -25 25 -25
      vertex -9.238795325112868 3.826834323650898 -25
      vertex -9.569403357322088 2.902846772544623 -25
    endloop
  endfacet
  facet normal 0 0 -1
    outer loop
      vertex -25 25 -25
      vertex -8.819212643483551 4.7139673682599765 -25
      vertex -9.238795325112868 3.826834323650898 -25
    endloop
  endfacet
  facet normal 0 0 -1
    outer loop
      vertex -25 25 -25
      vertex -8.314696123025453 5.555702330196022 -25
      vertex -8.819212643483551 4.7139673682599765 -25
    endloop
  endfacet
  facet normal 0 0 -1
    outer loop
      vertex -25 25 -25
      vertex -7.73010453362737 6.343932841636455 -25
      vertex -8.314696123025453 5.555702330196022 -25
    endloop
  endfacet
  facet normal -1 0 0
    outer loop
      vertex -25 -25 -25
      vertex -25 25 25
      vertex -25 25 -25
    endloop
  endfacet
  facet normal 0 0 -1
    outer loop
      vertex -25 25 -25
      vertex -7.0710678118654755 7.0710678118654755 -25
      vertex -7.73010453362737 6.343932841636455 -25
    endloop
  endfacet
  facet normal 0 0 -1
    outer loop
      vertex -25 25 -25
      vertex -6.343932841636455 7.73010453362737 -25
      vertex -7.0710678118654755 7.0710678118654755 -25
    endloop
  endfacet
  facet normal 0 0 -1
    outer loop
      vertex -25 25 -25
      vertex -5.555702330196022 8.314696123025453 -25
      vertex -6.343932841636455 7.73010453362737 -25
    endloop
  endfacet
  facet normal 0 0 -1
    outer loop
      vertex -25 25 -25
      vertex -4.7139673682599765 8.819212643483551 -25
      vertex -5.555702330196022 8.314696123025453 -25
    endloop
  endfacet
  facet normal 0 0 -1
    outer loop
      vertex -25 25 -25
      vertex -3.826834323650898 9.238795325112868 -25
      vertex -4.7139673682599765 8.819212643483551 -25
    endloop
  endfacet
  facet normal 0 0 -1
    outer loop
      vertex -25 25 -25
      vertex -2.902846772544623 9.569403357322088 -25
      vertex -3.826834323650898 9.238795325112868 -25
    endloop
  endfacet
  facet normal 0 0 -1
    outer loop
      vertex -25 25 -25
      vertex 25 25 -25
      vertex -2.902846772544623 9.569403357322088 -25
    endloop
  endfacet
  facet normal 0 1 0
    outer loop
      vertex -25 25 -25
      vertex -25 25 25
      vertex 25 25 -25
    endloop
  endfacet
  facet normal 0 0 1
    outer loop
      vertex -25 -25 25
      vertex -9.569403357322088 2.902846772544623 25
      vertex -25 25 25
    endloop
  endfacet
  facet normal 0 0 1
    outer loop
      vertex -25 25 25
      vertex -9.569403357322088 2.902846772544623 25
      vertex -9.238795325112868 3.826834323650898 25
    endloop
  endfacet
  facet normal 0 0 1
    outer loop
      vertex -25 25 25
      vertex -9.238795325112868 3.826834323650898 25
      vertex -8.819212643483551 4.7139673682599765 25
    endloop
  endfacet
  facet normal 0 0 1
    outer loop
      vertex -25 25 25
      vertex -8.819212643483551 4.7139673682599765 25
      vertex -8.314696123025453 5.555702330196022 25
    endloop
  endfacet
  facet normal 0 0 1
    outer loop
      vertex -25 25 25
      vertex -8.314696123025453 5.555702330196022 25
      vertex -7.73010453362737 6.343932841636455 25
    endloop
  endfacet
  facet normal 0 0 1
    outer loop
      vertex -25 25 25
      vertex -7.73010453362737 6.343932841636455 25
      vertex -7.0710678118654755 7.0710678118654755 25
    endloop
  endfacet
  facet normal 0 0 1
    outer loop
      vertex -25 25 25
      vertex -7.0710678118654755 7.0710678118654755 25
      vertex -6.343932841636455 7.73010453362737 25
    endloop
  endfacet
  facet normal 0 0 1
    outer loop
      vertex -25 25 25
      vertex -6.343932841636455 7.73010453362737 25
      vertex -5.555702330196022 8.314696123025453 25
    endloop
  endfacet
  facet normal 0 0 1
    outer loop
      vertex -25 25 25
      vertex -5.555702330196022 8.314696123025453 25
      vertex -4.7139673682599765 8.819212643483551 25
    endloop
  endfacet
  facet normal 0 0 1
    outer loop
      vertex -25 25 25
      vertex -4.7139673682599765 8.819212643483551 25
      vertex -3.826834323650898 9.238795325112868 25
    endloop
  endfacet
  facet normal 0 0 1
    outer loop
      vertex -25 25 25
      vertex -3.826834323650898 9.238795325112868 25
      vertex -2.902846772544623 9.569403357322088 25
    endloop
  endfacet
  facet normal 0 0 1
    outer loop
      vertex -25 25 25
      vertex -2.902846772544623 9.569403357322088 25
      vertex -1.9509032201612824 9.807852804032304 25
    endloop
  endfacet
  facet normal 0 0 1
    outer loop
      vertex -25 25 25
      vertex -1.9509032201612824 9.807852804032304 25
      vertex -0.980171403295606 9.95184726672197 25
    endloop
  endfacet
  facet normal 0 0 1
    outer loop
      vertex -25 25 25
      vertex -0.980171403295606 9.95184726672197 25
      vertex 0 10 25
    endloop
  endfacet
  facet normal 0 0 1
    outer loop
      vertex -25 25 25
      vertex 0 10 25
      vertex 0.980171403295606 9.95184726672197 25
    endloop
  endfacet
  facet normal 0 0 1
    outer loop
      vertex -25 25 25
      vertex 0.980171403295606 9.95184726672197 25
      vertex 1.9509032201612824 9.807852804032304 25
    endloop
  endfacet
  facet normal 0 0 1
    outer loop
      vertex -25 25 25
      vertex 1.9509032201612824 9.807852804032304 25
      vertex 2.902846772544623 9.569403357322088 25
    endloop
  endfacet
  facet normal 0 0 1
    outer loop
      vertex -25 25 25
      vertex 2.902846772544623 9.569403357322088 25
      vertex 3.826834323650898 9.238795325112868 25
    endloop
  endfacet
  facet normal 0 0 -1
    outer loop
      vertex -25 -25 -25
      vertex 2.902846772544623 -9.569403357322088 -25
      vertex 25 -25 -25
    endloop
  endfacet
  facet normal 0 0 -1
    outer loop
      vertex 25 -25 -25
      vertex 2.902846772544623 -9.569403357322088 -25
      vertex 3.826834323650898 -9.238795325112868 -25
    endloop
  endfacet
  facet normal 0 0 -1
    outer loop
      vertex 25 -25 -25
      vertex 3.826834323650898 -9.238795325112868 -25
      vertex 4.7139673682599765 -8.819212643483551 -25
    endloop
  endfacet
  facet normal 0 0 -1
    outer loop
      vertex 25 -25 -25
      vertex 4.7139673682599765 -8.819212643483551 -25
      vertex 5.555702330196022 -8.314696123025453 -25
    endloop
  endfacet
  facet normal 0 0 -1
    outer loop
      vertex 25 -25 -25
      vertex 5.555702330196022 -8.314696123025453 -25
      vertex 6.343932841636455 -7.73010453362737 -25
    endloop
  endfacet
  facet normal 0 -1 0
    outer loop
      vertex -25 -25 -25
      vertex 25 -25 -25
      vertex 25 -25 25
    endloop
  endfacet
  facet normal 0 0 -1
    outer loop
      vertex 25 -25 -25
      vertex 6.343932841636455 -7.73010453362737 -25
      vertex 7.0710678118654755 -7.0710678118654755 -25
    endloop
  endfacet
  facet normal 0 0 -1
    outer loop
      vertex 25 -25 -25
      vertex 7.0710678118654755 -7.0710678118654755 -25
      vertex 7.73010453362737 -6.343932841636455 -25
    endloop
  endfacet
  facet normal 0 0 -1
    outer loop
      vertex 25 -25 -25
      vertex 7.73010453362737 -6.343932841636455 -25
      vertex 8.314696123025453 -5.555702330196022 -25
    endloop
  endfacet
  facet normal 0 0 -1
    outer loop
      vertex 25 -25 -25
      vertex 8.314696123025453 -5.555702330196022 -25
      vertex 8.819212643483551 -4.7139673682599765 -25
    endloop
  endfacet
  facet normal 0 0 -1
    outer loop
      vertex 25 -25 -25
      vertex 8.819212643483551 -4.7139673682599765 -25
      vertex 9.238795325112868 -3.826834323650898 -25
    endloop
  endfacet
  facet normal 0 0 -1
    outer loop
      vertex 25 -25 -25
      vertex 9.238795325112868 -3.826834323650898 -25
      vertex 9.569403357322088 -2.902846772544623 -25
    endloop
  endfacet
  facet normal 0 0 -1
    outer loop
      vertex 25 -25 -25
      vertex 9.569403357322088 -2.902846772544623 -25
      vertex 9.807852804032304 -1.9509032201612824 -25
    endloop
  endfacet
  facet normal 0 0 -1
    outer loop
      vertex 25 -25 -25
      vertex 9.807852804032304 -1.9509032201612824 -25
      vertex 9.95184726672197 -0.980171403295606 -25
    endloop
  endfacet
  facet normal 0 0 -1
    outer loop
      vertex 25 -25 -25
      vertex 9.95184726672197 -0.980171403295606 -25
      vertex 10 0 -25
    endloop
  endfacet
  facet normal 0 0 -1
    outer loop
      vertex 25 -25 -25
      vertex 10 0 -25
      vertex 9.95184726672197 0.980171403295606 -25
    endloop
  endfacet
  facet normal 0 0 -1
    outer loop
      vertex 25 -25 -25
      vertex 9.807852804032304 1.9509032201612824 -25
      vertex 9.569403357322088 2.902846772544623 -25
    endloop
  endfacet
  facet normal 0 0 -1
    outer loop
      vertex 25 -25 -25
      vertex 9.95184726672197 0.980171403295606 -25
      vertex 9.807852804032304 1.9509032201612824 -25
    endloop
  endfacet
  facet normal 1 0 0
    outer loop
      vertex 25 -25 -25
      vertex 25 25 -25
      vertex 25 -25 25
    endloop
  endfacet
  facet normal 0 0 1
    outer loop
      vertex 25 -25 25
      vertex -2.902846772544623 -9.569403357322088 25
      vertex -3.826834323650898 -9.238795325112868 25
    endloop
  endfacet
  facet normal 0 0 1
    outer loop
      vertex 25 -25 25
      vertex -1.9509032201612824 -9.807852804032304 25
      vertex -2.902846772544623 -9.569403357322088 25
    endloop
  endfacet
  facet normal 0 0 1
    outer loop
      vertex 25 -25 25
      vertex -0.980171403295606 -9.95184726672197 25
      vertex -1.9509032201612824 -9.807852804032304 25
    endloop
  endfacet
  facet normal 0 0 1
    outer loop
      vertex 25 -25 25
      vertex 0 -10 25
      vertex -0.980171403295606 -9.95184726672197 25
    endloop
  endfacet
  facet normal 0 0 1
    outer loop
      vertex 25 -25 25
      vertex 0.980171403295606 -9.95184726672197 25
      vertex 0 -10 25
    endloop
  endfacet
  facet normal 0 0 1
    outer loop
      vertex 25 -25 25
      vertex 1.9509032201612824 -9.807852804032304 25
      vertex 0.980171403295606 -9.95184726672197 25
    endloop
  endfacet
  facet normal 0 0 1
    outer loop
      vertex 25 -25 25
      vertex 2.902846772544623 -9.569403357322088 25
      vertex 1.9509032201612824 -9.807852804032304 25
    endloop
  endfacet
  facet normal 0 0 1
    outer loop
      vertex 25 -25 25
      vertex 3.826834323650898 -9.238795325112868 25
      vertex 2.902846772544623 -9.569403357322088 25
    endloop
  endfacet
  facet normal 0 0 1
    outer loop
      vertex 25 -25 25
      vertex 4.7139673682599765 -8.819212643483551 25
      vertex 3.826834323650898 -9.238795325112868 25
    endloop
  endfacet
  facet normal 0 0 1
    outer loop
      vertex 25 -25 25
      vertex 5.555702330196022 -8.314696123025453 25
      vertex 4.7139673682599765 -8.819212643483551 25
    endloop
  endfacet
  facet normal 0 0 1
    outer loop
      vertex 25 -25 25
      vertex 6.343932841636455 -7.73010453362737 25
      vertex 5.555702330196022 -8.314696123025453 25
    endloop
  endfacet
  facet normal 0 0 1
    outer loop
      vertex 25 -25 25
      vertex 7.0710678118654755 -7.0710678118654755 25
      vertex 6.343932841636455 -7.73010453362737 25
    endloop
  endfacet
  facet normal 0 0 1
    outer loop
      vertex 25 -25 25
      vertex 7.73010453362737 -6.343932841636455 25
      vertex 7.0710678118654755 -7.0710678118654755 25
    endloop
  endfacet
  facet normal 0 0 1
    outer loop
      vertex 25 -25 25
      vertex 8.314696123025453 -5.555702330196022 25
      vertex 7.73010453362737 -6.343932841636455 25
    endloop
  endfacet
  facet normal 0 0 1
    outer loop
      vertex 25 -25 25
      vertex 8.819212643483551 -4.7139673682599765 25
      vertex 8.314696123025453 -5.555702330196022 25
    endloop
  endfacet
  facet normal 0 0 1
    outer loop
      vertex 25 -25 25
      vertex 9.238795325112868 -3.826834323650898 25
      vertex 8.819212643483551 -4.7139673682599765 25
    endloop
  endfacet
  facet normal 0 0 1
    outer loop
      vertex 25 -25 25
      vertex 9.569403357322088 -2.902846772544623 25
      vertex 9.238795325112868 -3.826834323650898 25
    endloop
  endfacet
  facet normal 0 0 1
    outer loop
      vertex 25 -25 25
      vertex 25 25 25
      vertex 9.569403357322088 -2.902846772544623 25
    endloop
  endfacet
  facet normal 0 0 -1
    outer loop
      vertex 25 25 -25
      vertex -1.9509032201612824 9.807852804032304 -25
      vertex -2.902846772544623 9.569403357322088 -25
    endloop
  endfacet
  facet normal 0 0 -1
    outer loop
      vertex 25 25 -25
      vertex -0.980171403295606 9.95184726672197 -25
      vertex -1.9509032201612824 9.807852804032304 -25
    endloop
  endfacet
  facet normal 0 0 -1
    outer loop
      vertex 25 25 -25
      vertex 0 10 -25
      vertex -0.980171403295606 9.95184726672197 -25
    endloop
  endfacet
  facet normal 0 0 -1
    outer loop
      vertex 25 25 -25
      vertex 0.980171403295606 9.95184726672197 -25
      vertex 0 10 -25
    endloop
  endfacet
  facet normal 0 0 -1
    outer loop
      vertex 25 25 -25
      vertex 1.9509032201612824 9.807852804032304 -25
      vertex 0.980171403295606 9.95184726672197 -25
    endloop
  endfacet
  facet normal 0 0 -1
    outer loop
      vertex 25 25 -25
      vertex 2.902846772544623 9.569403357322088 -25
      vertex 1.9509032201612824 9.807852804032304 -25
    endloop
  endfacet
  facet normal 0 0 -1
    outer loop
      vertex 25 25 -25
      vertex 3.826834323650898 9.238795325112868 -25
      vertex 2.902846772544623 9.569403357322088 -25
    endloop
  endfacet
  facet normal 0 0 -1
    outer loop
      vertex 25 25 -25
      vertex 5.555702330196022 8.314696123025453 -25
      vertex 4.7139673682599765 8.819212643483551 -25
    endloop
  endfacet
  facet normal 0 0 -1
    outer loop
      vertex 25 25 -25
      vertex 6.343932841636455 7.73010453362737 -25
      vertex 5.555702330196022 8.314696123025453 -25
    endloop
  endfacet
  facet normal 0 0 -1
    outer loop
      vertex 25 25 -25
      vertex 4.7139673682599765 8.819212643483551 -25
      vertex 3.826834323650898 9.238795325112868 -25
    endloop
  endfacet
  facet normal 0 0 -1
    outer loop
      vertex 25 25 -25
      vertex 8.819212643483551 4.7139673682599765 -25
      vertex 8.314696123025453 5.555702330196022 -25
    endloop
  endfacet
  facet normal 0 0 -1
    outer loop
      vertex 25 25 -25
      vertex 8.314696123025453 5.555702330196022 -25
      vertex 7.73010453362737 6.343932841636455 -25
    endloop
  endfacet
  facet normal 0 0 -1
    outer loop
      vertex 25 25 -25
      vertex 9.569403357322088 2.902846772544623 -25
      vertex 9.238795325112868 3.826834323650898 -25
    endloop
  endfacet
  facet normal 0 0 -1
    outer loop
      vertex 25 25 -25
      vertex 9.238795325112868 3.826834323650898 -25
      vertex 8.819212643483551 4.7139673682599765 -25
    endloop
  endfacet
  facet normal 0 0 -1
    outer loop
      vertex 25 -25 -25
      vertex 9.569403357322088 2.902846772544623 -25
      vertex 25 25 -25
    endloop
  endfacet
  facet normal 0 0 -1
    outer loop
      vertex 25 25 -25
      vertex 7.0710678118654755 7.0710678118654755 -25
      vertex 6.343932841636455 7.73010453362737 -25
    endloop
  endfacet
  facet normal 0 0 -1
    outer loop
      vertex 25 25 -25
      vertex 7.73010453362737 6.343932841636455 -25
      vertex 7.0710678118654755 7.0710678118654755 -25
    endloop
  endfacet
  facet normal 0 1 0
    outer loop
      vertex -25 25 25
      vertex 25 25 25
      vertex 25 25 -25
    endloop
  endfacet
  facet normal 0 0 1
    outer loop
      vertex -25 25 25
      vertex 3.826834323650898 9.238795325112868 25
      vertex 25 25 25
    endloop
  endfacet
  facet normal 0 0 1
    outer loop
      vertex 25 25 25
      vertex 4.7139673682599765 8.819212643483551 25
      vertex 5.555702330196022 8.314696123025453 25
    endloop
  endfacet
  facet normal 0 0 1
    outer loop
      vertex 25 25 25
      vertex 5.555702330196022 8.314696123025453 25
      vertex 6.343932841636455 7.73010453362737 25
    endloop
  endfacet
  facet normal 0 0 1
    outer loop
      vertex 25 25 25
      vertex 3.826834323650898 9.238795325112868 25
      vertex 4.7139673682599765 8.819212643483551 25
    endloop
  endfacet
  facet normal 1 0 0
    outer loop
      vertex 25 -25 25
      vertex 25 25 -25
      vertex 25 25 25
    endloop
  endfacet
  facet normal 0 0 1
    outer loop
      vertex 25 25 25
      vertex 9.807852804032304 -1.9509032201612824 25
      vertex 9.569403357322088 -2.902846772544623 25
    endloop
  endfacet
  facet normal 0 0 1
    outer loop
      vertex 25 25 25
      vertex 9.95184726672197 -0.980171403295606 25
      vertex 9.807852804032304 -1.9509032201612824 25
    endloop
  endfacet
  facet normal 0 0 1
    outer loop
      vertex 25 25 25
      vertex 10 0 25
      vertex 9.95184726672197 -0.980171403295606 25
    endloop
  endfacet
  facet normal 0 0 1
    outer loop
      vertex 25 25 25
      vertex 9.95184726672197 0.980171403295606 25
      vertex 10 0 25
    endloop
  endfacet
  facet normal 0 0 1
    outer loop
      vertex 25 25 25
      vertex 9.807852804032304 1.9509032201612824 25
      vertex 9.95184726672197 0.980171403295606 25
    endloop
  endfacet
  facet normal 0 0 1
    outer loop
      vertex 25 25 25
      vertex 8.314696123025453 5.555702330196022 25
      vertex 8.819212643483551 4.7139673682599765 25
    endloop
  endfacet
  facet normal 0 0 1
    outer loop
      vertex 25 25 25
      vertex 7.73010453362737 6.343932841636455 25
      vertex 8.314696123025453 5.555702330196022 25
    endloop
  endfacet
  facet normal 0 0 1
    outer loop
      vertex 25 25 25
      vertex 9.569403357322088 2.902846772544623 25
      vertex 9.807852804032304 1.9509032201612824 25
    endloop
  endfacet
  facet normal 0 0 1
    outer loop
      vertex 25 25 25
      vertex 9.238795325112868 3.826834323650898 25
      vertex 9.569403357322088 2.902846772544623 25
    endloop
  endfacet
  facet normal 0 0 1
    outer loop
      vertex 25 25 25
      vertex 8.819212643483551 4.7139673682599765 25
      vertex 9.238795325112868 3.826834323650898 25
    endloop
  endfacet
  facet normal 0 0 1
    outer loop
      vertex 25 25 25
      vertex 6.343932841636455 7.73010453362737 25
      vertex 7.0710678118654755 7.0710678118654755 25
    endloop
  endfacet
  facet normal 0 0 1
    outer loop
      vertex 25 25 25
      vertex 7.0710678118654755 7.0710678118654755 25
      vertex 7.73010453362737 6.343932841636455 25
    endloop
  endfacet
  facet normal 0.7409511253549592 0.6715589548470183 0
    outer loop
      vertex -7.73010453362737 -6.343932841636455 25
      vertex -7.0710678118654755 -7.0710678118654755 -25
      vertex -7.73010453362737 -6.343932841636455 -25
    endloop
  endfacet
  facet normal 0.6715589548470183 0.7409511253549592 0
    outer loop
      vertex -6.343932841636455 -7.73010453362737 -25
      vertex -7.0710678118654755 -7.0710678118654755 -25
      vertex -7.0710678118654755 -7.0710678118654755 25
    endloop
  endfacet
  facet normal 0.9415440651830213 0.33688985339221883 0
    outer loop
      vertex -9.569403357322088 -2.902846772544623 25
      vertex -9.238795325112868 -3.826834323650898 -25
      vertex -9.569403357322088 -2.902846772544623 -25
    endloop
  endfacet
  facet normal 0.9700312531945439 0.2429801799032646 0
    outer loop
      vertex -9.807852804032304 -1.9509032201612824 25
      vertex -9.569403357322088 -2.902846772544623 -25
      vertex -9.807852804032304 -1.9509032201612824 -25
    endloop
  endfacet
  facet normal 0.9891765099647809 0.14673047445536286 0
    outer loop
      vertex -9.95184726672197 -0.980171403295606 25
      vertex -9.807852804032304 -1.9509032201612824 -25
      vertex -9.95184726672197 -0.980171403295606 -25
    endloop
  endfacet
  facet normal 0.9987954562051725 0.049067674327417134 0
    outer loop
      vertex -10 0 25
      vertex -9.95184726672197 -0.980171403295606 -25
      vertex -10 0 -25
    endloop
  endfacet
  facet normal 0.8577286100002717 0.5141027441932225 0
    outer loop
      vertex -8.819212643483551 -4.7139673682599765 25
      vertex -8.314696123025453 -5.555702330196022 -25
      vertex -8.819212643483551 -4.7139673682599765 -25
    endloop
  endfacet
  facet normal 0.8032075314806452 0.5956993044924331 0
    outer loop
      vertex -8.314696123025453 -5.555702330196022 25
      vertex -7.73010453362737 -6.343932841636455 -25
      vertex -8.314696123025453 -5.555702330196022 -25
    endloop
  endfacet
  facet normal 0.9039892931234436 0.42755509343028164 0
    outer loop
      vertex -9.238795325112868 -3.826834323650898 25
      vertex -8.819212643483551 -4.7139673682599765 -25
      vertex -9.238795325112868 -3.826834323650898 -25
    endloop
  endfacet
  facet normal 0.5956993044924331 0.8032075314806452 0
    outer loop
      vertex -5.555702330196022 -8.314696123025453 -25
      vertex -6.343932841636455 -7.73010453362737 -25
      vertex -6.343932841636455 -7.73010453362737 25
    endloop
  endfacet
  facet normal 0.5141027441932225 0.8577286100002717 0
    outer loop
      vertex -4.7139673682599765 -8.819212643483551 -25
      vertex -5.555702330196022 -8.314696123025453 -25
      vertex -5.555702330196022 -8.314696123025453 25
    endloop
  endfacet
  facet normal 0.42755509343028164 0.9039892931234436 0
    outer loop
      vertex -3.826834323650898 -9.238795325112868 -25
      vertex -4.7139673682599765 -8.819212643483551 -25
      vertex -4.7139673682599765 -8.819212643483551 25
    endloop
  endfacet
  facet normal 0.33688985339221883 0.9415440651830213 0
    outer loop
      vertex -2.902846772544623 -9.569403357322088 -25
      vertex -3.826834323650898 -9.238795325112868 -25
      vertex -3.826834323650898 -9.238795325112868 25
    endloop
  endfacet
  facet normal 0.2429801799032646 0.9700312531945439 0
    outer loop
      vertex -1.9509032201612824 -9.807852804032304 -25
      vertex -2.902846772544623 -9.569403357322088 -25
      vertex -2.902846772544623 -9.569403357322088 25
    endloop
  endfacet
  facet normal 0.14673047445536286 0.9891765099647809 0
    outer loop
      vertex -0.980171403295606 -9.95184726672197 -25
      vertex -1.9509032201612824 -9.807852804032304 -25
      vertex -1.9509032201612824 -9.807852804032304 25
    endloop
  endfacet
  facet normal 0.049067674327417134 0.9987954562051725 0
    outer loop
      vertex 0 -10 -25
      vertex -0.980171403295606 -9.95184726672197 -25
      vertex -0.980171403295606 -9.95184726672197 25
    endloop
  endfacet
  facet normal 0.7409511253549592 0.6715589548470183 0
    outer loop
      vertex -7.73010453362737 -6.343932841636455 25
      vertex -7.0710678118654755 -7.0710678118654755 25
      vertex -7.0710678118654755 -7.0710678118654755 -25
    endloop
  endfacet
  facet normal 0.6715589548470183 0.7409511253549592 0
    outer loop
      vertex -6.343932841636455 -7.73010453362737 25
      vertex -6.343932841636455 -7.73010453362737 -25
      vertex -7.0710678118654755 -7.0710678118654755 25
    endloop
  endfacet
  facet normal 0.9700312531945439 0.2429801799032646 0
    outer loop
      vertex -9.807852804032304 -1.9509032201612824 25
      vertex -9.569403357322088 -2.902846772544623 25
      vertex -9.569403357322088 -2.902846772544623 -25
    endloop
  endfacet
  facet normal 0.9891765099647809 0.14673047445536286 0
    outer loop
      vertex -9.95184726672197 -0.980171403295606 25
      vertex -9.807852804032304 -1.9509032201612824 25
      vertex -9.807852804032304 -1.9509032201612824 -25
    endloop
  endfacet
  facet normal 0.9987954562051725 0.049067674327417134 0
    outer loop
      vertex -10 0 25
      vertex -9.95184726672197 -0.980171403295606 25
      vertex -9.95184726672197 -0.980171403295606 -25
    endloop
  endfacet
  facet normal 0.8032075314806452 0.5956993044924331 0
    outer loop
      vertex -8.314696123025453 -5.555702330196022 25
      vertex -7.73010453362737 -6.343932841636455 25
      vertex -7.73010453362737 -6.343932841636455 -25
    endloop
  endfacet
  facet normal 0.8577286100002717 0.5141027441932225 0
    outer loop
      vertex -8.819212643483551 -4.7139673682599765 25
      vertex -8.314696123025453 -5.555702330196022 25
      vertex -8.314696123025453 -5.555702330196022 -25
    endloop
  endfacet
  facet normal 0.9039892931234436 0.42755509343028164 0
    outer loop
      vertex -9.238795325112868 -3.826834323650898 25
      vertex -8.819212643483551 -4.7139673682599765 25
      vertex -8.819212643483551 -4.7139673682599765 -25
    endloop
  endfacet
  facet normal 0.9415440651830213 0.33688985339221883 0
    outer loop
      vertex -9.569403357322088 -2.902846772544623 25
      vertex -9.238795325112868 -3.826834323650898 25
      vertex -9.238795325112868 -3.826834323650898 -25
    endloop
  endfacet
  facet normal 0.33688985339221883 0.9415440651830213 0
    outer loop
      vertex -2.902846772544623 -9.569403357322088 25
      vertex -2.902846772544623 -9.569403357322088 -25
      vertex -3.826834323650898 -9.238795325112868 25
    endloop
  endfacet
  facet normal 0.5956993044924331 0.8032075314806452 0
    outer loop
      vertex -5.555702330196022 -8.314696123025453 25
      vertex -5.555702330196022 -8.314696123025453 -25
      vertex -6.343932841636455 -7.73010453362737 25
    endloop
  endfacet
  facet normal 0.5141027441932225 0.8577286100002717 0
    outer loop
      vertex -4.7139673682599765 -8.819212643483551 25
      vertex -4.7139673682599765 -8.819212643483551 -25
      vertex -5.555702330196022 -8.314696123025453 25
    endloop
  endfacet
  facet normal 0.42755509343028164 0.9039892931234436 0
    outer loop
      vertex -3.826834323650898 -9.238795325112868 25
      vertex -3.826834323650898 -9.238795325112868 -25
      vertex -4.7139673682599765 -8.819212643483551 25
    endloop
  endfacet
  facet normal 0.2429801799032646 0.9700312531945439 0
    outer loop
      vertex -1.9509032201612824 -9.807852804032304 25
      vertex -1.9509032201612824 -9.807852804032304 -25
      vertex -2.902846772544623 -9.569403357322088 25
    endloop
  endfacet
  facet normal 0.14673047445536286 0.9891765099647809 0
    outer loop
      vertex -0.980171403295606 -9.95184726672197 25
      vertex -0.980171403295606 -9.95184726672197 -25
      vertex -1.9509032201612824 -9.807852804032304 25
    endloop
  endfacet
  facet normal 0.049067674327417134 0.9987954562051725 0
    outer loop
      vertex 0 -10 25
      vertex 0 -10 -25
      vertex -0.980171403295606 -9.95184726672197 25
    endloop
  endfacet
  facet normal 0.9987954562051725 -0.049067674327417134 0
    outer loop
      vertex -9.95184726672197 0.980171403295606 25
      vertex -10 0 -25
      vertex -9.95184726672197 0.980171403295606 -25
    endloop
  endfacet
  facet normal 0.9891765099647809 -0.14673047445536286 0
    outer loop
      vertex -9.807852804032304 1.9509032201612824 25
      vertex -9.95184726672197 0.980171403295606 -25
      vertex -9.807852804032304 1.9509032201612824 -25
    endloop
  endfacet
  facet normal 0.9700312531945439 -0.2429801799032646 0
    outer loop
      vertex -9.569403357322088 2.902846772544623 25
      vertex -9.807852804032304 1.9509032201612824 -25
      vertex -9.569403357322088 2.902846772544623 -25
    endloop
  endfacet
  facet normal 0.9415440651830213 -0.33688985339221883 0
    outer loop
      vertex -9.238795325112868 3.826834323650898 25
      vertex -9.569403357322088 2.902846772544623 -25
      vertex -9.238795325112868 3.826834323650898 -25
    endloop
  endfacet
  facet normal 0.9039892931234436 -0.42755509343028164 0
    outer loop
      vertex -8.819212643483551 4.7139673682599765 25
      vertex -9.238795325112868 3.826834323650898 -25
      vertex -8.819212643483551 4.7139673682599765 -25
    endloop
  endfacet
  facet normal 0.8577286100002717 -0.5141027441932225 0
    outer loop
      vertex -8.314696123025453 5.555702330196022 25
      vertex -8.819212643483551 4.7139673682599765 -25
      vertex -8.314696123025453 5.555702330196022 -25
    endloop
  endfacet
  facet normal 0.8032075314806452 -0.5956993044924331 0
    outer loop
      vertex -7.73010453362737 6.343932841636455 25
      vertex -8.314696123025453 5.555702330196022 -25
      vertex -7.73010453362737 6.343932841636455 -25
    endloop
  endfacet
  facet normal 0.7409511253549592 -0.6715589548470183 0
    outer loop
      vertex -7.0710678118654755 7.0710678118654755 25
      vertex -7.73010453362737 6.343932841636455 -25
      vertex -7.0710678118654755 7.0710678118654755 -25
    endloop
  endfacet
  facet normal 0.6715589548470183 -0.7409511253549592 0
    outer loop
      vertex -7.0710678118654755 7.0710678118654755 -25
      vertex -6.343932841636455 7.73010453362737 -25
      vertex -6.343932841636455 7.73010453362737 25
    endloop
  endfacet
  facet normal 0.5956993044924331 -0.8032075314806452 0
    outer loop
      vertex -6.343932841636455 7.73010453362737 -25
      vertex -5.555702330196022 8.314696123025453 -25
      vertex -5.555702330196022 8.314696123025453 25
    endloop
  endfacet
  facet normal 0.5141027441932225 -0.8577286100002717 0
    outer loop
      vertex -5.555702330196022 8.314696123025453 -25
      vertex -4.7139673682599765 8.819212643483551 -25
      vertex -4.7139673682599765 8.819212643483551 25
    endloop
  endfacet
  facet normal 0.42755509343028164 -0.9039892931234436 0
    outer loop
      vertex -4.7139673682599765 8.819212643483551 -25
      vertex -3.826834323650898 9.238795325112868 -25
      vertex -3.826834323650898 9.238795325112868 25
    endloop
  endfacet
  facet normal 0.33688985339221883 -0.9415440651830213 0
    outer loop
      vertex -3.826834323650898 9.238795325112868 -25
      vertex -2.902846772544623 9.569403357322088 -25
      vertex -2.902846772544623 9.569403357322088 25
    endloop
  endfacet
  facet normal 0.2429801799032646 -0.9700312531945439 0
    outer loop
      vertex -2.902846772544623 9.569403357322088 -25
      vertex -1.9509032201612824 9.807852804032304 -25
      vertex -1.9509032201612824 9.807852804032304 25
    endloop
  endfacet
  facet normal 0.14673047445536286 -0.9891765099647809 0
    outer loop
      vertex -1.9509032201612824 9.807852804032304 -25
      vertex -0.980171403295606 9.95184726672197 -25
      vertex -0.980171403295606 9.95184726672197 25
    endloop
  endfacet
  facet normal 0.049067674327417134 -0.9987954562051725 0
    outer loop
      vertex 0 10 -25
      vertex 0 10 25
      vertex -0.980171403295606 9.95184726672197 -25
    endloop
  endfacet
  facet normal 0.9987954562051725 -0.049067674327417134 0
    outer loop
      vertex -9.95184726672197 0.980171403295606 25
      vertex -10 0 25
      vertex -10 0 -25
    endloop
  endfacet
  facet normal 0.9891765099647809 -0.14673047445536286 0
    outer loop
      vertex -9.807852804032304 1.9509032201612824 25
      vertex -9.95184726672197 0.980171403295606 25
      vertex -9.95184726672197 0.980171403295606 -25
    endloop
  endfacet
  facet normal 0.9700312531945439 -0.2429801799032646 0
    outer loop
      vertex -9.569403357322088 2.902846772544623 25
      vertex -9.807852804032304 1.9509032201612824 25
      vertex -9.807852804032304 1.9509032201612824 -25
    endloop
  endfacet
  facet normal 0.9415440651830213 -0.33688985339221883 0
    outer loop
      vertex -9.238795325112868 3.826834323650898 25
      vertex -9.569403357322088 2.902846772544623 25
      vertex -9.569403357322088 2.902846772544623 -25
    endloop
  endfacet
  facet normal 0.9039892931234436 -0.42755509343028164 0
    outer loop
      vertex -8.819212643483551 4.7139673682599765 25
      vertex -9.238795325112868 3.826834323650898 25
      vertex -9.238795325112868 3.826834323650898 -25
    endloop
  endfacet
  facet normal 0.8577286100002717 -0.5141027441932225 0
    outer loop
      vertex -8.314696123025453 5.555702330196022 25
      vertex -8.819212643483551 4.7139673682599765 25
      vertex -8.819212643483551 4.7139673682599765 -25
    endloop
  endfacet
  facet normal 0.8032075314806452 -0.5956993044924331 0
    outer loop
      vertex -7.73010453362737 6.343932841636455 25
      vertex -8.314696123025453 5.555702330196022 25
      vertex -8.314696123025453 5.555702330196022 -25
    endloop
  endfacet
  facet normal 0.7409511253549592 -0.6715589548470183 0
    outer loop
      vertex -7.0710678118654755 7.0710678118654755 25
      vertex -7.73010453362737 6.343932841636455 25
      vertex -7.73010453362737 6.343932841636455 -25
    endloop
  endfacet
  facet normal 0.6715589548470183 -0.7409511253549592 0
    outer loop
      vertex -7.0710678118654755 7.0710678118654755 25
      vertex -7.0710678118654755 7.0710678118654755 -25
      vertex -6.343932841636455 7.73010453362737 25
    endloop
  endfacet
  facet normal 0.5956993044924331 -0.8032075314806452 0
    outer loop
      vertex -6.343932841636455 7.73010453362737 -25
      vertex -5.555702330196022 8.314696123025453 25
      vertex -6.343932841636455 7.73010453362737 25
    endloop
  endfacet
  facet normal 0.5141027441932225 -0.8577286100002717 0
    outer loop
      vertex -5.555702330196022 8.314696123025453 -25
      vertex -4.7139673682599765 8.819212643483551 25
      vertex -5.555702330196022 8.314696123025453 25
    endloop
  endfacet
  facet normal 0.42755509343028164 -0.9039892931234436 0
    outer loop
      vertex -4.7139673682599765 8.819212643483551 -25
      vertex -3.826834323650898 9.238795325112868 25
      vertex -4.7139673682599765 8.819212643483551 25
    endloop
  endfacet
  facet normal 0.33688985339221883 -0.9415440651830213 0
    outer loop
      vertex -3.826834323650898 9.238795325112868 -25
      vertex -2.902846772544623 9.569403357322088 25
      vertex -3.826834323650898 9.238795325112868 25
    endloop
  endfacet
  facet normal 0.2429801799032646 -0.9700312531945439 0
    outer loop
      vertex -2.902846772544623 9.569403357322088 -25
      vertex -1.9509032201612824 9.807852804032304 25
      vertex -2.902846772544623 9.569403357322088 25
    endloop
  endfacet
  facet normal 0.14673047445536286 -0.9891765099647809 0
    outer loop
      vertex -1.9509032201612824 9.807852804032304 -25
      vertex -0.980171403295606 9.95184726672197 25
      vertex -1.9509032201612824 9.807852804032304 25
    endloop
  endfacet
  facet normal 0.049067674327417134 -0.9987954562051725 0
    outer loop
      vertex 0 10 25
      vertex -0.980171403295606 9.95184726672197 25
      vertex -0.980171403295606 9.95184726672197 -25
    endloop
  endfacet
  facet normal -0.049067674327417134 0.9987954562051725 0
    outer loop
      vertex 0.980171403295606 -9.95184726672197 -25
      vertex 0 -10 -25
      vertex 0 -10 25
    endloop
  endfacet
  facet normal -0.14673047445536286 0.9891765099647809 0
    outer loop
      vertex 1.9509032201612824 -9.807852804032304 -25
      vertex 0.980171403295606 -9.95184726672197 -25
      vertex 0.980171403295606 -9.95184726672197 25
    endloop
  endfacet
  facet normal -0.2429801799032646 0.9700312531945439 0
    outer loop
      vertex 2.902846772544623 -9.569403357322088 -25
      vertex 1.9509032201612824 -9.807852804032304 -25
      vertex 1.9509032201612824 -9.807852804032304 25
    endloop
  endfacet
  facet normal -0.33688985339221883 0.9415440651830213 0
    outer loop
      vertex 3.826834323650898 -9.238795325112868 -25
      vertex 2.902846772544623 -9.569403357322088 -25
      vertex 2.902846772544623 -9.569403357322088 25
    endloop
  endfacet
  facet normal -0.42755509343028164 0.9039892931234436 0
    outer loop
      vertex 4.7139673682599765 -8.819212643483551 -25
      vertex 3.826834323650898 -9.238795325112868 -25
      vertex 3.826834323650898 -9.238795325112868 25
    endloop
  endfacet
  facet normal -0.5141027441932225 0.8577286100002717 0
    outer loop
      vertex 5.555702330196022 -8.314696123025453 -25
      vertex 4.7139673682599765 -8.819212643483551 -25
      vertex 4.7139673682599765 -8.819212643483551 25
    endloop
  endfacet
  facet normal -0.5956993044924331 0.8032075314806452 0
    outer loop
      vertex 6.343932841636455 -7.73010453362737 -25
      vertex 5.555702330196022 -8.314696123025453 -25
      vertex 5.555702330196022 -8.314696123025453 25
    endloop
  endfacet
  facet normal -0.6715589548470183 0.7409511253549592 0
    outer loop
      vertex 7.0710678118654755 -7.0710678118654755 -25
      vertex 6.343932841636455 -7.73010453362737 -25
      vertex 6.343932841636455 -7.73010453362737 25
    endloop
  endfacet
  facet normal -0.7409511253549592 0.6715589548470183 0
    outer loop
      vertex 7.0710678118654755 -7.0710678118654755 -25
      vertex 7.0710678118654755 -7.0710678118654755 25
      vertex 7.73010453362737 -6.343932841636455 -25
    endloop
  endfacet
  facet normal -0.8032075314806452 0.5956993044924331 0
    outer loop
      vertex 8.314696123025453 -5.555702330196022 -25
      vertex 7.73010453362737 -6.343932841636455 -25
      vertex 7.73010453362737 -6.343932841636455 25
    endloop
  endfacet
  facet normal -0.8577286100002717 0.5141027441932225 0
    outer loop
      vertex 8.819212643483551 -4.7139673682599765 -25
      vertex 8.314696123025453 -5.555702330196022 -25
      vertex 8.314696123025453 -5.555702330196022 25
    endloop
  endfacet
  facet normal -0.9039892931234436 0.42755509343028164 0
    outer loop
      vertex 9.238795325112868 -3.826834323650898 -25
      vertex 8.819212643483551 -4.7139673682599765 -25
      vertex 8.819212643483551 -4.7139673682599765 25
    endloop
  endfacet
  facet normal -0.9415440651830213 0.33688985339221883 0
    outer loop
      vertex 9.569403357322088 -2.902846772544623 -25
      vertex 9.238795325112868 -3.826834323650898 -25
      vertex 9.238795325112868 -3.826834323650898 25
    endloop
  endfacet
  facet normal -0.9700312531945439 0.2429801799032646 0
    outer loop
      vertex 9.807852804032304 -1.9509032201612824 -25
      vertex 9.569403357322088 -2.902846772544623 -25
      vertex 9.569403357322088 -2.902846772544623 25
    endloop
  endfacet
  facet normal -0.9891765099647809 0.14673047445536286 0
    outer loop
      vertex 9.95184726672197 -0.980171403295606 -25
      vertex 9.807852804032304 -1.9509032201612824 -25
      vertex 9.807852804032304 -1.9509032201612824 25
    endloop
  endfacet
  facet normal -0.9987954562051725 0.049067674327417134 0
    outer loop
      vertex 9.95184726672197 -0.980171403295606 -25
      vertex 9.95184726672197 -0.980171403295606 25
      vertex 10 0 -25
    endloop
  endfacet
  facet normal -0.049067674327417134 0.9987954562051725 0
    outer loop
      vertex 0.980171403295606 -9.95184726672197 25
      vertex 0.980171403295606 -9.95184726672197 -25
      vertex 0 -10 25
    endloop
  endfacet
  facet normal -0.14673047445536286 0.9891765099647809 0
    outer loop
      vertex 1.9509032201612824 -9.807852804032304 25
      vertex 1.9509032201612824 -9.807852804032304 -25
      vertex 0.980171403295606 -9.95184726672197 25
    endloop
  endfacet
  facet normal -0.2429801799032646 0.9700312531945439 0
    outer loop
      vertex 2.902846772544623 -9.569403357322088 25
      vertex 2.902846772544623 -9.569403357322088 -25
      vertex 1.9509032201612824 -9.807852804032304 25
    endloop
  endfacet
  facet normal -0.33688985339221883 0.9415440651830213 0
    outer loop
      vertex 3.826834323650898 -9.238795325112868 25
      vertex 3.826834323650898 -9.238795325112868 -25
      vertex 2.902846772544623 -9.569403357322088 25
    endloop
  endfacet
  facet normal -0.42755509343028164 0.9039892931234436 0
    outer loop
      vertex 4.7139673682599765 -8.819212643483551 25
      vertex 4.7139673682599765 -8.819212643483551 -25
      vertex 3.826834323650898 -9.238795325112868 25
    endloop
  endfacet
  facet normal -0.5141027441932225 0.8577286100002717 0
    outer loop
      vertex 5.555702330196022 -8.314696123025453 25
      vertex 5.555702330196022 -8.314696123025453 -25
      vertex 4.7139673682599765 -8.819212643483551 25
    endloop
  endfacet
  facet normal -0.5956993044924331 0.8032075314806452 0
    outer loop
      vertex 6.343932841636455 -7.73010453362737 25
      vertex 6.343932841636455 -7.73010453362737 -25
      vertex 5.555702330196022 -8.314696123025453 25
    endloop
  endfacet
  facet normal -0.6715589548470183 0.7409511253549592 0
    outer loop
      vertex 7.0710678118654755 -7.0710678118654755 25
      vertex 7.0710678118654755 -7.0710678118654755 -25
      vertex 6.343932841636455 -7.73010453362737 25
    endloop
  endfacet
  facet normal -0.7409511253549592 0.6715589548470183 0
    outer loop
      vertex 7.73010453362737 -6.343932841636455 -25
      vertex 7.0710678118654755 -7.0710678118654755 25
      vertex 7.73010453362737 -6.343932841636455 25
    endloop
  endfacet
  facet normal -0.8032075314806452 0.5956993044924331 0
    outer loop
      vertex 8.314696123025453 -5.555702330196022 -25
      vertex 7.73010453362737 -6.343932841636455 25
      vertex 8.314696123025453 -5.555702330196022 25
    endloop
  endfacet
  facet normal -0.8577286100002717 0.5141027441932225 0
    outer loop
      vertex 8.819212643483551 -4.7139673682599765 -25
      vertex 8.314696123025453 -5.555702330196022 25
      vertex 8.819212643483551 -4.7139673682599765 25
    endloop
  endfacet
  facet normal -0.9039892931234436 0.42755509343028164 0
    outer loop
      vertex 9.238795325112868 -3.826834323650898 -25
      vertex 8.819212643483551 -4.7139673682599765 25
      vertex 9.238795325112868 -3.826834323650898 25
    endloop
  endfacet
  facet normal -0.9415440651830213 0.33688985339221883 0
    outer loop
      vertex 9.569403357322088 -2.902846772544623 -25
      vertex 9.238795325112868 -3.826834323650898 25
      vertex 9.569403357322088 -2.902846772544623 25
    endloop
  endfacet
  facet normal -0.9700312531945439 0.2429801799032646 0
    outer loop
      vertex 9.807852804032304 -1.9509032201612824 -25
      vertex 9.569403357322088 -2.902846772544623 25
      vertex 9.807852804032304 -1.9509032201612824 25
    endloop
  endfacet
  facet normal -0.9891765099647809 0.14673047445536286 0
    outer loop
      vertex 9.95184726672197 -0.980171403295606 -25
      vertex 9.807852804032304 -1.9509032201612824 25
      vertex 9.95184726672197 -0.980171403295606 25
    endloop
  endfacet
  facet normal -0.9987954562051725 0.049067674327417134 0
    outer loop
      vertex 10 0 -25
      vertex 9.95184726672197 -0.980171403295606 25
      vertex 10 0 25
    endloop
  endfacet
  facet normal -0.049067674327417134 -0.9987954562051725 0
    outer loop
      vertex 0 10 -25
      vertex 0.980171403295606 9.95184726672197 -25
      vertex 0.980171403295606 9.95184726672197 25
    endloop
  endfacet
  facet normal -0.14673047445536286 -0.9891765099647809 0
    outer loop
      vertex 0.980171403295606 9.95184726672197 -25
      vertex 1.9509032201612824 9.807852804032304 -25
      vertex 1.9509032201612824 9.807852804032304 25
    endloop
  endfacet
  facet normal -0.2429801799032646 -0.9700312531945439 0
    outer loop
      vertex 1.9509032201612824 9.807852804032304 -25
      vertex 2.902846772544623 9.569403357322088 -25
      vertex 2.902846772544623 9.569403357322088 25
    endloop
  endfacet
  facet normal -0.33688985339221883 -0.9415440651830213 0
    outer loop
      vertex 2.902846772544623 9.569403357322088 -25
      vertex 3.826834323650898 9.238795325112868 -25
      vertex 3.826834323650898 9.238795325112868 25
    endloop
  endfacet
  facet normal -0.42755509343028164 -0.9039892931234436 0
    outer loop
      vertex 3.826834323650898 9.238795325112868 -25
      vertex 4.7139673682599765 8.819212643483551 -25
      vertex 4.7139673682599765 8.819212643483551 25
    endloop
  endfacet
  facet normal -0.5141027441932225 -0.8577286100002717 0
    outer loop
      vertex 4.7139673682599765 8.819212643483551 -25
      vertex 5.555702330196022 8.314696123025453 -25
      vertex 5.555702330196022 8.314696123025453 25
    endloop
  endfacet
  facet normal -0.5956993044924331 -0.8032075314806452 0
    outer loop
      vertex 5.555702330196022 8.314696123025453 -25
      vertex 6.343932841636455 7.73010453362737 -25
      vertex 6.343932841636455 7.73010453362737 25
    endloop
  endfacet
  facet normal -0.9039892931234436 -0.42755509343028164 0
    outer loop
      vertex 8.819212643483551 4.7139673682599765 -25
      vertex 9.238795325112868 3.826834323650898 -25
      vertex 9.238795325112868 3.826834323650898 25
    endloop
  endfacet
  facet normal -0.8032075314806452 -0.5956993044924331 0
    outer loop
      vertex 7.73010453362737 6.343932841636455 -25
      vertex 8.314696123025453 5.555702330196022 -25
      vertex 8.314696123025453 5.555702330196022 25
    endloop
  endfacet
  facet normal -0.8577286100002717 -0.5141027441932225 0
    outer loop
      vertex 8.314696123025453 5.555702330196022 -25
      vertex 8.819212643483551 4.7139673682599765 -25
      vertex 8.819212643483551 4.7139673682599765 25
    endloop
  endfacet
  facet normal -0.9987954562051725 -0.049067674327417134 0
    outer loop
      vertex 10 0 -25
      vertex 10 0 25
      vertex 9.95184726672197 0.980171403295606 -25
    endloop
  endfacet
  facet normal -0.9891765099647809 -0.14673047445536286 0
    outer loop
      vertex 9.807852804032304 1.9509032201612824 -25
      vertex 9.95184726672197 0.980171403295606 -25
      vertex 9.95184726672197 0.980171403295606 25
    endloop
  endfacet
  facet normal -0.9700312531945439 -0.2429801799032646 0
    outer loop
      vertex 9.569403357322088 2.902846772544623 -25
      vertex 9.807852804032304 1.9509032201612824 -25
      vertex 9.807852804032304 1.9509032201612824 25
    endloop
  endfacet
  facet normal -0.9415440651830213 -0.33688985339221883 0
    outer loop
      vertex 9.238795325112868 3.826834323650898 -25
      vertex 9.569403357322088 2.902846772544623 -25
      vertex 9.569403357322088 2.902846772544623 25
    endloop
  endfacet
  facet normal -0.6715589548470183 -0.7409511253549592 0
    outer loop
      vertex 6.343932841636455 7.73010453362737 -25
      vertex 7.0710678118654755 7.0710678118654755 -25
      vertex 7.0710678118654755 7.0710678118654755 25
    endloop
  endfacet
  facet normal -0.7409511253549592 -0.6715589548470183 0
    outer loop
      vertex 7.0710678118654755 7.0710678118654755 -25
      vertex 7.73010453362737 6.343932841636455 -25
      vertex 7.73010453362737 6.343932841636455 25
    endloop
  endfacet
  facet normal -0.049067674327417134 -0.9987954562051725 0
    outer loop
      vertex 0 10 -25
      vertex 0.980171403295606 9.95184726672197 25
      vertex 0 10 25
    endloop
  endfacet
  facet normal -0.14673047445536286 -0.9891765099647809 0
    outer loop
      vertex 0.980171403295606 9.95184726672197 -25
      vertex 1.9509032201612824 9.807852804032304 25
      vertex 0.980171403295606 9.95184726672197 25
    endloop
  endfacet
  facet normal -0.2429801799032646 -0.9700312531945439 0
    outer loop
      vertex 1.9509032201612824 9.807852804032304 -25
      vertex 2.902846772544623 9.569403357322088 25
      vertex 1.9509032201612824 9.807852804032304 25
    endloop
  endfacet
  facet normal -0.42755509343028164 -0.9039892931234436 0
    outer loop
      vertex 3.826834323650898 9.238795325112868 -25
      vertex 4.7139673682599765 8.819212643483551 25
      vertex 3.826834323650898 9.238795325112868 25
    endloop
  endfacet
  facet normal -0.5141027441932225 -0.8577286100002717 0
    outer loop
      vertex 4.7139673682599765 8.819212643483551 -25
      vertex 5.555702330196022 8.314696123025453 25
      vertex 4.7139673682599765 8.819212643483551 25
    endloop
  endfacet
  facet normal -0.5956993044924331 -0.8032075314806452 0
    outer loop
      vertex 5.555702330196022 8.314696123025453 -25
      vertex 6.343932841636455 7.73010453362737 25
      vertex 5.555702330196022 8.314696123025453 25
    endloop
  endfacet
  facet normal -0.33688985339221883 -0.9415440651830213 0
    outer loop
      vertex 2.902846772544623 9.569403357322088 -25
      vertex 3.826834323650898 9.238795325112868 25
      vertex 2.902846772544623 9.569403357322088 25
    endloop
  endfacet
  facet normal -0.9415440651830213 -0.33688985339221883 0
    outer loop
      vertex 9.238795325112868 3.826834323650898 -25
      vertex 9.569403357322088 2.902846772544623 25
      vertex 9.238795325112868 3.826834323650898 25
    endloop
  endfacet
  facet normal -0.9039892931234436 -0.42755509343028164 0
    outer loop
      vertex 8.819212643483551 4.7139673682599765 -25
      vertex 9.238795325112868 3.826834323650898 25
      vertex 8.819212643483551 4.7139673682599765 25
    endloop
  endfacet
  facet normal -0.8577286100002717 -0.5141027441932225 0
    outer loop
      vertex 8.314696123025453 5.555702330196022 -25
      vertex 8.819212643483551 4.7139673682599765 25
      vertex 8.314696123025453 5.555702330196022 25
    endloop
  endfacet
  facet normal -0.8032075314806452 -0.5956993044924331 0
    outer loop
      vertex 7.73010453362737 6.343932841636455 -25
      vertex 8.314696123025453 5.555702330196022 25
      vertex 7.73010453362737 6.343932841636455 25
    endloop
  endfacet
  facet normal -0.9987954562051725 -0.049067674327417134 0
    outer loop
      vertex 9.95184726672197 0.980171403295606 -25
      vertex 10 0 25
      vertex 9.95184726672197 0.980171403295606 25
    endloop
  endfacet
  facet normal -0.9891765099647809 -0.14673047445536286 0
    outer loop
      vertex 9.807852804032304 1.9509032201612824 -25
      vertex 9.95184726672197 0.980171403295606 25
      vertex 9.807852804032304 1.9509032201612824 25
    endloop
  endfacet
  facet normal -0.9700312531945439 -0.2429801799032646 0
    outer loop
      vertex 9.569403357322088 2.902846772544623 -25
      vertex 9.807852804032304 1.9509032201612824 25
      vertex 9.569403357322088 2.902846772544623 25
    endloop
  endfacet
  facet normal -0.6715589548470183 -0.7409511253549592 0
    outer loop
      vertex 6.343932841636455 7.73010453362737 -25
      vertex 7.0710678118654755 7.0710678118654755 25
      vertex 6.343932841636455 7.73010453362737 25
    endloop
  endfacet
  facet normal -0.7409511253549592 -0.6715589548470183 0
    outer loop
      vertex 7.0710678118654755 7.0710678118654755 -25
      vertex 7.73010453362737 6.343932841636455 25
      vertex 7.0710678118654755 7.0710678118654755 25
    endloop
  endfacet
endsolid OpenSCAD_Model
