solid OpenSCAD_Model
  facet normal 0 0 -1
    outer loop
      vertex 10.488377364290166 28.21785785597786 0
      vertex 11.546999366073186 27.487143847782946 0
      vertex 0 3 0
    endloop
  endfacet
  facet normal 0 0 -1
    outer loop
      vertex 11.546999366073186 27.487143847782946 0
      vertex 12.82394232818618 27.332094900861478 0
      vertex 0 3 0
    endloop
  endfacet
  facet normal 0 0 1
    outer loop
      vertex 0 3 3
      vertex 12.5 27.75 3
      vertex 10.909009742330268 28.40900974233027 3
    endloop
  endfacet
  facet normal 0 0 1
    outer loop
      vertex 0 3 3
      vertex 14.090990257669732 28.40900974233027 3
      vertex 12.5 27.75 3
    endloop
  endfacet
  facet normal 0 0 -1
    outer loop
      vertex 12.82394232818618 27.332094900861478 0
      vertex 35.488377364290166 28.21785785597786 0
      vertex 0 3 0
    endloop
  endfacet
  facet normal 0 0 1
    outer loop
      vertex 50 3 3
      vertex 14.090990257669732 28.40900974233027 3
      vertex 0 3 3
    endloop
  endfacet
  facet normal 0 0 1
    outer loop
      vertex 0 3 3
      vertex 10.25 30 3
      vertex 0 40 3
    endloop
  endfacet
  facet normal 0 0 -1
    outer loop
      vertex 10.488377364290166 28.21785785597786 0
      vertex 0 3 0
      vertex 9.890593865667485 29.356839152227188 0
    endloop
  endfacet
  facet normal 0 0 -1
    outer loop
      vertex 0 3 0
      vertex 9.890593865667485 30.643160847772812 0
      vertex 9.890593865667485 29.356839152227188 0
    endloop
  endfacet
  facet normal 0 0 1
    outer loop
      vertex 0 3 3
      vertex 10.909009742330268 28.40900974233027 3
      vertex 10.25 30 3
    endloop
  endfacet
  facet normal 0 0 1
    outer loop
      vertex 37.5 32.25 3
      vertex 12.5 32.25 3
      vertex 14.090990257669732 31.59099025766973 3
    endloop
  endfacet
  facet normal 0 0 -1
    outer loop
      vertex 35.488377364290166 28.21785785597786 0
      vertex 50 0 0
      vertex 0 0 0
    endloop
  endfacet
  facet normal 0 0 1
    outer loop
      vertex 50 3 3
      vertex 37.5 27.75 3
      vertex 14.090990257669732 28.40900974233027 3
    endloop
  endfacet
  facet normal 1 0 0
    outer loop
      vertex 50 2.7906976744186047 2.7906976744186047
      vertex 50 0 3
      vertex 50 0 0
    endloop
  endfacet
  facet normal 1 0 0
    outer loop
      vertex 50 0 3
      vertex 50 2.7906976744186047 2.7906976744186047
      vertex 50 2.5813953488372094 3
    endloop
  endfacet
  facet normal 1 0 0
    outer loop
      vertex 50 2.7906976744186047 2.7906976744186047
      vertex 50 3 3
      vertex 50 2.775 3
    endloop
  endfacet
  facet normal 1 0 0
    outer loop
      vertex 50 40 0
      vertex 50 2.7906976744186047 2.7906976744186047
      vertex 50 0 0
    endloop
  endfacet
  facet normal 1 0 0
    outer loop
      vertex 50 2.7906976744186047 2.7906976744186047
      vertex 50 40 3
      vertex 50 3 3
    endloop
  endfacet
  facet normal 0 0 1
    outer loop
      vertex 14.090990257669732 28.40900974233027 3
      vertex 37.5 27.75 3
      vertex 35.90900974233027 28.40900974233027 3
    endloop
  endfacet
  facet normal 0 0 1
    outer loop
      vertex 35.25 30 3
      vertex 14.090990257669732 28.40900974233027 3
      vertex 35.90900974233027 28.40900974233027 3
    endloop
  endfacet
  facet normal 0 0 -1
    outer loop
      vertex 34.89059386566748 30.643160847772812 0
      vertex 34.89059386566748 29.356839152227188 0
      vertex 15.1875 30 0
    endloop
  endfacet
  facet normal 0 0 -1
    outer loop
      vertex 50 40 0
      vertex 50 0 0
      vertex 39.879663068943 31.248943524867627 0
    endloop
  endfacet
  facet normal 0 0 1
    outer loop
      vertex 50 3 3
      vertex 50 40 3
      vertex 39.75 30 3
    endloop
  endfacet
  facet normal 1 0 0
    outer loop
      vertex 50 2.7906976744186047 2.7906976744186047
      vertex 50 40 0
      vertex 50 40 3
    endloop
  endfacet
  facet normal -1 0 0
    outer loop
      vertex 0 3 0
      vertex 0 3 3
      vertex 0 40 0
    endloop
  endfacet
  facet normal 0 0 -1
    outer loop
      vertex 0 3 0
      vertex 35.488377364290166 28.21785785597786 0
      vertex 0 0 0
    endloop
  endfacet
  facet normal 0 0 -1
    outer loop
      vertex 0 3 0
      vertex 0 40 0
      vertex 9.890593865667485 30.643160847772812 0
    endloop
  endfacet
  facet normal -1 0 0
    outer loop
      vertex 0 3 3
      vertex 0 40 3
      vertex 0 40 0
    endloop
  endfacet
  facet normal 0 0 -1
    outer loop
      vertex 9.890593865667485 30.643160847772812 0
      vertex 0 40 0
      vertex 10.488377364290166 31.782142144022135 0
    endloop
  endfacet
  facet normal 0 0 -1
    outer loop
      vertex 0 40 0
      vertex 11.546999366073186 32.512856152217054 0
      vertex 10.488377364290166 31.782142144022135 0
    endloop
  endfacet
  facet normal 0 0 1
    outer loop
      vertex 10.909009742330268 31.59099025766973 3
      vertex 0 40 3
      vertex 10.25 30 3
    endloop
  endfacet
  facet normal 0 0 1
    outer loop
      vertex 0 40 3
      vertex 10.909009742330268 31.59099025766973 3
      vertex 12.5 32.25 3
    endloop
  endfacet
  facet normal 0 0 -1
    outer loop
      vertex 11.546999366073186 32.512856152217054 0
      vertex 0 40 0
      vertex 12.823942328186181 32.66790509913852 0
    endloop
  endfacet
  facet normal 0 0 -1
    outer loop
      vertex 35.488377364290166 28.21785785597786 0
      vertex 12.82394232818618 27.332094900861478 0
      vertex 14.026674006839983 27.7882308604108 0
    endloop
  endfacet
  facet normal 0 0 -1
    outer loop
      vertex 35.488377364290166 28.21785785597786 0
      vertex 14.026674006839983 27.7882308604108 0
      vertex 14.879663068943001 28.751056475132373 0
    endloop
  endfacet
  facet normal 0 0 -1
    outer loop
      vertex 35.488377364290166 28.21785785597786 0
      vertex 14.879663068943001 28.751056475132373 0
      vertex 15.1875 30 0
    endloop
  endfacet
  facet normal 0 0 1
    outer loop
      vertex 35.25 30 3
      vertex 14.75 30 3
      vertex 14.090990257669732 28.40900974233027 3
    endloop
  endfacet
  facet normal 0 0 -1
    outer loop
      vertex 0 40 0
      vertex 37.823942328186185 32.66790509913852 0
      vertex 12.823942328186181 32.66790509913852 0
    endloop
  endfacet
  facet normal 0 1 0
    outer loop
      vertex 0 40 0
      vertex 0 40 3
      vertex 50 40 0
    endloop
  endfacet
  facet normal 0 0 -1
    outer loop
      vertex 15.1875 30 0
      vertex 14.879663068943001 31.248943524867627 0
      vertex 34.89059386566748 30.643160847772812 0
    endloop
  endfacet
  facet normal 0 0 -1
    outer loop
      vertex 14.879663068943001 31.248943524867627 0
      vertex 14.026674006839981 32.2117691395892 0
      vertex 35.488377364290166 31.782142144022135 0
    endloop
  endfacet
  facet normal 0 0 -1
    outer loop
      vertex 14.026674006839981 32.2117691395892 0
      vertex 12.823942328186181 32.66790509913852 0
      vertex 36.54699936607319 32.512856152217054 0
    endloop
  endfacet
  facet normal 0 0 1
    outer loop
      vertex 14.75 30 3
      vertex 35.90900974233027 31.59099025766973 3
      vertex 14.090990257669732 31.59099025766973 3
    endloop
  endfacet
  facet normal 0 0 1
    outer loop
      vertex 0 40 3
      vertex 12.5 32.25 3
      vertex 50 40 3
    endloop
  endfacet
  facet normal 0 0 -1
    outer loop
      vertex 50 0 0
      vertex 35.488377364290166 28.21785785597786 0
      vertex 36.54699936607319 27.487143847782946 0
    endloop
  endfacet
  facet normal 0 0 -1
    outer loop
      vertex 50 0 0
      vertex 36.54699936607319 27.487143847782946 0
      vertex 37.823942328186185 27.332094900861478 0
    endloop
  endfacet
  facet normal 0 0 -1
    outer loop
      vertex 50 0 0
      vertex 37.823942328186185 27.332094900861478 0
      vertex 39.02667400683998 27.7882308604108 0
    endloop
  endfacet
  facet normal 0 0 -1
    outer loop
      vertex 50 0 0
      vertex 39.02667400683998 27.7882308604108 0
      vertex 39.879663068943 28.751056475132373 0
    endloop
  endfacet
  facet normal 0 0 -1
    outer loop
      vertex 50 0 0
      vertex 39.879663068943 28.751056475132373 0
      vertex 40.1875 30 0
    endloop
  endfacet
  facet normal 0 0 1
    outer loop
      vertex 50 3 3
      vertex 39.09099025766973 28.40900974233027 3
      vertex 37.5 27.75 3
    endloop
  endfacet
  facet normal 0 0 -1
    outer loop
      vertex 35.488377364290166 28.21785785597786 0
      vertex 15.1875 30 0
      vertex 34.89059386566748 29.356839152227188 0
    endloop
  endfacet
  facet normal 0 0 -1
    outer loop
      vertex 34.89059386566748 30.643160847772812 0
      vertex 14.879663068943001 31.248943524867627 0
      vertex 35.488377364290166 31.782142144022135 0
    endloop
  endfacet
  facet normal 0 0 -1
    outer loop
      vertex 35.488377364290166 31.782142144022135 0
      vertex 14.026674006839981 32.2117691395892 0
      vertex 36.54699936607319 32.512856152217054 0
    endloop
  endfacet
  facet normal 0 0 1
    outer loop
      vertex 14.75 30 3
      vertex 35.25 30 3
      vertex 35.90900974233027 31.59099025766973 3
    endloop
  endfacet
  facet normal 0 0 1
    outer loop
      vertex 37.5 32.25 3
      vertex 14.090990257669732 31.59099025766973 3
      vertex 35.90900974233027 31.59099025766973 3
    endloop
  endfacet
  facet normal 0 0 -1
    outer loop
      vertex 36.54699936607319 32.512856152217054 0
      vertex 12.823942328186181 32.66790509913852 0
      vertex 37.823942328186185 32.66790509913852 0
    endloop
  endfacet
  facet normal 0 0 -1
    outer loop
      vertex 0 40 0
      vertex 50 40 0
      vertex 37.823942328186185 32.66790509913852 0
    endloop
  endfacet
  facet normal 0 0 1
    outer loop
      vertex 50 40 3
      vertex 12.5 32.25 3
      vertex 37.5 32.25 3
    endloop
  endfacet
  facet normal 0 1 0
    outer loop
      vertex 0 40 3
      vertex 50 40 3
      vertex 50 40 0
    endloop
  endfacet
  facet normal 0 0 -1
    outer loop
      vertex 50 0 0
      vertex 40.1875 30 0
      vertex 39.879663068943 31.248943524867627 0
    endloop
  endfacet
  facet normal 0 0 1
    outer loop
      vertex 50 3 3
      vertex 39.75 30 3
      vertex 39.09099025766973 28.40900974233027 3
    endloop
  endfacet
  facet normal 0 0 -1
    outer loop
      vertex 39.02667400683998 32.2117691395892 0
      vertex 37.823942328186185 32.66790509913852 0
      vertex 50 40 0
    endloop
  endfacet
  facet normal 0 0 -1
    outer loop
      vertex 39.879663068943 31.248943524867627 0
      vertex 39.02667400683998 32.2117691395892 0
      vertex 50 40 0
    endloop
  endfacet
  facet normal 0 0 1
    outer loop
      vertex 39.75 30 3
      vertex 50 40 3
      vertex 39.09099025766973 31.59099025766973 3
    endloop
  endfacet
  facet normal 0 0 1
    outer loop
      vertex 50 40 3
      vertex 37.5 32.25 3
      vertex 39.09099025766973 31.59099025766973 3
    endloop
  endfacet
  facet normal 0 -1 0
    outer loop
      vertex 14.75 0 30
      vertex 15.358011216954603 0 28.382596558282778
      vertex 19.55315164426935 0 30.361159031788475
    endloop
  endfacet
  facet normal 0 -1 0
    outer loop
      vertex 16.130283205452034 0 27.5
      vertex 34.375 0 27.5
      vertex 23.715609089356683 0 29.687373273765242
    endloop
  endfacet
  facet normal 1 0 0
    outer loop
      vertex 50 2.7906976744186047 2.7906976744186047
      vertex 50 2.775 3
      vertex 50 2.5813953488372094 3
    endloop
  endfacet
  facet normal 0 1 0
    outer loop
      vertex 50 3 3
      vertex 33.90108326182804 3 27.5
      vertex 35.56654208159855 3 29.235799813542986
    endloop
  endfacet
  facet normal 0 -1 0
    outer loop
      vertex 23.715609089356683 0 29.687373273765242
      vertex 34.375 0 27.5
      vertex 27.487760177891843 0 30.95777886556838
    endloop
  endfacet
  facet normal 0 -1 0
    outer loop
      vertex 27.487760177891843 0 30.95777886556838
      vertex 34.375 0 27.5
      vertex 29.41283209707163 0 31.59099025766973
    endloop
  endfacet
  facet normal 0 -1 0
    outer loop
      vertex 30.640436980360978 0 32.05688978697394
      vertex 29.41283209707163 0 31.59099025766973
      vertex 34.375 0 27.5
    endloop
  endfacet
  facet normal 0 -1 0
    outer loop
      vertex 30.640436980360978 0 32.05688978697394
      vertex 34.375 0 27.5
      vertex 31.928886912197918 0 32.25
    endloop
  endfacet
  facet normal 0 -1 0
    outer loop
      vertex 34.375 0 27.5
      vertex 37.5 0 32.25
      vertex 31.928886912197918 0 32.25
    endloop
  endfacet
  facet normal 0 -1 0
    outer loop
      vertex 34.375 0 27.5
      vertex 39.09099025766973 0 31.59099025766973
      vertex 37.5 0 32.25
    endloop
  endfacet
  facet normal 0 1 0
    outer loop
      vertex 35.90900974233027 3 31.59099025766973
      vertex 35.56654208159855 3 29.235799813542986
      vertex 35.25 3 30
    endloop
  endfacet
  facet normal 0 1 0
    outer loop
      vertex 35.90900974233027 3 31.59099025766973
      vertex 37.5 3 32.25
      vertex 35.56654208159855 3 29.235799813542986
    endloop
  endfacet
  facet normal 0 -1 0
    outer loop
      vertex 34.375 0 27.5
      vertex 50 0 3
      vertex 40.04838753497032 0 29.846840982150177
    endloop
  endfacet
  facet normal 0 1 0
    outer loop
      vertex 50 3 3
      vertex 35.56654208159855 3 29.235799813542986
      vertex 43.01504469786409 3 30.15617484761545
    endloop
  endfacet
  facet normal 0 -1 0
    outer loop
      vertex 34.375 0 27.5
      vertex 40.04838753497032 0 29.846840982150177
      vertex 40.225515463917525 0 30.463917525773198
    endloop
  endfacet
  facet normal 0 -1 0
    outer loop
      vertex 34.375 0 27.5
      vertex 40.225515463917525 0 30.463917525773198
      vertex 39.18998742925127 0 31.351989943401012
    endloop
  endfacet
  facet normal 0 -1 0
    outer loop
      vertex 50 0 3
      vertex 42.2606884268916 0 29.09306836906901
      vertex 41.27823144330178 0 29.491348068500443
    endloop
  endfacet
  facet normal 0 -1 0
    outer loop
      vertex 50 0 3
      vertex 41.27823144330178 0 29.491348068500443
      vertex 40.04838753497032 0 29.846840982150177
    endloop
  endfacet
  facet normal 0 -1 0
    outer loop
      vertex 34.375 0 27.5
      vertex 39.18998742925127 0 31.351989943401012
      vertex 39.09099025766973 0 31.59099025766973
    endloop
  endfacet
  facet normal 0 1 0
    outer loop
      vertex 35.56654208159855 3 29.235799813542986
      vertex 37.5 3 32.25
      vertex 41.39870516326202 3 31.608492842206854
    endloop
  endfacet
  facet normal 0 1 0
    outer loop
      vertex 35.56654208159855 3 29.235799813542986
      vertex 41.39870516326202 3 31.608492842206854
      vertex 42.22455636597015 3 30.631552507746637
    endloop
  endfacet
  facet normal 0 1 0
    outer loop
      vertex 35.56654208159855 3 29.235799813542986
      vertex 42.22455636597015 3 30.631552507746637
      vertex 43.01504469786409 3 30.15617484761545
    endloop
  endfacet
  facet normal 0 1 0
    outer loop
      vertex 37.5 3 32.25
      vertex 40.4610548264178 3 32.64707936001231
      vertex 41.39870516326202 3 31.608492842206854
    endloop
  endfacet
  facet normal 0 1 0
    outer loop
      vertex 37.5 3 32.25
      vertex 38.775334566891864 3 33.04070743147295
      vertex 40.4610548264178 3 32.64707936001231
    endloop
  endfacet
  facet normal -1 0 0
    outer loop
      vertex 0 0 0
      vertex 0 3 3
      vertex 0 3 0
    endloop
  endfacet
  facet normal -1 0 0
    outer loop
      vertex 0 0 0
      vertex 0 3 40
      vertex 0 3 3
    endloop
  endfacet
  facet normal 0 -1 0
    outer loop
      vertex 0 0 0
      vertex 16.130283205452034 0 27.5
      vertex 8.901083261828042 0 27.5
    endloop
  endfacet
  facet normal 0 1 0
    outer loop
      vertex 0 3 3
      vertex 8.901083261828044 3 27.5
      vertex 16.130283205452034 3 27.5
    endloop
  endfacet
  facet normal 0 -1 0
    outer loop
      vertex 0 0 0
      vertex 34.375 0 27.5
      vertex 16.130283205452034 0 27.5
    endloop
  endfacet
  facet normal 0 1 0
    outer loop
      vertex 0 3 3
      vertex 16.130283205452034 3 27.5
      vertex 50 3 3
    endloop
  endfacet
  facet normal 0 -1 0
    outer loop
      vertex 0 0 0
      vertex 8.901083261828042 0 27.5
      vertex 0 0 40
    endloop
  endfacet
  facet normal 0 1 0
    outer loop
      vertex 0 3 3
      vertex 0 3 40
      vertex 8.901083261828044 3 27.5
    endloop
  endfacet
  facet normal -1 0 0
    outer loop
      vertex 0 0 0
      vertex 0 0 40
      vertex 0 3 40
    endloop
  endfacet
  facet normal 0 -1 0
    outer loop
      vertex 0 0 40
      vertex 8.901083261828042 0 27.5
      vertex 10.566542081598545 0 29.235799813542986
    endloop
  endfacet
  facet normal 0 -1 0
    outer loop
      vertex 0 0 40
      vertex 10.566542081598545 0 29.235799813542986
      vertex 10.25 0 30
    endloop
  endfacet
  facet normal 0 -1 0
    outer loop
      vertex 0 0 40
      vertex 10.25 0 30
      vertex 10.909009742330268 0 31.59099025766973
    endloop
  endfacet
  facet normal 0 -1 0
    outer loop
      vertex 0 0 40
      vertex 10.909009742330268 0 31.59099025766973
      vertex 12.5 0 32.25
    endloop
  endfacet
  facet normal 0 1 0
    outer loop
      vertex 10.566542081598545 3 29.235799813542986
      vertex 8.901083261828044 3 27.5
      vertex 0 3 40
    endloop
  endfacet
  facet normal 0 1 0
    outer loop
      vertex 10.566542081598545 3 29.235799813542986
      vertex 0 3 40
      vertex 10.25 3 30
    endloop
  endfacet
  facet normal 0 1 0
    outer loop
      vertex 0 3 40
      vertex 10.909009742330268 3 31.59099025766973
      vertex 10.25 3 30
    endloop
  endfacet
  facet normal 0 1 0
    outer loop
      vertex 0 3 40
      vertex 12.5 3 32.25
      vertex 10.909009742330268 3 31.59099025766973
    endloop
  endfacet
  facet normal 0 -1 0
    outer loop
      vertex 14.421734200814784 0 29.20749625554381
      vertex 15.358011216954603 0 28.382596558282778
      vertex 14.75 0 30
    endloop
  endfacet
  facet normal 0 -1 0
    outer loop
      vertex 15.358011216954603 0 28.382596558282778
      vertex 16.130283205452034 0 27.5
      vertex 23.715609089356683 0 29.687373273765242
    endloop
  endfacet
  facet normal 0 -1 0
    outer loop
      vertex 23.715609089356683 0 29.687373273765242
      vertex 19.55315164426935 0 30.361159031788475
      vertex 15.358011216954603 0 28.382596558282778
    endloop
  endfacet
  facet normal 0 1 0
    outer loop
      vertex 14.090990257669732 3 31.59099025766973
      vertex 33.90108326182804 3 27.5
      vertex 14.75 3 30
    endloop
  endfacet
  facet normal 0 0 1
    outer loop
      vertex 0 0 40
      vertex 50 0 40
      vertex 0 3 40
    endloop
  endfacet
  facet normal 0 -1 0
    outer loop
      vertex 14.75 0 30
      vertex 29.41283209707163 0 31.59099025766973
      vertex 14.090990257669732 0 31.59099025766973
    endloop
  endfacet
  facet normal 0 -1 0
    outer loop
      vertex 12.5 0 32.25
      vertex 14.090990257669732 0 31.59099025766973
      vertex 31.928886912197918 0 32.25
    endloop
  endfacet
  facet normal 0 -1 0
    outer loop
      vertex 14.75 0 30
      vertex 19.55315164426935 0 30.361159031788475
      vertex 29.41283209707163 0 31.59099025766973
    endloop
  endfacet
  facet normal 0 1 0
    outer loop
      vertex 14.090990257669732 3 31.59099025766973
      vertex 12.5 3 32.25
      vertex 35.90900974233027 3 31.59099025766973
    endloop
  endfacet
  facet normal 0 -1 0
    outer loop
      vertex 23.715609089356683 0 29.687373273765242
      vertex 27.487760177891843 0 30.95777886556838
      vertex 19.55315164426935 0 30.361159031788475
    endloop
  endfacet
  facet normal 0 -1 0
    outer loop
      vertex 30.640436980360978 0 32.05688978697394
      vertex 14.090990257669732 0 31.59099025766973
      vertex 29.41283209707163 0 31.59099025766973
    endloop
  endfacet
  facet normal 0 -1 0
    outer loop
      vertex 0 0 40
      vertex 12.5 0 32.25
      vertex 50 0 40
    endloop
  endfacet
  facet normal 0 1 0
    outer loop
      vertex 0 3 40
      vertex 50 3 40
      vertex 12.5 3 32.25
    endloop
  endfacet
  facet normal 0 -1 0
    outer loop
      vertex 0 0 0
      vertex 50 0 0
      vertex 50 0 3
    endloop
  endfacet
  facet normal 0 -1 0
    outer loop
      vertex 0 0 0
      vertex 50 0 3
      vertex 34.375 0 27.5
    endloop
  endfacet
  facet normal 0 1 0
    outer loop
      vertex 16.130283205452034 3 27.5
      vertex 15.358011216954605 3 28.382596558282774
      vertex 50 3 3
    endloop
  endfacet
  facet normal 1 0 0
    outer loop
      vertex 50 0 40
      vertex 50 0 3
      vertex 50 2.5813953488372094 3
    endloop
  endfacet
  facet normal 1 0 0
    outer loop
      vertex 50 0 40
      vertex 50 2.5813953488372094 3
      vertex 50 2.775 3
    endloop
  endfacet
  facet normal 1 0 0
    outer loop
      vertex 50 3 3
      vertex 50 3 40
      vertex 50 2.775 3
    endloop
  endfacet
  facet normal 0 1 0
    outer loop
      vertex 14.421734200814784 3 29.20749625554381
      vertex 14.75 3 30
      vertex 50 3 3
    endloop
  endfacet
  facet normal 0 1 0
    outer loop
      vertex 14.421734200814784 3 29.20749625554381
      vertex 50 3 3
      vertex 15.358011216954605 3 28.382596558282774
    endloop
  endfacet
  facet normal 0 1 0
    outer loop
      vertex 33.90108326182804 3 27.5
      vertex 14.090990257669732 3 31.59099025766973
      vertex 35.56654208159855 3 29.235799813542986
    endloop
  endfacet
  facet normal 0 1 0
    outer loop
      vertex 50 3 3
      vertex 14.75 3 30
      vertex 33.90108326182804 3 27.5
    endloop
  endfacet
  facet normal 0 -1 0
    outer loop
      vertex 27.487760177891843 0 30.95777886556838
      vertex 29.41283209707163 0 31.59099025766973
      vertex 19.55315164426935 0 30.361159031788475
    endloop
  endfacet
  facet normal 0 -1 0
    outer loop
      vertex 30.640436980360978 0 32.05688978697394
      vertex 31.928886912197918 0 32.25
      vertex 14.090990257669732 0 31.59099025766973
    endloop
  endfacet
  facet normal 0 1 0
    outer loop
      vertex 14.090990257669732 3 31.59099025766973
      vertex 35.25 3 30
      vertex 35.56654208159855 3 29.235799813542986
    endloop
  endfacet
  facet normal 0 1 0
    outer loop
      vertex 35.25 3 30
      vertex 14.090990257669732 3 31.59099025766973
      vertex 35.90900974233027 3 31.59099025766973
    endloop
  endfacet
  facet normal 0 1 0
    outer loop
      vertex 35.90900974233027 3 31.59099025766973
      vertex 12.5 3 32.25
      vertex 37.5 3 32.25
    endloop
  endfacet
  facet normal 0 1 0
    outer loop
      vertex 37.5 3 32.25
      vertex 12.5 3 32.25
      vertex 38.775334566891864 3 33.04070743147295
    endloop
  endfacet
  facet normal 0 -1 0
    outer loop
      vertex 50 0 40
      vertex 12.5 0 32.25
      vertex 31.928886912197918 0 32.25
    endloop
  endfacet
  facet normal 0 0 1
    outer loop
      vertex 0 3 40
      vertex 50 0 40
      vertex 50 3 40
    endloop
  endfacet
  facet normal 0 1 0
    outer loop
      vertex 50 3 40
      vertex 38.775334566891864 3 33.04070743147295
      vertex 12.5 3 32.25
    endloop
  endfacet
  facet normal 0 -1 0
    outer loop
      vertex 50 0 40
      vertex 42.2606884268916 0 29.09306836906901
      vertex 50 0 3
    endloop
  endfacet
  facet normal 0 1 0
    outer loop
      vertex 50 3 40
      vertex 50 3 3
      vertex 43.01504469786409 3 30.15617484761545
    endloop
  endfacet
  facet normal 1 0 0
    outer loop
      vertex 50 3 40
      vertex 50 0 40
      vertex 50 2.775 3
    endloop
  endfacet
  facet normal 0 -1 0
    outer loop
      vertex 39.18998742925127 0 31.351989943401012
      vertex 40.225515463917525 0 30.463917525773198
      vertex 39.09099025766973 0 31.59099025766973
    endloop
  endfacet
  facet normal 0 -1 0
    outer loop
      vertex 50 0 40
      vertex 31.928886912197918 0 32.25
      vertex 37.5 0 32.25
    endloop
  endfacet
  facet normal 0 -1 0
    outer loop
      vertex 50 0 40
      vertex 40.225515463917525 0 30.463917525773198
      vertex 40.04838753497032 0 29.846840982150177
    endloop
  endfacet
  facet normal 0 -1 0
    outer loop
      vertex 50 0 40
      vertex 37.5 0 32.25
      vertex 39.09099025766973 0 31.59099025766973
    endloop
  endfacet
  facet normal 0 -1 0
    outer loop
      vertex 50 0 40
      vertex 39.09099025766973 0 31.59099025766973
      vertex 40.225515463917525 0 30.463917525773198
    endloop
  endfacet
  facet normal 0 1 0
    outer loop
      vertex 50 3 40
      vertex 40.4610548264178 3 32.64707936001231
      vertex 38.775334566891864 3 33.04070743147295
    endloop
  endfacet
  facet normal 0 -1 0
    outer loop
      vertex 50 0 40
      vertex 40.04838753497032 0 29.846840982150177
      vertex 41.27823144330178 0 29.491348068500443
    endloop
  endfacet
  facet normal 0 -1 0
    outer loop
      vertex 50 0 40
      vertex 41.27823144330178 0 29.491348068500443
      vertex 42.2606884268916 0 29.09306836906901
    endloop
  endfacet
  facet normal 0 1 0
    outer loop
      vertex 50 3 40
      vertex 43.01504469786409 3 30.15617484761545
      vertex 42.22455636597015 3 30.631552507746637
    endloop
  endfacet
  facet normal 0 1 0
    outer loop
      vertex 50 3 40
      vertex 41.39870516326202 3 31.608492842206854
      vertex 40.4610548264178 3 32.64707936001231
    endloop
  endfacet
  facet normal 0 1 0
    outer loop
      vertex 50 3 40
      vertex 42.22455636597015 3 30.631552507746637
      vertex 41.39870516326202 3 31.608492842206854
    endloop
  endfacet
  facet normal 0.9238795325112866 0.38268343236508984 0
    outer loop
      vertex 10.25 30 1.5
      vertex 10.25 30 3
      vertex 10.909009742330268 28.40900974233027 1.5
    endloop
  endfacet
  facet normal 0.3826834323650904 0.9238795325112866 0
    outer loop
      vertex 10.909009742330268 28.40900974233027 1.5
      vertex 10.909009742330268 28.40900974233027 3
      vertex 12.5 27.75 1.5
    endloop
  endfacet
  facet normal 0.9238795325112866 0.38268343236508984 0
    outer loop
      vertex 10.909009742330268 28.40900974233027 3
      vertex 10.909009742330268 28.40900974233027 1.5
      vertex 10.25 30 3
    endloop
  endfacet
  facet normal 0.3826834323650904 0.9238795325112866 0
    outer loop
      vertex 12.5 27.75 1.5
      vertex 10.909009742330268 28.40900974233027 3
      vertex 12.5 27.75 3
    endloop
  endfacet
  facet normal 0.9238795325112866 -0.38268343236508984 0
    outer loop
      vertex 10.909009742330268 31.59099025766973 1.5
      vertex 10.909009742330268 31.59099025766973 3
      vertex 10.25 30 1.5
    endloop
  endfacet
  facet normal 0.3826834323650904 -0.9238795325112866 0
    outer loop
      vertex 12.5 32.25 1.5
      vertex 12.5 32.25 3
      vertex 10.909009742330268 31.59099025766973 1.5
    endloop
  endfacet
  facet normal 0.9238795325112866 -0.38268343236508984 0
    outer loop
      vertex 10.25 30 3
      vertex 10.25 30 1.5
      vertex 10.909009742330268 31.59099025766973 3
    endloop
  endfacet
  facet normal 0.3826834323650904 -0.9238795325112866 0
    outer loop
      vertex 10.909009742330268 31.59099025766973 3
      vertex 10.909009742330268 31.59099025766973 1.5
      vertex 12.5 32.25 3
    endloop
  endfacet
  facet normal -0.3826834323650904 0.9238795325112866 0
    outer loop
      vertex 14.090990257669732 28.40900974233027 1.5
      vertex 12.5 27.75 1.5
      vertex 12.5 27.75 3
    endloop
  endfacet
  facet normal -0.9238795325112866 0.38268343236508984 0
    outer loop
      vertex 14.75 30 1.5
      vertex 14.090990257669732 28.40900974233027 1.5
      vertex 14.090990257669732 28.40900974233027 3
    endloop
  endfacet
  facet normal -0.3826834323650904 0.9238795325112866 0
    outer loop
      vertex 14.090990257669732 28.40900974233027 1.5
      vertex 12.5 27.75 3
      vertex 14.090990257669732 28.40900974233027 3
    endloop
  endfacet
  facet normal -0.9238795325112866 0.38268343236508984 0
    outer loop
      vertex 14.75 30 1.5
      vertex 14.090990257669732 28.40900974233027 3
      vertex 14.75 30 3
    endloop
  endfacet
  facet normal -0.3826834323650904 -0.9238795325112866 0
    outer loop
      vertex 14.090990257669732 31.59099025766973 1.5
      vertex 14.090990257669732 31.59099025766973 3
      vertex 12.5 32.25 1.5
    endloop
  endfacet
  facet normal -0.9238795325112866 -0.38268343236508984 0
    outer loop
      vertex 14.75 30 1.5
      vertex 14.75 30 3
      vertex 14.090990257669732 31.59099025766973 1.5
    endloop
  endfacet
  facet normal -0.3826834323650904 -0.9238795325112866 0
    outer loop
      vertex 12.5 32.25 3
      vertex 12.5 32.25 1.5
      vertex 14.090990257669732 31.59099025766973 3
    endloop
  endfacet
  facet normal -0.9238795325112866 -0.38268343236508984 0
    outer loop
      vertex 14.090990257669732 31.59099025766973 3
      vertex 14.090990257669732 31.59099025766973 1.5
      vertex 14.75 30 3
    endloop
  endfacet
  facet normal 0.9238795325112863 0.3826834323650907 0
    outer loop
      vertex 35.25 30 1.5
      vertex 35.25 30 3
      vertex 35.90900974233027 28.40900974233027 1.5
    endloop
  endfacet
  facet normal 0.3826834323650907 0.9238795325112863 0
    outer loop
      vertex 35.90900974233027 28.40900974233027 1.5
      vertex 35.90900974233027 28.40900974233027 3
      vertex 37.5 27.75 1.5
    endloop
  endfacet
  facet normal 0.9238795325112863 0.3826834323650907 0
    outer loop
      vertex 35.90900974233027 28.40900974233027 3
      vertex 35.90900974233027 28.40900974233027 1.5
      vertex 35.25 30 3
    endloop
  endfacet
  facet normal 0.3826834323650907 0.9238795325112863 0
    outer loop
      vertex 37.5 27.75 1.5
      vertex 35.90900974233027 28.40900974233027 3
      vertex 37.5 27.75 3
    endloop
  endfacet
  facet normal 0.9238795325112863 -0.3826834323650907 0
    outer loop
      vertex 35.90900974233027 31.59099025766973 1.5
      vertex 35.90900974233027 31.59099025766973 3
      vertex 35.25 30 1.5
    endloop
  endfacet
  facet normal 0.3826834323650907 -0.9238795325112863 0
    outer loop
      vertex 37.5 32.25 1.5
      vertex 37.5 32.25 3
      vertex 35.90900974233027 31.59099025766973 1.5
    endloop
  endfacet
  facet normal 0.9238795325112863 -0.3826834323650907 0
    outer loop
      vertex 35.25 30 3
      vertex 35.25 30 1.5
      vertex 35.90900974233027 31.59099025766973 3
    endloop
  endfacet
  facet normal 0.3826834323650907 -0.9238795325112863 0
    outer loop
      vertex 35.90900974233027 31.59099025766973 3
      vertex 35.90900974233027 31.59099025766973 1.5
      vertex 37.5 32.25 3
    endloop
  endfacet
  facet normal -0.3826834323650907 0.9238795325112863 0
    outer loop
      vertex 37.5 27.75 1.5
      vertex 37.5 27.75 3
      vertex 39.09099025766973 28.40900974233027 1.5
    endloop
  endfacet
  facet normal -0.9238795325112863 0.3826834323650907 0
    outer loop
      vertex 39.09099025766973 28.40900974233027 1.5
      vertex 39.09099025766973 28.40900974233027 3
      vertex 39.75 30 1.5
    endloop
  endfacet
  facet normal -0.3826834323650907 0.9238795325112863 0
    outer loop
      vertex 39.09099025766973 28.40900974233027 1.5
      vertex 37.5 27.75 3
      vertex 39.09099025766973 28.40900974233027 3
    endloop
  endfacet
  facet normal -0.9238795325112863 0.3826834323650907 0
    outer loop
      vertex 39.75 30 1.5
      vertex 39.09099025766973 28.40900974233027 3
      vertex 39.75 30 3
    endloop
  endfacet
  facet normal -0.3826834323650907 -0.9238795325112863 0
    outer loop
      vertex 39.09099025766973 31.59099025766973 1.5
      vertex 39.09099025766973 31.59099025766973 3
      vertex 37.5 32.25 1.5
    endloop
  endfacet
  facet normal -0.9238795325112863 -0.3826834323650907 0
    outer loop
      vertex 39.75 30 1.5
      vertex 39.75 30 3
      vertex 39.09099025766973 31.59099025766973 1.5
    endloop
  endfacet
  facet normal -0.3826834323650907 -0.9238795325112863 0
    outer loop
      vertex 37.5 32.25 3
      vertex 37.5 32.25 1.5
      vertex 39.09099025766973 31.59099025766973 3
    endloop
  endfacet
  facet normal -0.9238795325112863 -0.3826834323650907 0
    outer loop
      vertex 39.09099025766973 31.59099025766973 3
      vertex 39.09099025766973 31.59099025766973 1.5
      vertex 39.75 30 3
    endloop
  endfacet
  facet normal 0.7620994673203431 0 0.64745996162701
    outer loop
      vertex 8.616232730295792 29.04273734284977 1.5
      vertex 9.890593865667485 29.356839152227188 0
      vertex 8.616232730295792 30.95726265715023 1.5
    endloop
  endfacet
  facet normal 0.43292184088727925 0.6271955658107927 0.6474599616270098
    outer loop
      vertex 11.081580451829858 26.25993502925834 1.5
      vertex 11.546999366073186 27.487143847782946 0
      vertex 9.505957007315596 27.347509367036817 1.5
    endloop
  endfacet
  facet normal 0.09186093981514461 0.7565429041543047 0.6474599616270097
    outer loop
      vertex 12.82394232818618 27.332094900861478 0
      vertex 11.546999366073186 27.487143847782946 0
      vertex 11.081580451829858 26.25993502925834 1.5
    endloop
  endfacet
  facet normal 0 0 -1
    outer loop
      vertex 12.5 27.75 1.5
      vertex 12.98214672102129 26.029164503607785 1.5
      vertex 11.081580451829858 26.25993502925834 1.5
    endloop
  endfacet
  facet normal 0.6748055654858994 0.3541652818659759 0.64745996162701
    outer loop
      vertex 9.505957007315596 27.347509367036817 1.5
      vertex 10.488377364290166 28.21785785597786 0
      vertex 8.616232730295792 29.04273734284977 1.5
    endloop
  endfacet
  facet normal 0 0 -1
    outer loop
      vertex 10.25 30 1.5
      vertex 11.081580451829858 26.25993502925834 1.5
      vertex 9.505957007315596 32.65249063296318 1.5
    endloop
  endfacet
  facet normal 0 0 -1
    outer loop
      vertex 9.505957007315596 27.347509367036817 1.5
      vertex 8.616232730295792 30.95726265715023 1.5
      vertex 9.505957007315596 32.65249063296318 1.5
    endloop
  endfacet
  facet normal 0.6748055654858992 -0.3541652818659765 0.6474599616270099
    outer loop
      vertex 8.616232730295792 30.95726265715023 1.5
      vertex 9.890593865667485 30.643160847772812 0
      vertex 9.505957007315596 32.65249063296318 1.5
    endloop
  endfacet
  facet normal 0.7620994673203431 0 0.64745996162701
    outer loop
      vertex 8.616232730295792 30.95726265715023 1.5
      vertex 9.890593865667485 29.356839152227188 0
      vertex 9.890593865667485 30.643160847772812 0
    endloop
  endfacet
  facet normal 0.6748055654858989 -0.35416528186597673 0.6474599616270101
    outer loop
      vertex 9.505957007315596 32.65249063296318 1.5
      vertex 9.890593865667485 30.643160847772812 0
      vertex 10.488377364290166 31.782142144022135 0
    endloop
  endfacet
  facet normal 0.43292184088727903 -0.6271955658107924 0.64745996162701
    outer loop
      vertex 9.505957007315596 32.65249063296318 1.5
      vertex 10.488377364290166 31.782142144022135 0
      vertex 11.081580451829858 33.740064970741656 1.5
    endloop
  endfacet
  facet normal 0.4329218408872818 -0.6271955658107922 0.6474599616270086
    outer loop
      vertex 11.081580451829858 33.740064970741656 1.5
      vertex 10.488377364290166 31.782142144022135 0
      vertex 11.546999366073186 32.512856152217054 0
    endloop
  endfacet
  facet normal 0.09186093981514673 -0.7565429041543053 0.647459961627009
    outer loop
      vertex 11.081580451829858 33.740064970741656 1.5
      vertex 11.546999366073186 32.512856152217054 0
      vertex 12.982146721021293 33.97083549639222 1.5
    endloop
  endfacet
  facet normal 0 0 -1
    outer loop
      vertex 11.081580451829858 33.740064970741656 1.5
      vertex 12.5 32.25 1.5
      vertex 10.909009742330268 31.59099025766973 1.5
    endloop
  endfacet
  facet normal -0.2702441955243081 0.7125753804864237 0.6474599616270093
    outer loop
      vertex 12.98214672102129 26.029164503607785 1.5
      vertex 14.026674006839983 27.7882308604108 0
      vertex 12.82394232818618 27.332094900861478 0
    endloop
  endfacet
  facet normal 0 0 -1
    outer loop
      vertex 14.090990257669732 28.40900974233027 1.5
      vertex 14.772258986924625 26.708064536425375 1.5
      vertex 12.98214672102129 26.029164503607785 1.5
    endloop
  endfacet
  facet normal -0.5704396424647482 0.5053654246133594 0.6474599616270098
    outer loop
      vertex 14.772258986924625 26.708064536425375 1.5
      vertex 14.879663068943001 28.751056475132373 0
      vertex 14.026674006839983 27.7882308604108 0
    endloop
  endfacet
  facet normal -0.73995424185944 0.1823823402749619 0.64745996162701
    outer loop
      vertex 15.1875 30 0
      vertex 16.04182410261284 28.141107311824925 1.5
      vertex 16.5 30 1.5
    endloop
  endfacet
  facet normal -0.73995424185944 -0.18238234027496203 0.64745996162701
    outer loop
      vertex 16.5 30 1.5
      vertex 14.879663068943001 31.248943524867627 0
      vertex 15.1875 30 0
    endloop
  endfacet
  facet normal 0 0 -1
    outer loop
      vertex 14.772258986924625 26.708064536425375 1.5
      vertex 14.75 30 1.5
      vertex 14.772258986924623 33.291935463574625 1.5
    endloop
  endfacet
  facet normal -0.5704396424647474 -0.5053654246133598 0.6474599616270102
    outer loop
      vertex 16.04182410261284 31.858892688175075 1.5
      vertex 14.026674006839981 32.2117691395892 0
      vertex 14.879663068943001 31.248943524867627 0
    endloop
  endfacet
  facet normal -0.5704396424647473 -0.5053654246133604 0.64745996162701
    outer loop
      vertex 16.04182410261284 31.858892688175075 1.5
      vertex 14.772258986924623 33.291935463574625 1.5
      vertex 14.026674006839981 32.2117691395892 0
    endloop
  endfacet
  facet normal -0.27024419552430845 -0.7125753804864225 0.6474599616270101
    outer loop
      vertex 14.772258986924623 33.291935463574625 1.5
      vertex 12.823942328186181 32.66790509913852 0
      vertex 14.026674006839981 32.2117691395892 0
    endloop
  endfacet
  facet normal -0.27024419552430834 -0.7125753804864227 0.64745996162701
    outer loop
      vertex 12.982146721021293 33.97083549639222 1.5
      vertex 12.823942328186181 32.66790509913852 0
      vertex 14.772258986924623 33.291935463574625 1.5
    endloop
  endfacet
  facet normal 0 0 -1
    outer loop
      vertex 14.772258986924623 33.291935463574625 1.5
      vertex 12.5 32.25 1.5
      vertex 12.982146721021293 33.97083549639222 1.5
    endloop
  endfacet
  facet normal -0.73995424185944 -0.18238234027496186 0.6474599616270101
    outer loop
      vertex 16.04182410261284 31.858892688175075 1.5
      vertex 14.879663068943001 31.248943524867627 0
      vertex 16.5 30 1.5
    endloop
  endfacet
  facet normal 0 0 -1
    outer loop
      vertex 16.04182410261284 28.141107311824925 1.5
      vertex 16.04182410261284 31.858892688175075 1.5
      vertex 16.5 30 1.5
    endloop
  endfacet
  facet normal 0.7620994673203435 0 0.6474599616270095
    outer loop
      vertex 33.61623273029579 29.04273734284977 1.5
      vertex 34.89059386566748 29.356839152227188 0
      vertex 33.61623273029579 30.95726265715023 1.5
    endloop
  endfacet
  facet normal 0.43292184088727875 0.6271955658107927 0.64745996162701
    outer loop
      vertex 36.54699936607319 27.487143847782946 0
      vertex 34.505957007315594 27.347509367036817 1.5
      vertex 36.08158045182986 26.25993502925834 1.5
    endloop
  endfacet
  facet normal 0 0 -1
    outer loop
      vertex 37.5 27.75 1.5
      vertex 37.982146721021294 26.029164503607785 1.5
      vertex 36.08158045182986 26.25993502925834 1.5
    endloop
  endfacet
  facet normal 0.6748055654858994 0.3541652818659752 0.6474599616270105
    outer loop
      vertex 34.505957007315594 27.347509367036817 1.5
      vertex 35.488377364290166 28.21785785597786 0
      vertex 33.61623273029579 29.04273734284977 1.5
    endloop
  endfacet
  facet normal 0.43292184088727903 0.6271955658107922 0.6474599616270104
    outer loop
      vertex 35.488377364290166 28.21785785597786 0
      vertex 34.505957007315594 27.347509367036817 1.5
      vertex 36.54699936607319 27.487143847782946 0
    endloop
  endfacet
  facet normal 0 0 -1
    outer loop
      vertex 35.25 30 1.5
      vertex 36.08158045182986 26.25993502925834 1.5
      vertex 34.505957007315594 32.65249063296318 1.5
    endloop
  endfacet
  facet normal 0.6748055654858998 -0.3541652818659761 0.6474599616270096
    outer loop
      vertex 33.61623273029579 30.95726265715023 1.5
      vertex 34.89059386566748 30.643160847772812 0
      vertex 34.505957007315594 32.65249063296318 1.5
    endloop
  endfacet
  facet normal 0.7620994673203435 0 0.6474599616270096
    outer loop
      vertex 33.61623273029579 30.95726265715023 1.5
      vertex 34.89059386566748 29.356839152227188 0
      vertex 34.89059386566748 30.643160847772812 0
    endloop
  endfacet
  facet normal 0.674805565485898 -0.35416528186597734 0.6474599616270108
    outer loop
      vertex 34.505957007315594 32.65249063296318 1.5
      vertex 34.89059386566748 30.643160847772812 0
      vertex 35.488377364290166 31.782142144022135 0
    endloop
  endfacet
  facet normal 0.43292184088727864 -0.6271955658107925 0.6474599616270104
    outer loop
      vertex 34.505957007315594 32.65249063296318 1.5
      vertex 35.488377364290166 31.782142144022135 0
      vertex 36.08158045182986 33.740064970741656 1.5
    endloop
  endfacet
  facet normal 0.43292184088728114 -0.6271955658107922 0.647459961627009
    outer loop
      vertex 36.08158045182986 33.740064970741656 1.5
      vertex 35.488377364290166 31.782142144022135 0
      vertex 36.54699936607319 32.512856152217054 0
    endloop
  endfacet
  facet normal 0.09186093981514663 -0.7565429041543051 0.6474599616270089
    outer loop
      vertex 36.08158045182986 33.740064970741656 1.5
      vertex 36.54699936607319 32.512856152217054 0
      vertex 37.982146721021294 33.97083549639222 1.5
    endloop
  endfacet
  facet normal 0 0 -1
    outer loop
      vertex 36.08158045182986 33.740064970741656 1.5
      vertex 37.5 32.25 1.5
      vertex 35.90900974233027 31.59099025766973 1.5
    endloop
  endfacet
  facet normal -0.27024419552430917 0.7125753804864234 0.6474599616270088
    outer loop
      vertex 37.823942328186185 27.332094900861478 0
      vertex 37.982146721021294 26.029164503607785 1.5
      vertex 39.02667400683998 27.7882308604108 0
    endloop
  endfacet
  facet normal 0 0 -1
    outer loop
      vertex 39.09099025766973 28.40900974233027 1.5
      vertex 39.772258986924626 26.708064536425375 1.5
      vertex 37.982146721021294 26.029164503607785 1.5
    endloop
  endfacet
  facet normal -0.5704396424647474 0.5053654246133598 0.6474599616270102
    outer loop
      vertex 39.02667400683998 27.7882308604108 0
      vertex 39.772258986924626 26.708064536425375 1.5
      vertex 39.879663068943 28.751056475132373 0
    endloop
  endfacet
  facet normal -0.7399542418594403 0.18238234027496053 0.6474599616270102
    outer loop
      vertex 40.1875 30 0
      vertex 41.04182410261284 28.141107311824925 1.5
      vertex 41.5 30 1.5
    endloop
  endfacet
  facet normal -0.7399542418594403 -0.18238234027496103 0.6474599616270102
    outer loop
      vertex 41.5 30 1.5
      vertex 39.879663068943 31.248943524867627 0
      vertex 40.1875 30 0
    endloop
  endfacet
  facet normal 0 0 -1
    outer loop
      vertex 39.772258986924626 26.708064536425375 1.5
      vertex 39.75 30 1.5
      vertex 39.772258986924626 33.291935463574625 1.5
    endloop
  endfacet
  facet normal -0.5704396424647471 -0.5053654246133595 0.6474599616270107
    outer loop
      vertex 41.04182410261284 31.858892688175075 1.5
      vertex 39.02667400683998 32.2117691395892 0
      vertex 39.879663068943 31.248943524867627 0
    endloop
  endfacet
  facet normal -0.570439642464747 -0.5053654246133601 0.6474599616270104
    outer loop
      vertex 41.04182410261284 31.858892688175075 1.5
      vertex 39.772258986924626 33.291935463574625 1.5
      vertex 39.02667400683998 32.2117691395892 0
    endloop
  endfacet
  facet normal -0.2702441955243088 -0.7125753804864222 0.6474599616270102
    outer loop
      vertex 39.772258986924626 33.291935463574625 1.5
      vertex 37.823942328186185 32.66790509913852 0
      vertex 39.02667400683998 32.2117691395892 0
    endloop
  endfacet
  facet normal -0.2702441955243082 -0.712575380486423 0.6474599616270099
    outer loop
      vertex 37.982146721021294 33.97083549639222 1.5
      vertex 37.823942328186185 32.66790509913852 0
      vertex 39.772258986924626 33.291935463574625 1.5
    endloop
  endfacet
  facet normal 0 0 -1
    outer loop
      vertex 39.772258986924626 33.291935463574625 1.5
      vertex 37.5 32.25 1.5
      vertex 37.982146721021294 33.97083549639222 1.5
    endloop
  endfacet
  facet normal -0.73995424185944 -0.18238234027496045 0.6474599616270105
    outer loop
      vertex 41.04182410261284 31.858892688175075 1.5
      vertex 39.879663068943 31.248943524867627 0
      vertex 41.5 30 1.5
    endloop
  endfacet
  facet normal 0 0 -1
    outer loop
      vertex 41.04182410261284 28.141107311824925 1.5
      vertex 41.04182410261284 31.858892688175075 1.5
      vertex 41.5 30 1.5
    endloop
  endfacet
  facet normal 0 0 -1
    outer loop
      vertex 8.616232730295792 29.04273734284977 1.5
      vertex 8.616232730295792 30.95726265715023 1.5
      vertex 9.505957007315596 27.347509367036817 1.5
    endloop
  endfacet
  facet normal 0.09186093981514397 0.7565429041543051 0.6474599616270093
    outer loop
      vertex 12.82394232818618 27.332094900861478 0
      vertex 11.081580451829858 26.25993502925834 1.5
      vertex 12.98214672102129 26.029164503607785 1.5
    endloop
  endfacet
  facet normal 0 0 -1
    outer loop
      vertex 12.5 27.75 1.5
      vertex 11.081580451829858 26.25993502925834 1.5
      vertex 10.909009742330268 28.40900974233027 1.5
    endloop
  endfacet
  facet normal 0.43292184088727953 0.6271955658107919 0.64745996162701
    outer loop
      vertex 9.505957007315596 27.347509367036817 1.5
      vertex 11.546999366073186 27.487143847782946 0
      vertex 10.488377364290166 28.21785785597786 0
    endloop
  endfacet
  facet normal 0 0 -1
    outer loop
      vertex 11.081580451829858 26.25993502925834 1.5
      vertex 10.25 30 1.5
      vertex 10.909009742330268 28.40900974233027 1.5
    endloop
  endfacet
  facet normal 0.6748055654858994 0.3541652818659759 0.64745996162701
    outer loop
      vertex 8.616232730295792 29.04273734284977 1.5
      vertex 10.488377364290166 28.21785785597786 0
      vertex 9.890593865667485 29.356839152227188 0
    endloop
  endfacet
  facet normal 0 0 -1
    outer loop
      vertex 9.505957007315596 27.347509367036817 1.5
      vertex 9.505957007315596 32.65249063296318 1.5
      vertex 11.081580451829858 26.25993502925834 1.5
    endloop
  endfacet
  facet normal 0 0 -1
    outer loop
      vertex 10.25 30 1.5
      vertex 9.505957007315596 32.65249063296318 1.5
      vertex 10.909009742330268 31.59099025766973 1.5
    endloop
  endfacet
  facet normal 0 0 -1
    outer loop
      vertex 11.081580451829858 33.740064970741656 1.5
      vertex 10.909009742330268 31.59099025766973 1.5
      vertex 9.505957007315596 32.65249063296318 1.5
    endloop
  endfacet
  facet normal 0.09186093981514443 -0.7565429041543044 0.6474599616270102
    outer loop
      vertex 12.823942328186181 32.66790509913852 0
      vertex 12.982146721021293 33.97083549639222 1.5
      vertex 11.546999366073186 32.512856152217054 0
    endloop
  endfacet
  facet normal 0 0 -1
    outer loop
      vertex 11.081580451829858 33.740064970741656 1.5
      vertex 12.982146721021293 33.97083549639222 1.5
      vertex 12.5 32.25 1.5
    endloop
  endfacet
  facet normal -0.27024419552430673 0.7125753804864235 0.6474599616270099
    outer loop
      vertex 12.98214672102129 26.029164503607785 1.5
      vertex 14.772258986924625 26.708064536425375 1.5
      vertex 14.026674006839983 27.7882308604108 0
    endloop
  endfacet
  facet normal 0 0 -1
    outer loop
      vertex 14.090990257669732 28.40900974233027 1.5
      vertex 12.98214672102129 26.029164503607785 1.5
      vertex 12.5 27.75 1.5
    endloop
  endfacet
  facet normal -0.5704396424647474 0.5053654246133598 0.6474599616270104
    outer loop
      vertex 14.772258986924625 26.708064536425375 1.5
      vertex 16.04182410261284 28.141107311824925 1.5
      vertex 14.879663068943001 28.751056475132373 0
    endloop
  endfacet
  facet normal 0 0 -1
    outer loop
      vertex 14.772258986924625 26.708064536425375 1.5
      vertex 14.090990257669732 28.40900974233027 1.5
      vertex 14.75 30 1.5
    endloop
  endfacet
  facet normal -0.73995424185944 0.18238234027496203 0.6474599616270101
    outer loop
      vertex 16.04182410261284 28.141107311824925 1.5
      vertex 15.1875 30 0
      vertex 14.879663068943001 28.751056475132373 0
    endloop
  endfacet
  facet normal 0 0 -1
    outer loop
      vertex 16.04182410261284 28.141107311824925 1.5
      vertex 14.772258986924625 26.708064536425375 1.5
      vertex 14.772258986924623 33.291935463574625 1.5
    endloop
  endfacet
  facet normal 0 0 -1
    outer loop
      vertex 14.090990257669732 31.59099025766973 1.5
      vertex 12.5 32.25 1.5
      vertex 14.772258986924623 33.291935463574625 1.5
    endloop
  endfacet
  facet normal 0 0 -1
    outer loop
      vertex 16.04182410261284 28.141107311824925 1.5
      vertex 14.772258986924623 33.291935463574625 1.5
      vertex 16.04182410261284 31.858892688175075 1.5
    endloop
  endfacet
  facet normal 0 0 -1
    outer loop
      vertex 14.75 30 1.5
      vertex 14.090990257669732 31.59099025766973 1.5
      vertex 14.772258986924623 33.291935463574625 1.5
    endloop
  endfacet
  facet normal 0 0 -1
    outer loop
      vertex 33.61623273029579 29.04273734284977 1.5
      vertex 33.61623273029579 30.95726265715023 1.5
      vertex 34.505957007315594 27.347509367036817 1.5
    endloop
  endfacet
  facet normal 0.0918609398151438 0.7565429041543051 0.6474599616270094
    outer loop
      vertex 37.823942328186185 27.332094900861478 0
      vertex 36.08158045182986 26.25993502925834 1.5
      vertex 37.982146721021294 26.029164503607785 1.5
    endloop
  endfacet
  facet normal 0.09186093981514436 0.7565429041543047 0.6474599616270097
    outer loop
      vertex 36.54699936607319 27.487143847782946 0
      vertex 36.08158045182986 26.25993502925834 1.5
      vertex 37.823942328186185 27.332094900861478 0
    endloop
  endfacet
  facet normal 0 0 -1
    outer loop
      vertex 37.5 27.75 1.5
      vertex 36.08158045182986 26.25993502925834 1.5
      vertex 35.90900974233027 28.40900974233027 1.5
    endloop
  endfacet
  facet normal 0 0 -1
    outer loop
      vertex 36.08158045182986 26.25993502925834 1.5
      vertex 35.25 30 1.5
      vertex 35.90900974233027 28.40900974233027 1.5
    endloop
  endfacet
  facet normal 0.6748055654858994 0.35416528186597696 0.6474599616270095
    outer loop
      vertex 33.61623273029579 29.04273734284977 1.5
      vertex 35.488377364290166 28.21785785597786 0
      vertex 34.89059386566748 29.356839152227188 0
    endloop
  endfacet
  facet normal 0 0 -1
    outer loop
      vertex 34.505957007315594 27.347509367036817 1.5
      vertex 34.505957007315594 32.65249063296318 1.5
      vertex 36.08158045182986 26.25993502925834 1.5
    endloop
  endfacet
  facet normal 0 0 -1
    outer loop
      vertex 33.61623273029579 30.95726265715023 1.5
      vertex 34.505957007315594 32.65249063296318 1.5
      vertex 34.505957007315594 27.347509367036817 1.5
    endloop
  endfacet
  facet normal 0 0 -1
    outer loop
      vertex 35.25 30 1.5
      vertex 34.505957007315594 32.65249063296318 1.5
      vertex 35.90900974233027 31.59099025766973 1.5
    endloop
  endfacet
  facet normal 0 0 -1
    outer loop
      vertex 36.08158045182986 33.740064970741656 1.5
      vertex 35.90900974233027 31.59099025766973 1.5
      vertex 34.505957007315594 32.65249063296318 1.5
    endloop
  endfacet
  facet normal 0.09186093981514429 -0.7565429041543043 0.6474599616270102
    outer loop
      vertex 37.823942328186185 32.66790509913852 0
      vertex 37.982146721021294 33.97083549639222 1.5
      vertex 36.54699936607319 32.512856152217054 0
    endloop
  endfacet
  facet normal 0 0 -1
    outer loop
      vertex 36.08158045182986 33.740064970741656 1.5
      vertex 37.982146721021294 33.97083549639222 1.5
      vertex 37.5 32.25 1.5
    endloop
  endfacet
  facet normal -0.27024419552430684 0.7125753804864231 0.6474599616270101
    outer loop
      vertex 37.982146721021294 26.029164503607785 1.5
      vertex 39.772258986924626 26.708064536425375 1.5
      vertex 39.02667400683998 27.7882308604108 0
    endloop
  endfacet
  facet normal 0 0 -1
    outer loop
      vertex 39.09099025766973 28.40900974233027 1.5
      vertex 37.982146721021294 26.029164503607785 1.5
      vertex 37.5 27.75 1.5
    endloop
  endfacet
  facet normal -0.5704396424647469 0.50536542461336 0.6474599616270107
    outer loop
      vertex 39.772258986924626 26.708064536425375 1.5
      vertex 41.04182410261284 28.141107311824925 1.5
      vertex 39.879663068943 28.751056475132373 0
    endloop
  endfacet
  facet normal 0 0 -1
    outer loop
      vertex 39.09099025766973 28.40900974233027 1.5
      vertex 39.75 30 1.5
      vertex 39.772258986924626 26.708064536425375 1.5
    endloop
  endfacet
  facet normal -0.7399542418594398 0.18238234027496095 0.6474599616270105
    outer loop
      vertex 41.04182410261284 28.141107311824925 1.5
      vertex 40.1875 30 0
      vertex 39.879663068943 28.751056475132373 0
    endloop
  endfacet
  facet normal 0 0 -1
    outer loop
      vertex 41.04182410261284 28.141107311824925 1.5
      vertex 39.772258986924626 26.708064536425375 1.5
      vertex 39.772258986924626 33.291935463574625 1.5
    endloop
  endfacet
  facet normal 0 0 -1
    outer loop
      vertex 39.09099025766973 31.59099025766973 1.5
      vertex 37.5 32.25 1.5
      vertex 39.772258986924626 33.291935463574625 1.5
    endloop
  endfacet
  facet normal 0 0 -1
    outer loop
      vertex 41.04182410261284 28.141107311824925 1.5
      vertex 39.772258986924626 33.291935463574625 1.5
      vertex 41.04182410261284 31.858892688175075 1.5
    endloop
  endfacet
  facet normal 0 0 -1
    outer loop
      vertex 39.09099025766973 31.59099025766973 1.5
      vertex 39.772258986924626 33.291935463574625 1.5
      vertex 39.75 30 1.5
    endloop
  endfacet
  facet normal 0.9238795325112861 9.219716274368481e-16 0.3826834323650915
    outer loop
      vertex 10.25 0 30
      vertex 10.566542081598545 0 29.235799813542986
      vertex 10.457106781186548 0.6915036704716391 29.5
    endloop
  endfacet
  facet normal 0.9238795325112865 0 0.3826834323650904
    outer loop
      vertex 10.25 3 30
      vertex 10.457106781186548 0.6915036704716391 29.5
      vertex 10.457106781186548 2.308496329528361 29.5
    endloop
  endfacet
  facet normal 0.9238795325112866 0 -0.38268343236508984
    outer loop
      vertex 10.909009742330268 0 31.59099025766973
      vertex 10.25 0 30
      vertex 10.25 3 30
    endloop
  endfacet
  facet normal -0.9238795325112865 0 0.3826834323650904
    outer loop
      vertex 14.542893218813452 2.3402652418309793 29.5
      vertex 14.75 0 30
      vertex 14.75 3 30
    endloop
  endfacet
  facet normal -0.9238795325112866 0 -0.38268343236508984
    outer loop
      vertex 14.75 0 30
      vertex 14.090990257669732 0 31.59099025766973
      vertex 14.090990257669732 3 31.59099025766973
    endloop
  endfacet
  facet normal -0.9238795325112866 0 -0.38268343236508984
    outer loop
      vertex 14.090990257669732 3 31.59099025766973
      vertex 14.75 3 30
      vertex 14.75 0 30
    endloop
  endfacet
  facet normal 0.9238795325112865 0 0.3826834323650904
    outer loop
      vertex 10.25 0 30
      vertex 10.457106781186548 0.6915036704716391 29.5
      vertex 10.25 3 30
    endloop
  endfacet
  facet normal 0.9238795325112861 -9.219716274368481e-16 0.3826834323650915
    outer loop
      vertex 10.566542081598545 3 29.235799813542986
      vertex 10.25 3 30
      vertex 10.457106781186548 2.308496329528361 29.5
    endloop
  endfacet
  facet normal 0.9238795325112866 0 -0.38268343236508984
    outer loop
      vertex 10.25 3 30
      vertex 10.909009742330268 3 31.59099025766973
      vertex 10.909009742330268 0 31.59099025766973
    endloop
  endfacet
  facet normal 0.3826834323650904 0 -0.9238795325112866
    outer loop
      vertex 12.5 0 32.25
      vertex 10.909009742330268 0 31.59099025766973
      vertex 10.909009742330268 3 31.59099025766973
    endloop
  endfacet
  facet normal 0.3826834323650904 0 -0.9238795325112866
    outer loop
      vertex 10.909009742330268 3 31.59099025766973
      vertex 12.5 3 32.25
      vertex 12.5 0 32.25
    endloop
  endfacet
  facet normal -0.9238795325112868 2.2209696864703783e-16 0.3826834323650898
    outer loop
      vertex 14.421734200814784 0 29.20749625554381
      vertex 14.75 0 30
      vertex 14.525259464784787 0.4370618354625464 29.457428351868444
    endloop
  endfacet
  facet normal -0.9238795325112874 -1.7472556629844214e-15 0.3826834323650885
    outer loop
      vertex 14.75 0 30
      vertex 14.542893218813452 0.6597347581690212 29.5
      vertex 14.525259464784787 0.4370618354625464 29.457428351868444
    endloop
  endfacet
  facet normal -0.9238795325112865 0 0.38268343236509034
    outer loop
      vertex 14.542893218813452 0.6597347581690212 29.5
      vertex 14.75 0 30
      vertex 14.542893218813452 2.3402652418309793 29.5
    endloop
  endfacet
  facet normal -0.9238795325112873 1.7012752508006277e-15 0.3826834323650885
    outer loop
      vertex 14.542893218813452 2.3402652418309793 29.5
      vertex 14.75 3 30
      vertex 14.525259464784787 2.562938164537453 29.457428351868444
    endloop
  endfacet
  facet normal -0.9238795325112868 -2.220969686470375e-16 0.3826834323650898
    outer loop
      vertex 14.421734200814784 3 29.20749625554381
      vertex 14.525259464784787 2.562938164537453 29.457428351868444
      vertex 14.75 3 30
    endloop
  endfacet
  facet normal -0.3826834323650904 0 -0.9238795325112866
    outer loop
      vertex 12.5 0 32.25
      vertex 12.5 3 32.25
      vertex 14.090990257669732 0 31.59099025766973
    endloop
  endfacet
  facet normal -0.3826834323650904 0 -0.9238795325112866
    outer loop
      vertex 12.5 3 32.25
      vertex 14.090990257669732 3 31.59099025766973
      vertex 14.090990257669732 0 31.59099025766973
    endloop
  endfacet
  facet normal 0 0 -1
    outer loop
      vertex 10.457106781186548 0.6915036704716391 29.5
      vertex 10.315380910791383 2.0384602446470046 29.5
      vertex 10.457106781186548 2.308496329528361 29.5
    endloop
  endfacet
  facet normal 0 0 1
    outer loop
      vertex 8.616232730295792 0.5427373428497695 27.5
      vertex 16.5 1.5 27.5
      vertex 8.616232730295792 2.4572626571502303 27.5
    endloop
  endfacet
  facet normal 0 0 1
    outer loop
      vertex 16.130283205452034 3 27.5
      vertex 8.901083261828044 3 27.5
      vertex 8.616232730295792 2.4572626571502303 27.5
    endloop
  endfacet
  facet normal 0 0 1
    outer loop
      vertex 16.130283205452034 3 27.5
      vertex 8.616232730295792 2.4572626571502303 27.5
      vertex 16.5 1.5 27.5
    endloop
  endfacet
  facet normal 0.6748055654858996 0.35416528186597496 -0.6474599616270102
    outer loop
      vertex 8.901083261828042 0 27.5
      vertex 8.616232730295792 0.5427373428497695 27.5
      vertex 10.566542081598545 0 29.235799813542986
    endloop
  endfacet
  facet normal 0.7620994673203431 0 -0.64745996162701
    outer loop
      vertex 8.616232730295792 2.4572626571502303 27.5
      vertex 10.315380910791383 0.9615397553529953 29.5
      vertex 8.616232730295792 0.5427373428497695 27.5
    endloop
  endfacet
  facet normal 0.6748055654858991 -0.3541652818659768 -0.6474599616270099
    outer loop
      vertex 8.616232730295792 2.4572626571502303 27.5
      vertex 8.901083261828044 3 27.5
      vertex 10.457106781186548 2.308496329528361 29.5
    endloop
  endfacet
  facet normal 0.6748055654858996 0.35416528186597496 -0.6474599616270105
    outer loop
      vertex 10.566542081598545 0 29.235799813542986
      vertex 8.616232730295792 0.5427373428497695 27.5
      vertex 10.457106781186548 0.6915036704716391 29.5
    endloop
  endfacet
  facet normal 0.6748055654858989 0.35416528186597723 -0.6474599616270098
    outer loop
      vertex 10.457106781186548 0.6915036704716391 29.5
      vertex 8.616232730295792 0.5427373428497695 27.5
      vertex 10.315380910791383 0.9615397553529953 29.5
    endloop
  endfacet
  facet normal 0 0 -1
    outer loop
      vertex 10.315380910791383 0.9615397553529953 29.5
      vertex 10.315380910791383 2.0384602446470046 29.5
      vertex 10.457106781186548 0.6915036704716391 29.5
    endloop
  endfacet
  facet normal 0.7620994673203431 0 -0.64745996162701
    outer loop
      vertex 10.315380910791383 0.9615397553529953 29.5
      vertex 8.616232730295792 2.4572626571502303 27.5
      vertex 10.315380910791383 2.0384602446470046 29.5
    endloop
  endfacet
  facet normal 0.6748055654858991 -0.35416528186597723 -0.6474599616270099
    outer loop
      vertex 10.315380910791383 2.0384602446470046 29.5
      vertex 8.616232730295792 2.4572626571502303 27.5
      vertex 10.457106781186548 2.308496329528361 29.5
    endloop
  endfacet
  facet normal 0 0 1
    outer loop
      vertex 8.616232730295792 0.5427373428497695 27.5
      vertex 8.901083261828042 0 27.5
      vertex 16.5 1.5 27.5
    endloop
  endfacet
  facet normal 0.6748055654859 -0.3541652818659748 -0.64745996162701
    outer loop
      vertex 10.566542081598545 3 29.235799813542986
      vertex 10.457106781186548 2.308496329528361 29.5
      vertex 8.901083261828044 3 27.5
    endloop
  endfacet
  facet normal 0 0 1
    outer loop
      vertex 16.130283205452034 0 27.5
      vertex 16.5 1.5 27.5
      vertex 8.901083261828042 0 27.5
    endloop
  endfacet
  facet normal -0.7399542418594396 0.18238234027496264 -0.6474599616270104
    outer loop
      vertex 14.542893218813452 0.6597347581690212 29.5
      vertex 16.130283205452034 0 27.5
      vertex 15.358011216954603 0 28.382596558282778
    endloop
  endfacet
  facet normal -0.5704396424647488 0.505365424613358 -0.6474599616270106
    outer loop
      vertex 14.421734200814784 0 29.20749625554381
      vertex 14.525259464784787 0.4370618354625464 29.457428351868444
      vertex 15.358011216954603 0 28.382596558282778
    endloop
  endfacet
  facet normal -0.7399542418594394 0.1823823402749628 -0.6474599616270104
    outer loop
      vertex 14.542893218813452 0.6597347581690212 29.5
      vertex 15.358011216954603 0 28.382596558282778
      vertex 14.525259464784787 0.4370618354625464 29.457428351868444
    endloop
  endfacet
  facet normal -0.73995424185944 0.1823823402749622 -0.64745996162701
    outer loop
      vertex 14.75 1.5 29.5
      vertex 16.5 1.5 27.5
      vertex 14.542893218813452 0.6597347581690212 29.5
    endloop
  endfacet
  facet normal -0.73995424185944 -0.18238234027496256 -0.6474599616270099
    outer loop
      vertex 16.5 1.5 27.5
      vertex 14.525259464784787 2.562938164537453 29.457428351868444
      vertex 15.358011216954605 3 28.382596558282774
    endloop
  endfacet
  facet normal 0 0 -1
    outer loop
      vertex 14.75 1.5 29.5
      vertex 14.542893218813452 0.6597347581690212 29.5
      vertex 14.542893218813452 2.3402652418309793 29.5
    endloop
  endfacet
  facet normal -0.7399542418594443 -0.18238234027496314 -0.6474599616270049
    outer loop
      vertex 14.75 1.5 29.5
      vertex 14.542893218813452 2.3402652418309793 29.5
      vertex 14.525259464784787 2.562938164537453 29.457428351868444
    endloop
  endfacet
  facet normal -0.7399542418594399 -0.18238234027496245 -0.6474599616270099
    outer loop
      vertex 16.5 1.5 27.5
      vertex 14.75 1.5 29.5
      vertex 14.525259464784787 2.562938164537453 29.457428351868444
    endloop
  endfacet
  facet normal -0.5704396424647499 -0.5053654246133573 -0.6474599616270102
    outer loop
      vertex 14.421734200814784 3 29.20749625554381
      vertex 15.358011216954605 3 28.382596558282774
      vertex 14.525259464784787 2.562938164537453 29.457428351868444
    endloop
  endfacet
  facet normal -0.7399542418594399 0.18238234027496145 -0.6474599616270102
    outer loop
      vertex 16.130283205452034 0 27.5
      vertex 14.542893218813452 0.6597347581690212 29.5
      vertex 16.5 1.5 27.5
    endloop
  endfacet
  facet normal -0.7399542418594393 -0.18238234027496128 -0.6474599616270112
    outer loop
      vertex 16.130283205452034 3 27.5
      vertex 16.5 1.5 27.5
      vertex 15.358011216954605 3 28.382596558282774
    endloop
  endfacet
endsolid OpenSCAD_Model
