solid OpenSCAD_Model
  facet normal -1 0 0
    outer loop
      vertex 0 0 0
      vertex 0 0 10
      vertex 0 40 10
    endloop
  endfacet
  facet normal 0 -1 0
    outer loop
      vertex 0 0 0
      vertex 40 0 10
      vertex 0 0 10
    endloop
  endfacet
  facet normal -1 0 0
    outer loop
      vertex 0 0 0
      vertex 0 40 10
      vertex 0 60 10
    endloop
  endfacet
  facet normal -1 0 0
    outer loop
      vertex 0 0 0
      vertex 0 60 10
      vertex 0 60 0
    endloop
  endfacet
  facet normal 0 0 1
    outer loop
      vertex 0 60 10
      vertex 0 40 10
      vertex 40 40 10
    endloop
  endfacet
  facet normal 0 0 -1
    outer loop
      vertex 0 0 0
      vertex 0 60 0
      vertex 60 60 0
    endloop
  endfacet
  facet normal 0 1 0
    outer loop
      vertex 0 60 0
      vertex 0 60 10
      vertex 60 60 0
    endloop
  endfacet
  facet normal 0 -1 0
    outer loop
      vertex 0 0 0
      vertex 60 0 10
      vertex 40 0 10
    endloop
  endfacet
  facet normal 0 -1 0
    outer loop
      vertex 0 0 0
      vertex 60 0 0
      vertex 60 0 10
    endloop
  endfacet
  facet normal 0 0 -1
    outer loop
      vertex 0 0 0
      vertex 60 60 0
      vertex 60 0 0
    endloop
  endfacet
  facet normal 0 0 1
    outer loop
      vertex 60 0 10
      vertex 40 40 10
      vertex 40 0 10
    endloop
  endfacet
  facet normal 1 0 0
    outer loop
      vertex 60 0 0
      vertex 60 60 0
      vertex 60 0 10
    endloop
  endfacet
  facet normal 0 1 0
    outer loop
      vertex 0 60 10
      vertex 60 60 10
      vertex 60 60 0
    endloop
  endfacet
  facet normal 0 0 1
    outer loop
      vertex 0 60 10
      vertex 40 40 10
      vertex 60 60 10
    endloop
  endfacet
  facet normal 1 0 0
    outer loop
      vertex 60 0 10
      vertex 60 60 0
      vertex 60 60 10
    endloop
  endfacet
  facet normal 0 0 1
    outer loop
      vertex 60 0 10
      vertex 60 60 10
      vertex 40 40 10
    endloop
  endfacet
  facet normal -1 0 0
    outer loop
      vertex 0 40 10
      vertex 0 0 10
      vertex 0 40 20
    endloop
  endfacet
  facet normal 0 -1 0
    outer loop
      vertex 40 0 20
      vertex 0 0 10
      vertex 40 0 10
    endloop
  endfacet
  facet normal -1 0 0
    outer loop
      vertex 0 0 20
      vertex 0 20 20
      vertex 0 0 10
    endloop
  endfacet
  facet normal 0 -1 0
    outer loop
      vertex 0 0 20
      vertex 0 0 10
      vertex 20 0 20
    endloop
  endfacet
  facet normal -1 0 0
    outer loop
      vertex 0 20 20
      vertex 0 40 20
      vertex 0 0 10
    endloop
  endfacet
  facet normal 0 0 1
    outer loop
      vertex 0 40 20
      vertex 0 20 20
      vertex 20 20 20
    endloop
  endfacet
  facet normal 0 -1 0
    outer loop
      vertex 0 0 10
      vertex 40 0 20
      vertex 20 0 20
    endloop
  endfacet
  facet normal 0 0 1
    outer loop
      vertex 40 0 20
      vertex 20 20 20
      vertex 20 0 20
    endloop
  endfacet
  facet normal 0 1 0
    outer loop
      vertex 0 40 10
      vertex 0 40 20
      vertex 40 40 10
    endloop
  endfacet
  facet normal 0 0 1
    outer loop
      vertex 0 40 20
      vertex 20 20 20
      vertex 40 40 20
    endloop
  endfacet
  facet normal 0 1 0
    outer loop
      vertex 0 40 20
      vertex 40 40 20
      vertex 40 40 10
    endloop
  endfacet
  facet normal 1 0 0
    outer loop
      vertex 40 0 20
      vertex 40 0 10
      vertex 40 40 10
    endloop
  endfacet
  facet normal 0 0 1
    outer loop
      vertex 40 0 20
      vertex 40 40 20
      vertex 20 20 20
    endloop
  endfacet
  facet normal 1 0 0
    outer loop
      vertex 40 0 20
      vertex 40 40 10
      vertex 40 40 20
    endloop
  endfacet
  facet normal -1 0 0
    outer loop
      vertex 0 0 30
      vertex 0 20 30
      vertex 0 0 20
    endloop
  endfacet
  facet normal 0 -1 0
    outer loop
      vertex 0 0 30
      vertex 0 0 20
      vertex 20 0 30
    endloop
  endfacet
  facet normal 0 0 1
    outer loop
      vertex 0 0 30
      vertex 20 0 30
      vertex 0 20 30
    endloop
  endfacet
  facet normal -1 0 0
    outer loop
      vertex 0 20 30
      vertex 0 20 20
      vertex 0 0 20
    endloop
  endfacet
  facet normal 0 -1 0
    outer loop
      vertex 20 0 30
      vertex 0 0 20
      vertex 20 0 20
    endloop
  endfacet
  facet normal 0 0 1
    outer loop
      vertex 0 20 30
      vertex 20 0 30
      vertex 20 20 30
    endloop
  endfacet
  facet normal 0 1 0
    outer loop
      vertex 0 20 20
      vertex 0 20 30
      vertex 20 20 20
    endloop
  endfacet
  facet normal 0 1 0
    outer loop
      vertex 0 20 30
      vertex 20 20 30
      vertex 20 20 20
    endloop
  endfacet
  facet normal 1 0 0
    outer loop
      vertex 20 0 30
      vertex 20 0 20
      vertex 20 20 20
    endloop
  endfacet
  facet normal 1 0 0
    outer loop
      vertex 20 0 30
      vertex 20 20 20
      vertex 20 20 30
    endloop
  endfacet
endsolid OpenSCAD_Model
