solid OpenSCAD_Model
  facet normal 0 0 1
    outer loop
      vertex 0 3 3
      vertex 8.581580451829858 16.25993502925834 3
      vertex 7.005957007315596 17.347509367036817 3
    endloop
  endfacet
  facet normal 0 0 -1
    outer loop
      vertex 0 3 0
      vertex 8.409009742330268 18.40900974233027 0
      vertex 10 17.75 0
    endloop
  endfacet
  facet normal 0 0 -1
    outer loop
      vertex 0 3 0
      vertex 7.75 20 0
      vertex 8.409009742330268 18.40900974233027 0
    endloop
  endfacet
  facet normal 0 0 1
    outer loop
      vertex 0 3 3
      vertex 7.005957007315596 17.347509367036817 3
      vertex 6.116232730295792 19.04273734284977 3
    endloop
  endfacet
  facet normal -1 0 0
    outer loop
      vertex 0 3 0
      vertex 0 3 3
      vertex 0 40 0
    endloop
  endfacet
  facet normal 0 0 1
    outer loop
      vertex 0 3 3
      vertex 10.48214672102129 16.029164503607785 3
      vertex 8.581580451829858 16.25993502925834 3
    endloop
  endfacet
  facet normal 0 0 1
    outer loop
      vertex 0 3 3
      vertex 12.272258986924625 16.708064536425375 3
      vertex 10.48214672102129 16.029164503607785 3
    endloop
  endfacet
  facet normal 0 0 -1
    outer loop
      vertex 0 3 0
      vertex 10 17.75 0
      vertex 11.590990257669732 18.40900974233027 0
    endloop
  endfacet
  facet normal 0 0 1
    outer loop
      vertex 0 3 3
      vertex 50 3 3
      vertex 12.272258986924625 16.708064536425375 3
    endloop
  endfacet
  facet normal 0 0 -1
    outer loop
      vertex 0 0 0
      vertex 0 3 0
      vertex 50 40 0
    endloop
  endfacet
  facet normal 0 0 -1
    outer loop
      vertex 0 3 0
      vertex 0 40 0
      vertex 7.75 20 0
    endloop
  endfacet
  facet normal 0 0 1
    outer loop
      vertex 0 3 3
      vertex 6.116232730295792 19.04273734284977 3
      vertex 0 40 3
    endloop
  endfacet
  facet normal -1 0 0
    outer loop
      vertex 0 3 3
      vertex 0 40 3
      vertex 0 40 0
    endloop
  endfacet
  facet normal 0 0 -1
    outer loop
      vertex 0 40 0
      vertex 8.409009742330268 21.59099025766973 0
      vertex 7.75 20 0
    endloop
  endfacet
  facet normal 0 0 1
    outer loop
      vertex 0 40 3
      vertex 6.116232730295792 19.04273734284977 3
      vertex 6.116232730295792 20.95726265715023 3
    endloop
  endfacet
  facet normal 0 0 -1
    outer loop
      vertex 0 40 0
      vertex 10 22.25 0
      vertex 8.409009742330268 21.59099025766973 0
    endloop
  endfacet
  facet normal 0 0 1
    outer loop
      vertex 0 40 3
      vertex 6.116232730295792 20.95726265715023 3
      vertex 7.005957007315596 22.652490632963183 3
    endloop
  endfacet
  facet normal 0 0 1
    outer loop
      vertex 0 40 3
      vertex 7.005957007315596 22.652490632963183 3
      vertex 8.581580451829858 23.74006497074166 3
    endloop
  endfacet
  facet normal 0 0 1
    outer loop
      vertex 0 40 3
      vertex 8.581580451829858 23.74006497074166 3
      vertex 10.482146721021293 23.970835496392215 3
    endloop
  endfacet
  facet normal 0 0 1
    outer loop
      vertex 0 40 3
      vertex 10.482146721021293 23.970835496392215 3
      vertex 12.272258986924623 23.291935463574625 3
    endloop
  endfacet
  facet normal 0 0 1
    outer loop
      vertex 0 40 3
      vertex 12.272258986924623 23.291935463574625 3
      vertex 13.54182410261284 21.858892688175075 3
    endloop
  endfacet
  facet normal 0 0 -1
    outer loop
      vertex 0 3 0
      vertex 11.590990257669732 18.40900974233027 0
      vertex 50 40 0
    endloop
  endfacet
  facet normal 0 0 1
    outer loop
      vertex 0 40 3
      vertex 13.54182410261284 21.858892688175075 3
      vertex 50 3 3
    endloop
  endfacet
  facet normal 0 0 -1
    outer loop
      vertex 50 40 0
      vertex 11.590990257669732 18.40900974233027 0
      vertex 12.25 20 0
    endloop
  endfacet
  facet normal 0 0 -1
    outer loop
      vertex 50 40 0
      vertex 12.25 20 0
      vertex 11.590990257669732 21.59099025766973 0
    endloop
  endfacet
  facet normal 0 0 1
    outer loop
      vertex 0 40 3
      vertex 37.005957007315594 17.347509367036817 3
      vertex 36.11623273029579 19.04273734284977 3
    endloop
  endfacet
  facet normal 0 0 1
    outer loop
      vertex 0 40 3
      vertex 36.11623273029579 19.04273734284977 3
      vertex 36.11623273029579 20.95726265715023 3
    endloop
  endfacet
  facet normal 0 0 -1
    outer loop
      vertex 50 40 0
      vertex 11.590990257669732 21.59099025766973 0
      vertex 10 22.25 0
    endloop
  endfacet
  facet normal 0 0 1
    outer loop
      vertex 0 40 3
      vertex 36.11623273029579 20.95726265715023 3
      vertex 37.005957007315594 22.652490632963183 3
    endloop
  endfacet
  facet normal 0 1 0
    outer loop
      vertex 0 40 0
      vertex 0 40 3
      vertex 50 40 0
    endloop
  endfacet
  facet normal 0 0 -1
    outer loop
      vertex 0 40 0
      vertex 50 40 0
      vertex 10 22.25 0
    endloop
  endfacet
  facet normal 0 0 -1
    outer loop
      vertex 0 0 0
      vertex 38.40900974233027 18.40900974233027 0
      vertex 50 0 0
    endloop
  endfacet
  facet normal 0 0 -1
    outer loop
      vertex 0 0 0
      vertex 37.75 20 0
      vertex 38.40900974233027 18.40900974233027 0
    endloop
  endfacet
  facet normal 0 0 -1
    outer loop
      vertex 0 0 0
      vertex 38.40900974233027 21.59099025766973 0
      vertex 37.75 20 0
    endloop
  endfacet
  facet normal 0 0 1
    outer loop
      vertex 50 3 3
      vertex 13.54182410261284 18.141107311824925 3
      vertex 12.272258986924625 16.708064536425375 3
    endloop
  endfacet
  facet normal 0 0 1
    outer loop
      vertex 50 3 3
      vertex 14 20 3
      vertex 13.54182410261284 18.141107311824925 3
    endloop
  endfacet
  facet normal 0 0 1
    outer loop
      vertex 50 3 3
      vertex 13.54182410261284 21.858892688175075 3
      vertex 14 20 3
    endloop
  endfacet
  facet normal 0 0 1
    outer loop
      vertex 0 40 3
      vertex 50 3 3
      vertex 38.58158045182986 16.25993502925834 3
    endloop
  endfacet
  facet normal 1 0 0
    outer loop
      vertex 50 0 0
      vertex 50 2.7906976744186047 2.7906976744186047
      vertex 50 0 3
    endloop
  endfacet
  facet normal 1 0 0
    outer loop
      vertex 50 0 3
      vertex 50 2.7906976744186047 2.7906976744186047
      vertex 50 2.5813953488372094 3
    endloop
  endfacet
  facet normal 1 0 0
    outer loop
      vertex 50 2.7906976744186047 2.7906976744186047
      vertex 50 3 3
      vertex 50 2.775 3
    endloop
  endfacet
  facet normal 0 0 -1
    outer loop
      vertex 50 0 0
      vertex 38.40900974233027 18.40900974233027 0
      vertex 40 17.75 0
    endloop
  endfacet
  facet normal 0 0 1
    outer loop
      vertex 50 3 3
      vertex 40.482146721021294 16.029164503607785 3
      vertex 38.58158045182986 16.25993502925834 3
    endloop
  endfacet
  facet normal 0 0 -1
    outer loop
      vertex 50 0 0
      vertex 40 17.75 0
      vertex 41.59099025766973 18.40900974233027 0
    endloop
  endfacet
  facet normal 0 0 1
    outer loop
      vertex 50 3 3
      vertex 42.272258986924626 16.708064536425375 3
      vertex 40.482146721021294 16.029164503607785 3
    endloop
  endfacet
  facet normal 0 0 -1
    outer loop
      vertex 50 0 0
      vertex 41.59099025766973 18.40900974233027 0
      vertex 42.25 20 0
    endloop
  endfacet
  facet normal 0 0 1
    outer loop
      vertex 50 3 3
      vertex 43.54182410261284 18.141107311824925 3
      vertex 42.272258986924626 16.708064536425375 3
    endloop
  endfacet
  facet normal 0 0 1
    outer loop
      vertex 50 3 3
      vertex 44 20 3
      vertex 43.54182410261284 18.141107311824925 3
    endloop
  endfacet
  facet normal 1 0 0
    outer loop
      vertex 50 0 0
      vertex 50 40 0
      vertex 50 2.7906976744186047 2.7906976744186047
    endloop
  endfacet
  facet normal 1 0 0
    outer loop
      vertex 50 2.7906976744186047 2.7906976744186047
      vertex 50 40 3
      vertex 50 3 3
    endloop
  endfacet
  facet normal 0 0 1
    outer loop
      vertex 0 40 3
      vertex 38.58158045182986 16.25993502925834 3
      vertex 37.005957007315594 17.347509367036817 3
    endloop
  endfacet
  facet normal 0 0 -1
    outer loop
      vertex 0 0 0
      vertex 50 40 0
      vertex 38.40900974233027 21.59099025766973 0
    endloop
  endfacet
  facet normal 0 0 1
    outer loop
      vertex 0 40 3
      vertex 37.005957007315594 22.652490632963183 3
      vertex 38.58158045182986 23.74006497074166 3
    endloop
  endfacet
  facet normal 0 0 1
    outer loop
      vertex 0 40 3
      vertex 38.58158045182986 23.74006497074166 3
      vertex 40.482146721021294 23.970835496392215 3
    endloop
  endfacet
  facet normal 0 0 1
    outer loop
      vertex 0 40 3
      vertex 40.482146721021294 23.970835496392215 3
      vertex 50 40 3
    endloop
  endfacet
  facet normal 0 1 0
    outer loop
      vertex 0 40 3
      vertex 50 40 3
      vertex 50 40 0
    endloop
  endfacet
  facet normal 0 0 -1
    outer loop
      vertex 50 40 0
      vertex 40 22.25 0
      vertex 38.40900974233027 21.59099025766973 0
    endloop
  endfacet
  facet normal 0 0 -1
    outer loop
      vertex 50 0 0
      vertex 42.25 20 0
      vertex 50 40 0
    endloop
  endfacet
  facet normal 0 0 1
    outer loop
      vertex 50 3 3
      vertex 50 40 3
      vertex 44 20 3
    endloop
  endfacet
  facet normal 0 0 -1
    outer loop
      vertex 50 40 0
      vertex 42.25 20 0
      vertex 41.59099025766973 21.59099025766973 0
    endloop
  endfacet
  facet normal 0 0 1
    outer loop
      vertex 50 40 3
      vertex 43.54182410261284 21.858892688175075 3
      vertex 44 20 3
    endloop
  endfacet
  facet normal 0 0 -1
    outer loop
      vertex 50 40 0
      vertex 41.59099025766973 21.59099025766973 0
      vertex 40 22.25 0
    endloop
  endfacet
  facet normal 0 0 1
    outer loop
      vertex 50 40 3
      vertex 42.272258986924626 23.291935463574625 3
      vertex 43.54182410261284 21.858892688175075 3
    endloop
  endfacet
  facet normal 0 0 1
    outer loop
      vertex 50 40 3
      vertex 40.482146721021294 23.970835496392215 3
      vertex 42.272258986924626 23.291935463574625 3
    endloop
  endfacet
  facet normal 1 0 0
    outer loop
      vertex 50 2.7906976744186047 2.7906976744186047
      vertex 50 40 0
      vertex 50 40 3
    endloop
  endfacet
  facet normal -1 0 0
    outer loop
      vertex 0 0 0
      vertex 0 3 3
      vertex 0 3 0
    endloop
  endfacet
  facet normal -1 0 0
    outer loop
      vertex 0 0 0
      vertex 0 3 40
      vertex 0 3 3
    endloop
  endfacet
  facet normal 0 1 0
    outer loop
      vertex 0 3 3
      vertex 0 3 40
      vertex 22.005957007315597 3 12.65249063296318
    endloop
  endfacet
  facet normal 0 -1 0
    outer loop
      vertex 0 0 0
      vertex 23.40900974233027 0 8.409009742330268
      vertex 22.75 0 10
    endloop
  endfacet
  facet normal 0 -1 0
    outer loop
      vertex 0 0 0
      vertex 22.75 0 10
      vertex 23.40900974233027 0 11.590990257669732
    endloop
  endfacet
  facet normal 0 1 0
    outer loop
      vertex 0 3 3
      vertex 22.005957007315597 3 7.347509367036819
      vertex 23.581580451829858 3 6.25993502925834
    endloop
  endfacet
  facet normal 0 1 0
    outer loop
      vertex 0 3 3
      vertex 21.116232730295792 3 9.042737342849769
      vertex 22.005957007315597 3 7.347509367036819
    endloop
  endfacet
  facet normal 0 1 0
    outer loop
      vertex 0 3 3
      vertex 21.116232730295792 3 10.957262657150231
      vertex 21.116232730295792 3 9.042737342849769
    endloop
  endfacet
  facet normal 0 1 0
    outer loop
      vertex 0 3 3
      vertex 22.005957007315597 3 12.65249063296318
      vertex 21.116232730295792 3 10.957262657150231
    endloop
  endfacet
  facet normal 0 -1 0
    outer loop
      vertex 0 0 0
      vertex 25 0 7.75
      vertex 23.40900974233027 0 8.409009742330268
    endloop
  endfacet
  facet normal 0 1 0
    outer loop
      vertex 0 3 3
      vertex 23.581580451829858 3 6.25993502925834
      vertex 50 3 3
    endloop
  endfacet
  facet normal 0 -1 0
    outer loop
      vertex 0 0 0
      vertex 25 0 27.75
      vertex 23.40900974233027 0 28.40900974233027
    endloop
  endfacet
  facet normal 0 -1 0
    outer loop
      vertex 0 0 0
      vertex 26.59099025766973 0 28.40900974233027
      vertex 25 0 27.75
    endloop
  endfacet
  facet normal 0 -1 0
    outer loop
      vertex 0 0 0
      vertex 23.40900974233027 0 11.590990257669732
      vertex 50 0 40
    endloop
  endfacet
  facet normal -1 0 0
    outer loop
      vertex 0 0 0
      vertex 0 0 40
      vertex 0 3 40
    endloop
  endfacet
  facet normal 0 -1 0
    outer loop
      vertex 0 0 0
      vertex 23.40900974233027 0 28.40900974233027
      vertex 0 0 40
    endloop
  endfacet
  facet normal 0 1 0
    outer loop
      vertex 0 3 40
      vertex 23.581580451829858 3 13.74006497074166
      vertex 22.005957007315597 3 12.65249063296318
    endloop
  endfacet
  facet normal 0 1 0
    outer loop
      vertex 0 3 40
      vertex 27.272258986924626 3 13.291935463574625
      vertex 25.48214672102129 3 13.970835496392215
    endloop
  endfacet
  facet normal 0 1 0
    outer loop
      vertex 0 3 40
      vertex 25.48214672102129 3 13.970835496392215
      vertex 23.581580451829858 3 13.74006497074166
    endloop
  endfacet
  facet normal 0 1 0
    outer loop
      vertex 0 3 40
      vertex 23.581580451829858 3 26.25993502925834
      vertex 50 3 3
    endloop
  endfacet
  facet normal 0 -1 0
    outer loop
      vertex 0 0 40
      vertex 23.40900974233027 0 28.40900974233027
      vertex 22.75 0 30
    endloop
  endfacet
  facet normal 0 -1 0
    outer loop
      vertex 0 0 40
      vertex 22.75 0 30
      vertex 23.40900974233027 0 31.59099025766973
    endloop
  endfacet
  facet normal 0 1 0
    outer loop
      vertex 0 3 40
      vertex 22.005957007315597 3 27.347509367036817
      vertex 23.581580451829858 3 26.25993502925834
    endloop
  endfacet
  facet normal 0 1 0
    outer loop
      vertex 0 3 40
      vertex 21.116232730295792 3 29.04273734284977
      vertex 22.005957007315597 3 27.347509367036817
    endloop
  endfacet
  facet normal 0 1 0
    outer loop
      vertex 0 3 40
      vertex 21.116232730295792 3 30.95726265715023
      vertex 21.116232730295792 3 29.04273734284977
    endloop
  endfacet
  facet normal 0 1 0
    outer loop
      vertex 0 3 40
      vertex 22.005957007315597 3 32.65249063296318
      vertex 21.116232730295792 3 30.95726265715023
    endloop
  endfacet
  facet normal 0 -1 0
    outer loop
      vertex 0 0 40
      vertex 23.40900974233027 0 31.59099025766973
      vertex 25 0 32.25
    endloop
  endfacet
  facet normal 0 1 0
    outer loop
      vertex 0 3 40
      vertex 23.581580451829858 3 33.740064970741656
      vertex 22.005957007315597 3 32.65249063296318
    endloop
  endfacet
  facet normal 0 0 1
    outer loop
      vertex 0 0 40
      vertex 50 0 40
      vertex 0 3 40
    endloop
  endfacet
  facet normal 0 1 0
    outer loop
      vertex 0 3 40
      vertex 25.48214672102129 3 33.97083549639222
      vertex 23.581580451829858 3 33.740064970741656
    endloop
  endfacet
  facet normal 0 -1 0
    outer loop
      vertex 0 0 0
      vertex 50 0 3
      vertex 25 0 7.75
    endloop
  endfacet
  facet normal 0 -1 0
    outer loop
      vertex 0 0 0
      vertex 50 0 0
      vertex 50 0 3
    endloop
  endfacet
  facet normal 0 -1 0
    outer loop
      vertex 50 0 3
      vertex 26.59099025766973 0 8.409009742330268
      vertex 25 0 7.75
    endloop
  endfacet
  facet normal 0 1 0
    outer loop
      vertex 50 3 3
      vertex 23.581580451829858 3 6.25993502925834
      vertex 25.48214672102129 3 6.0291645036077846
    endloop
  endfacet
  facet normal 0 1 0
    outer loop
      vertex 50 3 3
      vertex 25.48214672102129 3 6.0291645036077846
      vertex 27.272258986924623 3 6.708064536425374
    endloop
  endfacet
  facet normal 0 -1 0
    outer loop
      vertex 50 0 3
      vertex 27.25 0 10
      vertex 26.59099025766973 0 8.409009742330268
    endloop
  endfacet
  facet normal 0 1 0
    outer loop
      vertex 50 3 3
      vertex 27.272258986924623 3 6.708064536425374
      vertex 28.54182410261284 3 8.141107311824925
    endloop
  endfacet
  facet normal 0 1 0
    outer loop
      vertex 50 3 3
      vertex 28.54182410261284 3 8.141107311824925
      vertex 29 3 10
    endloop
  endfacet
  facet normal 0 1 0
    outer loop
      vertex 50 3 3
      vertex 29 3 10
      vertex 28.54182410261284 3 11.858892688175073
    endloop
  endfacet
  facet normal 0 1 0
    outer loop
      vertex 50 3 3
      vertex 28.54182410261284 3 11.858892688175073
      vertex 27.272258986924626 3 13.291935463574625
    endloop
  endfacet
  facet normal 0 1 0
    outer loop
      vertex 0 3 40
      vertex 50 3 3
      vertex 27.272258986924626 3 13.291935463574625
    endloop
  endfacet
  facet normal 0 1 0
    outer loop
      vertex 50 3 3
      vertex 23.581580451829858 3 26.25993502925834
      vertex 25.48214672102129 3 26.029164503607785
    endloop
  endfacet
  facet normal 0 1 0
    outer loop
      vertex 50 3 3
      vertex 25.48214672102129 3 26.029164503607785
      vertex 27.272258986924623 3 26.708064536425375
    endloop
  endfacet
  facet normal 0 1 0
    outer loop
      vertex 50 3 3
      vertex 27.272258986924623 3 26.708064536425375
      vertex 28.54182410261284 3 28.141107311824925
    endloop
  endfacet
  facet normal 1 0 0
    outer loop
      vertex 50 2.7906976744186047 2.7906976744186047
      vertex 50 2.775 3
      vertex 50 2.5813953488372094 3
    endloop
  endfacet
  facet normal 0 -1 0
    outer loop
      vertex 50 0 3
      vertex 50 0 40
      vertex 27.25 0 10
    endloop
  endfacet
  facet normal 1 0 0
    outer loop
      vertex 50 0 3
      vertex 50 2.5813953488372094 3
      vertex 50 0 40
    endloop
  endfacet
  facet normal 1 0 0
    outer loop
      vertex 50 2.5813953488372094 3
      vertex 50 2.775 3
      vertex 50 0 40
    endloop
  endfacet
  facet normal 1 0 0
    outer loop
      vertex 50 2.775 3
      vertex 50 3 3
      vertex 50 3 40
    endloop
  endfacet
  facet normal 0 -1 0
    outer loop
      vertex 0 0 0
      vertex 50 0 40
      vertex 26.59099025766973 0 28.40900974233027
    endloop
  endfacet
  facet normal 0 -1 0
    outer loop
      vertex 50 0 40
      vertex 23.40900974233027 0 11.590990257669732
      vertex 25 0 12.25
    endloop
  endfacet
  facet normal 0 -1 0
    outer loop
      vertex 50 0 40
      vertex 25 0 12.25
      vertex 26.59099025766973 0 11.590990257669732
    endloop
  endfacet
  facet normal 0 -1 0
    outer loop
      vertex 50 0 40
      vertex 26.59099025766973 0 11.590990257669732
      vertex 27.25 0 10
    endloop
  endfacet
  facet normal 0 1 0
    outer loop
      vertex 50 3 3
      vertex 28.54182410261284 3 28.141107311824925
      vertex 29 3 30
    endloop
  endfacet
  facet normal 0 -1 0
    outer loop
      vertex 0 0 40
      vertex 25 0 32.25
      vertex 50 0 40
    endloop
  endfacet
  facet normal 0 1 0
    outer loop
      vertex 0 3 40
      vertex 50 3 40
      vertex 25.48214672102129 3 33.97083549639222
    endloop
  endfacet
  facet normal 0 -1 0
    outer loop
      vertex 50 0 40
      vertex 25 0 32.25
      vertex 26.59099025766973 0 31.59099025766973
    endloop
  endfacet
  facet normal 0 -1 0
    outer loop
      vertex 50 0 40
      vertex 27.25 0 30
      vertex 26.59099025766973 0 28.40900974233027
    endloop
  endfacet
  facet normal 0 -1 0
    outer loop
      vertex 50 0 40
      vertex 26.59099025766973 0 31.59099025766973
      vertex 27.25 0 30
    endloop
  endfacet
  facet normal 0 1 0
    outer loop
      vertex 50 3 40
      vertex 29 3 30
      vertex 28.54182410261284 3 31.858892688175075
    endloop
  endfacet
  facet normal 0 0 1
    outer loop
      vertex 0 3 40
      vertex 50 0 40
      vertex 50 3 40
    endloop
  endfacet
  facet normal 0 1 0
    outer loop
      vertex 50 3 40
      vertex 27.272258986924626 3 33.291935463574625
      vertex 25.48214672102129 3 33.97083549639222
    endloop
  endfacet
  facet normal 0 1 0
    outer loop
      vertex 50 3 40
      vertex 28.54182410261284 3 31.858892688175075
      vertex 27.272258986924626 3 33.291935463574625
    endloop
  endfacet
  facet normal 0 1 0
    outer loop
      vertex 50 3 3
      vertex 29 3 30
      vertex 50 3 40
    endloop
  endfacet
  facet normal 1 0 0
    outer loop
      vertex 50 2.775 3
      vertex 50 3 40
      vertex 50 0 40
    endloop
  endfacet
  facet normal 0.3826834323650904 0.9238795325112865 0
    outer loop
      vertex 8.409009742330268 18.40900974233027 1
      vertex 10 17.75 0
      vertex 8.409009742330268 18.40900974233027 0
    endloop
  endfacet
  facet normal 0.9238795325112867 0.38268343236508984 0
    outer loop
      vertex 8.409009742330268 18.40900974233027 1
      vertex 8.409009742330268 18.40900974233027 0
      vertex 7.75 20 1
    endloop
  endfacet
  facet normal 0.9238795325112867 0.38268343236508984 0
    outer loop
      vertex 7.75 20 1
      vertex 8.409009742330268 18.40900974233027 0
      vertex 7.75 20 0
    endloop
  endfacet
  facet normal 0.3826834323650904 0.9238795325112865 0
    outer loop
      vertex 8.409009742330268 18.40900974233027 1
      vertex 10 17.75 1
      vertex 10 17.75 0
    endloop
  endfacet
  facet normal -0.3826834323650904 0.9238795325112865 0
    outer loop
      vertex 10 17.75 1
      vertex 11.590990257669732 18.40900974233027 0
      vertex 10 17.75 0
    endloop
  endfacet
  facet normal -0.3826834323650904 0.9238795325112865 0
    outer loop
      vertex 10 17.75 1
      vertex 11.590990257669732 18.40900974233027 1
      vertex 11.590990257669732 18.40900974233027 0
    endloop
  endfacet
  facet normal -0.9238795325112867 0.38268343236508984 0
    outer loop
      vertex 11.590990257669732 18.40900974233027 1
      vertex 12.25 20 0
      vertex 11.590990257669732 18.40900974233027 0
    endloop
  endfacet
  facet normal -0.9238795325112867 0.38268343236508984 0
    outer loop
      vertex 11.590990257669732 18.40900974233027 1
      vertex 12.25 20 1
      vertex 12.25 20 0
    endloop
  endfacet
  facet normal 0.9238795325112867 -0.38268343236508984 0
    outer loop
      vertex 7.75 20 1
      vertex 7.75 20 0
      vertex 8.409009742330268 21.59099025766973 1
    endloop
  endfacet
  facet normal 0.9238795325112867 -0.38268343236508984 0
    outer loop
      vertex 8.409009742330268 21.59099025766973 1
      vertex 7.75 20 0
      vertex 8.409009742330268 21.59099025766973 0
    endloop
  endfacet
  facet normal 0.3826834323650904 -0.9238795325112865 0
    outer loop
      vertex 8.409009742330268 21.59099025766973 1
      vertex 8.409009742330268 21.59099025766973 0
      vertex 10 22.25 1
    endloop
  endfacet
  facet normal 0.3826834323650904 -0.9238795325112865 0
    outer loop
      vertex 10 22.25 1
      vertex 8.409009742330268 21.59099025766973 0
      vertex 10 22.25 0
    endloop
  endfacet
  facet normal -0.3826834323650904 -0.9238795325112865 0
    outer loop
      vertex 10 22.25 1
      vertex 10 22.25 0
      vertex 11.590990257669732 21.59099025766973 1
    endloop
  endfacet
  facet normal -0.9238795325112867 -0.38268343236508984 0
    outer loop
      vertex 12.25 20 1
      vertex 11.590990257669732 21.59099025766973 0
      vertex 12.25 20 0
    endloop
  endfacet
  facet normal -0.9238795325112867 -0.38268343236508984 0
    outer loop
      vertex 12.25 20 1
      vertex 11.590990257669732 21.59099025766973 1
      vertex 11.590990257669732 21.59099025766973 0
    endloop
  endfacet
  facet normal -0.3826834323650904 -0.9238795325112865 0
    outer loop
      vertex 11.590990257669732 21.59099025766973 1
      vertex 10 22.25 0
      vertex 11.590990257669732 21.59099025766973 0
    endloop
  endfacet
  facet normal 1 0 0
    outer loop
      vertex 6.116232730295792 19.04273734284977 1
      vertex 6.116232730295792 20.95726265715023 3
      vertex 6.116232730295792 19.04273734284977 3
    endloop
  endfacet
  facet normal 0.5680647467311554 0.8229838658936568 0
    outer loop
      vertex 7.005957007315596 17.347509367036817 1
      vertex 7.005957007315596 17.347509367036817 3
      vertex 8.581580451829858 16.25993502925834 3
    endloop
  endfacet
  facet normal 0.12053668025532263 0.992708874098054 0
    outer loop
      vertex 8.581580451829858 16.25993502925834 1
      vertex 8.581580451829858 16.25993502925834 3
      vertex 10.48214672102129 16.029164503607785 3
    endloop
  endfacet
  facet normal 0 0 1
    outer loop
      vertex 7.005957007315596 17.347509367036817 1
      vertex 8.581580451829858 16.25993502925834 1
      vertex 8.409009742330268 18.40900974233027 1
    endloop
  endfacet
  facet normal 0 0 1
    outer loop
      vertex 8.581580451829858 16.25993502925834 1
      vertex 10 17.75 1
      vertex 8.409009742330268 18.40900974233027 1
    endloop
  endfacet
  facet normal 0.5680647467311554 0.8229838658936568 0
    outer loop
      vertex 7.005957007315596 17.347509367036817 1
      vertex 8.581580451829858 16.25993502925834 3
      vertex 8.581580451829858 16.25993502925834 1
    endloop
  endfacet
  facet normal 0 0 1
    outer loop
      vertex 7.005957007315596 17.347509367036817 1
      vertex 8.409009742330268 18.40900974233027 1
      vertex 7.75 20 1
    endloop
  endfacet
  facet normal 0.88545602565321 0.4647231720437682 0
    outer loop
      vertex 7.005957007315596 17.347509367036817 1
      vertex 6.116232730295792 19.04273734284977 3
      vertex 7.005957007315596 17.347509367036817 3
    endloop
  endfacet
  facet normal 0.88545602565321 0.4647231720437682 0
    outer loop
      vertex 7.005957007315596 17.347509367036817 1
      vertex 6.116232730295792 19.04273734284977 1
      vertex 6.116232730295792 19.04273734284977 3
    endloop
  endfacet
  facet normal 0 0 1
    outer loop
      vertex 7.005957007315596 17.347509367036817 1
      vertex 7.005957007315596 22.652490632963183 1
      vertex 6.116232730295792 19.04273734284977 1
    endloop
  endfacet
  facet normal 0.12053668025532263 0.992708874098054 0
    outer loop
      vertex 10.48214672102129 16.029164503607785 1
      vertex 8.581580451829858 16.25993502925834 1
      vertex 10.48214672102129 16.029164503607785 3
    endloop
  endfacet
  facet normal 0 0 1
    outer loop
      vertex 10.48214672102129 16.029164503607785 1
      vertex 10 17.75 1
      vertex 8.581580451829858 16.25993502925834 1
    endloop
  endfacet
  facet normal 0 0 1
    outer loop
      vertex 10.48214672102129 16.029164503607785 1
      vertex 12.272258986924625 16.708064536425375 1
      vertex 10 17.75 1
    endloop
  endfacet
  facet normal -0.35460488704253534 0.9350162426854148 0
    outer loop
      vertex 10.48214672102129 16.029164503607785 1
      vertex 12.272258986924625 16.708064536425375 3
      vertex 12.272258986924625 16.708064536425375 1
    endloop
  endfacet
  facet normal -0.35460488704253534 0.9350162426854148 0
    outer loop
      vertex 10.48214672102129 16.029164503607785 1
      vertex 10.48214672102129 16.029164503607785 3
      vertex 12.272258986924625 16.708064536425375 3
    endloop
  endfacet
  facet normal 0 0 1
    outer loop
      vertex 12.272258986924625 16.708064536425375 1
      vertex 11.590990257669732 18.40900974233027 1
      vertex 10 17.75 1
    endloop
  endfacet
  facet normal 0 0 1
    outer loop
      vertex 12.272258986924625 16.708064536425375 1
      vertex 12.25 20 1
      vertex 11.590990257669732 18.40900974233027 1
    endloop
  endfacet
  facet normal -0.7485107481711011 0.6631226582407952 0
    outer loop
      vertex 12.272258986924625 16.708064536425375 1
      vertex 12.272258986924625 16.708064536425375 3
      vertex 13.54182410261284 18.141107311824925 1
    endloop
  endfacet
  facet normal -0.7485107481711011 0.6631226582407952 0
    outer loop
      vertex 13.54182410261284 18.141107311824925 1
      vertex 12.272258986924625 16.708064536425375 3
      vertex 13.54182410261284 18.141107311824925 3
    endloop
  endfacet
  facet normal 0 0 1
    outer loop
      vertex 12.272258986924625 16.708064536425375 1
      vertex 13.54182410261284 18.141107311824925 1
      vertex 13.54182410261284 21.858892688175075 1
    endloop
  endfacet
  facet normal -0.970941817426052 0.23931566428755782 0
    outer loop
      vertex 13.54182410261284 18.141107311824925 1
      vertex 13.54182410261284 18.141107311824925 3
      vertex 14 20 1
    endloop
  endfacet
  facet normal -0.970941817426052 0.23931566428755782 0
    outer loop
      vertex 14 20 1
      vertex 13.54182410261284 18.141107311824925 3
      vertex 14 20 3
    endloop
  endfacet
  facet normal 1 0 0
    outer loop
      vertex 6.116232730295792 19.04273734284977 1
      vertex 6.116232730295792 20.95726265715023 1
      vertex 6.116232730295792 20.95726265715023 3
    endloop
  endfacet
  facet normal 0 0 1
    outer loop
      vertex 6.116232730295792 19.04273734284977 1
      vertex 7.005957007315596 22.652490632963183 1
      vertex 6.116232730295792 20.95726265715023 1
    endloop
  endfacet
  facet normal 0 0 1
    outer loop
      vertex 7.005957007315596 17.347509367036817 1
      vertex 7.75 20 1
      vertex 8.581580451829858 23.74006497074166 1
    endloop
  endfacet
  facet normal 0 0 1
    outer loop
      vertex 7.005957007315596 17.347509367036817 1
      vertex 8.581580451829858 23.74006497074166 1
      vertex 7.005957007315596 22.652490632963183 1
    endloop
  endfacet
  facet normal 0.88545602565321 -0.4647231720437682 0
    outer loop
      vertex 6.116232730295792 20.95726265715023 1
      vertex 7.005957007315596 22.652490632963183 3
      vertex 6.116232730295792 20.95726265715023 3
    endloop
  endfacet
  facet normal 0.88545602565321 -0.4647231720437682 0
    outer loop
      vertex 6.116232730295792 20.95726265715023 1
      vertex 7.005957007315596 22.652490632963183 1
      vertex 7.005957007315596 22.652490632963183 3
    endloop
  endfacet
  facet normal 0 0 1
    outer loop
      vertex 7.75 20 1
      vertex 8.409009742330268 21.59099025766973 1
      vertex 8.581580451829858 23.74006497074166 1
    endloop
  endfacet
  facet normal 0.5680647467311554 -0.8229838658936568 0
    outer loop
      vertex 7.005957007315596 22.652490632963183 1
      vertex 8.581580451829858 23.74006497074166 1
      vertex 7.005957007315596 22.652490632963183 3
    endloop
  endfacet
  facet normal 0 0 1
    outer loop
      vertex 8.409009742330268 21.59099025766973 1
      vertex 10 22.25 1
      vertex 8.581580451829858 23.74006497074166 1
    endloop
  endfacet
  facet normal 0.5680647467311554 -0.8229838658936568 0
    outer loop
      vertex 8.581580451829858 23.74006497074166 1
      vertex 8.581580451829858 23.74006497074166 3
      vertex 7.005957007315596 22.652490632963183 3
    endloop
  endfacet
  facet normal 0.1205366802553225 -0.992708874098054 0
    outer loop
      vertex 8.581580451829858 23.74006497074166 1
      vertex 10.482146721021293 23.970835496392215 1
      vertex 8.581580451829858 23.74006497074166 3
    endloop
  endfacet
  facet normal 0 0 1
    outer loop
      vertex 12.272258986924625 16.708064536425375 1
      vertex 12.272258986924623 23.291935463574625 1
      vertex 12.25 20 1
    endloop
  endfacet
  facet normal 0 0 1
    outer loop
      vertex 12.25 20 1
      vertex 12.272258986924623 23.291935463574625 1
      vertex 11.590990257669732 21.59099025766973 1
    endloop
  endfacet
  facet normal 0 0 1
    outer loop
      vertex 10 22.25 1
      vertex 10.482146721021293 23.970835496392215 1
      vertex 8.581580451829858 23.74006497074166 1
    endloop
  endfacet
  facet normal 0 0 1
    outer loop
      vertex 10 22.25 1
      vertex 11.590990257669732 21.59099025766973 1
      vertex 10.482146721021293 23.970835496392215 1
    endloop
  endfacet
  facet normal 0.1205366802553225 -0.992708874098054 0
    outer loop
      vertex 10.482146721021293 23.970835496392215 1
      vertex 10.482146721021293 23.970835496392215 3
      vertex 8.581580451829858 23.74006497074166 3
    endloop
  endfacet
  facet normal 0 0 1
    outer loop
      vertex 10.482146721021293 23.970835496392215 1
      vertex 11.590990257669732 21.59099025766973 1
      vertex 12.272258986924623 23.291935463574625 1
    endloop
  endfacet
  facet normal -0.354604887042536 -0.9350162426854147 0
    outer loop
      vertex 10.482146721021293 23.970835496392215 1
      vertex 12.272258986924623 23.291935463574625 1
      vertex 10.482146721021293 23.970835496392215 3
    endloop
  endfacet
  facet normal -0.354604887042536 -0.9350162426854147 0
    outer loop
      vertex 12.272258986924623 23.291935463574625 1
      vertex 12.272258986924623 23.291935463574625 3
      vertex 10.482146721021293 23.970835496392215 3
    endloop
  endfacet
  facet normal 0 0 1
    outer loop
      vertex 12.272258986924625 16.708064536425375 1
      vertex 13.54182410261284 21.858892688175075 1
      vertex 12.272258986924623 23.291935463574625 1
    endloop
  endfacet
  facet normal 0 0 1
    outer loop
      vertex 13.54182410261284 18.141107311824925 1
      vertex 14 20 1
      vertex 13.54182410261284 21.858892688175075 1
    endloop
  endfacet
  facet normal -0.970941817426052 -0.23931566428755782 0
    outer loop
      vertex 14 20 1
      vertex 14 20 3
      vertex 13.54182410261284 21.858892688175075 1
    endloop
  endfacet
  facet normal -0.970941817426052 -0.23931566428755782 0
    outer loop
      vertex 13.54182410261284 21.858892688175075 1
      vertex 14 20 3
      vertex 13.54182410261284 21.858892688175075 3
    endloop
  endfacet
  facet normal -0.7485107481711006 -0.6631226582407957 0
    outer loop
      vertex 12.272258986924623 23.291935463574625 1
      vertex 13.54182410261284 21.858892688175075 1
      vertex 13.54182410261284 21.858892688175075 3
    endloop
  endfacet
  facet normal -0.7485107481711006 -0.6631226582407957 0
    outer loop
      vertex 12.272258986924623 23.291935463574625 1
      vertex 13.54182410261284 21.858892688175075 3
      vertex 12.272258986924623 23.291935463574625 3
    endloop
  endfacet
  facet normal 0.3826834323650907 0.9238795325112863 0
    outer loop
      vertex 38.40900974233027 18.40900974233027 1
      vertex 40 17.75 0
      vertex 38.40900974233027 18.40900974233027 0
    endloop
  endfacet
  facet normal 0.9238795325112863 0.3826834323650907 0
    outer loop
      vertex 38.40900974233027 18.40900974233027 1
      vertex 38.40900974233027 18.40900974233027 0
      vertex 37.75 20 1
    endloop
  endfacet
  facet normal 0.9238795325112863 0.3826834323650907 0
    outer loop
      vertex 37.75 20 1
      vertex 38.40900974233027 18.40900974233027 0
      vertex 37.75 20 0
    endloop
  endfacet
  facet normal 0.3826834323650907 0.9238795325112863 0
    outer loop
      vertex 38.40900974233027 18.40900974233027 1
      vertex 40 17.75 1
      vertex 40 17.75 0
    endloop
  endfacet
  facet normal -0.3826834323650907 0.9238795325112863 0
    outer loop
      vertex 40 17.75 1
      vertex 41.59099025766973 18.40900974233027 0
      vertex 40 17.75 0
    endloop
  endfacet
  facet normal -0.3826834323650907 0.9238795325112863 0
    outer loop
      vertex 40 17.75 1
      vertex 41.59099025766973 18.40900974233027 1
      vertex 41.59099025766973 18.40900974233027 0
    endloop
  endfacet
  facet normal -0.9238795325112863 0.3826834323650907 0
    outer loop
      vertex 41.59099025766973 18.40900974233027 1
      vertex 42.25 20 0
      vertex 41.59099025766973 18.40900974233027 0
    endloop
  endfacet
  facet normal -0.9238795325112863 0.3826834323650907 0
    outer loop
      vertex 41.59099025766973 18.40900974233027 1
      vertex 42.25 20 1
      vertex 42.25 20 0
    endloop
  endfacet
  facet normal 0.9238795325112863 -0.3826834323650907 0
    outer loop
      vertex 37.75 20 1
      vertex 37.75 20 0
      vertex 38.40900974233027 21.59099025766973 1
    endloop
  endfacet
  facet normal 0.9238795325112863 -0.3826834323650907 0
    outer loop
      vertex 38.40900974233027 21.59099025766973 1
      vertex 37.75 20 0
      vertex 38.40900974233027 21.59099025766973 0
    endloop
  endfacet
  facet normal 0.3826834323650907 -0.9238795325112863 0
    outer loop
      vertex 38.40900974233027 21.59099025766973 1
      vertex 38.40900974233027 21.59099025766973 0
      vertex 40 22.25 1
    endloop
  endfacet
  facet normal 0.3826834323650907 -0.9238795325112863 0
    outer loop
      vertex 40 22.25 1
      vertex 38.40900974233027 21.59099025766973 0
      vertex 40 22.25 0
    endloop
  endfacet
  facet normal -0.3826834323650907 -0.9238795325112863 0
    outer loop
      vertex 40 22.25 1
      vertex 40 22.25 0
      vertex 41.59099025766973 21.59099025766973 1
    endloop
  endfacet
  facet normal -0.9238795325112863 -0.3826834323650907 0
    outer loop
      vertex 42.25 20 1
      vertex 41.59099025766973 21.59099025766973 0
      vertex 42.25 20 0
    endloop
  endfacet
  facet normal -0.9238795325112863 -0.3826834323650907 0
    outer loop
      vertex 42.25 20 1
      vertex 41.59099025766973 21.59099025766973 1
      vertex 41.59099025766973 21.59099025766973 0
    endloop
  endfacet
  facet normal -0.3826834323650907 -0.9238795325112863 0
    outer loop
      vertex 41.59099025766973 21.59099025766973 1
      vertex 40 22.25 0
      vertex 41.59099025766973 21.59099025766973 0
    endloop
  endfacet
  facet normal 0.8854560256532105 0.46472317204376745 0
    outer loop
      vertex 37.005957007315594 17.347509367036817 1
      vertex 36.11623273029579 19.04273734284977 3
      vertex 37.005957007315594 17.347509367036817 3
    endloop
  endfacet
  facet normal 0.8854560256532105 0.46472317204376745 0
    outer loop
      vertex 37.005957007315594 17.347509367036817 1
      vertex 36.11623273029579 19.04273734284977 1
      vertex 36.11623273029579 19.04273734284977 3
    endloop
  endfacet
  facet normal 0 0 1
    outer loop
      vertex 37.005957007315594 17.347509367036817 1
      vertex 37.005957007315594 22.652490632963183 1
      vertex 36.11623273029579 19.04273734284977 1
    endloop
  endfacet
  facet normal 1 0 0
    outer loop
      vertex 36.11623273029579 19.04273734284977 1
      vertex 36.11623273029579 20.95726265715023 3
      vertex 36.11623273029579 19.04273734284977 3
    endloop
  endfacet
  facet normal 0 0 1
    outer loop
      vertex 37.005957007315594 17.347509367036817 1
      vertex 38.58158045182986 16.25993502925834 1
      vertex 40 17.75 1
    endloop
  endfacet
  facet normal 0.5680647467311549 0.822983865893657 0
    outer loop
      vertex 37.005957007315594 17.347509367036817 1
      vertex 38.58158045182986 16.25993502925834 3
      vertex 38.58158045182986 16.25993502925834 1
    endloop
  endfacet
  facet normal 0.5680647467311549 0.822983865893657 0
    outer loop
      vertex 37.005957007315594 17.347509367036817 1
      vertex 37.005957007315594 17.347509367036817 3
      vertex 38.58158045182986 16.25993502925834 3
    endloop
  endfacet
  facet normal 0.12053668025532241 0.9927088740980541 0
    outer loop
      vertex 38.58158045182986 16.25993502925834 1
      vertex 38.58158045182986 16.25993502925834 3
      vertex 40.482146721021294 16.029164503607785 3
    endloop
  endfacet
  facet normal 0.12053668025532241 0.9927088740980541 0
    outer loop
      vertex 38.58158045182986 16.25993502925834 1
      vertex 40.482146721021294 16.029164503607785 3
      vertex 40.482146721021294 16.029164503607785 1
    endloop
  endfacet
  facet normal 0 0 1
    outer loop
      vertex 38.58158045182986 16.25993502925834 1
      vertex 40.482146721021294 16.029164503607785 1
      vertex 40 17.75 1
    endloop
  endfacet
  facet normal 0 0 1
    outer loop
      vertex 37.005957007315594 17.347509367036817 1
      vertex 38.40900974233027 18.40900974233027 1
      vertex 37.75 20 1
    endloop
  endfacet
  facet normal 0 0 1
    outer loop
      vertex 37.005957007315594 17.347509367036817 1
      vertex 40 17.75 1
      vertex 38.40900974233027 18.40900974233027 1
    endloop
  endfacet
  facet normal 0 0 1
    outer loop
      vertex 40.482146721021294 16.029164503607785 1
      vertex 41.59099025766973 18.40900974233027 1
      vertex 40 17.75 1
    endloop
  endfacet
  facet normal 0 0 1
    outer loop
      vertex 40.482146721021294 16.029164503607785 1
      vertex 42.272258986924626 16.708064536425375 1
      vertex 41.59099025766973 18.40900974233027 1
    endloop
  endfacet
  facet normal -0.3546048870425357 0.9350162426854148 0
    outer loop
      vertex 40.482146721021294 16.029164503607785 1
      vertex 40.482146721021294 16.029164503607785 3
      vertex 42.272258986924626 16.708064536425375 3
    endloop
  endfacet
  facet normal -0.3546048870425357 0.9350162426854148 0
    outer loop
      vertex 40.482146721021294 16.029164503607785 1
      vertex 42.272258986924626 16.708064536425375 3
      vertex 42.272258986924626 16.708064536425375 1
    endloop
  endfacet
  facet normal -0.7485107481711006 0.6631226582407957 0
    outer loop
      vertex 42.272258986924626 16.708064536425375 1
      vertex 42.272258986924626 16.708064536425375 3
      vertex 43.54182410261284 18.141107311824925 1
    endloop
  endfacet
  facet normal 0 0 1
    outer loop
      vertex 42.272258986924626 16.708064536425375 1
      vertex 42.25 20 1
      vertex 41.59099025766973 18.40900974233027 1
    endloop
  endfacet
  facet normal -0.7485107481711006 0.6631226582407957 0
    outer loop
      vertex 43.54182410261284 18.141107311824925 1
      vertex 42.272258986924626 16.708064536425375 3
      vertex 43.54182410261284 18.141107311824925 3
    endloop
  endfacet
  facet normal 0 0 1
    outer loop
      vertex 42.272258986924626 16.708064536425375 1
      vertex 43.54182410261284 18.141107311824925 1
      vertex 43.54182410261284 21.858892688175075 1
    endloop
  endfacet
  facet normal -0.9709418174260525 0.23931566428755607 0
    outer loop
      vertex 43.54182410261284 18.141107311824925 1
      vertex 43.54182410261284 18.141107311824925 3
      vertex 44 20 1
    endloop
  endfacet
  facet normal -0.9709418174260525 0.23931566428755607 0
    outer loop
      vertex 44 20 1
      vertex 43.54182410261284 18.141107311824925 3
      vertex 44 20 3
    endloop
  endfacet
  facet normal 0 0 1
    outer loop
      vertex 36.11623273029579 19.04273734284977 1
      vertex 37.005957007315594 22.652490632963183 1
      vertex 36.11623273029579 20.95726265715023 1
    endloop
  endfacet
  facet normal 1 0 0
    outer loop
      vertex 36.11623273029579 19.04273734284977 1
      vertex 36.11623273029579 20.95726265715023 1
      vertex 36.11623273029579 20.95726265715023 3
    endloop
  endfacet
  facet normal 0.8854560256532105 -0.46472317204376745 0
    outer loop
      vertex 36.11623273029579 20.95726265715023 1
      vertex 37.005957007315594 22.652490632963183 3
      vertex 36.11623273029579 20.95726265715023 3
    endloop
  endfacet
  facet normal 0.8854560256532105 -0.46472317204376745 0
    outer loop
      vertex 36.11623273029579 20.95726265715023 1
      vertex 37.005957007315594 22.652490632963183 1
      vertex 37.005957007315594 22.652490632963183 3
    endloop
  endfacet
  facet normal 0 0 1
    outer loop
      vertex 37.005957007315594 17.347509367036817 1
      vertex 37.75 20 1
      vertex 38.58158045182986 23.74006497074166 1
    endloop
  endfacet
  facet normal 0 0 1
    outer loop
      vertex 37.005957007315594 17.347509367036817 1
      vertex 38.58158045182986 23.74006497074166 1
      vertex 37.005957007315594 22.652490632963183 1
    endloop
  endfacet
  facet normal 0 0 1
    outer loop
      vertex 37.75 20 1
      vertex 38.40900974233027 21.59099025766973 1
      vertex 38.58158045182986 23.74006497074166 1
    endloop
  endfacet
  facet normal 0 0 1
    outer loop
      vertex 38.40900974233027 21.59099025766973 1
      vertex 40 22.25 1
      vertex 38.58158045182986 23.74006497074166 1
    endloop
  endfacet
  facet normal 0.5680647467311549 -0.822983865893657 0
    outer loop
      vertex 37.005957007315594 22.652490632963183 1
      vertex 38.58158045182986 23.74006497074166 1
      vertex 37.005957007315594 22.652490632963183 3
    endloop
  endfacet
  facet normal 0.5680647467311549 -0.822983865893657 0
    outer loop
      vertex 38.58158045182986 23.74006497074166 1
      vertex 38.58158045182986 23.74006497074166 3
      vertex 37.005957007315594 22.652490632963183 3
    endloop
  endfacet
  facet normal 0 0 1
    outer loop
      vertex 38.58158045182986 23.74006497074166 1
      vertex 40 22.25 1
      vertex 40.482146721021294 23.970835496392215 1
    endloop
  endfacet
  facet normal 0.12053668025532241 -0.9927088740980541 0
    outer loop
      vertex 38.58158045182986 23.74006497074166 1
      vertex 40.482146721021294 23.970835496392215 1
      vertex 38.58158045182986 23.74006497074166 3
    endloop
  endfacet
  facet normal 0.12053668025532241 -0.9927088740980541 0
    outer loop
      vertex 40.482146721021294 23.970835496392215 1
      vertex 40.482146721021294 23.970835496392215 3
      vertex 38.58158045182986 23.74006497074166 3
    endloop
  endfacet
  facet normal 0 0 1
    outer loop
      vertex 40 22.25 1
      vertex 41.59099025766973 21.59099025766973 1
      vertex 42.272258986924626 23.291935463574625 1
    endloop
  endfacet
  facet normal 0 0 1
    outer loop
      vertex 42.25 20 1
      vertex 42.272258986924626 23.291935463574625 1
      vertex 41.59099025766973 21.59099025766973 1
    endloop
  endfacet
  facet normal 0 0 1
    outer loop
      vertex 42.272258986924626 16.708064536425375 1
      vertex 42.272258986924626 23.291935463574625 1
      vertex 42.25 20 1
    endloop
  endfacet
  facet normal 0 0 1
    outer loop
      vertex 42.272258986924626 16.708064536425375 1
      vertex 43.54182410261284 21.858892688175075 1
      vertex 42.272258986924626 23.291935463574625 1
    endloop
  endfacet
  facet normal 0 0 1
    outer loop
      vertex 43.54182410261284 18.141107311824925 1
      vertex 44 20 1
      vertex 43.54182410261284 21.858892688175075 1
    endloop
  endfacet
  facet normal -0.9709418174260525 -0.23931566428755607 0
    outer loop
      vertex 43.54182410261284 21.858892688175075 1
      vertex 44 20 3
      vertex 43.54182410261284 21.858892688175075 3
    endloop
  endfacet
  facet normal -0.7485107481711006 -0.6631226582407957 0
    outer loop
      vertex 43.54182410261284 21.858892688175075 1
      vertex 43.54182410261284 21.858892688175075 3
      vertex 42.272258986924626 23.291935463574625 1
    endloop
  endfacet
  facet normal 0 0 1
    outer loop
      vertex 40 22.25 1
      vertex 42.272258986924626 23.291935463574625 1
      vertex 40.482146721021294 23.970835496392215 1
    endloop
  endfacet
  facet normal -0.3546048870425357 -0.9350162426854148 0
    outer loop
      vertex 40.482146721021294 23.970835496392215 1
      vertex 42.272258986924626 23.291935463574625 1
      vertex 40.482146721021294 23.970835496392215 3
    endloop
  endfacet
  facet normal -0.3546048870425357 -0.9350162426854148 0
    outer loop
      vertex 42.272258986924626 23.291935463574625 1
      vertex 42.272258986924626 23.291935463574625 3
      vertex 40.482146721021294 23.970835496392215 3
    endloop
  endfacet
  facet normal -0.7485107481711006 -0.6631226582407957 0
    outer loop
      vertex 42.272258986924626 23.291935463574625 1
      vertex 43.54182410261284 21.858892688175075 3
      vertex 42.272258986924626 23.291935463574625 3
    endloop
  endfacet
  facet normal -0.9709418174260525 -0.23931566428755607 0
    outer loop
      vertex 44 20 1
      vertex 44 20 3
      vertex 43.54182410261284 21.858892688175075 1
    endloop
  endfacet
  facet normal 0.9238795325112865 0 0.3826834323650904
    outer loop
      vertex 23.40900974233027 1 8.409009742330268
      vertex 22.75 0 10
      vertex 23.40900974233027 0 8.409009742330268
    endloop
  endfacet
  facet normal 0.9238795325112865 0 0.3826834323650904
    outer loop
      vertex 23.40900974233027 1 8.409009742330268
      vertex 22.75 1 10
      vertex 22.75 0 10
    endloop
  endfacet
  facet normal 0.38268343236508984 0 0.9238795325112867
    outer loop
      vertex 23.40900974233027 1 8.409009742330268
      vertex 23.40900974233027 0 8.409009742330268
      vertex 25 1 7.75
    endloop
  endfacet
  facet normal 0.38268343236508984 0 0.9238795325112867
    outer loop
      vertex 25 1 7.75
      vertex 23.40900974233027 0 8.409009742330268
      vertex 25 0 7.75
    endloop
  endfacet
  facet normal 0.9238795325112865 0 -0.3826834323650904
    outer loop
      vertex 22.75 1 10
      vertex 23.40900974233027 0 11.590990257669732
      vertex 22.75 0 10
    endloop
  endfacet
  facet normal 0.9238795325112865 0 -0.3826834323650904
    outer loop
      vertex 22.75 1 10
      vertex 23.40900974233027 1 11.590990257669732
      vertex 23.40900974233027 0 11.590990257669732
    endloop
  endfacet
  facet normal 0.38268343236508984 0 -0.9238795325112867
    outer loop
      vertex 23.40900974233027 1 11.590990257669732
      vertex 25 0 12.25
      vertex 23.40900974233027 0 11.590990257669732
    endloop
  endfacet
  facet normal 0.38268343236508984 0 -0.9238795325112867
    outer loop
      vertex 23.40900974233027 1 11.590990257669732
      vertex 25 1 12.25
      vertex 25 0 12.25
    endloop
  endfacet
  facet normal -0.38268343236508984 0 0.9238795325112867
    outer loop
      vertex 25 1 7.75
      vertex 25 0 7.75
      vertex 26.59099025766973 1 8.409009742330268
    endloop
  endfacet
  facet normal -0.38268343236508984 0 0.9238795325112867
    outer loop
      vertex 26.59099025766973 1 8.409009742330268
      vertex 25 0 7.75
      vertex 26.59099025766973 0 8.409009742330268
    endloop
  endfacet
  facet normal -0.9238795325112865 0 0.3826834323650904
    outer loop
      vertex 27.25 1 10
      vertex 26.59099025766973 0 8.409009742330268
      vertex 27.25 0 10
    endloop
  endfacet
  facet normal -0.9238795325112865 0 0.3826834323650904
    outer loop
      vertex 26.59099025766973 1 8.409009742330268
      vertex 26.59099025766973 0 8.409009742330268
      vertex 27.25 1 10
    endloop
  endfacet
  facet normal -0.38268343236508984 0 -0.9238795325112867
    outer loop
      vertex 25 1 12.25
      vertex 26.59099025766973 0 11.590990257669732
      vertex 25 0 12.25
    endloop
  endfacet
  facet normal -0.38268343236508984 0 -0.9238795325112867
    outer loop
      vertex 25 1 12.25
      vertex 26.59099025766973 1 11.590990257669732
      vertex 26.59099025766973 0 11.590990257669732
    endloop
  endfacet
  facet normal -0.9238795325112865 0 -0.3826834323650904
    outer loop
      vertex 26.59099025766973 1 11.590990257669732
      vertex 27.25 0 10
      vertex 26.59099025766973 0 11.590990257669732
    endloop
  endfacet
  facet normal -0.9238795325112865 0 -0.3826834323650904
    outer loop
      vertex 27.25 1 10
      vertex 27.25 0 10
      vertex 26.59099025766973 1 11.590990257669732
    endloop
  endfacet
  facet normal 0.8854560256532095 0 0.46472317204376934
    outer loop
      vertex 22.005957007315597 1 7.347509367036819
      vertex 21.116232730295792 3 9.042737342849769
      vertex 21.116232730295792 1 9.042737342849769
    endloop
  endfacet
  facet normal 0.8854560256532095 0 0.46472317204376934
    outer loop
      vertex 22.005957007315597 1 7.347509367036819
      vertex 22.005957007315597 3 7.347509367036819
      vertex 21.116232730295792 3 9.042737342849769
    endloop
  endfacet
  facet normal 1 0 0
    outer loop
      vertex 21.116232730295792 1 9.042737342849769
      vertex 21.116232730295792 3 9.042737342849769
      vertex 21.116232730295792 3 10.957262657150231
    endloop
  endfacet
  facet normal 0.5680647467311564 0 0.822983865893656
    outer loop
      vertex 22.005957007315597 1 7.347509367036819
      vertex 23.581580451829858 3 6.25993502925834
      vertex 22.005957007315597 3 7.347509367036819
    endloop
  endfacet
  facet normal 0.5680647467311564 0 0.822983865893656
    outer loop
      vertex 22.005957007315597 1 7.347509367036819
      vertex 23.581580451829858 1 6.25993502925834
      vertex 23.581580451829858 3 6.25993502925834
    endloop
  endfacet
  facet normal 0 1 0
    outer loop
      vertex 22.005957007315597 1 7.347509367036819
      vertex 27.272258986924623 1 6.708064536425374
      vertex 23.581580451829858 1 6.25993502925834
    endloop
  endfacet
  facet normal 0.12053668025532263 0 0.992708874098054
    outer loop
      vertex 23.581580451829858 1 6.25993502925834
      vertex 25.48214672102129 3 6.0291645036077846
      vertex 23.581580451829858 3 6.25993502925834
    endloop
  endfacet
  facet normal 0.12053668025532263 0 0.992708874098054
    outer loop
      vertex 23.581580451829858 1 6.25993502925834
      vertex 25.48214672102129 1 6.0291645036077846
      vertex 25.48214672102129 3 6.0291645036077846
    endloop
  endfacet
  facet normal 0 1 0
    outer loop
      vertex 22.005957007315597 1 7.347509367036819
      vertex 21.116232730295792 1 9.042737342849769
      vertex 23.40900974233027 1 8.409009742330268
    endloop
  endfacet
  facet normal 0 1 0
    outer loop
      vertex 21.116232730295792 1 9.042737342849769
      vertex 22.75 1 10
      vertex 23.40900974233027 1 8.409009742330268
    endloop
  endfacet
  facet normal 0 1 0
    outer loop
      vertex 22.005957007315597 1 7.347509367036819
      vertex 23.40900974233027 1 8.409009742330268
      vertex 25 1 7.75
    endloop
  endfacet
  facet normal 0 1 0
    outer loop
      vertex 21.116232730295792 1 9.042737342849769
      vertex 21.116232730295792 1 10.957262657150231
      vertex 22.75 1 10
    endloop
  endfacet
  facet normal 1 0 0
    outer loop
      vertex 21.116232730295792 1 9.042737342849769
      vertex 21.116232730295792 3 10.957262657150231
      vertex 21.116232730295792 1 10.957262657150231
    endloop
  endfacet
  facet normal 0.8854560256532095 0 -0.46472317204376934
    outer loop
      vertex 21.116232730295792 1 10.957262657150231
      vertex 22.005957007315597 3 12.65249063296318
      vertex 22.005957007315597 1 12.65249063296318
    endloop
  endfacet
  facet normal 0.8854560256532095 0 -0.46472317204376934
    outer loop
      vertex 21.116232730295792 1 10.957262657150231
      vertex 21.116232730295792 3 10.957262657150231
      vertex 22.005957007315597 3 12.65249063296318
    endloop
  endfacet
  facet normal 0 1 0
    outer loop
      vertex 21.116232730295792 1 10.957262657150231
      vertex 22.005957007315597 1 12.65249063296318
      vertex 22.75 1 10
    endloop
  endfacet
  facet normal 0 1 0
    outer loop
      vertex 22.75 1 10
      vertex 22.005957007315597 1 12.65249063296318
      vertex 23.40900974233027 1 11.590990257669732
    endloop
  endfacet
  facet normal 0 1 0
    outer loop
      vertex 23.40900974233027 1 11.590990257669732
      vertex 22.005957007315597 1 12.65249063296318
      vertex 25 1 12.25
    endloop
  endfacet
  facet normal 0.5680647467311564 0 -0.822983865893656
    outer loop
      vertex 22.005957007315597 1 12.65249063296318
      vertex 22.005957007315597 3 12.65249063296318
      vertex 23.581580451829858 1 13.74006497074166
    endloop
  endfacet
  facet normal 0.5680647467311564 0 -0.822983865893656
    outer loop
      vertex 23.581580451829858 1 13.74006497074166
      vertex 22.005957007315597 3 12.65249063296318
      vertex 23.581580451829858 3 13.74006497074166
    endloop
  endfacet
  facet normal 0 1 0
    outer loop
      vertex 22.005957007315597 1 12.65249063296318
      vertex 23.581580451829858 1 13.74006497074166
      vertex 27.272258986924626 1 13.291935463574625
    endloop
  endfacet
  facet normal 0.12053668025532263 0 -0.992708874098054
    outer loop
      vertex 23.581580451829858 1 13.74006497074166
      vertex 23.581580451829858 3 13.74006497074166
      vertex 25.48214672102129 1 13.970835496392215
    endloop
  endfacet
  facet normal 0.12053668025532263 0 -0.992708874098054
    outer loop
      vertex 25.48214672102129 1 13.970835496392215
      vertex 23.581580451829858 3 13.74006497074166
      vertex 25.48214672102129 3 13.970835496392215
    endloop
  endfacet
  facet normal 0 1 0
    outer loop
      vertex 23.581580451829858 1 6.25993502925834
      vertex 27.272258986924623 1 6.708064536425374
      vertex 25.48214672102129 1 6.0291645036077846
    endloop
  endfacet
  facet normal 0 1 0
    outer loop
      vertex 22.005957007315597 1 7.347509367036819
      vertex 28.54182410261284 1 8.141107311824925
      vertex 27.272258986924623 1 6.708064536425374
    endloop
  endfacet
  facet normal -0.3546048870425349 0 0.935016242685415
    outer loop
      vertex 25.48214672102129 1 6.0291645036077846
      vertex 27.272258986924623 3 6.708064536425374
      vertex 25.48214672102129 3 6.0291645036077846
    endloop
  endfacet
  facet normal -0.3546048870425349 0 0.935016242685415
    outer loop
      vertex 25.48214672102129 1 6.0291645036077846
      vertex 27.272258986924623 1 6.708064536425374
      vertex 27.272258986924623 3 6.708064536425374
    endloop
  endfacet
  facet normal -0.7485107481711011 0 0.6631226582407953
    outer loop
      vertex 27.272258986924623 1 6.708064536425374
      vertex 28.54182410261284 1 8.141107311824925
      vertex 27.272258986924623 3 6.708064536425374
    endloop
  endfacet
  facet normal 0 1 0
    outer loop
      vertex 22.005957007315597 1 7.347509367036819
      vertex 25 1 7.75
      vertex 28.54182410261284 1 8.141107311824925
    endloop
  endfacet
  facet normal 0 1 0
    outer loop
      vertex 25 1 7.75
      vertex 26.59099025766973 1 8.409009742330268
      vertex 28.54182410261284 1 8.141107311824925
    endloop
  endfacet
  facet normal 0 1 0
    outer loop
      vertex 26.59099025766973 1 8.409009742330268
      vertex 27.25 1 10
      vertex 28.54182410261284 1 8.141107311824925
    endloop
  endfacet
  facet normal -0.7485107481711011 0 0.6631226582407953
    outer loop
      vertex 28.54182410261284 1 8.141107311824925
      vertex 28.54182410261284 3 8.141107311824925
      vertex 27.272258986924623 3 6.708064536425374
    endloop
  endfacet
  facet normal 0 1 0
    outer loop
      vertex 27.25 1 10
      vertex 29 1 10
      vertex 28.54182410261284 1 8.141107311824925
    endloop
  endfacet
  facet normal -0.970941817426052 0 0.23931566428755782
    outer loop
      vertex 28.54182410261284 1 8.141107311824925
      vertex 29 1 10
      vertex 28.54182410261284 3 8.141107311824925
    endloop
  endfacet
  facet normal -0.970941817426052 0 0.23931566428755782
    outer loop
      vertex 29 1 10
      vertex 29 3 10
      vertex 28.54182410261284 3 8.141107311824925
    endloop
  endfacet
  facet normal 0 1 0
    outer loop
      vertex 22.005957007315597 1 12.65249063296318
      vertex 28.54182410261284 1 11.858892688175073
      vertex 25 1 12.25
    endloop
  endfacet
  facet normal 0 1 0
    outer loop
      vertex 27.25 1 10
      vertex 26.59099025766973 1 11.590990257669732
      vertex 29 1 10
    endloop
  endfacet
  facet normal 0 1 0
    outer loop
      vertex 26.59099025766973 1 11.590990257669732
      vertex 28.54182410261284 1 11.858892688175073
      vertex 29 1 10
    endloop
  endfacet
  facet normal 0 1 0
    outer loop
      vertex 25 1 12.25
      vertex 28.54182410261284 1 11.858892688175073
      vertex 26.59099025766973 1 11.590990257669732
    endloop
  endfacet
  facet normal -0.748510748171102 0 -0.6631226582407943
    outer loop
      vertex 28.54182410261284 1 11.858892688175073
      vertex 27.272258986924626 1 13.291935463574625
      vertex 28.54182410261284 3 11.858892688175073
    endloop
  endfacet
  facet normal 0 1 0
    outer loop
      vertex 23.581580451829858 1 13.74006497074166
      vertex 25.48214672102129 1 13.970835496392215
      vertex 27.272258986924626 1 13.291935463574625
    endloop
  endfacet
  facet normal 0 1 0
    outer loop
      vertex 22.005957007315597 1 12.65249063296318
      vertex 27.272258986924626 1 13.291935463574625
      vertex 28.54182410261284 1 11.858892688175073
    endloop
  endfacet
  facet normal -0.35460488704253507 0 -0.935016242685415
    outer loop
      vertex 25.48214672102129 1 13.970835496392215
      vertex 25.48214672102129 3 13.970835496392215
      vertex 27.272258986924626 1 13.291935463574625
    endloop
  endfacet
  facet normal -0.35460488704253507 0 -0.935016242685415
    outer loop
      vertex 27.272258986924626 1 13.291935463574625
      vertex 25.48214672102129 3 13.970835496392215
      vertex 27.272258986924626 3 13.291935463574625
    endloop
  endfacet
  facet normal -0.748510748171102 0 -0.6631226582407943
    outer loop
      vertex 27.272258986924626 1 13.291935463574625
      vertex 27.272258986924626 3 13.291935463574625
      vertex 28.54182410261284 3 11.858892688175073
    endloop
  endfacet
  facet normal -0.9709418174260519 0 -0.23931566428755804
    outer loop
      vertex 28.54182410261284 1 11.858892688175073
      vertex 29 3 10
      vertex 29 1 10
    endloop
  endfacet
  facet normal -0.9709418174260519 0 -0.23931566428755804
    outer loop
      vertex 28.54182410261284 1 11.858892688175073
      vertex 28.54182410261284 3 11.858892688175073
      vertex 29 3 10
    endloop
  endfacet
  facet normal 0.9238795325112863 0 0.3826834323650907
    outer loop
      vertex 23.40900974233027 1 28.40900974233027
      vertex 22.75 0 30
      vertex 23.40900974233027 0 28.40900974233027
    endloop
  endfacet
  facet normal 0.9238795325112863 0 0.3826834323650907
    outer loop
      vertex 23.40900974233027 1 28.40900974233027
      vertex 22.75 1 30
      vertex 22.75 0 30
    endloop
  endfacet
  facet normal 0.3826834323650907 0 0.9238795325112863
    outer loop
      vertex 23.40900974233027 1 28.40900974233027
      vertex 23.40900974233027 0 28.40900974233027
      vertex 25 1 27.75
    endloop
  endfacet
  facet normal 0.3826834323650907 0 0.9238795325112863
    outer loop
      vertex 25 1 27.75
      vertex 23.40900974233027 0 28.40900974233027
      vertex 25 0 27.75
    endloop
  endfacet
  facet normal 0.9238795325112863 0 -0.3826834323650907
    outer loop
      vertex 22.75 1 30
      vertex 23.40900974233027 0 31.59099025766973
      vertex 22.75 0 30
    endloop
  endfacet
  facet normal 0.9238795325112863 0 -0.3826834323650907
    outer loop
      vertex 22.75 1 30
      vertex 23.40900974233027 1 31.59099025766973
      vertex 23.40900974233027 0 31.59099025766973
    endloop
  endfacet
  facet normal 0.3826834323650907 0 -0.9238795325112863
    outer loop
      vertex 23.40900974233027 1 31.59099025766973
      vertex 25 0 32.25
      vertex 23.40900974233027 0 31.59099025766973
    endloop
  endfacet
  facet normal 0.3826834323650907 0 -0.9238795325112863
    outer loop
      vertex 23.40900974233027 1 31.59099025766973
      vertex 25 1 32.25
      vertex 25 0 32.25
    endloop
  endfacet
  facet normal -0.3826834323650907 0 0.9238795325112863
    outer loop
      vertex 25 1 27.75
      vertex 25 0 27.75
      vertex 26.59099025766973 1 28.40900974233027
    endloop
  endfacet
  facet normal -0.3826834323650907 0 0.9238795325112863
    outer loop
      vertex 26.59099025766973 1 28.40900974233027
      vertex 25 0 27.75
      vertex 26.59099025766973 0 28.40900974233027
    endloop
  endfacet
  facet normal -0.9238795325112863 0 0.3826834323650907
    outer loop
      vertex 27.25 1 30
      vertex 26.59099025766973 0 28.40900974233027
      vertex 27.25 0 30
    endloop
  endfacet
  facet normal -0.9238795325112863 0 0.3826834323650907
    outer loop
      vertex 26.59099025766973 1 28.40900974233027
      vertex 26.59099025766973 0 28.40900974233027
      vertex 27.25 1 30
    endloop
  endfacet
  facet normal -0.3826834323650907 0 -0.9238795325112863
    outer loop
      vertex 25 1 32.25
      vertex 26.59099025766973 0 31.59099025766973
      vertex 25 0 32.25
    endloop
  endfacet
  facet normal -0.3826834323650907 0 -0.9238795325112863
    outer loop
      vertex 25 1 32.25
      vertex 26.59099025766973 1 31.59099025766973
      vertex 26.59099025766973 0 31.59099025766973
    endloop
  endfacet
  facet normal -0.9238795325112863 0 -0.3826834323650907
    outer loop
      vertex 26.59099025766973 1 31.59099025766973
      vertex 27.25 0 30
      vertex 26.59099025766973 0 31.59099025766973
    endloop
  endfacet
  facet normal -0.9238795325112863 0 -0.3826834323650907
    outer loop
      vertex 27.25 1 30
      vertex 27.25 0 30
      vertex 26.59099025766973 1 31.59099025766973
    endloop
  endfacet
  facet normal 0.8854560256532097 0 0.46472317204376895
    outer loop
      vertex 22.005957007315597 1 27.347509367036817
      vertex 21.116232730295792 3 29.04273734284977
      vertex 21.116232730295792 1 29.04273734284977
    endloop
  endfacet
  facet normal 0.8854560256532097 0 0.46472317204376895
    outer loop
      vertex 22.005957007315597 1 27.347509367036817
      vertex 22.005957007315597 3 27.347509367036817
      vertex 21.116232730295792 3 29.04273734284977
    endloop
  endfacet
  facet normal 1 0 0
    outer loop
      vertex 21.116232730295792 1 29.04273734284977
      vertex 21.116232730295792 3 29.04273734284977
      vertex 21.116232730295792 3 30.95726265715023
    endloop
  endfacet
  facet normal 0.5680647467311557 0 0.8229838658936565
    outer loop
      vertex 22.005957007315597 1 27.347509367036817
      vertex 23.581580451829858 3 26.25993502925834
      vertex 22.005957007315597 3 27.347509367036817
    endloop
  endfacet
  facet normal 0.5680647467311557 0 0.8229838658936565
    outer loop
      vertex 22.005957007315597 1 27.347509367036817
      vertex 23.581580451829858 1 26.25993502925834
      vertex 23.581580451829858 3 26.25993502925834
    endloop
  endfacet
  facet normal 0 1 0
    outer loop
      vertex 22.005957007315597 1 27.347509367036817
      vertex 27.272258986924623 1 26.708064536425375
      vertex 23.581580451829858 1 26.25993502925834
    endloop
  endfacet
  facet normal 0.12053668025532263 0 0.992708874098054
    outer loop
      vertex 23.581580451829858 1 26.25993502925834
      vertex 25.48214672102129 3 26.029164503607785
      vertex 23.581580451829858 3 26.25993502925834
    endloop
  endfacet
  facet normal 0.12053668025532263 0 0.992708874098054
    outer loop
      vertex 23.581580451829858 1 26.25993502925834
      vertex 25.48214672102129 1 26.029164503607785
      vertex 25.48214672102129 3 26.029164503607785
    endloop
  endfacet
  facet normal 0 1 0
    outer loop
      vertex 22.005957007315597 1 27.347509367036817
      vertex 22.75 1 30
      vertex 23.40900974233027 1 28.40900974233027
    endloop
  endfacet
  facet normal 0 1 0
    outer loop
      vertex 22.005957007315597 1 27.347509367036817
      vertex 21.116232730295792 1 29.04273734284977
      vertex 22.75 1 30
    endloop
  endfacet
  facet normal 0 1 0
    outer loop
      vertex 22.005957007315597 1 27.347509367036817
      vertex 23.40900974233027 1 28.40900974233027
      vertex 25 1 27.75
    endloop
  endfacet
  facet normal 0 1 0
    outer loop
      vertex 21.116232730295792 1 29.04273734284977
      vertex 21.116232730295792 1 30.95726265715023
      vertex 22.75 1 30
    endloop
  endfacet
  facet normal 1 0 0
    outer loop
      vertex 21.116232730295792 1 29.04273734284977
      vertex 21.116232730295792 3 30.95726265715023
      vertex 21.116232730295792 1 30.95726265715023
    endloop
  endfacet
  facet normal 0.8854560256532094 0 -0.4647231720437697
    outer loop
      vertex 21.116232730295792 1 30.95726265715023
      vertex 22.005957007315597 3 32.65249063296318
      vertex 22.005957007315597 1 32.65249063296318
    endloop
  endfacet
  facet normal 0.8854560256532094 0 -0.4647231720437697
    outer loop
      vertex 21.116232730295792 1 30.95726265715023
      vertex 21.116232730295792 3 30.95726265715023
      vertex 22.005957007315597 3 32.65249063296318
    endloop
  endfacet
  facet normal 0 1 0
    outer loop
      vertex 21.116232730295792 1 30.95726265715023
      vertex 23.40900974233027 1 31.59099025766973
      vertex 22.75 1 30
    endloop
  endfacet
  facet normal 0 1 0
    outer loop
      vertex 21.116232730295792 1 30.95726265715023
      vertex 22.005957007315597 1 32.65249063296318
      vertex 23.40900974233027 1 31.59099025766973
    endloop
  endfacet
  facet normal 0 1 0
    outer loop
      vertex 22.005957007315597 1 32.65249063296318
      vertex 25 1 32.25
      vertex 23.40900974233027 1 31.59099025766973
    endloop
  endfacet
  facet normal 0.5680647467311557 0 -0.8229838658936565
    outer loop
      vertex 22.005957007315597 1 32.65249063296318
      vertex 22.005957007315597 3 32.65249063296318
      vertex 23.581580451829858 1 33.740064970741656
    endloop
  endfacet
  facet normal 0.5680647467311557 0 -0.8229838658936565
    outer loop
      vertex 23.581580451829858 1 33.740064970741656
      vertex 22.005957007315597 3 32.65249063296318
      vertex 23.581580451829858 3 33.740064970741656
    endloop
  endfacet
  facet normal 0 1 0
    outer loop
      vertex 22.005957007315597 1 32.65249063296318
      vertex 23.581580451829858 1 33.740064970741656
      vertex 27.272258986924626 1 33.291935463574625
    endloop
  endfacet
  facet normal 0.1205366802553263 0 -0.9927088740980536
    outer loop
      vertex 23.581580451829858 1 33.740064970741656
      vertex 23.581580451829858 3 33.740064970741656
      vertex 25.48214672102129 1 33.97083549639222
    endloop
  endfacet
  facet normal 0.1205366802553263 0 -0.9927088740980536
    outer loop
      vertex 25.48214672102129 1 33.97083549639222
      vertex 23.581580451829858 3 33.740064970741656
      vertex 25.48214672102129 3 33.97083549639222
    endloop
  endfacet
  facet normal 0 1 0
    outer loop
      vertex 23.581580451829858 1 26.25993502925834
      vertex 27.272258986924623 1 26.708064536425375
      vertex 25.48214672102129 1 26.029164503607785
    endloop
  endfacet
  facet normal 0 1 0
    outer loop
      vertex 22.005957007315597 1 27.347509367036817
      vertex 28.54182410261284 1 28.141107311824925
      vertex 27.272258986924623 1 26.708064536425375
    endloop
  endfacet
  facet normal -0.3546048870425357 0 0.9350162426854148
    outer loop
      vertex 25.48214672102129 1 26.029164503607785
      vertex 27.272258986924623 3 26.708064536425375
      vertex 25.48214672102129 3 26.029164503607785
    endloop
  endfacet
  facet normal -0.3546048870425357 0 0.9350162426854148
    outer loop
      vertex 25.48214672102129 1 26.029164503607785
      vertex 27.272258986924623 1 26.708064536425375
      vertex 27.272258986924623 3 26.708064536425375
    endloop
  endfacet
  facet normal -0.7485107481711006 0 0.6631226582407957
    outer loop
      vertex 27.272258986924623 1 26.708064536425375
      vertex 28.54182410261284 1 28.141107311824925
      vertex 27.272258986924623 3 26.708064536425375
    endloop
  endfacet
  facet normal 0 1 0
    outer loop
      vertex 22.005957007315597 1 27.347509367036817
      vertex 25 1 27.75
      vertex 28.54182410261284 1 28.141107311824925
    endloop
  endfacet
  facet normal 0 1 0
    outer loop
      vertex 25 1 27.75
      vertex 26.59099025766973 1 28.40900974233027
      vertex 28.54182410261284 1 28.141107311824925
    endloop
  endfacet
  facet normal 0 1 0
    outer loop
      vertex 26.59099025766973 1 28.40900974233027
      vertex 29 1 30
      vertex 28.54182410261284 1 28.141107311824925
    endloop
  endfacet
  facet normal 0 1 0
    outer loop
      vertex 26.59099025766973 1 28.40900974233027
      vertex 27.25 1 30
      vertex 29 1 30
    endloop
  endfacet
  facet normal -0.7485107481711006 0 0.6631226582407957
    outer loop
      vertex 28.54182410261284 1 28.141107311824925
      vertex 28.54182410261284 3 28.141107311824925
      vertex 27.272258986924623 3 26.708064536425375
    endloop
  endfacet
  facet normal -0.970941817426052 0 0.23931566428755782
    outer loop
      vertex 28.54182410261284 1 28.141107311824925
      vertex 29 1 30
      vertex 28.54182410261284 3 28.141107311824925
    endloop
  endfacet
  facet normal -0.970941817426052 0 0.23931566428755782
    outer loop
      vertex 29 1 30
      vertex 29 3 30
      vertex 28.54182410261284 3 28.141107311824925
    endloop
  endfacet
  facet normal 0 1 0
    outer loop
      vertex 22.005957007315597 1 32.65249063296318
      vertex 28.54182410261284 1 31.858892688175075
      vertex 25 1 32.25
    endloop
  endfacet
  facet normal 0 1 0
    outer loop
      vertex 27.25 1 30
      vertex 26.59099025766973 1 31.59099025766973
      vertex 28.54182410261284 1 31.858892688175075
    endloop
  endfacet
  facet normal 0 1 0
    outer loop
      vertex 25 1 32.25
      vertex 28.54182410261284 1 31.858892688175075
      vertex 26.59099025766973 1 31.59099025766973
    endloop
  endfacet
  facet normal -0.7485107481711015 0 -0.6631226582407946
    outer loop
      vertex 27.272258986924626 1 33.291935463574625
      vertex 28.54182410261284 3 31.858892688175075
      vertex 28.54182410261284 1 31.858892688175075
    endloop
  endfacet
  facet normal 0 1 0
    outer loop
      vertex 23.581580451829858 1 33.740064970741656
      vertex 25.48214672102129 1 33.97083549639222
      vertex 27.272258986924626 1 33.291935463574625
    endloop
  endfacet
  facet normal 0 1 0
    outer loop
      vertex 22.005957007315597 1 32.65249063296318
      vertex 27.272258986924626 1 33.291935463574625
      vertex 28.54182410261284 1 31.858892688175075
    endloop
  endfacet
  facet normal -0.3546048870425367 0 -0.9350162426854144
    outer loop
      vertex 25.48214672102129 1 33.97083549639222
      vertex 25.48214672102129 3 33.97083549639222
      vertex 27.272258986924626 1 33.291935463574625
    endloop
  endfacet
  facet normal -0.3546048870425367 0 -0.9350162426854144
    outer loop
      vertex 27.272258986924626 1 33.291935463574625
      vertex 25.48214672102129 3 33.97083549639222
      vertex 27.272258986924626 3 33.291935463574625
    endloop
  endfacet
  facet normal -0.7485107481711015 0 -0.6631226582407946
    outer loop
      vertex 27.272258986924626 1 33.291935463574625
      vertex 27.272258986924626 3 33.291935463574625
      vertex 28.54182410261284 3 31.858892688175075
    endloop
  endfacet
  facet normal 0 1 0
    outer loop
      vertex 27.25 1 30
      vertex 28.54182410261284 1 31.858892688175075
      vertex 29 1 30
    endloop
  endfacet
  facet normal -0.970941817426052 0 -0.23931566428755782
    outer loop
      vertex 29 1 30
      vertex 28.54182410261284 1 31.858892688175075
      vertex 29 3 30
    endloop
  endfacet
  facet normal -0.970941817426052 0 -0.23931566428755782
    outer loop
      vertex 28.54182410261284 1 31.858892688175075
      vertex 28.54182410261284 3 31.858892688175075
      vertex 29 3 30
    endloop
  endfacet
endsolid OpenSCAD_Model
