solid OpenSCAD_Model
  facet normal -0.9709418174260519 -0.23931566428755793 0
    outer loop
      vertex -21.45817589738716 1.8588926881750742 0
      vertex -21 0 0
      vertex -21 0 2
    endloop
  endfacet
  facet normal -0.9709418174260519 -0.23931566428755793 0
    outer loop
      vertex -21.45817589738716 1.8588926881750742 0
      vertex -21 0 2
      vertex -21.45817589738716 1.8588926881750742 2
    endloop
  endfacet
  facet normal -0.35460488704253545 -0.9350162426854148 0
    outer loop
      vertex -23.614611928258473 3.6282812363459986 0
      vertex -23.614611928258473 3.6282812363459986 1
      vertex -24.51785327897871 3.970835496392216 0
    endloop
  endfacet
  facet normal 0.120536680255323 -0.9927088740980541 0
    outer loop
      vertex -25 3.912292285321701 0
      vertex -24.51785327897871 3.970835496392216 0
      vertex -25 3.912292285321701 2
    endloop
  endfacet
  facet normal 0.120536680255323 -0.9927088740980541 0
    outer loop
      vertex -24.51785327897871 3.970835496392216 0
      vertex -24.51785327897871 3.970835496392216 2
      vertex -25 3.912292285321701 2
    endloop
  endfacet
  facet normal -0.35460488704253545 -0.9350162426854148 0
    outer loop
      vertex -24.51785327897871 3.970835496392216 0
      vertex -23.614611928258473 3.6282812363459986 1
      vertex -24.51785327897871 3.970835496392216 2
    endloop
  endfacet
  facet normal -0.35460488704253584 -0.9350162426854146 7.854129332753441e-16
    outer loop
      vertex -23.614611928258473 3.6282812363459986 1
      vertex -23.465921210079667 3.571890285133605 1
      vertex -22.727741013075377 3.291935463574626 2
    endloop
  endfacet
  facet normal -0.3546048870425349 -0.9350162426854149 0
    outer loop
      vertex -22.727741013075377 3.291935463574626 0.4346627461903504
      vertex -22.727741013075377 3.291935463574626 2
      vertex -23.465921210079667 3.571890285133605 1
    endloop
  endfacet
  facet normal -0.35460488704253534 -0.9350162426854149 1.7396840088752984e-16
    outer loop
      vertex -23.614611928258473 3.6282812363459986 1
      vertex -22.727741013075377 3.291935463574626 2
      vertex -24.51785327897871 3.970835496392216 2
    endloop
  endfacet
  facet normal -0.7485107481711012 -0.6631226582407951 0
    outer loop
      vertex -22.26959885020544 2.774799864546461 0
      vertex -21.45817589738716 1.8588926881750742 0
      vertex -21.45817589738716 1.8588926881750742 2
    endloop
  endfacet
  facet normal -0.748510748171099 -0.6631226582407976 -2.0513668346419848e-15
    outer loop
      vertex -22.26959885020544 2.774799864546461 0
      vertex -21.45817589738716 1.8588926881750742 2
      vertex -22.401472812813527 2.9236547968721514 0.13383888595830323
    endloop
  endfacet
  facet normal -0.7485107481711011 -0.6631226582407952 4.661130263044448e-16
    outer loop
      vertex -22.401472812813527 2.9236547968721514 0.13383888595830323
      vertex -21.45817589738716 1.8588926881750742 2
      vertex -22.727741013075377 3.291935463574626 2
    endloop
  endfacet
  facet normal -0.7485107481711022 -0.6631226582407939 0
    outer loop
      vertex -22.401472812813527 2.9236547968721514 0.13383888595830323
      vertex -22.727741013075377 3.291935463574626 2
      vertex -22.727741013075377 3.291935463574626 0.4346627461903504
    endloop
  endfacet
  facet normal 0.1205366802553212 0.9927088740980543 0
    outer loop
      vertex -25 8.087707714678299 0
      vertex -24.51785327897871 8.029164503607785 2
      vertex -24.51785327897871 8.029164503607785 0
    endloop
  endfacet
  facet normal -0.35460488704253507 0.935016242685415 0
    outer loop
      vertex -24.51785327897871 8.029164503607785 0
      vertex -22.727741013075374 8.708064536425375 2
      vertex -22.727741013075374 8.708064536425375 0
    endloop
  endfacet
  facet normal 0.1205366802553212 0.9927088740980543 0
    outer loop
      vertex -25 8.087707714678299 0
      vertex -25 8.087707714678299 2
      vertex -24.51785327897871 8.029164503607785 2
    endloop
  endfacet
  facet normal -0.35460488704253507 0.935016242685415 0
    outer loop
      vertex -24.51785327897871 8.029164503607785 0
      vertex -24.51785327897871 8.029164503607785 2
      vertex -22.727741013075374 8.708064536425375 2
    endloop
  endfacet
  facet normal -0.748510748171102 0.6631226582407943 0
    outer loop
      vertex -22.727741013075374 8.708064536425375 0
      vertex -22.727741013075374 8.708064536425375 2
      vertex -21.45817589738716 10.141107311824927 0
    endloop
  endfacet
  facet normal -0.748510748171102 0.6631226582407943 0
    outer loop
      vertex -21.45817589738716 10.141107311824927 0
      vertex -22.727741013075374 8.708064536425375 2
      vertex -21.45817589738716 10.141107311824927 2
    endloop
  endfacet
  facet normal -0.9709418174260519 0.23931566428755804 0
    outer loop
      vertex -21.45817589738716 10.141107311824927 0
      vertex -21.45817589738716 10.141107311824927 2
      vertex -21 12 0
    endloop
  endfacet
  facet normal -0.9709418174260519 0.23931566428755804 0
    outer loop
      vertex -21 12 0
      vertex -21.45817589738716 10.141107311824927 2
      vertex -21 12 2
    endloop
  endfacet
  facet normal -0.970941817426052 -0.23931566428755782 0
    outer loop
      vertex -21 12 0
      vertex -21 12 2
      vertex -21.45817589738716 13.858892688175075 0
    endloop
  endfacet
  facet normal -0.970941817426052 -0.23931566428755782 0
    outer loop
      vertex -21.45817589738716 13.858892688175075 0
      vertex -21 12 2
      vertex -21.45817589738716 13.858892688175075 2
    endloop
  endfacet
  facet normal 0.1205366802553212 -0.9927088740980543 0
    outer loop
      vertex -25 15.912292285321701 0
      vertex -24.51785327897871 15.970835496392215 0
      vertex -25 15.912292285321701 2
    endloop
  endfacet
  facet normal -0.3546048870425349 -0.935016242685415 0
    outer loop
      vertex -24.51785327897871 15.970835496392215 0
      vertex -22.727741013075377 15.291935463574626 0
      vertex -24.51785327897871 15.970835496392215 2
    endloop
  endfacet
  facet normal 0.1205366802553212 -0.9927088740980543 0
    outer loop
      vertex -24.51785327897871 15.970835496392215 0
      vertex -24.51785327897871 15.970835496392215 2
      vertex -25 15.912292285321701 2
    endloop
  endfacet
  facet normal -0.3546048870425349 -0.935016242685415 0
    outer loop
      vertex -22.727741013075377 15.291935463574626 0
      vertex -22.727741013075377 15.291935463574626 2
      vertex -24.51785327897871 15.970835496392215 2
    endloop
  endfacet
  facet normal -0.7485107481711011 -0.6631226582407953 0
    outer loop
      vertex -21.45817589738716 13.858892688175075 0
      vertex -21.45817589738716 13.858892688175075 2
      vertex -22.727741013075377 15.291935463574626 0
    endloop
  endfacet
  facet normal -0.7485107481711011 -0.6631226582407953 0
    outer loop
      vertex -21.45817589738716 13.858892688175075 2
      vertex -22.727741013075377 15.291935463574626 2
      vertex -22.727741013075377 15.291935463574626 0
    endloop
  endfacet
  facet normal -0.05715339001328796 0.5802881070343738 -0.8124033498481233
    outer loop
      vertex 25 1 0
      vertex 25 2.0877077146782987 0.7769340819130706
      vertex 25.585270966048384 1.0576441587903087 0
    endloop
  endfacet
  facet normal -0.057153390013288195 0.5802881070343737 -0.8124033498481233
    outer loop
      vertex 25.585270966048384 1.0576441587903087 0
      vertex 25 2.0877077146782987 0.7769340819130706
      vertex 25.38979299628482 2.0403782760232483 0.7157050120002586
    endloop
  endfacet
  facet normal -0.16926379731364277 0.5579879605103626 -0.8124033498481231
    outer loop
      vertex 25.585270966048384 1.0576441587903087 0
      vertex 25.48214672102129 2.0291645036077837 0.6887611396629794
      vertex 26.14805029709527 1.22836140246614 0
    endloop
  endfacet
  facet normal -0.16926379731363947 0.5579879605103631 -0.8124033498481235
    outer loop
      vertex 25.585270966048384 1.0576441587903087 0
      vertex 25.38979299628482 2.0403782760232483 0.7157050120002586
      vertex 25.48214672102129 2.0291645036077837 0.6887611396629794
    endloop
  endfacet
  facet normal -0.16926379731364366 0.557987960510362 -0.8124033498481233
    outer loop
      vertex 25.48214672102129 2.0291645036077837 0.6887611396629794
      vertex 25.770974669744184 2.13870249605747 0.7038186423635031
      vertex 26.14805029709527 1.22836140246614 0
    endloop
  endfacet
  facet normal -0.2748694918074663 0.5142446495871907 -0.8124033498481236
    outer loop
      vertex 26.14805029709527 1.22836140246614 0
      vertex 26.148110478205457 2.281731242141082 0.6667540972590117
      vertex 26.666710699058807 1.5055911630923644 0
    endloop
  endfacet
  facet normal -0.27486949180746667 0.5142446495871907 -0.8124033498481235
    outer loop
      vertex 26.14805029709527 1.22836140246614 0
      vertex 25.770974669744184 2.13870249605747 0.7038186423635031
      vertex 26.148110478205457 2.281731242141082 0.6667540972590117
    endloop
  endfacet
  facet normal -0.3699121058797161 0.4507392051721059 -0.8124033498481231
    outer loop
      vertex 26.666710699058807 1.5055911630923644 0
      vertex 26.561493323824635 2.438506676175365 0.5655106884943988
      vertex 27.121320343559642 1.8786796564403572 0
    endloop
  endfacet
  facet normal -0.369912105879714 0.4507392051721065 -0.8124033498481238
    outer loop
      vertex 26.666710699058807 1.5055911630923644 0
      vertex 26.148110478205457 2.281731242141082 0.6667540972590117
      vertex 26.561493323824635 2.438506676175365 0.5655106884943988
    endloop
  endfacet
  facet normal -0.45073920517210775 0.36991210587971435 -0.812403349848123
    outer loop
      vertex 27.121320343559642 1.8786796564403572 0
      vertex 26.561493323824635 2.438506676175365 0.5655106884943988
      vertex 27.056168411940217 2.6261121911770973 0.3764766268605684
    endloop
  endfacet
  facet normal -0.4507392051721062 0.3699121058797148 -0.8124033498481236
    outer loop
      vertex 27.121320343559642 1.8786796564403572 0
      vertex 27.056168411940217 2.6261121911770973 0.3764766268605684
      vertex 27.494408836907635 2.3332893009411935 0
    endloop
  endfacet
  facet normal -0.5142446495871896 0.274869491807468 -0.8124033498481237
    outer loop
      vertex 27.056168411940217 2.6261121911770973 0.3764766268605684
      vertex 27.272258986924626 2.7080645364253755 0.2674209188336496
      vertex 27.494408836907635 2.3332893009411935 0
    endloop
  endfacet
  facet normal -0.5142446495871914 0.27486949180746645 -0.812403349848123
    outer loop
      vertex 27.272258986924626 2.7080645364253755 0.2674209188336496
      vertex 27.499569077398032 2.96464458805333 0.2103470903802241
      vertex 27.494408836907635 2.3332893009411935 0
    endloop
  endfacet
  facet normal -0.5142446495871928 0.2748694918074662 -0.8124033498481222
    outer loop
      vertex 27.494408836907635 2.3332893009411935 0
      vertex 27.499569077398032 2.96464458805333 0.2103470903802241
      vertex 27.771638597533858 2.8519497029047307 0
    endloop
  endfacet
  facet normal -0.5579879605103636 0.16926379731364405 -0.8124033498481222
    outer loop
      vertex 27.499569077398032 2.96464458805333 0.2103470903802241
      vertex 27.90490816779469 3.422177839323453 0.02727236907814697
      vertex 27.771638597533858 2.8519497029047307 0
    endloop
  endfacet
  facet normal -0.557987960510366 0.16926379731364447 -0.8124033498481206
    outer loop
      vertex 27.771638597533858 2.8519497029047307 0
      vertex 27.90490816779469 3.422177839323453 0.02727236907814697
      vertex 27.94235584120969 3.414729033951615 0
    endloop
  endfacet
  facet normal -0.5802881070343768 0.05715339001329496 -0.8124033498481207
    outer loop
      vertex 27.94235584120969 3.414729033951615 0
      vertex 27.90490816779469 3.422177839323453 0.02727236907814697
      vertex 27.947865179235972 3.4706662816553875 0
    endloop
  endfacet
  facet normal -0.5579879605103631 0.16926379731364372 -0.8124033498481227
    outer loop
      vertex -22.05764415879031 3.414729033951615 0
      vertex -22.727741013075377 3.291935463574626 0.4346627461903504
      vertex -23.43074355135483 3.687855484774195 1
    endloop
  endfacet
  facet normal -0.5579879605103614 0.1692637973136478 -0.812403349848123
    outer loop
      vertex -22.727741013075377 3.291935463574626 0.4346627461903504
      vertex -23.465921210079667 3.571890285133605 1
      vertex -23.43074355135483 3.687855484774195 1
    endloop
  endfacet
  facet normal -0.5802881070343746 0.05715339001328797 -0.8124033498481226
    outer loop
      vertex -22.05764415879031 3.414729033951615 0
      vertex -23.43074355135483 3.687855484774195 1
      vertex -23.4 4 1
    endloop
  endfacet
  facet normal 0 0 -1
    outer loop
      vertex -23.614611928258473 3.6282812363459986 1
      vertex -23.43074355135483 3.687855484774195 1
      vertex -23.465921210079667 3.571890285133605 1
    endloop
  endfacet
  facet normal 0 0 -1
    outer loop
      vertex -23.614611928258473 3.6282812363459986 1
      vertex -23.4 4 1
      vertex -23.43074355135483 3.687855484774195 1
    endloop
  endfacet
  facet normal -0.5142446495871897 0.2748694918074653 -0.8124033498481245
    outer loop
      vertex -22.26959885020544 2.774799864546461 0
      vertex -22.401472812813527 2.9236547968721514 0.13383888595830323
      vertex -22.228361402466142 2.8519497029047307 0
    endloop
  endfacet
  facet normal -0.5579879605103633 0.1692637973136453 -0.8124033498481222
    outer loop
      vertex -22.05764415879031 3.414729033951615 0
      vertex -22.401472812813527 2.9236547968721514 0.13383888595830323
      vertex -22.727741013075377 3.291935463574626 0.4346627461903504
    endloop
  endfacet
  facet normal -0.5579879605103606 0.16926379731364286 -0.8124033498481247
    outer loop
      vertex -22.228361402466142 2.8519497029047307 0
      vertex -22.401472812813527 2.9236547968721514 0.13383888595830323
      vertex -22.05764415879031 3.414729033951615 0
    endloop
  endfacet
  facet normal -0.5802881070343742 0.05715339001328967 -0.812403349848123
    outer loop
      vertex -22.05764415879031 3.414729033951615 0
      vertex -23.4 4 1
      vertex -22 4 0
    endloop
  endfacet
  facet normal -0.5802881070343746 -0.05715339001328797 -0.8124033498481226
    outer loop
      vertex -22.05764415879031 4.585270966048385 0
      vertex -23.4 4 1
      vertex -23.43074355135483 4.312144515225805 1
    endloop
  endfacet
  facet normal -0.5579879605103623 -0.1692637973136452 -0.8124033498481229
    outer loop
      vertex -22.228361402466142 5.148050297095269 0
      vertex -23.43074355135483 4.312144515225805 1
      vertex -23.52179274798194 4.612293491784143 1
    endloop
  endfacet
  facet normal 0 0 -1
    outer loop
      vertex -24.193516195619335 5.374410367441453 1
      vertex -24.111087627168637 5.330351379684073 1
      vertex -23.4 4 1
    endloop
  endfacet
  facet normal 0 0 -1
    outer loop
      vertex -23.52179274798194 4.612293491784143 1
      vertex -23.43074355135483 4.312144515225805 1
      vertex -23.4 4 1
    endloop
  endfacet
  facet normal 0 0 -1
    outer loop
      vertex -23.52179274798194 4.612293491784143 1
      vertex -23.4 4 1
      vertex -23.66964862031593 4.8889123728313635 1
    endloop
  endfacet
  facet normal 0 0 -1
    outer loop
      vertex -23.868629150101523 5.1313708498984765 1
      vertex -23.66964862031593 4.8889123728313635 1
      vertex -23.4 4 1
    endloop
  endfacet
  facet normal 0 0 -1
    outer loop
      vertex -23.868629150101523 5.1313708498984765 1
      vertex -23.4 4 1
      vertex -24.111087627168637 5.330351379684073 1
    endloop
  endfacet
  facet normal -0.16926379731364297 -0.5579879605103625 -0.8124033498481231
    outer loop
      vertex -24.414729033951616 6.942355841209691 0
      vertex -24.387706508215857 5.478207252018059 1
      vertex -24.687855484774193 5.569256448645168 1
    endloop
  endfacet
  facet normal -0.2748694918074689 -0.51424464958719 -0.812403349848123
    outer loop
      vertex -23.85194970290473 6.77163859753386 0
      vertex -24.214526569133206 5.385640646055101 1
      vertex -24.387706508215857 5.478207252018059 1
    endloop
  endfacet
  facet normal -0.2748694918074362 -0.5142446495872028 -0.8124033498481261
    outer loop
      vertex -23.85194970290473 6.77163859753386 0
      vertex -24.2 5.385640646055101 0.9950850637480798
      vertex -24.214526569133206 5.385640646055101 1
    endloop
  endfacet
  facet normal -0.27486949180743164 -0.5142446495872018 -0.8124033498481283
    outer loop
      vertex -23.85194970290473 6.77163859753386 0
      vertex -24.193516195619335 5.374410367441453 1
      vertex -24.2 5.385640646055101 0.9950850637480798
    endloop
  endfacet
  facet normal -0.27486949180746734 -0.5142446495871908 -0.812403349848123
    outer loop
      vertex -23.85194970290473 6.77163859753386 0
      vertex -24.111087627168637 5.330351379684073 1
      vertex -24.193516195619335 5.374410367441453 1
    endloop
  endfacet
  facet normal -0.5142446495871922 -0.27486949180746567 -0.812403349848123
    outer loop
      vertex -22.228361402466142 5.148050297095269 0
      vertex -23.52179274798194 4.612293491784143 1
      vertex -22.505591163092365 5.6667106990588065 0
    endloop
  endfacet
  facet normal -0.45073920517210936 -0.3699121058797126 -0.8124033498481228
    outer loop
      vertex -22.878679656440358 6.121320343559643 0
      vertex -23.66964862031593 4.8889123728313635 1
      vertex -23.868629150101523 5.1313708498984765 1
    endloop
  endfacet
  facet normal -0.5142446495871897 -0.27486949180746834 -0.8124033498481236
    outer loop
      vertex -22.505591163092365 5.6667106990588065 0
      vertex -23.52179274798194 4.612293491784143 1
      vertex -23.66964862031593 4.8889123728313635 1
    endloop
  endfacet
  facet normal -0.3699121058797161 -0.450739205172106 -0.812403349848123
    outer loop
      vertex -23.333289300941193 6.494408836907636 0
      vertex -22.878679656440358 6.121320343559643 0
      vertex -23.868629150101523 5.1313708498984765 1
    endloop
  endfacet
  facet normal -0.45073920517210636 -0.369912105879715 -0.8124033498481233
    outer loop
      vertex -22.878679656440358 6.121320343559643 0
      vertex -22.505591163092365 5.6667106990588065 0
      vertex -23.66964862031593 4.8889123728313635 1
    endloop
  endfacet
  facet normal -0.3699121058797143 -0.450739205172107 -0.8124033498481235
    outer loop
      vertex -23.333289300941193 6.494408836907636 0
      vertex -23.868629150101523 5.1313708498984765 1
      vertex -24.111087627168637 5.330351379684073 1
    endloop
  endfacet
  facet normal 0 0 -1
    outer loop
      vertex -25 5.385640646055101 1
      vertex -25 5.6 1
      vertex -24.214526569133206 5.385640646055101 1
    endloop
  endfacet
  facet normal 0 0 -1
    outer loop
      vertex -25 5.6 1
      vertex -24.687855484774193 5.569256448645168 1
      vertex -24.214526569133206 5.385640646055101 1
    endloop
  endfacet
  facet normal 0 0 -1
    outer loop
      vertex -24.687855484774193 5.569256448645168 1
      vertex -24.387706508215857 5.478207252018059 1
      vertex -24.214526569133206 5.385640646055101 1
    endloop
  endfacet
  facet normal -0.5802881070343742 -0.05715339001328967 -0.812403349848123
    outer loop
      vertex -22 4 0
      vertex -23.4 4 1
      vertex -22.05764415879031 4.585270966048385 0
    endloop
  endfacet
  facet normal -0.5579879605103633 -0.16926379731364377 -0.8124033498481228
    outer loop
      vertex -22.05764415879031 4.585270966048385 0
      vertex -23.43074355135483 4.312144515225805 1
      vertex -22.228361402466142 5.148050297095269 0
    endloop
  endfacet
  facet normal -0.057153390013287945 -0.5802881070343737 -0.8124033498481232
    outer loop
      vertex -25 7 0
      vertex -24.414729033951616 6.942355841209691 0
      vertex -24.687855484774193 5.569256448645168 1
    endloop
  endfacet
  facet normal -0.16926379731364277 -0.5579879605103626 -0.8124033498481232
    outer loop
      vertex -24.414729033951616 6.942355841209691 0
      vertex -23.85194970290473 6.77163859753386 0
      vertex -24.387706508215857 5.478207252018059 1
    endloop
  endfacet
  facet normal -0.05715339001328754 -0.5802881070343736 -0.8124033498481232
    outer loop
      vertex -25 7 0
      vertex -24.687855484774193 5.569256448645168 1
      vertex -25 5.6 1
    endloop
  endfacet
  facet normal -0.2748694918074665 -0.5142446495871912 -0.8124033498481233
    outer loop
      vertex -23.85194970290473 6.77163859753386 0
      vertex -23.333289300941193 6.494408836907636 0
      vertex -24.111087627168637 5.330351379684073 1
    endloop
  endfacet
  facet normal 0.866025403784437 -0.5000000000000029 0
    outer loop
      vertex -23.614611928258473 3.6282812363459986 0
      vertex -23.4 4 0
      vertex -23.614611928258473 3.6282812363459986 1
    endloop
  endfacet
  facet normal 0.866025403784437 -0.5000000000000029 0
    outer loop
      vertex -23.4 4 0
      vertex -23.4 4 1
      vertex -23.614611928258473 3.6282812363459986 1
    endloop
  endfacet
  facet normal 0.8660254037844385 0.5000000000000003 -3.126154934633306e-16
    outer loop
      vertex -24.2 5.385640646055101 0
      vertex -24.193516195619335 5.374410367441453 1
      vertex -23.4 4 1
    endloop
  endfacet
  facet normal 0.8660254037844384 0.5000000000000004 0
    outer loop
      vertex -24.2 5.385640646055101 0
      vertex -23.4 4 1
      vertex -23.4 4 0
    endloop
  endfacet
  facet normal 0 1 0
    outer loop
      vertex -25 5.385640646055101 0
      vertex -24.214526569133206 5.385640646055101 1
      vertex -24.2 5.385640646055101 0
    endloop
  endfacet
  facet normal 0 1 0
    outer loop
      vertex -25 5.385640646055101 0
      vertex -25 5.385640646055101 1
      vertex -24.214526569133206 5.385640646055101 1
    endloop
  endfacet
  facet normal 0.8660254037844265 0.5000000000000212 0
    outer loop
      vertex -24.2 5.385640646055101 0
      vertex -24.2 5.385640646055101 0.9950850637480798
      vertex -24.193516195619335 5.374410367441453 1
    endloop
  endfacet
  facet normal 0 1 0
    outer loop
      vertex -24.2 5.385640646055101 0
      vertex -24.214526569133206 5.385640646055101 1
      vertex -24.2 5.385640646055101 0.9950850637480798
    endloop
  endfacet
  facet normal 0 0 -1
    outer loop
      vertex -23.614611928258473 3.6282812363459986 0
      vertex -24.51785327897871 3.970835496392216 0
      vertex -23.4 4 0
    endloop
  endfacet
  facet normal 0 0 -1
    outer loop
      vertex -22.26959885020544 2.774799864546461 0
      vertex -22.228361402466142 2.8519497029047307 0
      vertex -21.45817589738716 1.8588926881750742 0
    endloop
  endfacet
  facet normal 0 0 -1
    outer loop
      vertex -25 3.912292285321701 0
      vertex -25 5.385640646055101 0
      vertex -24.51785327897871 3.970835496392216 0
    endloop
  endfacet
  facet normal 0 0 -1
    outer loop
      vertex -24.51785327897871 3.970835496392216 0
      vertex -24.2 5.385640646055101 0
      vertex -23.4 4 0
    endloop
  endfacet
  facet normal -1 0 0
    outer loop
      vertex -25 3.912292285321701 0
      vertex -25 3.912292285321701 2
      vertex -25 5.385640646055101 0
    endloop
  endfacet
  facet normal 0 0 -1
    outer loop
      vertex -24.51785327897871 3.970835496392216 0
      vertex -25 5.385640646055101 0
      vertex -24.2 5.385640646055101 0
    endloop
  endfacet
  facet normal -1 0 0
    outer loop
      vertex -25 5.385640646055101 0
      vertex -25 3.912292285321701 2
      vertex -25 5.385640646055101 1
    endloop
  endfacet
  facet normal -1 0 0
    outer loop
      vertex -25 5.385640646055101 1
      vertex -25 3.912292285321701 2
      vertex -25 5.6 1
    endloop
  endfacet
  facet normal -1 0 0
    outer loop
      vertex -25 5.6 1
      vertex -25 3.912292285321701 2
      vertex -25 8.087707714678299 2
    endloop
  endfacet
  facet normal 0 0 1
    outer loop
      vertex -25 3.912292285321701 2
      vertex -24.51785327897871 3.970835496392216 2
      vertex -25 8.087707714678299 2
    endloop
  endfacet
  facet normal 0 0 1
    outer loop
      vertex -22.727741013075377 3.291935463574626 2
      vertex -22.727741013075374 8.708064536425375 2
      vertex -24.51785327897871 3.970835496392216 2
    endloop
  endfacet
  facet normal 0 0 1
    outer loop
      vertex -22.727741013075377 3.291935463574626 2
      vertex -1.801937735804838 0 2
      vertex -22.727741013075374 8.708064536425375 2
    endloop
  endfacet
  facet normal 0 -1 0
    outer loop
      vertex -21 0 0
      vertex -1.801937735804838 0 0
      vertex -21 0 2
    endloop
  endfacet
  facet normal 0 0 -1
    outer loop
      vertex -21.45817589738716 1.8588926881750742 0
      vertex -1.801937735804838 0 0
      vertex -21 0 0
    endloop
  endfacet
  facet normal 0 0 -1
    outer loop
      vertex -22.228361402466142 2.8519497029047307 0
      vertex -0.44504186791262845 0.08091670325684154 0
      vertex -21.45817589738716 1.8588926881750742 0
    endloop
  endfacet
  facet normal 0 0 1
    outer loop
      vertex -21.45817589738716 1.8588926881750742 2
      vertex -21 0 2
      vertex -1.801937735804838 0 2
    endloop
  endfacet
  facet normal 0 0 1
    outer loop
      vertex -22.727741013075377 3.291935463574626 2
      vertex -21.45817589738716 1.8588926881750742 2
      vertex -1.801937735804838 0 2
    endloop
  endfacet
  facet normal 0 -1 0
    outer loop
      vertex -21 0 2
      vertex -1.801937735804838 0 0
      vertex -1.801937735804838 0 2
    endloop
  endfacet
  facet normal 0 0 -1
    outer loop
      vertex -21.45817589738716 1.8588926881750742 0
      vertex -1.3286155518975236 0.11509616412076877 0
      vertex -1.801937735804838 0 0
    endloop
  endfacet
  facet normal 0 0 -1
    outer loop
      vertex -21.45817589738716 1.8588926881750742 0
      vertex -0.44504186791262845 0.08091670325684154 0
      vertex -1.3286155518975236 0.11509616412076877 0
    endloop
  endfacet
  facet normal 0 0 -1
    outer loop
      vertex -22 4 0
      vertex 0 1.8482779221821866 0
      vertex -0.44504186791262845 0.08091670325684154 0
    endloop
  endfacet
  facet normal 0 0 -1
    outer loop
      vertex -22.228361402466142 2.8519497029047307 0
      vertex -22.05764415879031 3.414729033951615 0
      vertex -0.44504186791262845 0.08091670325684154 0
    endloop
  endfacet
  facet normal 0 0 -1
    outer loop
      vertex -22.05764415879031 3.414729033951615 0
      vertex -22 4 0
      vertex -0.44504186791262845 0.08091670325684154 0
    endloop
  endfacet
  facet normal 0 0 1
    outer loop
      vertex -21.45817589738716 10.141107311824927 2
      vertex -1.801937735804838 0 2
      vertex -1.801937735804838 0.8677674782351165 2
    endloop
  endfacet
  facet normal -1 0 0
    outer loop
      vertex -25 7 0
      vertex -25 5.6 1
      vertex -25 8.087707714678299 0
    endloop
  endfacet
  facet normal 0 0 -1
    outer loop
      vertex -25 7 0
      vertex -24.51785327897871 8.029164503607785 0
      vertex -24.414729033951616 6.942355841209691 0
    endloop
  endfacet
  facet normal 0 0 -1
    outer loop
      vertex -25 7 0
      vertex -25 8.087707714678299 0
      vertex -24.51785327897871 8.029164503607785 0
    endloop
  endfacet
  facet normal 0 0 -1
    outer loop
      vertex -24.414729033951616 6.942355841209691 0
      vertex -24.51785327897871 8.029164503607785 0
      vertex -22.727741013075374 8.708064536425375 0
    endloop
  endfacet
  facet normal 0 0 -1
    outer loop
      vertex -24.414729033951616 6.942355841209691 0
      vertex -22.727741013075374 8.708064536425375 0
      vertex -23.85194970290473 6.77163859753386 0
    endloop
  endfacet
  facet normal 0 0 -1
    outer loop
      vertex -23.85194970290473 6.77163859753386 0
      vertex -22.727741013075374 8.708064536425375 0
      vertex -23.333289300941193 6.494408836907636 0
    endloop
  endfacet
  facet normal 0 0 -1
    outer loop
      vertex -23.333289300941193 6.494408836907636 0
      vertex -22.727741013075374 8.708064536425375 0
      vertex -22.878679656440358 6.121320343559643 0
    endloop
  endfacet
  facet normal -1 0 0
    outer loop
      vertex -25 8.087707714678299 0
      vertex -25 5.6 1
      vertex -25 8.087707714678299 2
    endloop
  endfacet
  facet normal 0 0 1
    outer loop
      vertex -24.51785327897871 3.970835496392216 2
      vertex -24.51785327897871 8.029164503607785 2
      vertex -25 8.087707714678299 2
    endloop
  endfacet
  facet normal 0 0 1
    outer loop
      vertex -24.51785327897871 3.970835496392216 2
      vertex -22.727741013075374 8.708064536425375 2
      vertex -24.51785327897871 8.029164503607785 2
    endloop
  endfacet
  facet normal 0 0 1
    outer loop
      vertex -22.727741013075374 8.708064536425375 2
      vertex -1.801937735804838 0 2
      vertex -21.45817589738716 10.141107311824927 2
    endloop
  endfacet
  facet normal 0 0 1
    outer loop
      vertex -21.45817589738716 10.141107311824927 2
      vertex -1.801937735804838 0.8677674782351165 2
      vertex -21 12 2
    endloop
  endfacet
  facet normal 0 0 1
    outer loop
      vertex -21 12 2
      vertex -1.801937735804838 0.8677674782351165 2
      vertex -21.45817589738716 13.858892688175075 2
    endloop
  endfacet
  facet normal 0 0 1
    outer loop
      vertex -21.45817589738716 13.858892688175075 2
      vertex -1.801937735804838 0.8677674782351165 2
      vertex -22.727741013075377 15.291935463574626 2
    endloop
  endfacet
  facet normal 0 0 -1
    outer loop
      vertex -22 4 0
      vertex -22.05764415879031 4.585270966048385 0
      vertex 0 30 0
    endloop
  endfacet
  facet normal 0 0 -1
    outer loop
      vertex -22.05764415879031 4.585270966048385 0
      vertex -22.228361402466142 5.148050297095269 0
      vertex 0 30 0
    endloop
  endfacet
  facet normal 0 0 -1
    outer loop
      vertex -22.878679656440358 6.121320343559643 0
      vertex 0 30 0
      vertex -22.505591163092365 5.6667106990588065 0
    endloop
  endfacet
  facet normal 0 0 -1
    outer loop
      vertex -22.228361402466142 5.148050297095269 0
      vertex -22.505591163092365 5.6667106990588065 0
      vertex 0 30 0
    endloop
  endfacet
  facet normal 0 0 -1
    outer loop
      vertex -22 4 0
      vertex 0 30 0
      vertex 0 1.8482779221821866 0
    endloop
  endfacet
  facet normal 0 0 1
    outer loop
      vertex -25 30 2
      vertex -1.801937735804838 0.8677674782351165 2
      vertex -0.44504186791262895 1.9498558243636472 2
    endloop
  endfacet
  facet normal 0 0 -1
    outer loop
      vertex -0.44504186791262845 0.08091670325684154 0
      vertex -0.44504186791262845 0.038553373695445196 0
      vertex -1.3286155518975236 0.11509616412076877 0
    endloop
  endfacet
  facet normal 1 0 0
    outer loop
      vertex 0 30 0
      vertex 0 1.8482779221821866 2
      vertex 0 1.8482779221821866 0
    endloop
  endfacet
  facet normal 0 0 1
    outer loop
      vertex 0 30 2
      vertex -0.44504186791262895 1.9498558243636472 2
      vertex 0 1.8482779221821866 2
    endloop
  endfacet
  facet normal 0 0 1
    outer loop
      vertex -22.727741013075377 15.291935463574626 2
      vertex -1.801937735804838 0.8677674782351165 2
      vertex -25 30 2
    endloop
  endfacet
  facet normal 0 0 -1
    outer loop
      vertex -25 15.912292285321701 0
      vertex -25 30 0
      vertex -24.51785327897871 15.970835496392215 0
    endloop
  endfacet
  facet normal -1 0 0
    outer loop
      vertex -25 15.912292285321701 0
      vertex -25 15.912292285321701 2
      vertex -25 30 0
    endloop
  endfacet
  facet normal 0 0 1
    outer loop
      vertex -24.51785327897871 15.970835496392215 2
      vertex -22.727741013075377 15.291935463574626 2
      vertex -25 30 2
    endloop
  endfacet
  facet normal 0 0 1
    outer loop
      vertex -25 15.912292285321701 2
      vertex -24.51785327897871 15.970835496392215 2
      vertex -25 30 2
    endloop
  endfacet
  facet normal 0 0 -1
    outer loop
      vertex -24.51785327897871 15.970835496392215 0
      vertex 0 30 0
      vertex -22.727741013075377 15.291935463574626 0
    endloop
  endfacet
  facet normal 0 0 -1
    outer loop
      vertex -22.878679656440358 6.121320343559643 0
      vertex -22.727741013075374 8.708064536425375 0
      vertex 0 30 0
    endloop
  endfacet
  facet normal 0 0 -1
    outer loop
      vertex -22.727741013075374 8.708064536425375 0
      vertex -21.45817589738716 10.141107311824927 0
      vertex 0 30 0
    endloop
  endfacet
  facet normal 0 0 -1
    outer loop
      vertex -21.45817589738716 10.141107311824927 0
      vertex -21 12 0
      vertex 0 30 0
    endloop
  endfacet
  facet normal 0 0 -1
    outer loop
      vertex -21 12 0
      vertex -21.45817589738716 13.858892688175075 0
      vertex 0 30 0
    endloop
  endfacet
  facet normal 0 0 -1
    outer loop
      vertex -21.45817589738716 13.858892688175075 0
      vertex -22.727741013075377 15.291935463574626 0
      vertex 0 30 0
    endloop
  endfacet
  facet normal 0 0 1
    outer loop
      vertex -25 30 2
      vertex -0.44504186791262895 1.9498558243636472 2
      vertex 0 30 2
    endloop
  endfacet
  facet normal -1 0 0
    outer loop
      vertex -25 30 0
      vertex -25 15.912292285321701 2
      vertex -25 30 2
    endloop
  endfacet
  facet normal 0 0 -1
    outer loop
      vertex -24.51785327897871 15.970835496392215 0
      vertex -25 30 0
      vertex 0 30 0
    endloop
  endfacet
  facet normal 0 1 0
    outer loop
      vertex -25 30 0
      vertex -25 30 2
      vertex 0 30 0
    endloop
  endfacet
  facet normal 0 1 0
    outer loop
      vertex -25 30 2
      vertex 0 30 2
      vertex 0 30 0
    endloop
  endfacet
  facet normal 1 0 0
    outer loop
      vertex 0 30 0
      vertex 0 30 2
      vertex 0 1.8482779221821866 2
    endloop
  endfacet
  facet normal 0.1205366802553208 0.9927088740980542 0
    outer loop
      vertex 25.38979299628482 2.0403782760232483 0.7157050120002586
      vertex 25.48214672102129 2.0291645036077837 2
      vertex 25.48214672102129 2.0291645036077837 0.6887611396629794
    endloop
  endfacet
  facet normal 0.12053668025532348 0.9927088740980539 -1.9388759987252116e-16
    outer loop
      vertex 25.38979299628482 2.0403782760232483 0.7157050120002586
      vertex 25 2.0877077146782987 0.7769340819130706
      vertex 25.48214672102129 2.0291645036077837 2
    endloop
  endfacet
  facet normal 0.120536680255323 0.992708874098054 0
    outer loop
      vertex 25.48214672102129 2.0291645036077837 2
      vertex 25 2.0877077146782987 0.7769340819130706
      vertex 25 2.0877077146782987 2
    endloop
  endfacet
  facet normal -0.3546048870425363 0.9350162426854146 0
    outer loop
      vertex 25.48214672102129 2.0291645036077837 0.6887611396629794
      vertex 25.48214672102129 2.0291645036077837 2
      vertex 25.770974669744184 2.13870249605747 0.7038186423635031
    endloop
  endfacet
  facet normal -0.35460488704253623 0.9350162426854146 1.1915898989136138e-15
    outer loop
      vertex 25.770974669744184 2.13870249605747 0.7038186423635031
      vertex 27.272258986924626 2.7080645364253755 2
      vertex 26.148110478205457 2.281731242141082 0.6667540972590117
    endloop
  endfacet
  facet normal -0.35460488704253545 0.9350162426854147 2.0132414325656127e-16
    outer loop
      vertex 25.48214672102129 2.0291645036077837 2
      vertex 27.272258986924626 2.7080645364253755 2
      vertex 25.770974669744184 2.13870249605747 0.7038186423635031
    endloop
  endfacet
  facet normal -0.3546048870425354 0.9350162426854149 9.224996032505665e-17
    outer loop
      vertex 26.561493323824635 2.438506676175365 0.5655106884943988
      vertex 27.272258986924626 2.7080645364253755 2
      vertex 27.056168411940217 2.6261121911770973 0.3764766268605684
    endloop
  endfacet
  facet normal -0.35460488704253484 0.9350162426854152 0
    outer loop
      vertex 27.056168411940217 2.6261121911770973 0.3764766268605684
      vertex 27.272258986924626 2.7080645364253755 2
      vertex 27.272258986924626 2.7080645364253755 0.2674209188336496
    endloop
  endfacet
  facet normal -0.7485107481711025 0.6631226582407936 -4.037432582966292e-16
    outer loop
      vertex 27.272258986924626 2.7080645364253755 2
      vertex 27.90490816779469 3.422177839323453 0.02727236907814697
      vertex 27.499569077398032 2.96464458805333 0.2103470903802241
    endloop
  endfacet
  facet normal -0.7485107481711009 0.6631226582407953 0
    outer loop
      vertex 27.272258986924626 2.7080645364253755 0.2674209188336496
      vertex 27.272258986924626 2.7080645364253755 2
      vertex 27.499569077398032 2.96464458805333 0.2103470903802241
    endloop
  endfacet
  facet normal -0.35460488704253457 0.9350162426854152 -3.902815707877464e-16
    outer loop
      vertex 26.148110478205457 2.281731242141082 0.6667540972590117
      vertex 27.272258986924626 2.7080645364253755 2
      vertex 26.561493323824635 2.438506676175365 0.5655106884943988
    endloop
  endfacet
  facet normal -0.7485107481711009 0.6631226582407954 1.0908710376506538e-15
    outer loop
      vertex 27.272258986924626 2.7080645364253755 2
      vertex 27.947865179235972 3.4706662816553875 0
      vertex 27.90490816779469 3.422177839323453 0.02727236907814697
    endloop
  endfacet
  facet normal -0.7485107481711022 0.6631226582407941 -2.4790065923883435e-16
    outer loop
      vertex 27.272258986924626 2.7080645364253755 2
      vertex 28.54182410261284 4.141107311824927 0
      vertex 27.947865179235972 3.4706662816553875 0
    endloop
  endfacet
  facet normal -0.748510748171102 0.6631226582407943 0
    outer loop
      vertex 27.272258986924626 2.7080645364253755 2
      vertex 28.54182410261284 4.141107311824927 2
      vertex 28.54182410261284 4.141107311824927 0
    endloop
  endfacet
  facet normal -0.9709418174260519 0.23931566428755804 0
    outer loop
      vertex 28.54182410261284 4.141107311824927 0
      vertex 28.54182410261284 4.141107311824927 2
      vertex 29 6 0
    endloop
  endfacet
  facet normal -0.9709418174260519 0.23931566428755804 0
    outer loop
      vertex 29 6 0
      vertex 28.54182410261284 4.141107311824927 2
      vertex 29 6 2
    endloop
  endfacet
  facet normal 0.1205366802553212 -0.9927088740980543 0
    outer loop
      vertex 25 9.912292285321701 0
      vertex 25.48214672102129 9.970835496392215 0
      vertex 25 9.912292285321701 2
    endloop
  endfacet
  facet normal -0.3546048870425349 -0.935016242685415 0
    outer loop
      vertex 25.48214672102129 9.970835496392215 0
      vertex 27.272258986924623 9.291935463574626 0
      vertex 25.48214672102129 9.970835496392215 2
    endloop
  endfacet
  facet normal 0.1205366802553212 -0.9927088740980543 0
    outer loop
      vertex 25.48214672102129 9.970835496392215 0
      vertex 25.48214672102129 9.970835496392215 2
      vertex 25 9.912292285321701 2
    endloop
  endfacet
  facet normal -0.9709418174260519 -0.23931566428755793 0
    outer loop
      vertex 29 6 0
      vertex 29 6 2
      vertex 28.54182410261284 7.858892688175074 0
    endloop
  endfacet
  facet normal -0.9709418174260519 -0.23931566428755793 0
    outer loop
      vertex 29 6 2
      vertex 28.54182410261284 7.858892688175074 2
      vertex 28.54182410261284 7.858892688175074 0
    endloop
  endfacet
  facet normal -0.7485107481711013 -0.6631226582407951 0
    outer loop
      vertex 27.272258986924623 9.291935463574626 0
      vertex 28.54182410261284 7.858892688175074 0
      vertex 28.54182410261284 7.858892688175074 2
    endloop
  endfacet
  facet normal -0.7485107481711013 -0.6631226582407951 0
    outer loop
      vertex 27.272258986924623 9.291935463574626 0
      vertex 28.54182410261284 7.858892688175074 2
      vertex 27.272258986924623 9.291935463574626 2
    endloop
  endfacet
  facet normal -0.3546048870425349 -0.935016242685415 0
    outer loop
      vertex 27.272258986924623 9.291935463574626 0
      vertex 27.272258986924623 9.291935463574626 2
      vertex 25.48214672102129 9.970835496392215 2
    endloop
  endfacet
  facet normal -1 0 0
    outer loop
      vertex 25 0 0
      vertex 25 0 2
      vertex 25 1 0
    endloop
  endfacet
  facet normal 0 0 -1
    outer loop
      vertex 25 0 0
      vertex 25 1 0
      vertex 25.585270966048384 1.0576441587903087 0
    endloop
  endfacet
  facet normal -1 0 0
    outer loop
      vertex 25 0 2
      vertex 25 2.0877077146782987 0.7769340819130706
      vertex 25 1 0
    endloop
  endfacet
  facet normal 0 0 -1
    outer loop
      vertex 25 0 0
      vertex 25.585270966048384 1.0576441587903087 0
      vertex 26.14805029709527 1.22836140246614 0
    endloop
  endfacet
  facet normal -1 0 0
    outer loop
      vertex 25 0 2
      vertex 25 2.0877077146782987 2
      vertex 25 2.0877077146782987 0.7769340819130706
    endloop
  endfacet
  facet normal 0 0 1
    outer loop
      vertex 25 0 2
      vertex 25.48214672102129 2.0291645036077837 2
      vertex 25 2.0877077146782987 2
    endloop
  endfacet
  facet normal 0 -1 0
    outer loop
      vertex 25 0 0
      vertex 50 0 2
      vertex 25 0 2
    endloop
  endfacet
  facet normal 0 0 -1
    outer loop
      vertex 25 0 0
      vertex 26.14805029709527 1.22836140246614 0
      vertex 50 0 0
    endloop
  endfacet
  facet normal 0 0 -1
    outer loop
      vertex 26.14805029709527 1.22836140246614 0
      vertex 26.666710699058807 1.5055911630923644 0
      vertex 50 0 0
    endloop
  endfacet
  facet normal 0 0 -1
    outer loop
      vertex 26.666710699058807 1.5055911630923644 0
      vertex 27.121320343559642 1.8786796564403572 0
      vertex 50 0 0
    endloop
  endfacet
  facet normal 0 0 -1
    outer loop
      vertex 27.121320343559642 1.8786796564403572 0
      vertex 27.494408836907635 2.3332893009411935 0
      vertex 50 0 0
    endloop
  endfacet
  facet normal 0 0 -1
    outer loop
      vertex 27.494408836907635 2.3332893009411935 0
      vertex 27.771638597533858 2.8519497029047307 0
      vertex 50 0 0
    endloop
  endfacet
  facet normal 0 0 1
    outer loop
      vertex 25 0 2
      vertex 50 0 2
      vertex 25.48214672102129 2.0291645036077837 2
    endloop
  endfacet
  facet normal 0 0 1
    outer loop
      vertex 25.48214672102129 2.0291645036077837 2
      vertex 50 0 2
      vertex 27.272258986924626 2.7080645364253755 2
    endloop
  endfacet
  facet normal 0 0 -1
    outer loop
      vertex 27.771638597533858 2.8519497029047307 0
      vertex 27.94235584120969 3.414729033951615 0
      vertex 50 0 0
    endloop
  endfacet
  facet normal 0 0 -1
    outer loop
      vertex 27.94235584120969 3.414729033951615 0
      vertex 27.947865179235972 3.4706662816553875 0
      vertex 50 0 0
    endloop
  endfacet
  facet normal 0 0 -1
    outer loop
      vertex 27.947865179235972 3.4706662816553875 0
      vertex 28.54182410261284 4.141107311824927 0
      vertex 50 0 0
    endloop
  endfacet
  facet normal 0 0 -1
    outer loop
      vertex 28.54182410261284 4.141107311824927 0
      vertex 29 6 0
      vertex 50 0 0
    endloop
  endfacet
  facet normal 0 0 1
    outer loop
      vertex 27.272258986924626 2.7080645364253755 2
      vertex 50 0 2
      vertex 28.54182410261284 4.141107311824927 2
    endloop
  endfacet
  facet normal 0 0 1
    outer loop
      vertex 28.54182410261284 4.141107311824927 2
      vertex 50 0 2
      vertex 29 6 2
    endloop
  endfacet
  facet normal 0 0 1
    outer loop
      vertex 29 6 2
      vertex 50 0 2
      vertex 28.54182410261284 7.858892688175074 2
    endloop
  endfacet
  facet normal 0 0 1
    outer loop
      vertex 27.272258986924623 9.291935463574626 2
      vertex 28.54182410261284 7.858892688175074 2
      vertex 50 0 2
    endloop
  endfacet
  facet normal 0 -1 0
    outer loop
      vertex 25 0 0
      vertex 50 0 0
      vertex 50 0 2
    endloop
  endfacet
  facet normal 0 0 1
    outer loop
      vertex 27.272258986924623 9.291935463574626 2
      vertex 50 0 2
      vertex 25 30 2
    endloop
  endfacet
  facet normal 1 0 0
    outer loop
      vertex 50 0 0
      vertex 50 30 0
      vertex 50 0 2
    endloop
  endfacet
  facet normal 0 0 -1
    outer loop
      vertex 29 6 0
      vertex 50 30 0
      vertex 50 0 0
    endloop
  endfacet
  facet normal 0 0 -1
    outer loop
      vertex 25 9.912292285321701 0
      vertex 25 30 0
      vertex 25.48214672102129 9.970835496392215 0
    endloop
  endfacet
  facet normal -1 0 0
    outer loop
      vertex 25 9.912292285321701 0
      vertex 25 9.912292285321701 2
      vertex 25 30 0
    endloop
  endfacet
  facet normal 0 0 1
    outer loop
      vertex 25 9.912292285321701 2
      vertex 25.48214672102129 9.970835496392215 2
      vertex 25 30 2
    endloop
  endfacet
  facet normal 0 0 1
    outer loop
      vertex 25.48214672102129 9.970835496392215 2
      vertex 27.272258986924623 9.291935463574626 2
      vertex 25 30 2
    endloop
  endfacet
  facet normal -1 0 0
    outer loop
      vertex 25 9.912292285321701 2
      vertex 25 30 2
      vertex 25 30 0
    endloop
  endfacet
  facet normal 0 0 -1
    outer loop
      vertex 29 6 0
      vertex 28.54182410261284 7.858892688175074 0
      vertex 50 30 0
    endloop
  endfacet
  facet normal 0 0 -1
    outer loop
      vertex 27.272258986924623 9.291935463574626 0
      vertex 50 30 0
      vertex 28.54182410261284 7.858892688175074 0
    endloop
  endfacet
  facet normal 0 0 -1
    outer loop
      vertex 25.48214672102129 9.970835496392215 0
      vertex 50 30 0
      vertex 27.272258986924623 9.291935463574626 0
    endloop
  endfacet
  facet normal 0 0 1
    outer loop
      vertex 50 0 2
      vertex 50 30 2
      vertex 25 30 2
    endloop
  endfacet
  facet normal 1 0 0
    outer loop
      vertex 50 0 2
      vertex 50 30 0
      vertex 50 30 2
    endloop
  endfacet
  facet normal 0 0 -1
    outer loop
      vertex 25.48214672102129 9.970835496392215 0
      vertex 25 30 0
      vertex 50 30 0
    endloop
  endfacet
  facet normal 0 1 0
    outer loop
      vertex 25 30 0
      vertex 25 30 2
      vertex 50 30 0
    endloop
  endfacet
  facet normal 0 1 0
    outer loop
      vertex 25 30 2
      vertex 50 30 2
      vertex 50 30 0
    endloop
  endfacet
  facet normal 0 0 -1
    outer loop
      vertex -1.801937735804838 -0.8677674782351165 0
      vertex -1.801937735804838 0 0
      vertex -1.3286155518975236 0.11509616412076877 0
    endloop
  endfacet
  facet normal -1 0 0
    outer loop
      vertex -1.801937735804838 -0.8677674782351165 0
      vertex -1.801937735804838 0 2
      vertex -1.801937735804838 0 0
    endloop
  endfacet
  facet normal 0 0 -1
    outer loop
      vertex -0.44504186791262795 -1.9498558243636475 0
      vertex -1.801937735804838 -0.8677674782351165 0
      vertex -0.44504186791262845 0.038553373695445196 0
    endloop
  endfacet
  facet normal 0 0 -1
    outer loop
      vertex -1.801937735804838 -0.8677674782351165 0
      vertex -1.3286155518975236 0.11509616412076877 0
      vertex -0.44504186791262845 0.038553373695445196 0
    endloop
  endfacet
  facet normal 0 0 -1
    outer loop
      vertex -0.44504186791262795 -1.9498558243636475 0
      vertex 1.246979603717467 1.5636629649360596 0
      vertex 1.2469796037174667 -1.5636629649360598 0
    endloop
  endfacet
  facet normal 0 0 -1
    outer loop
      vertex -0.44504186791262795 -1.9498558243636475 0
      vertex -0.44504186791262845 0.038553373695445196 0
      vertex 1.246979603717467 1.5636629649360596 0
    endloop
  endfacet
  facet normal 0 0 -1
    outer loop
      vertex 1.2469796037174667 -1.5636629649360598 0
      vertex 1.246979603717467 1.5636629649360596 0
      vertex 2 0 0
    endloop
  endfacet
  facet normal 0 0 -1
    outer loop
      vertex 1.246979603717467 1.5636629649360596 0
      vertex -0.44504186791262845 0.038553373695445196 0
      vertex -0.44504186791262845 0.08091670325684154 0
    endloop
  endfacet
  facet normal 0 0 -1
    outer loop
      vertex 1.246979603717467 1.5636629649360596 0
      vertex -0.44504186791262845 0.08091670325684154 0
      vertex 0 1.8482779221821866 0
    endloop
  endfacet
  facet normal 0.2225209339563144 0.9749279121818236 0
    outer loop
      vertex 1.246979603717467 1.5636629649360596 0
      vertex 0 1.8482779221821866 0
      vertex 0 1.8482779221821866 2
    endloop
  endfacet
  facet normal -1 0 0
    outer loop
      vertex -1.801937735804838 -0.8677674782351165 0
      vertex -1.801937735804838 0.8677674782351165 32
      vertex -1.801937735804838 0 2
    endloop
  endfacet
  facet normal -0.6234898018587334 -0.7818314824680299 0
    outer loop
      vertex -0.44504186791262795 -1.9498558243636475 0
      vertex -0.44504186791262795 -1.9498558243636475 32
      vertex -1.801937735804838 -0.8677674782351165 0
    endloop
  endfacet
  facet normal 0.22252093395631456 -0.9749279121818236 0
    outer loop
      vertex -0.44504186791262795 -1.9498558243636475 0
      vertex 1.2469796037174667 -1.5636629649360598 0
      vertex 1.2469796037174667 -1.5636629649360598 32
    endloop
  endfacet
  facet normal 0.900968867902419 -0.4338837391175582 0
    outer loop
      vertex 1.2469796037174667 -1.5636629649360598 0
      vertex 2 0 0
      vertex 1.2469796037174667 -1.5636629649360598 32
    endloop
  endfacet
  facet normal 0.22252093395631437 0.9749279121818237 -2.9638774175946584e-18
    outer loop
      vertex 1.246979603717467 1.5636629649360596 0
      vertex 0 1.8482779221821866 2
      vertex -0.44504186791262895 1.9498558243636472 32
    endloop
  endfacet
  facet normal 0.9009688679024191 0.4338837391175582 0
    outer loop
      vertex 1.246979603717467 1.5636629649360596 0
      vertex 2 0 32
      vertex 2 0 0
    endloop
  endfacet
  facet normal -1 0 0
    outer loop
      vertex -1.801937735804838 0.8677674782351165 32
      vertex -1.801937735804838 0.8677674782351165 2
      vertex -1.801937735804838 0 2
    endloop
  endfacet
  facet normal -0.6234898018587336 0.7818314824680297 0
    outer loop
      vertex -0.44504186791262895 1.9498558243636472 32
      vertex -0.44504186791262895 1.9498558243636472 2
      vertex -1.801937735804838 0.8677674782351165 2
    endloop
  endfacet
  facet normal 0.22252093395631453 0.9749279121818236 0
    outer loop
      vertex -0.44504186791262895 1.9498558243636472 32
      vertex 0 1.8482779221821866 2
      vertex -0.44504186791262895 1.9498558243636472 2
    endloop
  endfacet
  facet normal -1 0 0
    outer loop
      vertex -1.801937735804838 -0.8677674782351165 0
      vertex -1.801937735804838 -0.8677674782351165 32
      vertex -1.801937735804838 0.8677674782351165 32
    endloop
  endfacet
  facet normal -0.6234898018587334 -0.7818314824680299 0
    outer loop
      vertex -1.801937735804838 -0.8677674782351165 0
      vertex -0.44504186791262795 -1.9498558243636475 32
      vertex -1.801937735804838 -0.8677674782351165 32
    endloop
  endfacet
  facet normal 0.22252093395631456 -0.9749279121818236 0
    outer loop
      vertex -0.44504186791262795 -1.9498558243636475 0
      vertex 1.2469796037174667 -1.5636629649360598 32
      vertex -0.44504186791262795 -1.9498558243636475 32
    endloop
  endfacet
  facet normal 0.900968867902419 -0.4338837391175582 0
    outer loop
      vertex 2 0 0
      vertex 2 0 32
      vertex 1.2469796037174667 -1.5636629649360598 32
    endloop
  endfacet
  facet normal 0.22252093395631442 0.9749279121818236 0
    outer loop
      vertex 1.246979603717467 1.5636629649360596 0
      vertex -0.44504186791262895 1.9498558243636472 32
      vertex 1.246979603717467 1.5636629649360596 32
    endloop
  endfacet
  facet normal 0.9009688679024191 0.4338837391175582 0
    outer loop
      vertex 1.246979603717467 1.5636629649360596 0
      vertex 1.246979603717467 1.5636629649360596 32
      vertex 2 0 32
    endloop
  endfacet
  facet normal -0.6234898018587336 0.7818314824680297 0
    outer loop
      vertex -1.801937735804838 0.8677674782351165 32
      vertex -0.44504186791262895 1.9498558243636472 32
      vertex -1.801937735804838 0.8677674782351165 2
    endloop
  endfacet
  facet normal 0 0 1
    outer loop
      vertex -0.44504186791262795 -1.9498558243636475 32
      vertex -1.801937735804838 0.8677674782351165 32
      vertex -1.801937735804838 -0.8677674782351165 32
    endloop
  endfacet
  facet normal 0 0 1
    outer loop
      vertex -0.44504186791262795 -1.9498558243636475 32
      vertex 1.2469796037174667 -1.5636629649360598 32
      vertex -0.44504186791262895 1.9498558243636472 32
    endloop
  endfacet
  facet normal 0 0 1
    outer loop
      vertex 1.2469796037174667 -1.5636629649360598 32
      vertex 2 0 32
      vertex 1.246979603717467 1.5636629649360596 32
    endloop
  endfacet
  facet normal 0 0 1
    outer loop
      vertex -0.44504186791262795 -1.9498558243636475 32
      vertex -0.44504186791262895 1.9498558243636472 32
      vertex -1.801937735804838 0.8677674782351165 32
    endloop
  endfacet
  facet normal 0 0 1
    outer loop
      vertex 1.2469796037174667 -1.5636629649360598 32
      vertex 1.246979603717467 1.5636629649360596 32
      vertex -0.44504186791262895 1.9498558243636472 32
    endloop
  endfacet
endsolid OpenSCAD_Model
