solid OpenSCAD_Model
  facet normal 0 1 0
    outer loop
      vertex -14.024999999999999 5.569999999999999 -3.1
      vertex -11.403491842064994 5.569999999999999 -2.204803160870888
      vertex -11.181708580912725 5.569999999999999 -2.309698831278217
    endloop
  endfacet
  facet normal 0 1 0
    outer loop
      vertex -14.024999999999999 5.569999999999999 -3.1
      vertex -11.181708580912725 5.569999999999999 -2.309698831278217
      vertex -10.950711693136155 5.569999999999999 -2.392350839330522
    endloop
  endfacet
  facet normal 0 1 0
    outer loop
      vertex -14.024999999999999 5.569999999999999 -3.1
      vertex -10.950711693136155 5.569999999999999 -2.392350839330522
      vertex -10.71272580504032 5.569999999999999 -2.451963201008076
    endloop
  endfacet
  facet normal 0 1 0
    outer loop
      vertex -14.024999999999999 5.569999999999999 -3.1
      vertex -10.71272580504032 5.569999999999999 -2.451963201008076
      vertex -10.470042850823901 5.569999999999999 -2.4879618166804924
    endloop
  endfacet
  facet normal 0 1 0
    outer loop
      vertex -14.024999999999999 5.569999999999999 -3.1
      vertex -10.470042850823901 5.569999999999999 -2.4879618166804924
      vertex -10.225 5.569999999999999 -2.5
    endloop
  endfacet
  facet normal 0 0 -1
    outer loop
      vertex -14.024999999999999 5.569999999999999 -3.1
      vertex -6.425 5.569999999999999 -3.1
      vertex -14.024999999999999 5.55 -3.1
    endloop
  endfacet
  facet normal 0 1 0
    outer loop
      vertex -14.024999999999999 5.569999999999999 -3.1
      vertex -10.225 5.569999999999999 -2.5
      vertex -9.979957149176098 5.569999999999999 -2.4879618166804924
    endloop
  endfacet
  facet normal 0 1 0
    outer loop
      vertex -14.024999999999999 5.569999999999999 -3.1
      vertex -9.979957149176098 5.569999999999999 -2.4879618166804924
      vertex -9.73727419495968 5.569999999999999 -2.451963201008076
    endloop
  endfacet
  facet normal -1 0 0
    outer loop
      vertex -14.024999999999999 5.569999999999999 -3.1
      vertex -14.024999999999999 5.55 -3.1
      vertex -14.024999999999999 5.55 3.1
    endloop
  endfacet
  facet normal 0 1 0
    outer loop
      vertex -14.024999999999999 5.569999999999999 -3.1
      vertex -12.429803160870888 5.569999999999999 -1.1784918420649941
      vertex -12.303674030756362 5.569999999999999 -1.3889255825490054
    endloop
  endfacet
  facet normal 0 1 0
    outer loop
      vertex -14.024999999999999 5.569999999999999 -3.1
      vertex -12.534698831278217 5.569999999999999 -0.9567085809127245
      vertex -12.429803160870888 5.569999999999999 -1.1784918420649941
    endloop
  endfacet
  facet normal 0 1 0
    outer loop
      vertex -14.024999999999999 5.569999999999999 -3.1
      vertex -12.617350839330522 5.569999999999999 -0.7257116931361558
      vertex -12.534698831278217 5.569999999999999 -0.9567085809127245
    endloop
  endfacet
  facet normal 0 1 0
    outer loop
      vertex -14.024999999999999 5.569999999999999 -3.1
      vertex -12.676963201008075 5.569999999999999 -0.4877258050403206
      vertex -12.617350839330522 5.569999999999999 -0.7257116931361558
    endloop
  endfacet
  facet normal 0 1 0
    outer loop
      vertex -14.024999999999999 5.569999999999999 -3.1
      vertex -12.712961816680492 5.569999999999999 -0.2450428508239015
      vertex -12.676963201008075 5.569999999999999 -0.4877258050403206
    endloop
  endfacet
  facet normal 0 1 0
    outer loop
      vertex -14.024999999999999 5.569999999999999 -3.1
      vertex -12.725 5.569999999999999 0
      vertex -12.712961816680492 5.569999999999999 -0.2450428508239015
    endloop
  endfacet
  facet normal 0 1 0
    outer loop
      vertex -14.024999999999999 5.569999999999999 -3.1
      vertex -12.712961816680492 5.569999999999999 0.2450428508239015
      vertex -12.725 5.569999999999999 0
    endloop
  endfacet
  facet normal 0 1 0
    outer loop
      vertex -14.024999999999999 5.569999999999999 -3.1
      vertex -12.676963201008075 5.569999999999999 0.4877258050403206
      vertex -12.712961816680492 5.569999999999999 0.2450428508239015
    endloop
  endfacet
  facet normal 0 1 0
    outer loop
      vertex -14.024999999999999 5.569999999999999 -3.1
      vertex -14.024999999999999 5.569999999999999 3.1
      vertex -12.676963201008075 5.569999999999999 0.4877258050403206
    endloop
  endfacet
  facet normal 0 1 0
    outer loop
      vertex -14.024999999999999 5.569999999999999 -3.1
      vertex -12.157526133406842 5.569999999999999 -1.5859832104091138
      vertex -11.992766952966369 5.569999999999999 -1.7677669529663689
    endloop
  endfacet
  facet normal 0 1 0
    outer loop
      vertex -14.024999999999999 5.569999999999999 -3.1
      vertex -11.810983210409113 5.569999999999999 -1.9325261334068424
      vertex -11.613925582549005 5.569999999999999 -2.078674030756363
    endloop
  endfacet
  facet normal 0 1 0
    outer loop
      vertex -14.024999999999999 5.569999999999999 -3.1
      vertex -11.992766952966369 5.569999999999999 -1.7677669529663689
      vertex -11.810983210409113 5.569999999999999 -1.9325261334068424
    endloop
  endfacet
  facet normal 0 1 0
    outer loop
      vertex -14.024999999999999 5.569999999999999 -3.1
      vertex -12.303674030756362 5.569999999999999 -1.3889255825490054
      vertex -12.157526133406842 5.569999999999999 -1.5859832104091138
    endloop
  endfacet
  facet normal 0 1 0
    outer loop
      vertex -14.024999999999999 5.569999999999999 -3.1
      vertex -11.613925582549005 5.569999999999999 -2.078674030756363
      vertex -11.403491842064994 5.569999999999999 -2.204803160870888
    endloop
  endfacet
  facet normal 0 1 0
    outer loop
      vertex -14.024999999999999 5.569999999999999 -3.1
      vertex -9.73727419495968 5.569999999999999 -2.451963201008076
      vertex -6.425 5.569999999999999 -3.1
    endloop
  endfacet
  facet normal 0 0 -1
    outer loop
      vertex -6.425 5.569999999999999 -3.1
      vertex -6.425 5.55 -3.1
      vertex -14.024999999999999 5.55 -3.1
    endloop
  endfacet
  facet normal 0 1 0
    outer loop
      vertex -9.73727419495968 5.569999999999999 -2.451963201008076
      vertex -9.499288306863845 5.569999999999999 -2.392350839330522
      vertex -6.425 5.569999999999999 -3.1
    endloop
  endfacet
  facet normal 0 1 0
    outer loop
      vertex -9.499288306863845 5.569999999999999 -2.392350839330522
      vertex -9.268291419087275 5.569999999999999 -2.309698831278217
      vertex -6.425 5.569999999999999 -3.1
    endloop
  endfacet
  facet normal 0 1 0
    outer loop
      vertex -9.268291419087275 5.569999999999999 -2.309698831278217
      vertex -9.046508157935005 5.569999999999999 -2.204803160870888
      vertex -6.425 5.569999999999999 -3.1
    endloop
  endfacet
  facet normal 0 1 0
    outer loop
      vertex -9.046508157935005 5.569999999999999 -2.204803160870888
      vertex -8.836074417450995 5.569999999999999 -2.078674030756363
      vertex -6.425 5.569999999999999 -3.1
    endloop
  endfacet
  facet normal 0 1 0
    outer loop
      vertex -8.836074417450995 5.569999999999999 -2.078674030756363
      vertex -8.639016789590887 5.569999999999999 -1.9325261334068424
      vertex -6.425 5.569999999999999 -3.1
    endloop
  endfacet
  facet normal 0 1 0
    outer loop
      vertex -8.639016789590887 5.569999999999999 -1.9325261334068424
      vertex -8.45723304703363 5.569999999999999 -1.7677669529663689
      vertex -6.425 5.569999999999999 -3.1
    endloop
  endfacet
  facet normal 0 1 0
    outer loop
      vertex -8.45723304703363 5.569999999999999 -1.7677669529663689
      vertex -8.292473866593157 5.569999999999999 -1.5859832104091138
      vertex -6.425 5.569999999999999 -3.1
    endloop
  endfacet
  facet normal 0 1 0
    outer loop
      vertex -8.292473866593157 5.569999999999999 -1.5859832104091138
      vertex -8.146325969243637 5.569999999999999 -1.3889255825490054
      vertex -6.425 5.569999999999999 -3.1
    endloop
  endfacet
  facet normal 0 1 0
    outer loop
      vertex -8.146325969243637 5.569999999999999 -1.3889255825490054
      vertex -8.020196839129111 5.569999999999999 -1.1784918420649941
      vertex -6.425 5.569999999999999 -3.1
    endloop
  endfacet
  facet normal 0 1 0
    outer loop
      vertex -8.020196839129111 5.569999999999999 -1.1784918420649941
      vertex -7.915301168721783 5.569999999999999 -0.9567085809127245
      vertex -6.425 5.569999999999999 -3.1
    endloop
  endfacet
  facet normal 0 1 0
    outer loop
      vertex -7.915301168721783 5.569999999999999 -0.9567085809127245
      vertex -7.832649160669478 5.569999999999999 -0.7257116931361558
      vertex -6.425 5.569999999999999 -3.1
    endloop
  endfacet
  facet normal -1 0 0
    outer loop
      vertex -14.024999999999999 5.569999999999999 -3.1
      vertex -14.024999999999999 5.55 3.1
      vertex -14.024999999999999 5.569999999999999 3.1
    endloop
  endfacet
  facet normal 0 1 0
    outer loop
      vertex -12.676963201008075 5.569999999999999 0.4877258050403206
      vertex -14.024999999999999 5.569999999999999 3.1
      vertex -12.617350839330522 5.569999999999999 0.7257116931361558
    endloop
  endfacet
  facet normal 0 1 0
    outer loop
      vertex -14.024999999999999 5.569999999999999 3.1
      vertex -12.534698831278217 5.569999999999999 0.9567085809127245
      vertex -12.617350839330522 5.569999999999999 0.7257116931361558
    endloop
  endfacet
  facet normal 0 1 0
    outer loop
      vertex -14.024999999999999 5.569999999999999 3.1
      vertex -12.429803160870888 5.569999999999999 1.1784918420649941
      vertex -12.534698831278217 5.569999999999999 0.9567085809127245
    endloop
  endfacet
  facet normal 0 1 0
    outer loop
      vertex -14.024999999999999 5.569999999999999 3.1
      vertex -12.303674030756362 5.569999999999999 1.3889255825490054
      vertex -12.429803160870888 5.569999999999999 1.1784918420649941
    endloop
  endfacet
  facet normal 0 1 0
    outer loop
      vertex -14.024999999999999 5.569999999999999 3.1
      vertex -12.157526133406842 5.569999999999999 1.5859832104091138
      vertex -12.303674030756362 5.569999999999999 1.3889255825490054
    endloop
  endfacet
  facet normal 0 1 0
    outer loop
      vertex -14.024999999999999 5.569999999999999 3.1
      vertex -11.992766952966369 5.569999999999999 1.7677669529663689
      vertex -12.157526133406842 5.569999999999999 1.5859832104091138
    endloop
  endfacet
  facet normal 0 1 0
    outer loop
      vertex -14.024999999999999 5.569999999999999 3.1
      vertex -11.810983210409113 5.569999999999999 1.9325261334068424
      vertex -11.992766952966369 5.569999999999999 1.7677669529663689
    endloop
  endfacet
  facet normal 0 1 0
    outer loop
      vertex -14.024999999999999 5.569999999999999 3.1
      vertex -11.613925582549005 5.569999999999999 2.078674030756363
      vertex -11.810983210409113 5.569999999999999 1.9325261334068424
    endloop
  endfacet
  facet normal 0 1 0
    outer loop
      vertex -14.024999999999999 5.569999999999999 3.1
      vertex -11.403491842064994 5.569999999999999 2.204803160870888
      vertex -11.613925582549005 5.569999999999999 2.078674030756363
    endloop
  endfacet
  facet normal 0 1 0
    outer loop
      vertex -14.024999999999999 5.569999999999999 3.1
      vertex -11.181708580912725 5.569999999999999 2.309698831278217
      vertex -11.403491842064994 5.569999999999999 2.204803160870888
    endloop
  endfacet
  facet normal 0 1 0
    outer loop
      vertex -14.024999999999999 5.569999999999999 3.1
      vertex -10.950711693136155 5.569999999999999 2.392350839330522
      vertex -11.181708580912725 5.569999999999999 2.309698831278217
    endloop
  endfacet
  facet normal 0 1 0
    outer loop
      vertex -14.024999999999999 5.569999999999999 3.1
      vertex -10.71272580504032 5.569999999999999 2.451963201008076
      vertex -10.950711693136155 5.569999999999999 2.392350839330522
    endloop
  endfacet
  facet normal 0 0 1
    outer loop
      vertex -14.024999999999999 5.569999999999999 3.1
      vertex -14.024999999999999 5.55 3.1
      vertex -6.425 5.55 3.1
    endloop
  endfacet
  facet normal 0 1 0
    outer loop
      vertex -14.024999999999999 5.569999999999999 3.1
      vertex -6.425 5.569999999999999 3.1
      vertex -10.71272580504032 5.569999999999999 2.451963201008076
    endloop
  endfacet
  facet normal 0 1 0
    outer loop
      vertex -7.832649160669478 5.569999999999999 0.7257116931361558
      vertex -7.915301168721783 5.569999999999999 0.9567085809127245
      vertex -6.425 5.569999999999999 3.1
    endloop
  endfacet
  facet normal 0 1 0
    outer loop
      vertex -8.292473866593157 5.569999999999999 1.5859832104091138
      vertex -6.425 5.569999999999999 3.1
      vertex -8.146325969243637 5.569999999999999 1.3889255825490054
    endloop
  endfacet
  facet normal 0 1 0
    outer loop
      vertex -8.020196839129111 5.569999999999999 1.1784918420649941
      vertex -8.146325969243637 5.569999999999999 1.3889255825490054
      vertex -6.425 5.569999999999999 3.1
    endloop
  endfacet
  facet normal 0 1 0
    outer loop
      vertex -7.915301168721783 5.569999999999999 0.9567085809127245
      vertex -8.020196839129111 5.569999999999999 1.1784918420649941
      vertex -6.425 5.569999999999999 3.1
    endloop
  endfacet
  facet normal 0 1 0
    outer loop
      vertex -10.71272580504032 5.569999999999999 2.451963201008076
      vertex -6.425 5.569999999999999 3.1
      vertex -10.470042850823901 5.569999999999999 2.4879618166804924
    endloop
  endfacet
  facet normal 0 1 0
    outer loop
      vertex -10.470042850823901 5.569999999999999 2.4879618166804924
      vertex -6.425 5.569999999999999 3.1
      vertex -10.225 5.569999999999999 2.5
    endloop
  endfacet
  facet normal 0 1 0
    outer loop
      vertex -10.225 5.569999999999999 2.5
      vertex -6.425 5.569999999999999 3.1
      vertex -9.979957149176098 5.569999999999999 2.4879618166804924
    endloop
  endfacet
  facet normal 0 1 0
    outer loop
      vertex -9.979957149176098 5.569999999999999 2.4879618166804924
      vertex -6.425 5.569999999999999 3.1
      vertex -9.73727419495968 5.569999999999999 2.451963201008076
    endloop
  endfacet
  facet normal 0 1 0
    outer loop
      vertex -9.73727419495968 5.569999999999999 2.451963201008076
      vertex -6.425 5.569999999999999 3.1
      vertex -9.499288306863845 5.569999999999999 2.392350839330522
    endloop
  endfacet
  facet normal 0 1 0
    outer loop
      vertex -9.499288306863845 5.569999999999999 2.392350839330522
      vertex -6.425 5.569999999999999 3.1
      vertex -9.268291419087275 5.569999999999999 2.309698831278217
    endloop
  endfacet
  facet normal 0 0 1
    outer loop
      vertex -14.024999999999999 5.569999999999999 3.1
      vertex -6.425 5.55 3.1
      vertex -6.425 5.569999999999999 3.1
    endloop
  endfacet
  facet normal 0 1 0
    outer loop
      vertex -8.836074417450995 5.569999999999999 2.078674030756363
      vertex -9.046508157935005 5.569999999999999 2.204803160870888
      vertex -6.425 5.569999999999999 3.1
    endloop
  endfacet
  facet normal 0 1 0
    outer loop
      vertex -8.639016789590887 5.569999999999999 1.9325261334068424
      vertex -6.425 5.569999999999999 3.1
      vertex -8.45723304703363 5.569999999999999 1.7677669529663689
    endloop
  endfacet
  facet normal 0 1 0
    outer loop
      vertex -8.836074417450995 5.569999999999999 2.078674030756363
      vertex -6.425 5.569999999999999 3.1
      vertex -8.639016789590887 5.569999999999999 1.9325261334068424
    endloop
  endfacet
  facet normal 0 1 0
    outer loop
      vertex -9.268291419087275 5.569999999999999 2.309698831278217
      vertex -6.425 5.569999999999999 3.1
      vertex -9.046508157935005 5.569999999999999 2.204803160870888
    endloop
  endfacet
  facet normal 0 1 0
    outer loop
      vertex -8.292473866593157 5.569999999999999 1.5859832104091138
      vertex -8.45723304703363 5.569999999999999 1.7677669529663689
      vertex -6.425 5.569999999999999 3.1
    endloop
  endfacet
  facet normal 0 1 0
    outer loop
      vertex -7.832649160669478 5.569999999999999 -0.7257116931361558
      vertex -7.773036798991924 5.569999999999999 -0.4877258050403206
      vertex -6.425 5.569999999999999 -3.1
    endloop
  endfacet
  facet normal 1 0 0
    outer loop
      vertex -6.425 5.569999999999999 -3.1
      vertex -6.425 5.569999999999999 3.1
      vertex -6.425 5.55 -3.1
    endloop
  endfacet
  facet normal 0 1 0
    outer loop
      vertex -7.773036798991924 5.569999999999999 -0.4877258050403206
      vertex -6.425 5.569999999999999 3.1
      vertex -6.425 5.569999999999999 -3.1
    endloop
  endfacet
  facet normal 0 1 0
    outer loop
      vertex -7.773036798991924 5.569999999999999 -0.4877258050403206
      vertex -7.737038183319507 5.569999999999999 -0.2450428508239015
      vertex -6.425 5.569999999999999 3.1
    endloop
  endfacet
  facet normal 0 1 0
    outer loop
      vertex -7.737038183319507 5.569999999999999 -0.2450428508239015
      vertex -7.725 5.569999999999999 0
      vertex -6.425 5.569999999999999 3.1
    endloop
  endfacet
  facet normal 0 1 0
    outer loop
      vertex -7.725 5.569999999999999 0
      vertex -7.737038183319507 5.569999999999999 0.2450428508239015
      vertex -6.425 5.569999999999999 3.1
    endloop
  endfacet
  facet normal 0 1 0
    outer loop
      vertex -7.737038183319507 5.569999999999999 0.2450428508239015
      vertex -7.773036798991924 5.569999999999999 0.4877258050403206
      vertex -6.425 5.569999999999999 3.1
    endloop
  endfacet
  facet normal 0 1 0
    outer loop
      vertex -7.773036798991924 5.569999999999999 0.4877258050403206
      vertex -7.832649160669478 5.569999999999999 0.7257116931361558
      vertex -6.425 5.569999999999999 3.1
    endloop
  endfacet
  facet normal 1 0 0
    outer loop
      vertex -6.425 5.569999999999999 3.1
      vertex -6.425 5.55 3.1
      vertex -6.425 5.55 -3.1
    endloop
  endfacet
  facet normal -1 0 0
    outer loop
      vertex -2.0250000000000004 5.569999999999999 -3.1
      vertex -2.0250000000000004 5.55 -3.1
      vertex -2.0250000000000004 5.55 3.1
    endloop
  endfacet
  facet normal 0 1 0
    outer loop
      vertex -2.0250000000000004 5.569999999999999 -3.1
      vertex -2.0250000000000004 5.569999999999999 3.1
      vertex -1.2250000000000005 5.569999999999999 -2.8
    endloop
  endfacet
  facet normal -1 0 0
    outer loop
      vertex -2.0250000000000004 5.569999999999999 -3.1
      vertex -2.0250000000000004 5.55 3.1
      vertex -2.0250000000000004 5.569999999999999 3.1
    endloop
  endfacet
  facet normal 0 1 0
    outer loop
      vertex -1.2250000000000005 5.569999999999999 -2.8
      vertex -2.0250000000000004 5.569999999999999 3.1
      vertex -1.2250000000000005 5.569999999999999 2.8
    endloop
  endfacet
  facet normal 0 0 -1
    outer loop
      vertex -2.0250000000000004 5.569999999999999 -3.1
      vertex 11.975 5.569999999999999 -3.1
      vertex -2.0250000000000004 5.55 -3.1
    endloop
  endfacet
  facet normal 0 1 0
    outer loop
      vertex -2.0250000000000004 5.569999999999999 -3.1
      vertex -1.2250000000000005 5.569999999999999 -2.8
      vertex 11.175 5.569999999999999 -2.8
    endloop
  endfacet
  facet normal 0 1 0
    outer loop
      vertex -2.0250000000000004 5.569999999999999 -3.1
      vertex 11.175 5.569999999999999 -2.8
      vertex 11.975 5.569999999999999 -3.1
    endloop
  endfacet
  facet normal 0 0 -1
    outer loop
      vertex 11.975 5.569999999999999 -3.1
      vertex 11.975 5.55 -3.1
      vertex -2.0250000000000004 5.55 -3.1
    endloop
  endfacet
  facet normal 0 0 1
    outer loop
      vertex -2.0250000000000004 5.569999999999999 3.1
      vertex -2.0250000000000004 5.55 3.1
      vertex 11.975 5.55 3.1
    endloop
  endfacet
  facet normal 0 1 0
    outer loop
      vertex -2.0250000000000004 5.569999999999999 3.1
      vertex 11.975 5.569999999999999 3.1
      vertex -1.2250000000000005 5.569999999999999 2.8
    endloop
  endfacet
  facet normal 0 1 0
    outer loop
      vertex -1.2250000000000005 5.569999999999999 2.8
      vertex 11.975 5.569999999999999 3.1
      vertex 11.175 5.569999999999999 2.8
    endloop
  endfacet
  facet normal 0 0 1
    outer loop
      vertex -2.0250000000000004 5.569999999999999 3.1
      vertex 11.975 5.55 3.1
      vertex 11.975 5.569999999999999 3.1
    endloop
  endfacet
  facet normal 0 1 0
    outer loop
      vertex 11.175 5.569999999999999 -2.8
      vertex 11.175 5.569999999999999 2.8
      vertex 11.975 5.569999999999999 -3.1
    endloop
  endfacet
  facet normal 1 0 0
    outer loop
      vertex 11.975 5.569999999999999 -3.1
      vertex 11.975 5.569999999999999 3.1
      vertex 11.975 5.55 -3.1
    endloop
  endfacet
  facet normal 0 1 0
    outer loop
      vertex 11.975 5.569999999999999 -3.1
      vertex 11.175 5.569999999999999 2.8
      vertex 11.975 5.569999999999999 3.1
    endloop
  endfacet
  facet normal 1 0 0
    outer loop
      vertex 11.975 5.569999999999999 3.1
      vertex 11.975 5.55 3.1
      vertex 11.975 5.55 -3.1
    endloop
  endfacet
  facet normal 0.9039892931234442 0 0.42755509343028025
    outer loop
      vertex -12.429803160870888 5.569999999999999 -1.1784918420649941
      vertex -12.534698831278217 5.569999999999999 -0.9567085809127245
      vertex -12.429803160870888 5.55 -1.1784918420649941
    endloop
  endfacet
  facet normal 0.9039892931234442 0 0.42755509343028025
    outer loop
      vertex -12.534698831278217 5.569999999999999 -0.9567085809127245
      vertex -12.534698831278217 5.55 -0.9567085809127245
      vertex -12.429803160870888 5.55 -1.1784918420649941
    endloop
  endfacet
  facet normal 0.8032075314806465 0 0.5956993044924312
    outer loop
      vertex -12.303674030756362 5.569999999999999 -1.3889255825490054
      vertex -12.303674030756362 5.55 -1.3889255825490054
      vertex -12.157526133406842 5.55 -1.5859832104091138
    endloop
  endfacet
  facet normal 0.8032075314806465 0 0.5956993044924312
    outer loop
      vertex -12.303674030756362 5.569999999999999 -1.3889255825490054
      vertex -12.157526133406842 5.55 -1.5859832104091138
      vertex -12.157526133406842 5.569999999999999 -1.5859832104091138
    endloop
  endfacet
  facet normal 0.7409511253549595 0 0.6715589548470178
    outer loop
      vertex -12.157526133406842 5.569999999999999 -1.5859832104091138
      vertex -12.157526133406842 5.55 -1.5859832104091138
      vertex -11.992766952966369 5.55 -1.7677669529663689
    endloop
  endfacet
  facet normal 0.7409511253549595 0 0.6715589548470178
    outer loop
      vertex -11.992766952966369 5.569999999999999 -1.7677669529663689
      vertex -12.157526133406842 5.569999999999999 -1.5859832104091138
      vertex -11.992766952966369 5.55 -1.7677669529663689
    endloop
  endfacet
  facet normal 0.8577286100002692 0 0.5141027441932265
    outer loop
      vertex -12.429803160870888 5.569999999999999 -1.1784918420649941
      vertex -12.303674030756362 5.55 -1.3889255825490054
      vertex -12.303674030756362 5.569999999999999 -1.3889255825490054
    endloop
  endfacet
  facet normal 0.8577286100002692 0 0.5141027441932265
    outer loop
      vertex -12.429803160870888 5.569999999999999 -1.1784918420649941
      vertex -12.429803160870888 5.55 -1.1784918420649941
      vertex -12.303674030756362 5.55 -1.3889255825490054
    endloop
  endfacet
  facet normal 0.5956993044924338 0 0.8032075314806445
    outer loop
      vertex -11.810983210409113 5.569999999999999 -1.9325261334068424
      vertex -11.810983210409113 5.55 -1.9325261334068424
      vertex -11.613925582549005 5.55 -2.078674030756363
    endloop
  endfacet
  facet normal 0.6715589548470166 0 0.7409511253549608
    outer loop
      vertex -11.992766952966369 5.569999999999999 -1.7677669529663689
      vertex -11.810983210409113 5.55 -1.9325261334068424
      vertex -11.810983210409113 5.569999999999999 -1.9325261334068424
    endloop
  endfacet
  facet normal 0.6715589548470166 0 0.7409511253549608
    outer loop
      vertex -11.992766952966369 5.569999999999999 -1.7677669529663689
      vertex -11.992766952966369 5.55 -1.7677669529663689
      vertex -11.810983210409113 5.55 -1.9325261334068424
    endloop
  endfacet
  facet normal 0.5956993044924338 0 0.8032075314806445
    outer loop
      vertex -11.810983210409113 5.569999999999999 -1.9325261334068424
      vertex -11.613925582549005 5.55 -2.078674030756363
      vertex -11.613925582549005 5.569999999999999 -2.078674030756363
    endloop
  endfacet
  facet normal 0.5141027441932244 0 0.8577286100002706
    outer loop
      vertex -11.613925582549005 5.569999999999999 -2.078674030756363
      vertex -11.613925582549005 5.55 -2.078674030756363
      vertex -11.403491842064994 5.55 -2.204803160870888
    endloop
  endfacet
  facet normal 0.5141027441932244 0 0.8577286100002706
    outer loop
      vertex -11.613925582549005 5.569999999999999 -2.078674030756363
      vertex -11.403491842064994 5.55 -2.204803160870888
      vertex -11.403491842064994 5.569999999999999 -2.204803160870888
    endloop
  endfacet
  facet normal 0.4275550934302813 0 0.9039892931234437
    outer loop
      vertex -11.403491842064994 5.569999999999999 -2.204803160870888
      vertex -11.403491842064994 5.55 -2.204803160870888
      vertex -11.181708580912725 5.55 -2.309698831278217
    endloop
  endfacet
  facet normal 0.3368898533922174 0 0.9415440651830217
    outer loop
      vertex -11.181708580912725 5.569999999999999 -2.309698831278217
      vertex -11.181708580912725 5.55 -2.309698831278217
      vertex -10.950711693136155 5.55 -2.392350839330522
    endloop
  endfacet
  facet normal 0.4275550934302813 0 0.9039892931234437
    outer loop
      vertex -11.403491842064994 5.569999999999999 -2.204803160870888
      vertex -11.181708580912725 5.55 -2.309698831278217
      vertex -11.181708580912725 5.569999999999999 -2.309698831278217
    endloop
  endfacet
  facet normal 0.9415440651830213 0 0.33688985339221883
    outer loop
      vertex -12.534698831278217 5.569999999999999 -0.9567085809127245
      vertex -12.617350839330522 5.569999999999999 -0.7257116931361558
      vertex -12.534698831278217 5.55 -0.9567085809127245
    endloop
  endfacet
  facet normal 0.9415440651830213 0 0.33688985339221883
    outer loop
      vertex -12.617350839330522 5.569999999999999 -0.7257116931361558
      vertex -12.617350839330522 5.55 -0.7257116931361558
      vertex -12.534698831278217 5.55 -0.9567085809127245
    endloop
  endfacet
  facet normal 0.9700312531945448 0 0.24298017990326118
    outer loop
      vertex -12.617350839330522 5.569999999999999 -0.7257116931361558
      vertex -12.676963201008075 5.569999999999999 -0.4877258050403206
      vertex -12.617350839330522 5.55 -0.7257116931361558
    endloop
  endfacet
  facet normal 0.9700312531945448 0 0.24298017990326118
    outer loop
      vertex -12.676963201008075 5.569999999999999 -0.4877258050403206
      vertex -12.676963201008075 5.55 -0.4877258050403206
      vertex -12.617350839330522 5.55 -0.7257116931361558
    endloop
  endfacet
  facet normal 0.9891765099647803 0 0.14673047445536638
    outer loop
      vertex -12.676963201008075 5.569999999999999 -0.4877258050403206
      vertex -12.712961816680492 5.569999999999999 -0.2450428508239015
      vertex -12.676963201008075 5.55 -0.4877258050403206
    endloop
  endfacet
  facet normal 0.9891765099647803 0 0.14673047445536638
    outer loop
      vertex -12.712961816680492 5.569999999999999 -0.2450428508239015
      vertex -12.712961816680492 5.55 -0.2450428508239015
      vertex -12.676963201008075 5.55 -0.4877258050403206
    endloop
  endfacet
  facet normal 0.9987954562051724 0 0.04906767432741713
    outer loop
      vertex -12.712961816680492 5.569999999999999 -0.2450428508239015
      vertex -12.725 5.569999999999999 0
      vertex -12.712961816680492 5.55 -0.2450428508239015
    endloop
  endfacet
  facet normal 0.9987954562051724 0 0.04906767432741713
    outer loop
      vertex -12.725 5.569999999999999 0
      vertex -12.725 5.55 0
      vertex -12.712961816680492 5.55 -0.2450428508239015
    endloop
  endfacet
  facet normal 0.9987954562051724 0 -0.04906767432741713
    outer loop
      vertex -12.725 5.569999999999999 0
      vertex -12.712961816680492 5.569999999999999 0.2450428508239015
      vertex -12.725 5.55 0
    endloop
  endfacet
  facet normal 0.9987954562051724 0 -0.04906767432741713
    outer loop
      vertex -12.712961816680492 5.569999999999999 0.2450428508239015
      vertex -12.712961816680492 5.55 0.2450428508239015
      vertex -12.725 5.55 0
    endloop
  endfacet
  facet normal 0.9891765099647803 0 -0.14673047445536638
    outer loop
      vertex -12.712961816680492 5.569999999999999 0.2450428508239015
      vertex -12.676963201008075 5.569999999999999 0.4877258050403206
      vertex -12.712961816680492 5.55 0.2450428508239015
    endloop
  endfacet
  facet normal 0.9891765099647803 0 -0.14673047445536638
    outer loop
      vertex -12.676963201008075 5.569999999999999 0.4877258050403206
      vertex -12.676963201008075 5.55 0.4877258050403206
      vertex -12.712961816680492 5.55 0.2450428508239015
    endloop
  endfacet
  facet normal 0.9700312531945448 0 -0.24298017990326118
    outer loop
      vertex -12.676963201008075 5.569999999999999 0.4877258050403206
      vertex -12.617350839330522 5.569999999999999 0.7257116931361558
      vertex -12.676963201008075 5.55 0.4877258050403206
    endloop
  endfacet
  facet normal 0.3368898533922174 0 0.9415440651830217
    outer loop
      vertex -11.181708580912725 5.569999999999999 -2.309698831278217
      vertex -10.950711693136155 5.55 -2.392350839330522
      vertex -10.950711693136155 5.569999999999999 -2.392350839330522
    endloop
  endfacet
  facet normal 0.2429801799032646 0 0.9700312531945439
    outer loop
      vertex -10.950711693136155 5.569999999999999 -2.392350839330522
      vertex -10.950711693136155 5.55 -2.392350839330522
      vertex -10.71272580504032 5.55 -2.451963201008076
    endloop
  endfacet
  facet normal 0.2429801799032646 0 0.9700312531945439
    outer loop
      vertex -10.950711693136155 5.569999999999999 -2.392350839330522
      vertex -10.71272580504032 5.55 -2.451963201008076
      vertex -10.71272580504032 5.569999999999999 -2.451963201008076
    endloop
  endfacet
  facet normal 0.14673047445536339 0 0.9891765099647807
    outer loop
      vertex -10.71272580504032 5.569999999999999 -2.451963201008076
      vertex -10.71272580504032 5.55 -2.451963201008076
      vertex -10.470042850823901 5.55 -2.4879618166804924
    endloop
  endfacet
  facet normal 0.14673047445536339 0 0.9891765099647807
    outer loop
      vertex -10.71272580504032 5.569999999999999 -2.451963201008076
      vertex -10.470042850823901 5.55 -2.4879618166804924
      vertex -10.470042850823901 5.569999999999999 -2.4879618166804924
    endloop
  endfacet
  facet normal 0.04906767432741707 0 0.9987954562051724
    outer loop
      vertex -10.470042850823901 5.569999999999999 -2.4879618166804924
      vertex -10.470042850823901 5.55 -2.4879618166804924
      vertex -10.225 5.55 -2.5
    endloop
  endfacet
  facet normal 0.04906767432741707 0 0.9987954562051724
    outer loop
      vertex -10.470042850823901 5.569999999999999 -2.4879618166804924
      vertex -10.225 5.55 -2.5
      vertex -10.225 5.569999999999999 -2.5
    endloop
  endfacet
  facet normal -0.04906767432741707 0 0.9987954562051724
    outer loop
      vertex -10.225 5.569999999999999 -2.5
      vertex -10.225 5.55 -2.5
      vertex -9.979957149176098 5.55 -2.4879618166804924
    endloop
  endfacet
  facet normal -0.04906767432741707 0 0.9987954562051724
    outer loop
      vertex -10.225 5.569999999999999 -2.5
      vertex -9.979957149176098 5.55 -2.4879618166804924
      vertex -9.979957149176098 5.569999999999999 -2.4879618166804924
    endloop
  endfacet
  facet normal -0.14673047445536339 0 0.9891765099647807
    outer loop
      vertex -9.979957149176098 5.569999999999999 -2.4879618166804924
      vertex -9.979957149176098 5.55 -2.4879618166804924
      vertex -9.73727419495968 5.55 -2.451963201008076
    endloop
  endfacet
  facet normal -0.14673047445536339 0 0.9891765099647807
    outer loop
      vertex -9.979957149176098 5.569999999999999 -2.4879618166804924
      vertex -9.73727419495968 5.55 -2.451963201008076
      vertex -9.73727419495968 5.569999999999999 -2.451963201008076
    endloop
  endfacet
  facet normal -0.2429801799032646 0 0.9700312531945439
    outer loop
      vertex -9.73727419495968 5.569999999999999 -2.451963201008076
      vertex -9.73727419495968 5.55 -2.451963201008076
      vertex -9.499288306863845 5.55 -2.392350839330522
    endloop
  endfacet
  facet normal -0.2429801799032646 0 0.9700312531945439
    outer loop
      vertex -9.73727419495968 5.569999999999999 -2.451963201008076
      vertex -9.499288306863845 5.55 -2.392350839330522
      vertex -9.499288306863845 5.569999999999999 -2.392350839330522
    endloop
  endfacet
  facet normal -0.3368898533922174 0 0.9415440651830217
    outer loop
      vertex -9.499288306863845 5.569999999999999 -2.392350839330522
      vertex -9.499288306863845 5.55 -2.392350839330522
      vertex -9.268291419087275 5.55 -2.309698831278217
    endloop
  endfacet
  facet normal -0.3368898533922174 0 0.9415440651830217
    outer loop
      vertex -9.499288306863845 5.569999999999999 -2.392350839330522
      vertex -9.268291419087275 5.55 -2.309698831278217
      vertex -9.268291419087275 5.569999999999999 -2.309698831278217
    endloop
  endfacet
  facet normal -0.4275550934302813 0 0.9039892931234437
    outer loop
      vertex -9.268291419087275 5.569999999999999 -2.309698831278217
      vertex -9.268291419087275 5.55 -2.309698831278217
      vertex -9.046508157935005 5.55 -2.204803160870888
    endloop
  endfacet
  facet normal -0.4275550934302813 0 0.9039892931234437
    outer loop
      vertex -9.268291419087275 5.569999999999999 -2.309698831278217
      vertex -9.046508157935005 5.55 -2.204803160870888
      vertex -9.046508157935005 5.569999999999999 -2.204803160870888
    endloop
  endfacet
  facet normal -0.5141027441932244 0 0.8577286100002706
    outer loop
      vertex -9.046508157935005 5.569999999999999 -2.204803160870888
      vertex -9.046508157935005 5.55 -2.204803160870888
      vertex -8.836074417450995 5.55 -2.078674030756363
    endloop
  endfacet
  facet normal -0.5141027441932244 0 0.8577286100002706
    outer loop
      vertex -9.046508157935005 5.569999999999999 -2.204803160870888
      vertex -8.836074417450995 5.55 -2.078674030756363
      vertex -8.836074417450995 5.569999999999999 -2.078674030756363
    endloop
  endfacet
  facet normal -0.5956993044924338 0 0.8032075314806445
    outer loop
      vertex -8.836074417450995 5.569999999999999 -2.078674030756363
      vertex -8.836074417450995 5.55 -2.078674030756363
      vertex -8.639016789590887 5.55 -1.9325261334068424
    endloop
  endfacet
  facet normal -0.5956993044924338 0 0.8032075314806445
    outer loop
      vertex -8.836074417450995 5.569999999999999 -2.078674030756363
      vertex -8.639016789590887 5.55 -1.9325261334068424
      vertex -8.639016789590887 5.569999999999999 -1.9325261334068424
    endloop
  endfacet
  facet normal -0.6715589548470166 0 0.7409511253549608
    outer loop
      vertex -8.639016789590887 5.569999999999999 -1.9325261334068424
      vertex -8.639016789590887 5.55 -1.9325261334068424
      vertex -8.45723304703363 5.55 -1.7677669529663689
    endloop
  endfacet
  facet normal -0.6715589548470166 0 0.7409511253549608
    outer loop
      vertex -8.639016789590887 5.569999999999999 -1.9325261334068424
      vertex -8.45723304703363 5.55 -1.7677669529663689
      vertex -8.45723304703363 5.569999999999999 -1.7677669529663689
    endloop
  endfacet
  facet normal -0.7409511253549595 0 0.6715589548470178
    outer loop
      vertex -8.45723304703363 5.569999999999999 -1.7677669529663689
      vertex -8.45723304703363 5.55 -1.7677669529663689
      vertex -8.292473866593157 5.55 -1.5859832104091138
    endloop
  endfacet
  facet normal -0.7409511253549595 0 0.6715589548470178
    outer loop
      vertex -8.45723304703363 5.569999999999999 -1.7677669529663689
      vertex -8.292473866593157 5.55 -1.5859832104091138
      vertex -8.292473866593157 5.569999999999999 -1.5859832104091138
    endloop
  endfacet
  facet normal -0.8032075314806465 0 0.5956993044924312
    outer loop
      vertex -8.292473866593157 5.569999999999999 -1.5859832104091138
      vertex -8.292473866593157 5.55 -1.5859832104091138
      vertex -8.146325969243637 5.55 -1.3889255825490054
    endloop
  endfacet
  facet normal -0.8032075314806465 0 0.5956993044924312
    outer loop
      vertex -8.292473866593157 5.569999999999999 -1.5859832104091138
      vertex -8.146325969243637 5.55 -1.3889255825490054
      vertex -8.146325969243637 5.569999999999999 -1.3889255825490054
    endloop
  endfacet
  facet normal -0.8577286100002692 0 0.5141027441932265
    outer loop
      vertex -8.146325969243637 5.569999999999999 -1.3889255825490054
      vertex -8.146325969243637 5.55 -1.3889255825490054
      vertex -8.020196839129111 5.55 -1.1784918420649941
    endloop
  endfacet
  facet normal -0.8577286100002692 0 0.5141027441932265
    outer loop
      vertex -8.146325969243637 5.569999999999999 -1.3889255825490054
      vertex -8.020196839129111 5.55 -1.1784918420649941
      vertex -8.020196839129111 5.569999999999999 -1.1784918420649941
    endloop
  endfacet
  facet normal -0.9039892931234442 0 0.42755509343028025
    outer loop
      vertex -8.020196839129111 5.569999999999999 -1.1784918420649941
      vertex -8.020196839129111 5.55 -1.1784918420649941
      vertex -7.915301168721783 5.55 -0.9567085809127245
    endloop
  endfacet
  facet normal -0.9039892931234442 0 0.42755509343028025
    outer loop
      vertex -8.020196839129111 5.569999999999999 -1.1784918420649941
      vertex -7.915301168721783 5.55 -0.9567085809127245
      vertex -7.915301168721783 5.569999999999999 -0.9567085809127245
    endloop
  endfacet
  facet normal -0.9415440651830213 0 0.33688985339221883
    outer loop
      vertex -7.915301168721783 5.569999999999999 -0.9567085809127245
      vertex -7.915301168721783 5.55 -0.9567085809127245
      vertex -7.832649160669478 5.55 -0.7257116931361558
    endloop
  endfacet
  facet normal -0.9415440651830213 0 0.33688985339221883
    outer loop
      vertex -7.915301168721783 5.569999999999999 -0.9567085809127245
      vertex -7.832649160669478 5.55 -0.7257116931361558
      vertex -7.832649160669478 5.569999999999999 -0.7257116931361558
    endloop
  endfacet
  facet normal -0.9700312531945439 0 0.2429801799032646
    outer loop
      vertex -7.832649160669478 5.569999999999999 -0.7257116931361558
      vertex -7.832649160669478 5.55 -0.7257116931361558
      vertex -7.773036798991924 5.55 -0.4877258050403206
    endloop
  endfacet
  facet normal -0.9700312531945439 0 0.2429801799032646
    outer loop
      vertex -7.832649160669478 5.569999999999999 -0.7257116931361558
      vertex -7.773036798991924 5.55 -0.4877258050403206
      vertex -7.773036798991924 5.569999999999999 -0.4877258050403206
    endloop
  endfacet
  facet normal -0.9891765099647809 0 0.14673047445536286
    outer loop
      vertex -7.773036798991924 5.569999999999999 -0.4877258050403206
      vertex -7.773036798991924 5.55 -0.4877258050403206
      vertex -7.737038183319507 5.55 -0.2450428508239015
    endloop
  endfacet
  facet normal -0.9891765099647809 0 0.14673047445536286
    outer loop
      vertex -7.773036798991924 5.569999999999999 -0.4877258050403206
      vertex -7.737038183319507 5.55 -0.2450428508239015
      vertex -7.737038183319507 5.569999999999999 -0.2450428508239015
    endloop
  endfacet
  facet normal -0.9987954562051724 0 0.04906767432741713
    outer loop
      vertex -7.737038183319507 5.569999999999999 -0.2450428508239015
      vertex -7.737038183319507 5.55 -0.2450428508239015
      vertex -7.725 5.55 0
    endloop
  endfacet
  facet normal -0.9987954562051724 0 0.04906767432741713
    outer loop
      vertex -7.737038183319507 5.569999999999999 -0.2450428508239015
      vertex -7.725 5.55 0
      vertex -7.725 5.569999999999999 0
    endloop
  endfacet
  facet normal -0.9987954562051724 0 -0.04906767432741713
    outer loop
      vertex -7.725 5.569999999999999 0
      vertex -7.725 5.55 0
      vertex -7.737038183319507 5.55 0.2450428508239015
    endloop
  endfacet
  facet normal -0.9987954562051724 0 -0.04906767432741713
    outer loop
      vertex -7.725 5.569999999999999 0
      vertex -7.737038183319507 5.55 0.2450428508239015
      vertex -7.737038183319507 5.569999999999999 0.2450428508239015
    endloop
  endfacet
  facet normal -0.9891765099647809 0 -0.14673047445536286
    outer loop
      vertex -7.737038183319507 5.569999999999999 0.2450428508239015
      vertex -7.737038183319507 5.55 0.2450428508239015
      vertex -7.773036798991924 5.55 0.4877258050403206
    endloop
  endfacet
  facet normal -0.9891765099647809 0 -0.14673047445536286
    outer loop
      vertex -7.737038183319507 5.569999999999999 0.2450428508239015
      vertex -7.773036798991924 5.55 0.4877258050403206
      vertex -7.773036798991924 5.569999999999999 0.4877258050403206
    endloop
  endfacet
  facet normal -0.9700312531945439 0 -0.2429801799032646
    outer loop
      vertex -7.773036798991924 5.569999999999999 0.4877258050403206
      vertex -7.773036798991924 5.55 0.4877258050403206
      vertex -7.832649160669478 5.55 0.7257116931361558
    endloop
  endfacet
  facet normal 0.9700312531945448 0 -0.24298017990326118
    outer loop
      vertex -12.617350839330522 5.569999999999999 0.7257116931361558
      vertex -12.617350839330522 5.55 0.7257116931361558
      vertex -12.676963201008075 5.55 0.4877258050403206
    endloop
  endfacet
  facet normal 0.9415440651830213 0 -0.33688985339221883
    outer loop
      vertex -12.617350839330522 5.569999999999999 0.7257116931361558
      vertex -12.534698831278217 5.569999999999999 0.9567085809127245
      vertex -12.617350839330522 5.55 0.7257116931361558
    endloop
  endfacet
  facet normal 0.9415440651830213 0 -0.33688985339221883
    outer loop
      vertex -12.534698831278217 5.569999999999999 0.9567085809127245
      vertex -12.534698831278217 5.55 0.9567085809127245
      vertex -12.617350839330522 5.55 0.7257116931361558
    endloop
  endfacet
  facet normal 0.9039892931234442 0 -0.42755509343028025
    outer loop
      vertex -12.534698831278217 5.569999999999999 0.9567085809127245
      vertex -12.429803160870888 5.569999999999999 1.1784918420649941
      vertex -12.534698831278217 5.55 0.9567085809127245
    endloop
  endfacet
  facet normal 0.9039892931234442 0 -0.42755509343028025
    outer loop
      vertex -12.429803160870888 5.569999999999999 1.1784918420649941
      vertex -12.429803160870888 5.55 1.1784918420649941
      vertex -12.534698831278217 5.55 0.9567085809127245
    endloop
  endfacet
  facet normal 0.8577286100002692 0 -0.5141027441932265
    outer loop
      vertex -12.429803160870888 5.569999999999999 1.1784918420649941
      vertex -12.303674030756362 5.569999999999999 1.3889255825490054
      vertex -12.429803160870888 5.55 1.1784918420649941
    endloop
  endfacet
  facet normal 0.8577286100002692 0 -0.5141027441932265
    outer loop
      vertex -12.303674030756362 5.569999999999999 1.3889255825490054
      vertex -12.303674030756362 5.55 1.3889255825490054
      vertex -12.429803160870888 5.55 1.1784918420649941
    endloop
  endfacet
  facet normal 0.8032075314806465 0 -0.5956993044924312
    outer loop
      vertex -12.303674030756362 5.569999999999999 1.3889255825490054
      vertex -12.157526133406842 5.569999999999999 1.5859832104091138
      vertex -12.303674030756362 5.55 1.3889255825490054
    endloop
  endfacet
  facet normal 0.8032075314806465 0 -0.5956993044924312
    outer loop
      vertex -12.157526133406842 5.569999999999999 1.5859832104091138
      vertex -12.157526133406842 5.55 1.5859832104091138
      vertex -12.303674030756362 5.55 1.3889255825490054
    endloop
  endfacet
  facet normal 0.7409511253549595 0 -0.6715589548470178
    outer loop
      vertex -12.157526133406842 5.569999999999999 1.5859832104091138
      vertex -11.992766952966369 5.569999999999999 1.7677669529663689
      vertex -12.157526133406842 5.55 1.5859832104091138
    endloop
  endfacet
  facet normal 0.7409511253549595 0 -0.6715589548470178
    outer loop
      vertex -11.992766952966369 5.569999999999999 1.7677669529663689
      vertex -11.992766952966369 5.55 1.7677669529663689
      vertex -12.157526133406842 5.55 1.5859832104091138
    endloop
  endfacet
  facet normal 0.6715589548470166 0 -0.7409511253549608
    outer loop
      vertex -11.992766952966369 5.569999999999999 1.7677669529663689
      vertex -11.810983210409113 5.569999999999999 1.9325261334068424
      vertex -11.992766952966369 5.55 1.7677669529663689
    endloop
  endfacet
  facet normal 0.6715589548470166 0 -0.7409511253549608
    outer loop
      vertex -11.810983210409113 5.569999999999999 1.9325261334068424
      vertex -11.810983210409113 5.55 1.9325261334068424
      vertex -11.992766952966369 5.55 1.7677669529663689
    endloop
  endfacet
  facet normal 0.5956993044924338 0 -0.8032075314806445
    outer loop
      vertex -11.810983210409113 5.569999999999999 1.9325261334068424
      vertex -11.613925582549005 5.569999999999999 2.078674030756363
      vertex -11.810983210409113 5.55 1.9325261334068424
    endloop
  endfacet
  facet normal 0.5956993044924338 0 -0.8032075314806445
    outer loop
      vertex -11.613925582549005 5.569999999999999 2.078674030756363
      vertex -11.613925582549005 5.55 2.078674030756363
      vertex -11.810983210409113 5.55 1.9325261334068424
    endloop
  endfacet
  facet normal 0.5141027441932244 0 -0.8577286100002706
    outer loop
      vertex -11.613925582549005 5.569999999999999 2.078674030756363
      vertex -11.403491842064994 5.569999999999999 2.204803160870888
      vertex -11.613925582549005 5.55 2.078674030756363
    endloop
  endfacet
  facet normal 0.5141027441932244 0 -0.8577286100002706
    outer loop
      vertex -11.403491842064994 5.569999999999999 2.204803160870888
      vertex -11.403491842064994 5.55 2.204803160870888
      vertex -11.613925582549005 5.55 2.078674030756363
    endloop
  endfacet
  facet normal 0.4275550934302813 0 -0.9039892931234437
    outer loop
      vertex -11.403491842064994 5.569999999999999 2.204803160870888
      vertex -11.181708580912725 5.569999999999999 2.309698831278217
      vertex -11.403491842064994 5.55 2.204803160870888
    endloop
  endfacet
  facet normal 0.4275550934302813 0 -0.9039892931234437
    outer loop
      vertex -11.181708580912725 5.569999999999999 2.309698831278217
      vertex -11.181708580912725 5.55 2.309698831278217
      vertex -11.403491842064994 5.55 2.204803160870888
    endloop
  endfacet
  facet normal 0.3368898533922174 0 -0.9415440651830217
    outer loop
      vertex -11.181708580912725 5.569999999999999 2.309698831278217
      vertex -10.950711693136155 5.569999999999999 2.392350839330522
      vertex -11.181708580912725 5.55 2.309698831278217
    endloop
  endfacet
  facet normal 0.3368898533922174 0 -0.9415440651830217
    outer loop
      vertex -10.950711693136155 5.569999999999999 2.392350839330522
      vertex -10.950711693136155 5.55 2.392350839330522
      vertex -11.181708580912725 5.55 2.309698831278217
    endloop
  endfacet
  facet normal 0.2429801799032646 0 -0.9700312531945439
    outer loop
      vertex -10.950711693136155 5.569999999999999 2.392350839330522
      vertex -10.71272580504032 5.569999999999999 2.451963201008076
      vertex -10.950711693136155 5.55 2.392350839330522
    endloop
  endfacet
  facet normal 0.2429801799032646 0 -0.9700312531945439
    outer loop
      vertex -10.71272580504032 5.569999999999999 2.451963201008076
      vertex -10.71272580504032 5.55 2.451963201008076
      vertex -10.950711693136155 5.55 2.392350839330522
    endloop
  endfacet
  facet normal 0.14673047445536339 0 -0.9891765099647807
    outer loop
      vertex -10.71272580504032 5.569999999999999 2.451963201008076
      vertex -10.470042850823901 5.569999999999999 2.4879618166804924
      vertex -10.71272580504032 5.55 2.451963201008076
    endloop
  endfacet
  facet normal 0.14673047445536339 0 -0.9891765099647807
    outer loop
      vertex -10.470042850823901 5.569999999999999 2.4879618166804924
      vertex -10.470042850823901 5.55 2.4879618166804924
      vertex -10.71272580504032 5.55 2.451963201008076
    endloop
  endfacet
  facet normal 0.04906767432741707 0 -0.9987954562051724
    outer loop
      vertex -10.470042850823901 5.569999999999999 2.4879618166804924
      vertex -10.225 5.569999999999999 2.5
      vertex -10.470042850823901 5.55 2.4879618166804924
    endloop
  endfacet
  facet normal 0.04906767432741707 0 -0.9987954562051724
    outer loop
      vertex -10.225 5.569999999999999 2.5
      vertex -10.225 5.55 2.5
      vertex -10.470042850823901 5.55 2.4879618166804924
    endloop
  endfacet
  facet normal -0.04906767432741707 0 -0.9987954562051724
    outer loop
      vertex -10.225 5.569999999999999 2.5
      vertex -9.979957149176098 5.569999999999999 2.4879618166804924
      vertex -10.225 5.55 2.5
    endloop
  endfacet
  facet normal -0.04906767432741707 0 -0.9987954562051724
    outer loop
      vertex -9.979957149176098 5.569999999999999 2.4879618166804924
      vertex -9.979957149176098 5.55 2.4879618166804924
      vertex -10.225 5.55 2.5
    endloop
  endfacet
  facet normal -0.14673047445536339 0 -0.9891765099647807
    outer loop
      vertex -9.979957149176098 5.569999999999999 2.4879618166804924
      vertex -9.73727419495968 5.569999999999999 2.451963201008076
      vertex -9.979957149176098 5.55 2.4879618166804924
    endloop
  endfacet
  facet normal -0.14673047445536339 0 -0.9891765099647807
    outer loop
      vertex -9.73727419495968 5.569999999999999 2.451963201008076
      vertex -9.73727419495968 5.55 2.451963201008076
      vertex -9.979957149176098 5.55 2.4879618166804924
    endloop
  endfacet
  facet normal -0.2429801799032646 0 -0.9700312531945439
    outer loop
      vertex -9.73727419495968 5.569999999999999 2.451963201008076
      vertex -9.499288306863845 5.569999999999999 2.392350839330522
      vertex -9.73727419495968 5.55 2.451963201008076
    endloop
  endfacet
  facet normal -0.2429801799032646 0 -0.9700312531945439
    outer loop
      vertex -9.499288306863845 5.569999999999999 2.392350839330522
      vertex -9.499288306863845 5.55 2.392350839330522
      vertex -9.73727419495968 5.55 2.451963201008076
    endloop
  endfacet
  facet normal -0.3368898533922174 0 -0.9415440651830217
    outer loop
      vertex -9.499288306863845 5.569999999999999 2.392350839330522
      vertex -9.268291419087275 5.569999999999999 2.309698831278217
      vertex -9.499288306863845 5.55 2.392350839330522
    endloop
  endfacet
  facet normal -0.3368898533922174 0 -0.9415440651830217
    outer loop
      vertex -9.268291419087275 5.569999999999999 2.309698831278217
      vertex -9.268291419087275 5.55 2.309698831278217
      vertex -9.499288306863845 5.55 2.392350839330522
    endloop
  endfacet
  facet normal -0.5956993044924338 0 -0.8032075314806445
    outer loop
      vertex -8.836074417450995 5.569999999999999 2.078674030756363
      vertex -8.639016789590887 5.569999999999999 1.9325261334068424
      vertex -8.836074417450995 5.55 2.078674030756363
    endloop
  endfacet
  facet normal -0.7409511253549595 0 -0.6715589548470178
    outer loop
      vertex -8.292473866593157 5.569999999999999 1.5859832104091138
      vertex -8.45723304703363 5.55 1.7677669529663689
      vertex -8.45723304703363 5.569999999999999 1.7677669529663689
    endloop
  endfacet
  facet normal -0.7409511253549595 0 -0.6715589548470178
    outer loop
      vertex -8.292473866593157 5.569999999999999 1.5859832104091138
      vertex -8.292473866593157 5.55 1.5859832104091138
      vertex -8.45723304703363 5.55 1.7677669529663689
    endloop
  endfacet
  facet normal -0.6715589548470166 0 -0.7409511253549608
    outer loop
      vertex -8.45723304703363 5.569999999999999 1.7677669529663689
      vertex -8.45723304703363 5.55 1.7677669529663689
      vertex -8.639016789590887 5.55 1.9325261334068424
    endloop
  endfacet
  facet normal -0.6715589548470166 0 -0.7409511253549608
    outer loop
      vertex -8.639016789590887 5.569999999999999 1.9325261334068424
      vertex -8.45723304703363 5.569999999999999 1.7677669529663689
      vertex -8.639016789590887 5.55 1.9325261334068424
    endloop
  endfacet
  facet normal -0.5956993044924338 0 -0.8032075314806445
    outer loop
      vertex -8.639016789590887 5.569999999999999 1.9325261334068424
      vertex -8.639016789590887 5.55 1.9325261334068424
      vertex -8.836074417450995 5.55 2.078674030756363
    endloop
  endfacet
  facet normal -0.9415440651830213 0 -0.33688985339221883
    outer loop
      vertex -7.832649160669478 5.569999999999999 0.7257116931361558
      vertex -7.832649160669478 5.55 0.7257116931361558
      vertex -7.915301168721783 5.55 0.9567085809127245
    endloop
  endfacet
  facet normal -0.9415440651830213 0 -0.33688985339221883
    outer loop
      vertex -7.832649160669478 5.569999999999999 0.7257116931361558
      vertex -7.915301168721783 5.55 0.9567085809127245
      vertex -7.915301168721783 5.569999999999999 0.9567085809127245
    endloop
  endfacet
  facet normal -0.8577286100002692 0 -0.5141027441932265
    outer loop
      vertex -8.020196839129111 5.569999999999999 1.1784918420649941
      vertex -8.020196839129111 5.55 1.1784918420649941
      vertex -8.146325969243637 5.55 1.3889255825490054
    endloop
  endfacet
  facet normal -0.8577286100002692 0 -0.5141027441932265
    outer loop
      vertex -8.020196839129111 5.569999999999999 1.1784918420649941
      vertex -8.146325969243637 5.55 1.3889255825490054
      vertex -8.146325969243637 5.569999999999999 1.3889255825490054
    endloop
  endfacet
  facet normal -0.9039892931234442 0 -0.42755509343028025
    outer loop
      vertex -7.915301168721783 5.569999999999999 0.9567085809127245
      vertex -7.915301168721783 5.55 0.9567085809127245
      vertex -8.020196839129111 5.55 1.1784918420649941
    endloop
  endfacet
  facet normal -0.9039892931234442 0 -0.42755509343028025
    outer loop
      vertex -7.915301168721783 5.569999999999999 0.9567085809127245
      vertex -8.020196839129111 5.55 1.1784918420649941
      vertex -8.020196839129111 5.569999999999999 1.1784918420649941
    endloop
  endfacet
  facet normal -0.9700312531945439 0 -0.2429801799032646
    outer loop
      vertex -7.773036798991924 5.569999999999999 0.4877258050403206
      vertex -7.832649160669478 5.55 0.7257116931361558
      vertex -7.832649160669478 5.569999999999999 0.7257116931361558
    endloop
  endfacet
  facet normal -0.8032075314806465 0 -0.5956993044924312
    outer loop
      vertex -8.292473866593157 5.569999999999999 1.5859832104091138
      vertex -8.146325969243637 5.569999999999999 1.3889255825490054
      vertex -8.292473866593157 5.55 1.5859832104091138
    endloop
  endfacet
  facet normal -0.8032075314806465 0 -0.5956993044924312
    outer loop
      vertex -8.146325969243637 5.569999999999999 1.3889255825490054
      vertex -8.146325969243637 5.55 1.3889255825490054
      vertex -8.292473866593157 5.55 1.5859832104091138
    endloop
  endfacet
  facet normal -0.4275550934302813 0 -0.9039892931234437
    outer loop
      vertex -9.268291419087275 5.569999999999999 2.309698831278217
      vertex -9.046508157935005 5.569999999999999 2.204803160870888
      vertex -9.268291419087275 5.55 2.309698831278217
    endloop
  endfacet
  facet normal -0.4275550934302813 0 -0.9039892931234437
    outer loop
      vertex -9.046508157935005 5.569999999999999 2.204803160870888
      vertex -9.046508157935005 5.55 2.204803160870888
      vertex -9.268291419087275 5.55 2.309698831278217
    endloop
  endfacet
  facet normal -0.5141027441932244 0 -0.8577286100002706
    outer loop
      vertex -8.836074417450995 5.569999999999999 2.078674030756363
      vertex -9.046508157935005 5.55 2.204803160870888
      vertex -9.046508157935005 5.569999999999999 2.204803160870888
    endloop
  endfacet
  facet normal -0.5141027441932244 0 -0.8577286100002706
    outer loop
      vertex -8.836074417450995 5.569999999999999 2.078674030756363
      vertex -8.836074417450995 5.55 2.078674030756363
      vertex -9.046508157935005 5.55 2.204803160870888
    endloop
  endfacet
  facet normal 1 0 0
    outer loop
      vertex -1.2250000000000005 5.569999999999999 -2.8
      vertex -1.2250000000000005 5.569999999999999 2.8
      vertex -1.2250000000000005 5.55 -2.8
    endloop
  endfacet
  facet normal 1 0 0
    outer loop
      vertex -1.2250000000000005 5.569999999999999 2.8
      vertex -1.2250000000000005 5.55 2.8
      vertex -1.2250000000000005 5.55 -2.8
    endloop
  endfacet
  facet normal 0 0 1
    outer loop
      vertex -1.2250000000000005 5.569999999999999 -2.8
      vertex -1.2250000000000005 5.55 -2.8
      vertex 11.175 5.55 -2.8
    endloop
  endfacet
  facet normal 0 0 1
    outer loop
      vertex -1.2250000000000005 5.569999999999999 -2.8
      vertex 11.175 5.55 -2.8
      vertex 11.175 5.569999999999999 -2.8
    endloop
  endfacet
  facet normal 0 0 -1
    outer loop
      vertex -1.2250000000000005 5.569999999999999 2.8
      vertex 11.175 5.569999999999999 2.8
      vertex -1.2250000000000005 5.55 2.8
    endloop
  endfacet
  facet normal 0 0 -1
    outer loop
      vertex 11.175 5.569999999999999 2.8
      vertex 11.175 5.55 2.8
      vertex -1.2250000000000005 5.55 2.8
    endloop
  endfacet
  facet normal -1 0 0
    outer loop
      vertex 11.175 5.569999999999999 -2.8
      vertex 11.175 5.55 -2.8
      vertex 11.175 5.55 2.8
    endloop
  endfacet
  facet normal -1 0 0
    outer loop
      vertex 11.175 5.569999999999999 -2.8
      vertex 11.175 5.55 2.8
      vertex 11.175 5.569999999999999 2.8
    endloop
  endfacet
  facet normal 0 -1 0
    outer loop
      vertex -2.84 -0.3 -17.95
      vertex -2.24 -0.3 -17.95
      vertex -2.24 -0.3 -14.95
    endloop
  endfacet
  facet normal 0 -1 0
    outer loop
      vertex -2.84 -0.3 -17.95
      vertex -2.24 -0.3 -14.95
      vertex -2.84 -0.3 -14.95
    endloop
  endfacet
  facet normal 0 -1 0
    outer loop
      vertex -0.3 -0.3 -17.95
      vertex 0.3 -0.3 -14.95
      vertex -0.3 -0.3 -14.95
    endloop
  endfacet
  facet normal -1 0 0
    outer loop
      vertex -2.84 -0.3 -17.95
      vertex -2.84 0.3 -14.95
      vertex -2.84 0.3 -17.95
    endloop
  endfacet
  facet normal 0 0 -1
    outer loop
      vertex -2.84 -0.3 -17.95
      vertex -2.24 0.3 -17.95
      vertex -2.24 -0.3 -17.95
    endloop
  endfacet
  facet normal 0 0 -1
    outer loop
      vertex -2.84 -0.3 -17.95
      vertex -2.84 0.3 -17.95
      vertex -2.24 0.3 -17.95
    endloop
  endfacet
  facet normal 1 0 0
    outer loop
      vertex -2.24 -0.3 -17.95
      vertex -2.24 0.3 -17.95
      vertex -2.24 -0.3 -14.95
    endloop
  endfacet
  facet normal 0 1 0
    outer loop
      vertex -2.84 0.3 -17.95
      vertex -2.84 0.3 -14.95
      vertex -2.24 0.3 -17.95
    endloop
  endfacet
  facet normal -1 0 0
    outer loop
      vertex -2.84 -0.3 -17.95
      vertex -2.84 -0.3 -14.95
      vertex -2.84 0.3 -14.95
    endloop
  endfacet
  facet normal 1 0 0
    outer loop
      vertex -2.24 -0.3 -14.95
      vertex -2.24 0.3 -17.95
      vertex -2.24 0.3 -14.95
    endloop
  endfacet
  facet normal 0 1 0
    outer loop
      vertex -2.24 0.3 -17.95
      vertex -2.84 0.3 -14.95
      vertex -2.24 0.3 -14.95
    endloop
  endfacet
  facet normal 0 0 -1
    outer loop
      vertex -0.3 -0.3 -17.95
      vertex -0.3 0.3 -17.95
      vertex 0.3 0.3 -17.95
    endloop
  endfacet
  facet normal -1 0 0
    outer loop
      vertex -0.3 -0.3 -17.95
      vertex -0.3 0.3 -14.95
      vertex -0.3 0.3 -17.95
    endloop
  endfacet
  facet normal 0 1 0
    outer loop
      vertex -0.3 0.3 -17.95
      vertex -0.3 0.3 -14.95
      vertex 0.3 0.3 -17.95
    endloop
  endfacet
  facet normal -1 0 0
    outer loop
      vertex -0.3 -0.3 -17.95
      vertex -0.3 -0.3 -14.95
      vertex -0.3 0.3 -14.95
    endloop
  endfacet
  facet normal 0 -1 0
    outer loop
      vertex -0.3 -0.3 -17.95
      vertex 0.3 -0.3 -17.95
      vertex 0.3 -0.3 -14.95
    endloop
  endfacet
  facet normal 0 -1 0
    outer loop
      vertex 2.24 -0.3 -17.95
      vertex 2.84 -0.3 -17.95
      vertex 2.84 -0.3 -14.95
    endloop
  endfacet
  facet normal 0 -1 0
    outer loop
      vertex 2.24 -0.3 -17.95
      vertex 2.84 -0.3 -14.95
      vertex 2.24 -0.3 -14.95
    endloop
  endfacet
  facet normal 0 0 -1
    outer loop
      vertex -0.3 -0.3 -17.95
      vertex 0.3 0.3 -17.95
      vertex 0.3 -0.3 -17.95
    endloop
  endfacet
  facet normal 1 0 0
    outer loop
      vertex 0.3 -0.3 -17.95
      vertex 0.3 0.3 -17.95
      vertex 0.3 -0.3 -14.95
    endloop
  endfacet
  facet normal 1 0 0
    outer loop
      vertex 0.3 -0.3 -14.95
      vertex 0.3 0.3 -17.95
      vertex 0.3 0.3 -14.95
    endloop
  endfacet
  facet normal 0 1 0
    outer loop
      vertex -0.3 0.3 -14.95
      vertex 0.3 0.3 -14.95
      vertex 0.3 0.3 -17.95
    endloop
  endfacet
  facet normal 0 0 -1
    outer loop
      vertex 2.24 -0.3 -17.95
      vertex 2.84 0.3 -17.95
      vertex 2.84 -0.3 -17.95
    endloop
  endfacet
  facet normal 0 0 -1
    outer loop
      vertex 2.24 -0.3 -17.95
      vertex 2.24 0.3 -17.95
      vertex 2.84 0.3 -17.95
    endloop
  endfacet
  facet normal -1 0 0
    outer loop
      vertex 2.24 -0.3 -17.95
      vertex 2.24 0.3 -14.95
      vertex 2.24 0.3 -17.95
    endloop
  endfacet
  facet normal 0 1 0
    outer loop
      vertex 2.24 0.3 -17.95
      vertex 2.24 0.3 -14.95
      vertex 2.84 0.3 -17.95
    endloop
  endfacet
  facet normal 1 0 0
    outer loop
      vertex 2.84 -0.3 -17.95
      vertex 2.84 0.3 -17.95
      vertex 2.84 -0.3 -14.95
    endloop
  endfacet
  facet normal -1 0 0
    outer loop
      vertex 2.24 -0.3 -17.95
      vertex 2.24 -0.3 -14.95
      vertex 2.24 0.3 -14.95
    endloop
  endfacet
  facet normal 0 1 0
    outer loop
      vertex 2.84 0.3 -17.95
      vertex 2.24 0.3 -14.95
      vertex 2.84 0.3 -14.95
    endloop
  endfacet
  facet normal 1 0 0
    outer loop
      vertex 2.84 -0.3 -14.95
      vertex 2.84 0.3 -17.95
      vertex 2.84 0.3 -14.95
    endloop
  endfacet
  facet normal 0 0 -1
    outer loop
      vertex -14.725 -3.55 -6.75
      vertex -14.725 3.55 -6.75
      vertex -5.05 1.65 -6.75
    endloop
  endfacet
  facet normal 0 0 -1
    outer loop
      vertex -14.725 -3.55 -6.75
      vertex -5.05 1.65 -6.75
      vertex -5.05 -1.65 -6.75
    endloop
  endfacet
  facet normal 0 0 -1
    outer loop
      vertex -14.725 -3.55 -6.75
      vertex -5.05 -1.65 -6.75
      vertex 5.05 -1.65 -6.75
    endloop
  endfacet
  facet normal -1 0 0
    outer loop
      vertex -14.725 -3.55 -6.75
      vertex -14.725 -3.55 6.75
      vertex -14.725 3.55 6.75
    endloop
  endfacet
  facet normal 0 -1 0
    outer loop
      vertex -14.725 -3.55 -6.75
      vertex 14.725 -3.55 6.75
      vertex -14.725 -3.55 6.75
    endloop
  endfacet
  facet normal 0 0 1
    outer loop
      vertex -14.725 -3.55 6.75
      vertex 14.725 -3.55 6.75
      vertex -14.725 3.55 6.75
    endloop
  endfacet
  facet normal -1 0 0
    outer loop
      vertex -14.725 -3.55 -6.75
      vertex -14.725 3.55 -4.2
      vertex -14.725 3.55 -6.75
    endloop
  endfacet
  facet normal 0 0 -1
    outer loop
      vertex -14.725 3.55 -6.75
      vertex 14.725 3.55 -6.75
      vertex -5.05 1.65 -6.75
    endloop
  endfacet
  facet normal -1 0 0
    outer loop
      vertex -14.725 -3.55 -6.75
      vertex -14.725 3.55 4.2
      vertex -14.725 3.55 -4.2
    endloop
  endfacet
  facet normal -1 0 0
    outer loop
      vertex -14.725 -3.55 -6.75
      vertex -14.725 3.55 6.75
      vertex -14.725 3.55 4.2
    endloop
  endfacet
  facet normal 0 1 0
    outer loop
      vertex -14.725 3.55 -6.75
      vertex -14.725 3.55 -4.2
      vertex 14.725 3.55 -4.2
    endloop
  endfacet
  facet normal 0 1 0
    outer loop
      vertex -14.725 3.55 6.75
      vertex 14.725 3.55 6.75
      vertex -14.725 3.55 4.2
    endloop
  endfacet
  facet normal 0 0 -1
    outer loop
      vertex -14.725 -3.55 -6.75
      vertex 5.05 -1.65 -6.75
      vertex 14.725 -3.55 -6.75
    endloop
  endfacet
  facet normal 0 0 -1
    outer loop
      vertex 5.05 -1.65 -6.75
      vertex 14.725 3.55 -6.75
      vertex 14.725 -3.55 -6.75
    endloop
  endfacet
  facet normal 0 -1 0
    outer loop
      vertex -14.725 -3.55 -6.75
      vertex 14.725 -3.55 -6.75
      vertex 14.725 -3.55 6.75
    endloop
  endfacet
  facet normal 1 0 0
    outer loop
      vertex 14.725 -3.55 -6.75
      vertex 14.725 3.55 -6.75
      vertex 14.725 -3.55 6.75
    endloop
  endfacet
  facet normal 0 0 -1
    outer loop
      vertex -5.05 1.65 -6.75
      vertex 14.725 3.55 -6.75
      vertex 5.05 1.65 -6.75
    endloop
  endfacet
  facet normal 0 1 0
    outer loop
      vertex -14.725 3.55 -6.75
      vertex 14.725 3.55 -4.2
      vertex 14.725 3.55 -6.75
    endloop
  endfacet
  facet normal 0 0 -1
    outer loop
      vertex 5.05 -1.65 -6.75
      vertex 5.05 1.65 -6.75
      vertex 14.725 3.55 -6.75
    endloop
  endfacet
  facet normal 0 0 1
    outer loop
      vertex -14.725 3.55 6.75
      vertex 14.725 -3.55 6.75
      vertex 14.725 3.55 6.75
    endloop
  endfacet
  facet normal 0 1 0
    outer loop
      vertex 14.725 3.55 6.75
      vertex 14.725 3.55 4.2
      vertex -14.725 3.55 4.2
    endloop
  endfacet
  facet normal 1 0 0
    outer loop
      vertex 14.725 3.55 -6.75
      vertex 14.725 3.55 -4.2
      vertex 14.725 -3.55 6.75
    endloop
  endfacet
  facet normal 1 0 0
    outer loop
      vertex 14.725 3.55 -4.2
      vertex 14.725 3.55 4.2
      vertex 14.725 -3.55 6.75
    endloop
  endfacet
  facet normal 1 0 0
    outer loop
      vertex 14.725 -3.55 6.75
      vertex 14.725 3.55 4.2
      vertex 14.725 3.55 6.75
    endloop
  endfacet
  facet normal -1 0 0
    outer loop
      vertex -14.725 3.55 -4.2
      vertex -14.725 5.55 4.2
      vertex -14.725 5.55 -4.2
    endloop
  endfacet
  facet normal 0 1 0
    outer loop
      vertex -14.725 5.55 -4.2
      vertex -14.024999999999999 5.55 3.1
      vertex -14.024999999999999 5.55 -3.1
    endloop
  endfacet
  facet normal 0 1 0
    outer loop
      vertex -12.303674030756362 5.55 -1.3889255825490054
      vertex -12.534698831278217 5.55 -0.9567085809127245
      vertex -12.617350839330522 5.55 -0.7257116931361558
    endloop
  endfacet
  facet normal 0 1 0
    outer loop
      vertex -12.676963201008075 5.55 -0.4877258050403206
      vertex -11.992766952966369 5.55 -1.7677669529663689
      vertex -12.617350839330522 5.55 -0.7257116931361558
    endloop
  endfacet
  facet normal 0 1 0
    outer loop
      vertex -12.157526133406842 5.55 -1.5859832104091138
      vertex -12.617350839330522 5.55 -0.7257116931361558
      vertex -11.992766952966369 5.55 -1.7677669529663689
    endloop
  endfacet
  facet normal 0 1 0
    outer loop
      vertex -12.429803160870888 5.55 -1.1784918420649941
      vertex -12.534698831278217 5.55 -0.9567085809127245
      vertex -12.303674030756362 5.55 -1.3889255825490054
    endloop
  endfacet
  facet normal 0 1 0
    outer loop
      vertex -12.157526133406842 5.55 -1.5859832104091138
      vertex -12.303674030756362 5.55 -1.3889255825490054
      vertex -12.617350839330522 5.55 -0.7257116931361558
    endloop
  endfacet
  facet normal 0 1 0
    outer loop
      vertex -12.712961816680492 5.55 -0.2450428508239015
      vertex -11.992766952966369 5.55 -1.7677669529663689
      vertex -12.676963201008075 5.55 -0.4877258050403206
    endloop
  endfacet
  facet normal 0 1 0
    outer loop
      vertex -11.992766952966369 5.55 -1.7677669529663689
      vertex -12.712961816680492 5.55 -0.2450428508239015
      vertex -12.725 5.55 0
    endloop
  endfacet
  facet normal 0 1 0
    outer loop
      vertex -11.992766952966369 5.55 -1.7677669529663689
      vertex -12.725 5.55 0
      vertex -12.712961816680492 5.55 0.2450428508239015
    endloop
  endfacet
  facet normal 0 1 0
    outer loop
      vertex -12.676963201008075 5.55 0.4877258050403206
      vertex -11.992766952966369 5.55 -1.7677669529663689
      vertex -12.712961816680492 5.55 0.2450428508239015
    endloop
  endfacet
  facet normal 0 1 0
    outer loop
      vertex -12.676963201008075 5.55 0.4877258050403206
      vertex -12.617350839330522 5.55 0.7257116931361558
      vertex -11.992766952966369 5.55 -1.7677669529663689
    endloop
  endfacet
  facet normal 0 1 0
    outer loop
      vertex -11.992766952966369 5.55 -1.7677669529663689
      vertex -12.617350839330522 5.55 0.7257116931361558
      vertex -12.534698831278217 5.55 0.9567085809127245
    endloop
  endfacet
  facet normal 0 1 0
    outer loop
      vertex -11.992766952966369 5.55 -1.7677669529663689
      vertex -12.534698831278217 5.55 0.9567085809127245
      vertex -12.429803160870888 5.55 1.1784918420649941
    endloop
  endfacet
  facet normal 0 1 0
    outer loop
      vertex -11.992766952966369 5.55 -1.7677669529663689
      vertex -12.429803160870888 5.55 1.1784918420649941
      vertex -12.303674030756362 5.55 1.3889255825490054
    endloop
  endfacet
  facet normal 0 1 0
    outer loop
      vertex -11.992766952966369 5.55 -1.7677669529663689
      vertex -12.303674030756362 5.55 1.3889255825490054
      vertex -12.157526133406842 5.55 1.5859832104091138
    endloop
  endfacet
  facet normal 0 1 0
    outer loop
      vertex -11.992766952966369 5.55 -1.7677669529663689
      vertex -12.157526133406842 5.55 1.5859832104091138
      vertex -11.992766952966369 5.55 1.7677669529663689
    endloop
  endfacet
  facet normal 0 1 0
    outer loop
      vertex -11.403491842064994 5.55 -2.204803160870888
      vertex -8.146325969243637 5.55 1.3889255825490054
      vertex -11.181708580912725 5.55 -2.309698831278217
    endloop
  endfacet
  facet normal 0 1 0
    outer loop
      vertex -11.181708580912725 5.55 -2.309698831278217
      vertex -8.146325969243637 5.55 1.3889255825490054
      vertex -10.950711693136155 5.55 -2.392350839330522
    endloop
  endfacet
  facet normal 0 1 0
    outer loop
      vertex -10.950711693136155 5.55 -2.392350839330522
      vertex -8.146325969243637 5.55 1.3889255825490054
      vertex -10.71272580504032 5.55 -2.451963201008076
    endloop
  endfacet
  facet normal 0 1 0
    outer loop
      vertex -10.71272580504032 5.55 -2.451963201008076
      vertex -8.146325969243637 5.55 1.3889255825490054
      vertex -10.470042850823901 5.55 -2.4879618166804924
    endloop
  endfacet
  facet normal 0 1 0
    outer loop
      vertex -10.470042850823901 5.55 -2.4879618166804924
      vertex -8.146325969243637 5.55 1.3889255825490054
      vertex -10.225 5.55 -2.5
    endloop
  endfacet
  facet normal 0 1 0
    outer loop
      vertex -10.225 5.55 -2.5
      vertex -8.146325969243637 5.55 1.3889255825490054
      vertex -9.979957149176098 5.55 -2.4879618166804924
    endloop
  endfacet
  facet normal 0 1 0
    outer loop
      vertex -11.992766952966369 5.55 -1.7677669529663689
      vertex -8.45723304703363 5.55 1.7677669529663689
      vertex -11.810983210409113 5.55 -1.9325261334068424
    endloop
  endfacet
  facet normal 0 1 0
    outer loop
      vertex -11.613925582549005 5.55 -2.078674030756363
      vertex -11.810983210409113 5.55 -1.9325261334068424
      vertex -8.146325969243637 5.55 1.3889255825490054
    endloop
  endfacet
  facet normal 0 1 0
    outer loop
      vertex -11.613925582549005 5.55 -2.078674030756363
      vertex -8.146325969243637 5.55 1.3889255825490054
      vertex -11.403491842064994 5.55 -2.204803160870888
    endloop
  endfacet
  facet normal 0 1 0
    outer loop
      vertex -11.810983210409113 5.55 -1.9325261334068424
      vertex -8.45723304703363 5.55 1.7677669529663689
      vertex -8.292473866593157 5.55 1.5859832104091138
    endloop
  endfacet
  facet normal 0 1 0
    outer loop
      vertex -11.810983210409113 5.55 -1.9325261334068424
      vertex -8.292473866593157 5.55 1.5859832104091138
      vertex -8.146325969243637 5.55 1.3889255825490054
    endloop
  endfacet
  facet normal 0 1 0
    outer loop
      vertex -8.146325969243637 5.55 -1.3889255825490054
      vertex -9.046508157935005 5.55 -2.204803160870888
      vertex -9.268291419087275 5.55 -2.309698831278217
    endloop
  endfacet
  facet normal 0 1 0
    outer loop
      vertex -8.292473866593157 5.55 -1.5859832104091138
      vertex -8.836074417450995 5.55 -2.078674030756363
      vertex -9.046508157935005 5.55 -2.204803160870888
    endloop
  endfacet
  facet normal 0 1 0
    outer loop
      vertex -8.836074417450995 5.55 -2.078674030756363
      vertex -8.292473866593157 5.55 -1.5859832104091138
      vertex -8.639016789590887 5.55 -1.9325261334068424
    endloop
  endfacet
  facet normal 0 1 0
    outer loop
      vertex -8.639016789590887 5.55 -1.9325261334068424
      vertex -8.292473866593157 5.55 -1.5859832104091138
      vertex -8.45723304703363 5.55 -1.7677669529663689
    endloop
  endfacet
  facet normal 0 1 0
    outer loop
      vertex -9.979957149176098 5.55 -2.4879618166804924
      vertex -7.737038183319507 5.55 -0.2450428508239015
      vertex -9.73727419495968 5.55 -2.451963201008076
    endloop
  endfacet
  facet normal 0 1 0
    outer loop
      vertex -9.73727419495968 5.55 -2.451963201008076
      vertex -7.737038183319507 5.55 -0.2450428508239015
      vertex -9.499288306863845 5.55 -2.392350839330522
    endloop
  endfacet
  facet normal 0 1 0
    outer loop
      vertex -9.499288306863845 5.55 -2.392350839330522
      vertex -7.773036798991924 5.55 -0.4877258050403206
      vertex -9.268291419087275 5.55 -2.309698831278217
    endloop
  endfacet
  facet normal 0 1 0
    outer loop
      vertex -8.292473866593157 5.55 -1.5859832104091138
      vertex -9.046508157935005 5.55 -2.204803160870888
      vertex -8.146325969243637 5.55 -1.3889255825490054
    endloop
  endfacet
  facet normal 0 1 0
    outer loop
      vertex -8.146325969243637 5.55 -1.3889255825490054
      vertex -9.268291419087275 5.55 -2.309698831278217
      vertex -8.020196839129111 5.55 -1.1784918420649941
    endloop
  endfacet
  facet normal 0 1 0
    outer loop
      vertex -8.020196839129111 5.55 -1.1784918420649941
      vertex -9.268291419087275 5.55 -2.309698831278217
      vertex -7.915301168721783 5.55 -0.9567085809127245
    endloop
  endfacet
  facet normal 0 1 0
    outer loop
      vertex -9.268291419087275 5.55 -2.309698831278217
      vertex -7.832649160669478 5.55 -0.7257116931361558
      vertex -7.915301168721783 5.55 -0.9567085809127245
    endloop
  endfacet
  facet normal 0 1 0
    outer loop
      vertex -9.268291419087275 5.55 -2.309698831278217
      vertex -7.773036798991924 5.55 -0.4877258050403206
      vertex -7.832649160669478 5.55 -0.7257116931361558
    endloop
  endfacet
  facet normal 0 1 0
    outer loop
      vertex -9.499288306863845 5.55 -2.392350839330522
      vertex -7.737038183319507 5.55 -0.2450428508239015
      vertex -7.773036798991924 5.55 -0.4877258050403206
    endloop
  endfacet
  facet normal 0 1 0
    outer loop
      vertex -9.979957149176098 5.55 -2.4879618166804924
      vertex -7.725 5.55 0
      vertex -7.737038183319507 5.55 -0.2450428508239015
    endloop
  endfacet
  facet normal 0 1 0
    outer loop
      vertex -9.979957149176098 5.55 -2.4879618166804924
      vertex -7.737038183319507 5.55 0.2450428508239015
      vertex -7.725 5.55 0
    endloop
  endfacet
  facet normal 0 1 0
    outer loop
      vertex -7.737038183319507 5.55 0.2450428508239015
      vertex -9.979957149176098 5.55 -2.4879618166804924
      vertex -7.773036798991924 5.55 0.4877258050403206
    endloop
  endfacet
  facet normal 0 1 0
    outer loop
      vertex -7.773036798991924 5.55 0.4877258050403206
      vertex -9.979957149176098 5.55 -2.4879618166804924
      vertex -7.832649160669478 5.55 0.7257116931361558
    endloop
  endfacet
  facet normal 0 1 0
    outer loop
      vertex -9.979957149176098 5.55 -2.4879618166804924
      vertex -7.915301168721783 5.55 0.9567085809127245
      vertex -7.832649160669478 5.55 0.7257116931361558
    endloop
  endfacet
  facet normal 0 1 0
    outer loop
      vertex -9.979957149176098 5.55 -2.4879618166804924
      vertex -8.020196839129111 5.55 1.1784918420649941
      vertex -7.915301168721783 5.55 0.9567085809127245
    endloop
  endfacet
  facet normal 0 1 0
    outer loop
      vertex -9.979957149176098 5.55 -2.4879618166804924
      vertex -8.146325969243637 5.55 1.3889255825490054
      vertex -8.020196839129111 5.55 1.1784918420649941
    endloop
  endfacet
  facet normal -1 0 0
    outer loop
      vertex -14.725 3.55 -4.2
      vertex -14.725 3.55 4.2
      vertex -14.725 5.55 4.2
    endloop
  endfacet
  facet normal 0 1 0
    outer loop
      vertex -14.725 5.55 -4.2
      vertex -14.725 5.55 4.2
      vertex -14.024999999999999 5.55 3.1
    endloop
  endfacet
  facet normal 0 1 0
    outer loop
      vertex -11.992766952966369 5.55 -1.7677669529663689
      vertex -11.992766952966369 5.55 1.7677669529663689
      vertex -11.810983210409113 5.55 1.9325261334068424
    endloop
  endfacet
  facet normal 0 1 0
    outer loop
      vertex -11.992766952966369 5.55 -1.7677669529663689
      vertex -11.810983210409113 5.55 1.9325261334068424
      vertex -11.613925582549005 5.55 2.078674030756363
    endloop
  endfacet
  facet normal 0 1 0
    outer loop
      vertex -11.992766952966369 5.55 -1.7677669529663689
      vertex -11.613925582549005 5.55 2.078674030756363
      vertex -11.403491842064994 5.55 2.204803160870888
    endloop
  endfacet
  facet normal 0 1 0
    outer loop
      vertex -11.992766952966369 5.55 -1.7677669529663689
      vertex -11.403491842064994 5.55 2.204803160870888
      vertex -11.181708580912725 5.55 2.309698831278217
    endloop
  endfacet
  facet normal 0 1 0
    outer loop
      vertex -11.992766952966369 5.55 -1.7677669529663689
      vertex -11.181708580912725 5.55 2.309698831278217
      vertex -10.950711693136155 5.55 2.392350839330522
    endloop
  endfacet
  facet normal 0 1 0
    outer loop
      vertex -11.992766952966369 5.55 -1.7677669529663689
      vertex -10.950711693136155 5.55 2.392350839330522
      vertex -10.71272580504032 5.55 2.451963201008076
    endloop
  endfacet
  facet normal 0 1 0
    outer loop
      vertex -11.992766952966369 5.55 -1.7677669529663689
      vertex -10.71272580504032 5.55 2.451963201008076
      vertex -10.470042850823901 5.55 2.4879618166804924
    endloop
  endfacet
  facet normal 0 1 0
    outer loop
      vertex -14.725 5.55 4.2
      vertex -6.425 5.55 3.1
      vertex -14.024999999999999 5.55 3.1
    endloop
  endfacet
  facet normal 0 1 0
    outer loop
      vertex -11.992766952966369 5.55 -1.7677669529663689
      vertex -10.470042850823901 5.55 2.4879618166804924
      vertex -10.225 5.55 2.5
    endloop
  endfacet
  facet normal 0 1 0
    outer loop
      vertex -11.992766952966369 5.55 -1.7677669529663689
      vertex -10.225 5.55 2.5
      vertex -9.979957149176098 5.55 2.4879618166804924
    endloop
  endfacet
  facet normal 0 1 0
    outer loop
      vertex -11.992766952966369 5.55 -1.7677669529663689
      vertex -9.979957149176098 5.55 2.4879618166804924
      vertex -9.73727419495968 5.55 2.451963201008076
    endloop
  endfacet
  facet normal 0 1 0
    outer loop
      vertex -11.992766952966369 5.55 -1.7677669529663689
      vertex -9.73727419495968 5.55 2.451963201008076
      vertex -9.499288306863845 5.55 2.392350839330522
    endloop
  endfacet
  facet normal 0 1 0
    outer loop
      vertex -11.992766952966369 5.55 -1.7677669529663689
      vertex -9.499288306863845 5.55 2.392350839330522
      vertex -9.268291419087275 5.55 2.309698831278217
    endloop
  endfacet
  facet normal 0 1 0
    outer loop
      vertex -11.992766952966369 5.55 -1.7677669529663689
      vertex -9.268291419087275 5.55 2.309698831278217
      vertex -9.046508157935005 5.55 2.204803160870888
    endloop
  endfacet
  facet normal 0 1 0
    outer loop
      vertex -11.992766952966369 5.55 -1.7677669529663689
      vertex -9.046508157935005 5.55 2.204803160870888
      vertex -8.836074417450995 5.55 2.078674030756363
    endloop
  endfacet
  facet normal 0 1 0
    outer loop
      vertex -11.992766952966369 5.55 -1.7677669529663689
      vertex -8.836074417450995 5.55 2.078674030756363
      vertex -8.639016789590887 5.55 1.9325261334068424
    endloop
  endfacet
  facet normal 0 1 0
    outer loop
      vertex -11.992766952966369 5.55 -1.7677669529663689
      vertex -8.639016789590887 5.55 1.9325261334068424
      vertex -8.45723304703363 5.55 1.7677669529663689
    endloop
  endfacet
  facet normal 0 0 -1
    outer loop
      vertex -14.725 3.55 -4.2
      vertex -14.725 5.55 -4.2
      vertex 14.725 5.55 -4.2
    endloop
  endfacet
  facet normal 0 1 0
    outer loop
      vertex -14.725 5.55 -4.2
      vertex -14.024999999999999 5.55 -3.1
      vertex 14.725 5.55 -4.2
    endloop
  endfacet
  facet normal 0 1 0
    outer loop
      vertex 14.725 5.55 -4.2
      vertex -14.024999999999999 5.55 -3.1
      vertex -6.425 5.55 -3.1
    endloop
  endfacet
  facet normal 0 1 0
    outer loop
      vertex -6.425 5.55 -3.1
      vertex -2.0250000000000004 5.55 3.1
      vertex -2.0250000000000004 5.55 -3.1
    endloop
  endfacet
  facet normal 0 0 1
    outer loop
      vertex -14.725 5.55 4.2
      vertex -14.725 3.55 4.2
      vertex 14.725 3.55 4.2
    endloop
  endfacet
  facet normal 0 1 0
    outer loop
      vertex -6.425 5.55 3.1
      vertex -2.0250000000000004 5.55 3.1
      vertex -6.425 5.55 -3.1
    endloop
  endfacet
  facet normal 0 1 0
    outer loop
      vertex -14.725 5.55 4.2
      vertex 14.725 5.55 4.2
      vertex -6.425 5.55 3.1
    endloop
  endfacet
  facet normal 0 1 0
    outer loop
      vertex 14.725 5.55 -4.2
      vertex -6.425 5.55 -3.1
      vertex -2.0250000000000004 5.55 -3.1
    endloop
  endfacet
  facet normal 0 0 -1
    outer loop
      vertex -14.725 3.55 -4.2
      vertex 14.725 5.55 -4.2
      vertex 14.725 3.55 -4.2
    endloop
  endfacet
  facet normal 0 1 0
    outer loop
      vertex 11.175 5.55 2.8
      vertex 11.175 5.55 -2.8
      vertex -1.2250000000000005 5.55 -2.8
    endloop
  endfacet
  facet normal 0 1 0
    outer loop
      vertex -1.2250000000000005 5.55 2.8
      vertex 11.175 5.55 2.8
      vertex -1.2250000000000005 5.55 -2.8
    endloop
  endfacet
  facet normal 0 1 0
    outer loop
      vertex 14.725 5.55 4.2
      vertex -2.0250000000000004 5.55 3.1
      vertex -6.425 5.55 3.1
    endloop
  endfacet
  facet normal 0 0 1
    outer loop
      vertex -14.725 5.55 4.2
      vertex 14.725 3.55 4.2
      vertex 14.725 5.55 4.2
    endloop
  endfacet
  facet normal 0 1 0
    outer loop
      vertex 14.725 5.55 -4.2
      vertex -2.0250000000000004 5.55 -3.1
      vertex 11.975 5.55 -3.1
    endloop
  endfacet
  facet normal 1 0 0
    outer loop
      vertex 14.725 5.55 -4.2
      vertex 14.725 3.55 4.2
      vertex 14.725 3.55 -4.2
    endloop
  endfacet
  facet normal 0 1 0
    outer loop
      vertex 14.725 5.55 -4.2
      vertex 11.975 5.55 -3.1
      vertex 11.975 5.55 3.1
    endloop
  endfacet
  facet normal 0 1 0
    outer loop
      vertex 14.725 5.55 4.2
      vertex 11.975 5.55 3.1
      vertex -2.0250000000000004 5.55 3.1
    endloop
  endfacet
  facet normal 1 0 0
    outer loop
      vertex 14.725 5.55 -4.2
      vertex 14.725 5.55 4.2
      vertex 14.725 3.55 4.2
    endloop
  endfacet
  facet normal 0 1 0
    outer loop
      vertex 14.725 5.55 -4.2
      vertex 11.975 5.55 3.1
      vertex 14.725 5.55 4.2
    endloop
  endfacet
  facet normal 0 -1 0
    outer loop
      vertex -5.05 -1.65 -7.949999999999999
      vertex 5.05 -1.65 -6.75
      vertex -5.05 -1.65 -6.75
    endloop
  endfacet
  facet normal -1 0 0
    outer loop
      vertex -5.05 -1.65 -7.949999999999999
      vertex -5.05 -1.65 -6.75
      vertex -5.05 1.65 -6.75
    endloop
  endfacet
  facet normal -1 0 0
    outer loop
      vertex -5.05 -1.65 -7.949999999999999
      vertex -5.05 1.65 -6.75
      vertex -5.05 1.65 -7.949999999999999
    endloop
  endfacet
  facet normal 0 1 0
    outer loop
      vertex -5.05 1.65 -7.949999999999999
      vertex -5.05 1.65 -6.75
      vertex 5.05 1.65 -7.949999999999999
    endloop
  endfacet
  facet normal 0 -1 0
    outer loop
      vertex -5.05 -1.65 -7.949999999999999
      vertex 5.05 -1.65 -7.949999999999999
      vertex 5.05 -1.65 -6.75
    endloop
  endfacet
  facet normal 1 0 0
    outer loop
      vertex 5.05 -1.65 -7.949999999999999
      vertex 5.05 1.65 -7.949999999999999
      vertex 5.05 -1.65 -6.75
    endloop
  endfacet
  facet normal 1 0 0
    outer loop
      vertex 5.05 -1.65 -6.75
      vertex 5.05 1.65 -7.949999999999999
      vertex 5.05 1.65 -6.75
    endloop
  endfacet
  facet normal 0 1 0
    outer loop
      vertex -5.05 1.65 -6.75
      vertex 5.05 1.65 -6.75
      vertex 5.05 1.65 -7.949999999999999
    endloop
  endfacet
  facet normal -1 0 0
    outer loop
      vertex -5.05 -3.1 -14.95
      vertex -5.05 -3.1 -7.949999999999999
      vertex -5.05 -1.65 -7.949999999999999
    endloop
  endfacet
  facet normal 0 -1 0
    outer loop
      vertex -5.05 -3.1 -14.95
      vertex 5.05 -3.1 -7.949999999999999
      vertex -5.05 -3.1 -7.949999999999999
    endloop
  endfacet
  facet normal 0 0 1
    outer loop
      vertex -5.05 -3.1 -7.949999999999999
      vertex 5.05 -1.65 -7.949999999999999
      vertex -5.05 -1.65 -7.949999999999999
    endloop
  endfacet
  facet normal 0 0 -1
    outer loop
      vertex -5.05 -3.1 -14.95
      vertex -5.05 3.1 -14.95
      vertex -2.84 0.3 -14.95
    endloop
  endfacet
  facet normal 0 0 -1
    outer loop
      vertex -5.05 -3.1 -14.95
      vertex -2.84 -0.3 -14.95
      vertex -2.24 -0.3 -14.95
    endloop
  endfacet
  facet normal 0 0 -1
    outer loop
      vertex -5.05 -3.1 -14.95
      vertex -2.84 0.3 -14.95
      vertex -2.84 -0.3 -14.95
    endloop
  endfacet
  facet normal 0 0 -1
    outer loop
      vertex -5.05 -3.1 -14.95
      vertex -2.24 -0.3 -14.95
      vertex -0.3 0.3 -14.95
    endloop
  endfacet
  facet normal 0 0 -1
    outer loop
      vertex -5.05 -3.1 -14.95
      vertex -0.3 0.3 -14.95
      vertex -0.3 -0.3 -14.95
    endloop
  endfacet
  facet normal 0 0 -1
    outer loop
      vertex -5.05 -3.1 -14.95
      vertex -0.3 -0.3 -14.95
      vertex 0.3 -0.3 -14.95
    endloop
  endfacet
  facet normal 0 0 -1
    outer loop
      vertex -2.24 -0.3 -14.95
      vertex -2.24 0.3 -14.95
      vertex -0.3 0.3 -14.95
    endloop
  endfacet
  facet normal -1 0 0
    outer loop
      vertex -5.05 -3.1 -14.95
      vertex -5.05 -1.65 -7.949999999999999
      vertex -5.05 1.65 -7.949999999999999
    endloop
  endfacet
  facet normal -1 0 0
    outer loop
      vertex -5.05 -3.1 -14.95
      vertex -5.05 1.65 -7.949999999999999
      vertex -5.05 3.1 -7.949999999999999
    endloop
  endfacet
  facet normal -1 0 0
    outer loop
      vertex -5.05 -3.1 -14.95
      vertex -5.05 3.1 -7.949999999999999
      vertex -5.05 3.1 -14.95
    endloop
  endfacet
  facet normal 0 0 -1
    outer loop
      vertex -2.84 0.3 -14.95
      vertex -5.05 3.1 -14.95
      vertex -2.24 0.3 -14.95
    endloop
  endfacet
  facet normal 0 0 -1
    outer loop
      vertex -2.24 0.3 -14.95
      vertex -5.05 3.1 -14.95
      vertex -0.3 0.3 -14.95
    endloop
  endfacet
  facet normal 0 0 -1
    outer loop
      vertex -0.3 0.3 -14.95
      vertex -5.05 3.1 -14.95
      vertex 5.05 3.1 -14.95
    endloop
  endfacet
  facet normal 0 1 0
    outer loop
      vertex -5.05 3.1 -14.95
      vertex -5.05 3.1 -7.949999999999999
      vertex 5.05 3.1 -14.95
    endloop
  endfacet
  facet normal 0 0 1
    outer loop
      vertex -5.05 1.65 -7.949999999999999
      vertex 5.05 3.1 -7.949999999999999
      vertex -5.05 3.1 -7.949999999999999
    endloop
  endfacet
  facet normal 0 -1 0
    outer loop
      vertex -5.05 -3.1 -14.95
      vertex 5.05 -3.1 -14.95
      vertex 5.05 -3.1 -7.949999999999999
    endloop
  endfacet
  facet normal 0 0 -1
    outer loop
      vertex -5.05 -3.1 -14.95
      vertex 0.3 -0.3 -14.95
      vertex 5.05 -3.1 -14.95
    endloop
  endfacet
  facet normal 0 0 1
    outer loop
      vertex -5.05 -3.1 -7.949999999999999
      vertex 5.05 -3.1 -7.949999999999999
      vertex 5.05 -1.65 -7.949999999999999
    endloop
  endfacet
  facet normal 0 0 -1
    outer loop
      vertex 5.05 -3.1 -14.95
      vertex 0.3 -0.3 -14.95
      vertex 2.24 -0.3 -14.95
    endloop
  endfacet
  facet normal 0 0 -1
    outer loop
      vertex 5.05 -3.1 -14.95
      vertex 2.24 -0.3 -14.95
      vertex 2.84 -0.3 -14.95
    endloop
  endfacet
  facet normal 0 0 -1
    outer loop
      vertex 5.05 -3.1 -14.95
      vertex 2.84 -0.3 -14.95
      vertex 2.84 0.3 -14.95
    endloop
  endfacet
  facet normal 0 0 -1
    outer loop
      vertex 0.3 -0.3 -14.95
      vertex 2.24 0.3 -14.95
      vertex 2.24 -0.3 -14.95
    endloop
  endfacet
  facet normal 1 0 0
    outer loop
      vertex 5.05 -3.1 -14.95
      vertex 5.05 3.1 -14.95
      vertex 5.05 -3.1 -7.949999999999999
    endloop
  endfacet
  facet normal 0 0 -1
    outer loop
      vertex 5.05 -3.1 -14.95
      vertex 2.84 0.3 -14.95
      vertex 5.05 3.1 -14.95
    endloop
  endfacet
  facet normal 1 0 0
    outer loop
      vertex 5.05 -3.1 -7.949999999999999
      vertex 5.05 3.1 -14.95
      vertex 5.05 -1.65 -7.949999999999999
    endloop
  endfacet
  facet normal 0 0 -1
    outer loop
      vertex -0.3 0.3 -14.95
      vertex 5.05 3.1 -14.95
      vertex 0.3 0.3 -14.95
    endloop
  endfacet
  facet normal 0 0 -1
    outer loop
      vertex 0.3 -0.3 -14.95
      vertex 0.3 0.3 -14.95
      vertex 5.05 3.1 -14.95
    endloop
  endfacet
  facet normal 0 0 -1
    outer loop
      vertex 0.3 -0.3 -14.95
      vertex 5.05 3.1 -14.95
      vertex 2.24 0.3 -14.95
    endloop
  endfacet
  facet normal 0 0 -1
    outer loop
      vertex 2.24 0.3 -14.95
      vertex 5.05 3.1 -14.95
      vertex 2.84 0.3 -14.95
    endloop
  endfacet
  facet normal 0 0 1
    outer loop
      vertex -5.05 1.65 -7.949999999999999
      vertex 5.05 1.65 -7.949999999999999
      vertex 5.05 3.1 -7.949999999999999
    endloop
  endfacet
  facet normal 0 1 0
    outer loop
      vertex -5.05 3.1 -7.949999999999999
      vertex 5.05 3.1 -7.949999999999999
      vertex 5.05 3.1 -14.95
    endloop
  endfacet
  facet normal 1 0 0
    outer loop
      vertex 5.05 -1.65 -7.949999999999999
      vertex 5.05 3.1 -14.95
      vertex 5.05 1.65 -7.949999999999999
    endloop
  endfacet
  facet normal 1 0 0
    outer loop
      vertex 5.05 3.1 -14.95
      vertex 5.05 3.1 -7.949999999999999
      vertex 5.05 1.65 -7.949999999999999
    endloop
  endfacet
endsolid OpenSCAD_Model
