solid OpenSCAD_Model
  facet normal 0 0 -1
    outer loop
      vertex -14.725 -6.75 -9.3
      vertex -5.05 6.5 -9.3
      vertex -5.05 -6.5 -9.3
    endloop
  endfacet
  facet normal 0 0 -1
    outer loop
      vertex -14.725 -6.75 -9.3
      vertex -5.05 -6.5 -9.3
      vertex 14.725 -6.75 -9.3
    endloop
  endfacet
  facet normal -1 0 0
    outer loop
      vertex -14.725 -6.75 -9.3
      vertex -14.725 -6.75 9.3
      vertex -14.725 6.75 9.3
    endloop
  endfacet
  facet normal 0 0 1
    outer loop
      vertex -14.725 -6.75 9.3
      vertex -3.55 -6.525 9.3
      vertex -14.725 6.75 9.3
    endloop
  endfacet
  facet normal 0 -1 0
    outer loop
      vertex -14.725 -6.75 -9.3
      vertex 14.725 -6.75 9.3
      vertex -14.725 -6.75 9.3
    endloop
  endfacet
  facet normal 0 0 1
    outer loop
      vertex -14.725 -6.75 9.3
      vertex 3.55 -6.525 9.3
      vertex -3.55 -6.525 9.3
    endloop
  endfacet
  facet normal 0 0 -1
    outer loop
      vertex -14.725 -6.75 -9.3
      vertex -14.725 6.75 -9.3
      vertex -5.05 6.5 -9.3
    endloop
  endfacet
  facet normal -1 0 0
    outer loop
      vertex -14.725 -6.75 -9.3
      vertex -14.725 6.75 9.3
      vertex -14.725 6.75 -9.3
    endloop
  endfacet
  facet normal 0 0 -1
    outer loop
      vertex -14.725 6.75 -9.3
      vertex 5.05 6.5 -9.3
      vertex -5.05 6.5 -9.3
    endloop
  endfacet
  facet normal 0 1 0
    outer loop
      vertex -14.725 6.75 -9.3
      vertex -14.725 6.75 9.3
      vertex 14.725 6.75 -9.3
    endloop
  endfacet
  facet normal 0 0 1
    outer loop
      vertex -14.725 6.75 9.3
      vertex -3.55 -6.525 9.3
      vertex -3.55 6.525 9.3
    endloop
  endfacet
  facet normal 0 0 1
    outer loop
      vertex -14.725 6.75 9.3
      vertex -3.55 6.525 9.3
      vertex 14.725 6.75 9.3
    endloop
  endfacet
  facet normal 0 0 -1
    outer loop
      vertex 14.725 -6.75 -9.3
      vertex -5.05 -6.5 -9.3
      vertex 5.05 -6.5 -9.3
    endloop
  endfacet
  facet normal 0 -1 0
    outer loop
      vertex -14.725 -6.75 -9.3
      vertex 14.725 -6.75 -9.3
      vertex 14.725 -6.75 9.3
    endloop
  endfacet
  facet normal 0 0 -1
    outer loop
      vertex 14.725 -6.75 -9.3
      vertex 5.05 -6.5 -9.3
      vertex 14.725 6.75 -9.3
    endloop
  endfacet
  facet normal 1 0 0
    outer loop
      vertex 14.725 -6.75 -9.3
      vertex 14.725 6.75 -9.3
      vertex 14.725 -6.75 9.3
    endloop
  endfacet
  facet normal 0 0 1
    outer loop
      vertex -14.725 -6.75 9.3
      vertex 14.725 -6.75 9.3
      vertex 3.55 -6.525 9.3
    endloop
  endfacet
  facet normal 0 0 1
    outer loop
      vertex 14.725 -6.75 9.3
      vertex 3.55 6.525 9.3
      vertex 3.55 -6.525 9.3
    endloop
  endfacet
  facet normal 0 0 -1
    outer loop
      vertex -14.725 6.75 -9.3
      vertex 14.725 6.75 -9.3
      vertex 5.05 6.5 -9.3
    endloop
  endfacet
  facet normal 0 0 -1
    outer loop
      vertex 14.725 6.75 -9.3
      vertex 5.05 -6.5 -9.3
      vertex 5.05 6.5 -9.3
    endloop
  endfacet
  facet normal 0 1 0
    outer loop
      vertex -14.725 6.75 9.3
      vertex 14.725 6.75 9.3
      vertex 14.725 6.75 -9.3
    endloop
  endfacet
  facet normal 0 0 1
    outer loop
      vertex 14.725 6.75 9.3
      vertex -3.55 6.525 9.3
      vertex 3.55 6.525 9.3
    endloop
  endfacet
  facet normal 1 0 0
    outer loop
      vertex 14.725 -6.75 9.3
      vertex 14.725 6.75 -9.3
      vertex 14.725 6.75 9.3
    endloop
  endfacet
  facet normal 0 0 1
    outer loop
      vertex 14.725 -6.75 9.3
      vertex 14.725 6.75 9.3
      vertex 3.55 6.525 9.3
    endloop
  endfacet
  facet normal 0 -1 0
    outer loop
      vertex -5.05 -6.5 -12.600000000000001
      vertex 5.05 -6.5 -9.3
      vertex -5.05 -6.5 -9.3
    endloop
  endfacet
  facet normal -1 0 0
    outer loop
      vertex -5.05 -6.5 -12.600000000000001
      vertex -5.05 -6.5 -9.3
      vertex -5.05 6.5 -9.3
    endloop
  endfacet
  facet normal -1 0 0
    outer loop
      vertex -5.05 -6.5 -12.600000000000001
      vertex -5.05 6.5 -9.3
      vertex -5.05 6.5 -12.600000000000001
    endloop
  endfacet
  facet normal 0 0 -1
    outer loop
      vertex -5.05 -6.5 -12.600000000000001
      vertex -5.05 6.5 -12.600000000000001
      vertex 5.05 6.5 -12.600000000000001
    endloop
  endfacet
  facet normal 0 1 0
    outer loop
      vertex -5.05 6.5 -12.600000000000001
      vertex -5.05 6.5 -9.3
      vertex 5.05 6.5 -12.600000000000001
    endloop
  endfacet
  facet normal 0 -1 0
    outer loop
      vertex -5.05 -6.5 -12.600000000000001
      vertex 5.05 -6.5 -12.600000000000001
      vertex 5.05 -6.5 -9.3
    endloop
  endfacet
  facet normal 0 0 -1
    outer loop
      vertex -5.05 -6.5 -12.600000000000001
      vertex 5.05 6.5 -12.600000000000001
      vertex 5.05 -6.5 -12.600000000000001
    endloop
  endfacet
  facet normal 1 0 0
    outer loop
      vertex 5.05 -6.5 -12.600000000000001
      vertex 5.05 6.5 -12.600000000000001
      vertex 5.05 -6.5 -9.3
    endloop
  endfacet
  facet normal 1 0 0
    outer loop
      vertex 5.05 6.5 -12.600000000000001
      vertex 5.05 6.5 -9.3
      vertex 5.05 -6.5 -9.3
    endloop
  endfacet
  facet normal 0 1 0
    outer loop
      vertex 5.05 6.5 -12.600000000000001
      vertex -5.05 6.5 -9.3
      vertex 5.05 6.5 -9.3
    endloop
  endfacet
  facet normal 0 -1 0
    outer loop
      vertex -3.55 -6.525 9.5
      vertex -3.55 -6.525 9.3
      vertex 3.55 -6.525 9.3
    endloop
  endfacet
  facet normal -1 0 0
    outer loop
      vertex -3.55 -6.525 9.5
      vertex -3.55 6.525 9.5
      vertex -3.55 -6.525 9.3
    endloop
  endfacet
  facet normal 0 0 1
    outer loop
      vertex -3.55 -6.525 9.5
      vertex 3.55 -6.525 9.5
      vertex -3.55 6.525 9.5
    endloop
  endfacet
  facet normal -1 0 0
    outer loop
      vertex -3.55 6.525 9.5
      vertex -3.55 6.525 9.3
      vertex -3.55 -6.525 9.3
    endloop
  endfacet
  facet normal 0 1 0
    outer loop
      vertex -3.55 6.525 9.5
      vertex 3.55 6.525 9.5
      vertex -3.55 6.525 9.3
    endloop
  endfacet
  facet normal 0 -1 0
    outer loop
      vertex -3.55 -6.525 9.5
      vertex 3.55 -6.525 9.3
      vertex 3.55 -6.525 9.5
    endloop
  endfacet
  facet normal 1 0 0
    outer loop
      vertex 3.55 -6.525 9.5
      vertex 3.55 -6.525 9.3
      vertex 3.55 6.525 9.3
    endloop
  endfacet
  facet normal 0 0 1
    outer loop
      vertex -3.55 6.525 9.5
      vertex 3.55 -6.525 9.5
      vertex 3.55 6.525 9.5
    endloop
  endfacet
  facet normal 1 0 0
    outer loop
      vertex 3.55 -6.525 9.5
      vertex 3.55 6.525 9.3
      vertex 3.55 6.525 9.5
    endloop
  endfacet
  facet normal 0 1 0
    outer loop
      vertex 3.55 6.525 9.5
      vertex 3.55 6.525 9.3
      vertex -3.55 6.525 9.3
    endloop
  endfacet
endsolid OpenSCAD_Model
