solid OpenSCAD_Model
  facet normal 0 0 -1
    outer loop
      vertex -32.3606797749979 -23.511410091698927 0
      vertex -36.541818305704034 -16.26946572303201 0
      vertex -29.12461179749811 -21.160269082529034 0
    endloop
  endfacet
  facet normal 0 0 -1
    outer loop
      vertex -26.76522425435433 -29.725793019095768 0
      vertex -18 -31.17691453623979 0
      vertex -20 -34.64101615137754 0
    endloop
  endfacet
  facet normal 0 0 -1
    outer loop
      vertex -32.3606797749979 -23.511410091698927 0
      vertex -24.088701828918897 -26.753213717186192 0
      vertex -26.76522425435433 -29.725793019095768 0
    endloop
  endfacet
  facet normal 0 0 -1
    outer loop
      vertex -32.3606797749979 -23.511410091698927 0
      vertex -29.12461179749811 -21.160269082529034 0
      vertex -24.088701828918897 -26.753213717186192 0
    endloop
  endfacet
  facet normal 0 0 -1
    outer loop
      vertex -26.76522425435433 -29.725793019095768 0
      vertex -24.088701828918897 -26.753213717186192 0
      vertex -18 -31.17691453623979 0
    endloop
  endfacet
  facet normal -0.7431448254773941 -0.6691306063588583 0
    outer loop
      vertex -32.3606797749979 -23.511410091698927 0
      vertex -26.76522425435433 -29.725793019095768 0
      vertex -32.3606797749979 -23.511410091698927 100
    endloop
  endfacet
  facet normal -0.5877852522924728 -0.8090169943749477 0
    outer loop
      vertex -26.76522425435433 -29.725793019095768 0
      vertex -20 -34.64101615137754 0
      vertex -20 -34.64101615137754 100
    endloop
  endfacet
  facet normal 0 0 -1
    outer loop
      vertex -36.541818305704034 -16.26946572303201 0
      vertex -32.88763647513363 -14.642519150728807 0
      vertex -29.12461179749811 -21.160269082529034 0
    endloop
  endfacet
  facet normal 0 0 -1
    outer loop
      vertex -36.541818305704034 -16.26946572303201 0
      vertex -35.213313626417005 -7.4848208694393366 0
      vertex -32.88763647513363 -14.642519150728807 0
    endloop
  endfacet
  facet normal 0 0 -1
    outer loop
      vertex -36.541818305704034 -16.26946572303201 0
      vertex -36 0 0
      vertex -35.213313626417005 -7.4848208694393366 0
    endloop
  endfacet
  facet normal 0 0 -1
    outer loop
      vertex -36.541818305704034 -16.26946572303201 0
      vertex -39.12590402935223 -8.316467632710374 0
      vertex -36.541818305704034 16.26946572303201 0
    endloop
  endfacet
  facet normal -0.8660254037844388 -0.4999999999999997 0
    outer loop
      vertex -32.3606797749979 -23.511410091698927 0
      vertex -36.541818305704034 -16.26946572303201 100
      vertex -36.541818305704034 -16.26946572303201 0
    endloop
  endfacet
  facet normal -0.9510565162951534 -0.30901699437494784 0
    outer loop
      vertex -36.541818305704034 -16.26946572303201 0
      vertex -39.12590402935223 -8.316467632710374 100
      vertex -39.12590402935223 -8.316467632710374 0
    endloop
  endfacet
  facet normal -0.9945218953682734 -0.10452846326765322 0
    outer loop
      vertex -39.12590402935223 -8.316467632710374 0
      vertex -40 0 100
      vertex -40 0 0
    endloop
  endfacet
  facet normal 0 0 -1
    outer loop
      vertex -20 -34.64101615137754 0
      vertex -18 -31.17691453623979 0
      vertex -11.124611797498106 -34.238034586625524 0
    endloop
  endfacet
  facet normal 0 0 -1
    outer loop
      vertex -20 -34.64101615137754 0
      vertex -11.124611797498106 -34.238034586625524 0
      vertex -12.360679774997896 -38.04226065180614 0
    endloop
  endfacet
  facet normal 0 0 -1
    outer loop
      vertex -12.360679774997896 -38.04226065180614 0
      vertex -11.124611797498106 -34.238034586625524 0
      vertex -3.763024677635525 -35.802788233257836 0
    endloop
  endfacet
  facet normal 0 0 -1
    outer loop
      vertex -12.360679774997896 -38.04226065180614 0
      vertex -3.763024677635525 -35.802788233257836 0
      vertex -4.181138530706139 -39.78087581473093 0
    endloop
  endfacet
  facet normal 0 0 -1
    outer loop
      vertex -4.181138530706139 -39.78087581473093 0
      vertex -3.763024677635525 -35.802788233257836 0
      vertex 3.763024677635525 -35.802788233257836 0
    endloop
  endfacet
  facet normal -0.40673664307580015 -0.913545457642601 0
    outer loop
      vertex -20 -34.64101615137754 0
      vertex -12.360679774997896 -38.04226065180614 0
      vertex -12.360679774997896 -38.04226065180614 100
    endloop
  endfacet
  facet normal -0.20791169081775981 -0.9781476007338055 0
    outer loop
      vertex -12.360679774997896 -38.04226065180614 0
      vertex -4.181138530706139 -39.78087581473093 0
      vertex -4.181138530706139 -39.78087581473093 100
    endloop
  endfacet
  facet normal -0.8660254037844388 -0.4999999999999997 0
    outer loop
      vertex -32.3606797749979 -23.511410091698927 0
      vertex -32.3606797749979 -23.511410091698927 100
      vertex -36.541818305704034 -16.26946572303201 100
    endloop
  endfacet
  facet normal -0.5877852522924728 -0.8090169943749477 0
    outer loop
      vertex -26.76522425435433 -29.725793019095768 0
      vertex -20 -34.64101615137754 100
      vertex -26.76522425435433 -29.725793019095768 100
    endloop
  endfacet
  facet normal -0.7431448254773941 -0.6691306063588583 0
    outer loop
      vertex -26.76522425435433 -29.725793019095768 0
      vertex -26.76522425435433 -29.725793019095768 100
      vertex -32.3606797749979 -23.511410091698927 100
    endloop
  endfacet
  facet normal -0.9510565162951534 -0.30901699437494784 0
    outer loop
      vertex -36.541818305704034 -16.26946572303201 0
      vertex -36.541818305704034 -16.26946572303201 100
      vertex -39.12590402935223 -8.316467632710374 100
    endloop
  endfacet
  facet normal -0.9945218953682734 -0.10452846326765322 0
    outer loop
      vertex -39.12590402935223 -8.316467632710374 0
      vertex -39.12590402935223 -8.316467632710374 100
      vertex -40 0 100
    endloop
  endfacet
  facet normal 0 0 1
    outer loop
      vertex -36.541818305704034 -16.26946572303201 100
      vertex -39.12590402935223 8.316467632710374 100
      vertex -39.12590402935223 -8.316467632710374 100
    endloop
  endfacet
  facet normal 0 0 1
    outer loop
      vertex -32.3606797749979 -23.511410091698927 100
      vertex -36.541818305704034 16.26946572303201 100
      vertex -36.541818305704034 -16.26946572303201 100
    endloop
  endfacet
  facet normal 0 0 1
    outer loop
      vertex -32.3606797749979 -23.511410091698927 100
      vertex -26.76522425435433 -29.725793019095768 100
      vertex -32.3606797749979 23.511410091698927 100
    endloop
  endfacet
  facet normal 0 0 1
    outer loop
      vertex -26.76522425435433 -29.725793019095768 100
      vertex -20 -34.64101615137754 100
      vertex -26.76522425435433 29.725793019095768 100
    endloop
  endfacet
  facet normal -0.40673664307580015 -0.913545457642601 0
    outer loop
      vertex -20 -34.64101615137754 0
      vertex -12.360679774997896 -38.04226065180614 100
      vertex -20 -34.64101615137754 100
    endloop
  endfacet
  facet normal -0.20791169081775981 -0.9781476007338055 0
    outer loop
      vertex -12.360679774997896 -38.04226065180614 0
      vertex -4.181138530706139 -39.78087581473093 100
      vertex -12.360679774997896 -38.04226065180614 100
    endloop
  endfacet
  facet normal 0 -1 0
    outer loop
      vertex -4.181138530706139 -39.78087581473093 0
      vertex 4.181138530706139 -39.78087581473093 100
      vertex -4.181138530706139 -39.78087581473093 100
    endloop
  endfacet
  facet normal 0 0 1
    outer loop
      vertex -20 -34.64101615137754 100
      vertex -12.360679774997896 -38.04226065180614 100
      vertex -20 34.64101615137754 100
    endloop
  endfacet
  facet normal 0 0 1
    outer loop
      vertex -12.360679774997896 -38.04226065180614 100
      vertex -4.181138530706139 -39.78087581473093 100
      vertex -12.360679774997896 38.04226065180614 100
    endloop
  endfacet
  facet normal 0 0 1
    outer loop
      vertex -4.181138530706139 -39.78087581473093 100
      vertex 4.181138530706139 -39.78087581473093 100
      vertex -4.181138530706139 39.78087581473093 100
    endloop
  endfacet
  facet normal 0 0 -1
    outer loop
      vertex -39.12590402935223 -8.316467632710374 0
      vertex -40 0 0
      vertex -39.12590402935223 8.316467632710374 0
    endloop
  endfacet
  facet normal 0 0 -1
    outer loop
      vertex -36.541818305704034 -16.26946572303201 0
      vertex -36.541818305704034 16.26946572303201 0
      vertex -36 0 0
    endloop
  endfacet
  facet normal 0 0 -1
    outer loop
      vertex -39.12590402935223 -8.316467632710374 0
      vertex -39.12590402935223 8.316467632710374 0
      vertex -36.541818305704034 16.26946572303201 0
    endloop
  endfacet
  facet normal 0 0 -1
    outer loop
      vertex -36.541818305704034 16.26946572303201 0
      vertex -35.213313626417005 7.4848208694393366 0
      vertex -36 0 0
    endloop
  endfacet
  facet normal 0 0 -1
    outer loop
      vertex -36.541818305704034 16.26946572303201 0
      vertex -32.3606797749979 23.511410091698927 0
      vertex -35.213313626417005 7.4848208694393366 0
    endloop
  endfacet
  facet normal 0 0 -1
    outer loop
      vertex -32.3606797749979 23.511410091698927 0
      vertex -32.88763647513363 14.642519150728807 0
      vertex -35.213313626417005 7.4848208694393366 0
    endloop
  endfacet
  facet normal 0 0 -1
    outer loop
      vertex -32.3606797749979 23.511410091698927 0
      vertex -29.12461179749811 21.160269082529034 0
      vertex -32.88763647513363 14.642519150728807 0
    endloop
  endfacet
  facet normal -0.9945218953682734 0.10452846326765322 0
    outer loop
      vertex -40 0 0
      vertex -39.12590402935223 8.316467632710374 100
      vertex -39.12590402935223 8.316467632710374 0
    endloop
  endfacet
  facet normal -0.9510565162951534 0.30901699437494784 0
    outer loop
      vertex -39.12590402935223 8.316467632710374 0
      vertex -36.541818305704034 16.26946572303201 100
      vertex -36.541818305704034 16.26946572303201 0
    endloop
  endfacet
  facet normal 0 0 -1
    outer loop
      vertex -32.3606797749979 23.511410091698927 0
      vertex -26.76522425435433 29.725793019095768 0
      vertex -29.12461179749811 21.160269082529034 0
    endloop
  endfacet
  facet normal 0 0 -1
    outer loop
      vertex -26.76522425435433 29.725793019095768 0
      vertex -24.088701828918897 26.753213717186192 0
      vertex -29.12461179749811 21.160269082529034 0
    endloop
  endfacet
  facet normal 0 0 -1
    outer loop
      vertex -26.76522425435433 29.725793019095768 0
      vertex -20 34.64101615137754 0
      vertex -24.088701828918897 26.753213717186192 0
    endloop
  endfacet
  facet normal 0 0 -1
    outer loop
      vertex -20 34.64101615137754 0
      vertex -18 31.17691453623979 0
      vertex -24.088701828918897 26.753213717186192 0
    endloop
  endfacet
  facet normal -0.8660254037844388 0.4999999999999997 0
    outer loop
      vertex -36.541818305704034 16.26946572303201 0
      vertex -32.3606797749979 23.511410091698927 100
      vertex -32.3606797749979 23.511410091698927 0
    endloop
  endfacet
  facet normal -0.7431448254773941 0.6691306063588583 0
    outer loop
      vertex -32.3606797749979 23.511410091698927 0
      vertex -26.76522425435433 29.725793019095768 100
      vertex -26.76522425435433 29.725793019095768 0
    endloop
  endfacet
  facet normal -0.5877852522924728 0.8090169943749477 0
    outer loop
      vertex -26.76522425435433 29.725793019095768 0
      vertex -26.76522425435433 29.725793019095768 100
      vertex -20 34.64101615137754 0
    endloop
  endfacet
  facet normal 0 0 -1
    outer loop
      vertex -20 34.64101615137754 0
      vertex -12.360679774997896 38.04226065180614 0
      vertex -18 31.17691453623979 0
    endloop
  endfacet
  facet normal 0 0 -1
    outer loop
      vertex -12.360679774997896 38.04226065180614 0
      vertex -11.124611797498106 34.238034586625524 0
      vertex -18 31.17691453623979 0
    endloop
  endfacet
  facet normal 0 0 -1
    outer loop
      vertex -12.360679774997896 38.04226065180614 0
      vertex -4.181138530706139 39.78087581473093 0
      vertex -11.124611797498106 34.238034586625524 0
    endloop
  endfacet
  facet normal 0 0 -1
    outer loop
      vertex -4.181138530706139 39.78087581473093 0
      vertex -3.763024677635525 35.802788233257836 0
      vertex -11.124611797498106 34.238034586625524 0
    endloop
  endfacet
  facet normal 0 0 -1
    outer loop
      vertex -4.181138530706139 39.78087581473093 0
      vertex 4.181138530706139 39.78087581473093 0
      vertex -3.763024677635525 35.802788233257836 0
    endloop
  endfacet
  facet normal -0.40673664307580015 0.913545457642601 0
    outer loop
      vertex -20 34.64101615137754 0
      vertex -20 34.64101615137754 100
      vertex -12.360679774997896 38.04226065180614 0
    endloop
  endfacet
  facet normal -0.20791169081775981 0.9781476007338055 0
    outer loop
      vertex -12.360679774997896 38.04226065180614 0
      vertex -12.360679774997896 38.04226065180614 100
      vertex -4.181138530706139 39.78087581473093 0
    endloop
  endfacet
  facet normal 0 1 0
    outer loop
      vertex -4.181138530706139 39.78087581473093 0
      vertex -4.181138530706139 39.78087581473093 100
      vertex 4.181138530706139 39.78087581473093 0
    endloop
  endfacet
  facet normal -0.9945218953682734 0.10452846326765322 0
    outer loop
      vertex -40 0 0
      vertex -40 0 100
      vertex -39.12590402935223 8.316467632710374 100
    endloop
  endfacet
  facet normal -0.9510565162951534 0.30901699437494784 0
    outer loop
      vertex -39.12590402935223 8.316467632710374 0
      vertex -39.12590402935223 8.316467632710374 100
      vertex -36.541818305704034 16.26946572303201 100
    endloop
  endfacet
  facet normal -0.8660254037844388 0.4999999999999997 0
    outer loop
      vertex -36.541818305704034 16.26946572303201 0
      vertex -36.541818305704034 16.26946572303201 100
      vertex -32.3606797749979 23.511410091698927 100
    endloop
  endfacet
  facet normal 0 0 1
    outer loop
      vertex -39.12590402935223 -8.316467632710374 100
      vertex -39.12590402935223 8.316467632710374 100
      vertex -40 0 100
    endloop
  endfacet
  facet normal 0 0 1
    outer loop
      vertex -36.541818305704034 -16.26946572303201 100
      vertex -36.541818305704034 16.26946572303201 100
      vertex -39.12590402935223 8.316467632710374 100
    endloop
  endfacet
  facet normal 0 0 1
    outer loop
      vertex -32.3606797749979 -23.511410091698927 100
      vertex -32.3606797749979 23.511410091698927 100
      vertex -36.541818305704034 16.26946572303201 100
    endloop
  endfacet
  facet normal 0 0 1
    outer loop
      vertex -26.76522425435433 -29.725793019095768 100
      vertex -26.76522425435433 29.725793019095768 100
      vertex -32.3606797749979 23.511410091698927 100
    endloop
  endfacet
  facet normal 0 0 1
    outer loop
      vertex -20 -34.64101615137754 100
      vertex -20 34.64101615137754 100
      vertex -26.76522425435433 29.725793019095768 100
    endloop
  endfacet
  facet normal -0.7431448254773941 0.6691306063588583 0
    outer loop
      vertex -32.3606797749979 23.511410091698927 0
      vertex -32.3606797749979 23.511410091698927 100
      vertex -26.76522425435433 29.725793019095768 100
    endloop
  endfacet
  facet normal -0.5877852522924728 0.8090169943749477 0
    outer loop
      vertex -20 34.64101615137754 0
      vertex -26.76522425435433 29.725793019095768 100
      vertex -20 34.64101615137754 100
    endloop
  endfacet
  facet normal 0 0 1
    outer loop
      vertex -12.360679774997896 -38.04226065180614 100
      vertex -12.360679774997896 38.04226065180614 100
      vertex -20 34.64101615137754 100
    endloop
  endfacet
  facet normal 0 0 1
    outer loop
      vertex -4.181138530706139 -39.78087581473093 100
      vertex -4.181138530706139 39.78087581473093 100
      vertex -12.360679774997896 38.04226065180614 100
    endloop
  endfacet
  facet normal -0.40673664307580015 0.913545457642601 0
    outer loop
      vertex -12.360679774997896 38.04226065180614 0
      vertex -20 34.64101615137754 100
      vertex -12.360679774997896 38.04226065180614 100
    endloop
  endfacet
  facet normal -0.20791169081775981 0.9781476007338055 0
    outer loop
      vertex -4.181138530706139 39.78087581473093 0
      vertex -12.360679774997896 38.04226065180614 100
      vertex -4.181138530706139 39.78087581473093 100
    endloop
  endfacet
  facet normal 0 0 -1
    outer loop
      vertex -4.181138530706139 -39.78087581473093 0
      vertex 3.763024677635525 -35.802788233257836 0
      vertex 4.181138530706139 -39.78087581473093 0
    endloop
  endfacet
  facet normal 0 0 -1
    outer loop
      vertex 4.181138530706139 -39.78087581473093 0
      vertex 3.763024677635525 -35.802788233257836 0
      vertex 11.124611797498106 -34.238034586625524 0
    endloop
  endfacet
  facet normal 0 0 -1
    outer loop
      vertex 4.181138530706139 -39.78087581473093 0
      vertex 11.124611797498106 -34.238034586625524 0
      vertex 12.360679774997896 -38.04226065180614 0
    endloop
  endfacet
  facet normal 0 0 -1
    outer loop
      vertex 12.360679774997896 -38.04226065180614 0
      vertex 11.124611797498106 -34.238034586625524 0
      vertex 18 -31.17691453623979 0
    endloop
  endfacet
  facet normal 0 0 -1
    outer loop
      vertex 12.360679774997896 -38.04226065180614 0
      vertex 18 -31.17691453623979 0
      vertex 20 -34.64101615137754 0
    endloop
  endfacet
  facet normal 0 -1 0
    outer loop
      vertex -4.181138530706139 -39.78087581473093 0
      vertex 4.181138530706139 -39.78087581473093 0
      vertex 4.181138530706139 -39.78087581473093 100
    endloop
  endfacet
  facet normal 0.20791169081775981 -0.9781476007338055 0
    outer loop
      vertex 4.181138530706139 -39.78087581473093 0
      vertex 12.360679774997896 -38.04226065180614 0
      vertex 12.360679774997896 -38.04226065180614 100
    endloop
  endfacet
  facet normal 0.40673664307580015 -0.913545457642601 0
    outer loop
      vertex 12.360679774997896 -38.04226065180614 0
      vertex 20 -34.64101615137754 0
      vertex 20 -34.64101615137754 100
    endloop
  endfacet
  facet normal 0 0 -1
    outer loop
      vertex 20 -34.64101615137754 0
      vertex 18 -31.17691453623979 0
      vertex 24.088701828918897 -26.753213717186192 0
    endloop
  endfacet
  facet normal 0 0 -1
    outer loop
      vertex 20 -34.64101615137754 0
      vertex 24.088701828918897 -26.753213717186192 0
      vertex 26.76522425435433 -29.725793019095768 0
    endloop
  endfacet
  facet normal 0 0 -1
    outer loop
      vertex 26.76522425435433 -29.725793019095768 0
      vertex 24.088701828918897 -26.753213717186192 0
      vertex 29.12461179749811 -21.160269082529034 0
    endloop
  endfacet
  facet normal 0 0 -1
    outer loop
      vertex 26.76522425435433 -29.725793019095768 0
      vertex 29.12461179749811 -21.160269082529034 0
      vertex 32.3606797749979 -23.511410091698927 0
    endloop
  endfacet
  facet normal 0.5877852522924728 -0.8090169943749477 0
    outer loop
      vertex 20 -34.64101615137754 0
      vertex 26.76522425435433 -29.725793019095768 0
      vertex 26.76522425435433 -29.725793019095768 100
    endloop
  endfacet
  facet normal 0.7431448254773941 -0.6691306063588583 0
    outer loop
      vertex 26.76522425435433 -29.725793019095768 0
      vertex 32.3606797749979 -23.511410091698927 0
      vertex 26.76522425435433 -29.725793019095768 100
    endloop
  endfacet
  facet normal 0.8660254037844388 -0.4999999999999997 0
    outer loop
      vertex 32.3606797749979 -23.511410091698927 0
      vertex 36.541818305704034 -16.26946572303201 0
      vertex 32.3606797749979 -23.511410091698927 100
    endloop
  endfacet
  facet normal 0 0 -1
    outer loop
      vertex 32.3606797749979 -23.511410091698927 0
      vertex 29.12461179749811 -21.160269082529034 0
      vertex 32.88763647513363 -14.642519150728807 0
    endloop
  endfacet
  facet normal 0 0 -1
    outer loop
      vertex 32.3606797749979 -23.511410091698927 0
      vertex 32.88763647513363 -14.642519150728807 0
      vertex 35.213313626417005 -7.4848208694393366 0
    endloop
  endfacet
  facet normal 0 0 -1
    outer loop
      vertex 32.3606797749979 -23.511410091698927 0
      vertex 35.213313626417005 -7.4848208694393366 0
      vertex 36.541818305704034 -16.26946572303201 0
    endloop
  endfacet
  facet normal 0 0 -1
    outer loop
      vertex 36.541818305704034 -16.26946572303201 0
      vertex 35.213313626417005 -7.4848208694393366 0
      vertex 36 0 0
    endloop
  endfacet
  facet normal 0 0 -1
    outer loop
      vertex 36.541818305704034 -16.26946572303201 0
      vertex 39.12590402935223 8.316467632710374 0
      vertex 39.12590402935223 -8.316467632710374 0
    endloop
  endfacet
  facet normal 0.9510565162951534 -0.30901699437494784 0
    outer loop
      vertex 36.541818305704034 -16.26946572303201 0
      vertex 39.12590402935223 -8.316467632710374 0
      vertex 36.541818305704034 -16.26946572303201 100
    endloop
  endfacet
  facet normal 0.9945218953682734 -0.10452846326765322 0
    outer loop
      vertex 39.12590402935223 -8.316467632710374 0
      vertex 40 0 0
      vertex 39.12590402935223 -8.316467632710374 100
    endloop
  endfacet
  facet normal 0.20791169081775981 -0.9781476007338055 0
    outer loop
      vertex 4.181138530706139 -39.78087581473093 0
      vertex 12.360679774997896 -38.04226065180614 100
      vertex 4.181138530706139 -39.78087581473093 100
    endloop
  endfacet
  facet normal 0.40673664307580015 -0.913545457642601 0
    outer loop
      vertex 12.360679774997896 -38.04226065180614 0
      vertex 20 -34.64101615137754 100
      vertex 12.360679774997896 -38.04226065180614 100
    endloop
  endfacet
  facet normal 0 0 1
    outer loop
      vertex 4.181138530706139 -39.78087581473093 100
      vertex 12.360679774997896 -38.04226065180614 100
      vertex 4.181138530706139 39.78087581473093 100
    endloop
  endfacet
  facet normal 0 0 1
    outer loop
      vertex 12.360679774997896 -38.04226065180614 100
      vertex 20 -34.64101615137754 100
      vertex 12.360679774997896 38.04226065180614 100
    endloop
  endfacet
  facet normal 0.5877852522924728 -0.8090169943749477 0
    outer loop
      vertex 20 -34.64101615137754 0
      vertex 26.76522425435433 -29.725793019095768 100
      vertex 20 -34.64101615137754 100
    endloop
  endfacet
  facet normal 0.7431448254773941 -0.6691306063588583 0
    outer loop
      vertex 32.3606797749979 -23.511410091698927 0
      vertex 32.3606797749979 -23.511410091698927 100
      vertex 26.76522425435433 -29.725793019095768 100
    endloop
  endfacet
  facet normal 0.8660254037844388 -0.4999999999999997 0
    outer loop
      vertex 36.541818305704034 -16.26946572303201 0
      vertex 36.541818305704034 -16.26946572303201 100
      vertex 32.3606797749979 -23.511410091698927 100
    endloop
  endfacet
  facet normal 0.9510565162951534 -0.30901699437494784 0
    outer loop
      vertex 39.12590402935223 -8.316467632710374 0
      vertex 39.12590402935223 -8.316467632710374 100
      vertex 36.541818305704034 -16.26946572303201 100
    endloop
  endfacet
  facet normal 0.9945218953682734 -0.10452846326765322 0
    outer loop
      vertex 39.12590402935223 -8.316467632710374 100
      vertex 40 0 0
      vertex 40 0 100
    endloop
  endfacet
  facet normal 0 0 1
    outer loop
      vertex 20 -34.64101615137754 100
      vertex 26.76522425435433 -29.725793019095768 100
      vertex 20 34.64101615137754 100
    endloop
  endfacet
  facet normal 0 0 1
    outer loop
      vertex 26.76522425435433 -29.725793019095768 100
      vertex 32.3606797749979 -23.511410091698927 100
      vertex 26.76522425435433 29.725793019095768 100
    endloop
  endfacet
  facet normal 0 0 1
    outer loop
      vertex 32.3606797749979 -23.511410091698927 100
      vertex 36.541818305704034 -16.26946572303201 100
      vertex 32.3606797749979 23.511410091698927 100
    endloop
  endfacet
  facet normal 0 0 1
    outer loop
      vertex 36.541818305704034 -16.26946572303201 100
      vertex 39.12590402935223 -8.316467632710374 100
      vertex 36.541818305704034 16.26946572303201 100
    endloop
  endfacet
  facet normal 0 0 -1
    outer loop
      vertex 4.181138530706139 39.78087581473093 0
      vertex 3.763024677635525 35.802788233257836 0
      vertex -3.763024677635525 35.802788233257836 0
    endloop
  endfacet
  facet normal 0 0 -1
    outer loop
      vertex 4.181138530706139 39.78087581473093 0
      vertex 12.360679774997896 38.04226065180614 0
      vertex 3.763024677635525 35.802788233257836 0
    endloop
  endfacet
  facet normal 0 0 -1
    outer loop
      vertex 12.360679774997896 38.04226065180614 0
      vertex 11.124611797498106 34.238034586625524 0
      vertex 3.763024677635525 35.802788233257836 0
    endloop
  endfacet
  facet normal 0 0 -1
    outer loop
      vertex 12.360679774997896 38.04226065180614 0
      vertex 20 34.64101615137754 0
      vertex 11.124611797498106 34.238034586625524 0
    endloop
  endfacet
  facet normal 0 0 -1
    outer loop
      vertex 20 34.64101615137754 0
      vertex 18 31.17691453623979 0
      vertex 11.124611797498106 34.238034586625524 0
    endloop
  endfacet
  facet normal 0.20791169081775981 0.9781476007338055 0
    outer loop
      vertex 4.181138530706139 39.78087581473093 0
      vertex 4.181138530706139 39.78087581473093 100
      vertex 12.360679774997896 38.04226065180614 0
    endloop
  endfacet
  facet normal 0.40673664307580015 0.913545457642601 0
    outer loop
      vertex 12.360679774997896 38.04226065180614 0
      vertex 12.360679774997896 38.04226065180614 100
      vertex 20 34.64101615137754 0
    endloop
  endfacet
  facet normal 0 0 -1
    outer loop
      vertex 36.541818305704034 -16.26946572303201 0
      vertex 36 0 0
      vertex 36.541818305704034 16.26946572303201 0
    endloop
  endfacet
  facet normal 0 0 -1
    outer loop
      vertex 36.541818305704034 -16.26946572303201 0
      vertex 36.541818305704034 16.26946572303201 0
      vertex 39.12590402935223 8.316467632710374 0
    endloop
  endfacet
  facet normal 0 0 -1
    outer loop
      vertex 39.12590402935223 -8.316467632710374 0
      vertex 39.12590402935223 8.316467632710374 0
      vertex 40 0 0
    endloop
  endfacet
  facet normal 0 0 -1
    outer loop
      vertex 36.541818305704034 16.26946572303201 0
      vertex 36 0 0
      vertex 35.213313626417005 7.4848208694393366 0
    endloop
  endfacet
  facet normal 0 0 -1
    outer loop
      vertex 36.541818305704034 16.26946572303201 0
      vertex 35.213313626417005 7.4848208694393366 0
      vertex 32.88763647513363 14.642519150728807 0
    endloop
  endfacet
  facet normal 0 0 -1
    outer loop
      vertex 36.541818305704034 16.26946572303201 0
      vertex 32.88763647513363 14.642519150728807 0
      vertex 29.12461179749811 21.160269082529034 0
    endloop
  endfacet
  facet normal 0.9945218953682734 0.10452846326765322 0
    outer loop
      vertex 40 0 0
      vertex 39.12590402935223 8.316467632710374 0
      vertex 40 0 100
    endloop
  endfacet
  facet normal 0.9510565162951534 0.30901699437494784 0
    outer loop
      vertex 39.12590402935223 8.316467632710374 0
      vertex 36.541818305704034 16.26946572303201 0
      vertex 39.12590402935223 8.316467632710374 100
    endloop
  endfacet
  facet normal 0.8660254037844388 0.4999999999999997 0
    outer loop
      vertex 36.541818305704034 16.26946572303201 0
      vertex 32.3606797749979 23.511410091698927 0
      vertex 36.541818305704034 16.26946572303201 100
    endloop
  endfacet
  facet normal 0 0 -1
    outer loop
      vertex 26.76522425435433 29.725793019095768 0
      vertex 24.088701828918897 26.753213717186192 0
      vertex 18 31.17691453623979 0
    endloop
  endfacet
  facet normal 0 0 -1
    outer loop
      vertex 32.3606797749979 23.511410091698927 0
      vertex 29.12461179749811 21.160269082529034 0
      vertex 24.088701828918897 26.753213717186192 0
    endloop
  endfacet
  facet normal 0 0 -1
    outer loop
      vertex 26.76522425435433 29.725793019095768 0
      vertex 32.3606797749979 23.511410091698927 0
      vertex 24.088701828918897 26.753213717186192 0
    endloop
  endfacet
  facet normal 0 0 -1
    outer loop
      vertex 26.76522425435433 29.725793019095768 0
      vertex 18 31.17691453623979 0
      vertex 20 34.64101615137754 0
    endloop
  endfacet
  facet normal 0 0 -1
    outer loop
      vertex 36.541818305704034 16.26946572303201 0
      vertex 29.12461179749811 21.160269082529034 0
      vertex 32.3606797749979 23.511410091698927 0
    endloop
  endfacet
  facet normal 0.5877852522924728 0.8090169943749477 0
    outer loop
      vertex 26.76522425435433 29.725793019095768 0
      vertex 20 34.64101615137754 0
      vertex 20 34.64101615137754 100
    endloop
  endfacet
  facet normal 0.7431448254773941 0.6691306063588583 0
    outer loop
      vertex 26.76522425435433 29.725793019095768 0
      vertex 32.3606797749979 23.511410091698927 100
      vertex 32.3606797749979 23.511410091698927 0
    endloop
  endfacet
  facet normal 0 0 1
    outer loop
      vertex -4.181138530706139 39.78087581473093 100
      vertex 4.181138530706139 -39.78087581473093 100
      vertex 4.181138530706139 39.78087581473093 100
    endloop
  endfacet
  facet normal 0 0 1
    outer loop
      vertex 12.360679774997896 -38.04226065180614 100
      vertex 12.360679774997896 38.04226065180614 100
      vertex 4.181138530706139 39.78087581473093 100
    endloop
  endfacet
  facet normal 0 0 1
    outer loop
      vertex 20 -34.64101615137754 100
      vertex 20 34.64101615137754 100
      vertex 12.360679774997896 38.04226065180614 100
    endloop
  endfacet
  facet normal 0 1 0
    outer loop
      vertex -4.181138530706139 39.78087581473093 100
      vertex 4.181138530706139 39.78087581473093 100
      vertex 4.181138530706139 39.78087581473093 0
    endloop
  endfacet
  facet normal 0.20791169081775981 0.9781476007338055 0
    outer loop
      vertex 12.360679774997896 38.04226065180614 0
      vertex 4.181138530706139 39.78087581473093 100
      vertex 12.360679774997896 38.04226065180614 100
    endloop
  endfacet
  facet normal 0.40673664307580015 0.913545457642601 0
    outer loop
      vertex 20 34.64101615137754 0
      vertex 12.360679774997896 38.04226065180614 100
      vertex 20 34.64101615137754 100
    endloop
  endfacet
  facet normal 0.9945218953682734 0.10452846326765322 0
    outer loop
      vertex 39.12590402935223 8.316467632710374 0
      vertex 39.12590402935223 8.316467632710374 100
      vertex 40 0 100
    endloop
  endfacet
  facet normal 0.9510565162951534 0.30901699437494784 0
    outer loop
      vertex 36.541818305704034 16.26946572303201 0
      vertex 36.541818305704034 16.26946572303201 100
      vertex 39.12590402935223 8.316467632710374 100
    endloop
  endfacet
  facet normal 0 0 1
    outer loop
      vertex 26.76522425435433 -29.725793019095768 100
      vertex 26.76522425435433 29.725793019095768 100
      vertex 20 34.64101615137754 100
    endloop
  endfacet
  facet normal 0 0 1
    outer loop
      vertex 32.3606797749979 -23.511410091698927 100
      vertex 32.3606797749979 23.511410091698927 100
      vertex 26.76522425435433 29.725793019095768 100
    endloop
  endfacet
  facet normal 0 0 1
    outer loop
      vertex 39.12590402935223 -8.316467632710374 100
      vertex 40 0 100
      vertex 39.12590402935223 8.316467632710374 100
    endloop
  endfacet
  facet normal 0 0 1
    outer loop
      vertex 36.541818305704034 -16.26946572303201 100
      vertex 36.541818305704034 16.26946572303201 100
      vertex 32.3606797749979 23.511410091698927 100
    endloop
  endfacet
  facet normal 0 0 1
    outer loop
      vertex 39.12590402935223 -8.316467632710374 100
      vertex 39.12590402935223 8.316467632710374 100
      vertex 36.541818305704034 16.26946572303201 100
    endloop
  endfacet
  facet normal 0.7431448254773941 0.6691306063588583 0
    outer loop
      vertex 26.76522425435433 29.725793019095768 0
      vertex 26.76522425435433 29.725793019095768 100
      vertex 32.3606797749979 23.511410091698927 100
    endloop
  endfacet
  facet normal 0.5877852522924728 0.8090169943749477 0
    outer loop
      vertex 26.76522425435433 29.725793019095768 0
      vertex 20 34.64101615137754 100
      vertex 26.76522425435433 29.725793019095768 100
    endloop
  endfacet
  facet normal 0.8660254037844388 0.4999999999999997 0
    outer loop
      vertex 32.3606797749979 23.511410091698927 0
      vertex 32.3606797749979 23.511410091698927 100
      vertex 36.541818305704034 16.26946572303201 100
    endloop
  endfacet
  facet normal 0.7431448254773941 0.6691306063588583 0
    outer loop
      vertex -29.12461179749811 -21.160269082529034 94
      vertex -24.088701828918897 -26.753213717186192 0
      vertex -29.12461179749811 -21.160269082529034 0
    endloop
  endfacet
  facet normal 0.5877852522924728 0.8090169943749476 0
    outer loop
      vertex -18 -31.17691453623979 94
      vertex -18 -31.17691453623979 0
      vertex -24.088701828918897 -26.753213717186192 0
    endloop
  endfacet
  facet normal 0.8660254037844387 0.49999999999999994 0
    outer loop
      vertex -32.88763647513363 -14.642519150728807 94
      vertex -29.12461179749811 -21.160269082529034 0
      vertex -32.88763647513363 -14.642519150728807 0
    endloop
  endfacet
  facet normal 0.9945218953682734 0.10452846326765323 0
    outer loop
      vertex -36 0 94
      vertex -35.213313626417005 -7.4848208694393366 0
      vertex -36 0 0
    endloop
  endfacet
  facet normal 0.9510565162951535 0.3090169943749476 0
    outer loop
      vertex -35.213313626417005 -7.4848208694393366 94
      vertex -32.88763647513363 -14.642519150728807 0
      vertex -35.213313626417005 -7.4848208694393366 0
    endloop
  endfacet
  facet normal 0.4067366430758 0.9135454576426011 0
    outer loop
      vertex -11.124611797498106 -34.238034586625524 94
      vertex -11.124611797498106 -34.238034586625524 0
      vertex -18 -31.17691453623979 0
    endloop
  endfacet
  facet normal 0.20791169081775937 0.9781476007338055 0
    outer loop
      vertex -3.763024677635525 -35.802788233257836 94
      vertex -3.763024677635525 -35.802788233257836 0
      vertex -11.124611797498106 -34.238034586625524 0
    endloop
  endfacet
  facet normal 0.7431448254773941 0.6691306063588583 0
    outer loop
      vertex -29.12461179749811 -21.160269082529034 94
      vertex -24.088701828918897 -26.753213717186192 94
      vertex -24.088701828918897 -26.753213717186192 0
    endloop
  endfacet
  facet normal 0.5877852522924728 0.8090169943749476 0
    outer loop
      vertex -24.088701828918897 -26.753213717186192 94
      vertex -18 -31.17691453623979 94
      vertex -24.088701828918897 -26.753213717186192 0
    endloop
  endfacet
  facet normal 0.8660254037844387 0.49999999999999994 0
    outer loop
      vertex -29.12461179749811 -21.160269082529034 94
      vertex -29.12461179749811 -21.160269082529034 0
      vertex -32.88763647513363 -14.642519150728807 94
    endloop
  endfacet
  facet normal 0.9510565162951535 0.3090169943749476 0
    outer loop
      vertex -32.88763647513363 -14.642519150728807 94
      vertex -32.88763647513363 -14.642519150728807 0
      vertex -35.213313626417005 -7.4848208694393366 94
    endloop
  endfacet
  facet normal 0.9945218953682734 0.10452846326765323 0
    outer loop
      vertex -35.213313626417005 -7.4848208694393366 94
      vertex -35.213313626417005 -7.4848208694393366 0
      vertex -36 0 94
    endloop
  endfacet
  facet normal 0 0 -1
    outer loop
      vertex -29.12461179749811 -21.160269082529034 94
      vertex -32.88763647513363 -14.642519150728807 94
      vertex -32.88763647513363 14.642519150728807 94
    endloop
  endfacet
  facet normal 0 0 -1
    outer loop
      vertex -32.88763647513363 -14.642519150728807 94
      vertex -35.213313626417005 -7.4848208694393366 94
      vertex -35.213313626417005 7.4848208694393366 94
    endloop
  endfacet
  facet normal 0 0 -1
    outer loop
      vertex -24.088701828918897 -26.753213717186192 94
      vertex -24.088701828918897 26.753213717186192 94
      vertex -18 -31.17691453623979 94
    endloop
  endfacet
  facet normal 0 0 -1
    outer loop
      vertex -29.12461179749811 -21.160269082529034 94
      vertex -29.12461179749811 21.160269082529034 94
      vertex -24.088701828918897 -26.753213717186192 94
    endloop
  endfacet
  facet normal 0.4067366430758 0.9135454576426011 0
    outer loop
      vertex -18 -31.17691453623979 94
      vertex -11.124611797498106 -34.238034586625524 94
      vertex -18 -31.17691453623979 0
    endloop
  endfacet
  facet normal 0.20791169081775937 0.9781476007338055 0
    outer loop
      vertex -11.124611797498106 -34.238034586625524 94
      vertex -3.763024677635525 -35.802788233257836 94
      vertex -11.124611797498106 -34.238034586625524 0
    endloop
  endfacet
  facet normal 0 1 0
    outer loop
      vertex -3.763024677635525 -35.802788233257836 94
      vertex 3.763024677635525 -35.802788233257836 94
      vertex -3.763024677635525 -35.802788233257836 0
    endloop
  endfacet
  facet normal 0 0 -1
    outer loop
      vertex -18 -31.17691453623979 94
      vertex -18 31.17691453623979 94
      vertex -11.124611797498106 -34.238034586625524 94
    endloop
  endfacet
  facet normal 0 0 -1
    outer loop
      vertex -11.124611797498106 -34.238034586625524 94
      vertex -11.124611797498106 34.238034586625524 94
      vertex -3.763024677635525 -35.802788233257836 94
    endloop
  endfacet
  facet normal 0 0 -1
    outer loop
      vertex -3.763024677635525 -35.802788233257836 94
      vertex -3.763024677635525 35.802788233257836 94
      vertex 3.763024677635525 -35.802788233257836 94
    endloop
  endfacet
  facet normal 0.9945218953682734 -0.10452846326765323 0
    outer loop
      vertex -35.213313626417005 7.4848208694393366 94
      vertex -36 0 0
      vertex -35.213313626417005 7.4848208694393366 0
    endloop
  endfacet
  facet normal 0.9510565162951535 -0.3090169943749476 0
    outer loop
      vertex -32.88763647513363 14.642519150728807 94
      vertex -35.213313626417005 7.4848208694393366 0
      vertex -32.88763647513363 14.642519150728807 0
    endloop
  endfacet
  facet normal 0.8660254037844387 -0.49999999999999994 0
    outer loop
      vertex -29.12461179749811 21.160269082529034 94
      vertex -32.88763647513363 14.642519150728807 0
      vertex -29.12461179749811 21.160269082529034 0
    endloop
  endfacet
  facet normal 0.7431448254773941 -0.6691306063588583 0
    outer loop
      vertex -24.088701828918897 26.753213717186192 94
      vertex -29.12461179749811 21.160269082529034 0
      vertex -24.088701828918897 26.753213717186192 0
    endloop
  endfacet
  facet normal 0.5877852522924728 -0.8090169943749476 0
    outer loop
      vertex -24.088701828918897 26.753213717186192 94
      vertex -24.088701828918897 26.753213717186192 0
      vertex -18 31.17691453623979 0
    endloop
  endfacet
  facet normal 0.4067366430758 -0.9135454576426011 0
    outer loop
      vertex -18 31.17691453623979 94
      vertex -18 31.17691453623979 0
      vertex -11.124611797498106 34.238034586625524 0
    endloop
  endfacet
  facet normal 0.20791169081775937 -0.9781476007338055 0
    outer loop
      vertex -11.124611797498106 34.238034586625524 94
      vertex -11.124611797498106 34.238034586625524 0
      vertex -3.763024677635525 35.802788233257836 0
    endloop
  endfacet
  facet normal 0 -1 0
    outer loop
      vertex -3.763024677635525 35.802788233257836 94
      vertex -3.763024677635525 35.802788233257836 0
      vertex 3.763024677635525 35.802788233257836 0
    endloop
  endfacet
  facet normal 0.9945218953682734 -0.10452846326765323 0
    outer loop
      vertex -36 0 94
      vertex -36 0 0
      vertex -35.213313626417005 7.4848208694393366 94
    endloop
  endfacet
  facet normal 0.9510565162951535 -0.3090169943749476 0
    outer loop
      vertex -35.213313626417005 7.4848208694393366 94
      vertex -35.213313626417005 7.4848208694393366 0
      vertex -32.88763647513363 14.642519150728807 94
    endloop
  endfacet
  facet normal 0.8660254037844387 -0.49999999999999994 0
    outer loop
      vertex -32.88763647513363 14.642519150728807 94
      vertex -32.88763647513363 14.642519150728807 0
      vertex -29.12461179749811 21.160269082529034 94
    endloop
  endfacet
  facet normal 0 0 -1
    outer loop
      vertex -35.213313626417005 -7.4848208694393366 94
      vertex -36 0 94
      vertex -35.213313626417005 7.4848208694393366 94
    endloop
  endfacet
  facet normal 0 0 -1
    outer loop
      vertex -32.88763647513363 -14.642519150728807 94
      vertex -35.213313626417005 7.4848208694393366 94
      vertex -32.88763647513363 14.642519150728807 94
    endloop
  endfacet
  facet normal 0 0 -1
    outer loop
      vertex -29.12461179749811 -21.160269082529034 94
      vertex -32.88763647513363 14.642519150728807 94
      vertex -29.12461179749811 21.160269082529034 94
    endloop
  endfacet
  facet normal 0 0 -1
    outer loop
      vertex -24.088701828918897 -26.753213717186192 94
      vertex -29.12461179749811 21.160269082529034 94
      vertex -24.088701828918897 26.753213717186192 94
    endloop
  endfacet
  facet normal 0 0 -1
    outer loop
      vertex -18 -31.17691453623979 94
      vertex -24.088701828918897 26.753213717186192 94
      vertex -18 31.17691453623979 94
    endloop
  endfacet
  facet normal 0.7431448254773941 -0.6691306063588583 0
    outer loop
      vertex -29.12461179749811 21.160269082529034 94
      vertex -29.12461179749811 21.160269082529034 0
      vertex -24.088701828918897 26.753213717186192 94
    endloop
  endfacet
  facet normal 0.5877852522924728 -0.8090169943749476 0
    outer loop
      vertex -24.088701828918897 26.753213717186192 94
      vertex -18 31.17691453623979 0
      vertex -18 31.17691453623979 94
    endloop
  endfacet
  facet normal 0 0 -1
    outer loop
      vertex -11.124611797498106 -34.238034586625524 94
      vertex -18 31.17691453623979 94
      vertex -11.124611797498106 34.238034586625524 94
    endloop
  endfacet
  facet normal 0 0 -1
    outer loop
      vertex -3.763024677635525 -35.802788233257836 94
      vertex -11.124611797498106 34.238034586625524 94
      vertex -3.763024677635525 35.802788233257836 94
    endloop
  endfacet
  facet normal 0.4067366430758 -0.9135454576426011 0
    outer loop
      vertex -18 31.17691453623979 94
      vertex -11.124611797498106 34.238034586625524 0
      vertex -11.124611797498106 34.238034586625524 94
    endloop
  endfacet
  facet normal 0.20791169081775937 -0.9781476007338055 0
    outer loop
      vertex -11.124611797498106 34.238034586625524 94
      vertex -3.763024677635525 35.802788233257836 0
      vertex -3.763024677635525 35.802788233257836 94
    endloop
  endfacet
  facet normal 0 1 0
    outer loop
      vertex 3.763024677635525 -35.802788233257836 94
      vertex 3.763024677635525 -35.802788233257836 0
      vertex -3.763024677635525 -35.802788233257836 0
    endloop
  endfacet
  facet normal -0.20791169081775937 0.9781476007338055 0
    outer loop
      vertex 11.124611797498106 -34.238034586625524 94
      vertex 11.124611797498106 -34.238034586625524 0
      vertex 3.763024677635525 -35.802788233257836 0
    endloop
  endfacet
  facet normal -0.4067366430758 0.9135454576426011 0
    outer loop
      vertex 18 -31.17691453623979 94
      vertex 18 -31.17691453623979 0
      vertex 11.124611797498106 -34.238034586625524 0
    endloop
  endfacet
  facet normal -0.5877852522924728 0.8090169943749476 0
    outer loop
      vertex 24.088701828918897 -26.753213717186192 94
      vertex 24.088701828918897 -26.753213717186192 0
      vertex 18 -31.17691453623979 0
    endloop
  endfacet
  facet normal -0.7431448254773941 0.6691306063588583 0
    outer loop
      vertex 24.088701828918897 -26.753213717186192 94
      vertex 29.12461179749811 -21.160269082529034 0
      vertex 24.088701828918897 -26.753213717186192 0
    endloop
  endfacet
  facet normal -0.8660254037844387 0.49999999999999994 0
    outer loop
      vertex 29.12461179749811 -21.160269082529034 94
      vertex 32.88763647513363 -14.642519150728807 0
      vertex 29.12461179749811 -21.160269082529034 0
    endloop
  endfacet
  facet normal -0.9510565162951535 0.3090169943749476 0
    outer loop
      vertex 32.88763647513363 -14.642519150728807 94
      vertex 35.213313626417005 -7.4848208694393366 0
      vertex 32.88763647513363 -14.642519150728807 0
    endloop
  endfacet
  facet normal -0.9945218953682734 0.10452846326765323 0
    outer loop
      vertex 35.213313626417005 -7.4848208694393366 94
      vertex 36 0 0
      vertex 35.213313626417005 -7.4848208694393366 0
    endloop
  endfacet
  facet normal -0.20791169081775937 0.9781476007338055 0
    outer loop
      vertex 3.763024677635525 -35.802788233257836 94
      vertex 11.124611797498106 -34.238034586625524 94
      vertex 3.763024677635525 -35.802788233257836 0
    endloop
  endfacet
  facet normal -0.4067366430758 0.9135454576426011 0
    outer loop
      vertex 11.124611797498106 -34.238034586625524 94
      vertex 18 -31.17691453623979 94
      vertex 11.124611797498106 -34.238034586625524 0
    endloop
  endfacet
  facet normal 0 0 -1
    outer loop
      vertex 3.763024677635525 -35.802788233257836 94
      vertex 3.763024677635525 35.802788233257836 94
      vertex 11.124611797498106 -34.238034586625524 94
    endloop
  endfacet
  facet normal 0 0 -1
    outer loop
      vertex 11.124611797498106 -34.238034586625524 94
      vertex 11.124611797498106 34.238034586625524 94
      vertex 18 -31.17691453623979 94
    endloop
  endfacet
  facet normal -0.5877852522924728 0.8090169943749476 0
    outer loop
      vertex 18 -31.17691453623979 94
      vertex 24.088701828918897 -26.753213717186192 94
      vertex 18 -31.17691453623979 0
    endloop
  endfacet
  facet normal -0.7431448254773941 0.6691306063588583 0
    outer loop
      vertex 24.088701828918897 -26.753213717186192 94
      vertex 29.12461179749811 -21.160269082529034 94
      vertex 29.12461179749811 -21.160269082529034 0
    endloop
  endfacet
  facet normal -0.8660254037844387 0.49999999999999994 0
    outer loop
      vertex 29.12461179749811 -21.160269082529034 94
      vertex 32.88763647513363 -14.642519150728807 94
      vertex 32.88763647513363 -14.642519150728807 0
    endloop
  endfacet
  facet normal -0.9510565162951535 0.3090169943749476 0
    outer loop
      vertex 32.88763647513363 -14.642519150728807 94
      vertex 35.213313626417005 -7.4848208694393366 94
      vertex 35.213313626417005 -7.4848208694393366 0
    endloop
  endfacet
  facet normal -0.9945218953682734 0.10452846326765323 0
    outer loop
      vertex 35.213313626417005 -7.4848208694393366 94
      vertex 36 0 94
      vertex 36 0 0
    endloop
  endfacet
  facet normal 0 0 -1
    outer loop
      vertex 18 -31.17691453623979 94
      vertex 18 31.17691453623979 94
      vertex 24.088701828918897 -26.753213717186192 94
    endloop
  endfacet
  facet normal 0 0 -1
    outer loop
      vertex 24.088701828918897 -26.753213717186192 94
      vertex 24.088701828918897 26.753213717186192 94
      vertex 29.12461179749811 -21.160269082529034 94
    endloop
  endfacet
  facet normal 0 0 -1
    outer loop
      vertex 29.12461179749811 -21.160269082529034 94
      vertex 29.12461179749811 21.160269082529034 94
      vertex 32.88763647513363 -14.642519150728807 94
    endloop
  endfacet
  facet normal 0 0 -1
    outer loop
      vertex 32.88763647513363 -14.642519150728807 94
      vertex 32.88763647513363 14.642519150728807 94
      vertex 35.213313626417005 -7.4848208694393366 94
    endloop
  endfacet
  facet normal -0.20791169081775937 -0.9781476007338055 0
    outer loop
      vertex 3.763024677635525 35.802788233257836 94
      vertex 3.763024677635525 35.802788233257836 0
      vertex 11.124611797498106 34.238034586625524 0
    endloop
  endfacet
  facet normal -0.4067366430758 -0.9135454576426011 0
    outer loop
      vertex 11.124611797498106 34.238034586625524 94
      vertex 11.124611797498106 34.238034586625524 0
      vertex 18 31.17691453623979 0
    endloop
  endfacet
  facet normal -0.9510565162951535 -0.3090169943749476 0
    outer loop
      vertex 35.213313626417005 7.4848208694393366 94
      vertex 32.88763647513363 14.642519150728807 0
      vertex 35.213313626417005 7.4848208694393366 0
    endloop
  endfacet
  facet normal -0.9945218953682734 -0.10452846326765323 0
    outer loop
      vertex 36 0 94
      vertex 35.213313626417005 7.4848208694393366 0
      vertex 36 0 0
    endloop
  endfacet
  facet normal -0.8660254037844387 -0.49999999999999994 0
    outer loop
      vertex 32.88763647513363 14.642519150728807 94
      vertex 29.12461179749811 21.160269082529034 0
      vertex 32.88763647513363 14.642519150728807 0
    endloop
  endfacet
  facet normal -0.5877852522924728 -0.8090169943749476 0
    outer loop
      vertex 18 31.17691453623979 94
      vertex 18 31.17691453623979 0
      vertex 24.088701828918897 26.753213717186192 0
    endloop
  endfacet
  facet normal -0.7431448254773941 -0.6691306063588583 0
    outer loop
      vertex 29.12461179749811 21.160269082529034 94
      vertex 24.088701828918897 26.753213717186192 0
      vertex 29.12461179749811 21.160269082529034 0
    endloop
  endfacet
  facet normal 0 0 -1
    outer loop
      vertex -3.763024677635525 35.802788233257836 94
      vertex 3.763024677635525 35.802788233257836 94
      vertex 3.763024677635525 -35.802788233257836 94
    endloop
  endfacet
  facet normal 0 0 -1
    outer loop
      vertex 11.124611797498106 -34.238034586625524 94
      vertex 3.763024677635525 35.802788233257836 94
      vertex 11.124611797498106 34.238034586625524 94
    endloop
  endfacet
  facet normal 0 0 -1
    outer loop
      vertex 18 -31.17691453623979 94
      vertex 11.124611797498106 34.238034586625524 94
      vertex 18 31.17691453623979 94
    endloop
  endfacet
  facet normal 0 -1 0
    outer loop
      vertex -3.763024677635525 35.802788233257836 94
      vertex 3.763024677635525 35.802788233257836 0
      vertex 3.763024677635525 35.802788233257836 94
    endloop
  endfacet
  facet normal -0.20791169081775937 -0.9781476007338055 0
    outer loop
      vertex 3.763024677635525 35.802788233257836 94
      vertex 11.124611797498106 34.238034586625524 0
      vertex 11.124611797498106 34.238034586625524 94
    endloop
  endfacet
  facet normal -0.4067366430758 -0.9135454576426011 0
    outer loop
      vertex 11.124611797498106 34.238034586625524 94
      vertex 18 31.17691453623979 0
      vertex 18 31.17691453623979 94
    endloop
  endfacet
  facet normal -0.9945218953682734 -0.10452846326765323 0
    outer loop
      vertex 36 0 94
      vertex 35.213313626417005 7.4848208694393366 94
      vertex 35.213313626417005 7.4848208694393366 0
    endloop
  endfacet
  facet normal -0.9510565162951535 -0.3090169943749476 0
    outer loop
      vertex 35.213313626417005 7.4848208694393366 94
      vertex 32.88763647513363 14.642519150728807 94
      vertex 32.88763647513363 14.642519150728807 0
    endloop
  endfacet
  facet normal -0.8660254037844387 -0.49999999999999994 0
    outer loop
      vertex 32.88763647513363 14.642519150728807 94
      vertex 29.12461179749811 21.160269082529034 94
      vertex 29.12461179749811 21.160269082529034 0
    endloop
  endfacet
  facet normal 0 0 -1
    outer loop
      vertex 29.12461179749811 -21.160269082529034 94
      vertex 24.088701828918897 26.753213717186192 94
      vertex 29.12461179749811 21.160269082529034 94
    endloop
  endfacet
  facet normal 0 0 -1
    outer loop
      vertex 24.088701828918897 -26.753213717186192 94
      vertex 18 31.17691453623979 94
      vertex 24.088701828918897 26.753213717186192 94
    endloop
  endfacet
  facet normal 0 0 -1
    outer loop
      vertex 35.213313626417005 -7.4848208694393366 94
      vertex 32.88763647513363 14.642519150728807 94
      vertex 35.213313626417005 7.4848208694393366 94
    endloop
  endfacet
  facet normal 0 0 -1
    outer loop
      vertex 32.88763647513363 -14.642519150728807 94
      vertex 29.12461179749811 21.160269082529034 94
      vertex 32.88763647513363 14.642519150728807 94
    endloop
  endfacet
  facet normal 0 0 -1
    outer loop
      vertex 35.213313626417005 -7.4848208694393366 94
      vertex 35.213313626417005 7.4848208694393366 94
      vertex 36 0 94
    endloop
  endfacet
  facet normal -0.5877852522924728 -0.8090169943749476 0
    outer loop
      vertex 24.088701828918897 26.753213717186192 94
      vertex 18 31.17691453623979 94
      vertex 24.088701828918897 26.753213717186192 0
    endloop
  endfacet
  facet normal -0.7431448254773941 -0.6691306063588583 0
    outer loop
      vertex 24.088701828918897 26.753213717186192 94
      vertex 24.088701828918897 26.753213717186192 0
      vertex 29.12461179749811 21.160269082529034 94
    endloop
  endfacet
endsolid OpenSCAD_Model
