solid OpenSCAD_Model
  facet normal 0 0 -1
    outer loop
      vertex -18.5 -6.5 -6.75
      vertex -15.244427190999916 -1.5216904260722457 -6.75
      vertex -15.04981010333716 -1.5716596011659019 -6.75
    endloop
  endfacet
  facet normal 0 0 -1
    outer loop
      vertex -18.5 -6.5 -6.75
      vertex -15.607322871966394 -1.350924680803224 -6.75
      vertex -15.431246866504116 -1.4477232839456313 -6.75
    endloop
  endfacet
  facet normal 0 0 -1
    outer loop
      vertex -18.5 -6.5 -6.75
      vertex -15.769878383597904 -1.232821188441263 -6.75
      vertex -15.607322871966394 -1.350924680803224 -6.75
    endloop
  endfacet
  facet normal 0 0 -1
    outer loop
      vertex -18.5 -6.5 -6.75
      vertex -15.916349803874258 -1.0952753694859017 -6.75
      vertex -15.769878383597904 -1.232821188441263 -6.75
    endloop
  endfacet
  facet normal 0 0 -1
    outer loop
      vertex -18.5 -6.5 -6.75
      vertex -15.431246866504116 -1.4477232839456313 -6.75
      vertex -15.244427190999916 -1.5216904260722457 -6.75
    endloop
  endfacet
  facet normal 0 0 -1
    outer loop
      vertex -18.5 -6.5 -6.75
      vertex -16.044427190999915 -0.940456403667957 -6.75
      vertex -15.916349803874258 -1.0952753694859017 -6.75
    endloop
  endfacet
  facet normal 0 0 -1
    outer loop
      vertex -18.5 -6.5 -6.75
      vertex -16.15209068807018 -0.7708058785627446 -6.75
      vertex -16.044427190999915 -0.940456403667957 -6.75
    endloop
  endfacet
  facet normal 0 0 -1
    outer loop
      vertex -18.5 -6.5 -6.75
      vertex -16.237642377421203 -0.5889992842954846 -6.75
      vertex -16.15209068807018 -0.7708058785627446 -6.75
    endloop
  endfacet
  facet normal 0 0 -1
    outer loop
      vertex -18.5 -6.5 -6.75
      vertex -16.29973305780581 -0.3979038194637678 -6.75
      vertex -16.237642377421203 -0.5889992842954846 -6.75
    endloop
  endfacet
  facet normal 0 0 -1
    outer loop
      vertex -18.5 -6.5 -6.75
      vertex -16.337383522103163 -0.2005331737028865 -6.75
      vertex -16.29973305780581 -0.3979038194637678 -6.75
    endloop
  endfacet
  facet normal 0 0 -1
    outer loop
      vertex -18.5 -6.5 -6.75
      vertex -16.35 0 -6.75
      vertex -16.337383522103163 -0.2005331737028865 -6.75
    endloop
  endfacet
  facet normal 0 0 -1
    outer loop
      vertex -18.5 -6.5 -6.75
      vertex -15.04981010333716 -1.5716596011659019 -6.75
      vertex -14.850464831246901 -1.5968427654852346 -6.75
    endloop
  endfacet
  facet normal 0 0 -1
    outer loop
      vertex -18.5 -6.5 -6.75
      vertex -14.850464831246901 -1.5968427654852346 -6.75
      vertex -5.05 -5 -6.75
    endloop
  endfacet
  facet normal 0 0 -1
    outer loop
      vertex -5.05 -5 -6.75
      vertex -14.850464831246901 -1.5968427654852346 -6.75
      vertex -14.649535168753099 -1.5968427654852346 -6.75
    endloop
  endfacet
  facet normal 0 0 -1
    outer loop
      vertex -5.05 -5 -6.75
      vertex -14.649535168753099 -1.5968427654852346 -6.75
      vertex -14.45018989666284 -1.5716596011659019 -6.75
    endloop
  endfacet
  facet normal 0 0 -1
    outer loop
      vertex -5.05 -5 -6.75
      vertex -14.45018989666284 -1.5716596011659019 -6.75
      vertex -14.255572809000084 -1.5216904260722457 -6.75
    endloop
  endfacet
  facet normal 0 0 -1
    outer loop
      vertex -5.05 -5 -6.75
      vertex -14.255572809000084 -1.5216904260722457 -6.75
      vertex -14.068753133495884 -1.4477232839456313 -6.75
    endloop
  endfacet
  facet normal 0 0 -1
    outer loop
      vertex -5.05 -5 -6.75
      vertex -14.068753133495884 -1.4477232839456313 -6.75
      vertex -13.892677128033606 -1.3509246808032245 -6.75
    endloop
  endfacet
  facet normal 0 0 -1
    outer loop
      vertex -5.05 -5 -6.75
      vertex -13.892677128033606 -1.3509246808032245 -6.75
      vertex -13.730121616402096 -1.2328211884412625 -6.75
    endloop
  endfacet
  facet normal 0 0 -1
    outer loop
      vertex -5.05 -5 -6.75
      vertex -13.730121616402096 -1.2328211884412625 -6.75
      vertex -13.583650196125742 -1.0952753694859017 -6.75
    endloop
  endfacet
  facet normal 0 0 -1
    outer loop
      vertex -5.05 -5 -6.75
      vertex -13.583650196125742 -1.0952753694859017 -6.75
      vertex -13.455572809000085 -0.940456403667957 -6.75
    endloop
  endfacet
  facet normal 0 0 -1
    outer loop
      vertex -5.05 -5 -6.75
      vertex -13.455572809000085 -0.940456403667957 -6.75
      vertex -13.347909311929818 -0.7708058785627446 -6.75
    endloop
  endfacet
  facet normal 0 0 -1
    outer loop
      vertex -5.05 -5 -6.75
      vertex -13.347909311929818 -0.7708058785627446 -6.75
      vertex -13.262357622578797 -0.5889992842954854 -6.75
    endloop
  endfacet
  facet normal 0 0 -1
    outer loop
      vertex -5.05 -5 -6.75
      vertex -13.262357622578797 -0.5889992842954854 -6.75
      vertex -13.20026694219419 -0.3979038194637671 -6.75
    endloop
  endfacet
  facet normal 0 0 -1
    outer loop
      vertex -5.05 -5 -6.75
      vertex -13.20026694219419 -0.3979038194637671 -6.75
      vertex -13.162616477896835 -0.2005331737028865 -6.75
    endloop
  endfacet
  facet normal 0 0 -1
    outer loop
      vertex -13.162616477896835 -0.2005331737028865 -6.75
      vertex -13.15 0 -6.75
      vertex -5.05 -5 -6.75
    endloop
  endfacet
  facet normal 0 0 -1
    outer loop
      vertex -18.5 -6.5 -6.75
      vertex -18.5 6.5 -6.75
      vertex -16.35 0 -6.75
    endloop
  endfacet
  facet normal 0 0 -1
    outer loop
      vertex -18.5 6.5 -6.75
      vertex -16.337383522103163 0.2005331737028865 -6.75
      vertex -16.35 0 -6.75
    endloop
  endfacet
  facet normal 0 0 -1
    outer loop
      vertex -18.5 6.5 -6.75
      vertex -16.29973305780581 0.3979038194637678 -6.75
      vertex -16.337383522103163 0.2005331737028865 -6.75
    endloop
  endfacet
  facet normal 0 0 -1
    outer loop
      vertex -18.5 6.5 -6.75
      vertex -16.237642377421203 0.5889992842954846 -6.75
      vertex -16.29973305780581 0.3979038194637678 -6.75
    endloop
  endfacet
  facet normal 0 0 -1
    outer loop
      vertex -18.5 6.5 -6.75
      vertex -16.15209068807018 0.7708058785627446 -6.75
      vertex -16.237642377421203 0.5889992842954846 -6.75
    endloop
  endfacet
  facet normal 0 0 -1
    outer loop
      vertex -18.5 6.5 -6.75
      vertex -16.044427190999915 0.940456403667957 -6.75
      vertex -16.15209068807018 0.7708058785627446 -6.75
    endloop
  endfacet
  facet normal 0 0 -1
    outer loop
      vertex -18.5 6.5 -6.75
      vertex -15.916349803874258 1.0952753694859017 -6.75
      vertex -16.044427190999915 0.940456403667957 -6.75
    endloop
  endfacet
  facet normal 0 0 -1
    outer loop
      vertex -18.5 6.5 -6.75
      vertex -15.769878383597904 1.232821188441263 -6.75
      vertex -15.916349803874258 1.0952753694859017 -6.75
    endloop
  endfacet
  facet normal 0 0 -1
    outer loop
      vertex -18.5 6.5 -6.75
      vertex -15.607322871966394 1.350924680803224 -6.75
      vertex -15.769878383597904 1.232821188441263 -6.75
    endloop
  endfacet
  facet normal 0 0 -1
    outer loop
      vertex -18.5 6.5 -6.75
      vertex -15.431246866504116 1.4477232839456313 -6.75
      vertex -15.607322871966394 1.350924680803224 -6.75
    endloop
  endfacet
  facet normal 0 0 -1
    outer loop
      vertex -13.15 0 -6.75
      vertex -13.162616477896835 0.2005331737028868 -6.75
      vertex -5.05 -5 -6.75
    endloop
  endfacet
  facet normal 0 0 -1
    outer loop
      vertex -13.20026694219419 0.3979038194637677 -6.75
      vertex -5.05 -5 -6.75
      vertex -13.162616477896835 0.2005331737028868 -6.75
    endloop
  endfacet
  facet normal 0 0 -1
    outer loop
      vertex -13.262357622578797 0.5889992842954848 -6.75
      vertex -5.05 5 -6.75
      vertex -13.20026694219419 0.3979038194637677 -6.75
    endloop
  endfacet
  facet normal 0 0 -1
    outer loop
      vertex -13.347909311929818 0.7708058785627445 -6.75
      vertex -5.05 5 -6.75
      vertex -13.262357622578797 0.5889992842954848 -6.75
    endloop
  endfacet
  facet normal 0 0 -1
    outer loop
      vertex -13.455572809000085 0.940456403667957 -6.75
      vertex -5.05 5 -6.75
      vertex -13.347909311929818 0.7708058785627445 -6.75
    endloop
  endfacet
  facet normal 0 0 -1
    outer loop
      vertex -13.583650196125742 1.095275369485902 -6.75
      vertex -5.05 5 -6.75
      vertex -13.455572809000085 0.940456403667957 -6.75
    endloop
  endfacet
  facet normal 0 0 -1
    outer loop
      vertex -13.730121616402096 1.2328211884412628 -6.75
      vertex -13.892677128033606 1.3509246808032243 -6.75
      vertex -5.05 5 -6.75
    endloop
  endfacet
  facet normal 0 0 -1
    outer loop
      vertex -5.05 5 -6.75
      vertex -13.583650196125742 1.095275369485902 -6.75
      vertex -13.730121616402096 1.2328211884412628 -6.75
    endloop
  endfacet
  facet normal 0 0 -1
    outer loop
      vertex -13.892677128033606 1.3509246808032243 -6.75
      vertex -14.068753133495884 1.4477232839456313 -6.75
      vertex -5.05 5 -6.75
    endloop
  endfacet
  facet normal 0 0 -1
    outer loop
      vertex -14.068753133495884 1.4477232839456313 -6.75
      vertex -14.255572809000084 1.5216904260722457 -6.75
      vertex -5.05 5 -6.75
    endloop
  endfacet
  facet normal -1 0 0
    outer loop
      vertex -18.5 -6.5 -6.75
      vertex -18.5 6.5 6.75
      vertex -18.5 6.5 -6.75
    endloop
  endfacet
  facet normal 0 0 -1
    outer loop
      vertex -18.5 -6.5 -6.75
      vertex -5.05 -5 -6.75
      vertex 18.5 -6.5 -6.75
    endloop
  endfacet
  facet normal 0 0 -1
    outer loop
      vertex -13.20026694219419 0.3979038194637677 -6.75
      vertex -5.05 5 -6.75
      vertex -5.05 -5 -6.75
    endloop
  endfacet
  facet normal -1 0 0
    outer loop
      vertex -18.5 -6.5 -6.75
      vertex -18.5 -6.5 6.75
      vertex -18.5 6.5 6.75
    endloop
  endfacet
  facet normal 0 0 1
    outer loop
      vertex -18.5 -6.5 6.75
      vertex -15.04981010333716 -1.5716596011659019 6.75
      vertex -15.244427190999916 -1.5216904260722457 6.75
    endloop
  endfacet
  facet normal 0 0 1
    outer loop
      vertex -18.5 -6.5 6.75
      vertex -15.431246866504116 -1.4477232839456313 6.75
      vertex -15.607322871966394 -1.350924680803224 6.75
    endloop
  endfacet
  facet normal 0 0 1
    outer loop
      vertex -18.5 -6.5 6.75
      vertex -15.607322871966394 -1.350924680803224 6.75
      vertex -15.769878383597904 -1.232821188441263 6.75
    endloop
  endfacet
  facet normal 0 0 1
    outer loop
      vertex -18.5 -6.5 6.75
      vertex -15.769878383597904 -1.232821188441263 6.75
      vertex -15.916349803874258 -1.0952753694859017 6.75
    endloop
  endfacet
  facet normal 0 0 1
    outer loop
      vertex -18.5 -6.5 6.75
      vertex -15.244427190999916 -1.5216904260722457 6.75
      vertex -15.431246866504116 -1.4477232839456313 6.75
    endloop
  endfacet
  facet normal 0 0 1
    outer loop
      vertex -18.5 -6.5 6.75
      vertex -15.916349803874258 -1.0952753694859017 6.75
      vertex -16.044427190999915 -0.940456403667957 6.75
    endloop
  endfacet
  facet normal 0 0 1
    outer loop
      vertex -18.5 -6.5 6.75
      vertex -16.044427190999915 -0.940456403667957 6.75
      vertex -16.15209068807018 -0.7708058785627446 6.75
    endloop
  endfacet
  facet normal 0 0 1
    outer loop
      vertex -18.5 -6.5 6.75
      vertex -16.15209068807018 -0.7708058785627446 6.75
      vertex -16.237642377421203 -0.5889992842954846 6.75
    endloop
  endfacet
  facet normal 0 0 1
    outer loop
      vertex -18.5 -6.5 6.75
      vertex -16.237642377421203 -0.5889992842954846 6.75
      vertex -16.29973305780581 -0.3979038194637678 6.75
    endloop
  endfacet
  facet normal 0 0 1
    outer loop
      vertex -18.5 -6.5 6.75
      vertex -14.850464831246901 -1.5968427654852346 6.75
      vertex -15.04981010333716 -1.5716596011659019 6.75
    endloop
  endfacet
  facet normal 0 0 1
    outer loop
      vertex -18.5 -6.5 6.75
      vertex -14.649535168753099 -1.5968427654852346 6.75
      vertex -14.850464831246901 -1.5968427654852346 6.75
    endloop
  endfacet
  facet normal 0 0 1
    outer loop
      vertex -18.5 -6.5 6.75
      vertex -14.45018989666284 -1.5716596011659019 6.75
      vertex -14.649535168753099 -1.5968427654852346 6.75
    endloop
  endfacet
  facet normal 0 0 1
    outer loop
      vertex -18.5 -6.5 6.75
      vertex -14.255572809000084 -1.5216904260722457 6.75
      vertex -14.45018989666284 -1.5716596011659019 6.75
    endloop
  endfacet
  facet normal 0 0 1
    outer loop
      vertex -18.5 -6.5 6.75
      vertex -14.068753133495884 -1.4477232839456313 6.75
      vertex -14.255572809000084 -1.5216904260722457 6.75
    endloop
  endfacet
  facet normal 0 0 1
    outer loop
      vertex -18.5 -6.5 6.75
      vertex -13.892677128033606 -1.3509246808032245 6.75
      vertex -14.068753133495884 -1.4477232839456313 6.75
    endloop
  endfacet
  facet normal 0 0 1
    outer loop
      vertex -18.5 -6.5 6.75
      vertex -13.730121616402096 -1.2328211884412625 6.75
      vertex -13.892677128033606 -1.3509246808032245 6.75
    endloop
  endfacet
  facet normal 0 0 1
    outer loop
      vertex -18.5 -6.5 6.75
      vertex -13.583650196125742 -1.0952753694859017 6.75
      vertex -13.730121616402096 -1.2328211884412625 6.75
    endloop
  endfacet
  facet normal 0 0 1
    outer loop
      vertex -18.5 -6.5 6.75
      vertex -16.29973305780581 -0.3979038194637678 6.75
      vertex -18.5 6.5 6.75
    endloop
  endfacet
  facet normal 0 0 1
    outer loop
      vertex -18.5 6.5 6.75
      vertex -16.337383522103163 -0.2005331737028865 6.75
      vertex -16.35 0 6.75
    endloop
  endfacet
  facet normal 0 0 1
    outer loop
      vertex -18.5 6.5 6.75
      vertex -16.35 0 6.75
      vertex -16.337383522103163 0.2005331737028865 6.75
    endloop
  endfacet
  facet normal 0 0 1
    outer loop
      vertex -18.5 6.5 6.75
      vertex -16.29973305780581 -0.3979038194637678 6.75
      vertex -16.337383522103163 -0.2005331737028865 6.75
    endloop
  endfacet
  facet normal 0 0 1
    outer loop
      vertex -18.5 6.5 6.75
      vertex -16.337383522103163 0.2005331737028865 6.75
      vertex -16.29973305780581 0.3979038194637678 6.75
    endloop
  endfacet
  facet normal 0 0 1
    outer loop
      vertex -18.5 6.5 6.75
      vertex -16.29973305780581 0.3979038194637678 6.75
      vertex -16.237642377421203 0.5889992842954846 6.75
    endloop
  endfacet
  facet normal 0 0 1
    outer loop
      vertex -18.5 6.5 6.75
      vertex -16.237642377421203 0.5889992842954846 6.75
      vertex -16.15209068807018 0.7708058785627446 6.75
    endloop
  endfacet
  facet normal 0 0 1
    outer loop
      vertex -18.5 6.5 6.75
      vertex -16.15209068807018 0.7708058785627446 6.75
      vertex -16.044427190999915 0.940456403667957 6.75
    endloop
  endfacet
  facet normal 0 0 1
    outer loop
      vertex -18.5 6.5 6.75
      vertex -16.044427190999915 0.940456403667957 6.75
      vertex -15.916349803874258 1.0952753694859017 6.75
    endloop
  endfacet
  facet normal 0 0 1
    outer loop
      vertex -18.5 6.5 6.75
      vertex -15.916349803874258 1.0952753694859017 6.75
      vertex -15.769878383597904 1.232821188441263 6.75
    endloop
  endfacet
  facet normal 0 0 1
    outer loop
      vertex -18.5 6.5 6.75
      vertex -15.769878383597904 1.232821188441263 6.75
      vertex -15.607322871966394 1.350924680803224 6.75
    endloop
  endfacet
  facet normal 0 0 1
    outer loop
      vertex -18.5 6.5 6.75
      vertex -15.607322871966394 1.350924680803224 6.75
      vertex -15.431246866504116 1.4477232839456313 6.75
    endloop
  endfacet
  facet normal 0 -1 0
    outer loop
      vertex -18.5 -6.5 -6.75
      vertex 18.5 -6.5 6.75
      vertex -18.5 -6.5 6.75
    endloop
  endfacet
  facet normal 0 0 1
    outer loop
      vertex -18.5 -6.5 6.75
      vertex 18.5 -6.5 6.75
      vertex -13.583650196125742 -1.0952753694859017 6.75
    endloop
  endfacet
  facet normal 0 0 1
    outer loop
      vertex 18.5 -6.5 6.75
      vertex -13.455572809000085 -0.940456403667957 6.75
      vertex -13.583650196125742 -1.0952753694859017 6.75
    endloop
  endfacet
  facet normal 0 0 1
    outer loop
      vertex 18.5 -6.5 6.75
      vertex -13.347909311929818 -0.7708058785627446 6.75
      vertex -13.455572809000085 -0.940456403667957 6.75
    endloop
  endfacet
  facet normal 0 0 1
    outer loop
      vertex 18.5 -6.5 6.75
      vertex -13.262357622578797 -0.5889992842954854 6.75
      vertex -13.347909311929818 -0.7708058785627446 6.75
    endloop
  endfacet
  facet normal 0 0 1
    outer loop
      vertex 18.5 -6.5 6.75
      vertex -13.20026694219419 -0.3979038194637671 6.75
      vertex -13.262357622578797 -0.5889992842954854 6.75
    endloop
  endfacet
  facet normal 0 0 1
    outer loop
      vertex 18.5 -6.5 6.75
      vertex -13.162616477896835 -0.2005331737028865 6.75
      vertex -13.20026694219419 -0.3979038194637671 6.75
    endloop
  endfacet
  facet normal 0 0 1
    outer loop
      vertex 18.5 -6.5 6.75
      vertex -13.15 0 6.75
      vertex -13.162616477896835 -0.2005331737028865 6.75
    endloop
  endfacet
  facet normal 0 0 1
    outer loop
      vertex 18.5 -6.5 6.75
      vertex -13.162616477896835 0.2005331737028868 6.75
      vertex -13.15 0 6.75
    endloop
  endfacet
  facet normal 0 0 1
    outer loop
      vertex 18.5 -6.5 6.75
      vertex -13.20026694219419 0.3979038194637677 6.75
      vertex -13.162616477896835 0.2005331737028868 6.75
    endloop
  endfacet
  facet normal 0 0 1
    outer loop
      vertex 18.5 -6.5 6.75
      vertex -13.262357622578797 0.5889992842954848 6.75
      vertex -13.20026694219419 0.3979038194637677 6.75
    endloop
  endfacet
  facet normal 0 0 1
    outer loop
      vertex 18.5 -6.5 6.75
      vertex -13.347909311929818 0.7708058785627445 6.75
      vertex -13.262357622578797 0.5889992842954848 6.75
    endloop
  endfacet
  facet normal 0 0 1
    outer loop
      vertex -18.5 6.5 6.75
      vertex -14.45018989666284 1.571659601165902 6.75
      vertex 18.5 -6.5 6.75
    endloop
  endfacet
  facet normal 0 0 1
    outer loop
      vertex 18.5 -6.5 6.75
      vertex -13.730121616402096 1.2328211884412628 6.75
      vertex -13.583650196125742 1.095275369485902 6.75
    endloop
  endfacet
  facet normal 0 0 1
    outer loop
      vertex 18.5 -6.5 6.75
      vertex -14.45018989666284 1.571659601165902 6.75
      vertex -14.255572809000084 1.5216904260722457 6.75
    endloop
  endfacet
  facet normal 0 0 1
    outer loop
      vertex 18.5 -6.5 6.75
      vertex -14.255572809000084 1.5216904260722457 6.75
      vertex -14.068753133495884 1.4477232839456313 6.75
    endloop
  endfacet
  facet normal 0 0 1
    outer loop
      vertex 18.5 -6.5 6.75
      vertex -13.892677128033606 1.3509246808032243 6.75
      vertex -13.730121616402096 1.2328211884412628 6.75
    endloop
  endfacet
  facet normal 0 0 1
    outer loop
      vertex 18.5 -6.5 6.75
      vertex -14.068753133495884 1.4477232839456313 6.75
      vertex -13.892677128033606 1.3509246808032243 6.75
    endloop
  endfacet
  facet normal 0 0 1
    outer loop
      vertex 18.5 -6.5 6.75
      vertex -13.455572809000085 0.940456403667957 6.75
      vertex -13.347909311929818 0.7708058785627445 6.75
    endloop
  endfacet
  facet normal 0 0 1
    outer loop
      vertex 18.5 -6.5 6.75
      vertex -13.583650196125742 1.095275369485902 6.75
      vertex -13.455572809000085 0.940456403667957 6.75
    endloop
  endfacet
  facet normal 0 0 -1
    outer loop
      vertex -18.5 6.5 -6.75
      vertex -15.244427190999916 1.5216904260722457 -6.75
      vertex -15.431246866504116 1.4477232839456313 -6.75
    endloop
  endfacet
  facet normal 0 0 -1
    outer loop
      vertex -18.5 6.5 -6.75
      vertex -15.04981010333716 1.571659601165902 -6.75
      vertex -15.244427190999916 1.5216904260722457 -6.75
    endloop
  endfacet
  facet normal 0 0 -1
    outer loop
      vertex -18.5 6.5 -6.75
      vertex -14.850464831246901 1.5968427654852346 -6.75
      vertex -15.04981010333716 1.571659601165902 -6.75
    endloop
  endfacet
  facet normal 0 0 -1
    outer loop
      vertex -18.5 6.5 -6.75
      vertex -14.649535168753099 1.5968427654852346 -6.75
      vertex -14.850464831246901 1.5968427654852346 -6.75
    endloop
  endfacet
  facet normal 0 0 -1
    outer loop
      vertex -18.5 6.5 -6.75
      vertex -14.45018989666284 1.571659601165902 -6.75
      vertex -14.649535168753099 1.5968427654852346 -6.75
    endloop
  endfacet
  facet normal 0 0 -1
    outer loop
      vertex -18.5 6.5 -6.75
      vertex -14.255572809000084 1.5216904260722457 -6.75
      vertex -14.45018989666284 1.571659601165902 -6.75
    endloop
  endfacet
  facet normal 0 0 -1
    outer loop
      vertex -18.5 6.5 -6.75
      vertex -5.05 5 -6.75
      vertex -14.255572809000084 1.5216904260722457 -6.75
    endloop
  endfacet
  facet normal 0 1 0
    outer loop
      vertex -18.5 6.5 -6.75
      vertex -6.5 6.5 5
      vertex -6.5 6.5 -5
    endloop
  endfacet
  facet normal 0 0 -1
    outer loop
      vertex -18.5 6.5 -6.75
      vertex 5.05 5 -6.75
      vertex -5.05 5 -6.75
    endloop
  endfacet
  facet normal 0 1 0
    outer loop
      vertex -18.5 6.5 -6.75
      vertex -6.5 6.5 -5
      vertex 18.5 6.5 -6.75
    endloop
  endfacet
  facet normal 0 1 0
    outer loop
      vertex -18.5 6.5 -6.75
      vertex -18.5 6.5 6.75
      vertex -6.5 6.5 5
    endloop
  endfacet
  facet normal 0 0 1
    outer loop
      vertex -18.5 6.5 6.75
      vertex -15.431246866504116 1.4477232839456313 6.75
      vertex -15.244427190999916 1.5216904260722457 6.75
    endloop
  endfacet
  facet normal 0 0 1
    outer loop
      vertex -18.5 6.5 6.75
      vertex -15.244427190999916 1.5216904260722457 6.75
      vertex -15.04981010333716 1.571659601165902 6.75
    endloop
  endfacet
  facet normal 0 0 1
    outer loop
      vertex -18.5 6.5 6.75
      vertex -15.04981010333716 1.571659601165902 6.75
      vertex -14.850464831246901 1.5968427654852346 6.75
    endloop
  endfacet
  facet normal 0 0 1
    outer loop
      vertex -18.5 6.5 6.75
      vertex -14.850464831246901 1.5968427654852346 6.75
      vertex -14.649535168753099 1.5968427654852346 6.75
    endloop
  endfacet
  facet normal 0 0 1
    outer loop
      vertex -18.5 6.5 6.75
      vertex -14.649535168753099 1.5968427654852346 6.75
      vertex -14.45018989666284 1.571659601165902 6.75
    endloop
  endfacet
  facet normal 0 1 0
    outer loop
      vertex -18.5 6.5 6.75
      vertex 6.5 6.5 5
      vertex -6.5 6.5 5
    endloop
  endfacet
  facet normal 0 0 -1
    outer loop
      vertex 18.5 -6.5 -6.75
      vertex -5.05 -5 -6.75
      vertex 5.05 -5 -6.75
    endloop
  endfacet
  facet normal 0 -1 0
    outer loop
      vertex -18.5 -6.5 -6.75
      vertex 18.5 -6.5 -6.75
      vertex 18.5 -6.5 6.75
    endloop
  endfacet
  facet normal 0 0 -1
    outer loop
      vertex 5.05 -5 -6.75
      vertex 5.05 5 -6.75
      vertex 13.20026694219419 -0.3979038194637678 -6.75
    endloop
  endfacet
  facet normal 0 0 -1
    outer loop
      vertex 18.5 -6.5 -6.75
      vertex 5.05 -5 -6.75
      vertex 14.255572809000084 -1.5216904260722457 -6.75
    endloop
  endfacet
  facet normal 0 0 -1
    outer loop
      vertex 5.05 -5 -6.75
      vertex 13.583650196125742 -1.0952753694859017 -6.75
      vertex 13.730121616402096 -1.232821188441263 -6.75
    endloop
  endfacet
  facet normal 0 0 -1
    outer loop
      vertex 5.05 -5 -6.75
      vertex 13.730121616402096 -1.232821188441263 -6.75
      vertex 13.892677128033606 -1.350924680803224 -6.75
    endloop
  endfacet
  facet normal 0 0 -1
    outer loop
      vertex 5.05 -5 -6.75
      vertex 13.455572809000085 -0.940456403667957 -6.75
      vertex 13.583650196125742 -1.0952753694859017 -6.75
    endloop
  endfacet
  facet normal 0 0 -1
    outer loop
      vertex 5.05 -5 -6.75
      vertex 14.068753133495884 -1.4477232839456313 -6.75
      vertex 14.255572809000084 -1.5216904260722457 -6.75
    endloop
  endfacet
  facet normal 0 0 -1
    outer loop
      vertex 5.05 -5 -6.75
      vertex 13.892677128033606 -1.350924680803224 -6.75
      vertex 14.068753133495884 -1.4477232839456313 -6.75
    endloop
  endfacet
  facet normal 0 0 -1
    outer loop
      vertex 5.05 -5 -6.75
      vertex 13.347909311929818 -0.7708058785627446 -6.75
      vertex 13.455572809000085 -0.940456403667957 -6.75
    endloop
  endfacet
  facet normal 0 0 -1
    outer loop
      vertex 5.05 -5 -6.75
      vertex 13.20026694219419 -0.3979038194637678 -6.75
      vertex 13.262357622578797 -0.5889992842954846 -6.75
    endloop
  endfacet
  facet normal 0 0 -1
    outer loop
      vertex 5.05 -5 -6.75
      vertex 13.262357622578797 -0.5889992842954846 -6.75
      vertex 13.347909311929818 -0.7708058785627446 -6.75
    endloop
  endfacet
  facet normal 0 0 -1
    outer loop
      vertex 18.5 -6.5 -6.75
      vertex 14.255572809000084 -1.5216904260722457 -6.75
      vertex 14.45018989666284 -1.5716596011659019 -6.75
    endloop
  endfacet
  facet normal 0 0 -1
    outer loop
      vertex 18.5 -6.5 -6.75
      vertex 14.45018989666284 -1.5716596011659019 -6.75
      vertex 14.649535168753099 -1.5968427654852346 -6.75
    endloop
  endfacet
  facet normal 0 0 -1
    outer loop
      vertex 18.5 -6.5 -6.75
      vertex 14.649535168753099 -1.5968427654852346 -6.75
      vertex 14.850464831246901 -1.5968427654852346 -6.75
    endloop
  endfacet
  facet normal 0 0 -1
    outer loop
      vertex 18.5 -6.5 -6.75
      vertex 14.850464831246901 -1.5968427654852346 -6.75
      vertex 15.04981010333716 -1.5716596011659019 -6.75
    endloop
  endfacet
  facet normal 0 0 -1
    outer loop
      vertex 18.5 -6.5 -6.75
      vertex 15.04981010333716 -1.5716596011659019 -6.75
      vertex 15.244427190999916 -1.5216904260722457 -6.75
    endloop
  endfacet
  facet normal 0 0 -1
    outer loop
      vertex 18.5 -6.5 -6.75
      vertex 15.244427190999916 -1.5216904260722457 -6.75
      vertex 15.431246866504116 -1.4477232839456313 -6.75
    endloop
  endfacet
  facet normal 0 0 -1
    outer loop
      vertex 18.5 -6.5 -6.75
      vertex 15.431246866504116 -1.4477232839456313 -6.75
      vertex 15.607322871966394 -1.3509246808032245 -6.75
    endloop
  endfacet
  facet normal 0 0 -1
    outer loop
      vertex 18.5 -6.5 -6.75
      vertex 15.607322871966394 -1.3509246808032245 -6.75
      vertex 15.769878383597904 -1.2328211884412625 -6.75
    endloop
  endfacet
  facet normal 0 0 -1
    outer loop
      vertex 18.5 -6.5 -6.75
      vertex 15.769878383597904 -1.2328211884412625 -6.75
      vertex 15.916349803874258 -1.0952753694859017 -6.75
    endloop
  endfacet
  facet normal 0 0 -1
    outer loop
      vertex 18.5 -6.5 -6.75
      vertex 15.916349803874258 -1.0952753694859017 -6.75
      vertex 16.044427190999915 -0.940456403667957 -6.75
    endloop
  endfacet
  facet normal 0 0 -1
    outer loop
      vertex 18.5 -6.5 -6.75
      vertex 16.044427190999915 -0.940456403667957 -6.75
      vertex 16.15209068807018 -0.7708058785627446 -6.75
    endloop
  endfacet
  facet normal 0 0 -1
    outer loop
      vertex 18.5 -6.5 -6.75
      vertex 16.15209068807018 -0.7708058785627446 -6.75
      vertex 16.237642377421203 -0.5889992842954854 -6.75
    endloop
  endfacet
  facet normal 0 0 -1
    outer loop
      vertex 18.5 -6.5 -6.75
      vertex 16.237642377421203 -0.5889992842954854 -6.75
      vertex 16.29973305780581 -0.3979038194637671 -6.75
    endloop
  endfacet
  facet normal 0 0 -1
    outer loop
      vertex 18.5 -6.5 -6.75
      vertex 16.29973305780581 -0.3979038194637671 -6.75
      vertex 16.337383522103163 -0.2005331737028865 -6.75
    endloop
  endfacet
  facet normal 0 0 -1
    outer loop
      vertex 18.5 -6.5 -6.75
      vertex 16.337383522103163 -0.2005331737028865 -6.75
      vertex 16.35 0 -6.75
    endloop
  endfacet
  facet normal 0 0 -1
    outer loop
      vertex 18.5 -6.5 -6.75
      vertex 16.35 0 -6.75
      vertex 16.337383522103163 0.2005331737028868 -6.75
    endloop
  endfacet
  facet normal 0 0 -1
    outer loop
      vertex 18.5 -6.5 -6.75
      vertex 16.337383522103163 0.2005331737028868 -6.75
      vertex 16.29973305780581 0.3979038194637677 -6.75
    endloop
  endfacet
  facet normal 1 0 0
    outer loop
      vertex 18.5 -6.5 -6.75
      vertex 18.5 6.5 -6.75
      vertex 18.5 -6.5 6.75
    endloop
  endfacet
  facet normal 0 0 -1
    outer loop
      vertex 13.20026694219419 -0.3979038194637678 -6.75
      vertex 5.05 5 -6.75
      vertex 13.162616477896835 -0.2005331737028865 -6.75
    endloop
  endfacet
  facet normal 0 0 -1
    outer loop
      vertex 13.162616477896835 -0.2005331737028865 -6.75
      vertex 5.05 5 -6.75
      vertex 13.15 0 -6.75
    endloop
  endfacet
  facet normal 0 0 -1
    outer loop
      vertex 5.05 5 -6.75
      vertex 13.162616477896835 0.2005331737028865 -6.75
      vertex 13.15 0 -6.75
    endloop
  endfacet
  facet normal 0 0 -1
    outer loop
      vertex 5.05 5 -6.75
      vertex 13.20026694219419 0.3979038194637678 -6.75
      vertex 13.162616477896835 0.2005331737028865 -6.75
    endloop
  endfacet
  facet normal 0 0 -1
    outer loop
      vertex 5.05 5 -6.75
      vertex 13.262357622578797 0.5889992842954846 -6.75
      vertex 13.20026694219419 0.3979038194637678 -6.75
    endloop
  endfacet
  facet normal 0 0 -1
    outer loop
      vertex 5.05 5 -6.75
      vertex 13.347909311929818 0.7708058785627446 -6.75
      vertex 13.262357622578797 0.5889992842954846 -6.75
    endloop
  endfacet
  facet normal 0 0 -1
    outer loop
      vertex 5.05 5 -6.75
      vertex 13.455572809000085 0.940456403667957 -6.75
      vertex 13.347909311929818 0.7708058785627446 -6.75
    endloop
  endfacet
  facet normal 0 0 -1
    outer loop
      vertex 5.05 5 -6.75
      vertex 13.583650196125742 1.0952753694859017 -6.75
      vertex 13.455572809000085 0.940456403667957 -6.75
    endloop
  endfacet
  facet normal 0 0 -1
    outer loop
      vertex 18.5 -6.5 -6.75
      vertex 16.29973305780581 0.3979038194637677 -6.75
      vertex 18.5 6.5 -6.75
    endloop
  endfacet
  facet normal 0 0 -1
    outer loop
      vertex 18.5 6.5 -6.75
      vertex 13.730121616402096 1.232821188441263 -6.75
      vertex 13.583650196125742 1.0952753694859017 -6.75
    endloop
  endfacet
  facet normal 0 0 -1
    outer loop
      vertex 18.5 6.5 -6.75
      vertex 13.892677128033606 1.350924680803224 -6.75
      vertex 13.730121616402096 1.232821188441263 -6.75
    endloop
  endfacet
  facet normal 0 0 -1
    outer loop
      vertex 18.5 6.5 -6.75
      vertex 14.068753133495884 1.4477232839456313 -6.75
      vertex 13.892677128033606 1.350924680803224 -6.75
    endloop
  endfacet
  facet normal 0 0 -1
    outer loop
      vertex 18.5 6.5 -6.75
      vertex 16.29973305780581 0.3979038194637677 -6.75
      vertex 16.237642377421203 0.5889992842954848 -6.75
    endloop
  endfacet
  facet normal 0 0 -1
    outer loop
      vertex 18.5 6.5 -6.75
      vertex 15.916349803874258 1.095275369485902 -6.75
      vertex 15.769878383597904 1.2328211884412628 -6.75
    endloop
  endfacet
  facet normal 0 0 -1
    outer loop
      vertex 18.5 6.5 -6.75
      vertex 15.607322871966394 1.3509246808032243 -6.75
      vertex 15.431246866504116 1.4477232839456313 -6.75
    endloop
  endfacet
  facet normal 0 0 -1
    outer loop
      vertex 18.5 6.5 -6.75
      vertex 15.769878383597904 1.2328211884412628 -6.75
      vertex 15.607322871966394 1.3509246808032243 -6.75
    endloop
  endfacet
  facet normal 0 0 -1
    outer loop
      vertex 18.5 6.5 -6.75
      vertex 16.237642377421203 0.5889992842954848 -6.75
      vertex 16.15209068807018 0.7708058785627445 -6.75
    endloop
  endfacet
  facet normal 0 0 -1
    outer loop
      vertex 18.5 6.5 -6.75
      vertex 16.15209068807018 0.7708058785627445 -6.75
      vertex 16.044427190999915 0.940456403667957 -6.75
    endloop
  endfacet
  facet normal 0 0 -1
    outer loop
      vertex 18.5 6.5 -6.75
      vertex 16.044427190999915 0.940456403667957 -6.75
      vertex 15.916349803874258 1.095275369485902 -6.75
    endloop
  endfacet
  facet normal 0 0 1
    outer loop
      vertex -18.5 6.5 6.75
      vertex 14.068753133495884 -1.4477232839456313 6.75
      vertex 13.892677128033606 -1.350924680803224 6.75
    endloop
  endfacet
  facet normal 0 0 1
    outer loop
      vertex -18.5 6.5 6.75
      vertex 13.892677128033606 -1.350924680803224 6.75
      vertex 13.730121616402096 -1.232821188441263 6.75
    endloop
  endfacet
  facet normal 0 0 1
    outer loop
      vertex -18.5 6.5 6.75
      vertex 14.255572809000084 -1.5216904260722457 6.75
      vertex 14.068753133495884 -1.4477232839456313 6.75
    endloop
  endfacet
  facet normal 0 0 1
    outer loop
      vertex -18.5 6.5 6.75
      vertex 14.45018989666284 -1.5716596011659019 6.75
      vertex 14.255572809000084 -1.5216904260722457 6.75
    endloop
  endfacet
  facet normal 0 0 1
    outer loop
      vertex -18.5 6.5 6.75
      vertex 13.583650196125742 -1.0952753694859017 6.75
      vertex 13.455572809000085 -0.940456403667957 6.75
    endloop
  endfacet
  facet normal 0 0 1
    outer loop
      vertex -18.5 6.5 6.75
      vertex 13.455572809000085 -0.940456403667957 6.75
      vertex 13.347909311929818 -0.7708058785627446 6.75
    endloop
  endfacet
  facet normal 0 0 1
    outer loop
      vertex -18.5 6.5 6.75
      vertex 13.347909311929818 -0.7708058785627446 6.75
      vertex 13.262357622578797 -0.5889992842954846 6.75
    endloop
  endfacet
  facet normal 0 0 1
    outer loop
      vertex -18.5 6.5 6.75
      vertex 13.262357622578797 -0.5889992842954846 6.75
      vertex 13.20026694219419 -0.3979038194637678 6.75
    endloop
  endfacet
  facet normal 0 0 1
    outer loop
      vertex -18.5 6.5 6.75
      vertex 13.730121616402096 -1.232821188441263 6.75
      vertex 13.583650196125742 -1.0952753694859017 6.75
    endloop
  endfacet
  facet normal 0 0 1
    outer loop
      vertex -18.5 6.5 6.75
      vertex 13.20026694219419 -0.3979038194637678 6.75
      vertex 13.162616477896835 -0.2005331737028865 6.75
    endloop
  endfacet
  facet normal 0 0 1
    outer loop
      vertex -18.5 6.5 6.75
      vertex 13.162616477896835 -0.2005331737028865 6.75
      vertex 13.15 0 6.75
    endloop
  endfacet
  facet normal 0 0 1
    outer loop
      vertex -18.5 6.5 6.75
      vertex 13.15 0 6.75
      vertex 13.162616477896835 0.2005331737028865 6.75
    endloop
  endfacet
  facet normal 0 0 1
    outer loop
      vertex -18.5 6.5 6.75
      vertex 13.162616477896835 0.2005331737028865 6.75
      vertex 13.20026694219419 0.3979038194637678 6.75
    endloop
  endfacet
  facet normal 0 0 1
    outer loop
      vertex -18.5 6.5 6.75
      vertex 13.20026694219419 0.3979038194637678 6.75
      vertex 13.262357622578797 0.5889992842954846 6.75
    endloop
  endfacet
  facet normal 0 0 1
    outer loop
      vertex -18.5 6.5 6.75
      vertex 13.262357622578797 0.5889992842954846 6.75
      vertex 13.347909311929818 0.7708058785627446 6.75
    endloop
  endfacet
  facet normal 0 0 1
    outer loop
      vertex -18.5 6.5 6.75
      vertex 13.347909311929818 0.7708058785627446 6.75
      vertex 13.455572809000085 0.940456403667957 6.75
    endloop
  endfacet
  facet normal 0 0 1
    outer loop
      vertex -18.5 6.5 6.75
      vertex 13.455572809000085 0.940456403667957 6.75
      vertex 13.583650196125742 1.0952753694859017 6.75
    endloop
  endfacet
  facet normal 0 0 1
    outer loop
      vertex -18.5 6.5 6.75
      vertex 13.583650196125742 1.0952753694859017 6.75
      vertex 13.730121616402096 1.232821188441263 6.75
    endloop
  endfacet
  facet normal 0 0 1
    outer loop
      vertex -18.5 6.5 6.75
      vertex 13.730121616402096 1.232821188441263 6.75
      vertex 13.892677128033606 1.350924680803224 6.75
    endloop
  endfacet
  facet normal 0 0 1
    outer loop
      vertex -18.5 6.5 6.75
      vertex 13.892677128033606 1.350924680803224 6.75
      vertex 14.068753133495884 1.4477232839456313 6.75
    endloop
  endfacet
  facet normal 0 0 1
    outer loop
      vertex -18.5 6.5 6.75
      vertex 18.5 -6.5 6.75
      vertex 14.45018989666284 -1.5716596011659019 6.75
    endloop
  endfacet
  facet normal 0 0 1
    outer loop
      vertex 18.5 -6.5 6.75
      vertex 14.649535168753099 -1.5968427654852346 6.75
      vertex 14.45018989666284 -1.5716596011659019 6.75
    endloop
  endfacet
  facet normal 0 0 1
    outer loop
      vertex 18.5 -6.5 6.75
      vertex 14.850464831246901 -1.5968427654852346 6.75
      vertex 14.649535168753099 -1.5968427654852346 6.75
    endloop
  endfacet
  facet normal 0 0 1
    outer loop
      vertex 18.5 -6.5 6.75
      vertex 15.04981010333716 -1.5716596011659019 6.75
      vertex 14.850464831246901 -1.5968427654852346 6.75
    endloop
  endfacet
  facet normal 0 0 1
    outer loop
      vertex 18.5 -6.5 6.75
      vertex 15.244427190999916 -1.5216904260722457 6.75
      vertex 15.04981010333716 -1.5716596011659019 6.75
    endloop
  endfacet
  facet normal 0 0 1
    outer loop
      vertex 18.5 -6.5 6.75
      vertex 15.431246866504116 -1.4477232839456313 6.75
      vertex 15.244427190999916 -1.5216904260722457 6.75
    endloop
  endfacet
  facet normal 0 0 1
    outer loop
      vertex 18.5 -6.5 6.75
      vertex 15.607322871966394 -1.3509246808032245 6.75
      vertex 15.431246866504116 -1.4477232839456313 6.75
    endloop
  endfacet
  facet normal 0 0 1
    outer loop
      vertex 18.5 -6.5 6.75
      vertex 15.769878383597904 -1.2328211884412625 6.75
      vertex 15.607322871966394 -1.3509246808032245 6.75
    endloop
  endfacet
  facet normal 0 0 1
    outer loop
      vertex 18.5 -6.5 6.75
      vertex 15.916349803874258 -1.0952753694859017 6.75
      vertex 15.769878383597904 -1.2328211884412625 6.75
    endloop
  endfacet
  facet normal 0 0 1
    outer loop
      vertex 18.5 -6.5 6.75
      vertex 16.044427190999915 -0.940456403667957 6.75
      vertex 15.916349803874258 -1.0952753694859017 6.75
    endloop
  endfacet
  facet normal 0 0 1
    outer loop
      vertex 18.5 -6.5 6.75
      vertex 16.15209068807018 -0.7708058785627446 6.75
      vertex 16.044427190999915 -0.940456403667957 6.75
    endloop
  endfacet
  facet normal 0 0 1
    outer loop
      vertex 18.5 -6.5 6.75
      vertex 16.237642377421203 -0.5889992842954854 6.75
      vertex 16.15209068807018 -0.7708058785627446 6.75
    endloop
  endfacet
  facet normal 0 0 1
    outer loop
      vertex 18.5 -6.5 6.75
      vertex 16.29973305780581 -0.3979038194637671 6.75
      vertex 16.237642377421203 -0.5889992842954854 6.75
    endloop
  endfacet
  facet normal 0 0 1
    outer loop
      vertex 18.5 -6.5 6.75
      vertex 16.337383522103163 -0.2005331737028865 6.75
      vertex 16.29973305780581 -0.3979038194637671 6.75
    endloop
  endfacet
  facet normal 0 0 1
    outer loop
      vertex 18.5 -6.5 6.75
      vertex 16.35 0 6.75
      vertex 16.337383522103163 -0.2005331737028865 6.75
    endloop
  endfacet
  facet normal 1 0 0
    outer loop
      vertex 18.5 -6.5 6.75
      vertex 18.5 6.5 -6.75
      vertex 18.5 6.5 6.75
    endloop
  endfacet
  facet normal 0 0 1
    outer loop
      vertex 18.5 -6.5 6.75
      vertex 18.5 6.5 6.75
      vertex 16.35 0 6.75
    endloop
  endfacet
  facet normal 0 0 1
    outer loop
      vertex 18.5 6.5 6.75
      vertex 16.337383522103163 0.2005331737028868 6.75
      vertex 16.35 0 6.75
    endloop
  endfacet
  facet normal 0 0 1
    outer loop
      vertex 18.5 6.5 6.75
      vertex 16.29973305780581 0.3979038194637677 6.75
      vertex 16.337383522103163 0.2005331737028868 6.75
    endloop
  endfacet
  facet normal 0 0 1
    outer loop
      vertex 18.5 6.5 6.75
      vertex 16.237642377421203 0.5889992842954848 6.75
      vertex 16.29973305780581 0.3979038194637677 6.75
    endloop
  endfacet
  facet normal 0 0 1
    outer loop
      vertex 18.5 6.5 6.75
      vertex 15.769878383597904 1.2328211884412628 6.75
      vertex 15.916349803874258 1.095275369485902 6.75
    endloop
  endfacet
  facet normal 0 0 1
    outer loop
      vertex 18.5 6.5 6.75
      vertex 15.431246866504116 1.4477232839456313 6.75
      vertex 15.607322871966394 1.3509246808032243 6.75
    endloop
  endfacet
  facet normal 0 0 1
    outer loop
      vertex 18.5 6.5 6.75
      vertex 15.607322871966394 1.3509246808032243 6.75
      vertex 15.769878383597904 1.2328211884412628 6.75
    endloop
  endfacet
  facet normal 0 0 1
    outer loop
      vertex 18.5 6.5 6.75
      vertex 16.15209068807018 0.7708058785627445 6.75
      vertex 16.237642377421203 0.5889992842954848 6.75
    endloop
  endfacet
  facet normal 0 0 1
    outer loop
      vertex 18.5 6.5 6.75
      vertex 16.044427190999915 0.940456403667957 6.75
      vertex 16.15209068807018 0.7708058785627445 6.75
    endloop
  endfacet
  facet normal 0 0 1
    outer loop
      vertex 18.5 6.5 6.75
      vertex 15.916349803874258 1.095275369485902 6.75
      vertex 16.044427190999915 0.940456403667957 6.75
    endloop
  endfacet
  facet normal 0 0 -1
    outer loop
      vertex -18.5 6.5 -6.75
      vertex 18.5 6.5 -6.75
      vertex 5.05 5 -6.75
    endloop
  endfacet
  facet normal 0 1 0
    outer loop
      vertex -6.5 6.5 -5
      vertex 6.5 6.5 -5
      vertex 18.5 6.5 -6.75
    endloop
  endfacet
  facet normal 0 0 -1
    outer loop
      vertex 18.5 6.5 -6.75
      vertex 13.583650196125742 1.0952753694859017 -6.75
      vertex 5.05 5 -6.75
    endloop
  endfacet
  facet normal 0 0 -1
    outer loop
      vertex 18.5 6.5 -6.75
      vertex 14.255572809000084 1.5216904260722457 -6.75
      vertex 14.068753133495884 1.4477232839456313 -6.75
    endloop
  endfacet
  facet normal 0 0 -1
    outer loop
      vertex 18.5 6.5 -6.75
      vertex 14.45018989666284 1.571659601165902 -6.75
      vertex 14.255572809000084 1.5216904260722457 -6.75
    endloop
  endfacet
  facet normal 0 0 -1
    outer loop
      vertex 18.5 6.5 -6.75
      vertex 14.649535168753099 1.5968427654852346 -6.75
      vertex 14.45018989666284 1.571659601165902 -6.75
    endloop
  endfacet
  facet normal 0 0 -1
    outer loop
      vertex 18.5 6.5 -6.75
      vertex 14.850464831246901 1.5968427654852346 -6.75
      vertex 14.649535168753099 1.5968427654852346 -6.75
    endloop
  endfacet
  facet normal 0 0 -1
    outer loop
      vertex 18.5 6.5 -6.75
      vertex 15.04981010333716 1.571659601165902 -6.75
      vertex 14.850464831246901 1.5968427654852346 -6.75
    endloop
  endfacet
  facet normal 0 0 -1
    outer loop
      vertex 18.5 6.5 -6.75
      vertex 15.244427190999916 1.5216904260722457 -6.75
      vertex 15.04981010333716 1.571659601165902 -6.75
    endloop
  endfacet
  facet normal 0 0 -1
    outer loop
      vertex 18.5 6.5 -6.75
      vertex 15.431246866504116 1.4477232839456313 -6.75
      vertex 15.244427190999916 1.5216904260722457 -6.75
    endloop
  endfacet
  facet normal 0 1 0
    outer loop
      vertex 6.5 6.5 -5
      vertex 18.5 6.5 6.75
      vertex 18.5 6.5 -6.75
    endloop
  endfacet
  facet normal 0 0 1
    outer loop
      vertex -18.5 6.5 6.75
      vertex 14.068753133495884 1.4477232839456313 6.75
      vertex 14.255572809000084 1.5216904260722457 6.75
    endloop
  endfacet
  facet normal 0 0 1
    outer loop
      vertex -18.5 6.5 6.75
      vertex 14.255572809000084 1.5216904260722457 6.75
      vertex 14.45018989666284 1.571659601165902 6.75
    endloop
  endfacet
  facet normal 0 0 1
    outer loop
      vertex -18.5 6.5 6.75
      vertex 14.45018989666284 1.571659601165902 6.75
      vertex 14.649535168753099 1.5968427654852346 6.75
    endloop
  endfacet
  facet normal 0 0 1
    outer loop
      vertex -18.5 6.5 6.75
      vertex 14.649535168753099 1.5968427654852346 6.75
      vertex 14.850464831246901 1.5968427654852346 6.75
    endloop
  endfacet
  facet normal 0 0 1
    outer loop
      vertex -18.5 6.5 6.75
      vertex 14.850464831246901 1.5968427654852346 6.75
      vertex 15.04981010333716 1.571659601165902 6.75
    endloop
  endfacet
  facet normal 0 1 0
    outer loop
      vertex -18.5 6.5 6.75
      vertex 18.5 6.5 6.75
      vertex 6.5 6.5 5
    endloop
  endfacet
  facet normal 0 0 1
    outer loop
      vertex -18.5 6.5 6.75
      vertex 15.04981010333716 1.571659601165902 6.75
      vertex 18.5 6.5 6.75
    endloop
  endfacet
  facet normal 0 1 0
    outer loop
      vertex 6.5 6.5 -5
      vertex 6.5 6.5 5
      vertex 18.5 6.5 6.75
    endloop
  endfacet
  facet normal 0 0 1
    outer loop
      vertex 18.5 6.5 6.75
      vertex 15.04981010333716 1.571659601165902 6.75
      vertex 15.244427190999916 1.5216904260722457 6.75
    endloop
  endfacet
  facet normal 0 0 1
    outer loop
      vertex 18.5 6.5 6.75
      vertex 15.244427190999916 1.5216904260722457 6.75
      vertex 15.431246866504116 1.4477232839456313 6.75
    endloop
  endfacet
  facet normal 0 0 -1
    outer loop
      vertex -6.5 6.5 -5
      vertex -6.5 12.8 -5
      vertex 6.5 12.8 -5
    endloop
  endfacet
  facet normal -1 0 0
    outer loop
      vertex -6.5 6.5 -5
      vertex -6.5 12.8 5
      vertex -6.5 12.8 -5
    endloop
  endfacet
  facet normal 0 1 0
    outer loop
      vertex -6.5 12.8 -5
      vertex -6.5 12.8 5
      vertex 6.5 12.8 -5
    endloop
  endfacet
  facet normal -1 0 0
    outer loop
      vertex -6.5 6.5 -5
      vertex -6.5 6.5 5
      vertex -6.5 12.8 5
    endloop
  endfacet
  facet normal 0 0 1
    outer loop
      vertex -6.5 6.5 5
      vertex 6.5 6.5 5
      vertex -6.5 12.8 5
    endloop
  endfacet
  facet normal 0 0 -1
    outer loop
      vertex -6.5 6.5 -5
      vertex 6.5 12.8 -5
      vertex 6.5 6.5 -5
    endloop
  endfacet
  facet normal 1 0 0
    outer loop
      vertex 6.5 6.5 -5
      vertex 6.5 12.8 -5
      vertex 6.5 6.5 5
    endloop
  endfacet
  facet normal 0 1 0
    outer loop
      vertex -6.5 12.8 5
      vertex 6.5 12.8 5
      vertex 6.5 12.8 -5
    endloop
  endfacet
  facet normal 1 0 0
    outer loop
      vertex 6.5 12.8 -5
      vertex 6.5 12.8 5
      vertex 6.5 6.5 5
    endloop
  endfacet
  facet normal 0 0 1
    outer loop
      vertex -6.5 12.8 5
      vertex 6.5 6.5 5
      vertex 6.5 12.8 5
    endloop
  endfacet
  facet normal 0.58778525229247 0.8090169943749497 0
    outer loop
      vertex 13.730121616402096 -1.232821188441263 -6.75
      vertex 13.730121616402096 -1.232821188441263 6.75
      vertex 13.892677128033606 -1.350924680803224 -6.75
    endloop
  endfacet
  facet normal 0.6845471059286915 0.7289686274214087 0
    outer loop
      vertex 13.730121616402096 -1.232821188441263 -6.75
      vertex 13.583650196125742 -1.0952753694859017 -6.75
      vertex 13.583650196125742 -1.0952753694859017 6.75
    endloop
  endfacet
  facet normal 0.9048270524660182 0.42577929156507544 0
    outer loop
      vertex 13.347909311929818 -0.7708058785627446 -6.75
      vertex 13.262357622578797 -0.5889992842954846 -6.75
      vertex 13.262357622578797 -0.5889992842954846 6.75
    endloop
  endfacet
  facet normal 0.7705132427757896 0.6374239897486892 0
    outer loop
      vertex 13.583650196125742 -1.0952753694859017 -6.75
      vertex 13.455572809000085 -0.940456403667957 -6.75
      vertex 13.455572809000085 -0.940456403667957 6.75
    endloop
  endfacet
  facet normal 0.8443279255020137 0.5358267949789987 0
    outer loop
      vertex 13.455572809000085 -0.940456403667957 -6.75
      vertex 13.347909311929818 -0.7708058785627446 -6.75
      vertex 13.347909311929818 -0.7708058785627446 6.75
    endloop
  endfacet
  facet normal 0.9510565162951545 0.3090169943749447 0
    outer loop
      vertex 13.262357622578797 -0.5889992842954846 -6.75
      vertex 13.20026694219419 -0.3979038194637678 -6.75
      vertex 13.20026694219419 -0.3979038194637678 6.75
    endloop
  endfacet
  facet normal 0.982287250728688 0.1873813145857275 0
    outer loop
      vertex 13.20026694219419 -0.3979038194637678 -6.75
      vertex 13.162616477896835 -0.2005331737028865 -6.75
      vertex 13.162616477896835 -0.2005331737028865 6.75
    endloop
  endfacet
  facet normal 0.9980267284282719 0.06279051952930871 0
    outer loop
      vertex 13.162616477896835 -0.2005331737028865 -6.75
      vertex 13.15 0 -6.75
      vertex 13.15 0 6.75
    endloop
  endfacet
  facet normal 0.9980267284282719 -0.06279051952930871 0
    outer loop
      vertex 13.15 0 -6.75
      vertex 13.162616477896835 0.2005331737028865 -6.75
      vertex 13.162616477896835 0.2005331737028865 6.75
    endloop
  endfacet
  facet normal 0.982287250728688 -0.1873813145857275 0
    outer loop
      vertex 13.162616477896835 0.2005331737028865 -6.75
      vertex 13.20026694219419 0.3979038194637678 -6.75
      vertex 13.20026694219419 0.3979038194637678 6.75
    endloop
  endfacet
  facet normal 0.9510565162951545 -0.3090169943749447 0
    outer loop
      vertex 13.20026694219419 0.3979038194637678 -6.75
      vertex 13.262357622578797 0.5889992842954846 -6.75
      vertex 13.262357622578797 0.5889992842954846 6.75
    endloop
  endfacet
  facet normal 0.9048270524660182 -0.42577929156507544 0
    outer loop
      vertex 13.262357622578797 0.5889992842954846 -6.75
      vertex 13.347909311929818 0.7708058785627446 -6.75
      vertex 13.347909311929818 0.7708058785627446 6.75
    endloop
  endfacet
  facet normal 0.8443279255020137 -0.5358267949789987 0
    outer loop
      vertex 13.347909311929818 0.7708058785627446 -6.75
      vertex 13.455572809000085 0.940456403667957 -6.75
      vertex 13.455572809000085 0.940456403667957 6.75
    endloop
  endfacet
  facet normal 0.7705132427757896 -0.6374239897486892 0
    outer loop
      vertex 13.455572809000085 0.940456403667957 -6.75
      vertex 13.583650196125742 1.0952753694859017 -6.75
      vertex 13.583650196125742 1.0952753694859017 6.75
    endloop
  endfacet
  facet normal 0.6845471059286915 -0.7289686274214087 0
    outer loop
      vertex 13.730121616402096 1.232821188441263 -6.75
      vertex 13.730121616402096 1.232821188441263 6.75
      vertex 13.583650196125742 1.0952753694859017 -6.75
    endloop
  endfacet
  facet normal 0.58778525229247 -0.8090169943749497 0
    outer loop
      vertex 13.892677128033606 1.350924680803224 -6.75
      vertex 13.892677128033606 1.350924680803224 6.75
      vertex 13.730121616402096 1.232821188441263 -6.75
    endloop
  endfacet
  facet normal 0.48175367410171693 0.8763066800438627 0
    outer loop
      vertex 13.892677128033606 -1.350924680803224 -6.75
      vertex 13.892677128033606 -1.350924680803224 6.75
      vertex 14.068753133495884 -1.4477232839456313 -6.75
    endloop
  endfacet
  facet normal 0.36812455268467814 0.9297764858882512 0
    outer loop
      vertex 14.068753133495884 -1.4477232839456313 -6.75
      vertex 14.068753133495884 -1.4477232839456313 6.75
      vertex 14.255572809000084 -1.5216904260722457 -6.75
    endloop
  endfacet
  facet normal 0.2486898871648551 0.9685831611286311 0
    outer loop
      vertex 14.255572809000084 -1.5216904260722457 -6.75
      vertex 14.255572809000084 -1.5216904260722457 6.75
      vertex 14.45018989666284 -1.5716596011659019 -6.75
    endloop
  endfacet
  facet normal 0.12533323356430445 0.9921147013144778 0
    outer loop
      vertex 14.45018989666284 -1.5716596011659019 -6.75
      vertex 14.45018989666284 -1.5716596011659019 6.75
      vertex 14.649535168753099 -1.5968427654852346 -6.75
    endloop
  endfacet
  facet normal 0 1 0
    outer loop
      vertex 14.649535168753099 -1.5968427654852346 -6.75
      vertex 14.649535168753099 -1.5968427654852346 6.75
      vertex 14.850464831246901 -1.5968427654852346 -6.75
    endloop
  endfacet
  facet normal -0.12533323356430445 0.9921147013144778 0
    outer loop
      vertex 14.850464831246901 -1.5968427654852346 -6.75
      vertex 14.850464831246901 -1.5968427654852346 6.75
      vertex 15.04981010333716 -1.5716596011659019 -6.75
    endloop
  endfacet
  facet normal -0.2486898871648551 0.9685831611286311 0
    outer loop
      vertex 15.04981010333716 -1.5716596011659019 -6.75
      vertex 15.04981010333716 -1.5716596011659019 6.75
      vertex 15.244427190999916 -1.5216904260722457 -6.75
    endloop
  endfacet
  facet normal -0.36812455268467814 0.9297764858882512 0
    outer loop
      vertex 15.244427190999916 -1.5216904260722457 -6.75
      vertex 15.244427190999916 -1.5216904260722457 6.75
      vertex 15.431246866504116 -1.4477232839456313 -6.75
    endloop
  endfacet
  facet normal -0.48175367410171527 0.8763066800438637 0
    outer loop
      vertex 15.431246866504116 -1.4477232839456313 -6.75
      vertex 15.431246866504116 -1.4477232839456313 6.75
      vertex 15.607322871966394 -1.3509246808032245 -6.75
    endloop
  endfacet
  facet normal -0.587785252292473 0.8090169943749477 0
    outer loop
      vertex 15.607322871966394 -1.3509246808032245 -6.75
      vertex 15.607322871966394 -1.3509246808032245 6.75
      vertex 15.769878383597904 -1.2328211884412625 -6.75
    endloop
  endfacet
  facet normal -0.6845471059286904 0.7289686274214098 0
    outer loop
      vertex 15.769878383597904 -1.2328211884412625 -6.75
      vertex 15.769878383597904 -1.2328211884412625 6.75
      vertex 15.916349803874258 -1.0952753694859017 -6.75
    endloop
  endfacet
  facet normal -0.7705132427757896 0.6374239897486892 0
    outer loop
      vertex 15.916349803874258 -1.0952753694859017 -6.75
      vertex 15.916349803874258 -1.0952753694859017 6.75
      vertex 16.044427190999915 -0.940456403667957 -6.75
    endloop
  endfacet
  facet normal -0.8443279255020137 0.5358267949789987 0
    outer loop
      vertex 16.15209068807018 -0.7708058785627446 -6.75
      vertex 16.044427190999915 -0.940456403667957 -6.75
      vertex 16.044427190999915 -0.940456403667957 6.75
    endloop
  endfacet
  facet normal -0.9048270524660176 0.4257792915650769 0
    outer loop
      vertex 16.237642377421203 -0.5889992842954854 -6.75
      vertex 16.15209068807018 -0.7708058785627446 -6.75
      vertex 16.15209068807018 -0.7708058785627446 6.75
    endloop
  endfacet
  facet normal -0.9510565162951552 0.30901699437494257 0
    outer loop
      vertex 16.29973305780581 -0.3979038194637671 -6.75
      vertex 16.237642377421203 -0.5889992842954854 -6.75
      vertex 16.237642377421203 -0.5889992842954854 6.75
    endloop
  endfacet
  facet normal -0.9822872507286896 0.18738131458571955 0
    outer loop
      vertex 16.337383522103163 -0.2005331737028865 -6.75
      vertex 16.29973305780581 -0.3979038194637671 -6.75
      vertex 16.29973305780581 -0.3979038194637671 6.75
    endloop
  endfacet
  facet normal -0.9980267284282708 0.06279051952932631 0
    outer loop
      vertex 16.337383522103163 -0.2005331737028865 -6.75
      vertex 16.337383522103163 -0.2005331737028865 6.75
      vertex 16.35 0 -6.75
    endloop
  endfacet
  facet normal -0.9980267284282708 -0.06279051952932622 0
    outer loop
      vertex 16.35 0 -6.75
      vertex 16.35 0 6.75
      vertex 16.337383522103163 0.2005331737028868 -6.75
    endloop
  endfacet
  facet normal -0.9822872507286896 -0.18738131458571933 0
    outer loop
      vertex 16.29973305780581 0.3979038194637677 -6.75
      vertex 16.337383522103163 0.2005331737028868 -6.75
      vertex 16.337383522103163 0.2005331737028868 6.75
    endloop
  endfacet
  facet normal -0.9510565162951545 -0.3090169943749443 0
    outer loop
      vertex 16.237642377421203 0.5889992842954848 -6.75
      vertex 16.29973305780581 0.3979038194637677 -6.75
      vertex 16.29973305780581 0.3979038194637677 6.75
    endloop
  endfacet
  facet normal -0.904827052466018 -0.42577929156507577 0
    outer loop
      vertex 16.15209068807018 0.7708058785627445 -6.75
      vertex 16.237642377421203 0.5889992842954848 -6.75
      vertex 16.237642377421203 0.5889992842954848 6.75
    endloop
  endfacet
  facet normal 0.48175367410171693 -0.8763066800438627 0
    outer loop
      vertex 14.068753133495884 1.4477232839456313 -6.75
      vertex 14.068753133495884 1.4477232839456313 6.75
      vertex 13.892677128033606 1.350924680803224 -6.75
    endloop
  endfacet
  facet normal 0.36812455268467814 -0.9297764858882512 0
    outer loop
      vertex 14.255572809000084 1.5216904260722457 -6.75
      vertex 14.255572809000084 1.5216904260722457 6.75
      vertex 14.068753133495884 1.4477232839456313 -6.75
    endloop
  endfacet
  facet normal 0.24868988716485613 -0.9685831611286309 0
    outer loop
      vertex 14.45018989666284 1.571659601165902 -6.75
      vertex 14.45018989666284 1.571659601165902 6.75
      vertex 14.255572809000084 1.5216904260722457 -6.75
    endloop
  endfacet
  facet normal 0.12533323356430337 -0.992114701314478 0
    outer loop
      vertex 14.649535168753099 1.5968427654852346 -6.75
      vertex 14.649535168753099 1.5968427654852346 6.75
      vertex 14.45018989666284 1.571659601165902 -6.75
    endloop
  endfacet
  facet normal 0 -1 0
    outer loop
      vertex 14.850464831246901 1.5968427654852346 -6.75
      vertex 14.850464831246901 1.5968427654852346 6.75
      vertex 14.649535168753099 1.5968427654852346 -6.75
    endloop
  endfacet
  facet normal -0.12533323356430337 -0.992114701314478 0
    outer loop
      vertex 15.04981010333716 1.571659601165902 -6.75
      vertex 15.04981010333716 1.571659601165902 6.75
      vertex 14.850464831246901 1.5968427654852346 -6.75
    endloop
  endfacet
  facet normal -0.844327925502014 -0.5358267949789985 0
    outer loop
      vertex 16.044427190999915 0.940456403667957 -6.75
      vertex 16.15209068807018 0.7708058785627445 -6.75
      vertex 16.15209068807018 0.7708058785627445 6.75
    endloop
  endfacet
  facet normal -0.7705132427757905 -0.6374239897486882 0
    outer loop
      vertex 15.916349803874258 1.095275369485902 -6.75
      vertex 16.044427190999915 0.940456403667957 -6.75
      vertex 16.044427190999915 0.940456403667957 6.75
    endloop
  endfacet
  facet normal -0.6845471059286898 -0.7289686274214103 0
    outer loop
      vertex 15.916349803874258 1.095275369485902 -6.75
      vertex 15.916349803874258 1.095275369485902 6.75
      vertex 15.769878383597904 1.2328211884412628 -6.75
    endloop
  endfacet
  facet normal -0.5877852522924716 -0.8090169943749487 0
    outer loop
      vertex 15.769878383597904 1.2328211884412628 -6.75
      vertex 15.769878383597904 1.2328211884412628 6.75
      vertex 15.607322871966394 1.3509246808032243 -6.75
    endloop
  endfacet
  facet normal -0.24868988716485613 -0.9685831611286309 0
    outer loop
      vertex 15.244427190999916 1.5216904260722457 -6.75
      vertex 15.244427190999916 1.5216904260722457 6.75
      vertex 15.04981010333716 1.571659601165902 -6.75
    endloop
  endfacet
  facet normal -0.36812455268467814 -0.9297764858882512 0
    outer loop
      vertex 15.431246866504116 1.4477232839456313 -6.75
      vertex 15.431246866504116 1.4477232839456313 6.75
      vertex 15.244427190999916 1.5216904260722457 -6.75
    endloop
  endfacet
  facet normal -0.4817536741017161 -0.876306680043863 0
    outer loop
      vertex 15.607322871966394 1.3509246808032243 -6.75
      vertex 15.607322871966394 1.3509246808032243 6.75
      vertex 15.431246866504116 1.4477232839456313 -6.75
    endloop
  endfacet
  facet normal 0.58778525229247 0.8090169943749497 0
    outer loop
      vertex 13.892677128033606 -1.350924680803224 -6.75
      vertex 13.730121616402096 -1.232821188441263 6.75
      vertex 13.892677128033606 -1.350924680803224 6.75
    endloop
  endfacet
  facet normal 0.6845471059286915 0.7289686274214087 0
    outer loop
      vertex 13.730121616402096 -1.232821188441263 -6.75
      vertex 13.583650196125742 -1.0952753694859017 6.75
      vertex 13.730121616402096 -1.232821188441263 6.75
    endloop
  endfacet
  facet normal 0.9510565162951545 0.3090169943749447 0
    outer loop
      vertex 13.262357622578797 -0.5889992842954846 -6.75
      vertex 13.20026694219419 -0.3979038194637678 6.75
      vertex 13.262357622578797 -0.5889992842954846 6.75
    endloop
  endfacet
  facet normal 0.7705132427757896 0.6374239897486892 0
    outer loop
      vertex 13.583650196125742 -1.0952753694859017 -6.75
      vertex 13.455572809000085 -0.940456403667957 6.75
      vertex 13.583650196125742 -1.0952753694859017 6.75
    endloop
  endfacet
  facet normal 0.8443279255020137 0.5358267949789987 0
    outer loop
      vertex 13.455572809000085 -0.940456403667957 -6.75
      vertex 13.347909311929818 -0.7708058785627446 6.75
      vertex 13.455572809000085 -0.940456403667957 6.75
    endloop
  endfacet
  facet normal 0.9048270524660182 0.42577929156507544 0
    outer loop
      vertex 13.347909311929818 -0.7708058785627446 -6.75
      vertex 13.262357622578797 -0.5889992842954846 6.75
      vertex 13.347909311929818 -0.7708058785627446 6.75
    endloop
  endfacet
  facet normal 0.982287250728688 0.1873813145857275 0
    outer loop
      vertex 13.20026694219419 -0.3979038194637678 -6.75
      vertex 13.162616477896835 -0.2005331737028865 6.75
      vertex 13.20026694219419 -0.3979038194637678 6.75
    endloop
  endfacet
  facet normal 0.9980267284282719 0.06279051952930871 0
    outer loop
      vertex 13.162616477896835 -0.2005331737028865 -6.75
      vertex 13.15 0 6.75
      vertex 13.162616477896835 -0.2005331737028865 6.75
    endloop
  endfacet
  facet normal 0.9980267284282719 -0.06279051952930871 0
    outer loop
      vertex 13.15 0 -6.75
      vertex 13.162616477896835 0.2005331737028865 6.75
      vertex 13.15 0 6.75
    endloop
  endfacet
  facet normal 0.982287250728688 -0.1873813145857275 0
    outer loop
      vertex 13.162616477896835 0.2005331737028865 -6.75
      vertex 13.20026694219419 0.3979038194637678 6.75
      vertex 13.162616477896835 0.2005331737028865 6.75
    endloop
  endfacet
  facet normal 0.9510565162951545 -0.3090169943749447 0
    outer loop
      vertex 13.20026694219419 0.3979038194637678 -6.75
      vertex 13.262357622578797 0.5889992842954846 6.75
      vertex 13.20026694219419 0.3979038194637678 6.75
    endloop
  endfacet
  facet normal 0.9048270524660182 -0.42577929156507544 0
    outer loop
      vertex 13.262357622578797 0.5889992842954846 -6.75
      vertex 13.347909311929818 0.7708058785627446 6.75
      vertex 13.262357622578797 0.5889992842954846 6.75
    endloop
  endfacet
  facet normal 0.8443279255020137 -0.5358267949789987 0
    outer loop
      vertex 13.347909311929818 0.7708058785627446 -6.75
      vertex 13.455572809000085 0.940456403667957 6.75
      vertex 13.347909311929818 0.7708058785627446 6.75
    endloop
  endfacet
  facet normal 0.7705132427757896 -0.6374239897486892 0
    outer loop
      vertex 13.455572809000085 0.940456403667957 -6.75
      vertex 13.583650196125742 1.0952753694859017 6.75
      vertex 13.455572809000085 0.940456403667957 6.75
    endloop
  endfacet
  facet normal 0.6845471059286915 -0.7289686274214087 0
    outer loop
      vertex 13.583650196125742 1.0952753694859017 -6.75
      vertex 13.730121616402096 1.232821188441263 6.75
      vertex 13.583650196125742 1.0952753694859017 6.75
    endloop
  endfacet
  facet normal 0.58778525229247 -0.8090169943749497 0
    outer loop
      vertex 13.730121616402096 1.232821188441263 -6.75
      vertex 13.892677128033606 1.350924680803224 6.75
      vertex 13.730121616402096 1.232821188441263 6.75
    endloop
  endfacet
  facet normal 0.48175367410171693 0.8763066800438627 0
    outer loop
      vertex 14.068753133495884 -1.4477232839456313 -6.75
      vertex 13.892677128033606 -1.350924680803224 6.75
      vertex 14.068753133495884 -1.4477232839456313 6.75
    endloop
  endfacet
  facet normal 0.2486898871648551 0.9685831611286311 0
    outer loop
      vertex 14.45018989666284 -1.5716596011659019 -6.75
      vertex 14.255572809000084 -1.5216904260722457 6.75
      vertex 14.45018989666284 -1.5716596011659019 6.75
    endloop
  endfacet
  facet normal 0.36812455268467814 0.9297764858882512 0
    outer loop
      vertex 14.255572809000084 -1.5216904260722457 -6.75
      vertex 14.068753133495884 -1.4477232839456313 6.75
      vertex 14.255572809000084 -1.5216904260722457 6.75
    endloop
  endfacet
  facet normal 0.12533323356430445 0.9921147013144778 0
    outer loop
      vertex 14.649535168753099 -1.5968427654852346 -6.75
      vertex 14.45018989666284 -1.5716596011659019 6.75
      vertex 14.649535168753099 -1.5968427654852346 6.75
    endloop
  endfacet
  facet normal 0 1 0
    outer loop
      vertex 14.850464831246901 -1.5968427654852346 -6.75
      vertex 14.649535168753099 -1.5968427654852346 6.75
      vertex 14.850464831246901 -1.5968427654852346 6.75
    endloop
  endfacet
  facet normal -0.12533323356430445 0.9921147013144778 0
    outer loop
      vertex 15.04981010333716 -1.5716596011659019 -6.75
      vertex 14.850464831246901 -1.5968427654852346 6.75
      vertex 15.04981010333716 -1.5716596011659019 6.75
    endloop
  endfacet
  facet normal -0.2486898871648551 0.9685831611286311 0
    outer loop
      vertex 15.244427190999916 -1.5216904260722457 -6.75
      vertex 15.04981010333716 -1.5716596011659019 6.75
      vertex 15.244427190999916 -1.5216904260722457 6.75
    endloop
  endfacet
  facet normal -0.36812455268467814 0.9297764858882512 0
    outer loop
      vertex 15.431246866504116 -1.4477232839456313 -6.75
      vertex 15.244427190999916 -1.5216904260722457 6.75
      vertex 15.431246866504116 -1.4477232839456313 6.75
    endloop
  endfacet
  facet normal -0.48175367410171527 0.8763066800438637 0
    outer loop
      vertex 15.607322871966394 -1.3509246808032245 -6.75
      vertex 15.431246866504116 -1.4477232839456313 6.75
      vertex 15.607322871966394 -1.3509246808032245 6.75
    endloop
  endfacet
  facet normal -0.587785252292473 0.8090169943749477 0
    outer loop
      vertex 15.769878383597904 -1.2328211884412625 -6.75
      vertex 15.607322871966394 -1.3509246808032245 6.75
      vertex 15.769878383597904 -1.2328211884412625 6.75
    endloop
  endfacet
  facet normal -0.6845471059286904 0.7289686274214098 0
    outer loop
      vertex 15.916349803874258 -1.0952753694859017 -6.75
      vertex 15.769878383597904 -1.2328211884412625 6.75
      vertex 15.916349803874258 -1.0952753694859017 6.75
    endloop
  endfacet
  facet normal -0.7705132427757896 0.6374239897486892 0
    outer loop
      vertex 16.044427190999915 -0.940456403667957 -6.75
      vertex 15.916349803874258 -1.0952753694859017 6.75
      vertex 16.044427190999915 -0.940456403667957 6.75
    endloop
  endfacet
  facet normal -0.8443279255020137 0.5358267949789987 0
    outer loop
      vertex 16.15209068807018 -0.7708058785627446 -6.75
      vertex 16.044427190999915 -0.940456403667957 6.75
      vertex 16.15209068807018 -0.7708058785627446 6.75
    endloop
  endfacet
  facet normal -0.904827052466018 -0.42577929156507577 0
    outer loop
      vertex 16.15209068807018 0.7708058785627445 -6.75
      vertex 16.237642377421203 0.5889992842954848 6.75
      vertex 16.15209068807018 0.7708058785627445 6.75
    endloop
  endfacet
  facet normal -0.9048270524660176 0.4257792915650769 0
    outer loop
      vertex 16.237642377421203 -0.5889992842954854 -6.75
      vertex 16.15209068807018 -0.7708058785627446 6.75
      vertex 16.237642377421203 -0.5889992842954854 6.75
    endloop
  endfacet
  facet normal -0.9510565162951552 0.30901699437494257 0
    outer loop
      vertex 16.29973305780581 -0.3979038194637671 -6.75
      vertex 16.237642377421203 -0.5889992842954854 6.75
      vertex 16.29973305780581 -0.3979038194637671 6.75
    endloop
  endfacet
  facet normal -0.9822872507286896 0.18738131458571955 0
    outer loop
      vertex 16.337383522103163 -0.2005331737028865 -6.75
      vertex 16.29973305780581 -0.3979038194637671 6.75
      vertex 16.337383522103163 -0.2005331737028865 6.75
    endloop
  endfacet
  facet normal -0.9980267284282708 0.06279051952932631 0
    outer loop
      vertex 16.35 0 -6.75
      vertex 16.337383522103163 -0.2005331737028865 6.75
      vertex 16.35 0 6.75
    endloop
  endfacet
  facet normal -0.9980267284282708 -0.06279051952932622 0
    outer loop
      vertex 16.337383522103163 0.2005331737028868 -6.75
      vertex 16.35 0 6.75
      vertex 16.337383522103163 0.2005331737028868 6.75
    endloop
  endfacet
  facet normal -0.9822872507286896 -0.18738131458571933 0
    outer loop
      vertex 16.29973305780581 0.3979038194637677 -6.75
      vertex 16.337383522103163 0.2005331737028868 6.75
      vertex 16.29973305780581 0.3979038194637677 6.75
    endloop
  endfacet
  facet normal -0.9510565162951545 -0.3090169943749443 0
    outer loop
      vertex 16.237642377421203 0.5889992842954848 -6.75
      vertex 16.29973305780581 0.3979038194637677 6.75
      vertex 16.237642377421203 0.5889992842954848 6.75
    endloop
  endfacet
  facet normal 0.48175367410171693 -0.8763066800438627 0
    outer loop
      vertex 13.892677128033606 1.350924680803224 -6.75
      vertex 14.068753133495884 1.4477232839456313 6.75
      vertex 13.892677128033606 1.350924680803224 6.75
    endloop
  endfacet
  facet normal 0.36812455268467814 -0.9297764858882512 0
    outer loop
      vertex 14.068753133495884 1.4477232839456313 -6.75
      vertex 14.255572809000084 1.5216904260722457 6.75
      vertex 14.068753133495884 1.4477232839456313 6.75
    endloop
  endfacet
  facet normal 0.24868988716485613 -0.9685831611286309 0
    outer loop
      vertex 14.255572809000084 1.5216904260722457 -6.75
      vertex 14.45018989666284 1.571659601165902 6.75
      vertex 14.255572809000084 1.5216904260722457 6.75
    endloop
  endfacet
  facet normal 0.12533323356430337 -0.992114701314478 0
    outer loop
      vertex 14.45018989666284 1.571659601165902 -6.75
      vertex 14.649535168753099 1.5968427654852346 6.75
      vertex 14.45018989666284 1.571659601165902 6.75
    endloop
  endfacet
  facet normal 0 -1 0
    outer loop
      vertex 14.649535168753099 1.5968427654852346 -6.75
      vertex 14.850464831246901 1.5968427654852346 6.75
      vertex 14.649535168753099 1.5968427654852346 6.75
    endloop
  endfacet
  facet normal -0.12533323356430337 -0.992114701314478 0
    outer loop
      vertex 14.850464831246901 1.5968427654852346 -6.75
      vertex 15.04981010333716 1.571659601165902 6.75
      vertex 14.850464831246901 1.5968427654852346 6.75
    endloop
  endfacet
  facet normal -0.844327925502014 -0.5358267949789985 0
    outer loop
      vertex 16.044427190999915 0.940456403667957 -6.75
      vertex 16.15209068807018 0.7708058785627445 6.75
      vertex 16.044427190999915 0.940456403667957 6.75
    endloop
  endfacet
  facet normal -0.6845471059286898 -0.7289686274214103 0
    outer loop
      vertex 15.769878383597904 1.2328211884412628 -6.75
      vertex 15.916349803874258 1.095275369485902 6.75
      vertex 15.769878383597904 1.2328211884412628 6.75
    endloop
  endfacet
  facet normal -0.5877852522924716 -0.8090169943749487 0
    outer loop
      vertex 15.607322871966394 1.3509246808032243 -6.75
      vertex 15.769878383597904 1.2328211884412628 6.75
      vertex 15.607322871966394 1.3509246808032243 6.75
    endloop
  endfacet
  facet normal -0.7705132427757905 -0.6374239897486882 0
    outer loop
      vertex 15.916349803874258 1.095275369485902 -6.75
      vertex 16.044427190999915 0.940456403667957 6.75
      vertex 15.916349803874258 1.095275369485902 6.75
    endloop
  endfacet
  facet normal -0.24868988716485613 -0.9685831611286309 0
    outer loop
      vertex 15.04981010333716 1.571659601165902 -6.75
      vertex 15.244427190999916 1.5216904260722457 6.75
      vertex 15.04981010333716 1.571659601165902 6.75
    endloop
  endfacet
  facet normal -0.36812455268467814 -0.9297764858882512 0
    outer loop
      vertex 15.244427190999916 1.5216904260722457 -6.75
      vertex 15.431246866504116 1.4477232839456313 6.75
      vertex 15.244427190999916 1.5216904260722457 6.75
    endloop
  endfacet
  facet normal -0.4817536741017161 -0.876306680043863 0
    outer loop
      vertex 15.431246866504116 1.4477232839456313 -6.75
      vertex 15.607322871966394 1.3509246808032243 6.75
      vertex 15.431246866504116 1.4477232839456313 6.75
    endloop
  endfacet
  facet normal 0.9048270524660182 0.42577929156507544 0
    outer loop
      vertex -16.15209068807018 -0.7708058785627446 -6.75
      vertex -16.237642377421203 -0.5889992842954846 -6.75
      vertex -16.237642377421203 -0.5889992842954846 6.75
    endloop
  endfacet
  facet normal 0.9510565162951545 0.3090169943749447 0
    outer loop
      vertex -16.237642377421203 -0.5889992842954846 -6.75
      vertex -16.29973305780581 -0.3979038194637678 -6.75
      vertex -16.29973305780581 -0.3979038194637678 6.75
    endloop
  endfacet
  facet normal 0.9822872507286898 0.18738131458571897 0
    outer loop
      vertex -16.29973305780581 -0.3979038194637678 -6.75
      vertex -16.337383522103163 -0.2005331737028865 -6.75
      vertex -16.337383522103163 -0.2005331737028865 6.75
    endloop
  endfacet
  facet normal 0.9980267284282708 0.06279051952932631 0
    outer loop
      vertex -16.337383522103163 -0.2005331737028865 -6.75
      vertex -16.35 0 -6.75
      vertex -16.35 0 6.75
    endloop
  endfacet
  facet normal 0.9980267284282708 -0.06279051952932631 0
    outer loop
      vertex -16.35 0 -6.75
      vertex -16.337383522103163 0.2005331737028865 -6.75
      vertex -16.337383522103163 0.2005331737028865 6.75
    endloop
  endfacet
  facet normal 0.9822872507286898 -0.18738131458571897 0
    outer loop
      vertex -16.337383522103163 0.2005331737028865 -6.75
      vertex -16.29973305780581 0.3979038194637678 -6.75
      vertex -16.29973305780581 0.3979038194637678 6.75
    endloop
  endfacet
  facet normal 0.9510565162951545 -0.3090169943749447 0
    outer loop
      vertex -16.29973305780581 0.3979038194637678 -6.75
      vertex -16.237642377421203 0.5889992842954846 -6.75
      vertex -16.237642377421203 0.5889992842954846 6.75
    endloop
  endfacet
  facet normal 0.58778525229247 0.8090169943749497 0
    outer loop
      vertex -15.769878383597904 -1.232821188441263 -6.75
      vertex -15.769878383597904 -1.232821188441263 6.75
      vertex -15.607322871966394 -1.350924680803224 -6.75
    endloop
  endfacet
  facet normal 0.6845471059286915 0.7289686274214087 0
    outer loop
      vertex -15.769878383597904 -1.232821188441263 -6.75
      vertex -15.916349803874258 -1.0952753694859017 -6.75
      vertex -15.916349803874258 -1.0952753694859017 6.75
    endloop
  endfacet
  facet normal 0.48175367410171693 0.8763066800438627 0
    outer loop
      vertex -15.607322871966394 -1.350924680803224 -6.75
      vertex -15.607322871966394 -1.350924680803224 6.75
      vertex -15.431246866504116 -1.4477232839456313 -6.75
    endloop
  endfacet
  facet normal 0.36812455268467814 0.9297764858882512 0
    outer loop
      vertex -15.431246866504116 -1.4477232839456313 -6.75
      vertex -15.431246866504116 -1.4477232839456313 6.75
      vertex -15.244427190999916 -1.5216904260722457 -6.75
    endloop
  endfacet
  facet normal 0.2486898871648551 0.9685831611286311 0
    outer loop
      vertex -15.244427190999916 -1.5216904260722457 -6.75
      vertex -15.244427190999916 -1.5216904260722457 6.75
      vertex -15.04981010333716 -1.5716596011659019 -6.75
    endloop
  endfacet
  facet normal 0.7705132427757896 0.6374239897486892 0
    outer loop
      vertex -15.916349803874258 -1.0952753694859017 -6.75
      vertex -16.044427190999915 -0.940456403667957 -6.75
      vertex -16.044427190999915 -0.940456403667957 6.75
    endloop
  endfacet
  facet normal 0.8443279255020137 0.5358267949789987 0
    outer loop
      vertex -16.044427190999915 -0.940456403667957 -6.75
      vertex -16.15209068807018 -0.7708058785627446 -6.75
      vertex -16.15209068807018 -0.7708058785627446 6.75
    endloop
  endfacet
  facet normal 0.12533323356430445 0.9921147013144778 0
    outer loop
      vertex -15.04981010333716 -1.5716596011659019 -6.75
      vertex -15.04981010333716 -1.5716596011659019 6.75
      vertex -14.850464831246901 -1.5968427654852346 -6.75
    endloop
  endfacet
  facet normal 0 1 0
    outer loop
      vertex -14.850464831246901 -1.5968427654852346 -6.75
      vertex -14.850464831246901 -1.5968427654852346 6.75
      vertex -14.649535168753099 -1.5968427654852346 -6.75
    endloop
  endfacet
  facet normal -0.12533323356430445 0.9921147013144778 0
    outer loop
      vertex -14.649535168753099 -1.5968427654852346 -6.75
      vertex -14.649535168753099 -1.5968427654852346 6.75
      vertex -14.45018989666284 -1.5716596011659019 -6.75
    endloop
  endfacet
  facet normal -0.2486898871648551 0.9685831611286311 0
    outer loop
      vertex -14.45018989666284 -1.5716596011659019 -6.75
      vertex -14.45018989666284 -1.5716596011659019 6.75
      vertex -14.255572809000084 -1.5216904260722457 -6.75
    endloop
  endfacet
  facet normal -0.36812455268467814 0.9297764858882512 0
    outer loop
      vertex -14.255572809000084 -1.5216904260722457 -6.75
      vertex -14.255572809000084 -1.5216904260722457 6.75
      vertex -14.068753133495884 -1.4477232839456313 -6.75
    endloop
  endfacet
  facet normal -0.48175367410171527 0.8763066800438637 0
    outer loop
      vertex -14.068753133495884 -1.4477232839456313 -6.75
      vertex -14.068753133495884 -1.4477232839456313 6.75
      vertex -13.892677128033606 -1.3509246808032245 -6.75
    endloop
  endfacet
  facet normal 0.9048270524660182 -0.42577929156507544 0
    outer loop
      vertex -16.237642377421203 0.5889992842954846 -6.75
      vertex -16.15209068807018 0.7708058785627446 -6.75
      vertex -16.15209068807018 0.7708058785627446 6.75
    endloop
  endfacet
  facet normal 0.8443279255020137 -0.5358267949789987 0
    outer loop
      vertex -16.15209068807018 0.7708058785627446 -6.75
      vertex -16.044427190999915 0.940456403667957 -6.75
      vertex -16.044427190999915 0.940456403667957 6.75
    endloop
  endfacet
  facet normal 0.7705132427757896 -0.6374239897486892 0
    outer loop
      vertex -16.044427190999915 0.940456403667957 -6.75
      vertex -15.916349803874258 1.0952753694859017 -6.75
      vertex -15.916349803874258 1.0952753694859017 6.75
    endloop
  endfacet
  facet normal 0.6845471059286915 -0.7289686274214087 0
    outer loop
      vertex -15.769878383597904 1.232821188441263 -6.75
      vertex -15.769878383597904 1.232821188441263 6.75
      vertex -15.916349803874258 1.0952753694859017 -6.75
    endloop
  endfacet
  facet normal 0.58778525229247 -0.8090169943749497 0
    outer loop
      vertex -15.607322871966394 1.350924680803224 -6.75
      vertex -15.607322871966394 1.350924680803224 6.75
      vertex -15.769878383597904 1.232821188441263 -6.75
    endloop
  endfacet
  facet normal 0.48175367410171693 -0.8763066800438627 0
    outer loop
      vertex -15.431246866504116 1.4477232839456313 -6.75
      vertex -15.431246866504116 1.4477232839456313 6.75
      vertex -15.607322871966394 1.350924680803224 -6.75
    endloop
  endfacet
  facet normal 0.36812455268467814 -0.9297764858882512 0
    outer loop
      vertex -15.244427190999916 1.5216904260722457 -6.75
      vertex -15.244427190999916 1.5216904260722457 6.75
      vertex -15.431246866504116 1.4477232839456313 -6.75
    endloop
  endfacet
  facet normal 0.24868988716485613 -0.9685831611286309 0
    outer loop
      vertex -15.04981010333716 1.571659601165902 -6.75
      vertex -15.04981010333716 1.571659601165902 6.75
      vertex -15.244427190999916 1.5216904260722457 -6.75
    endloop
  endfacet
  facet normal 0.12533323356430337 -0.992114701314478 0
    outer loop
      vertex -14.850464831246901 1.5968427654852346 -6.75
      vertex -14.850464831246901 1.5968427654852346 6.75
      vertex -15.04981010333716 1.571659601165902 -6.75
    endloop
  endfacet
  facet normal 0 -1 0
    outer loop
      vertex -14.649535168753099 1.5968427654852346 -6.75
      vertex -14.649535168753099 1.5968427654852346 6.75
      vertex -14.850464831246901 1.5968427654852346 -6.75
    endloop
  endfacet
  facet normal -0.12533323356430337 -0.992114701314478 0
    outer loop
      vertex -14.45018989666284 1.571659601165902 -6.75
      vertex -14.45018989666284 1.571659601165902 6.75
      vertex -14.649535168753099 1.5968427654852346 -6.75
    endloop
  endfacet
  facet normal -0.24868988716485613 -0.9685831611286309 0
    outer loop
      vertex -14.255572809000084 1.5216904260722457 -6.75
      vertex -14.255572809000084 1.5216904260722457 6.75
      vertex -14.45018989666284 1.571659601165902 -6.75
    endloop
  endfacet
  facet normal -0.36812455268467814 -0.9297764858882512 0
    outer loop
      vertex -14.068753133495884 1.4477232839456313 -6.75
      vertex -14.068753133495884 1.4477232839456313 6.75
      vertex -14.255572809000084 1.5216904260722457 -6.75
    endloop
  endfacet
  facet normal -0.4817536741017161 -0.876306680043863 0
    outer loop
      vertex -13.892677128033606 1.3509246808032243 -6.75
      vertex -13.892677128033606 1.3509246808032243 6.75
      vertex -14.068753133495884 1.4477232839456313 -6.75
    endloop
  endfacet
  facet normal -0.587785252292473 0.8090169943749477 0
    outer loop
      vertex -13.892677128033606 -1.3509246808032245 -6.75
      vertex -13.892677128033606 -1.3509246808032245 6.75
      vertex -13.730121616402096 -1.2328211884412625 -6.75
    endloop
  endfacet
  facet normal -0.6845471059286904 0.7289686274214098 0
    outer loop
      vertex -13.730121616402096 -1.2328211884412625 -6.75
      vertex -13.730121616402096 -1.2328211884412625 6.75
      vertex -13.583650196125742 -1.0952753694859017 -6.75
    endloop
  endfacet
  facet normal -0.7705132427757896 0.6374239897486892 0
    outer loop
      vertex -13.583650196125742 -1.0952753694859017 -6.75
      vertex -13.583650196125742 -1.0952753694859017 6.75
      vertex -13.455572809000085 -0.940456403667957 -6.75
    endloop
  endfacet
  facet normal -0.8443279255020137 0.5358267949789987 0
    outer loop
      vertex -13.347909311929818 -0.7708058785627446 -6.75
      vertex -13.455572809000085 -0.940456403667957 -6.75
      vertex -13.455572809000085 -0.940456403667957 6.75
    endloop
  endfacet
  facet normal -0.9048270524660176 0.4257792915650769 0
    outer loop
      vertex -13.262357622578797 -0.5889992842954854 -6.75
      vertex -13.347909311929818 -0.7708058785627446 -6.75
      vertex -13.347909311929818 -0.7708058785627446 6.75
    endloop
  endfacet
  facet normal -0.9510565162951552 0.30901699437494257 0
    outer loop
      vertex -13.20026694219419 -0.3979038194637671 -6.75
      vertex -13.262357622578797 -0.5889992842954854 -6.75
      vertex -13.262357622578797 -0.5889992842954854 6.75
    endloop
  endfacet
  facet normal -0.982287250728688 0.1873813145857281 0
    outer loop
      vertex -13.162616477896835 -0.2005331737028865 -6.75
      vertex -13.20026694219419 -0.3979038194637671 -6.75
      vertex -13.20026694219419 -0.3979038194637671 6.75
    endloop
  endfacet
  facet normal -0.9980267284282719 0.06279051952930871 0
    outer loop
      vertex -13.162616477896835 -0.2005331737028865 -6.75
      vertex -13.162616477896835 -0.2005331737028865 6.75
      vertex -13.15 0 -6.75
    endloop
  endfacet
  facet normal -0.9980267284282719 -0.06279051952930861 0
    outer loop
      vertex -13.15 0 -6.75
      vertex -13.15 0 6.75
      vertex -13.162616477896835 0.2005331737028868 -6.75
    endloop
  endfacet
  facet normal -0.982287250728688 -0.18738131458572788 0
    outer loop
      vertex -13.20026694219419 0.3979038194637677 -6.75
      vertex -13.162616477896835 0.2005331737028868 -6.75
      vertex -13.162616477896835 0.2005331737028868 6.75
    endloop
  endfacet
  facet normal -0.9510565162951545 -0.3090169943749443 0
    outer loop
      vertex -13.262357622578797 0.5889992842954848 -6.75
      vertex -13.20026694219419 0.3979038194637677 -6.75
      vertex -13.20026694219419 0.3979038194637677 6.75
    endloop
  endfacet
  facet normal -0.904827052466018 -0.42577929156507577 0
    outer loop
      vertex -13.347909311929818 0.7708058785627445 -6.75
      vertex -13.262357622578797 0.5889992842954848 -6.75
      vertex -13.262357622578797 0.5889992842954848 6.75
    endloop
  endfacet
  facet normal -0.844327925502014 -0.5358267949789985 0
    outer loop
      vertex -13.455572809000085 0.940456403667957 -6.75
      vertex -13.347909311929818 0.7708058785627445 -6.75
      vertex -13.347909311929818 0.7708058785627445 6.75
    endloop
  endfacet
  facet normal -0.7705132427757905 -0.6374239897486882 0
    outer loop
      vertex -13.583650196125742 1.095275369485902 -6.75
      vertex -13.455572809000085 0.940456403667957 -6.75
      vertex -13.455572809000085 0.940456403667957 6.75
    endloop
  endfacet
  facet normal -0.6845471059286898 -0.7289686274214103 0
    outer loop
      vertex -13.583650196125742 1.095275369485902 -6.75
      vertex -13.583650196125742 1.095275369485902 6.75
      vertex -13.730121616402096 1.2328211884412628 -6.75
    endloop
  endfacet
  facet normal -0.5877852522924716 -0.8090169943749487 0
    outer loop
      vertex -13.730121616402096 1.2328211884412628 -6.75
      vertex -13.730121616402096 1.2328211884412628 6.75
      vertex -13.892677128033606 1.3509246808032243 -6.75
    endloop
  endfacet
  facet normal 0.9510565162951545 0.3090169943749447 0
    outer loop
      vertex -16.237642377421203 -0.5889992842954846 -6.75
      vertex -16.29973305780581 -0.3979038194637678 6.75
      vertex -16.237642377421203 -0.5889992842954846 6.75
    endloop
  endfacet
  facet normal 0.9822872507286898 0.18738131458571897 0
    outer loop
      vertex -16.29973305780581 -0.3979038194637678 -6.75
      vertex -16.337383522103163 -0.2005331737028865 6.75
      vertex -16.29973305780581 -0.3979038194637678 6.75
    endloop
  endfacet
  facet normal 0.9980267284282708 0.06279051952932631 0
    outer loop
      vertex -16.337383522103163 -0.2005331737028865 -6.75
      vertex -16.35 0 6.75
      vertex -16.337383522103163 -0.2005331737028865 6.75
    endloop
  endfacet
  facet normal 0.9980267284282708 -0.06279051952932631 0
    outer loop
      vertex -16.35 0 -6.75
      vertex -16.337383522103163 0.2005331737028865 6.75
      vertex -16.35 0 6.75
    endloop
  endfacet
  facet normal 0.9822872507286898 -0.18738131458571897 0
    outer loop
      vertex -16.337383522103163 0.2005331737028865 -6.75
      vertex -16.29973305780581 0.3979038194637678 6.75
      vertex -16.337383522103163 0.2005331737028865 6.75
    endloop
  endfacet
  facet normal 0.9510565162951545 -0.3090169943749447 0
    outer loop
      vertex -16.29973305780581 0.3979038194637678 -6.75
      vertex -16.237642377421203 0.5889992842954846 6.75
      vertex -16.29973305780581 0.3979038194637678 6.75
    endloop
  endfacet
  facet normal 0.9048270524660182 -0.42577929156507544 0
    outer loop
      vertex -16.237642377421203 0.5889992842954846 -6.75
      vertex -16.15209068807018 0.7708058785627446 6.75
      vertex -16.237642377421203 0.5889992842954846 6.75
    endloop
  endfacet
  facet normal 0.58778525229247 0.8090169943749497 0
    outer loop
      vertex -15.607322871966394 -1.350924680803224 -6.75
      vertex -15.769878383597904 -1.232821188441263 6.75
      vertex -15.607322871966394 -1.350924680803224 6.75
    endloop
  endfacet
  facet normal 0.6845471059286915 0.7289686274214087 0
    outer loop
      vertex -15.769878383597904 -1.232821188441263 -6.75
      vertex -15.916349803874258 -1.0952753694859017 6.75
      vertex -15.769878383597904 -1.232821188441263 6.75
    endloop
  endfacet
  facet normal 0.48175367410171693 0.8763066800438627 0
    outer loop
      vertex -15.431246866504116 -1.4477232839456313 -6.75
      vertex -15.607322871966394 -1.350924680803224 6.75
      vertex -15.431246866504116 -1.4477232839456313 6.75
    endloop
  endfacet
  facet normal 0.2486898871648551 0.9685831611286311 0
    outer loop
      vertex -15.04981010333716 -1.5716596011659019 -6.75
      vertex -15.244427190999916 -1.5216904260722457 6.75
      vertex -15.04981010333716 -1.5716596011659019 6.75
    endloop
  endfacet
  facet normal 0.36812455268467814 0.9297764858882512 0
    outer loop
      vertex -15.244427190999916 -1.5216904260722457 -6.75
      vertex -15.431246866504116 -1.4477232839456313 6.75
      vertex -15.244427190999916 -1.5216904260722457 6.75
    endloop
  endfacet
  facet normal 0.7705132427757896 0.6374239897486892 0
    outer loop
      vertex -15.916349803874258 -1.0952753694859017 -6.75
      vertex -16.044427190999915 -0.940456403667957 6.75
      vertex -15.916349803874258 -1.0952753694859017 6.75
    endloop
  endfacet
  facet normal 0.8443279255020137 0.5358267949789987 0
    outer loop
      vertex -16.044427190999915 -0.940456403667957 -6.75
      vertex -16.15209068807018 -0.7708058785627446 6.75
      vertex -16.044427190999915 -0.940456403667957 6.75
    endloop
  endfacet
  facet normal 0.9048270524660182 0.42577929156507544 0
    outer loop
      vertex -16.15209068807018 -0.7708058785627446 -6.75
      vertex -16.237642377421203 -0.5889992842954846 6.75
      vertex -16.15209068807018 -0.7708058785627446 6.75
    endloop
  endfacet
  facet normal 0.12533323356430445 0.9921147013144778 0
    outer loop
      vertex -14.850464831246901 -1.5968427654852346 -6.75
      vertex -15.04981010333716 -1.5716596011659019 6.75
      vertex -14.850464831246901 -1.5968427654852346 6.75
    endloop
  endfacet
  facet normal 0 1 0
    outer loop
      vertex -14.649535168753099 -1.5968427654852346 -6.75
      vertex -14.850464831246901 -1.5968427654852346 6.75
      vertex -14.649535168753099 -1.5968427654852346 6.75
    endloop
  endfacet
  facet normal -0.12533323356430445 0.9921147013144778 0
    outer loop
      vertex -14.45018989666284 -1.5716596011659019 -6.75
      vertex -14.649535168753099 -1.5968427654852346 6.75
      vertex -14.45018989666284 -1.5716596011659019 6.75
    endloop
  endfacet
  facet normal -0.2486898871648551 0.9685831611286311 0
    outer loop
      vertex -14.255572809000084 -1.5216904260722457 -6.75
      vertex -14.45018989666284 -1.5716596011659019 6.75
      vertex -14.255572809000084 -1.5216904260722457 6.75
    endloop
  endfacet
  facet normal -0.36812455268467814 0.9297764858882512 0
    outer loop
      vertex -14.068753133495884 -1.4477232839456313 -6.75
      vertex -14.255572809000084 -1.5216904260722457 6.75
      vertex -14.068753133495884 -1.4477232839456313 6.75
    endloop
  endfacet
  facet normal -0.48175367410171527 0.8763066800438637 0
    outer loop
      vertex -13.892677128033606 -1.3509246808032245 -6.75
      vertex -14.068753133495884 -1.4477232839456313 6.75
      vertex -13.892677128033606 -1.3509246808032245 6.75
    endloop
  endfacet
  facet normal 0.8443279255020137 -0.5358267949789987 0
    outer loop
      vertex -16.15209068807018 0.7708058785627446 -6.75
      vertex -16.044427190999915 0.940456403667957 6.75
      vertex -16.15209068807018 0.7708058785627446 6.75
    endloop
  endfacet
  facet normal 0.7705132427757896 -0.6374239897486892 0
    outer loop
      vertex -16.044427190999915 0.940456403667957 -6.75
      vertex -15.916349803874258 1.0952753694859017 6.75
      vertex -16.044427190999915 0.940456403667957 6.75
    endloop
  endfacet
  facet normal 0.6845471059286915 -0.7289686274214087 0
    outer loop
      vertex -15.916349803874258 1.0952753694859017 -6.75
      vertex -15.769878383597904 1.232821188441263 6.75
      vertex -15.916349803874258 1.0952753694859017 6.75
    endloop
  endfacet
  facet normal 0.58778525229247 -0.8090169943749497 0
    outer loop
      vertex -15.769878383597904 1.232821188441263 -6.75
      vertex -15.607322871966394 1.350924680803224 6.75
      vertex -15.769878383597904 1.232821188441263 6.75
    endloop
  endfacet
  facet normal 0.48175367410171693 -0.8763066800438627 0
    outer loop
      vertex -15.607322871966394 1.350924680803224 -6.75
      vertex -15.431246866504116 1.4477232839456313 6.75
      vertex -15.607322871966394 1.350924680803224 6.75
    endloop
  endfacet
  facet normal 0.36812455268467814 -0.9297764858882512 0
    outer loop
      vertex -15.431246866504116 1.4477232839456313 -6.75
      vertex -15.244427190999916 1.5216904260722457 6.75
      vertex -15.431246866504116 1.4477232839456313 6.75
    endloop
  endfacet
  facet normal 0.24868988716485613 -0.9685831611286309 0
    outer loop
      vertex -15.244427190999916 1.5216904260722457 -6.75
      vertex -15.04981010333716 1.571659601165902 6.75
      vertex -15.244427190999916 1.5216904260722457 6.75
    endloop
  endfacet
  facet normal 0.12533323356430337 -0.992114701314478 0
    outer loop
      vertex -15.04981010333716 1.571659601165902 -6.75
      vertex -14.850464831246901 1.5968427654852346 6.75
      vertex -15.04981010333716 1.571659601165902 6.75
    endloop
  endfacet
  facet normal 0 -1 0
    outer loop
      vertex -14.850464831246901 1.5968427654852346 -6.75
      vertex -14.649535168753099 1.5968427654852346 6.75
      vertex -14.850464831246901 1.5968427654852346 6.75
    endloop
  endfacet
  facet normal -0.12533323356430337 -0.992114701314478 0
    outer loop
      vertex -14.649535168753099 1.5968427654852346 -6.75
      vertex -14.45018989666284 1.571659601165902 6.75
      vertex -14.649535168753099 1.5968427654852346 6.75
    endloop
  endfacet
  facet normal -0.24868988716485613 -0.9685831611286309 0
    outer loop
      vertex -14.45018989666284 1.571659601165902 -6.75
      vertex -14.255572809000084 1.5216904260722457 6.75
      vertex -14.45018989666284 1.571659601165902 6.75
    endloop
  endfacet
  facet normal -0.36812455268467814 -0.9297764858882512 0
    outer loop
      vertex -14.255572809000084 1.5216904260722457 -6.75
      vertex -14.068753133495884 1.4477232839456313 6.75
      vertex -14.255572809000084 1.5216904260722457 6.75
    endloop
  endfacet
  facet normal -0.4817536741017161 -0.876306680043863 0
    outer loop
      vertex -14.068753133495884 1.4477232839456313 -6.75
      vertex -13.892677128033606 1.3509246808032243 6.75
      vertex -14.068753133495884 1.4477232839456313 6.75
    endloop
  endfacet
  facet normal -0.587785252292473 0.8090169943749477 0
    outer loop
      vertex -13.730121616402096 -1.2328211884412625 -6.75
      vertex -13.892677128033606 -1.3509246808032245 6.75
      vertex -13.730121616402096 -1.2328211884412625 6.75
    endloop
  endfacet
  facet normal -0.6845471059286904 0.7289686274214098 0
    outer loop
      vertex -13.583650196125742 -1.0952753694859017 -6.75
      vertex -13.730121616402096 -1.2328211884412625 6.75
      vertex -13.583650196125742 -1.0952753694859017 6.75
    endloop
  endfacet
  facet normal -0.7705132427757896 0.6374239897486892 0
    outer loop
      vertex -13.455572809000085 -0.940456403667957 -6.75
      vertex -13.583650196125742 -1.0952753694859017 6.75
      vertex -13.455572809000085 -0.940456403667957 6.75
    endloop
  endfacet
  facet normal -0.8443279255020137 0.5358267949789987 0
    outer loop
      vertex -13.347909311929818 -0.7708058785627446 -6.75
      vertex -13.455572809000085 -0.940456403667957 6.75
      vertex -13.347909311929818 -0.7708058785627446 6.75
    endloop
  endfacet
  facet normal -0.9048270524660176 0.4257792915650769 0
    outer loop
      vertex -13.262357622578797 -0.5889992842954854 -6.75
      vertex -13.347909311929818 -0.7708058785627446 6.75
      vertex -13.262357622578797 -0.5889992842954854 6.75
    endloop
  endfacet
  facet normal -0.9510565162951552 0.30901699437494257 0
    outer loop
      vertex -13.20026694219419 -0.3979038194637671 -6.75
      vertex -13.262357622578797 -0.5889992842954854 6.75
      vertex -13.20026694219419 -0.3979038194637671 6.75
    endloop
  endfacet
  facet normal -0.982287250728688 0.1873813145857281 0
    outer loop
      vertex -13.162616477896835 -0.2005331737028865 -6.75
      vertex -13.20026694219419 -0.3979038194637671 6.75
      vertex -13.162616477896835 -0.2005331737028865 6.75
    endloop
  endfacet
  facet normal -0.9980267284282719 0.06279051952930871 0
    outer loop
      vertex -13.15 0 -6.75
      vertex -13.162616477896835 -0.2005331737028865 6.75
      vertex -13.15 0 6.75
    endloop
  endfacet
  facet normal -0.9980267284282719 -0.06279051952930861 0
    outer loop
      vertex -13.162616477896835 0.2005331737028868 -6.75
      vertex -13.15 0 6.75
      vertex -13.162616477896835 0.2005331737028868 6.75
    endloop
  endfacet
  facet normal -0.904827052466018 -0.42577929156507577 0
    outer loop
      vertex -13.347909311929818 0.7708058785627445 -6.75
      vertex -13.262357622578797 0.5889992842954848 6.75
      vertex -13.347909311929818 0.7708058785627445 6.75
    endloop
  endfacet
  facet normal -0.982287250728688 -0.18738131458572788 0
    outer loop
      vertex -13.20026694219419 0.3979038194637677 -6.75
      vertex -13.162616477896835 0.2005331737028868 6.75
      vertex -13.20026694219419 0.3979038194637677 6.75
    endloop
  endfacet
  facet normal -0.9510565162951545 -0.3090169943749443 0
    outer loop
      vertex -13.262357622578797 0.5889992842954848 -6.75
      vertex -13.20026694219419 0.3979038194637677 6.75
      vertex -13.262357622578797 0.5889992842954848 6.75
    endloop
  endfacet
  facet normal -0.844327925502014 -0.5358267949789985 0
    outer loop
      vertex -13.455572809000085 0.940456403667957 -6.75
      vertex -13.347909311929818 0.7708058785627445 6.75
      vertex -13.455572809000085 0.940456403667957 6.75
    endloop
  endfacet
  facet normal -0.6845471059286898 -0.7289686274214103 0
    outer loop
      vertex -13.730121616402096 1.2328211884412628 -6.75
      vertex -13.583650196125742 1.095275369485902 6.75
      vertex -13.730121616402096 1.2328211884412628 6.75
    endloop
  endfacet
  facet normal -0.5877852522924716 -0.8090169943749487 0
    outer loop
      vertex -13.892677128033606 1.3509246808032243 -6.75
      vertex -13.730121616402096 1.2328211884412628 6.75
      vertex -13.892677128033606 1.3509246808032243 6.75
    endloop
  endfacet
  facet normal -0.7705132427757905 -0.6374239897486882 0
    outer loop
      vertex -13.583650196125742 1.095275369485902 -6.75
      vertex -13.455572809000085 0.940456403667957 6.75
      vertex -13.583650196125742 1.095275369485902 6.75
    endloop
  endfacet
  facet normal 0 1 0
    outer loop
      vertex -5.05 -5 -6.35
      vertex 5.05 -5 -6.75
      vertex -5.05 -5 -6.75
    endloop
  endfacet
  facet normal 1 0 0
    outer loop
      vertex -5.05 -5 -6.35
      vertex -5.05 -5 -6.75
      vertex -5.05 5 -6.35
    endloop
  endfacet
  facet normal 1 0 0
    outer loop
      vertex -5.05 5 -6.35
      vertex -5.05 -5 -6.75
      vertex -5.05 5 -6.75
    endloop
  endfacet
  facet normal 0 0 -1
    outer loop
      vertex -5.05 -5 -6.35
      vertex -5.05 5 -6.35
      vertex 5.05 -5 -6.35
    endloop
  endfacet
  facet normal 0 -1 0
    outer loop
      vertex -5.05 5 -6.35
      vertex -5.05 5 -6.75
      vertex 5.05 5 -6.35
    endloop
  endfacet
  facet normal 0 1 0
    outer loop
      vertex -5.05 -5 -6.35
      vertex 5.05 -5 -6.35
      vertex 5.05 -5 -6.75
    endloop
  endfacet
  facet normal 0 0 -1
    outer loop
      vertex -5.05 5 -6.35
      vertex 5.05 5 -6.35
      vertex 5.05 -5 -6.35
    endloop
  endfacet
  facet normal -1 0 0
    outer loop
      vertex 5.05 -5 -6.35
      vertex 5.05 5 -6.75
      vertex 5.05 -5 -6.75
    endloop
  endfacet
  facet normal -1 0 0
    outer loop
      vertex 5.05 -5 -6.35
      vertex 5.05 5 -6.35
      vertex 5.05 5 -6.75
    endloop
  endfacet
  facet normal 0 -1 0
    outer loop
      vertex 5.05 5 -6.35
      vertex -5.05 5 -6.75
      vertex 5.05 5 -6.75
    endloop
  endfacet
endsolid OpenSCAD_Model
