solid OpenSCAD_Model
  facet normal 0 0 -1
    outer loop
      vertex 3 0 0
      vertex 6.116232730295792 19.5 0
      vertex 6.116232730295792 17.490000000000002 0
    endloop
  endfacet
  facet normal 0 0 -1
    outer loop
      vertex 3 0 0
      vertex 6.116232730295792 17.490000000000002 0
      vertex 7.75 16.490000000000002 0
    endloop
  endfacet
  facet normal 0 0 -1
    outer loop
      vertex 3 0 0
      vertex 7.75 16.490000000000002 0
      vertex 12.25 16.490000000000002 0
    endloop
  endfacet
  facet normal 0 0 1
    outer loop
      vertex 3 0 3
      vertex 12.530891239184697 17.490000000000002 3
      vertex 7.509411242002631 17.490000000000002 3
    endloop
  endfacet
  facet normal 0 0 -1
    outer loop
      vertex 7.75 16.490000000000002 0
      vertex 6.116232730295792 17.490000000000002 0
      vertex 7.75 17.490000000000002 0
    endloop
  endfacet
  facet normal 0 -1 0
    outer loop
      vertex 3 0 0
      vertex 50 0 3
      vertex 3 0 3
    endloop
  endfacet
  facet normal 0 0 -1
    outer loop
      vertex 3 0 0
      vertex 12.25 16.490000000000002 0
      vertex 50 0 0
    endloop
  endfacet
  facet normal 0 0 -1
    outer loop
      vertex 12.25 16.490000000000002 0
      vertex 12.25 17.490000000000002 0
      vertex 14 17.490000000000002 0
    endloop
  endfacet
  facet normal 0 0 -1
    outer loop
      vertex 3 0 0
      vertex 3 40 0
      vertex 6.116232730295792 19.5 0
    endloop
  endfacet
  facet normal 0 0 1
    outer loop
      vertex 3 0 3
      vertex 7.509411242002631 17.490000000000002 3
      vertex 3 40 3
    endloop
  endfacet
  facet normal 0 0 1
    outer loop
      vertex 3 40 3
      vertex 7.509411242002631 17.490000000000002 3
      vertex 7.509411242002631 19.5 3
    endloop
  endfacet
  facet normal 0 0 -1
    outer loop
      vertex 3 40 0
      vertex 14 19.5 0
      vertex 6.116232730295792 19.5 0
    endloop
  endfacet
  facet normal 0 0 1
    outer loop
      vertex 3 40 3
      vertex 7.509411242002631 19.5 3
      vertex 12.530891239184697 19.5 3
    endloop
  endfacet
  facet normal 0 0 -1
    outer loop
      vertex 3 40 0
      vertex 50 0 0
      vertex 14 19.5 0
    endloop
  endfacet
  facet normal 0 0 1
    outer loop
      vertex 3 0 3
      vertex 50 40 3
      vertex 12.530891239184697 17.490000000000002 3
    endloop
  endfacet
  facet normal 0 1 0
    outer loop
      vertex 3 40 0
      vertex 3 40 3
      vertex 50 40 0
    endloop
  endfacet
  facet normal 0 0 1
    outer loop
      vertex 3 40 3
      vertex 12.530891239184697 19.5 3
      vertex 50 40 3
    endloop
  endfacet
  facet normal 0 -1 0
    outer loop
      vertex 3 0 0
      vertex 50 0 0
      vertex 50 0 3
    endloop
  endfacet
  facet normal 0 0 1
    outer loop
      vertex 3 0 3
      vertex 50 0 3
      vertex 42.5308912391847 17.490000000000002 3
    endloop
  endfacet
  facet normal 0 0 -1
    outer loop
      vertex 50 0 0
      vertex 12.25 16.490000000000002 0
      vertex 14 17.490000000000002 0
    endloop
  endfacet
  facet normal 0 0 -1
    outer loop
      vertex 50 0 0
      vertex 14 17.490000000000002 0
      vertex 14 19.5 0
    endloop
  endfacet
  facet normal 0 0 1
    outer loop
      vertex 3 0 3
      vertex 37.50941124200263 17.490000000000002 3
      vertex 37.50941124200263 19.5 3
    endloop
  endfacet
  facet normal 0 0 1
    outer loop
      vertex 3 0 3
      vertex 42.5308912391847 17.490000000000002 3
      vertex 37.50941124200263 17.490000000000002 3
    endloop
  endfacet
  facet normal 0 0 -1
    outer loop
      vertex 37.75 17.490000000000002 0
      vertex 37.75 16.490000000000002 0
      vertex 36.11623273029579 17.490000000000002 0
    endloop
  endfacet
  facet normal 0 0 -1
    outer loop
      vertex 50 0 0
      vertex 36.11623273029579 17.490000000000002 0
      vertex 37.75 16.490000000000002 0
    endloop
  endfacet
  facet normal 0 0 -1
    outer loop
      vertex 50 0 0
      vertex 37.75 16.490000000000002 0
      vertex 42.25 16.490000000000002 0
    endloop
  endfacet
  facet normal 0 0 -1
    outer loop
      vertex 42.25 16.490000000000002 0
      vertex 42.25 17.490000000000002 0
      vertex 44 17.490000000000002 0
    endloop
  endfacet
  facet normal 0 0 -1
    outer loop
      vertex 50 0 0
      vertex 42.25 16.490000000000002 0
      vertex 44 17.490000000000002 0
    endloop
  endfacet
  facet normal 0 0 -1
    outer loop
      vertex 50 0 0
      vertex 44 17.490000000000002 0
      vertex 44 19.5 0
    endloop
  endfacet
  facet normal 1 0 0
    outer loop
      vertex 50 0 0
      vertex 50 40 0
      vertex 50 0 3
    endloop
  endfacet
  facet normal 0 0 -1
    outer loop
      vertex 3 40 0
      vertex 36.11623273029579 17.490000000000002 0
      vertex 50 0 0
    endloop
  endfacet
  facet normal 0 0 1
    outer loop
      vertex 3 0 3
      vertex 37.50941124200263 19.5 3
      vertex 50 40 3
    endloop
  endfacet
  facet normal 0 0 -1
    outer loop
      vertex 3 40 0
      vertex 36.11623273029579 19.5 0
      vertex 36.11623273029579 17.490000000000002 0
    endloop
  endfacet
  facet normal 0 0 1
    outer loop
      vertex 50 40 3
      vertex 12.530891239184697 19.5 3
      vertex 12.530891239184697 17.490000000000002 3
    endloop
  endfacet
  facet normal 0 0 -1
    outer loop
      vertex 3 40 0
      vertex 50 40 0
      vertex 36.11623273029579 19.5 0
    endloop
  endfacet
  facet normal 0 1 0
    outer loop
      vertex 3 40 3
      vertex 50 40 3
      vertex 50 40 0
    endloop
  endfacet
  facet normal 0 0 -1
    outer loop
      vertex 50 40 0
      vertex 44 19.5 0
      vertex 36.11623273029579 19.5 0
    endloop
  endfacet
  facet normal 0 0 1
    outer loop
      vertex 50 40 3
      vertex 37.50941124200263 19.5 3
      vertex 42.5308912391847 19.5 3
    endloop
  endfacet
  facet normal 0 0 -1
    outer loop
      vertex 50 0 0
      vertex 44 19.5 0
      vertex 50 40 0
    endloop
  endfacet
  facet normal 0 0 1
    outer loop
      vertex 50 0 3
      vertex 50 40 3
      vertex 42.5308912391847 17.490000000000002 3
    endloop
  endfacet
  facet normal 0 0 1
    outer loop
      vertex 50 40 3
      vertex 42.5308912391847 19.5 3
      vertex 42.5308912391847 17.490000000000002 3
    endloop
  endfacet
  facet normal 1 0 0
    outer loop
      vertex 50 0 3
      vertex 50 40 0
      vertex 50 40 3
    endloop
  endfacet
  facet normal 0 -1 0
    outer loop
      vertex 0 0 3
      vertex 3 0 3
      vertex 0 0 40
    endloop
  endfacet
  facet normal -1 0 0
    outer loop
      vertex 0 0 3
      vertex 0 0 40
      vertex 0 40 3
    endloop
  endfacet
  facet normal 0 -1 0
    outer loop
      vertex 3 0 3
      vertex 3 0 40
      vertex 0 0 40
    endloop
  endfacet
  facet normal 1 0 0
    outer loop
      vertex 3 0 3
      vertex 3 40 40
      vertex 3 0 40
    endloop
  endfacet
  facet normal 0 0 1
    outer loop
      vertex 0 0 40
      vertex 3 0 40
      vertex 0 40 40
    endloop
  endfacet
  facet normal 1 0 0
    outer loop
      vertex 3 0 3
      vertex 3 40 3
      vertex 3 40 40
    endloop
  endfacet
  facet normal 0 1 0
    outer loop
      vertex 0 40 3
      vertex 0 40 40
      vertex 3 40 3
    endloop
  endfacet
  facet normal -1 0 0
    outer loop
      vertex 0 0 40
      vertex 0 40 40
      vertex 0 40 3
    endloop
  endfacet
  facet normal 0 0 1
    outer loop
      vertex 3 0 40
      vertex 3 40 40
      vertex 0 40 40
    endloop
  endfacet
  facet normal 0 1 0
    outer loop
      vertex 3 40 3
      vertex 0 40 40
      vertex 3 40 40
    endloop
  endfacet
  facet normal -1 0 0
    outer loop
      vertex 3 0 0
      vertex 3 0 3
      vertex 3 40 0
    endloop
  endfacet
  facet normal 0 0 -1
    outer loop
      vertex 0 0 3
      vertex 0 40 3
      vertex 3 0 3
    endloop
  endfacet
  facet normal -1 0 0
    outer loop
      vertex 3 0 3
      vertex 3 40 3
      vertex 3 40 0
    endloop
  endfacet
  facet normal 0 0 -1
    outer loop
      vertex 3 0 3
      vertex 0 40 3
      vertex 3 40 3
    endloop
  endfacet
  facet normal 0 -1 0
    outer loop
      vertex 7.005957007315596 17.490000000000002 -2.652490632963181
      vertex 8.409009742330268 17.490000000000002 -1.5909902576697321
      vertex 7.75 17.490000000000002 0
    endloop
  endfacet
  facet normal 0 -1 0
    outer loop
      vertex 7.005957007315596 17.490000000000002 -2.652490632963181
      vertex 8.581580451829858 17.490000000000002 -3.7400649707416593
      vertex 12.272258986924625 17.490000000000002 -3.2919354635746245
    endloop
  endfacet
  facet normal 0 -1 0
    outer loop
      vertex 7.005957007315596 17.490000000000002 -2.652490632963181
      vertex 10 17.490000000000002 -2.25
      vertex 8.409009742330268 17.490000000000002 -1.5909902576697321
    endloop
  endfacet
  facet normal 0 -1 0
    outer loop
      vertex 7.005957007315596 17.490000000000002 -2.652490632963181
      vertex 7.75 17.490000000000002 0
      vertex 6.116232730295792 17.490000000000002 -0.9572626571502305
    endloop
  endfacet
  facet normal 0 -1 0
    outer loop
      vertex 6.116232730295792 17.490000000000002 -0.9572626571502305
      vertex 7.75 17.490000000000002 0
      vertex 6.116232730295792 17.490000000000002 0
    endloop
  endfacet
  facet normal 0 -1 0
    outer loop
      vertex 8.581580451829858 17.490000000000002 -3.7400649707416593
      vertex 10.48214672102129 17.490000000000002 -3.9708354963922163
      vertex 12.272258986924625 17.490000000000002 -3.2919354635746245
    endloop
  endfacet
  facet normal 0 -1 0
    outer loop
      vertex 7.005957007315596 17.490000000000002 -2.652490632963181
      vertex 13.54182410261284 17.490000000000002 -1.8588926881750734
      vertex 10 17.490000000000002 -2.25
    endloop
  endfacet
  facet normal 0 -1 0
    outer loop
      vertex 7.005957007315596 17.490000000000002 -2.652490632963181
      vertex 12.272258986924625 17.490000000000002 -3.2919354635746245
      vertex 13.54182410261284 17.490000000000002 -1.8588926881750734
    endloop
  endfacet
  facet normal 0 -1 0
    outer loop
      vertex 10 17.490000000000002 -2.25
      vertex 13.54182410261284 17.490000000000002 -1.8588926881750734
      vertex 11.590990257669732 17.490000000000002 -1.5909902576697321
    endloop
  endfacet
  facet normal 0 -1 0
    outer loop
      vertex 8.581580451829858 17.490000000000002 3.7400649707416593
      vertex 7.509411242002631 17.490000000000002 3
      vertex 12.530891239184697 17.490000000000002 3
    endloop
  endfacet
  facet normal 0 -1 0
    outer loop
      vertex 8.581580451829858 17.490000000000002 3.7400649707416593
      vertex 12.272258986924623 17.490000000000002 3.291935463574626
      vertex 10.482146721021293 17.490000000000002 3.970835496392216
    endloop
  endfacet
  facet normal 0 -1 0
    outer loop
      vertex 8.581580451829858 17.490000000000002 3.7400649707416593
      vertex 12.530891239184697 17.490000000000002 3
      vertex 12.272258986924623 17.490000000000002 3.291935463574626
    endloop
  endfacet
  facet normal 0 -1 0
    outer loop
      vertex 11.590990257669732 17.490000000000002 -1.5909902576697321
      vertex 13.54182410261284 17.490000000000002 -1.8588926881750734
      vertex 14 17.490000000000002 0
    endloop
  endfacet
  facet normal 0 -1 0
    outer loop
      vertex 11.590990257669732 17.490000000000002 -1.5909902576697321
      vertex 14 17.490000000000002 0
      vertex 12.25 17.490000000000002 0
    endloop
  endfacet
  facet normal -1 0 0
    outer loop
      vertex 6.116232730295792 17.490000000000002 -0.9572626571502305
      vertex 6.116232730295792 17.490000000000002 0
      vertex 6.116232730295792 19.5 0
    endloop
  endfacet
  facet normal -1 0 0
    outer loop
      vertex 6.116232730295792 17.490000000000002 -0.9572626571502305
      vertex 6.116232730295792 19.5 0
      vertex 6.116232730295792 19.5 -0.9572626571502305
    endloop
  endfacet
  facet normal -0.5680647467311556 0 -0.8229838658936565
    outer loop
      vertex 7.005957007315596 17.490000000000002 -2.652490632963181
      vertex 7.005957007315596 19.5 -2.652490632963181
      vertex 8.581580451829858 19.5 -3.7400649707416593
    endloop
  endfacet
  facet normal -0.8854560256532099 0 -0.4647231720437683
    outer loop
      vertex 7.005957007315596 17.490000000000002 -2.652490632963181
      vertex 6.116232730295792 17.490000000000002 -0.9572626571502305
      vertex 6.116232730295792 19.5 -0.9572626571502305
    endloop
  endfacet
  facet normal -0.8854560256532099 0 -0.4647231720437683
    outer loop
      vertex 7.005957007315596 17.490000000000002 -2.652490632963181
      vertex 6.116232730295792 19.5 -0.9572626571502305
      vertex 7.005957007315596 19.5 -2.652490632963181
    endloop
  endfacet
  facet normal -0.5680647467311556 0 -0.8229838658936565
    outer loop
      vertex 7.005957007315596 17.490000000000002 -2.652490632963181
      vertex 8.581580451829858 19.5 -3.7400649707416593
      vertex 8.581580451829858 17.490000000000002 -3.7400649707416593
    endloop
  endfacet
  facet normal -0.12053668025532331 0 -0.992708874098054
    outer loop
      vertex 8.581580451829858 17.490000000000002 -3.7400649707416593
      vertex 8.581580451829858 19.5 -3.7400649707416593
      vertex 10.48214672102129 19.5 -3.9708354963922163
    endloop
  endfacet
  facet normal 0 1 0
    outer loop
      vertex 7.005957007315596 19.5 -2.652490632963181
      vertex 12.272258986924625 19.5 -3.2919354635746245
      vertex 8.581580451829858 19.5 -3.7400649707416593
    endloop
  endfacet
  facet normal 0 1 0
    outer loop
      vertex 7.005957007315596 19.5 -2.652490632963181
      vertex 6.116232730295792 19.5 -0.9572626571502305
      vertex 13.54182410261284 19.5 -1.8588926881750734
    endloop
  endfacet
  facet normal 0 1 0
    outer loop
      vertex 6.116232730295792 19.5 -0.9572626571502305
      vertex 6.116232730295792 19.5 0
      vertex 14 19.5 0
    endloop
  endfacet
  facet normal -0.12053668025532331 0 -0.992708874098054
    outer loop
      vertex 8.581580451829858 17.490000000000002 -3.7400649707416593
      vertex 10.48214672102129 19.5 -3.9708354963922163
      vertex 10.48214672102129 17.490000000000002 -3.9708354963922163
    endloop
  endfacet
  facet normal 0 1 0
    outer loop
      vertex 8.581580451829858 19.5 -3.7400649707416593
      vertex 12.272258986924625 19.5 -3.2919354635746245
      vertex 10.48214672102129 19.5 -3.9708354963922163
    endloop
  endfacet
  facet normal 0.3546048870425358 0 -0.9350162426854147
    outer loop
      vertex 10.48214672102129 17.490000000000002 -3.9708354963922163
      vertex 12.272258986924625 19.5 -3.2919354635746245
      vertex 12.272258986924625 17.490000000000002 -3.2919354635746245
    endloop
  endfacet
  facet normal 0.3546048870425358 0 -0.9350162426854147
    outer loop
      vertex 10.48214672102129 17.490000000000002 -3.9708354963922163
      vertex 10.48214672102129 19.5 -3.9708354963922163
      vertex 12.272258986924625 19.5 -3.2919354635746245
    endloop
  endfacet
  facet normal 0 1 0
    outer loop
      vertex 7.005957007315596 19.5 -2.652490632963181
      vertex 13.54182410261284 19.5 -1.8588926881750734
      vertex 12.272258986924625 19.5 -3.2919354635746245
    endloop
  endfacet
  facet normal 0 1 0
    outer loop
      vertex 6.116232730295792 19.5 -0.9572626571502305
      vertex 14 19.5 0
      vertex 13.54182410261284 19.5 -1.8588926881750734
    endloop
  endfacet
  facet normal -0.5680647467311556 0 0.8229838658936566
    outer loop
      vertex 8.581580451829858 17.490000000000002 3.7400649707416593
      vertex 8.581580451829858 19.5 3.7400649707416593
      vertex 7.509411242002631 17.490000000000002 3
    endloop
  endfacet
  facet normal -0.5680647467311556 0 0.8229838658936566
    outer loop
      vertex 8.581580451829858 19.5 3.7400649707416593
      vertex 7.509411242002631 19.5 3
      vertex 7.509411242002631 17.490000000000002 3
    endloop
  endfacet
  facet normal -0.12053668025532298 0 0.992708874098054
    outer loop
      vertex 8.581580451829858 17.490000000000002 3.7400649707416593
      vertex 10.482146721021293 17.490000000000002 3.970835496392216
      vertex 8.581580451829858 19.5 3.7400649707416593
    endloop
  endfacet
  facet normal -0.12053668025532298 0 0.992708874098054
    outer loop
      vertex 10.482146721021293 17.490000000000002 3.970835496392216
      vertex 10.482146721021293 19.5 3.970835496392216
      vertex 8.581580451829858 19.5 3.7400649707416593
    endloop
  endfacet
  facet normal 0 1 0
    outer loop
      vertex 8.581580451829858 19.5 3.7400649707416593
      vertex 12.272258986924623 19.5 3.291935463574626
      vertex 7.509411242002631 19.5 3
    endloop
  endfacet
  facet normal 0 1 0
    outer loop
      vertex 12.272258986924623 19.5 3.291935463574626
      vertex 12.530891239184697 19.5 3
      vertex 7.509411242002631 19.5 3
    endloop
  endfacet
  facet normal 0 1 0
    outer loop
      vertex 8.581580451829858 19.5 3.7400649707416593
      vertex 10.482146721021293 19.5 3.970835496392216
      vertex 12.272258986924623 19.5 3.291935463574626
    endloop
  endfacet
  facet normal 0.3546048870425356 0 0.9350162426854148
    outer loop
      vertex 10.482146721021293 17.490000000000002 3.970835496392216
      vertex 12.272258986924623 17.490000000000002 3.291935463574626
      vertex 10.482146721021293 19.5 3.970835496392216
    endloop
  endfacet
  facet normal 0.3546048870425356 0 0.9350162426854148
    outer loop
      vertex 10.482146721021293 19.5 3.970835496392216
      vertex 12.272258986924623 17.490000000000002 3.291935463574626
      vertex 12.272258986924623 19.5 3.291935463574626
    endloop
  endfacet
  facet normal 0.7485107481711 0 0.6631226582407964
    outer loop
      vertex 12.272258986924623 17.490000000000002 3.291935463574626
      vertex 12.530891239184697 17.490000000000002 3
      vertex 12.530891239184697 19.5 3
    endloop
  endfacet
  facet normal 0.7485107481711 0 0.6631226582407964
    outer loop
      vertex 12.272258986924623 17.490000000000002 3.291935463574626
      vertex 12.530891239184697 19.5 3
      vertex 12.272258986924623 19.5 3.291935463574626
    endloop
  endfacet
  facet normal 0.7485107481711015 0 -0.6631226582407947
    outer loop
      vertex 12.272258986924625 17.490000000000002 -3.2919354635746245
      vertex 12.272258986924625 19.5 -3.2919354635746245
      vertex 13.54182410261284 17.490000000000002 -1.8588926881750734
    endloop
  endfacet
  facet normal 0.7485107481711015 0 -0.6631226582407947
    outer loop
      vertex 12.272258986924625 19.5 -3.2919354635746245
      vertex 13.54182410261284 19.5 -1.8588926881750734
      vertex 13.54182410261284 17.490000000000002 -1.8588926881750734
    endloop
  endfacet
  facet normal 0.970941817426052 0 -0.23931566428755804
    outer loop
      vertex 13.54182410261284 17.490000000000002 -1.8588926881750734
      vertex 13.54182410261284 19.5 -1.8588926881750734
      vertex 14 17.490000000000002 0
    endloop
  endfacet
  facet normal 0.970941817426052 0 -0.23931566428755804
    outer loop
      vertex 13.54182410261284 19.5 -1.8588926881750734
      vertex 14 19.5 0
      vertex 14 17.490000000000002 0
    endloop
  endfacet
  facet normal -0.38268343236508956 0 -0.9238795325112867
    outer loop
      vertex 8.409009742330268 16.490000000000002 -1.5909902576697321
      vertex 8.409009742330268 17.490000000000002 -1.5909902576697321
      vertex 10 16.490000000000002 -2.25
    endloop
  endfacet
  facet normal -0.9238795325112868 0 -0.38268343236508956
    outer loop
      vertex 8.409009742330268 16.490000000000002 -1.5909902576697321
      vertex 7.75 17.490000000000002 0
      vertex 8.409009742330268 17.490000000000002 -1.5909902576697321
    endloop
  endfacet
  facet normal -0.9238795325112868 0 -0.38268343236508956
    outer loop
      vertex 8.409009742330268 16.490000000000002 -1.5909902576697321
      vertex 7.75 16.490000000000002 0
      vertex 7.75 17.490000000000002 0
    endloop
  endfacet
  facet normal 0 -1 0
    outer loop
      vertex 8.409009742330268 16.490000000000002 -1.5909902576697321
      vertex 10 16.490000000000002 -2.25
      vertex 11.590990257669732 16.490000000000002 -1.5909902576697321
    endloop
  endfacet
  facet normal -0.38268343236508956 0 -0.9238795325112867
    outer loop
      vertex 10 16.490000000000002 -2.25
      vertex 8.409009742330268 17.490000000000002 -1.5909902576697321
      vertex 10 17.490000000000002 -2.25
    endloop
  endfacet
  facet normal 0.38268343236508956 0 -0.9238795325112867
    outer loop
      vertex 10 16.490000000000002 -2.25
      vertex 10 17.490000000000002 -2.25
      vertex 11.590990257669732 16.490000000000002 -1.5909902576697321
    endloop
  endfacet
  facet normal 0.38268343236508956 0 -0.9238795325112867
    outer loop
      vertex 10 17.490000000000002 -2.25
      vertex 11.590990257669732 17.490000000000002 -1.5909902576697321
      vertex 11.590990257669732 16.490000000000002 -1.5909902576697321
    endloop
  endfacet
  facet normal 0 -1 0
    outer loop
      vertex 8.409009742330268 16.490000000000002 -1.5909902576697321
      vertex 12.25 16.490000000000002 0
      vertex 7.75 16.490000000000002 0
    endloop
  endfacet
  facet normal 0 -1 0
    outer loop
      vertex 8.409009742330268 16.490000000000002 -1.5909902576697321
      vertex 11.590990257669732 16.490000000000002 -1.5909902576697321
      vertex 12.25 16.490000000000002 0
    endloop
  endfacet
  facet normal 0.9238795325112868 0 -0.38268343236508956
    outer loop
      vertex 11.590990257669732 16.490000000000002 -1.5909902576697321
      vertex 11.590990257669732 17.490000000000002 -1.5909902576697321
      vertex 12.25 16.490000000000002 0
    endloop
  endfacet
  facet normal 0.9238795325112868 0 -0.38268343236508956
    outer loop
      vertex 11.590990257669732 17.490000000000002 -1.5909902576697321
      vertex 12.25 17.490000000000002 0
      vertex 12.25 16.490000000000002 0
    endloop
  endfacet
  facet normal 0 -1 0
    outer loop
      vertex 36.11623273029579 17.490000000000002 -0.9572626571502305
      vertex 37.005957007315594 17.490000000000002 -2.652490632963181
      vertex 38.40900974233027 17.490000000000002 -1.5909902576697321
    endloop
  endfacet
  facet normal 0 -1 0
    outer loop
      vertex 36.11623273029579 17.490000000000002 -0.9572626571502305
      vertex 37.75 17.490000000000002 0
      vertex 36.11623273029579 17.490000000000002 0
    endloop
  endfacet
  facet normal 0 -1 0
    outer loop
      vertex 36.11623273029579 17.490000000000002 -0.9572626571502305
      vertex 38.40900974233027 17.490000000000002 -1.5909902576697321
      vertex 37.75 17.490000000000002 0
    endloop
  endfacet
  facet normal 0 -1 0
    outer loop
      vertex 37.005957007315594 17.490000000000002 -2.652490632963181
      vertex 40 17.490000000000002 -2.25
      vertex 38.40900974233027 17.490000000000002 -1.5909902576697321
    endloop
  endfacet
  facet normal 0 -1 0
    outer loop
      vertex 37.005957007315594 17.490000000000002 -2.652490632963181
      vertex 38.58158045182986 17.490000000000002 -3.7400649707416593
      vertex 42.272258986924626 17.490000000000002 -3.2919354635746245
    endloop
  endfacet
  facet normal 0 -1 0
    outer loop
      vertex 38.58158045182986 17.490000000000002 -3.7400649707416593
      vertex 40.482146721021294 17.490000000000002 -3.9708354963922163
      vertex 42.272258986924626 17.490000000000002 -3.2919354635746245
    endloop
  endfacet
  facet normal 0 -1 0
    outer loop
      vertex 37.005957007315594 17.490000000000002 -2.652490632963181
      vertex 43.54182410261284 17.490000000000002 -1.8588926881750734
      vertex 40 17.490000000000002 -2.25
    endloop
  endfacet
  facet normal 0 -1 0
    outer loop
      vertex 37.005957007315594 17.490000000000002 -2.652490632963181
      vertex 42.272258986924626 17.490000000000002 -3.2919354635746245
      vertex 43.54182410261284 17.490000000000002 -1.8588926881750734
    endloop
  endfacet
  facet normal 0 -1 0
    outer loop
      vertex 40 17.490000000000002 -2.25
      vertex 43.54182410261284 17.490000000000002 -1.8588926881750734
      vertex 41.59099025766973 17.490000000000002 -1.5909902576697321
    endloop
  endfacet
  facet normal 0 -1 0
    outer loop
      vertex 41.59099025766973 17.490000000000002 -1.5909902576697321
      vertex 43.54182410261284 17.490000000000002 -1.8588926881750734
      vertex 42.25 17.490000000000002 0
    endloop
  endfacet
  facet normal 0 -1 0
    outer loop
      vertex 43.54182410261284 17.490000000000002 -1.8588926881750734
      vertex 44 17.490000000000002 0
      vertex 42.25 17.490000000000002 0
    endloop
  endfacet
  facet normal 0 -1 0
    outer loop
      vertex 38.58158045182986 17.490000000000002 3.7400649707416593
      vertex 37.50941124200263 17.490000000000002 3
      vertex 42.5308912391847 17.490000000000002 3
    endloop
  endfacet
  facet normal 0 -1 0
    outer loop
      vertex 38.58158045182986 17.490000000000002 3.7400649707416593
      vertex 42.272258986924626 17.490000000000002 3.291935463574626
      vertex 40.482146721021294 17.490000000000002 3.970835496392216
    endloop
  endfacet
  facet normal 0 -1 0
    outer loop
      vertex 38.58158045182986 17.490000000000002 3.7400649707416593
      vertex 42.5308912391847 17.490000000000002 3
      vertex 42.272258986924626 17.490000000000002 3.291935463574626
    endloop
  endfacet
  facet normal -0.8854560256532104 0 -0.4647231720437676
    outer loop
      vertex 36.11623273029579 17.490000000000002 -0.9572626571502305
      vertex 36.11623273029579 19.5 -0.9572626571502305
      vertex 37.005957007315594 17.490000000000002 -2.652490632963181
    endloop
  endfacet
  facet normal -0.8854560256532104 0 -0.4647231720437676
    outer loop
      vertex 36.11623273029579 19.5 -0.9572626571502305
      vertex 37.005957007315594 19.5 -2.652490632963181
      vertex 37.005957007315594 17.490000000000002 -2.652490632963181
    endloop
  endfacet
  facet normal -1 0 0
    outer loop
      vertex 36.11623273029579 17.490000000000002 -0.9572626571502305
      vertex 36.11623273029579 17.490000000000002 0
      vertex 36.11623273029579 19.5 0
    endloop
  endfacet
  facet normal -1 0 0
    outer loop
      vertex 36.11623273029579 17.490000000000002 -0.9572626571502305
      vertex 36.11623273029579 19.5 0
      vertex 36.11623273029579 19.5 -0.9572626571502305
    endloop
  endfacet
  facet normal -0.5680647467311551 0 -0.8229838658936568
    outer loop
      vertex 37.005957007315594 17.490000000000002 -2.652490632963181
      vertex 38.58158045182986 19.5 -3.7400649707416593
      vertex 38.58158045182986 17.490000000000002 -3.7400649707416593
    endloop
  endfacet
  facet normal -0.5680647467311551 0 -0.8229838658936568
    outer loop
      vertex 37.005957007315594 17.490000000000002 -2.652490632963181
      vertex 37.005957007315594 19.5 -2.652490632963181
      vertex 38.58158045182986 19.5 -3.7400649707416593
    endloop
  endfacet
  facet normal 0 1 0
    outer loop
      vertex 36.11623273029579 19.5 -0.9572626571502305
      vertex 43.54182410261284 19.5 -1.8588926881750734
      vertex 37.005957007315594 19.5 -2.652490632963181
    endloop
  endfacet
  facet normal -0.12053668025532309 0 -0.992708874098054
    outer loop
      vertex 38.58158045182986 17.490000000000002 -3.7400649707416593
      vertex 38.58158045182986 19.5 -3.7400649707416593
      vertex 40.482146721021294 19.5 -3.9708354963922163
    endloop
  endfacet
  facet normal -0.12053668025532309 0 -0.992708874098054
    outer loop
      vertex 38.58158045182986 17.490000000000002 -3.7400649707416593
      vertex 40.482146721021294 19.5 -3.9708354963922163
      vertex 40.482146721021294 17.490000000000002 -3.9708354963922163
    endloop
  endfacet
  facet normal 0 1 0
    outer loop
      vertex 37.005957007315594 19.5 -2.652490632963181
      vertex 42.272258986924626 19.5 -3.2919354635746245
      vertex 38.58158045182986 19.5 -3.7400649707416593
    endloop
  endfacet
  facet normal 0 1 0
    outer loop
      vertex 38.58158045182986 19.5 -3.7400649707416593
      vertex 42.272258986924626 19.5 -3.2919354635746245
      vertex 40.482146721021294 19.5 -3.9708354963922163
    endloop
  endfacet
  facet normal 0 1 0
    outer loop
      vertex 36.11623273029579 19.5 -0.9572626571502305
      vertex 36.11623273029579 19.5 0
      vertex 44 19.5 0
    endloop
  endfacet
  facet normal 0.35460488704253607 0 -0.9350162426854146
    outer loop
      vertex 40.482146721021294 17.490000000000002 -3.9708354963922163
      vertex 40.482146721021294 19.5 -3.9708354963922163
      vertex 42.272258986924626 19.5 -3.2919354635746245
    endloop
  endfacet
  facet normal 0.35460488704253607 0 -0.9350162426854146
    outer loop
      vertex 40.482146721021294 17.490000000000002 -3.9708354963922163
      vertex 42.272258986924626 19.5 -3.2919354635746245
      vertex 42.272258986924626 17.490000000000002 -3.2919354635746245
    endloop
  endfacet
  facet normal 0 1 0
    outer loop
      vertex 37.005957007315594 19.5 -2.652490632963181
      vertex 43.54182410261284 19.5 -1.8588926881750734
      vertex 42.272258986924626 19.5 -3.2919354635746245
    endloop
  endfacet
  facet normal 0.7485107481711011 0 -0.6631226582407952
    outer loop
      vertex 42.272258986924626 17.490000000000002 -3.2919354635746245
      vertex 42.272258986924626 19.5 -3.2919354635746245
      vertex 43.54182410261284 17.490000000000002 -1.8588926881750734
    endloop
  endfacet
  facet normal 0.9709418174260525 0 -0.23931566428755632
    outer loop
      vertex 43.54182410261284 17.490000000000002 -1.8588926881750734
      vertex 43.54182410261284 19.5 -1.8588926881750734
      vertex 44 17.490000000000002 0
    endloop
  endfacet
  facet normal 0.7485107481711011 0 -0.6631226582407952
    outer loop
      vertex 43.54182410261284 17.490000000000002 -1.8588926881750734
      vertex 42.272258986924626 19.5 -3.2919354635746245
      vertex 43.54182410261284 19.5 -1.8588926881750734
    endloop
  endfacet
  facet normal 0 1 0
    outer loop
      vertex 36.11623273029579 19.5 -0.9572626571502305
      vertex 44 19.5 0
      vertex 43.54182410261284 19.5 -1.8588926881750734
    endloop
  endfacet
  facet normal -0.5680647467311544 0 0.8229838658936575
    outer loop
      vertex 38.58158045182986 17.490000000000002 3.7400649707416593
      vertex 38.58158045182986 19.5 3.7400649707416593
      vertex 37.50941124200263 17.490000000000002 3
    endloop
  endfacet
  facet normal -0.5680647467311544 0 0.8229838658936575
    outer loop
      vertex 38.58158045182986 19.5 3.7400649707416593
      vertex 37.50941124200263 19.5 3
      vertex 37.50941124200263 17.490000000000002 3
    endloop
  endfacet
  facet normal -0.12053668025532287 0 0.992708874098054
    outer loop
      vertex 38.58158045182986 17.490000000000002 3.7400649707416593
      vertex 40.482146721021294 17.490000000000002 3.970835496392216
      vertex 38.58158045182986 19.5 3.7400649707416593
    endloop
  endfacet
  facet normal -0.12053668025532287 0 0.992708874098054
    outer loop
      vertex 38.58158045182986 19.5 3.7400649707416593
      vertex 40.482146721021294 17.490000000000002 3.970835496392216
      vertex 40.482146721021294 19.5 3.970835496392216
    endloop
  endfacet
  facet normal 0 1 0
    outer loop
      vertex 38.58158045182986 19.5 3.7400649707416593
      vertex 42.272258986924626 19.5 3.291935463574626
      vertex 37.50941124200263 19.5 3
    endloop
  endfacet
  facet normal 0 1 0
    outer loop
      vertex 38.58158045182986 19.5 3.7400649707416593
      vertex 40.482146721021294 19.5 3.970835496392216
      vertex 42.272258986924626 19.5 3.291935463574626
    endloop
  endfacet
  facet normal 0.3546048870425353 0 0.9350162426854149
    outer loop
      vertex 40.482146721021294 17.490000000000002 3.970835496392216
      vertex 42.272258986924626 17.490000000000002 3.291935463574626
      vertex 40.482146721021294 19.5 3.970835496392216
    endloop
  endfacet
  facet normal 0.3546048870425353 0 0.9350162426854149
    outer loop
      vertex 40.482146721021294 19.5 3.970835496392216
      vertex 42.272258986924626 17.490000000000002 3.291935463574626
      vertex 42.272258986924626 19.5 3.291935463574626
    endloop
  endfacet
  facet normal 0 1 0
    outer loop
      vertex 42.272258986924626 19.5 3.291935463574626
      vertex 42.5308912391847 19.5 3
      vertex 37.50941124200263 19.5 3
    endloop
  endfacet
  facet normal 0.7485107481711045 0 0.6631226582407913
    outer loop
      vertex 42.272258986924626 17.490000000000002 3.291935463574626
      vertex 42.5308912391847 17.490000000000002 3
      vertex 42.5308912391847 19.5 3
    endloop
  endfacet
  facet normal 0.7485107481711045 0 0.6631226582407913
    outer loop
      vertex 42.272258986924626 17.490000000000002 3.291935463574626
      vertex 42.5308912391847 19.5 3
      vertex 42.272258986924626 19.5 3.291935463574626
    endloop
  endfacet
  facet normal 0.9709418174260525 0 -0.23931566428755632
    outer loop
      vertex 43.54182410261284 19.5 -1.8588926881750734
      vertex 44 19.5 0
      vertex 44 17.490000000000002 0
    endloop
  endfacet
  facet normal -0.38268343236508995 0 -0.9238795325112867
    outer loop
      vertex 38.40900974233027 16.490000000000002 -1.5909902576697321
      vertex 38.40900974233027 17.490000000000002 -1.5909902576697321
      vertex 40 17.490000000000002 -2.25
    endloop
  endfacet
  facet normal 0 -1 0
    outer loop
      vertex 38.40900974233027 16.490000000000002 -1.5909902576697321
      vertex 40 16.490000000000002 -2.25
      vertex 41.59099025766973 16.490000000000002 -1.5909902576697321
    endloop
  endfacet
  facet normal -0.38268343236508995 0 -0.9238795325112867
    outer loop
      vertex 38.40900974233027 16.490000000000002 -1.5909902576697321
      vertex 40 17.490000000000002 -2.25
      vertex 40 16.490000000000002 -2.25
    endloop
  endfacet
  facet normal 0.38268343236508995 0 -0.9238795325112867
    outer loop
      vertex 40 16.490000000000002 -2.25
      vertex 40 17.490000000000002 -2.25
      vertex 41.59099025766973 17.490000000000002 -1.5909902576697321
    endloop
  endfacet
  facet normal -0.9238795325112865 0 -0.38268343236509045
    outer loop
      vertex 38.40900974233027 16.490000000000002 -1.5909902576697321
      vertex 37.75 16.490000000000002 0
      vertex 38.40900974233027 17.490000000000002 -1.5909902576697321
    endloop
  endfacet
  facet normal -0.9238795325112865 0 -0.38268343236509045
    outer loop
      vertex 38.40900974233027 17.490000000000002 -1.5909902576697321
      vertex 37.75 16.490000000000002 0
      vertex 37.75 17.490000000000002 0
    endloop
  endfacet
  facet normal 0 -1 0
    outer loop
      vertex 38.40900974233027 16.490000000000002 -1.5909902576697321
      vertex 42.25 16.490000000000002 0
      vertex 37.75 16.490000000000002 0
    endloop
  endfacet
  facet normal 0.38268343236508995 0 -0.9238795325112867
    outer loop
      vertex 40 16.490000000000002 -2.25
      vertex 41.59099025766973 17.490000000000002 -1.5909902576697321
      vertex 41.59099025766973 16.490000000000002 -1.5909902576697321
    endloop
  endfacet
  facet normal 0 -1 0
    outer loop
      vertex 38.40900974233027 16.490000000000002 -1.5909902576697321
      vertex 41.59099025766973 16.490000000000002 -1.5909902576697321
      vertex 42.25 16.490000000000002 0
    endloop
  endfacet
  facet normal 0.9238795325112865 0 -0.38268343236509045
    outer loop
      vertex 41.59099025766973 16.490000000000002 -1.5909902576697321
      vertex 41.59099025766973 17.490000000000002 -1.5909902576697321
      vertex 42.25 17.490000000000002 0
    endloop
  endfacet
  facet normal 0.9238795325112865 0 -0.38268343236509045
    outer loop
      vertex 41.59099025766973 16.490000000000002 -1.5909902576697321
      vertex 42.25 17.490000000000002 0
      vertex 42.25 16.490000000000002 0
    endloop
  endfacet
  facet normal 0 -0.6631226582407943 -0.748510748171102
    outer loop
      vertex 10 -1.8688926881750734 16.45817589738716
      vertex 12.01 -1.8688926881750734 16.45817589738716
      vertex 10 -3.3019354635746243 17.727741013075374
    endloop
  endfacet
  facet normal 0 -0.6631226582407943 -0.748510748171102
    outer loop
      vertex 12.01 -1.8688926881750734 16.45817589738716
      vertex 12.01 -3.3019354635746243 17.727741013075374
      vertex 10 -3.3019354635746243 17.727741013075374
    endloop
  endfacet
  facet normal 0 -0.23931566428755807 -0.970941817426052
    outer loop
      vertex 10 -1.8688926881750734 16.45817589738716
      vertex 12.01 -0.01 16
      vertex 12.01 -1.8688926881750734 16.45817589738716
    endloop
  endfacet
  facet normal 0 -0.23931566428755807 -0.970941817426052
    outer loop
      vertex 10 -1.8688926881750734 16.45817589738716
      vertex 10 -0.01 16
      vertex 12.01 -0.01 16
    endloop
  endfacet
  facet normal 0 0.23931566428755796 -0.970941817426052
    outer loop
      vertex 10 -0.01 16
      vertex 10 1.8488926881750742 16.45817589738716
      vertex 12.01 1.8488926881750742 16.45817589738716
    endloop
  endfacet
  facet normal 1 0 0
    outer loop
      vertex 12.01 -1.8688926881750734 16.45817589738716
      vertex 12.01 -0.01 16
      vertex 12.01 -1.6009902576697321 18.40900974233027
    endloop
  endfacet
  facet normal 1 0 0
    outer loop
      vertex 12.01 -0.01 16
      vertex 12.01 -0.01 17.75
      vertex 12.01 -1.6009902576697321 18.40900974233027
    endloop
  endfacet
  facet normal 0 0.23931566428755796 -0.970941817426052
    outer loop
      vertex 10 -0.01 16
      vertex 12.01 1.8488926881750742 16.45817589738716
      vertex 12.01 -0.01 16
    endloop
  endfacet
  facet normal 1 0 0
    outer loop
      vertex 12.01 -0.01 16
      vertex 12.01 1.8488926881750742 16.45817589738716
      vertex 12.01 -0.01 17.75
    endloop
  endfacet
  facet normal 1 0 0
    outer loop
      vertex 12.01 1.8488926881750742 16.45817589738716
      vertex 12.01 1.5809902576697321 18.40900974233027
      vertex 12.01 -0.01 17.75
    endloop
  endfacet
  facet normal 0 0.6631226582407952 -0.7485107481711012
    outer loop
      vertex 10 1.8488926881750742 16.45817589738716
      vertex 10 3.281935463574626 17.727741013075377
      vertex 12.01 3.281935463574626 17.727741013075377
    endloop
  endfacet
  facet normal 0 0.6631226582407952 -0.7485107481711012
    outer loop
      vertex 10 1.8488926881750742 16.45817589738716
      vertex 12.01 3.281935463574626 17.727741013075377
      vertex 12.01 1.8488926881750742 16.45817589738716
    endloop
  endfacet
  facet normal -1 0 0
    outer loop
      vertex 10 -1.8688926881750734 16.45817589738716
      vertex 10 -3.3019354635746243 17.727741013075374
      vertex 10 -2.662490632963181 22.994042992684403
    endloop
  endfacet
  facet normal 0 -0.9350162426854148 -0.3546048870425355
    outer loop
      vertex 10 -3.3019354635746243 17.727741013075374
      vertex 12.01 -3.980835496392216 19.51785327897871
      vertex 10 -3.980835496392216 19.51785327897871
    endloop
  endfacet
  facet normal -1 0 0
    outer loop
      vertex 10 -3.3019354635746243 17.727741013075374
      vertex 10 -3.980835496392216 19.51785327897871
      vertex 10 -3.750064970741659 21.418419548170142
    endloop
  endfacet
  facet normal -1 0 0
    outer loop
      vertex 10 -3.3019354635746243 17.727741013075374
      vertex 10 -3.750064970741659 21.418419548170142
      vertex 10 -2.662490632963181 22.994042992684403
    endloop
  endfacet
  facet normal 0 -0.9350162426854148 -0.3546048870425355
    outer loop
      vertex 10 -3.3019354635746243 17.727741013075374
      vertex 12.01 -3.3019354635746243 17.727741013075374
      vertex 12.01 -3.980835496392216 19.51785327897871
    endloop
  endfacet
  facet normal 1 0 0
    outer loop
      vertex 12.01 -1.8688926881750734 16.45817589738716
      vertex 12.01 -2.662490632963181 22.994042992684403
      vertex 12.01 -3.3019354635746243 17.727741013075374
    endloop
  endfacet
  facet normal 0 -0.992708874098054 0.12053668025532334
    outer loop
      vertex 10 -3.980835496392216 19.51785327897871
      vertex 12.01 -3.980835496392216 19.51785327897871
      vertex 12.01 -3.750064970741659 21.418419548170142
    endloop
  endfacet
  facet normal 1 0 0
    outer loop
      vertex 12.01 -3.3019354635746243 17.727741013075374
      vertex 12.01 -3.750064970741659 21.418419548170142
      vertex 12.01 -3.980835496392216 19.51785327897871
    endloop
  endfacet
  facet normal 1 0 0
    outer loop
      vertex 12.01 -3.3019354635746243 17.727741013075374
      vertex 12.01 -2.662490632963181 22.994042992684403
      vertex 12.01 -3.750064970741659 21.418419548170142
    endloop
  endfacet
  facet normal 1 0 0
    outer loop
      vertex 12.01 -1.8688926881750734 16.45817589738716
      vertex 12.01 -1.6009902576697321 18.40900974233027
      vertex 12.01 -2.26 20
    endloop
  endfacet
  facet normal 1 0 0
    outer loop
      vertex 12.01 -1.8688926881750734 16.45817589738716
      vertex 12.01 -2.26 20
      vertex 12.01 -2.662490632963181 22.994042992684403
    endloop
  endfacet
  facet normal 0 -0.992708874098054 0.12053668025532334
    outer loop
      vertex 10 -3.980835496392216 19.51785327897871
      vertex 12.01 -3.750064970741659 21.418419548170142
      vertex 10 -3.750064970741659 21.418419548170142
    endloop
  endfacet
  facet normal 0 -0.8229838658936561 0.568064746731156
    outer loop
      vertex 10 -3.750064970741659 21.418419548170142
      vertex 12.01 -2.662490632963181 22.994042992684403
      vertex 10 -2.662490632963181 22.994042992684403
    endloop
  endfacet
  facet normal -1 0 0
    outer loop
      vertex 10 -1.8688926881750734 16.45817589738716
      vertex 10 -2.662490632963181 22.994042992684403
      vertex 10 -0.9672626571502305 23.883767269704208
    endloop
  endfacet
  facet normal 0 -0.4647231720437692 0.8854560256532096
    outer loop
      vertex 10 -2.662490632963181 22.994042992684403
      vertex 12.01 -2.662490632963181 22.994042992684403
      vertex 10 -0.9672626571502305 23.883767269704208
    endloop
  endfacet
  facet normal 0 -0.8229838658936561 0.568064746731156
    outer loop
      vertex 10 -3.750064970741659 21.418419548170142
      vertex 12.01 -3.750064970741659 21.418419548170142
      vertex 12.01 -2.662490632963181 22.994042992684403
    endloop
  endfacet
  facet normal 1 0 0
    outer loop
      vertex 12.01 -2.26 20
      vertex 12.01 -1.6009902576697321 21.59099025766973
      vertex 12.01 -2.662490632963181 22.994042992684403
    endloop
  endfacet
  facet normal 1 0 0
    outer loop
      vertex 12.01 -2.662490632963181 22.994042992684403
      vertex 12.01 -1.6009902576697321 21.59099025766973
      vertex 12.01 -0.01 22.25
    endloop
  endfacet
  facet normal -1 0 0
    outer loop
      vertex 10 -1.8688926881750734 16.45817589738716
      vertex 10 -0.9672626571502305 23.883767269704208
      vertex 10 -0.01 16
    endloop
  endfacet
  facet normal -1 0 0
    outer loop
      vertex 10 -0.01 16
      vertex 10 0.9472626571502305 23.883767269704208
      vertex 10 1.8488926881750742 16.45817589738716
    endloop
  endfacet
  facet normal -1 0 0
    outer loop
      vertex 10 -0.01 16
      vertex 10 -0.9672626571502305 23.883767269704208
      vertex 10 0.9472626571502305 23.883767269704208
    endloop
  endfacet
  facet normal 1 0 0
    outer loop
      vertex 12.01 -2.662490632963181 22.994042992684403
      vertex 12.01 -0.01 22.25
      vertex 12.01 -0.9672626571502305 23.883767269704208
    endloop
  endfacet
  facet normal 1 0 0
    outer loop
      vertex 12.01 -0.9672626571502305 23.883767269704208
      vertex 12.01 -0.01 22.25
      vertex 12.01 0.9472626571502305 23.883767269704208
    endloop
  endfacet
  facet normal 1 0 0
    outer loop
      vertex 12.01 -0.01 22.25
      vertex 12.01 1.5809902576697321 21.59099025766973
      vertex 12.01 0.9472626571502305 23.883767269704208
    endloop
  endfacet
  facet normal 0 -0.4647231720437692 0.8854560256532096
    outer loop
      vertex 10 -0.9672626571502305 23.883767269704208
      vertex 12.01 -2.662490632963181 22.994042992684403
      vertex 12.01 -0.9672626571502305 23.883767269704208
    endloop
  endfacet
  facet normal 0 0 1
    outer loop
      vertex 10 -0.9672626571502305 23.883767269704208
      vertex 12.01 -0.9672626571502305 23.883767269704208
      vertex 10 0.9472626571502305 23.883767269704208
    endloop
  endfacet
  facet normal 0 0.46472317204376906 0.8854560256532096
    outer loop
      vertex 10 0.9472626571502305 23.883767269704208
      vertex 12.01 0.9472626571502305 23.883767269704208
      vertex 10 2.6424906329631814 22.994042992684403
    endloop
  endfacet
  facet normal 0 0 1
    outer loop
      vertex 10 0.9472626571502305 23.883767269704208
      vertex 12.01 -0.9672626571502305 23.883767269704208
      vertex 12.01 0.9472626571502305 23.883767269704208
    endloop
  endfacet
  facet normal -1 0 0
    outer loop
      vertex 10 1.8488926881750742 16.45817589738716
      vertex 10 2.6424906329631814 22.994042992684403
      vertex 10 3.281935463574626 17.727741013075377
    endloop
  endfacet
  facet normal 0 0.9350162426854149 -0.35460488704253534
    outer loop
      vertex 10 3.281935463574626 17.727741013075377
      vertex 10 3.960835496392216 19.51785327897871
      vertex 12.01 3.281935463574626 17.727741013075377
    endloop
  endfacet
  facet normal -1 0 0
    outer loop
      vertex 10 3.281935463574626 17.727741013075377
      vertex 10 2.6424906329631814 22.994042992684403
      vertex 10 3.7300649707416595 21.418419548170142
    endloop
  endfacet
  facet normal -1 0 0
    outer loop
      vertex 10 3.281935463574626 17.727741013075377
      vertex 10 3.7300649707416595 21.418419548170142
      vertex 10 3.960835496392216 19.51785327897871
    endloop
  endfacet
  facet normal 0 0.992708874098054 0.1205366802553231
    outer loop
      vertex 10 3.960835496392216 19.51785327897871
      vertex 10 3.7300649707416595 21.418419548170142
      vertex 12.01 3.960835496392216 19.51785327897871
    endloop
  endfacet
  facet normal 1 0 0
    outer loop
      vertex 12.01 1.8488926881750742 16.45817589738716
      vertex 12.01 2.24 20
      vertex 12.01 1.5809902576697321 18.40900974233027
    endloop
  endfacet
  facet normal 1 0 0
    outer loop
      vertex 12.01 1.8488926881750742 16.45817589738716
      vertex 12.01 3.281935463574626 17.727741013075377
      vertex 12.01 2.6424906329631814 22.994042992684403
    endloop
  endfacet
  facet normal 1 0 0
    outer loop
      vertex 12.01 1.8488926881750742 16.45817589738716
      vertex 12.01 2.6424906329631814 22.994042992684403
      vertex 12.01 2.24 20
    endloop
  endfacet
  facet normal 0 0.9350162426854149 -0.35460488704253534
    outer loop
      vertex 10 3.960835496392216 19.51785327897871
      vertex 12.01 3.960835496392216 19.51785327897871
      vertex 12.01 3.281935463574626 17.727741013075377
    endloop
  endfacet
  facet normal 1 0 0
    outer loop
      vertex 12.01 3.281935463574626 17.727741013075377
      vertex 12.01 3.7300649707416595 21.418419548170142
      vertex 12.01 2.6424906329631814 22.994042992684403
    endloop
  endfacet
  facet normal 1 0 0
    outer loop
      vertex 12.01 3.281935463574626 17.727741013075377
      vertex 12.01 3.960835496392216 19.51785327897871
      vertex 12.01 3.7300649707416595 21.418419548170142
    endloop
  endfacet
  facet normal -1 0 0
    outer loop
      vertex 10 1.8488926881750742 16.45817589738716
      vertex 10 0.9472626571502305 23.883767269704208
      vertex 10 2.6424906329631814 22.994042992684403
    endloop
  endfacet
  facet normal 0 0.8229838658936561 0.568064746731156
    outer loop
      vertex 10 2.6424906329631814 22.994042992684403
      vertex 12.01 3.7300649707416595 21.418419548170142
      vertex 10 3.7300649707416595 21.418419548170142
    endloop
  endfacet
  facet normal 1 0 0
    outer loop
      vertex 12.01 1.5809902576697321 21.59099025766973
      vertex 12.01 2.24 20
      vertex 12.01 2.6424906329631814 22.994042992684403
    endloop
  endfacet
  facet normal 0 0.46472317204376906 0.8854560256532096
    outer loop
      vertex 12.01 0.9472626571502305 23.883767269704208
      vertex 12.01 2.6424906329631814 22.994042992684403
      vertex 10 2.6424906329631814 22.994042992684403
    endloop
  endfacet
  facet normal 1 0 0
    outer loop
      vertex 12.01 1.5809902576697321 21.59099025766973
      vertex 12.01 2.6424906329631814 22.994042992684403
      vertex 12.01 0.9472626571502305 23.883767269704208
    endloop
  endfacet
  facet normal 0 0.992708874098054 0.1205366802553231
    outer loop
      vertex 10 3.7300649707416595 21.418419548170142
      vertex 12.01 3.7300649707416595 21.418419548170142
      vertex 12.01 3.960835496392216 19.51785327897871
    endloop
  endfacet
  facet normal 0 0.8229838658936561 0.568064746731156
    outer loop
      vertex 10 2.6424906329631814 22.994042992684403
      vertex 12.01 2.6424906329631814 22.994042992684403
      vertex 12.01 3.7300649707416595 21.418419548170142
    endloop
  endfacet
  facet normal 0 -0.38268343236509045 -0.9238795325112865
    outer loop
      vertex 12.01 -1.6009902576697321 18.40900974233027
      vertex 12.01 -0.01 17.75
      vertex 13.01 -0.01 17.75
    endloop
  endfacet
  facet normal 0 0.38268343236509045 -0.9238795325112865
    outer loop
      vertex 12.01 -0.01 17.75
      vertex 13.01 1.5809902576697321 18.40900974233027
      vertex 13.01 -0.01 17.75
    endloop
  endfacet
  facet normal 0 -0.9238795325112867 -0.38268343236508984
    outer loop
      vertex 12.01 -1.6009902576697321 18.40900974233027
      vertex 13.01 -1.6009902576697321 18.40900974233027
      vertex 12.01 -2.26 20
    endloop
  endfacet
  facet normal 0 -0.9238795325112867 0.38268343236508984
    outer loop
      vertex 12.01 -2.26 20
      vertex 13.01 -2.26 20
      vertex 12.01 -1.6009902576697321 21.59099025766973
    endloop
  endfacet
  facet normal 0 0.38268343236509045 -0.9238795325112865
    outer loop
      vertex 12.01 -0.01 17.75
      vertex 12.01 1.5809902576697321 18.40900974233027
      vertex 13.01 1.5809902576697321 18.40900974233027
    endloop
  endfacet
  facet normal 0 -0.38268343236509045 0.9238795325112865
    outer loop
      vertex 12.01 -1.6009902576697321 21.59099025766973
      vertex 13.01 -1.6009902576697321 21.59099025766973
      vertex 12.01 -0.01 22.25
    endloop
  endfacet
  facet normal 0 0.38268343236509045 0.9238795325112865
    outer loop
      vertex 12.01 -0.01 22.25
      vertex 13.01 -0.01 22.25
      vertex 12.01 1.5809902576697321 21.59099025766973
    endloop
  endfacet
  facet normal 0 0.9238795325112867 -0.3826834323650901
    outer loop
      vertex 12.01 1.5809902576697321 18.40900974233027
      vertex 12.01 2.24 20
      vertex 13.01 2.24 20
    endloop
  endfacet
  facet normal 0 0.9238795325112867 0.3826834323650901
    outer loop
      vertex 12.01 1.5809902576697321 21.59099025766973
      vertex 13.01 1.5809902576697321 21.59099025766973
      vertex 12.01 2.24 20
    endloop
  endfacet
  facet normal 0 -0.9238795325112867 -0.38268343236508984
    outer loop
      vertex 13.01 -1.6009902576697321 18.40900974233027
      vertex 13.01 -2.26 20
      vertex 12.01 -2.26 20
    endloop
  endfacet
  facet normal 1 0 0
    outer loop
      vertex 13.01 -1.6009902576697321 18.40900974233027
      vertex 13.01 -1.6009902576697321 21.59099025766973
      vertex 13.01 -2.26 20
    endloop
  endfacet
  facet normal 0 -0.9238795325112867 0.38268343236508984
    outer loop
      vertex 13.01 -2.26 20
      vertex 13.01 -1.6009902576697321 21.59099025766973
      vertex 12.01 -1.6009902576697321 21.59099025766973
    endloop
  endfacet
  facet normal 0 -0.38268343236509045 -0.9238795325112865
    outer loop
      vertex 12.01 -1.6009902576697321 18.40900974233027
      vertex 13.01 -0.01 17.75
      vertex 13.01 -1.6009902576697321 18.40900974233027
    endloop
  endfacet
  facet normal 1 0 0
    outer loop
      vertex 13.01 -1.6009902576697321 18.40900974233027
      vertex 13.01 -0.01 17.75
      vertex 13.01 -1.6009902576697321 21.59099025766973
    endloop
  endfacet
  facet normal 1 0 0
    outer loop
      vertex 13.01 -1.6009902576697321 21.59099025766973
      vertex 13.01 -0.01 17.75
      vertex 13.01 -0.01 22.25
    endloop
  endfacet
  facet normal 1 0 0
    outer loop
      vertex 13.01 -0.01 17.75
      vertex 13.01 1.5809902576697321 18.40900974233027
      vertex 13.01 -0.01 22.25
    endloop
  endfacet
  facet normal 1 0 0
    outer loop
      vertex 13.01 1.5809902576697321 18.40900974233027
      vertex 13.01 1.5809902576697321 21.59099025766973
      vertex 13.01 -0.01 22.25
    endloop
  endfacet
  facet normal 0 -0.38268343236509045 0.9238795325112865
    outer loop
      vertex 13.01 -1.6009902576697321 21.59099025766973
      vertex 13.01 -0.01 22.25
      vertex 12.01 -0.01 22.25
    endloop
  endfacet
  facet normal 0 0.38268343236509045 0.9238795325112865
    outer loop
      vertex 13.01 -0.01 22.25
      vertex 13.01 1.5809902576697321 21.59099025766973
      vertex 12.01 1.5809902576697321 21.59099025766973
    endloop
  endfacet
  facet normal 0 0.9238795325112867 -0.3826834323650901
    outer loop
      vertex 12.01 1.5809902576697321 18.40900974233027
      vertex 13.01 2.24 20
      vertex 13.01 1.5809902576697321 18.40900974233027
    endloop
  endfacet
  facet normal 1 0 0
    outer loop
      vertex 13.01 1.5809902576697321 18.40900974233027
      vertex 13.01 2.24 20
      vertex 13.01 1.5809902576697321 21.59099025766973
    endloop
  endfacet
  facet normal 0 0.9238795325112867 0.3826834323650901
    outer loop
      vertex 13.01 1.5809902576697321 21.59099025766973
      vertex 13.01 2.24 20
      vertex 12.01 2.24 20
    endloop
  endfacet
  facet normal 0 -0.6631226582407942 -0.748510748171102
    outer loop
      vertex 42.01 -1.8688926881750734 16.45817589738716
      vertex 42.01 -3.3019354635746243 17.727741013075374
      vertex 40 -3.3019354635746243 17.727741013075374
    endloop
  endfacet
  facet normal 0 -0.23931566428755804 -0.970941817426052
    outer loop
      vertex 40 -1.8688926881750734 16.45817589738716
      vertex 42.01 -0.01 16
      vertex 42.01 -1.8688926881750734 16.45817589738716
    endloop
  endfacet
  facet normal 0 -0.6631226582407942 -0.748510748171102
    outer loop
      vertex 40 -1.8688926881750734 16.45817589738716
      vertex 42.01 -1.8688926881750734 16.45817589738716
      vertex 40 -3.3019354635746243 17.727741013075374
    endloop
  endfacet
  facet normal 0 -0.23931566428755804 -0.970941817426052
    outer loop
      vertex 40 -1.8688926881750734 16.45817589738716
      vertex 40 -0.01 16
      vertex 42.01 -0.01 16
    endloop
  endfacet
  facet normal 1 0 0
    outer loop
      vertex 42.01 -1.8688926881750734 16.45817589738716
      vertex 42.01 -0.01 16
      vertex 42.01 -0.01 17.75
    endloop
  endfacet
  facet normal 1 0 0
    outer loop
      vertex 42.01 -1.8688926881750734 16.45817589738716
      vertex 42.01 -0.01 17.75
      vertex 42.01 -1.6009902576697321 18.40900974233027
    endloop
  endfacet
  facet normal 0 0.2393156642875579 -0.9709418174260519
    outer loop
      vertex 40 -0.01 16
      vertex 42.01 1.8488926881750742 16.45817589738716
      vertex 42.01 -0.01 16
    endloop
  endfacet
  facet normal 0 0.2393156642875579 -0.9709418174260519
    outer loop
      vertex 40 -0.01 16
      vertex 40 1.8488926881750742 16.45817589738716
      vertex 42.01 1.8488926881750742 16.45817589738716
    endloop
  endfacet
  facet normal 1 0 0
    outer loop
      vertex 42.01 -0.01 16
      vertex 42.01 1.5809902576697321 18.40900974233027
      vertex 42.01 -0.01 17.75
    endloop
  endfacet
  facet normal 1 0 0
    outer loop
      vertex 42.01 -0.01 16
      vertex 42.01 1.8488926881750742 16.45817589738716
      vertex 42.01 1.5809902576697321 18.40900974233027
    endloop
  endfacet
  facet normal 0 0.663122658240795 -0.7485107481711012
    outer loop
      vertex 40 1.8488926881750742 16.45817589738716
      vertex 40 3.281935463574626 17.727741013075377
      vertex 42.01 3.281935463574626 17.727741013075377
    endloop
  endfacet
  facet normal 0 0.663122658240795 -0.7485107481711012
    outer loop
      vertex 40 1.8488926881750742 16.45817589738716
      vertex 42.01 3.281935463574626 17.727741013075377
      vertex 42.01 1.8488926881750742 16.45817589738716
    endloop
  endfacet
  facet normal -1 0 0
    outer loop
      vertex 40 -1.8688926881750734 16.45817589738716
      vertex 40 -3.3019354635746243 17.727741013075374
      vertex 40 -2.662490632963181 22.994042992684403
    endloop
  endfacet
  facet normal -1 0 0
    outer loop
      vertex 40 -3.3019354635746243 17.727741013075374
      vertex 40 -3.980835496392216 19.51785327897871
      vertex 40 -3.750064970741659 21.418419548170142
    endloop
  endfacet
  facet normal -1 0 0
    outer loop
      vertex 40 -3.3019354635746243 17.727741013075374
      vertex 40 -3.750064970741659 21.418419548170142
      vertex 40 -2.662490632963181 22.994042992684403
    endloop
  endfacet
  facet normal -1 0 0
    outer loop
      vertex 40 -1.8688926881750734 16.45817589738716
      vertex 40 -2.662490632963181 22.994042992684403
      vertex 40 -0.9672626571502305 23.883767269704208
    endloop
  endfacet
  facet normal -1 0 0
    outer loop
      vertex 40 -1.8688926881750734 16.45817589738716
      vertex 40 -0.9672626571502305 23.883767269704208
      vertex 40 -0.01 16
    endloop
  endfacet
  facet normal -1 0 0
    outer loop
      vertex 40 -0.01 16
      vertex 40 0.9472626571502305 23.883767269704208
      vertex 40 1.8488926881750742 16.45817589738716
    endloop
  endfacet
  facet normal -1 0 0
    outer loop
      vertex 40 -0.01 16
      vertex 40 -0.9672626571502305 23.883767269704208
      vertex 40 0.9472626571502305 23.883767269704208
    endloop
  endfacet
  facet normal 0 -0.9350162426854149 -0.3546048870425355
    outer loop
      vertex 40 -3.3019354635746243 17.727741013075374
      vertex 42.01 -3.3019354635746243 17.727741013075374
      vertex 42.01 -3.980835496392216 19.51785327897871
    endloop
  endfacet
  facet normal 0 -0.9350162426854149 -0.3546048870425355
    outer loop
      vertex 40 -3.3019354635746243 17.727741013075374
      vertex 42.01 -3.980835496392216 19.51785327897871
      vertex 40 -3.980835496392216 19.51785327897871
    endloop
  endfacet
  facet normal 1 0 0
    outer loop
      vertex 42.01 -1.8688926881750734 16.45817589738716
      vertex 42.01 -2.662490632963181 22.994042992684403
      vertex 42.01 -3.3019354635746243 17.727741013075374
    endloop
  endfacet
  facet normal 0 -0.992708874098054 0.12053668025532331
    outer loop
      vertex 40 -3.980835496392216 19.51785327897871
      vertex 42.01 -3.980835496392216 19.51785327897871
      vertex 42.01 -3.750064970741659 21.418419548170142
    endloop
  endfacet
  facet normal 1 0 0
    outer loop
      vertex 42.01 -3.3019354635746243 17.727741013075374
      vertex 42.01 -3.750064970741659 21.418419548170142
      vertex 42.01 -3.980835496392216 19.51785327897871
    endloop
  endfacet
  facet normal 1 0 0
    outer loop
      vertex 42.01 -3.3019354635746243 17.727741013075374
      vertex 42.01 -2.662490632963181 22.994042992684403
      vertex 42.01 -3.750064970741659 21.418419548170142
    endloop
  endfacet
  facet normal 1 0 0
    outer loop
      vertex 42.01 -1.8688926881750734 16.45817589738716
      vertex 42.01 -1.6009902576697321 18.40900974233027
      vertex 42.01 -2.26 20
    endloop
  endfacet
  facet normal 1 0 0
    outer loop
      vertex 42.01 -1.8688926881750734 16.45817589738716
      vertex 42.01 -2.26 20
      vertex 42.01 -2.662490632963181 22.994042992684403
    endloop
  endfacet
  facet normal 0 -0.992708874098054 0.12053668025532331
    outer loop
      vertex 40 -3.980835496392216 19.51785327897871
      vertex 42.01 -3.750064970741659 21.418419548170142
      vertex 40 -3.750064970741659 21.418419548170142
    endloop
  endfacet
  facet normal 0 -0.8229838658936562 0.568064746731156
    outer loop
      vertex 40 -3.750064970741659 21.418419548170142
      vertex 42.01 -3.750064970741659 21.418419548170142
      vertex 42.01 -2.662490632963181 22.994042992684403
    endloop
  endfacet
  facet normal 0 -0.8229838658936562 0.568064746731156
    outer loop
      vertex 40 -3.750064970741659 21.418419548170142
      vertex 42.01 -2.662490632963181 22.994042992684403
      vertex 40 -2.662490632963181 22.994042992684403
    endloop
  endfacet
  facet normal 1 0 0
    outer loop
      vertex 42.01 -2.26 20
      vertex 42.01 -1.6009902576697321 21.59099025766973
      vertex 42.01 -2.662490632963181 22.994042992684403
    endloop
  endfacet
  facet normal 0 -0.4647231720437691 0.8854560256532096
    outer loop
      vertex 40 -2.662490632963181 22.994042992684403
      vertex 42.01 -2.662490632963181 22.994042992684403
      vertex 40 -0.9672626571502305 23.883767269704208
    endloop
  endfacet
  facet normal 1 0 0
    outer loop
      vertex 42.01 -2.662490632963181 22.994042992684403
      vertex 42.01 -1.6009902576697321 21.59099025766973
      vertex 42.01 -0.9672626571502305 23.883767269704208
    endloop
  endfacet
  facet normal 1 0 0
    outer loop
      vertex 42.01 -1.6009902576697321 21.59099025766973
      vertex 42.01 -0.01 22.25
      vertex 42.01 -0.9672626571502305 23.883767269704208
    endloop
  endfacet
  facet normal 1 0 0
    outer loop
      vertex 42.01 -0.9672626571502305 23.883767269704208
      vertex 42.01 -0.01 22.25
      vertex 42.01 0.9472626571502305 23.883767269704208
    endloop
  endfacet
  facet normal 1 0 0
    outer loop
      vertex 42.01 -0.01 22.25
      vertex 42.01 1.5809902576697321 21.59099025766973
      vertex 42.01 2.6424906329631814 22.994042992684403
    endloop
  endfacet
  facet normal 1 0 0
    outer loop
      vertex 42.01 -0.01 22.25
      vertex 42.01 2.6424906329631814 22.994042992684403
      vertex 42.01 0.9472626571502305 23.883767269704208
    endloop
  endfacet
  facet normal 0 -0.4647231720437691 0.8854560256532096
    outer loop
      vertex 42.01 -2.662490632963181 22.994042992684403
      vertex 42.01 -0.9672626571502305 23.883767269704208
      vertex 40 -0.9672626571502305 23.883767269704208
    endloop
  endfacet
  facet normal 0 0 1
    outer loop
      vertex 40 -0.9672626571502305 23.883767269704208
      vertex 42.01 -0.9672626571502305 23.883767269704208
      vertex 40 0.9472626571502305 23.883767269704208
    endloop
  endfacet
  facet normal 0 0 1
    outer loop
      vertex 40 0.9472626571502305 23.883767269704208
      vertex 42.01 -0.9672626571502305 23.883767269704208
      vertex 42.01 0.9472626571502305 23.883767269704208
    endloop
  endfacet
  facet normal 0 0.464723172043769 0.8854560256532097
    outer loop
      vertex 40 0.9472626571502305 23.883767269704208
      vertex 42.01 0.9472626571502305 23.883767269704208
      vertex 40 2.6424906329631814 22.994042992684403
    endloop
  endfacet
  facet normal -1 0 0
    outer loop
      vertex 40 1.8488926881750742 16.45817589738716
      vertex 40 2.6424906329631814 22.994042992684403
      vertex 40 3.281935463574626 17.727741013075377
    endloop
  endfacet
  facet normal -1 0 0
    outer loop
      vertex 40 3.281935463574626 17.727741013075377
      vertex 40 2.6424906329631814 22.994042992684403
      vertex 40 3.7300649707416595 21.418419548170142
    endloop
  endfacet
  facet normal -1 0 0
    outer loop
      vertex 40 3.281935463574626 17.727741013075377
      vertex 40 3.7300649707416595 21.418419548170142
      vertex 40 3.960835496392216 19.51785327897871
    endloop
  endfacet
  facet normal -1 0 0
    outer loop
      vertex 40 1.8488926881750742 16.45817589738716
      vertex 40 0.9472626571502305 23.883767269704208
      vertex 40 2.6424906329631814 22.994042992684403
    endloop
  endfacet
  facet normal 1 0 0
    outer loop
      vertex 42.01 1.8488926881750742 16.45817589738716
      vertex 42.01 2.24 20
      vertex 42.01 1.5809902576697321 18.40900974233027
    endloop
  endfacet
  facet normal 1 0 0
    outer loop
      vertex 42.01 1.8488926881750742 16.45817589738716
      vertex 42.01 3.281935463574626 17.727741013075377
      vertex 42.01 2.6424906329631814 22.994042992684403
    endloop
  endfacet
  facet normal 1 0 0
    outer loop
      vertex 42.01 1.8488926881750742 16.45817589738716
      vertex 42.01 2.6424906329631814 22.994042992684403
      vertex 42.01 2.24 20
    endloop
  endfacet
  facet normal 0 0.9350162426854149 -0.3546048870425353
    outer loop
      vertex 40 3.281935463574626 17.727741013075377
      vertex 40 3.960835496392216 19.51785327897871
      vertex 42.01 3.281935463574626 17.727741013075377
    endloop
  endfacet
  facet normal 0 0.9350162426854149 -0.3546048870425353
    outer loop
      vertex 40 3.960835496392216 19.51785327897871
      vertex 42.01 3.960835496392216 19.51785327897871
      vertex 42.01 3.281935463574626 17.727741013075377
    endloop
  endfacet
  facet normal 0 0.992708874098054 0.12053668025532309
    outer loop
      vertex 40 3.960835496392216 19.51785327897871
      vertex 40 3.7300649707416595 21.418419548170142
      vertex 42.01 3.960835496392216 19.51785327897871
    endloop
  endfacet
  facet normal 1 0 0
    outer loop
      vertex 42.01 3.281935463574626 17.727741013075377
      vertex 42.01 3.7300649707416595 21.418419548170142
      vertex 42.01 2.6424906329631814 22.994042992684403
    endloop
  endfacet
  facet normal 1 0 0
    outer loop
      vertex 42.01 3.281935463574626 17.727741013075377
      vertex 42.01 3.960835496392216 19.51785327897871
      vertex 42.01 3.7300649707416595 21.418419548170142
    endloop
  endfacet
  facet normal 1 0 0
    outer loop
      vertex 42.01 1.5809902576697321 21.59099025766973
      vertex 42.01 2.24 20
      vertex 42.01 2.6424906329631814 22.994042992684403
    endloop
  endfacet
  facet normal 0 0.464723172043769 0.8854560256532097
    outer loop
      vertex 42.01 0.9472626571502305 23.883767269704208
      vertex 42.01 2.6424906329631814 22.994042992684403
      vertex 40 2.6424906329631814 22.994042992684403
    endloop
  endfacet
  facet normal 0 0.8229838658936562 0.568064746731156
    outer loop
      vertex 40 2.6424906329631814 22.994042992684403
      vertex 42.01 3.7300649707416595 21.418419548170142
      vertex 40 3.7300649707416595 21.418419548170142
    endloop
  endfacet
  facet normal 0 0.992708874098054 0.12053668025532309
    outer loop
      vertex 42.01 3.960835496392216 19.51785327897871
      vertex 40 3.7300649707416595 21.418419548170142
      vertex 42.01 3.7300649707416595 21.418419548170142
    endloop
  endfacet
  facet normal 0 0.8229838658936562 0.568064746731156
    outer loop
      vertex 40 2.6424906329631814 22.994042992684403
      vertex 42.01 2.6424906329631814 22.994042992684403
      vertex 42.01 3.7300649707416595 21.418419548170142
    endloop
  endfacet
  facet normal 0 -0.38268343236509045 -0.9238795325112865
    outer loop
      vertex 43.01 -1.6009902576697321 18.40900974233027
      vertex 42.01 -0.01 17.75
      vertex 43.01 -0.01 17.75
    endloop
  endfacet
  facet normal 0 0.38268343236509045 -0.9238795325112865
    outer loop
      vertex 42.01 -0.01 17.75
      vertex 42.01 1.5809902576697321 18.40900974233027
      vertex 43.01 -0.01 17.75
    endloop
  endfacet
  facet normal 0 -0.9238795325112867 -0.38268343236508984
    outer loop
      vertex 42.01 -1.6009902576697321 18.40900974233027
      vertex 43.01 -1.6009902576697321 18.40900974233027
      vertex 43.01 -2.26 20
    endloop
  endfacet
  facet normal 0 -0.9238795325112867 -0.38268343236508984
    outer loop
      vertex 42.01 -1.6009902576697321 18.40900974233027
      vertex 43.01 -2.26 20
      vertex 42.01 -2.26 20
    endloop
  endfacet
  facet normal 0 -0.9238795325112867 0.38268343236508984
    outer loop
      vertex 42.01 -2.26 20
      vertex 43.01 -2.26 20
      vertex 43.01 -1.6009902576697321 21.59099025766973
    endloop
  endfacet
  facet normal 1 0 0
    outer loop
      vertex 43.01 -1.6009902576697321 18.40900974233027
      vertex 43.01 -1.6009902576697321 21.59099025766973
      vertex 43.01 -2.26 20
    endloop
  endfacet
  facet normal 0 -0.9238795325112867 0.38268343236508984
    outer loop
      vertex 42.01 -2.26 20
      vertex 43.01 -1.6009902576697321 21.59099025766973
      vertex 42.01 -1.6009902576697321 21.59099025766973
    endloop
  endfacet
  facet normal 0 -0.38268343236509045 -0.9238795325112865
    outer loop
      vertex 42.01 -1.6009902576697321 18.40900974233027
      vertex 42.01 -0.01 17.75
      vertex 43.01 -1.6009902576697321 18.40900974233027
    endloop
  endfacet
  facet normal 1 0 0
    outer loop
      vertex 43.01 -1.6009902576697321 18.40900974233027
      vertex 43.01 -0.01 17.75
      vertex 43.01 -1.6009902576697321 21.59099025766973
    endloop
  endfacet
  facet normal 1 0 0
    outer loop
      vertex 43.01 -1.6009902576697321 21.59099025766973
      vertex 43.01 -0.01 17.75
      vertex 43.01 -0.01 22.25
    endloop
  endfacet
  facet normal 0 0.38268343236509045 -0.9238795325112865
    outer loop
      vertex 43.01 -0.01 17.75
      vertex 42.01 1.5809902576697321 18.40900974233027
      vertex 43.01 1.5809902576697321 18.40900974233027
    endloop
  endfacet
  facet normal 1 0 0
    outer loop
      vertex 43.01 -0.01 17.75
      vertex 43.01 1.5809902576697321 18.40900974233027
      vertex 43.01 -0.01 22.25
    endloop
  endfacet
  facet normal 1 0 0
    outer loop
      vertex 43.01 1.5809902576697321 18.40900974233027
      vertex 43.01 1.5809902576697321 21.59099025766973
      vertex 43.01 -0.01 22.25
    endloop
  endfacet
  facet normal 0 -0.38268343236509045 0.9238795325112865
    outer loop
      vertex 42.01 -1.6009902576697321 21.59099025766973
      vertex 43.01 -1.6009902576697321 21.59099025766973
      vertex 43.01 -0.01 22.25
    endloop
  endfacet
  facet normal 0 -0.38268343236509045 0.9238795325112865
    outer loop
      vertex 42.01 -1.6009902576697321 21.59099025766973
      vertex 43.01 -0.01 22.25
      vertex 42.01 -0.01 22.25
    endloop
  endfacet
  facet normal 0 0.38268343236509045 0.9238795325112865
    outer loop
      vertex 42.01 -0.01 22.25
      vertex 43.01 -0.01 22.25
      vertex 43.01 1.5809902576697321 21.59099025766973
    endloop
  endfacet
  facet normal 0 0.38268343236509045 0.9238795325112865
    outer loop
      vertex 42.01 -0.01 22.25
      vertex 43.01 1.5809902576697321 21.59099025766973
      vertex 42.01 1.5809902576697321 21.59099025766973
    endloop
  endfacet
  facet normal 0 0.9238795325112867 -0.3826834323650901
    outer loop
      vertex 42.01 1.5809902576697321 18.40900974233027
      vertex 42.01 2.24 20
      vertex 43.01 1.5809902576697321 18.40900974233027
    endloop
  endfacet
  facet normal 0 0.9238795325112867 -0.3826834323650901
    outer loop
      vertex 43.01 1.5809902576697321 18.40900974233027
      vertex 42.01 2.24 20
      vertex 43.01 2.24 20
    endloop
  endfacet
  facet normal 0 0.9238795325112867 0.3826834323650901
    outer loop
      vertex 42.01 1.5809902576697321 21.59099025766973
      vertex 43.01 2.24 20
      vertex 42.01 2.24 20
    endloop
  endfacet
  facet normal 1 0 0
    outer loop
      vertex 43.01 1.5809902576697321 18.40900974233027
      vertex 43.01 2.24 20
      vertex 43.01 1.5809902576697321 21.59099025766973
    endloop
  endfacet
  facet normal 0 0.9238795325112867 0.3826834323650901
    outer loop
      vertex 42.01 1.5809902576697321 21.59099025766973
      vertex 43.01 1.5809902576697321 21.59099025766973
      vertex 43.01 2.24 20
    endloop
  endfacet
endsolid OpenSCAD_Model
