solid OpenSCAD_Model
  facet normal 0.8660254037844386 0.5 0
    outer loop
      vertex 7.505553499465135 0 5.3
      vertex 3.7527767497325675 6.5 0
      vertex 3.7527767497325675 6.5 5.3
    endloop
  endfacet
  facet normal 0.8660254037844386 0.5 0
    outer loop
      vertex 3.7527767497325675 6.5 0
      vertex 7.505553499465135 0 5.3
      vertex 7.505553499465135 0 0
    endloop
  endfacet
  facet normal 0 1 0
    outer loop
      vertex 3.7527767497325675 6.5 0
      vertex -3.7527767497325675 6.5 5.3
      vertex 3.7527767497325675 6.5 5.3
    endloop
  endfacet
  facet normal 0 1 0
    outer loop
      vertex -3.7527767497325675 6.5 5.3
      vertex 3.7527767497325675 6.5 0
      vertex -3.7527767497325675 6.5 0
    endloop
  endfacet
  facet normal -0.8660254037844386 0.5 0
    outer loop
      vertex -7.505553499465135 0 0
      vertex -3.7527767497325675 6.5 5.3
      vertex -3.7527767497325675 6.5 0
    endloop
  endfacet
  facet normal -0.8660254037844386 0.5 0
    outer loop
      vertex -3.7527767497325675 6.5 5.3
      vertex -7.505553499465135 0 0
      vertex -7.505553499465135 0 5.3
    endloop
  endfacet
  facet normal -0.8660254037844386 -0.5 0
    outer loop
      vertex -3.7527767497325675 -6.5 0
      vertex -7.505553499465135 0 5.3
      vertex -7.505553499465135 0 0
    endloop
  endfacet
  facet normal -0.8660254037844386 -0.5 0
    outer loop
      vertex -7.505553499465135 0 5.3
      vertex -3.7527767497325675 -6.5 0
      vertex -3.7527767497325675 -6.5 5.3
    endloop
  endfacet
  facet normal 0 -1 0
    outer loop
      vertex -3.7527767497325675 -6.5 0
      vertex 3.7527767497325675 -6.5 5.3
      vertex -3.7527767497325675 -6.5 5.3
    endloop
  endfacet
  facet normal 0 -1 0
    outer loop
      vertex 3.7527767497325675 -6.5 5.3
      vertex -3.7527767497325675 -6.5 0
      vertex 3.7527767497325675 -6.5 0
    endloop
  endfacet
  facet normal 0.8660254037844386 -0.5 0
    outer loop
      vertex 3.7527767497325675 -6.5 5.3
      vertex 7.505553499465135 0 0
      vertex 7.505553499465135 0 5.3
    endloop
  endfacet
  facet normal 0.8660254037844386 -0.5 0
    outer loop
      vertex 7.505553499465135 0 0
      vertex 3.7527767497325675 -6.5 5.3
      vertex 3.7527767497325675 -6.5 0
    endloop
  endfacet
  facet normal 0 0 -1
    outer loop
      vertex 3.7527767497325675 -6.5 0
      vertex 3.7527767497325675 6.5 0
      vertex 7.505553499465135 0 0
    endloop
  endfacet
  facet normal 0 0 -1
    outer loop
      vertex -3.7527767497325675 -6.5 0
      vertex 3.7527767497325675 6.5 0
      vertex 3.7527767497325675 -6.5 0
    endloop
  endfacet
  facet normal 0 0 -1
    outer loop
      vertex -3.7527767497325675 -6.5 0
      vertex -3.7527767497325675 6.5 0
      vertex 3.7527767497325675 6.5 0
    endloop
  endfacet
  facet normal 0 0 -1
    outer loop
      vertex -3.7527767497325675 6.5 0
      vertex -3.7527767497325675 -6.5 0
      vertex -7.505553499465135 0 0
    endloop
  endfacet
  facet normal 0 0 1
    outer loop
      vertex 3.7527767497325675 6.5 5.3
      vertex 3.7527767497325675 -6.5 5.3
      vertex 7.505553499465135 0 5.3
    endloop
  endfacet
  facet normal 0 0 1
    outer loop
      vertex -3.7527767497325675 6.5 5.3
      vertex 3.7527767497325675 -6.5 5.3
      vertex 3.7527767497325675 6.5 5.3
    endloop
  endfacet
  facet normal 0 0 1
    outer loop
      vertex -3.7527767497325675 6.5 5.3
      vertex -3.7527767497325675 -6.5 5.3
      vertex 3.7527767497325675 -6.5 5.3
    endloop
  endfacet
  facet normal 0 0 1
    outer loop
      vertex -3.7527767497325675 -6.5 5.3
      vertex -3.7527767497325675 6.5 5.3
      vertex -7.505553499465135 0 5.3
    endloop
  endfacet
endsolid OpenSCAD_Model
