solid OpenSCAD_Model
  facet normal 0 0 -1
    outer loop
      vertex -25 -25 -25
      vertex -7.705132427757894 -6.374239897486897 -25
      vertex -7.289686274214117 -6.845471059286885 -25
    endloop
  endfacet
  facet normal 0 0 -1
    outer loop
      vertex -25 -25 -25
      vertex -6.845471059286885 -7.289686274214117 -25
      vertex -6.374239897486897 -7.705132427757894 -25
    endloop
  endfacet
  facet normal 0 0 -1
    outer loop
      vertex -25 -25 -25
      vertex -7.289686274214117 -6.845471059286885 -25
      vertex -6.845471059286885 -7.289686274214117 -25
    endloop
  endfacet
  facet normal 0 0 -1
    outer loop
      vertex -25 -25 -25
      vertex -8.763066800438635 -4.817536741017154 -25
      vertex -8.44327925502015 -5.358267949789967 -25
    endloop
  endfacet
  facet normal 0 0 -1
    outer loop
      vertex -25 -25 -25
      vertex -9.048270524660197 -4.257792915650724 -25
      vertex -8.763066800438635 -4.817536741017154 -25
    endloop
  endfacet
  facet normal 0 0 -1
    outer loop
      vertex -25 -25 -25
      vertex -9.297764858882514 -3.6812455268467787 -25
      vertex -9.048270524660197 -4.257792915650724 -25
    endloop
  endfacet
  facet normal 0 0 -1
    outer loop
      vertex -25 -25 -25
      vertex -9.921147013144779 -1.2533323356430406 -25
      vertex -9.822872507286887 -1.8738131458572482 -25
    endloop
  endfacet
  facet normal 0 0 -1
    outer loop
      vertex -25 -25 -25
      vertex -9.510565162951535 -3.090169943749474 -25
      vertex -9.297764858882514 -3.6812455268467787 -25
    endloop
  endfacet
  facet normal 0 0 -1
    outer loop
      vertex -25 -25 -25
      vertex -9.68583161128631 -2.4868988716485485 -25
      vertex -9.510565162951535 -3.090169943749474 -25
    endloop
  endfacet
  facet normal 0 0 -1
    outer loop
      vertex -25 -25 -25
      vertex -9.822872507286887 -1.8738131458572482 -25
      vertex -9.68583161128631 -2.4868988716485485 -25
    endloop
  endfacet
  facet normal 0 0 -1
    outer loop
      vertex -25 -25 -25
      vertex -8.44327925502015 -5.358267949789967 -25
      vertex -8.090169943749475 -5.877852522924732 -25
    endloop
  endfacet
  facet normal 0 0 -1
    outer loop
      vertex -25 -25 -25
      vertex -8.090169943749475 -5.877852522924732 -25
      vertex -7.705132427757894 -6.374239897486897 -25
    endloop
  endfacet
  facet normal 0 0 -1
    outer loop
      vertex -25 -25 -25
      vertex -9.980267284282716 -0.6279051952931327 -25
      vertex -9.921147013144779 -1.2533323356430406 -25
    endloop
  endfacet
  facet normal 0 0 -1
    outer loop
      vertex -25 -25 -25
      vertex -10 0 -25
      vertex -9.980267284282716 -0.6279051952931327 -25
    endloop
  endfacet
  facet normal 0 0 -1
    outer loop
      vertex -25 -25 -25
      vertex -9.980267284282716 0.6279051952931327 -25
      vertex -10 0 -25
    endloop
  endfacet
  facet normal 0 0 -1
    outer loop
      vertex -25 -25 -25
      vertex -9.921147013144779 1.2533323356430406 -25
      vertex -9.980267284282716 0.6279051952931327 -25
    endloop
  endfacet
  facet normal 0 0 -1
    outer loop
      vertex -25 -25 -25
      vertex -9.822872507286887 1.8738131458572482 -25
      vertex -9.921147013144779 1.2533323356430406 -25
    endloop
  endfacet
  facet normal 0 0 -1
    outer loop
      vertex -25 -25 -25
      vertex -9.68583161128631 2.4868988716485485 -25
      vertex -9.822872507286887 1.8738131458572482 -25
    endloop
  endfacet
  facet normal 0 0 -1
    outer loop
      vertex -25 -25 -25
      vertex -9.510565162951535 3.090169943749474 -25
      vertex -9.68583161128631 2.4868988716485485 -25
    endloop
  endfacet
  facet normal 0 0 -1
    outer loop
      vertex -25 -25 -25
      vertex -5.358267949789967 -8.44327925502015 -25
      vertex -4.817536741017154 -8.763066800438635 -25
    endloop
  endfacet
  facet normal 0 0 -1
    outer loop
      vertex -25 -25 -25
      vertex -4.817536741017154 -8.763066800438635 -25
      vertex -4.257792915650724 -9.048270524660197 -25
    endloop
  endfacet
  facet normal 0 0 -1
    outer loop
      vertex -25 -25 -25
      vertex -4.257792915650724 -9.048270524660197 -25
      vertex -3.6812455268467787 -9.297764858882514 -25
    endloop
  endfacet
  facet normal 0 0 -1
    outer loop
      vertex -25 -25 -25
      vertex -6.374239897486897 -7.705132427757894 -25
      vertex -5.877852522924732 -8.090169943749475 -25
    endloop
  endfacet
  facet normal 0 0 -1
    outer loop
      vertex -25 -25 -25
      vertex -5.877852522924732 -8.090169943749475 -25
      vertex -5.358267949789967 -8.44327925502015 -25
    endloop
  endfacet
  facet normal 0 0 -1
    outer loop
      vertex -25 -25 -25
      vertex -3.6812455268467787 -9.297764858882514 -25
      vertex -3.090169943749474 -9.510565162951535 -25
    endloop
  endfacet
  facet normal 0 0 -1
    outer loop
      vertex -25 -25 -25
      vertex -3.090169943749474 -9.510565162951535 -25
      vertex -2.4868988716485485 -9.68583161128631 -25
    endloop
  endfacet
  facet normal 0 0 -1
    outer loop
      vertex -25 -25 -25
      vertex -1.8738131458572482 -9.822872507286887 -25
      vertex -1.2533323356430406 -9.921147013144779 -25
    endloop
  endfacet
  facet normal 0 0 -1
    outer loop
      vertex -25 -25 -25
      vertex -2.4868988716485485 -9.68583161128631 -25
      vertex -1.8738131458572482 -9.822872507286887 -25
    endloop
  endfacet
  facet normal 0 0 -1
    outer loop
      vertex -25 -25 -25
      vertex -1.2533323356430406 -9.921147013144779 -25
      vertex -0.6279051952931376 -9.980267284282716 -25
    endloop
  endfacet
  facet normal 0 0 -1
    outer loop
      vertex -25 -25 -25
      vertex -0.6279051952931376 -9.980267284282716 -25
      vertex 0 -10 -25
    endloop
  endfacet
  facet normal 0 0 -1
    outer loop
      vertex -25 -25 -25
      vertex 0 -10 -25
      vertex 0.6279051952931376 -9.980267284282716 -25
    endloop
  endfacet
  facet normal 0 0 -1
    outer loop
      vertex -25 -25 -25
      vertex 0.6279051952931376 -9.980267284282716 -25
      vertex 1.2533323356430406 -9.921147013144779 -25
    endloop
  endfacet
  facet normal 0 0 -1
    outer loop
      vertex -25 -25 -25
      vertex 1.2533323356430406 -9.921147013144779 -25
      vertex 1.8738131458572482 -9.822872507286887 -25
    endloop
  endfacet
  facet normal 0 0 -1
    outer loop
      vertex -25 -25 -25
      vertex 1.8738131458572482 -9.822872507286887 -25
      vertex 2.4868988716485445 -9.685831611286313 -25
    endloop
  endfacet
  facet normal 0 0 -1
    outer loop
      vertex -25 -25 -25
      vertex 2.4868988716485445 -9.685831611286313 -25
      vertex 3.090169943749474 -9.510565162951535 -25
    endloop
  endfacet
  facet normal 0 0 1
    outer loop
      vertex -25 -25 25
      vertex -7.289686274214117 -6.845471059286885 25
      vertex -7.705132427757894 -6.374239897486897 25
    endloop
  endfacet
  facet normal 0 0 1
    outer loop
      vertex -25 -25 25
      vertex -6.374239897486897 -7.705132427757894 25
      vertex -6.845471059286885 -7.289686274214117 25
    endloop
  endfacet
  facet normal 0 0 1
    outer loop
      vertex -25 -25 25
      vertex -6.845471059286885 -7.289686274214117 25
      vertex -7.289686274214117 -6.845471059286885 25
    endloop
  endfacet
  facet normal -1 0 0
    outer loop
      vertex -25 -25 -25
      vertex -25 -25 25
      vertex -25 25 25
    endloop
  endfacet
  facet normal 0 0 1
    outer loop
      vertex -25 -25 25
      vertex -9.510565162951535 -3.090169943749474 25
      vertex -25 25 25
    endloop
  endfacet
  facet normal 0 0 1
    outer loop
      vertex -25 -25 25
      vertex -8.44327925502015 -5.358267949789967 25
      vertex -8.763066800438635 -4.817536741017154 25
    endloop
  endfacet
  facet normal 0 0 1
    outer loop
      vertex -25 -25 25
      vertex -8.763066800438635 -4.817536741017154 25
      vertex -9.048270524660197 -4.257792915650724 25
    endloop
  endfacet
  facet normal 0 0 1
    outer loop
      vertex -25 -25 25
      vertex -9.048270524660197 -4.257792915650724 25
      vertex -9.297764858882514 -3.6812455268467787 25
    endloop
  endfacet
  facet normal 0 0 1
    outer loop
      vertex -25 -25 25
      vertex -9.297764858882514 -3.6812455268467787 25
      vertex -9.510565162951535 -3.090169943749474 25
    endloop
  endfacet
  facet normal 0 0 1
    outer loop
      vertex -25 -25 25
      vertex -8.090169943749475 -5.877852522924732 25
      vertex -8.44327925502015 -5.358267949789967 25
    endloop
  endfacet
  facet normal 0 0 1
    outer loop
      vertex -25 -25 25
      vertex -7.705132427757894 -6.374239897486897 25
      vertex -8.090169943749475 -5.877852522924732 25
    endloop
  endfacet
  facet normal 0 -1 0
    outer loop
      vertex -25 -25 -25
      vertex 25 -25 25
      vertex -25 -25 25
    endloop
  endfacet
  facet normal 0 0 1
    outer loop
      vertex -25 -25 25
      vertex -4.817536741017154 -8.763066800438635 25
      vertex -5.358267949789967 -8.44327925502015 25
    endloop
  endfacet
  facet normal 0 0 1
    outer loop
      vertex -25 -25 25
      vertex -4.257792915650724 -9.048270524660197 25
      vertex -4.817536741017154 -8.763066800438635 25
    endloop
  endfacet
  facet normal 0 0 1
    outer loop
      vertex -25 -25 25
      vertex -3.6812455268467787 -9.297764858882514 25
      vertex -4.257792915650724 -9.048270524660197 25
    endloop
  endfacet
  facet normal 0 0 1
    outer loop
      vertex -25 -25 25
      vertex -5.877852522924732 -8.090169943749475 25
      vertex -6.374239897486897 -7.705132427757894 25
    endloop
  endfacet
  facet normal 0 0 1
    outer loop
      vertex -25 -25 25
      vertex -5.358267949789967 -8.44327925502015 25
      vertex -5.877852522924732 -8.090169943749475 25
    endloop
  endfacet
  facet normal 0 0 1
    outer loop
      vertex -25 -25 25
      vertex -3.090169943749474 -9.510565162951535 25
      vertex -3.6812455268467787 -9.297764858882514 25
    endloop
  endfacet
  facet normal 0 0 1
    outer loop
      vertex -25 -25 25
      vertex -2.4868988716485485 -9.68583161128631 25
      vertex -3.090169943749474 -9.510565162951535 25
    endloop
  endfacet
  facet normal 0 0 1
    outer loop
      vertex -25 -25 25
      vertex -1.2533323356430406 -9.921147013144779 25
      vertex -1.8738131458572482 -9.822872507286887 25
    endloop
  endfacet
  facet normal 0 0 1
    outer loop
      vertex -25 -25 25
      vertex -1.8738131458572482 -9.822872507286887 25
      vertex -2.4868988716485485 -9.68583161128631 25
    endloop
  endfacet
  facet normal 0 0 1
    outer loop
      vertex -25 -25 25
      vertex -0.6279051952931376 -9.980267284282716 25
      vertex -1.2533323356430406 -9.921147013144779 25
    endloop
  endfacet
  facet normal 0 0 1
    outer loop
      vertex -25 -25 25
      vertex 0 -10 25
      vertex -0.6279051952931376 -9.980267284282716 25
    endloop
  endfacet
  facet normal 0 0 1
    outer loop
      vertex -25 -25 25
      vertex 0.6279051952931376 -9.980267284282716 25
      vertex 0 -10 25
    endloop
  endfacet
  facet normal 0 0 1
    outer loop
      vertex -25 -25 25
      vertex 1.2533323356430406 -9.921147013144779 25
      vertex 0.6279051952931376 -9.980267284282716 25
    endloop
  endfacet
  facet normal 0 0 1
    outer loop
      vertex -25 -25 25
      vertex 1.8738131458572482 -9.822872507286887 25
      vertex 1.2533323356430406 -9.921147013144779 25
    endloop
  endfacet
  facet normal 0 0 1
    outer loop
      vertex -25 -25 25
      vertex 2.4868988716485445 -9.685831611286313 25
      vertex 1.8738131458572482 -9.822872507286887 25
    endloop
  endfacet
  facet normal 0 0 1
    outer loop
      vertex -25 -25 25
      vertex 3.090169943749474 -9.510565162951535 25
      vertex 2.4868988716485445 -9.685831611286313 25
    endloop
  endfacet
  facet normal 0 0 -1
    outer loop
      vertex -25 -25 -25
      vertex -25 25 -25
      vertex -9.510565162951535 3.090169943749474 -25
    endloop
  endfacet
  facet normal 0 0 -1
    outer loop
      vertex -25 25 -25
      vertex -9.297764858882514 3.6812455268467787 -25
      vertex -9.510565162951535 3.090169943749474 -25
    endloop
  endfacet
  facet normal 0 0 -1
    outer loop
      vertex -25 25 -25
      vertex -9.048270524660197 4.257792915650724 -25
      vertex -9.297764858882514 3.6812455268467787 -25
    endloop
  endfacet
  facet normal 0 0 -1
    outer loop
      vertex -25 25 -25
      vertex -8.763066800438635 4.817536741017154 -25
      vertex -9.048270524660197 4.257792915650724 -25
    endloop
  endfacet
  facet normal 0 0 -1
    outer loop
      vertex -25 25 -25
      vertex -8.44327925502015 5.358267949789967 -25
      vertex -8.763066800438635 4.817536741017154 -25
    endloop
  endfacet
  facet normal 0 0 -1
    outer loop
      vertex -25 25 -25
      vertex -8.090169943749475 5.877852522924732 -25
      vertex -8.44327925502015 5.358267949789967 -25
    endloop
  endfacet
  facet normal 0 0 -1
    outer loop
      vertex -25 25 -25
      vertex -7.705132427757894 6.374239897486897 -25
      vertex -8.090169943749475 5.877852522924732 -25
    endloop
  endfacet
  facet normal -1 0 0
    outer loop
      vertex -25 -25 -25
      vertex -25 25 25
      vertex -25 25 -25
    endloop
  endfacet
  facet normal 0 0 -1
    outer loop
      vertex -25 25 -25
      vertex -7.289686274214117 6.845471059286885 -25
      vertex -7.705132427757894 6.374239897486897 -25
    endloop
  endfacet
  facet normal 0 0 -1
    outer loop
      vertex -25 25 -25
      vertex -6.845471059286885 7.289686274214117 -25
      vertex -7.289686274214117 6.845471059286885 -25
    endloop
  endfacet
  facet normal 0 0 -1
    outer loop
      vertex -25 25 -25
      vertex -6.374239897486897 7.705132427757894 -25
      vertex -6.845471059286885 7.289686274214117 -25
    endloop
  endfacet
  facet normal 0 0 -1
    outer loop
      vertex -25 25 -25
      vertex -5.877852522924732 8.090169943749475 -25
      vertex -6.374239897486897 7.705132427757894 -25
    endloop
  endfacet
  facet normal 0 0 -1
    outer loop
      vertex -25 25 -25
      vertex -5.358267949789967 8.44327925502015 -25
      vertex -5.877852522924732 8.090169943749475 -25
    endloop
  endfacet
  facet normal 0 0 -1
    outer loop
      vertex -25 25 -25
      vertex -4.817536741017152 8.763066800438637 -25
      vertex -5.358267949789967 8.44327925502015 -25
    endloop
  endfacet
  facet normal 0 0 -1
    outer loop
      vertex -25 25 -25
      vertex -4.257792915650727 9.048270524660195 -25
      vertex -4.817536741017152 8.763066800438637 -25
    endloop
  endfacet
  facet normal 0 0 -1
    outer loop
      vertex -25 25 -25
      vertex -3.6812455268467787 9.297764858882514 -25
      vertex -4.257792915650727 9.048270524660195 -25
    endloop
  endfacet
  facet normal 0 0 -1
    outer loop
      vertex -25 25 -25
      vertex -3.090169943749474 9.510565162951535 -25
      vertex -3.6812455268467787 9.297764858882514 -25
    endloop
  endfacet
  facet normal 0 0 -1
    outer loop
      vertex -25 25 -25
      vertex -2.4868988716485485 9.68583161128631 -25
      vertex -3.090169943749474 9.510565162951535 -25
    endloop
  endfacet
  facet normal 0 0 -1
    outer loop
      vertex -25 25 -25
      vertex -1.8738131458572458 9.822872507286887 -25
      vertex -2.4868988716485485 9.68583161128631 -25
    endloop
  endfacet
  facet normal 0 0 -1
    outer loop
      vertex -25 25 -25
      vertex -1.2533323356430428 9.921147013144779 -25
      vertex -1.8738131458572458 9.822872507286887 -25
    endloop
  endfacet
  facet normal 0 0 -1
    outer loop
      vertex -25 25 -25
      vertex -0.6279051952931327 9.980267284282716 -25
      vertex -1.2533323356430428 9.921147013144779 -25
    endloop
  endfacet
  facet normal 0 0 -1
    outer loop
      vertex -25 25 -25
      vertex 0 10 -25
      vertex -0.6279051952931327 9.980267284282716 -25
    endloop
  endfacet
  facet normal 0 0 -1
    outer loop
      vertex -25 25 -25
      vertex 0.6279051952931327 9.980267284282716 -25
      vertex 0 10 -25
    endloop
  endfacet
  facet normal 0 0 -1
    outer loop
      vertex -25 25 -25
      vertex 1.2533323356430428 9.921147013144779 -25
      vertex 0.6279051952931327 9.980267284282716 -25
    endloop
  endfacet
  facet normal 0 0 -1
    outer loop
      vertex -25 25 -25
      vertex 1.8738131458572458 9.822872507286887 -25
      vertex 1.2533323356430428 9.921147013144779 -25
    endloop
  endfacet
  facet normal 0 0 -1
    outer loop
      vertex -25 25 -25
      vertex 2.4868988716485485 9.68583161128631 -25
      vertex 1.8738131458572458 9.822872507286887 -25
    endloop
  endfacet
  facet normal 0 0 -1
    outer loop
      vertex -25 25 -25
      vertex 3.090169943749474 9.510565162951535 -25
      vertex 2.4868988716485485 9.68583161128631 -25
    endloop
  endfacet
  facet normal 0 1 0
    outer loop
      vertex -25 25 -25
      vertex -25 25 25
      vertex 25 25 -25
    endloop
  endfacet
  facet normal 0 0 1
    outer loop
      vertex -25 25 25
      vertex -9.822872507286887 -1.8738131458572482 25
      vertex -9.921147013144779 -1.2533323356430406 25
    endloop
  endfacet
  facet normal 0 0 1
    outer loop
      vertex -25 25 25
      vertex -9.921147013144779 -1.2533323356430406 25
      vertex -9.980267284282716 -0.6279051952931327 25
    endloop
  endfacet
  facet normal 0 0 1
    outer loop
      vertex -25 25 25
      vertex -9.510565162951535 -3.090169943749474 25
      vertex -9.68583161128631 -2.4868988716485485 25
    endloop
  endfacet
  facet normal 0 0 1
    outer loop
      vertex -25 25 25
      vertex -9.68583161128631 -2.4868988716485485 25
      vertex -9.822872507286887 -1.8738131458572482 25
    endloop
  endfacet
  facet normal 0 0 1
    outer loop
      vertex -25 25 25
      vertex -9.980267284282716 -0.6279051952931327 25
      vertex -10 0 25
    endloop
  endfacet
  facet normal 0 0 1
    outer loop
      vertex -25 25 25
      vertex -10 0 25
      vertex -9.980267284282716 0.6279051952931327 25
    endloop
  endfacet
  facet normal 0 0 1
    outer loop
      vertex -25 25 25
      vertex -9.980267284282716 0.6279051952931327 25
      vertex -9.921147013144779 1.2533323356430406 25
    endloop
  endfacet
  facet normal 0 0 1
    outer loop
      vertex -25 25 25
      vertex -9.921147013144779 1.2533323356430406 25
      vertex -9.822872507286887 1.8738131458572482 25
    endloop
  endfacet
  facet normal 0 0 1
    outer loop
      vertex -25 25 25
      vertex -9.822872507286887 1.8738131458572482 25
      vertex -9.68583161128631 2.4868988716485485 25
    endloop
  endfacet
  facet normal 0 0 1
    outer loop
      vertex -25 25 25
      vertex -9.68583161128631 2.4868988716485485 25
      vertex -9.510565162951535 3.090169943749474 25
    endloop
  endfacet
  facet normal 0 0 1
    outer loop
      vertex -25 25 25
      vertex -9.510565162951535 3.090169943749474 25
      vertex -9.297764858882514 3.6812455268467787 25
    endloop
  endfacet
  facet normal 0 0 1
    outer loop
      vertex -25 25 25
      vertex -9.297764858882514 3.6812455268467787 25
      vertex -9.048270524660197 4.257792915650724 25
    endloop
  endfacet
  facet normal 0 0 1
    outer loop
      vertex -25 25 25
      vertex -9.048270524660197 4.257792915650724 25
      vertex -8.763066800438635 4.817536741017154 25
    endloop
  endfacet
  facet normal 0 0 1
    outer loop
      vertex -25 25 25
      vertex -8.763066800438635 4.817536741017154 25
      vertex -8.44327925502015 5.358267949789967 25
    endloop
  endfacet
  facet normal 0 0 1
    outer loop
      vertex -25 25 25
      vertex -8.44327925502015 5.358267949789967 25
      vertex -8.090169943749475 5.877852522924732 25
    endloop
  endfacet
  facet normal 0 0 1
    outer loop
      vertex -25 25 25
      vertex -8.090169943749475 5.877852522924732 25
      vertex -7.705132427757894 6.374239897486897 25
    endloop
  endfacet
  facet normal 0 0 1
    outer loop
      vertex -25 25 25
      vertex -7.705132427757894 6.374239897486897 25
      vertex -7.289686274214117 6.845471059286885 25
    endloop
  endfacet
  facet normal 0 0 1
    outer loop
      vertex -25 25 25
      vertex -7.289686274214117 6.845471059286885 25
      vertex -6.845471059286885 7.289686274214117 25
    endloop
  endfacet
  facet normal 0 0 1
    outer loop
      vertex -25 25 25
      vertex -6.845471059286885 7.289686274214117 25
      vertex -6.374239897486897 7.705132427757894 25
    endloop
  endfacet
  facet normal 0 0 1
    outer loop
      vertex -25 25 25
      vertex -6.374239897486897 7.705132427757894 25
      vertex -5.877852522924732 8.090169943749475 25
    endloop
  endfacet
  facet normal 0 0 1
    outer loop
      vertex -25 25 25
      vertex -5.877852522924732 8.090169943749475 25
      vertex -5.358267949789967 8.44327925502015 25
    endloop
  endfacet
  facet normal 0 0 1
    outer loop
      vertex -25 25 25
      vertex -5.358267949789967 8.44327925502015 25
      vertex -4.817536741017152 8.763066800438637 25
    endloop
  endfacet
  facet normal 0 0 1
    outer loop
      vertex -25 25 25
      vertex -4.817536741017152 8.763066800438637 25
      vertex -4.257792915650727 9.048270524660195 25
    endloop
  endfacet
  facet normal 0 0 1
    outer loop
      vertex -25 25 25
      vertex -4.257792915650727 9.048270524660195 25
      vertex -3.6812455268467787 9.297764858882514 25
    endloop
  endfacet
  facet normal 0 0 1
    outer loop
      vertex -25 25 25
      vertex -3.6812455268467787 9.297764858882514 25
      vertex -3.090169943749474 9.510565162951535 25
    endloop
  endfacet
  facet normal 0 0 1
    outer loop
      vertex -25 25 25
      vertex -3.090169943749474 9.510565162951535 25
      vertex -2.4868988716485485 9.68583161128631 25
    endloop
  endfacet
  facet normal 0 0 1
    outer loop
      vertex -25 25 25
      vertex -2.4868988716485485 9.68583161128631 25
      vertex -1.8738131458572458 9.822872507286887 25
    endloop
  endfacet
  facet normal 0 0 1
    outer loop
      vertex -25 25 25
      vertex -1.8738131458572458 9.822872507286887 25
      vertex -1.2533323356430428 9.921147013144779 25
    endloop
  endfacet
  facet normal 0 0 1
    outer loop
      vertex -25 25 25
      vertex -1.2533323356430428 9.921147013144779 25
      vertex -0.6279051952931327 9.980267284282716 25
    endloop
  endfacet
  facet normal 0 0 1
    outer loop
      vertex -25 25 25
      vertex -0.6279051952931327 9.980267284282716 25
      vertex 0 10 25
    endloop
  endfacet
  facet normal 0 0 1
    outer loop
      vertex -25 25 25
      vertex 0 10 25
      vertex 0.6279051952931327 9.980267284282716 25
    endloop
  endfacet
  facet normal 0 0 1
    outer loop
      vertex -25 25 25
      vertex 0.6279051952931327 9.980267284282716 25
      vertex 1.2533323356430428 9.921147013144779 25
    endloop
  endfacet
  facet normal 0 0 1
    outer loop
      vertex -25 25 25
      vertex 1.2533323356430428 9.921147013144779 25
      vertex 1.8738131458572458 9.822872507286887 25
    endloop
  endfacet
  facet normal 0 0 1
    outer loop
      vertex -25 25 25
      vertex 1.8738131458572458 9.822872507286887 25
      vertex 2.4868988716485485 9.68583161128631 25
    endloop
  endfacet
  facet normal 0 0 1
    outer loop
      vertex -25 25 25
      vertex 2.4868988716485485 9.68583161128631 25
      vertex 3.090169943749474 9.510565162951535 25
    endloop
  endfacet
  facet normal 0 0 -1
    outer loop
      vertex -25 -25 -25
      vertex 3.090169943749474 -9.510565162951535 -25
      vertex 25 -25 -25
    endloop
  endfacet
  facet normal 0 0 -1
    outer loop
      vertex 25 -25 -25
      vertex 3.090169943749474 -9.510565162951535 -25
      vertex 3.6812455268467836 -9.297764858882513 -25
    endloop
  endfacet
  facet normal 0 0 -1
    outer loop
      vertex 25 -25 -25
      vertex 3.6812455268467836 -9.297764858882513 -25
      vertex 4.257792915650724 -9.048270524660197 -25
    endloop
  endfacet
  facet normal 0 0 -1
    outer loop
      vertex 25 -25 -25
      vertex 4.257792915650724 -9.048270524660197 -25
      vertex 4.817536741017154 -8.763066800438635 -25
    endloop
  endfacet
  facet normal 0 0 -1
    outer loop
      vertex 25 -25 -25
      vertex 4.817536741017154 -8.763066800438635 -25
      vertex 5.358267949789962 -8.443279255020153 -25
    endloop
  endfacet
  facet normal 0 0 -1
    outer loop
      vertex 25 -25 -25
      vertex 5.358267949789962 -8.443279255020153 -25
      vertex 5.877852522924732 -8.090169943749475 -25
    endloop
  endfacet
  facet normal 0 0 -1
    outer loop
      vertex 25 -25 -25
      vertex 5.877852522924732 -8.090169943749475 -25
      vertex 6.3742398974869 -7.70513242775789 -25
    endloop
  endfacet
  facet normal 0 -1 0
    outer loop
      vertex -25 -25 -25
      vertex 25 -25 -25
      vertex 25 -25 25
    endloop
  endfacet
  facet normal 0 0 -1
    outer loop
      vertex 25 -25 -25
      vertex 6.3742398974869 -7.70513242775789 -25
      vertex 6.845471059286885 -7.289686274214117 -25
    endloop
  endfacet
  facet normal 0 0 -1
    outer loop
      vertex 25 -25 -25
      vertex 6.845471059286885 -7.289686274214117 -25
      vertex 7.289686274214117 -6.845471059286885 -25
    endloop
  endfacet
  facet normal 0 0 -1
    outer loop
      vertex 25 -25 -25
      vertex 7.289686274214117 -6.845471059286885 -25
      vertex 7.70513242775789 -6.3742398974869 -25
    endloop
  endfacet
  facet normal 0 0 -1
    outer loop
      vertex 25 -25 -25
      vertex 7.70513242775789 -6.3742398974869 -25
      vertex 8.090169943749475 -5.877852522924732 -25
    endloop
  endfacet
  facet normal 0 0 -1
    outer loop
      vertex 25 -25 -25
      vertex 8.090169943749475 -5.877852522924732 -25
      vertex 8.443279255020153 -5.358267949789962 -25
    endloop
  endfacet
  facet normal 0 0 -1
    outer loop
      vertex 25 -25 -25
      vertex 8.443279255020153 -5.358267949789962 -25
      vertex 8.763066800438635 -4.817536741017154 -25
    endloop
  endfacet
  facet normal 0 0 -1
    outer loop
      vertex 25 -25 -25
      vertex 8.763066800438635 -4.817536741017154 -25
      vertex 9.048270524660197 -4.257792915650724 -25
    endloop
  endfacet
  facet normal 0 0 -1
    outer loop
      vertex 25 -25 -25
      vertex 9.048270524660197 -4.257792915650724 -25
      vertex 9.297764858882513 -3.6812455268467836 -25
    endloop
  endfacet
  facet normal 0 0 -1
    outer loop
      vertex 25 -25 -25
      vertex 9.297764858882513 -3.6812455268467836 -25
      vertex 9.510565162951535 -3.090169943749474 -25
    endloop
  endfacet
  facet normal 0 0 -1
    outer loop
      vertex 25 -25 -25
      vertex 9.510565162951535 -3.090169943749474 -25
      vertex 9.685831611286313 -2.4868988716485445 -25
    endloop
  endfacet
  facet normal 0 0 -1
    outer loop
      vertex 25 -25 -25
      vertex 9.685831611286313 -2.4868988716485445 -25
      vertex 9.822872507286887 -1.8738131458572482 -25
    endloop
  endfacet
  facet normal 0 0 -1
    outer loop
      vertex 25 -25 -25
      vertex 9.822872507286887 -1.8738131458572482 -25
      vertex 9.921147013144779 -1.2533323356430406 -25
    endloop
  endfacet
  facet normal 0 0 -1
    outer loop
      vertex 25 -25 -25
      vertex 9.921147013144779 -1.2533323356430406 -25
      vertex 9.980267284282716 -0.6279051952931376 -25
    endloop
  endfacet
  facet normal 0 0 -1
    outer loop
      vertex 25 -25 -25
      vertex 9.980267284282716 -0.6279051952931376 -25
      vertex 10 0 -25
    endloop
  endfacet
  facet normal 0 0 -1
    outer loop
      vertex 25 -25 -25
      vertex 10 0 -25
      vertex 9.980267284282716 0.6279051952931337 -25
    endloop
  endfacet
  facet normal 0 0 -1
    outer loop
      vertex 25 -25 -25
      vertex 9.822872507286887 1.8738131458572462 -25
      vertex 9.68583161128631 2.486898871648548 -25
    endloop
  endfacet
  facet normal 0 0 -1
    outer loop
      vertex 25 -25 -25
      vertex 9.68583161128631 2.486898871648548 -25
      vertex 9.510565162951535 3.090169943749474 -25
    endloop
  endfacet
  facet normal 0 0 -1
    outer loop
      vertex 25 -25 -25
      vertex 9.980267284282716 0.6279051952931337 -25
      vertex 9.921147013144779 1.2533323356430426 -25
    endloop
  endfacet
  facet normal 0 0 -1
    outer loop
      vertex 25 -25 -25
      vertex 9.921147013144779 1.2533323356430426 -25
      vertex 9.822872507286887 1.8738131458572462 -25
    endloop
  endfacet
  facet normal 1 0 0
    outer loop
      vertex 25 -25 -25
      vertex 25 25 -25
      vertex 25 -25 25
    endloop
  endfacet
  facet normal 0 0 1
    outer loop
      vertex -25 -25 25
      vertex 25 -25 25
      vertex 3.090169943749474 -9.510565162951535 25
    endloop
  endfacet
  facet normal 0 0 1
    outer loop
      vertex 25 -25 25
      vertex 3.6812455268467836 -9.297764858882513 25
      vertex 3.090169943749474 -9.510565162951535 25
    endloop
  endfacet
  facet normal 0 0 1
    outer loop
      vertex 25 -25 25
      vertex 4.257792915650724 -9.048270524660197 25
      vertex 3.6812455268467836 -9.297764858882513 25
    endloop
  endfacet
  facet normal 0 0 1
    outer loop
      vertex 25 -25 25
      vertex 4.817536741017154 -8.763066800438635 25
      vertex 4.257792915650724 -9.048270524660197 25
    endloop
  endfacet
  facet normal 0 0 1
    outer loop
      vertex 25 -25 25
      vertex 5.358267949789962 -8.443279255020153 25
      vertex 4.817536741017154 -8.763066800438635 25
    endloop
  endfacet
  facet normal 0 0 1
    outer loop
      vertex 25 -25 25
      vertex 5.877852522924732 -8.090169943749475 25
      vertex 5.358267949789962 -8.443279255020153 25
    endloop
  endfacet
  facet normal 0 0 1
    outer loop
      vertex 25 -25 25
      vertex 6.3742398974869 -7.70513242775789 25
      vertex 5.877852522924732 -8.090169943749475 25
    endloop
  endfacet
  facet normal 0 0 1
    outer loop
      vertex 25 -25 25
      vertex 6.845471059286885 -7.289686274214117 25
      vertex 6.3742398974869 -7.70513242775789 25
    endloop
  endfacet
  facet normal 0 0 1
    outer loop
      vertex 25 -25 25
      vertex 7.289686274214117 -6.845471059286885 25
      vertex 6.845471059286885 -7.289686274214117 25
    endloop
  endfacet
  facet normal 0 0 1
    outer loop
      vertex 25 -25 25
      vertex 7.70513242775789 -6.3742398974869 25
      vertex 7.289686274214117 -6.845471059286885 25
    endloop
  endfacet
  facet normal 0 0 1
    outer loop
      vertex 25 -25 25
      vertex 8.090169943749475 -5.877852522924732 25
      vertex 7.70513242775789 -6.3742398974869 25
    endloop
  endfacet
  facet normal 0 0 1
    outer loop
      vertex 25 -25 25
      vertex 8.443279255020153 -5.358267949789962 25
      vertex 8.090169943749475 -5.877852522924732 25
    endloop
  endfacet
  facet normal 0 0 1
    outer loop
      vertex 25 -25 25
      vertex 8.763066800438635 -4.817536741017154 25
      vertex 8.443279255020153 -5.358267949789962 25
    endloop
  endfacet
  facet normal 0 0 1
    outer loop
      vertex 25 -25 25
      vertex 9.048270524660197 -4.257792915650724 25
      vertex 8.763066800438635 -4.817536741017154 25
    endloop
  endfacet
  facet normal 0 0 1
    outer loop
      vertex 25 -25 25
      vertex 9.297764858882513 -3.6812455268467836 25
      vertex 9.048270524660197 -4.257792915650724 25
    endloop
  endfacet
  facet normal 0 0 1
    outer loop
      vertex 25 -25 25
      vertex 9.510565162951535 -3.090169943749474 25
      vertex 9.297764858882513 -3.6812455268467836 25
    endloop
  endfacet
  facet normal 0 0 1
    outer loop
      vertex 25 -25 25
      vertex 25 25 25
      vertex 9.510565162951535 -3.090169943749474 25
    endloop
  endfacet
  facet normal 0 0 -1
    outer loop
      vertex -25 25 -25
      vertex 25 25 -25
      vertex 3.090169943749474 9.510565162951535 -25
    endloop
  endfacet
  facet normal 0 0 -1
    outer loop
      vertex 25 25 -25
      vertex 3.6812455268467787 9.297764858882514 -25
      vertex 3.090169943749474 9.510565162951535 -25
    endloop
  endfacet
  facet normal 0 0 -1
    outer loop
      vertex 25 25 -25
      vertex 5.877852522924732 8.090169943749475 -25
      vertex 5.358267949789966 8.443279255020151 -25
    endloop
  endfacet
  facet normal 0 0 -1
    outer loop
      vertex 25 25 -25
      vertex 6.3742398974868975 7.705132427757891 -25
      vertex 5.877852522924732 8.090169943749475 -25
    endloop
  endfacet
  facet normal 0 0 -1
    outer loop
      vertex 25 25 -25
      vertex 4.257792915650727 9.048270524660195 -25
      vertex 3.6812455268467787 9.297764858882514 -25
    endloop
  endfacet
  facet normal 0 0 -1
    outer loop
      vertex 25 25 -25
      vertex 4.817536741017152 8.763066800438637 -25
      vertex 4.257792915650727 9.048270524660195 -25
    endloop
  endfacet
  facet normal 0 0 -1
    outer loop
      vertex 25 25 -25
      vertex 5.358267949789966 8.443279255020151 -25
      vertex 4.817536741017152 8.763066800438637 -25
    endloop
  endfacet
  facet normal 0 0 -1
    outer loop
      vertex 25 25 -25
      vertex 8.090169943749475 5.877852522924732 -25
      vertex 7.705132427757891 6.3742398974868975 -25
    endloop
  endfacet
  facet normal 0 0 -1
    outer loop
      vertex 25 25 -25
      vertex 8.443279255020151 5.358267949789966 -25
      vertex 8.090169943749475 5.877852522924732 -25
    endloop
  endfacet
  facet normal 0 0 -1
    outer loop
      vertex 25 25 -25
      vertex 9.510565162951535 3.090169943749474 -25
      vertex 9.297764858882513 3.6812455268467796 -25
    endloop
  endfacet
  facet normal 0 0 -1
    outer loop
      vertex 25 25 -25
      vertex 9.297764858882513 3.6812455268467796 -25
      vertex 9.048270524660197 4.257792915650727 -25
    endloop
  endfacet
  facet normal 0 0 -1
    outer loop
      vertex 25 25 -25
      vertex 9.048270524660197 4.257792915650727 -25
      vertex 8.763066800438637 4.817536741017153 -25
    endloop
  endfacet
  facet normal 0 0 -1
    outer loop
      vertex 25 25 -25
      vertex 8.763066800438637 4.817536741017153 -25
      vertex 8.443279255020151 5.358267949789966 -25
    endloop
  endfacet
  facet normal 0 0 -1
    outer loop
      vertex 25 -25 -25
      vertex 9.510565162951535 3.090169943749474 -25
      vertex 25 25 -25
    endloop
  endfacet
  facet normal 0 0 -1
    outer loop
      vertex 25 25 -25
      vertex 7.289686274214116 6.845471059286887 -25
      vertex 6.845471059286887 7.289686274214116 -25
    endloop
  endfacet
  facet normal 0 0 -1
    outer loop
      vertex 25 25 -25
      vertex 6.845471059286887 7.289686274214116 -25
      vertex 6.3742398974868975 7.705132427757891 -25
    endloop
  endfacet
  facet normal 0 0 -1
    outer loop
      vertex 25 25 -25
      vertex 7.705132427757891 6.3742398974868975 -25
      vertex 7.289686274214116 6.845471059286887 -25
    endloop
  endfacet
  facet normal 0 1 0
    outer loop
      vertex -25 25 25
      vertex 25 25 25
      vertex 25 25 -25
    endloop
  endfacet
  facet normal 0 0 1
    outer loop
      vertex -25 25 25
      vertex 3.090169943749474 9.510565162951535 25
      vertex 25 25 25
    endloop
  endfacet
  facet normal 0 0 1
    outer loop
      vertex 25 25 25
      vertex 3.090169943749474 9.510565162951535 25
      vertex 3.6812455268467787 9.297764858882514 25
    endloop
  endfacet
  facet normal 0 0 1
    outer loop
      vertex 25 25 25
      vertex 5.358267949789966 8.443279255020151 25
      vertex 5.877852522924732 8.090169943749475 25
    endloop
  endfacet
  facet normal 0 0 1
    outer loop
      vertex 25 25 25
      vertex 5.877852522924732 8.090169943749475 25
      vertex 6.3742398974868975 7.705132427757891 25
    endloop
  endfacet
  facet normal 0 0 1
    outer loop
      vertex 25 25 25
      vertex 3.6812455268467787 9.297764858882514 25
      vertex 4.257792915650727 9.048270524660195 25
    endloop
  endfacet
  facet normal 0 0 1
    outer loop
      vertex 25 25 25
      vertex 4.257792915650727 9.048270524660195 25
      vertex 4.817536741017152 8.763066800438637 25
    endloop
  endfacet
  facet normal 0 0 1
    outer loop
      vertex 25 25 25
      vertex 4.817536741017152 8.763066800438637 25
      vertex 5.358267949789966 8.443279255020151 25
    endloop
  endfacet
  facet normal 1 0 0
    outer loop
      vertex 25 -25 25
      vertex 25 25 -25
      vertex 25 25 25
    endloop
  endfacet
  facet normal 0 0 1
    outer loop
      vertex 25 25 25
      vertex 9.685831611286313 -2.4868988716485445 25
      vertex 9.510565162951535 -3.090169943749474 25
    endloop
  endfacet
  facet normal 0 0 1
    outer loop
      vertex 25 25 25
      vertex 9.822872507286887 -1.8738131458572482 25
      vertex 9.685831611286313 -2.4868988716485445 25
    endloop
  endfacet
  facet normal 0 0 1
    outer loop
      vertex 25 25 25
      vertex 9.921147013144779 -1.2533323356430406 25
      vertex 9.822872507286887 -1.8738131458572482 25
    endloop
  endfacet
  facet normal 0 0 1
    outer loop
      vertex 25 25 25
      vertex 9.980267284282716 -0.6279051952931376 25
      vertex 9.921147013144779 -1.2533323356430406 25
    endloop
  endfacet
  facet normal 0 0 1
    outer loop
      vertex 25 25 25
      vertex 10 0 25
      vertex 9.980267284282716 -0.6279051952931376 25
    endloop
  endfacet
  facet normal 0 0 1
    outer loop
      vertex 25 25 25
      vertex 9.980267284282716 0.6279051952931337 25
      vertex 10 0 25
    endloop
  endfacet
  facet normal 0 0 1
    outer loop
      vertex 25 25 25
      vertex 9.921147013144779 1.2533323356430426 25
      vertex 9.980267284282716 0.6279051952931337 25
    endloop
  endfacet
  facet normal 0 0 1
    outer loop
      vertex 25 25 25
      vertex 7.705132427757891 6.3742398974868975 25
      vertex 8.090169943749475 5.877852522924732 25
    endloop
  endfacet
  facet normal 0 0 1
    outer loop
      vertex 25 25 25
      vertex 8.090169943749475 5.877852522924732 25
      vertex 8.443279255020151 5.358267949789966 25
    endloop
  endfacet
  facet normal 0 0 1
    outer loop
      vertex 25 25 25
      vertex 9.68583161128631 2.486898871648548 25
      vertex 9.822872507286887 1.8738131458572462 25
    endloop
  endfacet
  facet normal 0 0 1
    outer loop
      vertex 25 25 25
      vertex 9.510565162951535 3.090169943749474 25
      vertex 9.68583161128631 2.486898871648548 25
    endloop
  endfacet
  facet normal 0 0 1
    outer loop
      vertex 25 25 25
      vertex 9.297764858882513 3.6812455268467796 25
      vertex 9.510565162951535 3.090169943749474 25
    endloop
  endfacet
  facet normal 0 0 1
    outer loop
      vertex 25 25 25
      vertex 9.822872507286887 1.8738131458572462 25
      vertex 9.921147013144779 1.2533323356430426 25
    endloop
  endfacet
  facet normal 0 0 1
    outer loop
      vertex 25 25 25
      vertex 9.048270524660197 4.257792915650727 25
      vertex 9.297764858882513 3.6812455268467796 25
    endloop
  endfacet
  facet normal 0 0 1
    outer loop
      vertex 25 25 25
      vertex 8.763066800438637 4.817536741017153 25
      vertex 9.048270524660197 4.257792915650727 25
    endloop
  endfacet
  facet normal 0 0 1
    outer loop
      vertex 25 25 25
      vertex 8.443279255020151 5.358267949789966 25
      vertex 8.763066800438637 4.817536741017153 25
    endloop
  endfacet
  facet normal 0 0 1
    outer loop
      vertex 25 25 25
      vertex 6.845471059286887 7.289686274214116 25
      vertex 7.289686274214116 6.845471059286887 25
    endloop
  endfacet
  facet normal 0 0 1
    outer loop
      vertex 25 25 25
      vertex 6.3742398974868975 7.705132427757891 25
      vertex 6.845471059286887 7.289686274214116 25
    endloop
  endfacet
  facet normal 0 0 1
    outer loop
      vertex 25 25 25
      vertex 7.289686274214116 6.845471059286887 25
      vertex 7.705132427757891 6.3742398974868975 25
    endloop
  endfacet
  facet normal 0.7501110696304585 0.661311865323653 0
    outer loop
      vertex -7.705132427757894 -6.374239897486897 25
      vertex -7.289686274214117 -6.845471059286885 -25
      vertex -7.705132427757894 -6.374239897486897 -25
    endloop
  endfacet
  facet normal 0.7071067811865475 0.7071067811865475 0
    outer loop
      vertex -6.845471059286885 -7.289686274214117 -25
      vertex -7.289686274214117 -6.845471059286885 -25
      vertex -7.289686274214117 -6.845471059286885 25
    endloop
  endfacet
  facet normal 0.661311865323653 0.7501110696304585 0
    outer loop
      vertex -6.374239897486897 -7.705132427757894 -25
      vertex -6.845471059286885 -7.289686274214117 -25
      vertex -6.374239897486897 -7.705132427757894 25
    endloop
  endfacet
  facet normal 0.940880768954226 0.33873792024528976 0
    outer loop
      vertex -9.510565162951535 -3.090169943749474 25
      vertex -9.297764858882514 -3.6812455268467787 -25
      vertex -9.510565162951535 -3.090169943749474 -25
    endloop
  endfacet
  facet normal 0.9602936856769427 0.27899110603923055 0
    outer loop
      vertex -9.68583161128631 -2.4868988716485485 25
      vertex -9.510565162951535 -3.090169943749474 -25
      vertex -9.68583161128631 -2.4868988716485485 -25
    endloop
  endfacet
  facet normal 0.9759167619387472 0.21814324139654323 0
    outer loop
      vertex -9.822872507286887 -1.8738131458572482 25
      vertex -9.68583161128631 -2.4868988716485485 -25
      vertex -9.822872507286887 -1.8738131458572482 -25
    endloop
  endfacet
  facet normal 0.9876883405951378 0.1564344650402314 0
    outer loop
      vertex -9.921147013144779 -1.2533323356430406 25
      vertex -9.822872507286887 -1.8738131458572482 -25
      vertex -9.921147013144779 -1.2533323356430406 -25
    endloop
  endfacet
  facet normal 0.99556196460308 0.09410831331851403 0
    outer loop
      vertex -9.980267284282716 -0.6279051952931327 25
      vertex -9.921147013144779 -1.2533323356430406 -25
      vertex -9.980267284282716 -0.6279051952931327 -25
    endloop
  endfacet
  facet normal 0.9995065603657316 0.03141075907812769 0
    outer loop
      vertex -10 0 25
      vertex -9.980267284282716 -0.6279051952931327 -25
      vertex -10 0 -25
    endloop
  endfacet
  facet normal 0.8607420270039435 0.5090414157503717 0
    outer loop
      vertex -8.763066800438635 -4.817536741017154 25
      vertex -8.44327925502015 -5.358267949789967 -25
      vertex -8.763066800438635 -4.817536741017154 -25
    endloop
  endfacet
  facet normal 0.8270805742745627 0.5620833778521293 0
    outer loop
      vertex -8.44327925502015 -5.358267949789967 25
      vertex -8.090169943749475 -5.877852522924732 -25
      vertex -8.44327925502015 -5.358267949789967 -25
    endloop
  endfacet
  facet normal 0.7901550123756907 0.612907053652976 0
    outer loop
      vertex -8.090169943749475 -5.877852522924732 25
      vertex -7.705132427757894 -6.374239897486897 -25
      vertex -8.090169943749475 -5.877852522924732 -25
    endloop
  endfacet
  facet normal 0.8910065241883673 0.4539904997395479 0
    outer loop
      vertex -9.048270524660197 -4.257792915650724 25
      vertex -8.763066800438635 -4.817536741017154 -25
      vertex -9.048270524660197 -4.257792915650724 -25
    endloop
  endfacet
  facet normal 0.9177546256839815 0.39714789063477995 0
    outer loop
      vertex -9.297764858882514 -3.6812455268467787 25
      vertex -9.048270524660197 -4.257792915650724 -25
      vertex -9.297764858882514 -3.6812455268467787 -25
    endloop
  endfacet
  facet normal 0.33873792024528976 0.940880768954226 0
    outer loop
      vertex -3.090169943749474 -9.510565162951535 -25
      vertex -3.6812455268467787 -9.297764858882514 -25
      vertex -3.090169943749474 -9.510565162951535 25
    endloop
  endfacet
  facet normal 0.612907053652976 0.7901550123756907 0
    outer loop
      vertex -5.877852522924732 -8.090169943749475 -25
      vertex -6.374239897486897 -7.705132427757894 -25
      vertex -5.877852522924732 -8.090169943749475 25
    endloop
  endfacet
  facet normal 0.5620833778521293 0.8270805742745627 0
    outer loop
      vertex -5.358267949789967 -8.44327925502015 -25
      vertex -5.877852522924732 -8.090169943749475 -25
      vertex -5.358267949789967 -8.44327925502015 25
    endloop
  endfacet
  facet normal 0.5090414157503717 0.8607420270039435 0
    outer loop
      vertex -4.817536741017154 -8.763066800438635 -25
      vertex -5.358267949789967 -8.44327925502015 -25
      vertex -4.817536741017154 -8.763066800438635 25
    endloop
  endfacet
  facet normal 0.4539904997395479 0.8910065241883673 0
    outer loop
      vertex -4.257792915650724 -9.048270524660197 -25
      vertex -4.817536741017154 -8.763066800438635 -25
      vertex -4.257792915650724 -9.048270524660197 25
    endloop
  endfacet
  facet normal 0.39714789063477995 0.9177546256839815 0
    outer loop
      vertex -3.6812455268467787 -9.297764858882514 -25
      vertex -4.257792915650724 -9.048270524660197 -25
      vertex -3.6812455268467787 -9.297764858882514 25
    endloop
  endfacet
  facet normal 0.27899110603923055 0.9602936856769427 0
    outer loop
      vertex -2.4868988716485485 -9.68583161128631 -25
      vertex -3.090169943749474 -9.510565162951535 -25
      vertex -2.4868988716485485 -9.68583161128631 25
    endloop
  endfacet
  facet normal 0.21814324139654323 0.9759167619387472 0
    outer loop
      vertex -1.8738131458572482 -9.822872507286887 -25
      vertex -2.4868988716485485 -9.68583161128631 -25
      vertex -1.8738131458572482 -9.822872507286887 25
    endloop
  endfacet
  facet normal 0.1564344650402314 0.9876883405951378 0
    outer loop
      vertex -1.2533323356430406 -9.921147013144779 -25
      vertex -1.8738131458572482 -9.822872507286887 -25
      vertex -1.2533323356430406 -9.921147013144779 25
    endloop
  endfacet
  facet normal 0.09410831331851477 0.9955619646030799 0
    outer loop
      vertex -0.6279051952931376 -9.980267284282716 -25
      vertex -1.2533323356430406 -9.921147013144779 -25
      vertex -0.6279051952931376 -9.980267284282716 25
    endloop
  endfacet
  facet normal 0.031410759078127445 0.9995065603657316 0
    outer loop
      vertex 0 -10 -25
      vertex -0.6279051952931376 -9.980267284282716 -25
      vertex 0 -10 25
    endloop
  endfacet
  facet normal 0.7501110696304585 0.661311865323653 0
    outer loop
      vertex -7.705132427757894 -6.374239897486897 25
      vertex -7.289686274214117 -6.845471059286885 25
      vertex -7.289686274214117 -6.845471059286885 -25
    endloop
  endfacet
  facet normal 0.661311865323653 0.7501110696304585 0
    outer loop
      vertex -6.845471059286885 -7.289686274214117 25
      vertex -6.374239897486897 -7.705132427757894 25
      vertex -6.845471059286885 -7.289686274214117 -25
    endloop
  endfacet
  facet normal 0.7071067811865475 0.7071067811865475 0
    outer loop
      vertex -7.289686274214117 -6.845471059286885 25
      vertex -6.845471059286885 -7.289686274214117 25
      vertex -6.845471059286885 -7.289686274214117 -25
    endloop
  endfacet
  facet normal 0.9602936856769427 0.27899110603923055 0
    outer loop
      vertex -9.68583161128631 -2.4868988716485485 25
      vertex -9.510565162951535 -3.090169943749474 25
      vertex -9.510565162951535 -3.090169943749474 -25
    endloop
  endfacet
  facet normal 0.9876883405951378 0.1564344650402314 0
    outer loop
      vertex -9.921147013144779 -1.2533323356430406 25
      vertex -9.822872507286887 -1.8738131458572482 25
      vertex -9.822872507286887 -1.8738131458572482 -25
    endloop
  endfacet
  facet normal 0.9759167619387472 0.21814324139654323 0
    outer loop
      vertex -9.822872507286887 -1.8738131458572482 25
      vertex -9.68583161128631 -2.4868988716485485 25
      vertex -9.68583161128631 -2.4868988716485485 -25
    endloop
  endfacet
  facet normal 0.99556196460308 0.09410831331851403 0
    outer loop
      vertex -9.980267284282716 -0.6279051952931327 25
      vertex -9.921147013144779 -1.2533323356430406 25
      vertex -9.921147013144779 -1.2533323356430406 -25
    endloop
  endfacet
  facet normal 0.9995065603657316 0.03141075907812769 0
    outer loop
      vertex -10 0 25
      vertex -9.980267284282716 -0.6279051952931327 25
      vertex -9.980267284282716 -0.6279051952931327 -25
    endloop
  endfacet
  facet normal 0.8270805742745627 0.5620833778521293 0
    outer loop
      vertex -8.44327925502015 -5.358267949789967 25
      vertex -8.090169943749475 -5.877852522924732 25
      vertex -8.090169943749475 -5.877852522924732 -25
    endloop
  endfacet
  facet normal 0.7901550123756907 0.612907053652976 0
    outer loop
      vertex -8.090169943749475 -5.877852522924732 25
      vertex -7.705132427757894 -6.374239897486897 25
      vertex -7.705132427757894 -6.374239897486897 -25
    endloop
  endfacet
  facet normal 0.8607420270039435 0.5090414157503717 0
    outer loop
      vertex -8.763066800438635 -4.817536741017154 25
      vertex -8.44327925502015 -5.358267949789967 25
      vertex -8.44327925502015 -5.358267949789967 -25
    endloop
  endfacet
  facet normal 0.9177546256839815 0.39714789063477995 0
    outer loop
      vertex -9.297764858882514 -3.6812455268467787 25
      vertex -9.048270524660197 -4.257792915650724 25
      vertex -9.048270524660197 -4.257792915650724 -25
    endloop
  endfacet
  facet normal 0.8910065241883673 0.4539904997395479 0
    outer loop
      vertex -9.048270524660197 -4.257792915650724 25
      vertex -8.763066800438635 -4.817536741017154 25
      vertex -8.763066800438635 -4.817536741017154 -25
    endloop
  endfacet
  facet normal 0.940880768954226 0.33873792024528976 0
    outer loop
      vertex -9.510565162951535 -3.090169943749474 25
      vertex -9.297764858882514 -3.6812455268467787 25
      vertex -9.297764858882514 -3.6812455268467787 -25
    endloop
  endfacet
  facet normal 0.612907053652976 0.7901550123756907 0
    outer loop
      vertex -6.374239897486897 -7.705132427757894 25
      vertex -5.877852522924732 -8.090169943749475 25
      vertex -6.374239897486897 -7.705132427757894 -25
    endloop
  endfacet
  facet normal 0.5620833778521293 0.8270805742745627 0
    outer loop
      vertex -5.877852522924732 -8.090169943749475 25
      vertex -5.358267949789967 -8.44327925502015 25
      vertex -5.877852522924732 -8.090169943749475 -25
    endloop
  endfacet
  facet normal 0.5090414157503717 0.8607420270039435 0
    outer loop
      vertex -5.358267949789967 -8.44327925502015 25
      vertex -4.817536741017154 -8.763066800438635 25
      vertex -5.358267949789967 -8.44327925502015 -25
    endloop
  endfacet
  facet normal 0.4539904997395479 0.8910065241883673 0
    outer loop
      vertex -4.817536741017154 -8.763066800438635 25
      vertex -4.257792915650724 -9.048270524660197 25
      vertex -4.817536741017154 -8.763066800438635 -25
    endloop
  endfacet
  facet normal 0.39714789063477995 0.9177546256839815 0
    outer loop
      vertex -4.257792915650724 -9.048270524660197 25
      vertex -3.6812455268467787 -9.297764858882514 25
      vertex -4.257792915650724 -9.048270524660197 -25
    endloop
  endfacet
  facet normal 0.33873792024528976 0.940880768954226 0
    outer loop
      vertex -3.6812455268467787 -9.297764858882514 25
      vertex -3.090169943749474 -9.510565162951535 25
      vertex -3.6812455268467787 -9.297764858882514 -25
    endloop
  endfacet
  facet normal 0.27899110603923055 0.9602936856769427 0
    outer loop
      vertex -3.090169943749474 -9.510565162951535 25
      vertex -2.4868988716485485 -9.68583161128631 25
      vertex -3.090169943749474 -9.510565162951535 -25
    endloop
  endfacet
  facet normal 0.21814324139654323 0.9759167619387472 0
    outer loop
      vertex -2.4868988716485485 -9.68583161128631 25
      vertex -1.8738131458572482 -9.822872507286887 25
      vertex -2.4868988716485485 -9.68583161128631 -25
    endloop
  endfacet
  facet normal 0.1564344650402314 0.9876883405951378 0
    outer loop
      vertex -1.8738131458572482 -9.822872507286887 25
      vertex -1.2533323356430406 -9.921147013144779 25
      vertex -1.8738131458572482 -9.822872507286887 -25
    endloop
  endfacet
  facet normal 0.09410831331851477 0.9955619646030799 0
    outer loop
      vertex -1.2533323356430406 -9.921147013144779 25
      vertex -0.6279051952931376 -9.980267284282716 25
      vertex -1.2533323356430406 -9.921147013144779 -25
    endloop
  endfacet
  facet normal 0.031410759078127445 0.9995065603657316 0
    outer loop
      vertex -0.6279051952931376 -9.980267284282716 25
      vertex 0 -10 25
      vertex -0.6279051952931376 -9.980267284282716 -25
    endloop
  endfacet
  facet normal 0.9995065603657316 -0.03141075907812769 0
    outer loop
      vertex -9.980267284282716 0.6279051952931327 25
      vertex -10 0 -25
      vertex -9.980267284282716 0.6279051952931327 -25
    endloop
  endfacet
  facet normal 0.99556196460308 -0.09410831331851403 0
    outer loop
      vertex -9.921147013144779 1.2533323356430406 25
      vertex -9.980267284282716 0.6279051952931327 -25
      vertex -9.921147013144779 1.2533323356430406 -25
    endloop
  endfacet
  facet normal 0.9876883405951378 -0.1564344650402314 0
    outer loop
      vertex -9.822872507286887 1.8738131458572482 25
      vertex -9.921147013144779 1.2533323356430406 -25
      vertex -9.822872507286887 1.8738131458572482 -25
    endloop
  endfacet
  facet normal 0.9759167619387472 -0.21814324139654323 0
    outer loop
      vertex -9.68583161128631 2.4868988716485485 25
      vertex -9.822872507286887 1.8738131458572482 -25
      vertex -9.68583161128631 2.4868988716485485 -25
    endloop
  endfacet
  facet normal 0.9602936856769427 -0.27899110603923055 0
    outer loop
      vertex -9.510565162951535 3.090169943749474 25
      vertex -9.68583161128631 2.4868988716485485 -25
      vertex -9.510565162951535 3.090169943749474 -25
    endloop
  endfacet
  facet normal 0.940880768954226 -0.33873792024528976 0
    outer loop
      vertex -9.297764858882514 3.6812455268467787 25
      vertex -9.510565162951535 3.090169943749474 -25
      vertex -9.297764858882514 3.6812455268467787 -25
    endloop
  endfacet
  facet normal 0.9177546256839815 -0.39714789063477995 0
    outer loop
      vertex -9.048270524660197 4.257792915650724 25
      vertex -9.297764858882514 3.6812455268467787 -25
      vertex -9.048270524660197 4.257792915650724 -25
    endloop
  endfacet
  facet normal 0.8910065241883673 -0.4539904997395479 0
    outer loop
      vertex -8.763066800438635 4.817536741017154 25
      vertex -9.048270524660197 4.257792915650724 -25
      vertex -8.763066800438635 4.817536741017154 -25
    endloop
  endfacet
  facet normal 0.8607420270039435 -0.5090414157503717 0
    outer loop
      vertex -8.44327925502015 5.358267949789967 25
      vertex -8.763066800438635 4.817536741017154 -25
      vertex -8.44327925502015 5.358267949789967 -25
    endloop
  endfacet
  facet normal 0.8270805742745627 -0.5620833778521293 0
    outer loop
      vertex -8.090169943749475 5.877852522924732 25
      vertex -8.44327925502015 5.358267949789967 -25
      vertex -8.090169943749475 5.877852522924732 -25
    endloop
  endfacet
  facet normal 0.7901550123756907 -0.612907053652976 0
    outer loop
      vertex -7.705132427757894 6.374239897486897 25
      vertex -8.090169943749475 5.877852522924732 -25
      vertex -7.705132427757894 6.374239897486897 -25
    endloop
  endfacet
  facet normal 0.7501110696304585 -0.661311865323653 0
    outer loop
      vertex -7.289686274214117 6.845471059286885 25
      vertex -7.705132427757894 6.374239897486897 -25
      vertex -7.289686274214117 6.845471059286885 -25
    endloop
  endfacet
  facet normal 0.7071067811865475 -0.7071067811865475 0
    outer loop
      vertex -7.289686274214117 6.845471059286885 -25
      vertex -6.845471059286885 7.289686274214117 -25
      vertex -6.845471059286885 7.289686274214117 25
    endloop
  endfacet
  facet normal 0.661311865323653 -0.7501110696304585 0
    outer loop
      vertex -6.845471059286885 7.289686274214117 -25
      vertex -6.374239897486897 7.705132427757894 -25
      vertex -6.845471059286885 7.289686274214117 25
    endloop
  endfacet
  facet normal 0.612907053652976 -0.7901550123756907 0
    outer loop
      vertex -6.374239897486897 7.705132427757894 -25
      vertex -5.877852522924732 8.090169943749475 -25
      vertex -6.374239897486897 7.705132427757894 25
    endloop
  endfacet
  facet normal 0.5620833778521293 -0.8270805742745627 0
    outer loop
      vertex -5.877852522924732 8.090169943749475 -25
      vertex -5.358267949789967 8.44327925502015 -25
      vertex -5.877852522924732 8.090169943749475 25
    endloop
  endfacet
  facet normal 0.5090414157503725 -0.860742027003943 0
    outer loop
      vertex -5.358267949789967 8.44327925502015 -25
      vertex -4.817536741017152 8.763066800438637 -25
      vertex -5.358267949789967 8.44327925502015 25
    endloop
  endfacet
  facet normal 0.45399049973954625 -0.8910065241883681 0
    outer loop
      vertex -4.817536741017152 8.763066800438637 -25
      vertex -4.257792915650727 9.048270524660195 -25
      vertex -4.817536741017152 8.763066800438637 25
    endloop
  endfacet
  facet normal 0.3971478906347808 -0.9177546256839811 0
    outer loop
      vertex -4.257792915650727 9.048270524660195 -25
      vertex -3.6812455268467787 9.297764858882514 -25
      vertex -4.257792915650727 9.048270524660195 25
    endloop
  endfacet
  facet normal 0.33873792024528976 -0.940880768954226 0
    outer loop
      vertex -3.6812455268467787 9.297764858882514 -25
      vertex -3.090169943749474 9.510565162951535 -25
      vertex -3.6812455268467787 9.297764858882514 25
    endloop
  endfacet
  facet normal 0.27899110603923055 -0.9602936856769427 0
    outer loop
      vertex -3.090169943749474 9.510565162951535 -25
      vertex -2.4868988716485485 9.68583161128631 -25
      vertex -3.090169943749474 9.510565162951535 25
    endloop
  endfacet
  facet normal 0.21814324139654243 -0.9759167619387474 0
    outer loop
      vertex -2.4868988716485485 9.68583161128631 -25
      vertex -1.8738131458572458 9.822872507286887 -25
      vertex -2.4868988716485485 9.68583161128631 25
    endloop
  endfacet
  facet normal 0.15643446504023253 -0.9876883405951375 0
    outer loop
      vertex -1.8738131458572458 9.822872507286887 -25
      vertex -1.2533323356430428 9.921147013144779 -25
      vertex -1.8738131458572458 9.822872507286887 25
    endloop
  endfacet
  facet normal 0.09410831331851371 -0.9955619646030801 0
    outer loop
      vertex -1.2533323356430428 9.921147013144779 -25
      vertex -0.6279051952931327 9.980267284282716 -25
      vertex -1.2533323356430428 9.921147013144779 25
    endloop
  endfacet
  facet normal 0.03141075907812769 -0.9995065603657316 0
    outer loop
      vertex 0 10 -25
      vertex -0.6279051952931327 9.980267284282716 25
      vertex -0.6279051952931327 9.980267284282716 -25
    endloop
  endfacet
  facet normal 0.9995065603657316 -0.03141075907812769 0
    outer loop
      vertex -9.980267284282716 0.6279051952931327 25
      vertex -10 0 25
      vertex -10 0 -25
    endloop
  endfacet
  facet normal 0.99556196460308 -0.09410831331851403 0
    outer loop
      vertex -9.921147013144779 1.2533323356430406 25
      vertex -9.980267284282716 0.6279051952931327 25
      vertex -9.980267284282716 0.6279051952931327 -25
    endloop
  endfacet
  facet normal 0.9876883405951378 -0.1564344650402314 0
    outer loop
      vertex -9.822872507286887 1.8738131458572482 25
      vertex -9.921147013144779 1.2533323356430406 25
      vertex -9.921147013144779 1.2533323356430406 -25
    endloop
  endfacet
  facet normal 0.9759167619387472 -0.21814324139654323 0
    outer loop
      vertex -9.68583161128631 2.4868988716485485 25
      vertex -9.822872507286887 1.8738131458572482 25
      vertex -9.822872507286887 1.8738131458572482 -25
    endloop
  endfacet
  facet normal 0.9602936856769427 -0.27899110603923055 0
    outer loop
      vertex -9.510565162951535 3.090169943749474 25
      vertex -9.68583161128631 2.4868988716485485 25
      vertex -9.68583161128631 2.4868988716485485 -25
    endloop
  endfacet
  facet normal 0.940880768954226 -0.33873792024528976 0
    outer loop
      vertex -9.297764858882514 3.6812455268467787 25
      vertex -9.510565162951535 3.090169943749474 25
      vertex -9.510565162951535 3.090169943749474 -25
    endloop
  endfacet
  facet normal 0.9177546256839815 -0.39714789063477995 0
    outer loop
      vertex -9.048270524660197 4.257792915650724 25
      vertex -9.297764858882514 3.6812455268467787 25
      vertex -9.297764858882514 3.6812455268467787 -25
    endloop
  endfacet
  facet normal 0.8910065241883673 -0.4539904997395479 0
    outer loop
      vertex -8.763066800438635 4.817536741017154 25
      vertex -9.048270524660197 4.257792915650724 25
      vertex -9.048270524660197 4.257792915650724 -25
    endloop
  endfacet
  facet normal 0.8607420270039435 -0.5090414157503717 0
    outer loop
      vertex -8.44327925502015 5.358267949789967 25
      vertex -8.763066800438635 4.817536741017154 25
      vertex -8.763066800438635 4.817536741017154 -25
    endloop
  endfacet
  facet normal 0.8270805742745627 -0.5620833778521293 0
    outer loop
      vertex -8.090169943749475 5.877852522924732 25
      vertex -8.44327925502015 5.358267949789967 25
      vertex -8.44327925502015 5.358267949789967 -25
    endloop
  endfacet
  facet normal 0.7901550123756907 -0.612907053652976 0
    outer loop
      vertex -7.705132427757894 6.374239897486897 25
      vertex -8.090169943749475 5.877852522924732 25
      vertex -8.090169943749475 5.877852522924732 -25
    endloop
  endfacet
  facet normal 0.7501110696304585 -0.661311865323653 0
    outer loop
      vertex -7.289686274214117 6.845471059286885 25
      vertex -7.705132427757894 6.374239897486897 25
      vertex -7.705132427757894 6.374239897486897 -25
    endloop
  endfacet
  facet normal 0.7071067811865475 -0.7071067811865475 0
    outer loop
      vertex -6.845471059286885 7.289686274214117 25
      vertex -7.289686274214117 6.845471059286885 25
      vertex -7.289686274214117 6.845471059286885 -25
    endloop
  endfacet
  facet normal 0.661311865323653 -0.7501110696304585 0
    outer loop
      vertex -6.374239897486897 7.705132427757894 25
      vertex -6.845471059286885 7.289686274214117 25
      vertex -6.374239897486897 7.705132427757894 -25
    endloop
  endfacet
  facet normal 0.612907053652976 -0.7901550123756907 0
    outer loop
      vertex -5.877852522924732 8.090169943749475 25
      vertex -6.374239897486897 7.705132427757894 25
      vertex -5.877852522924732 8.090169943749475 -25
    endloop
  endfacet
  facet normal 0.5620833778521293 -0.8270805742745627 0
    outer loop
      vertex -5.358267949789967 8.44327925502015 25
      vertex -5.877852522924732 8.090169943749475 25
      vertex -5.358267949789967 8.44327925502015 -25
    endloop
  endfacet
  facet normal 0.5090414157503725 -0.860742027003943 0
    outer loop
      vertex -4.817536741017152 8.763066800438637 25
      vertex -5.358267949789967 8.44327925502015 25
      vertex -4.817536741017152 8.763066800438637 -25
    endloop
  endfacet
  facet normal 0.45399049973954625 -0.8910065241883681 0
    outer loop
      vertex -4.257792915650727 9.048270524660195 25
      vertex -4.817536741017152 8.763066800438637 25
      vertex -4.257792915650727 9.048270524660195 -25
    endloop
  endfacet
  facet normal 0.3971478906347808 -0.9177546256839811 0
    outer loop
      vertex -3.6812455268467787 9.297764858882514 25
      vertex -4.257792915650727 9.048270524660195 25
      vertex -3.6812455268467787 9.297764858882514 -25
    endloop
  endfacet
  facet normal 0.33873792024528976 -0.940880768954226 0
    outer loop
      vertex -3.090169943749474 9.510565162951535 25
      vertex -3.6812455268467787 9.297764858882514 25
      vertex -3.090169943749474 9.510565162951535 -25
    endloop
  endfacet
  facet normal 0.27899110603923055 -0.9602936856769427 0
    outer loop
      vertex -2.4868988716485485 9.68583161128631 25
      vertex -3.090169943749474 9.510565162951535 25
      vertex -2.4868988716485485 9.68583161128631 -25
    endloop
  endfacet
  facet normal 0.21814324139654243 -0.9759167619387474 0
    outer loop
      vertex -1.8738131458572458 9.822872507286887 25
      vertex -2.4868988716485485 9.68583161128631 25
      vertex -1.8738131458572458 9.822872507286887 -25
    endloop
  endfacet
  facet normal 0.15643446504023253 -0.9876883405951375 0
    outer loop
      vertex -1.2533323356430428 9.921147013144779 25
      vertex -1.8738131458572458 9.822872507286887 25
      vertex -1.2533323356430428 9.921147013144779 -25
    endloop
  endfacet
  facet normal 0.09410831331851371 -0.9955619646030801 0
    outer loop
      vertex -0.6279051952931327 9.980267284282716 25
      vertex -1.2533323356430428 9.921147013144779 25
      vertex -0.6279051952931327 9.980267284282716 -25
    endloop
  endfacet
  facet normal 0.03141075907812769 -0.9995065603657316 0
    outer loop
      vertex 0 10 -25
      vertex 0 10 25
      vertex -0.6279051952931327 9.980267284282716 25
    endloop
  endfacet
  facet normal -0.031410759078127445 0.9995065603657316 0
    outer loop
      vertex 0.6279051952931376 -9.980267284282716 -25
      vertex 0 -10 -25
      vertex 0.6279051952931376 -9.980267284282716 25
    endloop
  endfacet
  facet normal -0.09410831331851477 0.9955619646030799 0
    outer loop
      vertex 1.2533323356430406 -9.921147013144779 -25
      vertex 0.6279051952931376 -9.980267284282716 -25
      vertex 1.2533323356430406 -9.921147013144779 25
    endloop
  endfacet
  facet normal -0.1564344650402314 0.9876883405951378 0
    outer loop
      vertex 1.8738131458572482 -9.822872507286887 -25
      vertex 1.2533323356430406 -9.921147013144779 -25
      vertex 1.8738131458572482 -9.822872507286887 25
    endloop
  endfacet
  facet normal -0.21814324139654193 0.9759167619387477 0
    outer loop
      vertex 2.4868988716485445 -9.685831611286313 -25
      vertex 1.8738131458572482 -9.822872507286887 -25
      vertex 2.4868988716485445 -9.685831611286313 25
    endloop
  endfacet
  facet normal -0.27899110603923144 0.9602936856769425 0
    outer loop
      vertex 3.090169943749474 -9.510565162951535 -25
      vertex 2.4868988716485445 -9.685831611286313 -25
      vertex 3.090169943749474 -9.510565162951535 25
    endloop
  endfacet
  facet normal -0.3387379202452898 0.9408807689542261 0
    outer loop
      vertex 3.6812455268467836 -9.297764858882513 -25
      vertex 3.090169943749474 -9.510565162951535 -25
      vertex 3.6812455268467836 -9.297764858882513 25
    endloop
  endfacet
  facet normal -0.3971478906347804 0.9177546256839813 0
    outer loop
      vertex 4.257792915650724 -9.048270524660197 -25
      vertex 3.6812455268467836 -9.297764858882513 -25
      vertex 4.257792915650724 -9.048270524660197 25
    endloop
  endfacet
  facet normal -0.4539904997395479 0.8910065241883673 0
    outer loop
      vertex 4.817536741017154 -8.763066800438635 -25
      vertex 4.257792915650724 -9.048270524660197 -25
      vertex 4.817536741017154 -8.763066800438635 25
    endloop
  endfacet
  facet normal -0.5090414157503711 0.8607420270039436 0
    outer loop
      vertex 5.358267949789962 -8.443279255020153 -25
      vertex 4.817536741017154 -8.763066800438635 -25
      vertex 5.358267949789962 -8.443279255020153 25
    endloop
  endfacet
  facet normal -0.5620833778521291 0.8270805742745628 0
    outer loop
      vertex 5.877852522924732 -8.090169943749475 -25
      vertex 5.358267949789962 -8.443279255020153 -25
      vertex 5.877852522924732 -8.090169943749475 25
    endloop
  endfacet
  facet normal -0.6129070536529768 0.7901550123756902 0
    outer loop
      vertex 6.3742398974869 -7.70513242775789 -25
      vertex 5.877852522924732 -8.090169943749475 -25
      vertex 6.3742398974869 -7.70513242775789 25
    endloop
  endfacet
  facet normal -0.6613118653236526 0.7501110696304588 0
    outer loop
      vertex 6.845471059286885 -7.289686274214117 -25
      vertex 6.3742398974869 -7.70513242775789 -25
      vertex 6.845471059286885 -7.289686274214117 25
    endloop
  endfacet
  facet normal -0.7071067811865475 0.7071067811865475 0
    outer loop
      vertex 6.845471059286885 -7.289686274214117 -25
      vertex 6.845471059286885 -7.289686274214117 25
      vertex 7.289686274214117 -6.845471059286885 -25
    endloop
  endfacet
  facet normal -0.7501110696304588 0.6613118653236526 0
    outer loop
      vertex 7.70513242775789 -6.3742398974869 -25
      vertex 7.289686274214117 -6.845471059286885 -25
      vertex 7.289686274214117 -6.845471059286885 25
    endloop
  endfacet
  facet normal -0.7901550123756902 0.6129070536529768 0
    outer loop
      vertex 8.090169943749475 -5.877852522924732 -25
      vertex 7.70513242775789 -6.3742398974869 -25
      vertex 7.70513242775789 -6.3742398974869 25
    endloop
  endfacet
  facet normal -0.8270805742745628 0.5620833778521291 0
    outer loop
      vertex 8.443279255020153 -5.358267949789962 -25
      vertex 8.090169943749475 -5.877852522924732 -25
      vertex 8.090169943749475 -5.877852522924732 25
    endloop
  endfacet
  facet normal -0.8607420270039436 0.5090414157503711 0
    outer loop
      vertex 8.763066800438635 -4.817536741017154 -25
      vertex 8.443279255020153 -5.358267949789962 -25
      vertex 8.443279255020153 -5.358267949789962 25
    endloop
  endfacet
  facet normal -0.8910065241883673 0.4539904997395479 0
    outer loop
      vertex 9.048270524660197 -4.257792915650724 -25
      vertex 8.763066800438635 -4.817536741017154 -25
      vertex 8.763066800438635 -4.817536741017154 25
    endloop
  endfacet
  facet normal -0.9177546256839813 0.3971478906347804 0
    outer loop
      vertex 9.297764858882513 -3.6812455268467836 -25
      vertex 9.048270524660197 -4.257792915650724 -25
      vertex 9.048270524660197 -4.257792915650724 25
    endloop
  endfacet
  facet normal -0.9408807689542261 0.3387379202452898 0
    outer loop
      vertex 9.510565162951535 -3.090169943749474 -25
      vertex 9.297764858882513 -3.6812455268467836 -25
      vertex 9.297764858882513 -3.6812455268467836 25
    endloop
  endfacet
  facet normal -0.9602936856769425 0.27899110603923144 0
    outer loop
      vertex 9.685831611286313 -2.4868988716485445 -25
      vertex 9.510565162951535 -3.090169943749474 -25
      vertex 9.510565162951535 -3.090169943749474 25
    endloop
  endfacet
  facet normal -0.9759167619387477 0.21814324139654193 0
    outer loop
      vertex 9.822872507286887 -1.8738131458572482 -25
      vertex 9.685831611286313 -2.4868988716485445 -25
      vertex 9.685831611286313 -2.4868988716485445 25
    endloop
  endfacet
  facet normal -0.9876883405951378 0.1564344650402314 0
    outer loop
      vertex 9.921147013144779 -1.2533323356430406 -25
      vertex 9.822872507286887 -1.8738131458572482 -25
      vertex 9.822872507286887 -1.8738131458572482 25
    endloop
  endfacet
  facet normal -0.9955619646030799 0.09410831331851477 0
    outer loop
      vertex 9.980267284282716 -0.6279051952931376 -25
      vertex 9.921147013144779 -1.2533323356430406 -25
      vertex 9.921147013144779 -1.2533323356430406 25
    endloop
  endfacet
  facet normal -0.9995065603657316 0.031410759078127445 0
    outer loop
      vertex 9.980267284282716 -0.6279051952931376 -25
      vertex 9.980267284282716 -0.6279051952931376 25
      vertex 10 0 -25
    endloop
  endfacet
  facet normal -0.031410759078127445 0.9995065603657316 0
    outer loop
      vertex 0 -10 25
      vertex 0.6279051952931376 -9.980267284282716 25
      vertex 0 -10 -25
    endloop
  endfacet
  facet normal -0.09410831331851477 0.9955619646030799 0
    outer loop
      vertex 0.6279051952931376 -9.980267284282716 25
      vertex 1.2533323356430406 -9.921147013144779 25
      vertex 0.6279051952931376 -9.980267284282716 -25
    endloop
  endfacet
  facet normal -0.1564344650402314 0.9876883405951378 0
    outer loop
      vertex 1.2533323356430406 -9.921147013144779 25
      vertex 1.8738131458572482 -9.822872507286887 25
      vertex 1.2533323356430406 -9.921147013144779 -25
    endloop
  endfacet
  facet normal -0.21814324139654193 0.9759167619387477 0
    outer loop
      vertex 1.8738131458572482 -9.822872507286887 25
      vertex 2.4868988716485445 -9.685831611286313 25
      vertex 1.8738131458572482 -9.822872507286887 -25
    endloop
  endfacet
  facet normal -0.27899110603923144 0.9602936856769425 0
    outer loop
      vertex 2.4868988716485445 -9.685831611286313 25
      vertex 3.090169943749474 -9.510565162951535 25
      vertex 2.4868988716485445 -9.685831611286313 -25
    endloop
  endfacet
  facet normal -0.3387379202452898 0.9408807689542261 0
    outer loop
      vertex 3.090169943749474 -9.510565162951535 25
      vertex 3.6812455268467836 -9.297764858882513 25
      vertex 3.090169943749474 -9.510565162951535 -25
    endloop
  endfacet
  facet normal -0.3971478906347804 0.9177546256839813 0
    outer loop
      vertex 3.6812455268467836 -9.297764858882513 25
      vertex 4.257792915650724 -9.048270524660197 25
      vertex 3.6812455268467836 -9.297764858882513 -25
    endloop
  endfacet
  facet normal -0.4539904997395479 0.8910065241883673 0
    outer loop
      vertex 4.257792915650724 -9.048270524660197 25
      vertex 4.817536741017154 -8.763066800438635 25
      vertex 4.257792915650724 -9.048270524660197 -25
    endloop
  endfacet
  facet normal -0.5090414157503711 0.8607420270039436 0
    outer loop
      vertex 4.817536741017154 -8.763066800438635 25
      vertex 5.358267949789962 -8.443279255020153 25
      vertex 4.817536741017154 -8.763066800438635 -25
    endloop
  endfacet
  facet normal -0.5620833778521291 0.8270805742745628 0
    outer loop
      vertex 5.358267949789962 -8.443279255020153 25
      vertex 5.877852522924732 -8.090169943749475 25
      vertex 5.358267949789962 -8.443279255020153 -25
    endloop
  endfacet
  facet normal -0.6129070536529768 0.7901550123756902 0
    outer loop
      vertex 5.877852522924732 -8.090169943749475 25
      vertex 6.3742398974869 -7.70513242775789 25
      vertex 5.877852522924732 -8.090169943749475 -25
    endloop
  endfacet
  facet normal -0.6613118653236526 0.7501110696304588 0
    outer loop
      vertex 6.3742398974869 -7.70513242775789 25
      vertex 6.845471059286885 -7.289686274214117 25
      vertex 6.3742398974869 -7.70513242775789 -25
    endloop
  endfacet
  facet normal -0.7071067811865475 0.7071067811865475 0
    outer loop
      vertex 6.845471059286885 -7.289686274214117 25
      vertex 7.289686274214117 -6.845471059286885 25
      vertex 7.289686274214117 -6.845471059286885 -25
    endloop
  endfacet
  facet normal -0.7501110696304588 0.6613118653236526 0
    outer loop
      vertex 7.70513242775789 -6.3742398974869 -25
      vertex 7.289686274214117 -6.845471059286885 25
      vertex 7.70513242775789 -6.3742398974869 25
    endloop
  endfacet
  facet normal -0.7901550123756902 0.6129070536529768 0
    outer loop
      vertex 8.090169943749475 -5.877852522924732 -25
      vertex 7.70513242775789 -6.3742398974869 25
      vertex 8.090169943749475 -5.877852522924732 25
    endloop
  endfacet
  facet normal -0.8270805742745628 0.5620833778521291 0
    outer loop
      vertex 8.443279255020153 -5.358267949789962 -25
      vertex 8.090169943749475 -5.877852522924732 25
      vertex 8.443279255020153 -5.358267949789962 25
    endloop
  endfacet
  facet normal -0.8607420270039436 0.5090414157503711 0
    outer loop
      vertex 8.763066800438635 -4.817536741017154 -25
      vertex 8.443279255020153 -5.358267949789962 25
      vertex 8.763066800438635 -4.817536741017154 25
    endloop
  endfacet
  facet normal -0.8910065241883673 0.4539904997395479 0
    outer loop
      vertex 9.048270524660197 -4.257792915650724 -25
      vertex 8.763066800438635 -4.817536741017154 25
      vertex 9.048270524660197 -4.257792915650724 25
    endloop
  endfacet
  facet normal -0.9177546256839813 0.3971478906347804 0
    outer loop
      vertex 9.297764858882513 -3.6812455268467836 -25
      vertex 9.048270524660197 -4.257792915650724 25
      vertex 9.297764858882513 -3.6812455268467836 25
    endloop
  endfacet
  facet normal -0.9408807689542261 0.3387379202452898 0
    outer loop
      vertex 9.510565162951535 -3.090169943749474 -25
      vertex 9.297764858882513 -3.6812455268467836 25
      vertex 9.510565162951535 -3.090169943749474 25
    endloop
  endfacet
  facet normal -0.9602936856769425 0.27899110603923144 0
    outer loop
      vertex 9.685831611286313 -2.4868988716485445 -25
      vertex 9.510565162951535 -3.090169943749474 25
      vertex 9.685831611286313 -2.4868988716485445 25
    endloop
  endfacet
  facet normal -0.9759167619387477 0.21814324139654193 0
    outer loop
      vertex 9.822872507286887 -1.8738131458572482 -25
      vertex 9.685831611286313 -2.4868988716485445 25
      vertex 9.822872507286887 -1.8738131458572482 25
    endloop
  endfacet
  facet normal -0.9876883405951378 0.1564344650402314 0
    outer loop
      vertex 9.921147013144779 -1.2533323356430406 -25
      vertex 9.822872507286887 -1.8738131458572482 25
      vertex 9.921147013144779 -1.2533323356430406 25
    endloop
  endfacet
  facet normal -0.9955619646030799 0.09410831331851477 0
    outer loop
      vertex 9.980267284282716 -0.6279051952931376 -25
      vertex 9.921147013144779 -1.2533323356430406 25
      vertex 9.980267284282716 -0.6279051952931376 25
    endloop
  endfacet
  facet normal -0.9995065603657316 0.031410759078127445 0
    outer loop
      vertex 10 0 -25
      vertex 9.980267284282716 -0.6279051952931376 25
      vertex 10 0 25
    endloop
  endfacet
  facet normal -0.03141075907812769 -0.9995065603657316 0
    outer loop
      vertex 0 10 -25
      vertex 0.6279051952931327 9.980267284282716 -25
      vertex 0 10 25
    endloop
  endfacet
  facet normal -0.09410831331851371 -0.9955619646030801 0
    outer loop
      vertex 0.6279051952931327 9.980267284282716 -25
      vertex 1.2533323356430428 9.921147013144779 -25
      vertex 0.6279051952931327 9.980267284282716 25
    endloop
  endfacet
  facet normal -0.15643446504023253 -0.9876883405951375 0
    outer loop
      vertex 1.2533323356430428 9.921147013144779 -25
      vertex 1.8738131458572458 9.822872507286887 -25
      vertex 1.2533323356430428 9.921147013144779 25
    endloop
  endfacet
  facet normal -0.21814324139654243 -0.9759167619387474 0
    outer loop
      vertex 1.8738131458572458 9.822872507286887 -25
      vertex 2.4868988716485485 9.68583161128631 -25
      vertex 1.8738131458572458 9.822872507286887 25
    endloop
  endfacet
  facet normal -0.27899110603923055 -0.9602936856769427 0
    outer loop
      vertex 2.4868988716485485 9.68583161128631 -25
      vertex 3.090169943749474 9.510565162951535 -25
      vertex 2.4868988716485485 9.68583161128631 25
    endloop
  endfacet
  facet normal -0.3971478906347808 -0.9177546256839811 0
    outer loop
      vertex 3.6812455268467787 9.297764858882514 -25
      vertex 4.257792915650727 9.048270524660195 -25
      vertex 3.6812455268467787 9.297764858882514 25
    endloop
  endfacet
  facet normal -0.45399049973954625 -0.8910065241883681 0
    outer loop
      vertex 4.257792915650727 9.048270524660195 -25
      vertex 4.817536741017152 8.763066800438637 -25
      vertex 4.257792915650727 9.048270524660195 25
    endloop
  endfacet
  facet normal -0.509041415750371 -0.8607420270039438 0
    outer loop
      vertex 4.817536741017152 8.763066800438637 -25
      vertex 5.358267949789966 8.443279255020151 -25
      vertex 4.817536741017152 8.763066800438637 25
    endloop
  endfacet
  facet normal -0.5620833778521305 -0.8270805742745618 0
    outer loop
      vertex 5.358267949789966 8.443279255020151 -25
      vertex 5.877852522924732 8.090169943749475 -25
      vertex 5.358267949789966 8.443279255020151 25
    endloop
  endfacet
  facet normal -0.6129070536529782 -0.7901550123756892 0
    outer loop
      vertex 5.877852522924732 8.090169943749475 -25
      vertex 6.3742398974868975 7.705132427757891 -25
      vertex 5.877852522924732 8.090169943749475 25
    endloop
  endfacet
  facet normal -0.33873792024528976 -0.940880768954226 0
    outer loop
      vertex 3.090169943749474 9.510565162951535 -25
      vertex 3.6812455268467787 9.297764858882514 -25
      vertex 3.090169943749474 9.510565162951535 25
    endloop
  endfacet
  facet normal -0.9177546256839828 -0.3971478906347765 0
    outer loop
      vertex 9.048270524660197 4.257792915650727 -25
      vertex 9.297764858882513 3.6812455268467796 -25
      vertex 9.297764858882513 3.6812455268467796 25
    endloop
  endfacet
  facet normal -0.8910065241883672 -0.4539904997395479 0
    outer loop
      vertex 8.763066800438637 4.817536741017153 -25
      vertex 9.048270524660197 4.257792915650727 -25
      vertex 9.048270524660197 4.257792915650727 25
    endloop
  endfacet
  facet normal -0.7901550123756892 -0.6129070536529782 0
    outer loop
      vertex 7.705132427757891 6.3742398974868975 -25
      vertex 8.090169943749475 5.877852522924732 -25
      vertex 8.090169943749475 5.877852522924732 25
    endloop
  endfacet
  facet normal -0.8270805742745618 -0.5620833778521305 0
    outer loop
      vertex 8.090169943749475 5.877852522924732 -25
      vertex 8.443279255020151 5.358267949789966 -25
      vertex 8.443279255020151 5.358267949789966 25
    endloop
  endfacet
  facet normal -0.8607420270039435 -0.5090414157503717 0
    outer loop
      vertex 8.443279255020151 5.358267949789966 -25
      vertex 8.763066800438637 4.817536741017153 -25
      vertex 8.763066800438637 4.817536741017153 25
    endloop
  endfacet
  facet normal -0.9995065603657316 -0.03141075907812764 0
    outer loop
      vertex 10 0 -25
      vertex 10 0 25
      vertex 9.980267284282716 0.6279051952931337 -25
    endloop
  endfacet
  facet normal -0.9955619646030801 -0.0941083133185139 0
    outer loop
      vertex 9.921147013144779 1.2533323356430426 -25
      vertex 9.980267284282716 0.6279051952931337 -25
      vertex 9.980267284282716 0.6279051952931337 25
    endloop
  endfacet
  facet normal -0.9876883405951375 -0.15643446504023237 0
    outer loop
      vertex 9.822872507286887 1.8738131458572462 -25
      vertex 9.921147013144779 1.2533323356430426 -25
      vertex 9.921147013144779 1.2533323356430426 25
    endloop
  endfacet
  facet normal -0.9759167619387474 -0.21814324139654273 0
    outer loop
      vertex 9.68583161128631 2.486898871648548 -25
      vertex 9.822872507286887 1.8738131458572462 -25
      vertex 9.822872507286887 1.8738131458572462 25
    endloop
  endfacet
  facet normal -0.9602936856769427 -0.27899110603923033 0
    outer loop
      vertex 9.510565162951535 3.090169943749474 -25
      vertex 9.68583161128631 2.486898871648548 -25
      vertex 9.68583161128631 2.486898871648548 25
    endloop
  endfacet
  facet normal -0.9408807689542253 -0.3387379202452918 0
    outer loop
      vertex 9.297764858882513 3.6812455268467796 -25
      vertex 9.510565162951535 3.090169943749474 -25
      vertex 9.510565162951535 3.090169943749474 25
    endloop
  endfacet
  facet normal -0.6613118653236502 -0.750111069630461 0
    outer loop
      vertex 6.3742398974868975 7.705132427757891 -25
      vertex 6.845471059286887 7.289686274214116 -25
      vertex 6.3742398974868975 7.705132427757891 25
    endloop
  endfacet
  facet normal -0.7071067811865476 -0.7071067811865476 0
    outer loop
      vertex 6.845471059286887 7.289686274214116 -25
      vertex 7.289686274214116 6.845471059286887 -25
      vertex 7.289686274214116 6.845471059286887 25
    endloop
  endfacet
  facet normal -0.750111069630461 -0.6613118653236502 0
    outer loop
      vertex 7.289686274214116 6.845471059286887 -25
      vertex 7.705132427757891 6.3742398974868975 -25
      vertex 7.705132427757891 6.3742398974868975 25
    endloop
  endfacet
  facet normal -0.03141075907812769 -0.9995065603657316 0
    outer loop
      vertex 0.6279051952931327 9.980267284282716 25
      vertex 0 10 25
      vertex 0.6279051952931327 9.980267284282716 -25
    endloop
  endfacet
  facet normal -0.09410831331851371 -0.9955619646030801 0
    outer loop
      vertex 1.2533323356430428 9.921147013144779 25
      vertex 0.6279051952931327 9.980267284282716 25
      vertex 1.2533323356430428 9.921147013144779 -25
    endloop
  endfacet
  facet normal -0.15643446504023253 -0.9876883405951375 0
    outer loop
      vertex 1.8738131458572458 9.822872507286887 25
      vertex 1.2533323356430428 9.921147013144779 25
      vertex 1.8738131458572458 9.822872507286887 -25
    endloop
  endfacet
  facet normal -0.21814324139654243 -0.9759167619387474 0
    outer loop
      vertex 2.4868988716485485 9.68583161128631 25
      vertex 1.8738131458572458 9.822872507286887 25
      vertex 2.4868988716485485 9.68583161128631 -25
    endloop
  endfacet
  facet normal -0.27899110603923055 -0.9602936856769427 0
    outer loop
      vertex 3.090169943749474 9.510565162951535 25
      vertex 2.4868988716485485 9.68583161128631 25
      vertex 3.090169943749474 9.510565162951535 -25
    endloop
  endfacet
  facet normal -0.33873792024528976 -0.940880768954226 0
    outer loop
      vertex 3.6812455268467787 9.297764858882514 25
      vertex 3.090169943749474 9.510565162951535 25
      vertex 3.6812455268467787 9.297764858882514 -25
    endloop
  endfacet
  facet normal -0.3971478906347808 -0.9177546256839811 0
    outer loop
      vertex 4.257792915650727 9.048270524660195 25
      vertex 3.6812455268467787 9.297764858882514 25
      vertex 4.257792915650727 9.048270524660195 -25
    endloop
  endfacet
  facet normal -0.45399049973954625 -0.8910065241883681 0
    outer loop
      vertex 4.817536741017152 8.763066800438637 25
      vertex 4.257792915650727 9.048270524660195 25
      vertex 4.817536741017152 8.763066800438637 -25
    endloop
  endfacet
  facet normal -0.509041415750371 -0.8607420270039438 0
    outer loop
      vertex 5.358267949789966 8.443279255020151 25
      vertex 4.817536741017152 8.763066800438637 25
      vertex 5.358267949789966 8.443279255020151 -25
    endloop
  endfacet
  facet normal -0.5620833778521305 -0.8270805742745618 0
    outer loop
      vertex 5.877852522924732 8.090169943749475 25
      vertex 5.358267949789966 8.443279255020151 25
      vertex 5.877852522924732 8.090169943749475 -25
    endloop
  endfacet
  facet normal -0.6129070536529782 -0.7901550123756892 0
    outer loop
      vertex 6.3742398974868975 7.705132427757891 25
      vertex 5.877852522924732 8.090169943749475 25
      vertex 6.3742398974868975 7.705132427757891 -25
    endloop
  endfacet
  facet normal -0.9408807689542253 -0.3387379202452918 0
    outer loop
      vertex 9.297764858882513 3.6812455268467796 -25
      vertex 9.510565162951535 3.090169943749474 25
      vertex 9.297764858882513 3.6812455268467796 25
    endloop
  endfacet
  facet normal -0.8910065241883672 -0.4539904997395479 0
    outer loop
      vertex 8.763066800438637 4.817536741017153 -25
      vertex 9.048270524660197 4.257792915650727 25
      vertex 8.763066800438637 4.817536741017153 25
    endloop
  endfacet
  facet normal -0.9177546256839828 -0.3971478906347765 0
    outer loop
      vertex 9.048270524660197 4.257792915650727 -25
      vertex 9.297764858882513 3.6812455268467796 25
      vertex 9.048270524660197 4.257792915650727 25
    endloop
  endfacet
  facet normal -0.8607420270039435 -0.5090414157503717 0
    outer loop
      vertex 8.443279255020151 5.358267949789966 -25
      vertex 8.763066800438637 4.817536741017153 25
      vertex 8.443279255020151 5.358267949789966 25
    endloop
  endfacet
  facet normal -0.7901550123756892 -0.6129070536529782 0
    outer loop
      vertex 7.705132427757891 6.3742398974868975 -25
      vertex 8.090169943749475 5.877852522924732 25
      vertex 7.705132427757891 6.3742398974868975 25
    endloop
  endfacet
  facet normal -0.8270805742745618 -0.5620833778521305 0
    outer loop
      vertex 8.090169943749475 5.877852522924732 -25
      vertex 8.443279255020151 5.358267949789966 25
      vertex 8.090169943749475 5.877852522924732 25
    endloop
  endfacet
  facet normal -0.9995065603657316 -0.03141075907812764 0
    outer loop
      vertex 9.980267284282716 0.6279051952931337 -25
      vertex 10 0 25
      vertex 9.980267284282716 0.6279051952931337 25
    endloop
  endfacet
  facet normal -0.9955619646030801 -0.0941083133185139 0
    outer loop
      vertex 9.921147013144779 1.2533323356430426 -25
      vertex 9.980267284282716 0.6279051952931337 25
      vertex 9.921147013144779 1.2533323356430426 25
    endloop
  endfacet
  facet normal -0.9759167619387474 -0.21814324139654273 0
    outer loop
      vertex 9.68583161128631 2.486898871648548 -25
      vertex 9.822872507286887 1.8738131458572462 25
      vertex 9.68583161128631 2.486898871648548 25
    endloop
  endfacet
  facet normal -0.9876883405951375 -0.15643446504023237 0
    outer loop
      vertex 9.822872507286887 1.8738131458572462 -25
      vertex 9.921147013144779 1.2533323356430426 25
      vertex 9.822872507286887 1.8738131458572462 25
    endloop
  endfacet
  facet normal -0.9602936856769427 -0.27899110603923033 0
    outer loop
      vertex 9.510565162951535 3.090169943749474 -25
      vertex 9.68583161128631 2.486898871648548 25
      vertex 9.510565162951535 3.090169943749474 25
    endloop
  endfacet
  facet normal -0.7071067811865476 -0.7071067811865476 0
    outer loop
      vertex 6.845471059286887 7.289686274214116 -25
      vertex 7.289686274214116 6.845471059286887 25
      vertex 6.845471059286887 7.289686274214116 25
    endloop
  endfacet
  facet normal -0.6613118653236502 -0.750111069630461 0
    outer loop
      vertex 6.845471059286887 7.289686274214116 -25
      vertex 6.845471059286887 7.289686274214116 25
      vertex 6.3742398974868975 7.705132427757891 25
    endloop
  endfacet
  facet normal -0.750111069630461 -0.6613118653236502 0
    outer loop
      vertex 7.289686274214116 6.845471059286887 -25
      vertex 7.705132427757891 6.3742398974868975 25
      vertex 7.289686274214116 6.845471059286887 25
    endloop
  endfacet
endsolid OpenSCAD_Model
