solid OpenSCAD_Model
  facet normal -0.8660254037844386 -0.5 0
    outer loop
      vertex -3.7527767497325675 -6.5 -5.3
      vertex -3.7527767497325675 -6.5 0
      vertex -7.505553499465135 0 0
    endloop
  endfacet
  facet normal -0.8660254037844386 -0.5 0
    outer loop
      vertex -3.7527767497325675 -6.5 -5.3
      vertex -7.505553499465135 0 0
      vertex -7.505553499465135 0 -5.3
    endloop
  endfacet
  facet normal 0 0 -1
    outer loop
      vertex -3.7527767497325675 -6.5 -5.3
      vertex -7.505553499465135 0 -5.3
      vertex -3.695518130045147 -1.5307337294603591 -5.3
    endloop
  endfacet
  facet normal 0 0 -1
    outer loop
      vertex -7.505553499465135 0 -5.3
      vertex -3.8277613429288353 -1.1611387090178493 -5.3
      vertex -3.695518130045147 -1.5307337294603591 -5.3
    endloop
  endfacet
  facet normal 0 0 -1
    outer loop
      vertex -7.505553499465135 0 -5.3
      vertex -4 0 -5.3
      vertex -3.9807389066887877 -0.3920685613182424 -5.3
    endloop
  endfacet
  facet normal 0 0 -1
    outer loop
      vertex -7.505553499465135 0 -5.3
      vertex -3.9231411216129217 -0.780361288064513 -5.3
      vertex -3.8277613429288353 -1.1611387090178493 -5.3
    endloop
  endfacet
  facet normal 0 0 -1
    outer loop
      vertex -7.505553499465135 0 -5.3
      vertex -3.9807389066887877 -0.3920685613182424 -5.3
      vertex -3.9231411216129217 -0.780361288064513 -5.3
    endloop
  endfacet
  facet normal 0 0 -1
    outer loop
      vertex -3.7527767497325675 -6.5 -5.3
      vertex -2.537573136654582 -3.092041813450948 -5.3
      vertex -2.2222809320784087 -3.325878449210181 -5.3
    endloop
  endfacet
  facet normal 0 0 -1
    outer loop
      vertex -3.7527767497325675 -6.5 -5.3
      vertex -2.8284271247461903 -2.8284271247461903 -5.3
      vertex -2.537573136654582 -3.092041813450948 -5.3
    endloop
  endfacet
  facet normal 0 0 -1
    outer loop
      vertex -3.7527767497325675 -6.5 -5.3
      vertex -3.325878449210181 -2.2222809320784087 -5.3
      vertex -3.092041813450948 -2.537573136654582 -5.3
    endloop
  endfacet
  facet normal 0 0 -1
    outer loop
      vertex -3.7527767497325675 -6.5 -5.3
      vertex -3.52768505739342 -1.8855869473039906 -5.3
      vertex -3.325878449210181 -2.2222809320784087 -5.3
    endloop
  endfacet
  facet normal 0 0 -1
    outer loop
      vertex -3.7527767497325675 -6.5 -5.3
      vertex -3.695518130045147 -1.5307337294603591 -5.3
      vertex -3.52768505739342 -1.8855869473039906 -5.3
    endloop
  endfacet
  facet normal 0 0 -1
    outer loop
      vertex -3.7527767497325675 -6.5 -5.3
      vertex -3.092041813450948 -2.537573136654582 -5.3
      vertex -2.8284271247461903 -2.8284271247461903 -5.3
    endloop
  endfacet
  facet normal 0 0 -1
    outer loop
      vertex -3.7527767497325675 -6.5 -5.3
      vertex -1.8855869473039906 -3.52768505739342 -5.3
      vertex -1.5307337294603591 -3.695518130045147 -5.3
    endloop
  endfacet
  facet normal 0 0 -1
    outer loop
      vertex -3.7527767497325675 -6.5 -5.3
      vertex -2.2222809320784087 -3.325878449210181 -5.3
      vertex -1.8855869473039906 -3.52768505739342 -5.3
    endloop
  endfacet
  facet normal 0 0 -1
    outer loop
      vertex -3.7527767497325675 -6.5 -5.3
      vertex -1.5307337294603591 -3.695518130045147 -5.3
      vertex -1.1611387090178493 -3.8277613429288353 -5.3
    endloop
  endfacet
  facet normal 0 0 -1
    outer loop
      vertex -3.7527767497325675 -6.5 -5.3
      vertex -1.1611387090178493 -3.8277613429288353 -5.3
      vertex -0.780361288064513 -3.9231411216129217 -5.3
    endloop
  endfacet
  facet normal 0 0 -1
    outer loop
      vertex -3.7527767497325675 -6.5 -5.3
      vertex -0.3920685613182424 -3.9807389066887877 -5.3
      vertex 3.7527767497325675 -6.5 -5.3
    endloop
  endfacet
  facet normal 0 -1 0
    outer loop
      vertex -3.7527767497325675 -6.5 -5.3
      vertex 3.7527767497325675 -6.5 0
      vertex -3.7527767497325675 -6.5 0
    endloop
  endfacet
  facet normal 0 0 -1
    outer loop
      vertex -3.7527767497325675 -6.5 -5.3
      vertex -0.780361288064513 -3.9231411216129217 -5.3
      vertex -0.3920685613182424 -3.9807389066887877 -5.3
    endloop
  endfacet
  facet normal 0 0 1
    outer loop
      vertex -3.7527767497325675 -6.5 0
      vertex 3.7527767497325675 -6.5 0
      vertex -3.7527767497325675 6.5 0
    endloop
  endfacet
  facet normal -0.8660254037844386 0.5 0
    outer loop
      vertex -7.505553499465135 0 -5.3
      vertex -7.505553499465135 0 0
      vertex -3.7527767497325675 6.5 0
    endloop
  endfacet
  facet normal 0 0 -1
    outer loop
      vertex -7.505553499465135 0 -5.3
      vertex -3.9807389066887877 0.3920685613182424 -5.3
      vertex -4 0 -5.3
    endloop
  endfacet
  facet normal 0 0 -1
    outer loop
      vertex -7.505553499465135 0 -5.3
      vertex -3.9231411216129217 0.780361288064513 -5.3
      vertex -3.9807389066887877 0.3920685613182424 -5.3
    endloop
  endfacet
  facet normal 0 0 -1
    outer loop
      vertex -7.505553499465135 0 -5.3
      vertex -3.8277613429288353 1.1611387090178493 -5.3
      vertex -3.9231411216129217 0.780361288064513 -5.3
    endloop
  endfacet
  facet normal 0 0 1
    outer loop
      vertex -3.7527767497325675 -6.5 0
      vertex -3.7527767497325675 6.5 0
      vertex -7.505553499465135 0 0
    endloop
  endfacet
  facet normal 0 0 -1
    outer loop
      vertex -7.505553499465135 0 -5.3
      vertex -3.7527767497325675 6.5 -5.3
      vertex -3.8277613429288353 1.1611387090178493 -5.3
    endloop
  endfacet
  facet normal 0 0 -1
    outer loop
      vertex -3.7527767497325675 6.5 -5.3
      vertex -3.695518130045147 1.5307337294603591 -5.3
      vertex -3.8277613429288353 1.1611387090178493 -5.3
    endloop
  endfacet
  facet normal -0.8660254037844386 0.5 0
    outer loop
      vertex -7.505553499465135 0 -5.3
      vertex -3.7527767497325675 6.5 0
      vertex -3.7527767497325675 6.5 -5.3
    endloop
  endfacet
  facet normal 0 0 -1
    outer loop
      vertex -3.7527767497325675 6.5 -5.3
      vertex -3.52768505739342 1.8855869473039906 -5.3
      vertex -3.695518130045147 1.5307337294603591 -5.3
    endloop
  endfacet
  facet normal 0 0 -1
    outer loop
      vertex -3.7527767497325675 6.5 -5.3
      vertex -3.325878449210181 2.2222809320784087 -5.3
      vertex -3.52768505739342 1.8855869473039906 -5.3
    endloop
  endfacet
  facet normal 0 0 -1
    outer loop
      vertex -3.7527767497325675 6.5 -5.3
      vertex -3.092041813450948 2.537573136654582 -5.3
      vertex -3.325878449210181 2.2222809320784087 -5.3
    endloop
  endfacet
  facet normal 0 0 -1
    outer loop
      vertex -3.7527767497325675 6.5 -5.3
      vertex -2.8284271247461903 2.8284271247461903 -5.3
      vertex -3.092041813450948 2.537573136654582 -5.3
    endloop
  endfacet
  facet normal 0 0 -1
    outer loop
      vertex -3.7527767497325675 6.5 -5.3
      vertex -2.537573136654582 3.092041813450948 -5.3
      vertex -2.8284271247461903 2.8284271247461903 -5.3
    endloop
  endfacet
  facet normal 0 0 -1
    outer loop
      vertex -3.7527767497325675 6.5 -5.3
      vertex -2.2222809320784087 3.325878449210181 -5.3
      vertex -2.537573136654582 3.092041813450948 -5.3
    endloop
  endfacet
  facet normal 0 0 -1
    outer loop
      vertex -3.7527767497325675 6.5 -5.3
      vertex -1.8855869473039906 3.52768505739342 -5.3
      vertex -2.2222809320784087 3.325878449210181 -5.3
    endloop
  endfacet
  facet normal 0 0 -1
    outer loop
      vertex -3.7527767497325675 6.5 -5.3
      vertex -1.5307337294603591 3.695518130045147 -5.3
      vertex -1.8855869473039906 3.52768505739342 -5.3
    endloop
  endfacet
  facet normal 0 0 -1
    outer loop
      vertex -3.7527767497325675 6.5 -5.3
      vertex -1.1611387090178493 3.8277613429288353 -5.3
      vertex -1.5307337294603591 3.695518130045147 -5.3
    endloop
  endfacet
  facet normal 0 0 -1
    outer loop
      vertex -3.7527767497325675 6.5 -5.3
      vertex -0.780361288064513 3.9231411216129217 -5.3
      vertex -1.1611387090178493 3.8277613429288353 -5.3
    endloop
  endfacet
  facet normal 0 0 -1
    outer loop
      vertex -3.7527767497325675 6.5 -5.3
      vertex -0.3920685613182424 3.9807389066887877 -5.3
      vertex -0.780361288064513 3.9231411216129217 -5.3
    endloop
  endfacet
  facet normal 0 0 -1
    outer loop
      vertex -3.7527767497325675 6.5 -5.3
      vertex 0 4 -5.3
      vertex -0.3920685613182424 3.9807389066887877 -5.3
    endloop
  endfacet
  facet normal 0 0 -1
    outer loop
      vertex -3.7527767497325675 6.5 -5.3
      vertex 0.3920685613182424 3.9807389066887877 -5.3
      vertex 0 4 -5.3
    endloop
  endfacet
  facet normal 0 1 0
    outer loop
      vertex -3.7527767497325675 6.5 -5.3
      vertex -3.7527767497325675 6.5 0
      vertex 3.7527767497325675 6.5 -5.3
    endloop
  endfacet
  facet normal 0 -1 0
    outer loop
      vertex -3.7527767497325675 -6.5 -5.3
      vertex 3.7527767497325675 -6.5 -5.3
      vertex 3.7527767497325675 -6.5 0
    endloop
  endfacet
  facet normal 0 0 -1
    outer loop
      vertex 3.7527767497325675 -6.5 -5.3
      vertex -0.3920685613182424 -3.9807389066887877 -5.3
      vertex 0 -4 -5.3
    endloop
  endfacet
  facet normal 0 0 -1
    outer loop
      vertex 3.7527767497325675 -6.5 -5.3
      vertex 0 -4 -5.3
      vertex 0.3920685613182424 -3.9807389066887877 -5.3
    endloop
  endfacet
  facet normal 0 0 -1
    outer loop
      vertex 3.7527767497325675 -6.5 -5.3
      vertex 0.3920685613182424 -3.9807389066887877 -5.3
      vertex 0.780361288064513 -3.9231411216129217 -5.3
    endloop
  endfacet
  facet normal 0 0 -1
    outer loop
      vertex 3.7527767497325675 -6.5 -5.3
      vertex 0.780361288064513 -3.9231411216129217 -5.3
      vertex 1.1611387090178493 -3.8277613429288353 -5.3
    endloop
  endfacet
  facet normal 0 0 -1
    outer loop
      vertex 3.7527767497325675 -6.5 -5.3
      vertex 1.1611387090178493 -3.8277613429288353 -5.3
      vertex 1.5307337294603591 -3.695518130045147 -5.3
    endloop
  endfacet
  facet normal 0 0 -1
    outer loop
      vertex 3.7527767497325675 -6.5 -5.3
      vertex 1.5307337294603591 -3.695518130045147 -5.3
      vertex 1.8855869473039906 -3.52768505739342 -5.3
    endloop
  endfacet
  facet normal 0 0 -1
    outer loop
      vertex 3.7527767497325675 -6.5 -5.3
      vertex 1.8855869473039906 -3.52768505739342 -5.3
      vertex 2.2222809320784087 -3.325878449210181 -5.3
    endloop
  endfacet
  facet normal 0 0 -1
    outer loop
      vertex 3.7527767497325675 -6.5 -5.3
      vertex 2.2222809320784087 -3.325878449210181 -5.3
      vertex 2.537573136654582 -3.092041813450948 -5.3
    endloop
  endfacet
  facet normal 0 0 -1
    outer loop
      vertex 3.7527767497325675 -6.5 -5.3
      vertex 2.537573136654582 -3.092041813450948 -5.3
      vertex 2.8284271247461903 -2.8284271247461903 -5.3
    endloop
  endfacet
  facet normal 0 0 -1
    outer loop
      vertex 3.7527767497325675 -6.5 -5.3
      vertex 2.8284271247461903 -2.8284271247461903 -5.3
      vertex 3.092041813450948 -2.537573136654582 -5.3
    endloop
  endfacet
  facet normal 0 0 -1
    outer loop
      vertex 3.7527767497325675 -6.5 -5.3
      vertex 3.092041813450948 -2.537573136654582 -5.3
      vertex 3.325878449210181 -2.2222809320784087 -5.3
    endloop
  endfacet
  facet normal 0 0 -1
    outer loop
      vertex 3.7527767497325675 -6.5 -5.3
      vertex 3.325878449210181 -2.2222809320784087 -5.3
      vertex 3.52768505739342 -1.8855869473039906 -5.3
    endloop
  endfacet
  facet normal 0 0 -1
    outer loop
      vertex 3.7527767497325675 -6.5 -5.3
      vertex 3.52768505739342 -1.8855869473039906 -5.3
      vertex 3.695518130045147 -1.5307337294603591 -5.3
    endloop
  endfacet
  facet normal 0.8660254037844386 -0.5 0
    outer loop
      vertex 3.7527767497325675 -6.5 -5.3
      vertex 7.505553499465135 0 -5.3
      vertex 3.7527767497325675 -6.5 0
    endloop
  endfacet
  facet normal 0 0 -1
    outer loop
      vertex 3.7527767497325675 -6.5 -5.3
      vertex 3.695518130045147 -1.5307337294603591 -5.3
      vertex 3.8277613429288353 -1.1611387090178493 -5.3
    endloop
  endfacet
  facet normal 0 0 -1
    outer loop
      vertex 3.7527767497325675 -6.5 -5.3
      vertex 3.8277613429288353 -1.1611387090178493 -5.3
      vertex 7.505553499465135 0 -5.3
    endloop
  endfacet
  facet normal 0 0 -1
    outer loop
      vertex 7.505553499465135 0 -5.3
      vertex 3.8277613429288353 -1.1611387090178493 -5.3
      vertex 3.9231411216129217 -0.780361288064513 -5.3
    endloop
  endfacet
  facet normal 0 0 -1
    outer loop
      vertex 7.505553499465135 0 -5.3
      vertex 3.9231411216129217 -0.780361288064513 -5.3
      vertex 3.9807389066887877 -0.3920685613182424 -5.3
    endloop
  endfacet
  facet normal 0 0 -1
    outer loop
      vertex 7.505553499465135 0 -5.3
      vertex 3.9807389066887877 -0.3920685613182424 -5.3
      vertex 4 0 -5.3
    endloop
  endfacet
  facet normal 0.8660254037844386 -0.5 0
    outer loop
      vertex 3.7527767497325675 -6.5 0
      vertex 7.505553499465135 0 -5.3
      vertex 7.505553499465135 0 0
    endloop
  endfacet
  facet normal 0 0 1
    outer loop
      vertex -3.7527767497325675 6.5 0
      vertex 3.7527767497325675 -6.5 0
      vertex 3.7527767497325675 6.5 0
    endloop
  endfacet
  facet normal 0 0 -1
    outer loop
      vertex 3.7527767497325675 6.5 -5.3
      vertex 0.780361288064513 3.9231411216129217 -5.3
      vertex 0.3920685613182424 3.9807389066887877 -5.3
    endloop
  endfacet
  facet normal 0 0 -1
    outer loop
      vertex -3.7527767497325675 6.5 -5.3
      vertex 3.7527767497325675 6.5 -5.3
      vertex 0.3920685613182424 3.9807389066887877 -5.3
    endloop
  endfacet
  facet normal 0 1 0
    outer loop
      vertex -3.7527767497325675 6.5 0
      vertex 3.7527767497325675 6.5 0
      vertex 3.7527767497325675 6.5 -5.3
    endloop
  endfacet
  facet normal 0 0 -1
    outer loop
      vertex 3.7527767497325675 6.5 -5.3
      vertex 1.1611387090178493 3.8277613429288353 -5.3
      vertex 0.780361288064513 3.9231411216129217 -5.3
    endloop
  endfacet
  facet normal 0 0 -1
    outer loop
      vertex 3.7527767497325675 6.5 -5.3
      vertex 1.5307337294603591 3.695518130045147 -5.3
      vertex 1.1611387090178493 3.8277613429288353 -5.3
    endloop
  endfacet
  facet normal 0 0 -1
    outer loop
      vertex 3.7527767497325675 6.5 -5.3
      vertex 2.2222809320784087 3.325878449210181 -5.3
      vertex 1.8855869473039906 3.52768505739342 -5.3
    endloop
  endfacet
  facet normal 0 0 -1
    outer loop
      vertex 3.7527767497325675 6.5 -5.3
      vertex 1.8855869473039906 3.52768505739342 -5.3
      vertex 1.5307337294603591 3.695518130045147 -5.3
    endloop
  endfacet
  facet normal 0 0 -1
    outer loop
      vertex 3.7527767497325675 6.5 -5.3
      vertex 3.092041813450948 2.537573136654582 -5.3
      vertex 2.8284271247461903 2.8284271247461903 -5.3
    endloop
  endfacet
  facet normal 0 0 -1
    outer loop
      vertex 3.7527767497325675 6.5 -5.3
      vertex 3.695518130045147 1.5307337294603591 -5.3
      vertex 3.52768505739342 1.8855869473039906 -5.3
    endloop
  endfacet
  facet normal 0 0 -1
    outer loop
      vertex 3.7527767497325675 6.5 -5.3
      vertex 3.52768505739342 1.8855869473039906 -5.3
      vertex 3.325878449210181 2.2222809320784087 -5.3
    endloop
  endfacet
  facet normal 0 0 -1
    outer loop
      vertex 3.7527767497325675 6.5 -5.3
      vertex 3.325878449210181 2.2222809320784087 -5.3
      vertex 3.092041813450948 2.537573136654582 -5.3
    endloop
  endfacet
  facet normal 0 0 -1
    outer loop
      vertex 3.7527767497325675 6.5 -5.3
      vertex 2.8284271247461903 2.8284271247461903 -5.3
      vertex 2.537573136654582 3.092041813450948 -5.3
    endloop
  endfacet
  facet normal 0 0 -1
    outer loop
      vertex 3.7527767497325675 6.5 -5.3
      vertex 2.537573136654582 3.092041813450948 -5.3
      vertex 2.2222809320784087 3.325878449210181 -5.3
    endloop
  endfacet
  facet normal 0 0 -1
    outer loop
      vertex 7.505553499465135 0 -5.3
      vertex 3.9807389066887877 0.3920685613182424 -5.3
      vertex 3.9231411216129217 0.780361288064513 -5.3
    endloop
  endfacet
  facet normal 0 0 -1
    outer loop
      vertex 7.505553499465135 0 -5.3
      vertex 3.9231411216129217 0.780361288064513 -5.3
      vertex 3.8277613429288353 1.1611387090178493 -5.3
    endloop
  endfacet
  facet normal 0 0 -1
    outer loop
      vertex 7.505553499465135 0 -5.3
      vertex 4 0 -5.3
      vertex 3.9807389066887877 0.3920685613182424 -5.3
    endloop
  endfacet
  facet normal 0 0 -1
    outer loop
      vertex 7.505553499465135 0 -5.3
      vertex 3.8277613429288353 1.1611387090178493 -5.3
      vertex 3.695518130045147 1.5307337294603591 -5.3
    endloop
  endfacet
  facet normal 0 0 1
    outer loop
      vertex 3.7527767497325675 -6.5 0
      vertex 7.505553499465135 0 0
      vertex 3.7527767497325675 6.5 0
    endloop
  endfacet
  facet normal 0 0 -1
    outer loop
      vertex 3.7527767497325675 6.5 -5.3
      vertex 7.505553499465135 0 -5.3
      vertex 3.695518130045147 1.5307337294603591 -5.3
    endloop
  endfacet
  facet normal 0.8660254037844386 0.5 0
    outer loop
      vertex 3.7527767497325675 6.5 -5.3
      vertex 7.505553499465135 0 0
      vertex 7.505553499465135 0 -5.3
    endloop
  endfacet
  facet normal 0.8660254037844386 0.5 0
    outer loop
      vertex 3.7527767497325675 6.5 -5.3
      vertex 3.7527767497325675 6.5 0
      vertex 7.505553499465135 0 0
    endloop
  endfacet
  facet normal 0 0 -1
    outer loop
      vertex -3.8277613429288353 -1.1611387090178493 -30
      vertex -3.9231411216129217 -0.780361288064513 -30
      vertex -3.8277613429288353 1.1611387090178493 -30
    endloop
  endfacet
  facet normal 0 0 -1
    outer loop
      vertex -3.9231411216129217 -0.780361288064513 -30
      vertex -3.9807389066887877 -0.3920685613182424 -30
      vertex -3.9231411216129217 0.780361288064513 -30
    endloop
  endfacet
  facet normal -0.9700312531945439 -0.24298017990326412 0
    outer loop
      vertex -3.8277613429288353 -1.1611387090178493 -30
      vertex -3.8277613429288353 -1.1611387090178493 -5.3
      vertex -3.9231411216129217 -0.780361288064513 -30
    endloop
  endfacet
  facet normal -0.9891765099647808 -0.1467304744553624 0
    outer loop
      vertex -3.9231411216129217 -0.780361288064513 -30
      vertex -3.9231411216129217 -0.780361288064513 -5.3
      vertex -3.9807389066887877 -0.3920685613182424 -30
    endloop
  endfacet
  facet normal -0.9987954562051724 -0.04906767432741758 0
    outer loop
      vertex -3.9807389066887877 -0.3920685613182424 -30
      vertex -3.9807389066887877 -0.3920685613182424 -5.3
      vertex -4 0 -30
    endloop
  endfacet
  facet normal -0.514102744193222 -0.8577286100002719 0
    outer loop
      vertex -2.2222809320784087 -3.325878449210181 -30
      vertex -1.8855869473039906 -3.52768505739342 -30
      vertex -1.8855869473039906 -3.52768505739342 -5.3
    endloop
  endfacet
  facet normal -0.4275550934302818 -0.9039892931234433 0
    outer loop
      vertex -1.8855869473039906 -3.52768505739342 -30
      vertex -1.5307337294603591 -3.695518130045147 -30
      vertex -1.5307337294603591 -3.695518130045147 -5.3
    endloop
  endfacet
  facet normal -0.3368898533922197 -0.941544065183021 0
    outer loop
      vertex -1.5307337294603591 -3.695518130045147 -30
      vertex -1.1611387090178493 -3.8277613429288353 -30
      vertex -1.1611387090178493 -3.8277613429288353 -5.3
    endloop
  endfacet
  facet normal -0.24298017990326412 -0.9700312531945439 0
    outer loop
      vertex -1.1611387090178493 -3.8277613429288353 -30
      vertex -0.780361288064513 -3.9231411216129217 -30
      vertex -0.780361288064513 -3.9231411216129217 -5.3
    endloop
  endfacet
  facet normal -0.1467304744553624 -0.9891765099647808 0
    outer loop
      vertex -0.780361288064513 -3.9231411216129217 -30
      vertex -0.3920685613182424 -3.9807389066887877 -30
      vertex -0.3920685613182424 -3.9807389066887877 -5.3
    endloop
  endfacet
  facet normal -0.04906767432741758 -0.9987954562051724 0
    outer loop
      vertex -0.3920685613182424 -3.9807389066887877 -30
      vertex 0 -4 -30
      vertex 0 -4 -5.3
    endloop
  endfacet
  facet normal 0 0 -1
    outer loop
      vertex -3.092041813450948 -2.537573136654582 -30
      vertex -2.8284271247461903 2.8284271247461903 -30
      vertex -2.8284271247461903 -2.8284271247461903 -30
    endloop
  endfacet
  facet normal 0 0 -1
    outer loop
      vertex -3.52768505739342 -1.8855869473039906 -30
      vertex -3.695518130045147 -1.5307337294603591 -30
      vertex -3.52768505739342 1.8855869473039906 -30
    endloop
  endfacet
  facet normal 0 0 -1
    outer loop
      vertex -3.325878449210181 -2.2222809320784087 -30
      vertex -3.52768505739342 -1.8855869473039906 -30
      vertex -3.325878449210181 2.2222809320784087 -30
    endloop
  endfacet
  facet normal 0 0 -1
    outer loop
      vertex -3.695518130045147 -1.5307337294603591 -30
      vertex -3.8277613429288353 -1.1611387090178493 -30
      vertex -3.695518130045147 1.5307337294603591 -30
    endloop
  endfacet
  facet normal 0 0 -1
    outer loop
      vertex -3.092041813450948 -2.537573136654582 -30
      vertex -3.325878449210181 -2.2222809320784087 -30
      vertex -3.092041813450948 2.537573136654582 -30
    endloop
  endfacet
  facet normal 0 0 -1
    outer loop
      vertex -2.537573136654582 -3.092041813450948 -30
      vertex -2.8284271247461903 -2.8284271247461903 -30
      vertex -2.537573136654582 3.092041813450948 -30
    endloop
  endfacet
  facet normal 0 0 -1
    outer loop
      vertex -2.537573136654582 -3.092041813450948 -30
      vertex -2.2222809320784087 3.325878449210181 -30
      vertex -2.2222809320784087 -3.325878449210181 -30
    endloop
  endfacet
  facet normal 0 0 -1
    outer loop
      vertex -2.2222809320784087 -3.325878449210181 -30
      vertex -1.8855869473039906 3.52768505739342 -30
      vertex -1.8855869473039906 -3.52768505739342 -30
    endloop
  endfacet
  facet normal 0 0 -1
    outer loop
      vertex -1.8855869473039906 -3.52768505739342 -30
      vertex -1.5307337294603591 3.695518130045147 -30
      vertex -1.5307337294603591 -3.695518130045147 -30
    endloop
  endfacet
  facet normal 0 0 -1
    outer loop
      vertex -1.5307337294603591 -3.695518130045147 -30
      vertex -1.1611387090178493 3.8277613429288353 -30
      vertex -1.1611387090178493 -3.8277613429288353 -30
    endloop
  endfacet
  facet normal 0 0 -1
    outer loop
      vertex -1.1611387090178493 -3.8277613429288353 -30
      vertex -0.780361288064513 3.9231411216129217 -30
      vertex -0.780361288064513 -3.9231411216129217 -30
    endloop
  endfacet
  facet normal 0 0 -1
    outer loop
      vertex -0.780361288064513 -3.9231411216129217 -30
      vertex -0.3920685613182424 3.9807389066887877 -30
      vertex -0.3920685613182424 -3.9807389066887877 -30
    endloop
  endfacet
  facet normal 0 0 -1
    outer loop
      vertex -0.3920685613182424 -3.9807389066887877 -30
      vertex 0 4 -30
      vertex 0 -4 -30
    endloop
  endfacet
  facet normal -0.7409511253549594 -0.6715589548470181 0
    outer loop
      vertex -3.092041813450948 -2.537573136654582 -30
      vertex -2.8284271247461903 -2.8284271247461903 -30
      vertex -2.8284271247461903 -2.8284271247461903 -5.3
    endloop
  endfacet
  facet normal -0.8577286100002719 -0.514102744193222 0
    outer loop
      vertex -3.325878449210181 -2.2222809320784087 -30
      vertex -3.325878449210181 -2.2222809320784087 -5.3
      vertex -3.52768505739342 -1.8855869473039906 -30
    endloop
  endfacet
  facet normal -0.9039892931234433 -0.4275550934302818 0
    outer loop
      vertex -3.52768505739342 -1.8855869473039906 -30
      vertex -3.52768505739342 -1.8855869473039906 -5.3
      vertex -3.695518130045147 -1.5307337294603591 -30
    endloop
  endfacet
  facet normal -0.8032075314806452 -0.5956993044924329 0
    outer loop
      vertex -3.092041813450948 -2.537573136654582 -30
      vertex -3.092041813450948 -2.537573136654582 -5.3
      vertex -3.325878449210181 -2.2222809320784087 -30
    endloop
  endfacet
  facet normal -0.6715589548470181 -0.7409511253549594 0
    outer loop
      vertex -2.537573136654582 -3.092041813450948 -30
      vertex -2.537573136654582 -3.092041813450948 -5.3
      vertex -2.8284271247461903 -2.8284271247461903 -30
    endloop
  endfacet
  facet normal -0.5956993044924329 -0.8032075314806452 0
    outer loop
      vertex -2.537573136654582 -3.092041813450948 -30
      vertex -2.2222809320784087 -3.325878449210181 -30
      vertex -2.2222809320784087 -3.325878449210181 -5.3
    endloop
  endfacet
  facet normal -0.941544065183021 -0.3368898533922197 0
    outer loop
      vertex -3.695518130045147 -1.5307337294603591 -30
      vertex -3.695518130045147 -1.5307337294603591 -5.3
      vertex -3.8277613429288353 -1.1611387090178493 -30
    endloop
  endfacet
  facet normal -0.941544065183021 -0.3368898533922197 0
    outer loop
      vertex -3.8277613429288353 -1.1611387090178493 -30
      vertex -3.695518130045147 -1.5307337294603591 -5.3
      vertex -3.8277613429288353 -1.1611387090178493 -5.3
    endloop
  endfacet
  facet normal -0.9700312531945439 -0.24298017990326412 0
    outer loop
      vertex -3.9231411216129217 -0.780361288064513 -30
      vertex -3.8277613429288353 -1.1611387090178493 -5.3
      vertex -3.9231411216129217 -0.780361288064513 -5.3
    endloop
  endfacet
  facet normal -0.9891765099647808 -0.1467304744553624 0
    outer loop
      vertex -3.9807389066887877 -0.3920685613182424 -30
      vertex -3.9231411216129217 -0.780361288064513 -5.3
      vertex -3.9807389066887877 -0.3920685613182424 -5.3
    endloop
  endfacet
  facet normal -0.9987954562051724 -0.04906767432741758 0
    outer loop
      vertex -4 0 -30
      vertex -3.9807389066887877 -0.3920685613182424 -5.3
      vertex -4 0 -5.3
    endloop
  endfacet
  facet normal -0.514102744193222 -0.8577286100002719 0
    outer loop
      vertex -2.2222809320784087 -3.325878449210181 -30
      vertex -1.8855869473039906 -3.52768505739342 -5.3
      vertex -2.2222809320784087 -3.325878449210181 -5.3
    endloop
  endfacet
  facet normal -0.3368898533922197 -0.941544065183021 0
    outer loop
      vertex -1.5307337294603591 -3.695518130045147 -30
      vertex -1.1611387090178493 -3.8277613429288353 -5.3
      vertex -1.5307337294603591 -3.695518130045147 -5.3
    endloop
  endfacet
  facet normal -0.4275550934302818 -0.9039892931234433 0
    outer loop
      vertex -1.8855869473039906 -3.52768505739342 -30
      vertex -1.5307337294603591 -3.695518130045147 -5.3
      vertex -1.8855869473039906 -3.52768505739342 -5.3
    endloop
  endfacet
  facet normal -0.24298017990326412 -0.9700312531945439 0
    outer loop
      vertex -1.1611387090178493 -3.8277613429288353 -30
      vertex -0.780361288064513 -3.9231411216129217 -5.3
      vertex -1.1611387090178493 -3.8277613429288353 -5.3
    endloop
  endfacet
  facet normal -0.1467304744553624 -0.9891765099647808 0
    outer loop
      vertex -0.780361288064513 -3.9231411216129217 -30
      vertex -0.3920685613182424 -3.9807389066887877 -5.3
      vertex -0.780361288064513 -3.9231411216129217 -5.3
    endloop
  endfacet
  facet normal -0.04906767432741758 -0.9987954562051724 0
    outer loop
      vertex -0.3920685613182424 -3.9807389066887877 -30
      vertex 0 -4 -5.3
      vertex -0.3920685613182424 -3.9807389066887877 -5.3
    endloop
  endfacet
  facet normal -0.7409511253549594 -0.6715589548470181 0
    outer loop
      vertex -3.092041813450948 -2.537573136654582 -30
      vertex -2.8284271247461903 -2.8284271247461903 -5.3
      vertex -3.092041813450948 -2.537573136654582 -5.3
    endloop
  endfacet
  facet normal -0.9039892931234433 -0.4275550934302818 0
    outer loop
      vertex -3.695518130045147 -1.5307337294603591 -30
      vertex -3.52768505739342 -1.8855869473039906 -5.3
      vertex -3.695518130045147 -1.5307337294603591 -5.3
    endloop
  endfacet
  facet normal -0.8577286100002719 -0.514102744193222 0
    outer loop
      vertex -3.52768505739342 -1.8855869473039906 -30
      vertex -3.325878449210181 -2.2222809320784087 -5.3
      vertex -3.52768505739342 -1.8855869473039906 -5.3
    endloop
  endfacet
  facet normal -0.8032075314806452 -0.5956993044924329 0
    outer loop
      vertex -3.325878449210181 -2.2222809320784087 -30
      vertex -3.092041813450948 -2.537573136654582 -5.3
      vertex -3.325878449210181 -2.2222809320784087 -5.3
    endloop
  endfacet
  facet normal -0.6715589548470181 -0.7409511253549594 0
    outer loop
      vertex -2.8284271247461903 -2.8284271247461903 -30
      vertex -2.537573136654582 -3.092041813450948 -5.3
      vertex -2.8284271247461903 -2.8284271247461903 -5.3
    endloop
  endfacet
  facet normal -0.5956993044924329 -0.8032075314806452 0
    outer loop
      vertex -2.537573136654582 -3.092041813450948 -30
      vertex -2.2222809320784087 -3.325878449210181 -5.3
      vertex -2.537573136654582 -3.092041813450948 -5.3
    endloop
  endfacet
  facet normal 0 0 -1
    outer loop
      vertex -3.9807389066887877 -0.3920685613182424 -30
      vertex -4 0 -30
      vertex -3.9807389066887877 0.3920685613182424 -30
    endloop
  endfacet
  facet normal 0 0 -1
    outer loop
      vertex -3.9807389066887877 -0.3920685613182424 -30
      vertex -3.9807389066887877 0.3920685613182424 -30
      vertex -3.9231411216129217 0.780361288064513 -30
    endloop
  endfacet
  facet normal 0 0 -1
    outer loop
      vertex -3.9231411216129217 -0.780361288064513 -30
      vertex -3.9231411216129217 0.780361288064513 -30
      vertex -3.8277613429288353 1.1611387090178493 -30
    endloop
  endfacet
  facet normal 0 0 -1
    outer loop
      vertex -3.8277613429288353 -1.1611387090178493 -30
      vertex -3.8277613429288353 1.1611387090178493 -30
      vertex -3.695518130045147 1.5307337294603591 -30
    endloop
  endfacet
  facet normal -0.9987954562051724 0.04906767432741758 0
    outer loop
      vertex -4 0 -30
      vertex -4 0 -5.3
      vertex -3.9807389066887877 0.3920685613182424 -30
    endloop
  endfacet
  facet normal -0.9891765099647808 0.1467304744553624 0
    outer loop
      vertex -3.9807389066887877 0.3920685613182424 -30
      vertex -3.9807389066887877 0.3920685613182424 -5.3
      vertex -3.9231411216129217 0.780361288064513 -30
    endloop
  endfacet
  facet normal -0.9700312531945439 0.24298017990326412 0
    outer loop
      vertex -3.9231411216129217 0.780361288064513 -30
      vertex -3.9231411216129217 0.780361288064513 -5.3
      vertex -3.8277613429288353 1.1611387090178493 -30
    endloop
  endfacet
  facet normal -0.941544065183021 0.3368898533922197 0
    outer loop
      vertex -3.8277613429288353 1.1611387090178493 -30
      vertex -3.8277613429288353 1.1611387090178493 -5.3
      vertex -3.695518130045147 1.5307337294603591 -30
    endloop
  endfacet
  facet normal 0 0 -1
    outer loop
      vertex -3.695518130045147 -1.5307337294603591 -30
      vertex -3.695518130045147 1.5307337294603591 -30
      vertex -3.52768505739342 1.8855869473039906 -30
    endloop
  endfacet
  facet normal 0 0 -1
    outer loop
      vertex -3.52768505739342 -1.8855869473039906 -30
      vertex -3.52768505739342 1.8855869473039906 -30
      vertex -3.325878449210181 2.2222809320784087 -30
    endloop
  endfacet
  facet normal 0 0 -1
    outer loop
      vertex -3.325878449210181 -2.2222809320784087 -30
      vertex -3.325878449210181 2.2222809320784087 -30
      vertex -3.092041813450948 2.537573136654582 -30
    endloop
  endfacet
  facet normal 0 0 -1
    outer loop
      vertex -3.092041813450948 -2.537573136654582 -30
      vertex -3.092041813450948 2.537573136654582 -30
      vertex -2.8284271247461903 2.8284271247461903 -30
    endloop
  endfacet
  facet normal 0 0 -1
    outer loop
      vertex -2.8284271247461903 -2.8284271247461903 -30
      vertex -2.8284271247461903 2.8284271247461903 -30
      vertex -2.537573136654582 3.092041813450948 -30
    endloop
  endfacet
  facet normal 0 0 -1
    outer loop
      vertex -2.537573136654582 -3.092041813450948 -30
      vertex -2.537573136654582 3.092041813450948 -30
      vertex -2.2222809320784087 3.325878449210181 -30
    endloop
  endfacet
  facet normal 0 0 -1
    outer loop
      vertex -2.2222809320784087 -3.325878449210181 -30
      vertex -2.2222809320784087 3.325878449210181 -30
      vertex -1.8855869473039906 3.52768505739342 -30
    endloop
  endfacet
  facet normal 0 0 -1
    outer loop
      vertex -1.8855869473039906 -3.52768505739342 -30
      vertex -1.8855869473039906 3.52768505739342 -30
      vertex -1.5307337294603591 3.695518130045147 -30
    endloop
  endfacet
  facet normal 0 0 -1
    outer loop
      vertex -1.5307337294603591 -3.695518130045147 -30
      vertex -1.5307337294603591 3.695518130045147 -30
      vertex -1.1611387090178493 3.8277613429288353 -30
    endloop
  endfacet
  facet normal 0 0 -1
    outer loop
      vertex -1.1611387090178493 -3.8277613429288353 -30
      vertex -1.1611387090178493 3.8277613429288353 -30
      vertex -0.780361288064513 3.9231411216129217 -30
    endloop
  endfacet
  facet normal 0 0 -1
    outer loop
      vertex -0.780361288064513 -3.9231411216129217 -30
      vertex -0.780361288064513 3.9231411216129217 -30
      vertex -0.3920685613182424 3.9807389066887877 -30
    endloop
  endfacet
  facet normal 0 0 -1
    outer loop
      vertex -0.3920685613182424 -3.9807389066887877 -30
      vertex -0.3920685613182424 3.9807389066887877 -30
      vertex 0 4 -30
    endloop
  endfacet
  facet normal -0.9039892931234433 0.4275550934302818 0
    outer loop
      vertex -3.695518130045147 1.5307337294603591 -30
      vertex -3.695518130045147 1.5307337294603591 -5.3
      vertex -3.52768505739342 1.8855869473039906 -30
    endloop
  endfacet
  facet normal -0.8577286100002719 0.514102744193222 0
    outer loop
      vertex -3.52768505739342 1.8855869473039906 -30
      vertex -3.52768505739342 1.8855869473039906 -5.3
      vertex -3.325878449210181 2.2222809320784087 -30
    endloop
  endfacet
  facet normal -0.8032075314806452 0.5956993044924329 0
    outer loop
      vertex -3.325878449210181 2.2222809320784087 -30
      vertex -3.325878449210181 2.2222809320784087 -5.3
      vertex -3.092041813450948 2.537573136654582 -30
    endloop
  endfacet
  facet normal -0.7409511253549594 0.6715589548470181 0
    outer loop
      vertex -3.092041813450948 2.537573136654582 -30
      vertex -3.092041813450948 2.537573136654582 -5.3
      vertex -2.8284271247461903 2.8284271247461903 -30
    endloop
  endfacet
  facet normal -0.6715589548470181 0.7409511253549594 0
    outer loop
      vertex -2.8284271247461903 2.8284271247461903 -30
      vertex -2.8284271247461903 2.8284271247461903 -5.3
      vertex -2.537573136654582 3.092041813450948 -30
    endloop
  endfacet
  facet normal -0.5956993044924329 0.8032075314806452 0
    outer loop
      vertex -2.537573136654582 3.092041813450948 -30
      vertex -2.537573136654582 3.092041813450948 -5.3
      vertex -2.2222809320784087 3.325878449210181 -30
    endloop
  endfacet
  facet normal -0.514102744193222 0.8577286100002719 0
    outer loop
      vertex -2.2222809320784087 3.325878449210181 -30
      vertex -2.2222809320784087 3.325878449210181 -5.3
      vertex -1.8855869473039906 3.52768505739342 -30
    endloop
  endfacet
  facet normal -0.4275550934302818 0.9039892931234433 0
    outer loop
      vertex -1.8855869473039906 3.52768505739342 -30
      vertex -1.8855869473039906 3.52768505739342 -5.3
      vertex -1.5307337294603591 3.695518130045147 -30
    endloop
  endfacet
  facet normal -0.3368898533922197 0.941544065183021 0
    outer loop
      vertex -1.5307337294603591 3.695518130045147 -30
      vertex -1.5307337294603591 3.695518130045147 -5.3
      vertex -1.1611387090178493 3.8277613429288353 -30
    endloop
  endfacet
  facet normal -0.24298017990326412 0.9700312531945439 0
    outer loop
      vertex -1.1611387090178493 3.8277613429288353 -30
      vertex -1.1611387090178493 3.8277613429288353 -5.3
      vertex -0.780361288064513 3.9231411216129217 -30
    endloop
  endfacet
  facet normal -0.1467304744553624 0.9891765099647808 0
    outer loop
      vertex -0.780361288064513 3.9231411216129217 -30
      vertex -0.780361288064513 3.9231411216129217 -5.3
      vertex -0.3920685613182424 3.9807389066887877 -30
    endloop
  endfacet
  facet normal -0.04906767432741758 0.9987954562051724 0
    outer loop
      vertex -0.3920685613182424 3.9807389066887877 -30
      vertex -0.3920685613182424 3.9807389066887877 -5.3
      vertex 0 4 -30
    endloop
  endfacet
  facet normal -0.9987954562051724 0.04906767432741758 0
    outer loop
      vertex -3.9807389066887877 0.3920685613182424 -30
      vertex -4 0 -5.3
      vertex -3.9807389066887877 0.3920685613182424 -5.3
    endloop
  endfacet
  facet normal -0.9891765099647808 0.1467304744553624 0
    outer loop
      vertex -3.9231411216129217 0.780361288064513 -30
      vertex -3.9807389066887877 0.3920685613182424 -5.3
      vertex -3.9231411216129217 0.780361288064513 -5.3
    endloop
  endfacet
  facet normal -0.9700312531945439 0.24298017990326412 0
    outer loop
      vertex -3.8277613429288353 1.1611387090178493 -30
      vertex -3.9231411216129217 0.780361288064513 -5.3
      vertex -3.8277613429288353 1.1611387090178493 -5.3
    endloop
  endfacet
  facet normal -0.941544065183021 0.3368898533922197 0
    outer loop
      vertex -3.695518130045147 1.5307337294603591 -30
      vertex -3.8277613429288353 1.1611387090178493 -5.3
      vertex -3.695518130045147 1.5307337294603591 -5.3
    endloop
  endfacet
  facet normal -0.9039892931234433 0.4275550934302818 0
    outer loop
      vertex -3.52768505739342 1.8855869473039906 -30
      vertex -3.695518130045147 1.5307337294603591 -5.3
      vertex -3.52768505739342 1.8855869473039906 -5.3
    endloop
  endfacet
  facet normal -0.8577286100002719 0.514102744193222 0
    outer loop
      vertex -3.325878449210181 2.2222809320784087 -30
      vertex -3.52768505739342 1.8855869473039906 -5.3
      vertex -3.325878449210181 2.2222809320784087 -5.3
    endloop
  endfacet
  facet normal -0.8032075314806452 0.5956993044924329 0
    outer loop
      vertex -3.092041813450948 2.537573136654582 -30
      vertex -3.325878449210181 2.2222809320784087 -5.3
      vertex -3.092041813450948 2.537573136654582 -5.3
    endloop
  endfacet
  facet normal -0.7409511253549594 0.6715589548470181 0
    outer loop
      vertex -2.8284271247461903 2.8284271247461903 -30
      vertex -3.092041813450948 2.537573136654582 -5.3
      vertex -2.8284271247461903 2.8284271247461903 -5.3
    endloop
  endfacet
  facet normal -0.6715589548470181 0.7409511253549594 0
    outer loop
      vertex -2.537573136654582 3.092041813450948 -30
      vertex -2.8284271247461903 2.8284271247461903 -5.3
      vertex -2.537573136654582 3.092041813450948 -5.3
    endloop
  endfacet
  facet normal -0.5956993044924329 0.8032075314806452 0
    outer loop
      vertex -2.2222809320784087 3.325878449210181 -30
      vertex -2.537573136654582 3.092041813450948 -5.3
      vertex -2.2222809320784087 3.325878449210181 -5.3
    endloop
  endfacet
  facet normal -0.514102744193222 0.8577286100002719 0
    outer loop
      vertex -1.8855869473039906 3.52768505739342 -30
      vertex -2.2222809320784087 3.325878449210181 -5.3
      vertex -1.8855869473039906 3.52768505739342 -5.3
    endloop
  endfacet
  facet normal -0.4275550934302818 0.9039892931234433 0
    outer loop
      vertex -1.5307337294603591 3.695518130045147 -30
      vertex -1.8855869473039906 3.52768505739342 -5.3
      vertex -1.5307337294603591 3.695518130045147 -5.3
    endloop
  endfacet
  facet normal -0.3368898533922197 0.941544065183021 0
    outer loop
      vertex -1.1611387090178493 3.8277613429288353 -30
      vertex -1.5307337294603591 3.695518130045147 -5.3
      vertex -1.1611387090178493 3.8277613429288353 -5.3
    endloop
  endfacet
  facet normal -0.24298017990326412 0.9700312531945439 0
    outer loop
      vertex -0.780361288064513 3.9231411216129217 -30
      vertex -1.1611387090178493 3.8277613429288353 -5.3
      vertex -0.780361288064513 3.9231411216129217 -5.3
    endloop
  endfacet
  facet normal -0.1467304744553624 0.9891765099647808 0
    outer loop
      vertex -0.3920685613182424 3.9807389066887877 -30
      vertex -0.780361288064513 3.9231411216129217 -5.3
      vertex -0.3920685613182424 3.9807389066887877 -5.3
    endloop
  endfacet
  facet normal -0.04906767432741758 0.9987954562051724 0
    outer loop
      vertex 0 4 -30
      vertex -0.3920685613182424 3.9807389066887877 -5.3
      vertex 0 4 -5.3
    endloop
  endfacet
  facet normal 0.04906767432741758 -0.9987954562051724 0
    outer loop
      vertex 0 -4 -30
      vertex 0.3920685613182424 -3.9807389066887877 -30
      vertex 0.3920685613182424 -3.9807389066887877 -5.3
    endloop
  endfacet
  facet normal 0.1467304744553624 -0.9891765099647808 0
    outer loop
      vertex 0.3920685613182424 -3.9807389066887877 -30
      vertex 0.780361288064513 -3.9231411216129217 -30
      vertex 0.780361288064513 -3.9231411216129217 -5.3
    endloop
  endfacet
  facet normal 0.24298017990326412 -0.9700312531945439 0
    outer loop
      vertex 0.780361288064513 -3.9231411216129217 -30
      vertex 1.1611387090178493 -3.8277613429288353 -30
      vertex 1.1611387090178493 -3.8277613429288353 -5.3
    endloop
  endfacet
  facet normal 0.3368898533922197 -0.941544065183021 0
    outer loop
      vertex 1.1611387090178493 -3.8277613429288353 -30
      vertex 1.5307337294603591 -3.695518130045147 -30
      vertex 1.5307337294603591 -3.695518130045147 -5.3
    endloop
  endfacet
  facet normal 0.4275550934302818 -0.9039892931234433 0
    outer loop
      vertex 1.5307337294603591 -3.695518130045147 -30
      vertex 1.8855869473039906 -3.52768505739342 -30
      vertex 1.8855869473039906 -3.52768505739342 -5.3
    endloop
  endfacet
  facet normal 0.514102744193222 -0.8577286100002719 0
    outer loop
      vertex 1.8855869473039906 -3.52768505739342 -30
      vertex 2.2222809320784087 -3.325878449210181 -30
      vertex 2.2222809320784087 -3.325878449210181 -5.3
    endloop
  endfacet
  facet normal 0 0 -1
    outer loop
      vertex 0 -4 -30
      vertex 0.3920685613182424 3.9807389066887877 -30
      vertex 0.3920685613182424 -3.9807389066887877 -30
    endloop
  endfacet
  facet normal 0 0 -1
    outer loop
      vertex 0.3920685613182424 -3.9807389066887877 -30
      vertex 0.780361288064513 3.9231411216129217 -30
      vertex 0.780361288064513 -3.9231411216129217 -30
    endloop
  endfacet
  facet normal 0 0 -1
    outer loop
      vertex 0.780361288064513 -3.9231411216129217 -30
      vertex 1.1611387090178493 3.8277613429288353 -30
      vertex 1.1611387090178493 -3.8277613429288353 -30
    endloop
  endfacet
  facet normal 0 0 -1
    outer loop
      vertex 1.1611387090178493 -3.8277613429288353 -30
      vertex 1.5307337294603591 3.695518130045147 -30
      vertex 1.5307337294603591 -3.695518130045147 -30
    endloop
  endfacet
  facet normal 0 0 -1
    outer loop
      vertex 1.5307337294603591 -3.695518130045147 -30
      vertex 1.8855869473039906 3.52768505739342 -30
      vertex 1.8855869473039906 -3.52768505739342 -30
    endloop
  endfacet
  facet normal 0 0 -1
    outer loop
      vertex 1.8855869473039906 -3.52768505739342 -30
      vertex 2.2222809320784087 3.325878449210181 -30
      vertex 2.2222809320784087 -3.325878449210181 -30
    endloop
  endfacet
  facet normal 0 0 -1
    outer loop
      vertex 2.2222809320784087 -3.325878449210181 -30
      vertex 2.537573136654582 3.092041813450948 -30
      vertex 2.537573136654582 -3.092041813450948 -30
    endloop
  endfacet
  facet normal 0 0 -1
    outer loop
      vertex 2.537573136654582 -3.092041813450948 -30
      vertex 2.8284271247461903 2.8284271247461903 -30
      vertex 2.8284271247461903 -2.8284271247461903 -30
    endloop
  endfacet
  facet normal 0 0 -1
    outer loop
      vertex 2.8284271247461903 -2.8284271247461903 -30
      vertex 3.092041813450948 2.537573136654582 -30
      vertex 3.092041813450948 -2.537573136654582 -30
    endloop
  endfacet
  facet normal 0 0 -1
    outer loop
      vertex 3.092041813450948 -2.537573136654582 -30
      vertex 3.325878449210181 2.2222809320784087 -30
      vertex 3.325878449210181 -2.2222809320784087 -30
    endloop
  endfacet
  facet normal 0 0 -1
    outer loop
      vertex 3.325878449210181 -2.2222809320784087 -30
      vertex 3.52768505739342 1.8855869473039906 -30
      vertex 3.52768505739342 -1.8855869473039906 -30
    endloop
  endfacet
  facet normal 0 0 -1
    outer loop
      vertex 3.52768505739342 -1.8855869473039906 -30
      vertex 3.695518130045147 1.5307337294603591 -30
      vertex 3.695518130045147 -1.5307337294603591 -30
    endloop
  endfacet
  facet normal 0.5956993044924329 -0.8032075314806452 0
    outer loop
      vertex 2.2222809320784087 -3.325878449210181 -30
      vertex 2.537573136654582 -3.092041813450948 -30
      vertex 2.537573136654582 -3.092041813450948 -5.3
    endloop
  endfacet
  facet normal 0.6715589548470181 -0.7409511253549594 0
    outer loop
      vertex 2.537573136654582 -3.092041813450948 -30
      vertex 2.8284271247461903 -2.8284271247461903 -30
      vertex 2.8284271247461903 -2.8284271247461903 -5.3
    endloop
  endfacet
  facet normal 0.7409511253549594 -0.6715589548470181 0
    outer loop
      vertex 2.8284271247461903 -2.8284271247461903 -30
      vertex 3.092041813450948 -2.537573136654582 -30
      vertex 3.092041813450948 -2.537573136654582 -5.3
    endloop
  endfacet
  facet normal 0.8032075314806452 -0.5956993044924329 0
    outer loop
      vertex 3.092041813450948 -2.537573136654582 -30
      vertex 3.325878449210181 -2.2222809320784087 -30
      vertex 3.325878449210181 -2.2222809320784087 -5.3
    endloop
  endfacet
  facet normal 0.8577286100002719 -0.514102744193222 0
    outer loop
      vertex 3.325878449210181 -2.2222809320784087 -30
      vertex 3.52768505739342 -1.8855869473039906 -30
      vertex 3.52768505739342 -1.8855869473039906 -5.3
    endloop
  endfacet
  facet normal 0.9039892931234433 -0.4275550934302818 0
    outer loop
      vertex 3.52768505739342 -1.8855869473039906 -30
      vertex 3.695518130045147 -1.5307337294603591 -30
      vertex 3.695518130045147 -1.5307337294603591 -5.3
    endloop
  endfacet
  facet normal 0 0 -1
    outer loop
      vertex 3.695518130045147 -1.5307337294603591 -30
      vertex 3.8277613429288353 1.1611387090178493 -30
      vertex 3.8277613429288353 -1.1611387090178493 -30
    endloop
  endfacet
  facet normal 0 0 -1
    outer loop
      vertex 3.8277613429288353 -1.1611387090178493 -30
      vertex 3.9231411216129217 0.780361288064513 -30
      vertex 3.9231411216129217 -0.780361288064513 -30
    endloop
  endfacet
  facet normal 0 0 -1
    outer loop
      vertex 3.9231411216129217 -0.780361288064513 -30
      vertex 3.9807389066887877 0.3920685613182424 -30
      vertex 3.9807389066887877 -0.3920685613182424 -30
    endloop
  endfacet
  facet normal 0.941544065183021 -0.3368898533922197 0
    outer loop
      vertex 3.695518130045147 -1.5307337294603591 -30
      vertex 3.8277613429288353 -1.1611387090178493 -30
      vertex 3.8277613429288353 -1.1611387090178493 -5.3
    endloop
  endfacet
  facet normal 0.9700312531945439 -0.24298017990326412 0
    outer loop
      vertex 3.8277613429288353 -1.1611387090178493 -30
      vertex 3.9231411216129217 -0.780361288064513 -30
      vertex 3.9231411216129217 -0.780361288064513 -5.3
    endloop
  endfacet
  facet normal 0.9891765099647808 -0.1467304744553624 0
    outer loop
      vertex 3.9231411216129217 -0.780361288064513 -30
      vertex 3.9807389066887877 -0.3920685613182424 -30
      vertex 3.9807389066887877 -0.3920685613182424 -5.3
    endloop
  endfacet
  facet normal 0.9987954562051724 -0.04906767432741758 0
    outer loop
      vertex 3.9807389066887877 -0.3920685613182424 -30
      vertex 4 0 -30
      vertex 4 0 -5.3
    endloop
  endfacet
  facet normal 0.04906767432741758 -0.9987954562051724 0
    outer loop
      vertex 0 -4 -30
      vertex 0.3920685613182424 -3.9807389066887877 -5.3
      vertex 0 -4 -5.3
    endloop
  endfacet
  facet normal 0.1467304744553624 -0.9891765099647808 0
    outer loop
      vertex 0.3920685613182424 -3.9807389066887877 -30
      vertex 0.780361288064513 -3.9231411216129217 -5.3
      vertex 0.3920685613182424 -3.9807389066887877 -5.3
    endloop
  endfacet
  facet normal 0.24298017990326412 -0.9700312531945439 0
    outer loop
      vertex 0.780361288064513 -3.9231411216129217 -30
      vertex 1.1611387090178493 -3.8277613429288353 -5.3
      vertex 0.780361288064513 -3.9231411216129217 -5.3
    endloop
  endfacet
  facet normal 0.3368898533922197 -0.941544065183021 0
    outer loop
      vertex 1.1611387090178493 -3.8277613429288353 -30
      vertex 1.5307337294603591 -3.695518130045147 -5.3
      vertex 1.1611387090178493 -3.8277613429288353 -5.3
    endloop
  endfacet
  facet normal 0.4275550934302818 -0.9039892931234433 0
    outer loop
      vertex 1.5307337294603591 -3.695518130045147 -30
      vertex 1.8855869473039906 -3.52768505739342 -5.3
      vertex 1.5307337294603591 -3.695518130045147 -5.3
    endloop
  endfacet
  facet normal 0.514102744193222 -0.8577286100002719 0
    outer loop
      vertex 1.8855869473039906 -3.52768505739342 -30
      vertex 2.2222809320784087 -3.325878449210181 -5.3
      vertex 1.8855869473039906 -3.52768505739342 -5.3
    endloop
  endfacet
  facet normal 0.5956993044924329 -0.8032075314806452 0
    outer loop
      vertex 2.2222809320784087 -3.325878449210181 -30
      vertex 2.537573136654582 -3.092041813450948 -5.3
      vertex 2.2222809320784087 -3.325878449210181 -5.3
    endloop
  endfacet
  facet normal 0.6715589548470181 -0.7409511253549594 0
    outer loop
      vertex 2.537573136654582 -3.092041813450948 -30
      vertex 2.8284271247461903 -2.8284271247461903 -5.3
      vertex 2.537573136654582 -3.092041813450948 -5.3
    endloop
  endfacet
  facet normal 0.7409511253549594 -0.6715589548470181 0
    outer loop
      vertex 2.8284271247461903 -2.8284271247461903 -30
      vertex 3.092041813450948 -2.537573136654582 -5.3
      vertex 2.8284271247461903 -2.8284271247461903 -5.3
    endloop
  endfacet
  facet normal 0.8032075314806452 -0.5956993044924329 0
    outer loop
      vertex 3.092041813450948 -2.537573136654582 -30
      vertex 3.325878449210181 -2.2222809320784087 -5.3
      vertex 3.092041813450948 -2.537573136654582 -5.3
    endloop
  endfacet
  facet normal 0.8577286100002719 -0.514102744193222 0
    outer loop
      vertex 3.325878449210181 -2.2222809320784087 -30
      vertex 3.52768505739342 -1.8855869473039906 -5.3
      vertex 3.325878449210181 -2.2222809320784087 -5.3
    endloop
  endfacet
  facet normal 0.9039892931234433 -0.4275550934302818 0
    outer loop
      vertex 3.52768505739342 -1.8855869473039906 -30
      vertex 3.695518130045147 -1.5307337294603591 -5.3
      vertex 3.52768505739342 -1.8855869473039906 -5.3
    endloop
  endfacet
  facet normal 0.941544065183021 -0.3368898533922197 0
    outer loop
      vertex 3.695518130045147 -1.5307337294603591 -30
      vertex 3.8277613429288353 -1.1611387090178493 -5.3
      vertex 3.695518130045147 -1.5307337294603591 -5.3
    endloop
  endfacet
  facet normal 0.9700312531945439 -0.24298017990326412 0
    outer loop
      vertex 3.8277613429288353 -1.1611387090178493 -30
      vertex 3.9231411216129217 -0.780361288064513 -5.3
      vertex 3.8277613429288353 -1.1611387090178493 -5.3
    endloop
  endfacet
  facet normal 0.9891765099647808 -0.1467304744553624 0
    outer loop
      vertex 3.9231411216129217 -0.780361288064513 -30
      vertex 3.9807389066887877 -0.3920685613182424 -5.3
      vertex 3.9231411216129217 -0.780361288064513 -5.3
    endloop
  endfacet
  facet normal 0.9987954562051724 -0.04906767432741758 0
    outer loop
      vertex 3.9807389066887877 -0.3920685613182424 -30
      vertex 4 0 -5.3
      vertex 3.9807389066887877 -0.3920685613182424 -5.3
    endloop
  endfacet
  facet normal 0 0 -1
    outer loop
      vertex 0 -4 -30
      vertex 0 4 -30
      vertex 0.3920685613182424 3.9807389066887877 -30
    endloop
  endfacet
  facet normal 0 0 -1
    outer loop
      vertex 0.3920685613182424 -3.9807389066887877 -30
      vertex 0.3920685613182424 3.9807389066887877 -30
      vertex 0.780361288064513 3.9231411216129217 -30
    endloop
  endfacet
  facet normal 0 0 -1
    outer loop
      vertex 0.780361288064513 -3.9231411216129217 -30
      vertex 0.780361288064513 3.9231411216129217 -30
      vertex 1.1611387090178493 3.8277613429288353 -30
    endloop
  endfacet
  facet normal 0 0 -1
    outer loop
      vertex 1.1611387090178493 -3.8277613429288353 -30
      vertex 1.1611387090178493 3.8277613429288353 -30
      vertex 1.5307337294603591 3.695518130045147 -30
    endloop
  endfacet
  facet normal 0 0 -1
    outer loop
      vertex 1.5307337294603591 -3.695518130045147 -30
      vertex 1.5307337294603591 3.695518130045147 -30
      vertex 1.8855869473039906 3.52768505739342 -30
    endloop
  endfacet
  facet normal 0 0 -1
    outer loop
      vertex 1.8855869473039906 -3.52768505739342 -30
      vertex 1.8855869473039906 3.52768505739342 -30
      vertex 2.2222809320784087 3.325878449210181 -30
    endloop
  endfacet
  facet normal 0 0 -1
    outer loop
      vertex 2.2222809320784087 -3.325878449210181 -30
      vertex 2.2222809320784087 3.325878449210181 -30
      vertex 2.537573136654582 3.092041813450948 -30
    endloop
  endfacet
  facet normal 0 0 -1
    outer loop
      vertex 2.537573136654582 -3.092041813450948 -30
      vertex 2.537573136654582 3.092041813450948 -30
      vertex 2.8284271247461903 2.8284271247461903 -30
    endloop
  endfacet
  facet normal 0 0 -1
    outer loop
      vertex 3.092041813450948 -2.537573136654582 -30
      vertex 3.092041813450948 2.537573136654582 -30
      vertex 3.325878449210181 2.2222809320784087 -30
    endloop
  endfacet
  facet normal 0 0 -1
    outer loop
      vertex 3.695518130045147 -1.5307337294603591 -30
      vertex 3.695518130045147 1.5307337294603591 -30
      vertex 3.8277613429288353 1.1611387090178493 -30
    endloop
  endfacet
  facet normal 0 0 -1
    outer loop
      vertex 3.325878449210181 -2.2222809320784087 -30
      vertex 3.325878449210181 2.2222809320784087 -30
      vertex 3.52768505739342 1.8855869473039906 -30
    endloop
  endfacet
  facet normal 0 0 -1
    outer loop
      vertex 3.52768505739342 -1.8855869473039906 -30
      vertex 3.52768505739342 1.8855869473039906 -30
      vertex 3.695518130045147 1.5307337294603591 -30
    endloop
  endfacet
  facet normal 0 0 -1
    outer loop
      vertex 2.8284271247461903 -2.8284271247461903 -30
      vertex 2.8284271247461903 2.8284271247461903 -30
      vertex 3.092041813450948 2.537573136654582 -30
    endloop
  endfacet
  facet normal 0.941544065183021 0.3368898533922197 0
    outer loop
      vertex 3.8277613429288353 1.1611387090178493 -30
      vertex 3.695518130045147 1.5307337294603591 -30
      vertex 3.695518130045147 1.5307337294603591 -5.3
    endloop
  endfacet
  facet normal 0.5956993044924329 0.8032075314806452 0
    outer loop
      vertex 2.2222809320784087 3.325878449210181 -30
      vertex 2.2222809320784087 3.325878449210181 -5.3
      vertex 2.537573136654582 3.092041813450948 -30
    endloop
  endfacet
  facet normal 0.6715589548470181 0.7409511253549594 0
    outer loop
      vertex 2.8284271247461903 2.8284271247461903 -30
      vertex 2.537573136654582 3.092041813450948 -30
      vertex 2.537573136654582 3.092041813450948 -5.3
    endloop
  endfacet
  facet normal 0.8032075314806452 0.5956993044924329 0
    outer loop
      vertex 3.325878449210181 2.2222809320784087 -30
      vertex 3.092041813450948 2.537573136654582 -30
      vertex 3.092041813450948 2.537573136654582 -5.3
    endloop
  endfacet
  facet normal 0.9039892931234433 0.4275550934302818 0
    outer loop
      vertex 3.695518130045147 1.5307337294603591 -30
      vertex 3.52768505739342 1.8855869473039906 -30
      vertex 3.52768505739342 1.8855869473039906 -5.3
    endloop
  endfacet
  facet normal 0.8577286100002719 0.514102744193222 0
    outer loop
      vertex 3.52768505739342 1.8855869473039906 -30
      vertex 3.325878449210181 2.2222809320784087 -30
      vertex 3.325878449210181 2.2222809320784087 -5.3
    endloop
  endfacet
  facet normal 0.7409511253549594 0.6715589548470181 0
    outer loop
      vertex 2.8284271247461903 2.8284271247461903 -30
      vertex 2.8284271247461903 2.8284271247461903 -5.3
      vertex 3.092041813450948 2.537573136654582 -30
    endloop
  endfacet
  facet normal 0.04906767432741758 0.9987954562051724 0
    outer loop
      vertex 0 4 -30
      vertex 0 4 -5.3
      vertex 0.3920685613182424 3.9807389066887877 -30
    endloop
  endfacet
  facet normal 0.1467304744553624 0.9891765099647808 0
    outer loop
      vertex 0.3920685613182424 3.9807389066887877 -30
      vertex 0.3920685613182424 3.9807389066887877 -5.3
      vertex 0.780361288064513 3.9231411216129217 -30
    endloop
  endfacet
  facet normal 0.24298017990326412 0.9700312531945439 0
    outer loop
      vertex 0.780361288064513 3.9231411216129217 -30
      vertex 0.780361288064513 3.9231411216129217 -5.3
      vertex 1.1611387090178493 3.8277613429288353 -30
    endloop
  endfacet
  facet normal 0.3368898533922197 0.941544065183021 0
    outer loop
      vertex 1.1611387090178493 3.8277613429288353 -30
      vertex 1.1611387090178493 3.8277613429288353 -5.3
      vertex 1.5307337294603591 3.695518130045147 -30
    endloop
  endfacet
  facet normal 0.4275550934302818 0.9039892931234433 0
    outer loop
      vertex 1.5307337294603591 3.695518130045147 -30
      vertex 1.5307337294603591 3.695518130045147 -5.3
      vertex 1.8855869473039906 3.52768505739342 -30
    endloop
  endfacet
  facet normal 0.514102744193222 0.8577286100002719 0
    outer loop
      vertex 1.8855869473039906 3.52768505739342 -30
      vertex 1.8855869473039906 3.52768505739342 -5.3
      vertex 2.2222809320784087 3.325878449210181 -30
    endloop
  endfacet
  facet normal 0 0 -1
    outer loop
      vertex 3.9807389066887877 -0.3920685613182424 -30
      vertex 3.9807389066887877 0.3920685613182424 -30
      vertex 4 0 -30
    endloop
  endfacet
  facet normal 0 0 -1
    outer loop
      vertex 3.9231411216129217 -0.780361288064513 -30
      vertex 3.9231411216129217 0.780361288064513 -30
      vertex 3.9807389066887877 0.3920685613182424 -30
    endloop
  endfacet
  facet normal 0 0 -1
    outer loop
      vertex 3.8277613429288353 -1.1611387090178493 -30
      vertex 3.8277613429288353 1.1611387090178493 -30
      vertex 3.9231411216129217 0.780361288064513 -30
    endloop
  endfacet
  facet normal 0.9987954562051724 0.04906767432741758 0
    outer loop
      vertex 4 0 -30
      vertex 3.9807389066887877 0.3920685613182424 -30
      vertex 3.9807389066887877 0.3920685613182424 -5.3
    endloop
  endfacet
  facet normal 0.9891765099647808 0.1467304744553624 0
    outer loop
      vertex 3.9807389066887877 0.3920685613182424 -30
      vertex 3.9231411216129217 0.780361288064513 -30
      vertex 3.9231411216129217 0.780361288064513 -5.3
    endloop
  endfacet
  facet normal 0.9700312531945439 0.24298017990326412 0
    outer loop
      vertex 3.9231411216129217 0.780361288064513 -30
      vertex 3.8277613429288353 1.1611387090178493 -30
      vertex 3.8277613429288353 1.1611387090178493 -5.3
    endloop
  endfacet
  facet normal 0.5956993044924329 0.8032075314806452 0
    outer loop
      vertex 2.537573136654582 3.092041813450948 -30
      vertex 2.2222809320784087 3.325878449210181 -5.3
      vertex 2.537573136654582 3.092041813450948 -5.3
    endloop
  endfacet
  facet normal 0.6715589548470181 0.7409511253549594 0
    outer loop
      vertex 2.8284271247461903 2.8284271247461903 -30
      vertex 2.537573136654582 3.092041813450948 -5.3
      vertex 2.8284271247461903 2.8284271247461903 -5.3
    endloop
  endfacet
  facet normal 0.8032075314806452 0.5956993044924329 0
    outer loop
      vertex 3.325878449210181 2.2222809320784087 -30
      vertex 3.092041813450948 2.537573136654582 -5.3
      vertex 3.325878449210181 2.2222809320784087 -5.3
    endloop
  endfacet
  facet normal 0.8577286100002719 0.514102744193222 0
    outer loop
      vertex 3.52768505739342 1.8855869473039906 -30
      vertex 3.325878449210181 2.2222809320784087 -5.3
      vertex 3.52768505739342 1.8855869473039906 -5.3
    endloop
  endfacet
  facet normal 0.9039892931234433 0.4275550934302818 0
    outer loop
      vertex 3.695518130045147 1.5307337294603591 -30
      vertex 3.52768505739342 1.8855869473039906 -5.3
      vertex 3.695518130045147 1.5307337294603591 -5.3
    endloop
  endfacet
  facet normal 0.7409511253549594 0.6715589548470181 0
    outer loop
      vertex 3.092041813450948 2.537573136654582 -30
      vertex 2.8284271247461903 2.8284271247461903 -5.3
      vertex 3.092041813450948 2.537573136654582 -5.3
    endloop
  endfacet
  facet normal 0.04906767432741758 0.9987954562051724 0
    outer loop
      vertex 0.3920685613182424 3.9807389066887877 -30
      vertex 0 4 -5.3
      vertex 0.3920685613182424 3.9807389066887877 -5.3
    endloop
  endfacet
  facet normal 0.1467304744553624 0.9891765099647808 0
    outer loop
      vertex 0.780361288064513 3.9231411216129217 -30
      vertex 0.3920685613182424 3.9807389066887877 -5.3
      vertex 0.780361288064513 3.9231411216129217 -5.3
    endloop
  endfacet
  facet normal 0.24298017990326412 0.9700312531945439 0
    outer loop
      vertex 1.1611387090178493 3.8277613429288353 -30
      vertex 0.780361288064513 3.9231411216129217 -5.3
      vertex 1.1611387090178493 3.8277613429288353 -5.3
    endloop
  endfacet
  facet normal 0.4275550934302818 0.9039892931234433 0
    outer loop
      vertex 1.8855869473039906 3.52768505739342 -30
      vertex 1.5307337294603591 3.695518130045147 -5.3
      vertex 1.8855869473039906 3.52768505739342 -5.3
    endloop
  endfacet
  facet normal 0.3368898533922197 0.941544065183021 0
    outer loop
      vertex 1.5307337294603591 3.695518130045147 -30
      vertex 1.1611387090178493 3.8277613429288353 -5.3
      vertex 1.5307337294603591 3.695518130045147 -5.3
    endloop
  endfacet
  facet normal 0.514102744193222 0.8577286100002719 0
    outer loop
      vertex 2.2222809320784087 3.325878449210181 -30
      vertex 1.8855869473039906 3.52768505739342 -5.3
      vertex 2.2222809320784087 3.325878449210181 -5.3
    endloop
  endfacet
  facet normal 0.9987954562051724 0.04906767432741758 0
    outer loop
      vertex 4 0 -30
      vertex 3.9807389066887877 0.3920685613182424 -5.3
      vertex 4 0 -5.3
    endloop
  endfacet
  facet normal 0.9891765099647808 0.1467304744553624 0
    outer loop
      vertex 3.9807389066887877 0.3920685613182424 -30
      vertex 3.9231411216129217 0.780361288064513 -5.3
      vertex 3.9807389066887877 0.3920685613182424 -5.3
    endloop
  endfacet
  facet normal 0.9700312531945439 0.24298017990326412 0
    outer loop
      vertex 3.9231411216129217 0.780361288064513 -30
      vertex 3.8277613429288353 1.1611387090178493 -5.3
      vertex 3.9231411216129217 0.780361288064513 -5.3
    endloop
  endfacet
  facet normal 0.941544065183021 0.3368898533922197 0
    outer loop
      vertex 3.8277613429288353 1.1611387090178493 -30
      vertex 3.695518130045147 1.5307337294603591 -5.3
      vertex 3.8277613429288353 1.1611387090178493 -5.3
    endloop
  endfacet
endsolid OpenSCAD_Model
