solid OpenSCAD_Model
  facet normal 0 0 -1
    outer loop
      vertex 0 3 0
      vertex 2.25 2 0
      vertex 0 2 0
    endloop
  endfacet
  facet normal -1 0 0
    outer loop
      vertex 0 3 0
      vertex 0 3 3
      vertex 0 40 0
    endloop
  endfacet
  facet normal 0 0 -1
    outer loop
      vertex 50 40 0
      vertex 2.25 0 0
      vertex 2.25 2 0
    endloop
  endfacet
  facet normal 0 0 -1
    outer loop
      vertex 0 3 0
      vertex 50 40 0
      vertex 2.25 2 0
    endloop
  endfacet
  facet normal 0 0 1
    outer loop
      vertex 0 3 3
      vertex 50 3 3
      vertex 0 40 3
    endloop
  endfacet
  facet normal -1 0 0
    outer loop
      vertex 0 3 3
      vertex 0 40 3
      vertex 0 40 0
    endloop
  endfacet
  facet normal 0 0 -1
    outer loop
      vertex 0 3 0
      vertex 0 40 0
      vertex 50 40 0
    endloop
  endfacet
  facet normal 0 1 0
    outer loop
      vertex 0 40 0
      vertex 0 40 3
      vertex 50 40 0
    endloop
  endfacet
  facet normal 0 0 -1
    outer loop
      vertex 50 0 0
      vertex 2.25 0 0
      vertex 50 40 0
    endloop
  endfacet
  facet normal 1 0 0
    outer loop
      vertex 50 0 0
      vertex 50 2.7906976744186047 2.7906976744186047
      vertex 50 0 3
    endloop
  endfacet
  facet normal 1 0 0
    outer loop
      vertex 50 0 3
      vertex 50 2.7906976744186047 2.7906976744186047
      vertex 50 2.5813953488372094 3
    endloop
  endfacet
  facet normal 1 0 0
    outer loop
      vertex 50 2.7906976744186047 2.7906976744186047
      vertex 50 3 3
      vertex 50 2.775 3
    endloop
  endfacet
  facet normal 1 0 0
    outer loop
      vertex 50 0 0
      vertex 50 40 0
      vertex 50 2.7906976744186047 2.7906976744186047
    endloop
  endfacet
  facet normal 1 0 0
    outer loop
      vertex 50 2.7906976744186047 2.7906976744186047
      vertex 50 40 3
      vertex 50 3 3
    endloop
  endfacet
  facet normal 0 0 1
    outer loop
      vertex 0 40 3
      vertex 50 3 3
      vertex 50 40 3
    endloop
  endfacet
  facet normal 0 1 0
    outer loop
      vertex 0 40 3
      vertex 50 40 3
      vertex 50 40 0
    endloop
  endfacet
  facet normal 1 0 0
    outer loop
      vertex 50 2.7906976744186047 2.7906976744186047
      vertex 50 40 0
      vertex 50 40 3
    endloop
  endfacet
  facet normal -1 0 0
    outer loop
      vertex 0 3 3
      vertex 0 2 0
      vertex 0 2 2.25
    endloop
  endfacet
  facet normal -1 0 0
    outer loop
      vertex 0 3 0
      vertex 0 2 0
      vertex 0 3 3
    endloop
  endfacet
  facet normal -1 0 0
    outer loop
      vertex 0 0 40
      vertex 0 2 2.25
      vertex 0 0 2.25
    endloop
  endfacet
  facet normal -1 0 0
    outer loop
      vertex 0 3 3
      vertex 0 2 2.25
      vertex 0 3 40
    endloop
  endfacet
  facet normal 0 -1 0
    outer loop
      vertex 50 0 40
      vertex 1.5909902576697321 0 1.5909902576697321
      vertex 2.25 0 0
    endloop
  endfacet
  facet normal 0 -1 0
    outer loop
      vertex 50 0 40
      vertex 0 0 2.25
      vertex 1.5909902576697321 0 1.5909902576697321
    endloop
  endfacet
  facet normal 0 1 0
    outer loop
      vertex 0 3 3
      vertex 0 3 40
      vertex 50 3 3
    endloop
  endfacet
  facet normal -1 0 0
    outer loop
      vertex 0 0 40
      vertex 0 3 40
      vertex 0 2 2.25
    endloop
  endfacet
  facet normal 0 -1 0
    outer loop
      vertex 0 0 40
      vertex 0 0 2.25
      vertex 50 0 40
    endloop
  endfacet
  facet normal 0 0 1
    outer loop
      vertex 0 0 40
      vertex 50 0 40
      vertex 0 3 40
    endloop
  endfacet
  facet normal 0 -1 0
    outer loop
      vertex 50 0 0
      vertex 50 0 3
      vertex 2.25 0 0
    endloop
  endfacet
  facet normal 0 -1 0
    outer loop
      vertex 50 0 3
      vertex 50 0 40
      vertex 2.25 0 0
    endloop
  endfacet
  facet normal 1 0 0
    outer loop
      vertex 50 2.5813953488372094 3
      vertex 50 2.7906976744186047 2.7906976744186047
      vertex 50 2.775 3
    endloop
  endfacet
  facet normal 1 0 0
    outer loop
      vertex 50 0 3
      vertex 50 2.5813953488372094 3
      vertex 50 0 40
    endloop
  endfacet
  facet normal 1 0 0
    outer loop
      vertex 50 2.5813953488372094 3
      vertex 50 2.775 3
      vertex 50 0 40
    endloop
  endfacet
  facet normal 1 0 0
    outer loop
      vertex 50 2.775 3
      vertex 50 3 3
      vertex 50 3 40
    endloop
  endfacet
  facet normal 0 1 0
    outer loop
      vertex 0 3 40
      vertex 50 3 40
      vertex 50 3 3
    endloop
  endfacet
  facet normal 0 0 1
    outer loop
      vertex 0 3 40
      vertex 50 0 40
      vertex 50 3 40
    endloop
  endfacet
  facet normal 1 0 0
    outer loop
      vertex 50 2.775 3
      vertex 50 3 40
      vertex 50 0 40
    endloop
  endfacet
  facet normal -0.9238795325112867 0 -0.3826834323650896
    outer loop
      vertex -1.5909902576697321 2 -1.5909902576697321
      vertex -1.5909902576697321 0 -1.5909902576697321
      vertex -2.25 0 0
    endloop
  endfacet
  facet normal -0.3826834323650896 0 -0.9238795325112867
    outer loop
      vertex 0 2 -2.25
      vertex 0 0 -2.25
      vertex -1.5909902576697321 0 -1.5909902576697321
    endloop
  endfacet
  facet normal 0.3826834323650896 0 -0.9238795325112867
    outer loop
      vertex 1.5909902576697321 0 -1.5909902576697321
      vertex 0 0 -2.25
      vertex 1.5909902576697321 2 -1.5909902576697321
    endloop
  endfacet
  facet normal -0.3826834323650896 0 0.9238795325112867
    outer loop
      vertex -1.5909902576697321 2 1.5909902576697321
      vertex -1.5909902576697321 0 1.5909902576697321
      vertex 0 0 2.25
    endloop
  endfacet
  facet normal -0.38268343236508995 0 -0.9238795325112867
    outer loop
      vertex 58.40900974233027 18 -0.09099025766973212
      vertex 60 20 -0.75
      vertex 60 18 -0.75
    endloop
  endfacet
  facet normal -0.38268343236508995 0 -0.9238795325112867
    outer loop
      vertex 58.40900974233027 18 -0.09099025766973212
      vertex 58.40900974233027 20 -0.09099025766973212
      vertex 60 20 -0.75
    endloop
  endfacet
  facet normal 0.38268343236508995 0 -0.9238795325112867
    outer loop
      vertex 60 18 -0.75
      vertex 61.59099025766973 20 -0.09099025766973212
      vertex 61.59099025766973 18 -0.09099025766973212
    endloop
  endfacet
  facet normal 0.38268343236508995 0 -0.9238795325112867
    outer loop
      vertex 60 18 -0.75
      vertex 60 20 -0.75
      vertex 61.59099025766973 20 -0.09099025766973212
    endloop
  endfacet
  facet normal -0.9238795325112865 0 -0.38268343236509045
    outer loop
      vertex 58.40900974233027 18 -0.09099025766973212
      vertex 57.75 18 1.5
      vertex 58.40900974233027 20 -0.09099025766973212
    endloop
  endfacet
  facet normal -0.9238795325112865 0 0.3826834323650904
    outer loop
      vertex 57.75 18 1.5
      vertex 58.40900974233027 18 3.0909902576697323
      vertex 57.75 20 1.5
    endloop
  endfacet
  facet normal -0.9238795325112865 0 -0.38268343236509045
    outer loop
      vertex 57.75 18 1.5
      vertex 57.75 20 1.5
      vertex 58.40900974233027 20 -0.09099025766973212
    endloop
  endfacet
  facet normal -0.9238795325112865 0 0.3826834323650904
    outer loop
      vertex 58.40900974233027 18 3.0909902576697323
      vertex 58.40900974233027 20 3.0909902576697323
      vertex 57.75 20 1.5
    endloop
  endfacet
  facet normal 0.9238795325112865 0 -0.38268343236509045
    outer loop
      vertex 61.59099025766973 18 -0.09099025766973212
      vertex 62.25 20 1.5
      vertex 62.25 18 1.5
    endloop
  endfacet
  facet normal 0.9238795325112865 0 0.3826834323650904
    outer loop
      vertex 62.25 18 1.5
      vertex 61.59099025766973 20 3.0909902576697323
      vertex 61.59099025766973 18 3.0909902576697323
    endloop
  endfacet
  facet normal 0.9238795325112865 0 -0.38268343236509045
    outer loop
      vertex 61.59099025766973 18 -0.09099025766973212
      vertex 61.59099025766973 20 -0.09099025766973212
      vertex 62.25 20 1.5
    endloop
  endfacet
  facet normal 0.9238795325112865 0 0.3826834323650904
    outer loop
      vertex 62.25 18 1.5
      vertex 62.25 20 1.5
      vertex 61.59099025766973 20 3.0909902576697323
    endloop
  endfacet
  facet normal -0.38268343236508984 0 0.9238795325112867
    outer loop
      vertex 58.40900974233027 18 3.0909902576697323
      vertex 60 18 3.75
      vertex 58.40900974233027 20 3.0909902576697323
    endloop
  endfacet
  facet normal -0.38268343236508984 0 0.9238795325112867
    outer loop
      vertex 60 18 3.75
      vertex 60 20 3.75
      vertex 58.40900974233027 20 3.0909902576697323
    endloop
  endfacet
  facet normal 0.38268343236508984 0 0.9238795325112867
    outer loop
      vertex 60 18 3.75
      vertex 61.59099025766973 18 3.0909902576697323
      vertex 60 20 3.75
    endloop
  endfacet
  facet normal 0.38268343236508984 0 0.9238795325112867
    outer loop
      vertex 61.59099025766973 18 3.0909902576697323
      vertex 61.59099025766973 20 3.0909902576697323
      vertex 60 20 3.75
    endloop
  endfacet
  facet normal 0 1 0
    outer loop
      vertex 58.40900974233027 20 -0.09099025766973212
      vertex 57.75 20 1.5
      vertex 58.40900974233027 20 3.0909902576697323
    endloop
  endfacet
  facet normal 0 1 0
    outer loop
      vertex 58.40900974233027 20 -0.09099025766973212
      vertex 60 20 3.75
      vertex 60 20 -0.75
    endloop
  endfacet
  facet normal 0 1 0
    outer loop
      vertex 58.40900974233027 20 -0.09099025766973212
      vertex 58.40900974233027 20 3.0909902576697323
      vertex 60 20 3.75
    endloop
  endfacet
  facet normal 0 1 0
    outer loop
      vertex 60 20 -0.75
      vertex 61.59099025766973 20 3.0909902576697323
      vertex 61.59099025766973 20 -0.09099025766973212
    endloop
  endfacet
  facet normal 0 1 0
    outer loop
      vertex 61.59099025766973 20 -0.09099025766973212
      vertex 61.59099025766973 20 3.0909902576697323
      vertex 62.25 20 1.5
    endloop
  endfacet
  facet normal 0 1 0
    outer loop
      vertex 60 20 -0.75
      vertex 60 20 3.75
      vertex 61.59099025766973 20 3.0909902576697323
    endloop
  endfacet
  facet normal -0.38268343236508956 0 -0.9238795325112867
    outer loop
      vertex -11.590990257669732 18 -0.09099025766973212
      vertex -10 20 -0.75
      vertex -10 18 -0.75
    endloop
  endfacet
  facet normal -0.38268343236508956 0 -0.9238795325112867
    outer loop
      vertex -11.590990257669732 18 -0.09099025766973212
      vertex -11.590990257669732 20 -0.09099025766973212
      vertex -10 20 -0.75
    endloop
  endfacet
  facet normal 0.38268343236508956 0 -0.9238795325112867
    outer loop
      vertex -10 18 -0.75
      vertex -8.409009742330268 20 -0.09099025766973212
      vertex -8.409009742330268 18 -0.09099025766973212
    endloop
  endfacet
  facet normal 0.38268343236508956 0 -0.9238795325112867
    outer loop
      vertex -10 18 -0.75
      vertex -10 20 -0.75
      vertex -8.409009742330268 20 -0.09099025766973212
    endloop
  endfacet
  facet normal -0.9238795325112868 0 -0.38268343236508956
    outer loop
      vertex -11.590990257669732 18 -0.09099025766973212
      vertex -12.25 18 1.5
      vertex -11.590990257669732 20 -0.09099025766973212
    endloop
  endfacet
  facet normal -0.9238795325112868 0 0.3826834323650895
    outer loop
      vertex -12.25 18 1.5
      vertex -11.590990257669732 18 3.0909902576697323
      vertex -12.25 20 1.5
    endloop
  endfacet
  facet normal -0.9238795325112868 0 -0.38268343236508956
    outer loop
      vertex -12.25 18 1.5
      vertex -12.25 20 1.5
      vertex -11.590990257669732 20 -0.09099025766973212
    endloop
  endfacet
  facet normal -0.9238795325112868 0 0.3826834323650895
    outer loop
      vertex -11.590990257669732 18 3.0909902576697323
      vertex -11.590990257669732 20 3.0909902576697323
      vertex -12.25 20 1.5
    endloop
  endfacet
  facet normal 0.9238795325112868 0 -0.38268343236508956
    outer loop
      vertex -8.409009742330268 18 -0.09099025766973212
      vertex -7.75 20 1.5
      vertex -7.75 18 1.5
    endloop
  endfacet
  facet normal 0.9238795325112868 0 0.3826834323650895
    outer loop
      vertex -7.75 18 1.5
      vertex -8.409009742330268 20 3.0909902576697323
      vertex -8.409009742330268 18 3.0909902576697323
    endloop
  endfacet
  facet normal 0.9238795325112868 0 -0.38268343236508956
    outer loop
      vertex -8.409009742330268 18 -0.09099025766973212
      vertex -8.409009742330268 20 -0.09099025766973212
      vertex -7.75 20 1.5
    endloop
  endfacet
  facet normal 0.9238795325112868 0 0.3826834323650895
    outer loop
      vertex -7.75 18 1.5
      vertex -7.75 20 1.5
      vertex -8.409009742330268 20 3.0909902576697323
    endloop
  endfacet
  facet normal -0.3826834323650895 0 0.9238795325112868
    outer loop
      vertex -11.590990257669732 18 3.0909902576697323
      vertex -10 18 3.75
      vertex -11.590990257669732 20 3.0909902576697323
    endloop
  endfacet
  facet normal -0.3826834323650895 0 0.9238795325112868
    outer loop
      vertex -10 18 3.75
      vertex -10 20 3.75
      vertex -11.590990257669732 20 3.0909902576697323
    endloop
  endfacet
  facet normal 0.3826834323650895 0 0.9238795325112868
    outer loop
      vertex -10 18 3.75
      vertex -8.409009742330268 18 3.0909902576697323
      vertex -10 20 3.75
    endloop
  endfacet
  facet normal 0.3826834323650895 0 0.9238795325112868
    outer loop
      vertex -8.409009742330268 18 3.0909902576697323
      vertex -8.409009742330268 20 3.0909902576697323
      vertex -10 20 3.75
    endloop
  endfacet
  facet normal 0 1 0
    outer loop
      vertex -11.590990257669732 20 -0.09099025766973212
      vertex -12.25 20 1.5
      vertex -11.590990257669732 20 3.0909902576697323
    endloop
  endfacet
  facet normal 0 1 0
    outer loop
      vertex -11.590990257669732 20 -0.09099025766973212
      vertex -10 20 3.75
      vertex -10 20 -0.75
    endloop
  endfacet
  facet normal 0 1 0
    outer loop
      vertex -11.590990257669732 20 -0.09099025766973212
      vertex -11.590990257669732 20 3.0909902576697323
      vertex -10 20 3.75
    endloop
  endfacet
  facet normal 0 1 0
    outer loop
      vertex -10 20 -0.75
      vertex -8.409009742330268 20 3.0909902576697323
      vertex -8.409009742330268 20 -0.09099025766973212
    endloop
  endfacet
  facet normal 0 1 0
    outer loop
      vertex -8.409009742330268 20 -0.09099025766973212
      vertex -8.409009742330268 20 3.0909902576697323
      vertex -7.75 20 1.5
    endloop
  endfacet
  facet normal 0 1 0
    outer loop
      vertex -10 20 -0.75
      vertex -10 20 3.75
      vertex -8.409009742330268 20 3.0909902576697323
    endloop
  endfacet
  facet normal -0.3826834323650896 0 -0.9238795325112867
    outer loop
      vertex 0 2 -2.25
      vertex -1.5909902576697321 0 -1.5909902576697321
      vertex -1.5909902576697321 2 -1.5909902576697321
    endloop
  endfacet
  facet normal -0.9238795325112867 0 -0.3826834323650896
    outer loop
      vertex -2.25 0 0
      vertex -2.25 2 0
      vertex -1.5909902576697321 2 -1.5909902576697321
    endloop
  endfacet
  facet normal 0 -1 0
    outer loop
      vertex 0 0 -2.25
      vertex 1.5909902576697321 0 -1.5909902576697321
      vertex -1.5909902576697321 0 -1.5909902576697321
    endloop
  endfacet
  facet normal 0 -1 0
    outer loop
      vertex 1.5909902576697321 0 -1.5909902576697321
      vertex 2.25 0 0
      vertex -1.5909902576697321 0 -1.5909902576697321
    endloop
  endfacet
  facet normal 0 -1 0
    outer loop
      vertex -2.25 0 0
      vertex -1.5909902576697321 0 -1.5909902576697321
      vertex 2.25 0 0
    endloop
  endfacet
  facet normal 0.3826834323650896 0 -0.9238795325112867
    outer loop
      vertex 1.5909902576697321 2 -1.5909902576697321
      vertex 0 0 -2.25
      vertex 0 2 -2.25
    endloop
  endfacet
  facet normal -0.9238795325112867 0 0.3826834323650896
    outer loop
      vertex -2.25 0 0
      vertex -1.5909902576697321 0 1.5909902576697321
      vertex -2.25 2 0
    endloop
  endfacet
  facet normal 0 -1 0
    outer loop
      vertex -2.25 0 0
      vertex 1.5909902576697321 0 1.5909902576697321
      vertex -1.5909902576697321 0 1.5909902576697321
    endloop
  endfacet
  facet normal -0.9238795325112867 0 0.3826834323650896
    outer loop
      vertex -2.25 2 0
      vertex -1.5909902576697321 0 1.5909902576697321
      vertex -1.5909902576697321 2 1.5909902576697321
    endloop
  endfacet
  facet normal 0 -1 0
    outer loop
      vertex -2.25 0 0
      vertex 2.25 0 0
      vertex 1.5909902576697321 0 1.5909902576697321
    endloop
  endfacet
  facet normal 0 -1 0
    outer loop
      vertex 0 0 2.25
      vertex -1.5909902576697321 0 1.5909902576697321
      vertex 1.5909902576697321 0 1.5909902576697321
    endloop
  endfacet
  facet normal -0.3826834323650896 0 0.9238795325112867
    outer loop
      vertex -1.5909902576697321 2 1.5909902576697321
      vertex 0 0 2.25
      vertex 0 2 2.25
    endloop
  endfacet
  facet normal 0.9238795325112867 0 -0.3826834323650896
    outer loop
      vertex 2.25 2 0
      vertex 2.25 0 0
      vertex 1.5909902576697321 0 -1.5909902576697321
    endloop
  endfacet
  facet normal 0.9238795325112867 0 -0.3826834323650896
    outer loop
      vertex 1.5909902576697321 0 -1.5909902576697321
      vertex 1.5909902576697321 2 -1.5909902576697321
      vertex 2.25 2 0
    endloop
  endfacet
  facet normal 0 -1 0
    outer loop
      vertex 60 18 -0.75
      vertex 61.59099025766973 18 -0.09099025766973212
      vertex 62.25 18 1.5
    endloop
  endfacet
  facet normal 0 -1 0
    outer loop
      vertex 58.40900974233027 18 -0.09099025766973212
      vertex 58.40900974233027 18 3.0909902576697323
      vertex 57.75 18 1.5
    endloop
  endfacet
  facet normal 0 -1 0
    outer loop
      vertex 58.40900974233027 18 -0.09099025766973212
      vertex 60 18 3.75
      vertex 58.40900974233027 18 3.0909902576697323
    endloop
  endfacet
  facet normal 0 -1 0
    outer loop
      vertex 58.40900974233027 18 -0.09099025766973212
      vertex 60 18 -0.75
      vertex 61.59099025766973 18 3.0909902576697323
    endloop
  endfacet
  facet normal 0 -1 0
    outer loop
      vertex 60 18 -0.75
      vertex 62.25 18 1.5
      vertex 61.59099025766973 18 3.0909902576697323
    endloop
  endfacet
  facet normal 0 -1 0
    outer loop
      vertex 58.40900974233027 18 -0.09099025766973212
      vertex 61.59099025766973 18 3.0909902576697323
      vertex 60 18 3.75
    endloop
  endfacet
  facet normal 0 -1 0
    outer loop
      vertex -10 18 -0.75
      vertex -8.409009742330268 18 -0.09099025766973212
      vertex -7.75 18 1.5
    endloop
  endfacet
  facet normal 0 -1 0
    outer loop
      vertex -11.590990257669732 18 -0.09099025766973212
      vertex -11.590990257669732 18 3.0909902576697323
      vertex -12.25 18 1.5
    endloop
  endfacet
  facet normal 0 -1 0
    outer loop
      vertex -11.590990257669732 18 -0.09099025766973212
      vertex -10 18 -0.75
      vertex -8.409009742330268 18 3.0909902576697323
    endloop
  endfacet
  facet normal 0 -1 0
    outer loop
      vertex -11.590990257669732 18 -0.09099025766973212
      vertex -10 18 3.75
      vertex -11.590990257669732 18 3.0909902576697323
    endloop
  endfacet
  facet normal 0 -1 0
    outer loop
      vertex -11.590990257669732 18 -0.09099025766973212
      vertex -8.409009742330268 18 3.0909902576697323
      vertex -10 18 3.75
    endloop
  endfacet
  facet normal 0 -1 0
    outer loop
      vertex -10 18 -0.75
      vertex -7.75 18 1.5
      vertex -8.409009742330268 18 3.0909902576697323
    endloop
  endfacet
  facet normal 0 1 0
    outer loop
      vertex -2.25 2 0
      vertex 0 2 0
      vertex -1.5909902576697321 2 -1.5909902576697321
    endloop
  endfacet
  facet normal 0 1 0
    outer loop
      vertex -1.5909902576697321 2 -1.5909902576697321
      vertex 2.25 2 0
      vertex 0 2 -2.25
    endloop
  endfacet
  facet normal 0 1 0
    outer loop
      vertex 1.5909902576697321 2 -1.5909902576697321
      vertex 0 2 -2.25
      vertex 2.25 2 0
    endloop
  endfacet
  facet normal 0 1 0
    outer loop
      vertex 0 2 0
      vertex 2.25 2 0
      vertex -1.5909902576697321 2 -1.5909902576697321
    endloop
  endfacet
  facet normal 0 1 0
    outer loop
      vertex -2.25 2 0
      vertex 0 2 2.25
      vertex 0 2 0
    endloop
  endfacet
  facet normal 0 1 0
    outer loop
      vertex -2.25 2 0
      vertex -1.5909902576697321 2 1.5909902576697321
      vertex 0 2 2.25
    endloop
  endfacet
endsolid OpenSCAD_Model
