solid OpenSCAD_Model
  facet normal -1.345724878333523e-16 0 -1
    outer loop
      vertex -14.725 -6.75 -6.7
      vertex -14.725 -6.300000000000001 -6.7
      vertex -8.125 -6.75 -6.700000000000001
    endloop
  endfacet
  facet normal 0 1.9737298215558367e-15 -1
    outer loop
      vertex -8.125 -6.300000000000001 -6.7
      vertex -8.125 -6.75 -6.700000000000001
      vertex -14.725 -6.300000000000001 -6.7
    endloop
  endfacet
  facet normal 0 -1 0
    outer loop
      vertex -14.725 -6.75 -6.7
      vertex -8.125 -6.75 -6.700000000000001
      vertex -14.725 -6.75 6.7
    endloop
  endfacet
  facet normal 0 -1 0
    outer loop
      vertex -14.725 -6.75 6.7
      vertex -8.125 -6.75 -6.700000000000001
      vertex -8.125 -6.75 -3.400000000000001
    endloop
  endfacet
  facet normal 0 0 1
    outer loop
      vertex -14.725 -6.75 6.7
      vertex -11.755733729460358 -3.695518130045147 6.7
      vertex -12.447280932078408 -3.325878449210181 6.7
    endloop
  endfacet
  facet normal 0 0 1
    outer loop
      vertex -14.725 -6.75 6.7
      vertex -12.447280932078408 -3.325878449210181 6.7
      vertex -13.05342712474619 -2.8284271247461903 6.7
    endloop
  endfacet
  facet normal 0 0 1
    outer loop
      vertex -14.725 -6.75 6.7
      vertex -13.05342712474619 -2.8284271247461903 6.7
      vertex -13.550878449210181 -2.2222809320784087 6.7
    endloop
  endfacet
  facet normal 0 0 1
    outer loop
      vertex -14.725 -6.75 6.7
      vertex -11.005361288064513 -3.9231411216129217 6.7
      vertex -11.755733729460358 -3.695518130045147 6.7
    endloop
  endfacet
  facet normal 0 0 1
    outer loop
      vertex -14.725 -6.75 6.7
      vertex -10.225 -4 6.7
      vertex -11.005361288064513 -3.9231411216129217 6.7
    endloop
  endfacet
  facet normal 0 0 1
    outer loop
      vertex -14.725 -6.75 6.7
      vertex -9.444638711935486 -3.9231411216129217 6.7
      vertex -10.225 -4 6.7
    endloop
  endfacet
  facet normal 0 0 1
    outer loop
      vertex -14.725 -6.75 6.7
      vertex -8.694266270539641 -3.695518130045147 6.7
      vertex -9.444638711935486 -3.9231411216129217 6.7
    endloop
  endfacet
  facet normal 0 -1 0
    outer loop
      vertex -14.725 -6.75 6.7
      vertex -8.125 -6.75 -3.400000000000001
      vertex 14.725 -6.75 6.7
    endloop
  endfacet
  facet normal 0 0 1
    outer loop
      vertex -14.725 -6.75 6.7
      vertex 7.252719067921591 -3.325878449210181 6.7
      vertex -8.694266270539641 -3.695518130045147 6.7
    endloop
  endfacet
  facet normal -1 0 0
    outer loop
      vertex -14.725 -6.75 -6.7
      vertex -14.725 6.4750000000000005 -0.35000000000000053
      vertex -14.725 -6.300000000000001 -6.7
    endloop
  endfacet
  facet normal -1 0 0
    outer loop
      vertex -14.725 6.4750000000000005 -0.35000000000000053
      vertex -14.725 6.4750000000000005 -6.7
      vertex -14.725 -6.300000000000001 -6.7
    endloop
  endfacet
  facet normal -1 0 0
    outer loop
      vertex -14.725 -6.75 -6.7
      vertex -14.725 6.75 6.7
      vertex -14.725 6.4750000000000005 -0.35000000000000053
    endloop
  endfacet
  facet normal 0 1 0
    outer loop
      vertex -14.725 6.4750000000000005 -6.7
      vertex -14.725 6.4750000000000005 -0.35000000000000053
      vertex 14.725 6.4750000000000005 -0.35000000000000053
    endloop
  endfacet
  facet normal 0 0 -1
    outer loop
      vertex -14.725 6.4750000000000005 -0.35000000000000053
      vertex -14.725 6.75 -0.35000000000000053
      vertex 14.725 6.4750000000000005 -0.35000000000000053
    endloop
  endfacet
  facet normal -1 0 0
    outer loop
      vertex -14.725 -6.75 -6.7
      vertex -14.725 -6.75 6.7
      vertex -14.725 6.75 6.7
    endloop
  endfacet
  facet normal 0 0 1
    outer loop
      vertex -14.725 -6.75 6.7
      vertex -13.550878449210181 -2.2222809320784087 6.7
      vertex -13.920518130045146 -1.5307337294603591 6.7
    endloop
  endfacet
  facet normal 0 0 1
    outer loop
      vertex -14.725 -6.75 6.7
      vertex -14.148141121612921 -0.780361288064513 6.7
      vertex -14.225 0 6.7
    endloop
  endfacet
  facet normal 0 0 1
    outer loop
      vertex -14.725 -6.75 6.7
      vertex -13.920518130045146 -1.5307337294603591 6.7
      vertex -14.148141121612921 -0.780361288064513 6.7
    endloop
  endfacet
  facet normal 0 0 1
    outer loop
      vertex -14.725 -6.75 6.7
      vertex -14.225 0 6.7
      vertex -14.725 6.75 6.7
    endloop
  endfacet
  facet normal -1 0 0
    outer loop
      vertex -14.725 6.4750000000000005 -0.35000000000000053
      vertex -14.725 6.75 6.7
      vertex -14.725 6.75 -0.35000000000000053
    endloop
  endfacet
  facet normal 0 0 1
    outer loop
      vertex -14.725 6.75 6.7
      vertex -14.225 0 6.7
      vertex -14.148141121612921 0.780361288064513 6.7
    endloop
  endfacet
  facet normal 0 0 1
    outer loop
      vertex -14.725 6.75 6.7
      vertex -14.148141121612921 0.780361288064513 6.7
      vertex -13.920518130045146 1.5307337294603591 6.7
    endloop
  endfacet
  facet normal 0 0 1
    outer loop
      vertex -14.725 6.75 6.7
      vertex -13.920518130045146 1.5307337294603591 6.7
      vertex -13.550878449210181 2.2222809320784087 6.7
    endloop
  endfacet
  facet normal 0 0 1
    outer loop
      vertex -14.725 6.75 6.7
      vertex -13.550878449210181 2.2222809320784087 6.7
      vertex -13.05342712474619 2.8284271247461903 6.7
    endloop
  endfacet
  facet normal 0 0 1
    outer loop
      vertex -14.725 6.75 6.7
      vertex -13.05342712474619 2.8284271247461903 6.7
      vertex -12.447280932078408 3.325878449210181 6.7
    endloop
  endfacet
  facet normal 0 0 1
    outer loop
      vertex -14.725 6.75 6.7
      vertex -12.447280932078408 3.325878449210181 6.7
      vertex -11.755733729460358 3.695518130045147 6.7
    endloop
  endfacet
  facet normal 0 0 1
    outer loop
      vertex -14.725 6.75 6.7
      vertex -11.755733729460358 3.695518130045147 6.7
      vertex -11.005361288064513 3.9231411216129217 6.7
    endloop
  endfacet
  facet normal 0 0 1
    outer loop
      vertex -14.725 6.75 6.7
      vertex -11.005361288064513 3.9231411216129217 6.7
      vertex -10.225 4 6.7
    endloop
  endfacet
  facet normal 0 0 1
    outer loop
      vertex -14.725 6.75 6.7
      vertex -10.225 4 6.7
      vertex -9.444638711935486 3.9231411216129217 6.7
    endloop
  endfacet
  facet normal 0 0 1
    outer loop
      vertex -14.725 6.75 6.7
      vertex -9.444638711935486 3.9231411216129217 6.7
      vertex -8.694266270539641 3.695518130045147 6.7
    endloop
  endfacet
  facet normal 0 0 1
    outer loop
      vertex -8.694266270539641 -3.695518130045147 6.7
      vertex 7.252719067921591 -3.325878449210181 6.7
      vertex -8.002719067921591 -3.325878449210181 6.7
    endloop
  endfacet
  facet normal 0 0 1
    outer loop
      vertex -8.002719067921591 -3.325878449210181 6.7
      vertex 7.252719067921591 -3.325878449210181 6.7
      vertex -7.39657287525381 -2.8284271247461903 6.7
    endloop
  endfacet
  facet normal 0 0 1
    outer loop
      vertex -7.39657287525381 -2.8284271247461903 6.7
      vertex 7.252719067921591 -3.325878449210181 6.7
      vertex -6.899121550789818 -2.2222809320784087 6.7
    endloop
  endfacet
  facet normal 0 0 1
    outer loop
      vertex -6.899121550789818 -2.2222809320784087 6.7
      vertex 7.252719067921591 -3.325878449210181 6.7
      vertex -6.529481869954853 -1.5307337294603591 6.7
    endloop
  endfacet
  facet normal 0 0 1
    outer loop
      vertex -6.529481869954853 -1.5307337294603591 6.7
      vertex 7.252719067921591 -3.325878449210181 6.7
      vertex -6.301858878387078 -0.780361288064513 6.7
    endloop
  endfacet
  facet normal 0 0 1
    outer loop
      vertex -6.225 0 6.7
      vertex -6.301858878387078 -0.780361288064513 6.7
      vertex 7.252719067921591 -3.325878449210181 6.7
    endloop
  endfacet
  facet normal 0 0 1
    outer loop
      vertex -6.529481869954853 1.5307337294603591 6.7
      vertex -6.301858878387078 0.780361288064513 6.7
      vertex 7.252719067921591 -3.325878449210181 6.7
    endloop
  endfacet
  facet normal 0 0 1
    outer loop
      vertex -6.529481869954853 1.5307337294603591 6.7
      vertex 7.252719067921591 -3.325878449210181 6.7
      vertex -6.899121550789818 2.2222809320784087 6.7
    endloop
  endfacet
  facet normal 0 0 1
    outer loop
      vertex -8.694266270539641 3.695518130045147 6.7
      vertex -8.002719067921591 3.325878449210181 6.7
      vertex 7.252719067921591 -3.325878449210181 6.7
    endloop
  endfacet
  facet normal 0 0 1
    outer loop
      vertex -6.899121550789818 2.2222809320784087 6.7
      vertex 7.252719067921591 -3.325878449210181 6.7
      vertex -7.39657287525381 2.8284271247461903 6.7
    endloop
  endfacet
  facet normal 0 0 1
    outer loop
      vertex -8.002719067921591 3.325878449210181 6.7
      vertex -7.39657287525381 2.8284271247461903 6.7
      vertex 7.252719067921591 -3.325878449210181 6.7
    endloop
  endfacet
  facet normal 0 0 1
    outer loop
      vertex -6.225 0 6.7
      vertex 7.252719067921591 -3.325878449210181 6.7
      vertex -6.301858878387078 0.780361288064513 6.7
    endloop
  endfacet
  facet normal 0 0 1
    outer loop
      vertex -14.725 6.75 6.7
      vertex 7.252719067921591 -3.325878449210181 6.7
      vertex 6.64657287525381 -2.8284271247461903 6.7
    endloop
  endfacet
  facet normal 0 0 1
    outer loop
      vertex -14.725 6.75 6.7
      vertex 6.149121550789818 -2.2222809320784087 6.7
      vertex 5.779481869954853 -1.5307337294603591 6.7
    endloop
  endfacet
  facet normal 0 0 1
    outer loop
      vertex -14.725 6.75 6.7
      vertex 5.779481869954853 -1.5307337294603591 6.7
      vertex 5.551858878387078 -0.780361288064513 6.7
    endloop
  endfacet
  facet normal 0 0 1
    outer loop
      vertex -14.725 6.75 6.7
      vertex 6.64657287525381 -2.8284271247461903 6.7
      vertex 6.149121550789818 -2.2222809320784087 6.7
    endloop
  endfacet
  facet normal 0 1 0
    outer loop
      vertex -14.725 6.75 -0.35000000000000053
      vertex -14.725 6.75 6.7
      vertex 14.725 6.75 6.7
    endloop
  endfacet
  facet normal 0 0 1
    outer loop
      vertex -14.725 6.75 6.7
      vertex -8.694266270539641 3.695518130045147 6.7
      vertex 7.252719067921591 -3.325878449210181 6.7
    endloop
  endfacet
  facet normal 0 0 1
    outer loop
      vertex -14.725 6.75 6.7
      vertex 5.551858878387078 -0.780361288064513 6.7
      vertex 5.475 0 6.7
    endloop
  endfacet
  facet normal 0 0 1
    outer loop
      vertex -14.725 6.75 6.7
      vertex 5.475 0 6.7
      vertex 5.551858878387078 0.780361288064513 6.7
    endloop
  endfacet
  facet normal 0 0 1
    outer loop
      vertex -14.725 6.75 6.7
      vertex 5.551858878387078 0.780361288064513 6.7
      vertex 5.779481869954853 1.5307337294603591 6.7
    endloop
  endfacet
  facet normal 0 0 1
    outer loop
      vertex -14.725 6.75 6.7
      vertex 5.779481869954853 1.5307337294603591 6.7
      vertex 6.149121550789818 2.2222809320784087 6.7
    endloop
  endfacet
  facet normal 0 0 1
    outer loop
      vertex -14.725 6.75 6.7
      vertex 6.149121550789818 2.2222809320784087 6.7
      vertex 6.64657287525381 2.8284271247461903 6.7
    endloop
  endfacet
  facet normal 0 0 1
    outer loop
      vertex -14.725 6.75 6.7
      vertex 6.64657287525381 2.8284271247461903 6.7
      vertex 7.252719067921591 3.325878449210181 6.7
    endloop
  endfacet
  facet normal 0 0 -1
    outer loop
      vertex 14.725 -6.75 -6.7
      vertex 1.9750000000000005 -6.75 -6.7
      vertex 1.9750000000000005 -6.300000000000001 -6.7
    endloop
  endfacet
  facet normal 0 -1 0
    outer loop
      vertex 14.725 -6.75 -6.7
      vertex 1.9750000000000005 -6.75 -3.400000000000001
      vertex 1.9750000000000005 -6.75 -6.7
    endloop
  endfacet
  facet normal 0 -1 0
    outer loop
      vertex 14.725 -6.75 6.7
      vertex -8.125 -6.75 -3.400000000000001
      vertex 1.9750000000000005 -6.75 -3.400000000000001
    endloop
  endfacet
  facet normal 0 0 -1
    outer loop
      vertex 14.725 -6.75 -6.7
      vertex 1.9750000000000005 -6.300000000000001 -6.7
      vertex 14.725 -6.300000000000001 -6.7
    endloop
  endfacet
  facet normal 0 -1 0
    outer loop
      vertex 14.725 -6.75 -6.7
      vertex 14.725 -6.75 6.7
      vertex 1.9750000000000005 -6.75 -3.400000000000001
    endloop
  endfacet
  facet normal 0 0 1
    outer loop
      vertex -14.725 -6.75 6.7
      vertex 7.94426627053964 -3.695518130045147 6.7
      vertex 7.252719067921591 -3.325878449210181 6.7
    endloop
  endfacet
  facet normal 0 0 1
    outer loop
      vertex -14.725 -6.75 6.7
      vertex 8.694638711935486 -3.9231411216129217 6.7
      vertex 7.94426627053964 -3.695518130045147 6.7
    endloop
  endfacet
  facet normal 0 0 1
    outer loop
      vertex -14.725 -6.75 6.7
      vertex 14.725 -6.75 6.7
      vertex 8.694638711935486 -3.9231411216129217 6.7
    endloop
  endfacet
  facet normal 0 0 1
    outer loop
      vertex 14.725 -6.75 6.7
      vertex 9.475 -4 6.7
      vertex 8.694638711935486 -3.9231411216129217 6.7
    endloop
  endfacet
  facet normal 0 0 1
    outer loop
      vertex 14.725 -6.75 6.7
      vertex 10.255361288064513 -3.9231411216129217 6.7
      vertex 9.475 -4 6.7
    endloop
  endfacet
  facet normal 0 0 1
    outer loop
      vertex 14.725 -6.75 6.7
      vertex 11.005733729460358 -3.695518130045147 6.7
      vertex 10.255361288064513 -3.9231411216129217 6.7
    endloop
  endfacet
  facet normal 0 0 1
    outer loop
      vertex 14.725 -6.75 6.7
      vertex 11.697280932078408 -3.325878449210181 6.7
      vertex 11.005733729460358 -3.695518130045147 6.7
    endloop
  endfacet
  facet normal 0 0 1
    outer loop
      vertex 14.725 -6.75 6.7
      vertex 12.30342712474619 -2.8284271247461903 6.7
      vertex 11.697280932078408 -3.325878449210181 6.7
    endloop
  endfacet
  facet normal 0 0 1
    outer loop
      vertex 14.725 -6.75 6.7
      vertex 12.800878449210181 -2.2222809320784087 6.7
      vertex 12.30342712474619 -2.8284271247461903 6.7
    endloop
  endfacet
  facet normal 0 1 0
    outer loop
      vertex -14.725 6.4750000000000005 -6.7
      vertex 14.725 6.4750000000000005 -0.35000000000000053
      vertex 14.725 6.4750000000000005 -6.7
    endloop
  endfacet
  facet normal 0 0 -1
    outer loop
      vertex -14.725 6.75 -0.35000000000000053
      vertex 14.725 6.75 -0.35000000000000053
      vertex 14.725 6.4750000000000005 -0.35000000000000053
    endloop
  endfacet
  facet normal 1 0 0
    outer loop
      vertex 14.725 -6.75 -6.7
      vertex 14.725 -6.300000000000001 -6.7
      vertex 14.725 6.4750000000000005 -0.35000000000000053
    endloop
  endfacet
  facet normal 1 0 0
    outer loop
      vertex 14.725 -6.75 -6.7
      vertex 14.725 6.4750000000000005 -0.35000000000000053
      vertex 14.725 -6.75 6.7
    endloop
  endfacet
  facet normal 1 0 0
    outer loop
      vertex 14.725 -6.300000000000001 -6.7
      vertex 14.725 6.4750000000000005 -6.7
      vertex 14.725 6.4750000000000005 -0.35000000000000053
    endloop
  endfacet
  facet normal 0 1 0
    outer loop
      vertex -14.725 6.75 -0.35000000000000053
      vertex 14.725 6.75 6.7
      vertex 14.725 6.75 -0.35000000000000053
    endloop
  endfacet
  facet normal 0 0 1
    outer loop
      vertex -14.725 6.75 6.7
      vertex 7.252719067921591 3.325878449210181 6.7
      vertex 7.94426627053964 3.695518130045147 6.7
    endloop
  endfacet
  facet normal 0 0 1
    outer loop
      vertex -14.725 6.75 6.7
      vertex 7.94426627053964 3.695518130045147 6.7
      vertex 14.725 6.75 6.7
    endloop
  endfacet
  facet normal 0 0 1
    outer loop
      vertex 14.725 -6.75 6.7
      vertex 13.170518130045146 -1.5307337294603591 6.7
      vertex 12.800878449210181 -2.2222809320784087 6.7
    endloop
  endfacet
  facet normal 0 0 1
    outer loop
      vertex 14.725 -6.75 6.7
      vertex 13.398141121612921 -0.780361288064513 6.7
      vertex 13.170518130045146 -1.5307337294603591 6.7
    endloop
  endfacet
  facet normal 0 0 1
    outer loop
      vertex 14.725 -6.75 6.7
      vertex 14.725 6.75 6.7
      vertex 13.398141121612921 -0.780361288064513 6.7
    endloop
  endfacet
  facet normal 1 0 0
    outer loop
      vertex 14.725 -6.75 6.7
      vertex 14.725 6.4750000000000005 -0.35000000000000053
      vertex 14.725 6.75 -0.35000000000000053
    endloop
  endfacet
  facet normal 1 0 0
    outer loop
      vertex 14.725 -6.75 6.7
      vertex 14.725 6.75 -0.35000000000000053
      vertex 14.725 6.75 6.7
    endloop
  endfacet
  facet normal 0 0 1
    outer loop
      vertex 14.725 6.75 6.7
      vertex 7.94426627053964 3.695518130045147 6.7
      vertex 8.694638711935486 3.9231411216129217 6.7
    endloop
  endfacet
  facet normal 0 0 1
    outer loop
      vertex 14.725 6.75 6.7
      vertex 8.694638711935486 3.9231411216129217 6.7
      vertex 9.475 4 6.7
    endloop
  endfacet
  facet normal 0 0 1
    outer loop
      vertex 14.725 6.75 6.7
      vertex 13.475 0 6.7
      vertex 13.398141121612921 -0.780361288064513 6.7
    endloop
  endfacet
  facet normal 0 0 1
    outer loop
      vertex 14.725 6.75 6.7
      vertex 13.398141121612921 0.780361288064513 6.7
      vertex 13.475 0 6.7
    endloop
  endfacet
  facet normal 0 0 1
    outer loop
      vertex 14.725 6.75 6.7
      vertex 13.170518130045146 1.5307337294603591 6.7
      vertex 13.398141121612921 0.780361288064513 6.7
    endloop
  endfacet
  facet normal 0 0 1
    outer loop
      vertex 14.725 6.75 6.7
      vertex 12.30342712474619 2.8284271247461903 6.7
      vertex 12.800878449210181 2.2222809320784087 6.7
    endloop
  endfacet
  facet normal 0 0 1
    outer loop
      vertex 14.725 6.75 6.7
      vertex 12.800878449210181 2.2222809320784087 6.7
      vertex 13.170518130045146 1.5307337294603591 6.7
    endloop
  endfacet
  facet normal 0 0 1
    outer loop
      vertex 14.725 6.75 6.7
      vertex 9.475 4 6.7
      vertex 10.255361288064513 3.9231411216129217 6.7
    endloop
  endfacet
  facet normal 0 0 1
    outer loop
      vertex 14.725 6.75 6.7
      vertex 10.255361288064513 3.9231411216129217 6.7
      vertex 11.005733729460358 3.695518130045147 6.7
    endloop
  endfacet
  facet normal 0 0 1
    outer loop
      vertex 14.725 6.75 6.7
      vertex 11.005733729460358 3.695518130045147 6.7
      vertex 11.697280932078408 3.325878449210181 6.7
    endloop
  endfacet
  facet normal 0 0 1
    outer loop
      vertex 14.725 6.75 6.7
      vertex 11.697280932078408 3.325878449210181 6.7
      vertex 12.30342712474619 2.8284271247461903 6.7
    endloop
  endfacet
  facet normal -0.2902846772544628 -0.9569403357322088 0
    outer loop
      vertex -11.005361288064513 -3.9231411216129217 8.7
      vertex -11.755733729460358 -3.695518130045147 6.7
      vertex -11.005361288064513 -3.9231411216129217 6.7
    endloop
  endfacet
  facet normal -0.2902846772544628 -0.9569403357322088 0
    outer loop
      vertex -11.005361288064513 -3.9231411216129217 8.7
      vertex -11.755733729460358 -3.695518130045147 8.7
      vertex -11.755733729460358 -3.695518130045147 6.7
    endloop
  endfacet
  facet normal -0.09801714032956063 -0.9951847266721969 0
    outer loop
      vertex -10.225 -4 8.7
      vertex -11.005361288064513 -3.9231411216129217 6.7
      vertex -10.225 -4 6.7
    endloop
  endfacet
  facet normal 0.09801714032956063 -0.9951847266721969 0
    outer loop
      vertex -9.444638711935486 -3.9231411216129217 8.7
      vertex -10.225 -4 6.7
      vertex -9.444638711935486 -3.9231411216129217 6.7
    endloop
  endfacet
  facet normal -0.09801714032956063 -0.9951847266721969 0
    outer loop
      vertex -11.005361288064513 -3.9231411216129217 8.7
      vertex -11.005361288064513 -3.9231411216129217 6.7
      vertex -10.225 -4 8.7
    endloop
  endfacet
  facet normal 0.09801714032956063 -0.9951847266721969 0
    outer loop
      vertex -10.225 -4 8.7
      vertex -10.225 -4 6.7
      vertex -9.444638711935486 -3.9231411216129217 8.7
    endloop
  endfacet
  facet normal 0.2902846772544628 -0.9569403357322088 0
    outer loop
      vertex -8.694266270539641 -3.695518130045147 8.7
      vertex -9.444638711935486 -3.9231411216129217 6.7
      vertex -8.694266270539641 -3.695518130045147 6.7
    endloop
  endfacet
  facet normal 0.2902846772544628 -0.9569403357322088 0
    outer loop
      vertex -9.444638711935486 -3.9231411216129217 8.7
      vertex -9.444638711935486 -3.9231411216129217 6.7
      vertex -8.694266270539641 -3.695518130045147 8.7
    endloop
  endfacet
  facet normal -0.7730104533627368 -0.6343932841636458 0
    outer loop
      vertex -13.550878449210181 -2.2222809320784087 8.7
      vertex -13.550878449210181 -2.2222809320784087 6.7
      vertex -13.05342712474619 -2.8284271247461903 6.7
    endloop
  endfacet
  facet normal -0.7730104533627368 -0.6343932841636458 0
    outer loop
      vertex -13.05342712474619 -2.8284271247461903 8.7
      vertex -13.550878449210181 -2.2222809320784087 8.7
      vertex -13.05342712474619 -2.8284271247461903 6.7
    endloop
  endfacet
  facet normal -0.8819212643483557 -0.47139673682599637 0
    outer loop
      vertex -13.920518130045146 -1.5307337294603591 8.7
      vertex -13.920518130045146 -1.5307337294603591 6.7
      vertex -13.550878449210181 -2.2222809320784087 6.7
    endloop
  endfacet
  facet normal -0.9569403357322086 -0.29028467725446333 0
    outer loop
      vertex -13.920518130045146 -1.5307337294603591 8.7
      vertex -14.148141121612921 -0.780361288064513 8.7
      vertex -13.920518130045146 -1.5307337294603591 6.7
    endloop
  endfacet
  facet normal -0.8819212643483557 -0.47139673682599637 0
    outer loop
      vertex -13.920518130045146 -1.5307337294603591 8.7
      vertex -13.550878449210181 -2.2222809320784087 6.7
      vertex -13.550878449210181 -2.2222809320784087 8.7
    endloop
  endfacet
  facet normal -0.6343932841636453 -0.773010453362737 0
    outer loop
      vertex -12.447280932078408 -3.325878449210181 8.7
      vertex -13.05342712474619 -2.8284271247461903 6.7
      vertex -12.447280932078408 -3.325878449210181 6.7
    endloop
  endfacet
  facet normal -0.4713967368259974 -0.8819212643483553 0
    outer loop
      vertex -11.755733729460358 -3.695518130045147 8.7
      vertex -12.447280932078408 -3.325878449210181 6.7
      vertex -11.755733729460358 -3.695518130045147 6.7
    endloop
  endfacet
  facet normal -0.4713967368259974 -0.8819212643483553 0
    outer loop
      vertex -12.447280932078408 -3.325878449210181 8.7
      vertex -12.447280932078408 -3.325878449210181 6.7
      vertex -11.755733729460358 -3.695518130045147 8.7
    endloop
  endfacet
  facet normal -0.6343932841636453 -0.773010453362737 0
    outer loop
      vertex -13.05342712474619 -2.8284271247461903 8.7
      vertex -13.05342712474619 -2.8284271247461903 6.7
      vertex -12.447280932078408 -3.325878449210181 8.7
    endloop
  endfacet
  facet normal 0 0 1
    outer loop
      vertex -13.05342712474619 -2.8284271247461903 8.7
      vertex -12.447280932078408 -3.325878449210181 8.7
      vertex -13.05342712474619 2.8284271247461903 8.7
    endloop
  endfacet
  facet normal 0 0 1
    outer loop
      vertex -12.447280932078408 -3.325878449210181 8.7
      vertex -11.755733729460358 -3.695518130045147 8.7
      vertex -12.447280932078408 3.325878449210181 8.7
    endloop
  endfacet
  facet normal 0 0 1
    outer loop
      vertex -11.005361288064513 -3.9231411216129217 8.7
      vertex -11.755733729460358 3.695518130045147 8.7
      vertex -11.755733729460358 -3.695518130045147 8.7
    endloop
  endfacet
  facet normal -0.9569403357322086 -0.29028467725446333 0
    outer loop
      vertex -14.148141121612921 -0.780361288064513 8.7
      vertex -14.148141121612921 -0.780361288064513 6.7
      vertex -13.920518130045146 -1.5307337294603591 6.7
    endloop
  endfacet
  facet normal -0.9951847266721969 -0.09801714032956071 0
    outer loop
      vertex -14.225 0 8.7
      vertex -14.225 0 6.7
      vertex -14.148141121612921 -0.780361288064513 6.7
    endloop
  endfacet
  facet normal -0.9951847266721969 -0.09801714032956071 0
    outer loop
      vertex -14.148141121612921 -0.780361288064513 8.7
      vertex -14.225 0 8.7
      vertex -14.148141121612921 -0.780361288064513 6.7
    endloop
  endfacet
  facet normal 0 0 1
    outer loop
      vertex -13.920518130045146 -1.5307337294603591 8.7
      vertex -14.148141121612921 0.780361288064513 8.7
      vertex -14.148141121612921 -0.780361288064513 8.7
    endloop
  endfacet
  facet normal 0 0 1
    outer loop
      vertex -14.148141121612921 -0.780361288064513 8.7
      vertex -14.148141121612921 0.780361288064513 8.7
      vertex -14.225 0 8.7
    endloop
  endfacet
  facet normal 0 0 1
    outer loop
      vertex -13.05342712474619 -2.8284271247461903 8.7
      vertex -13.550878449210181 2.2222809320784087 8.7
      vertex -13.550878449210181 -2.2222809320784087 8.7
    endloop
  endfacet
  facet normal 0 0 1
    outer loop
      vertex -13.920518130045146 -1.5307337294603591 8.7
      vertex -13.550878449210181 -2.2222809320784087 8.7
      vertex -13.920518130045146 1.5307337294603591 8.7
    endloop
  endfacet
  facet normal -0.9951847266721969 0.09801714032956071 0
    outer loop
      vertex -14.148141121612921 0.780361288064513 8.7
      vertex -14.148141121612921 0.780361288064513 6.7
      vertex -14.225 0 6.7
    endloop
  endfacet
  facet normal -0.9569403357322086 0.29028467725446333 0
    outer loop
      vertex -13.920518130045146 1.5307337294603591 8.7
      vertex -13.920518130045146 1.5307337294603591 6.7
      vertex -14.148141121612921 0.780361288064513 6.7
    endloop
  endfacet
  facet normal -0.9951847266721969 0.09801714032956071 0
    outer loop
      vertex -14.225 0 8.7
      vertex -14.148141121612921 0.780361288064513 8.7
      vertex -14.225 0 6.7
    endloop
  endfacet
  facet normal 0 0 1
    outer loop
      vertex -13.920518130045146 -1.5307337294603591 8.7
      vertex -13.920518130045146 1.5307337294603591 8.7
      vertex -14.148141121612921 0.780361288064513 8.7
    endloop
  endfacet
  facet normal -0.9569403357322086 0.29028467725446333 0
    outer loop
      vertex -14.148141121612921 0.780361288064513 8.7
      vertex -13.920518130045146 1.5307337294603591 8.7
      vertex -14.148141121612921 0.780361288064513 6.7
    endloop
  endfacet
  facet normal 0 0 1
    outer loop
      vertex -13.550878449210181 -2.2222809320784087 8.7
      vertex -13.550878449210181 2.2222809320784087 8.7
      vertex -13.920518130045146 1.5307337294603591 8.7
    endloop
  endfacet
  facet normal 0 0 1
    outer loop
      vertex -13.05342712474619 -2.8284271247461903 8.7
      vertex -13.05342712474619 2.8284271247461903 8.7
      vertex -13.550878449210181 2.2222809320784087 8.7
    endloop
  endfacet
  facet normal 0 0 1
    outer loop
      vertex -12.447280932078408 -3.325878449210181 8.7
      vertex -12.447280932078408 3.325878449210181 8.7
      vertex -13.05342712474619 2.8284271247461903 8.7
    endloop
  endfacet
  facet normal 0 0 1
    outer loop
      vertex -11.755733729460358 -3.695518130045147 8.7
      vertex -11.755733729460358 3.695518130045147 8.7
      vertex -12.447280932078408 3.325878449210181 8.7
    endloop
  endfacet
  facet normal 0 0 1
    outer loop
      vertex -11.005361288064513 -3.9231411216129217 8.7
      vertex -11.005361288064513 3.9231411216129217 8.7
      vertex -11.755733729460358 3.695518130045147 8.7
    endloop
  endfacet
  facet normal 0 0 1
    outer loop
      vertex -11.005361288064513 -3.9231411216129217 8.7
      vertex -10.225 -4 8.7
      vertex -11.005361288064513 3.9231411216129217 8.7
    endloop
  endfacet
  facet normal 0 0 1
    outer loop
      vertex -10.225 -4 8.7
      vertex -9.444638711935486 -3.9231411216129217 8.7
      vertex -10.225 4 8.7
    endloop
  endfacet
  facet normal 0.4713967368259974 -0.8819212643483553 0
    outer loop
      vertex -8.002719067921591 -3.325878449210181 8.7
      vertex -8.694266270539641 -3.695518130045147 6.7
      vertex -8.002719067921591 -3.325878449210181 6.7
    endloop
  endfacet
  facet normal 0.6343932841636453 -0.773010453362737 0
    outer loop
      vertex -7.39657287525381 -2.8284271247461903 8.7
      vertex -8.002719067921591 -3.325878449210181 6.7
      vertex -7.39657287525381 -2.8284271247461903 6.7
    endloop
  endfacet
  facet normal 0.4713967368259974 -0.8819212643483553 0
    outer loop
      vertex -8.694266270539641 -3.695518130045147 8.7
      vertex -8.694266270539641 -3.695518130045147 6.7
      vertex -8.002719067921591 -3.325878449210181 8.7
    endloop
  endfacet
  facet normal 0.6343932841636453 -0.773010453362737 0
    outer loop
      vertex -8.002719067921591 -3.325878449210181 8.7
      vertex -8.002719067921591 -3.325878449210181 6.7
      vertex -7.39657287525381 -2.8284271247461903 8.7
    endloop
  endfacet
  facet normal 0 0 1
    outer loop
      vertex -9.444638711935486 -3.9231411216129217 8.7
      vertex -8.694266270539641 -3.695518130045147 8.7
      vertex -9.444638711935486 3.9231411216129217 8.7
    endloop
  endfacet
  facet normal 0 0 1
    outer loop
      vertex -8.694266270539641 -3.695518130045147 8.7
      vertex -8.002719067921591 -3.325878449210181 8.7
      vertex -8.694266270539641 3.695518130045147 8.7
    endloop
  endfacet
  facet normal 0 0 1
    outer loop
      vertex -10.225 -4 8.7
      vertex -10.225 4 8.7
      vertex -11.005361288064513 3.9231411216129217 8.7
    endloop
  endfacet
  facet normal 0 0 1
    outer loop
      vertex -9.444638711935486 -3.9231411216129217 8.7
      vertex -9.444638711935486 3.9231411216129217 8.7
      vertex -10.225 4 8.7
    endloop
  endfacet
  facet normal 0 0 1
    outer loop
      vertex -8.002719067921591 -3.325878449210181 8.7
      vertex -7.39657287525381 -2.8284271247461903 8.7
      vertex -8.002719067921591 3.325878449210181 8.7
    endloop
  endfacet
  facet normal 0 0 1
    outer loop
      vertex -8.694266270539641 -3.695518130045147 8.7
      vertex -8.694266270539641 3.695518130045147 8.7
      vertex -9.444638711935486 3.9231411216129217 8.7
    endloop
  endfacet
  facet normal 0 0 1
    outer loop
      vertex -8.002719067921591 -3.325878449210181 8.7
      vertex -8.002719067921591 3.325878449210181 8.7
      vertex -8.694266270539641 3.695518130045147 8.7
    endloop
  endfacet
  facet normal 0 0 1
    outer loop
      vertex -7.39657287525381 -2.8284271247461903 8.7
      vertex -7.39657287525381 2.8284271247461903 8.7
      vertex -8.002719067921591 3.325878449210181 8.7
    endloop
  endfacet
  facet normal -0.8819212643483557 0.47139673682599637 0
    outer loop
      vertex -13.550878449210181 2.2222809320784087 8.7
      vertex -13.550878449210181 2.2222809320784087 6.7
      vertex -13.920518130045146 1.5307337294603591 6.7
    endloop
  endfacet
  facet normal -0.7730104533627368 0.6343932841636458 0
    outer loop
      vertex -13.05342712474619 2.8284271247461903 8.7
      vertex -13.05342712474619 2.8284271247461903 6.7
      vertex -13.550878449210181 2.2222809320784087 6.7
    endloop
  endfacet
  facet normal -0.8819212643483557 0.47139673682599637 0
    outer loop
      vertex -13.920518130045146 1.5307337294603591 8.7
      vertex -13.550878449210181 2.2222809320784087 8.7
      vertex -13.920518130045146 1.5307337294603591 6.7
    endloop
  endfacet
  facet normal -0.7730104533627368 0.6343932841636458 0
    outer loop
      vertex -13.550878449210181 2.2222809320784087 8.7
      vertex -13.05342712474619 2.8284271247461903 8.7
      vertex -13.550878449210181 2.2222809320784087 6.7
    endloop
  endfacet
  facet normal -0.6343932841636453 0.773010453362737 0
    outer loop
      vertex -13.05342712474619 2.8284271247461903 8.7
      vertex -12.447280932078408 3.325878449210181 6.7
      vertex -13.05342712474619 2.8284271247461903 6.7
    endloop
  endfacet
  facet normal -0.4713967368259974 0.8819212643483553 0
    outer loop
      vertex -12.447280932078408 3.325878449210181 8.7
      vertex -11.755733729460358 3.695518130045147 6.7
      vertex -12.447280932078408 3.325878449210181 6.7
    endloop
  endfacet
  facet normal -0.2902846772544628 0.9569403357322088 0
    outer loop
      vertex -11.755733729460358 3.695518130045147 8.7
      vertex -11.005361288064513 3.9231411216129217 6.7
      vertex -11.755733729460358 3.695518130045147 6.7
    endloop
  endfacet
  facet normal -0.6343932841636453 0.773010453362737 0
    outer loop
      vertex -13.05342712474619 2.8284271247461903 8.7
      vertex -12.447280932078408 3.325878449210181 8.7
      vertex -12.447280932078408 3.325878449210181 6.7
    endloop
  endfacet
  facet normal -0.4713967368259974 0.8819212643483553 0
    outer loop
      vertex -12.447280932078408 3.325878449210181 8.7
      vertex -11.755733729460358 3.695518130045147 8.7
      vertex -11.755733729460358 3.695518130045147 6.7
    endloop
  endfacet
  facet normal -0.2902846772544628 0.9569403357322088 0
    outer loop
      vertex -11.755733729460358 3.695518130045147 8.7
      vertex -11.005361288064513 3.9231411216129217 8.7
      vertex -11.005361288064513 3.9231411216129217 6.7
    endloop
  endfacet
  facet normal -0.09801714032956063 0.9951847266721969 0
    outer loop
      vertex -11.005361288064513 3.9231411216129217 8.7
      vertex -10.225 4 6.7
      vertex -11.005361288064513 3.9231411216129217 6.7
    endloop
  endfacet
  facet normal 0.09801714032956063 0.9951847266721969 0
    outer loop
      vertex -10.225 4 8.7
      vertex -9.444638711935486 3.9231411216129217 6.7
      vertex -10.225 4 6.7
    endloop
  endfacet
  facet normal -0.09801714032956063 0.9951847266721969 0
    outer loop
      vertex -11.005361288064513 3.9231411216129217 8.7
      vertex -10.225 4 8.7
      vertex -10.225 4 6.7
    endloop
  endfacet
  facet normal 0.09801714032956063 0.9951847266721969 0
    outer loop
      vertex -10.225 4 8.7
      vertex -9.444638711935486 3.9231411216129217 8.7
      vertex -9.444638711935486 3.9231411216129217 6.7
    endloop
  endfacet
  facet normal 0.2902846772544628 0.9569403357322088 0
    outer loop
      vertex -9.444638711935486 3.9231411216129217 8.7
      vertex -8.694266270539641 3.695518130045147 6.7
      vertex -9.444638711935486 3.9231411216129217 6.7
    endloop
  endfacet
  facet normal 0.4713967368259974 0.8819212643483553 0
    outer loop
      vertex -8.694266270539641 3.695518130045147 8.7
      vertex -8.002719067921591 3.325878449210181 6.7
      vertex -8.694266270539641 3.695518130045147 6.7
    endloop
  endfacet
  facet normal 0.6343932841636453 0.773010453362737 0
    outer loop
      vertex -8.002719067921591 3.325878449210181 8.7
      vertex -7.39657287525381 2.8284271247461903 6.7
      vertex -8.002719067921591 3.325878449210181 6.7
    endloop
  endfacet
  facet normal 0.2902846772544628 0.9569403357322088 0
    outer loop
      vertex -9.444638711935486 3.9231411216129217 8.7
      vertex -8.694266270539641 3.695518130045147 8.7
      vertex -8.694266270539641 3.695518130045147 6.7
    endloop
  endfacet
  facet normal 0.4713967368259974 0.8819212643483553 0
    outer loop
      vertex -8.694266270539641 3.695518130045147 8.7
      vertex -8.002719067921591 3.325878449210181 8.7
      vertex -8.002719067921591 3.325878449210181 6.7
    endloop
  endfacet
  facet normal 0.6343932841636453 0.773010453362737 0
    outer loop
      vertex -7.39657287525381 2.8284271247461903 8.7
      vertex -7.39657287525381 2.8284271247461903 6.7
      vertex -8.002719067921591 3.325878449210181 8.7
    endloop
  endfacet
  facet normal 0.7730104533627368 -0.6343932841636458 0
    outer loop
      vertex -7.39657287525381 -2.8284271247461903 8.7
      vertex -7.39657287525381 -2.8284271247461903 6.7
      vertex -6.899121550789818 -2.2222809320784087 6.7
    endloop
  endfacet
  facet normal 0.7730104533627368 -0.6343932841636458 0
    outer loop
      vertex -7.39657287525381 -2.8284271247461903 8.7
      vertex -6.899121550789818 -2.2222809320784087 6.7
      vertex -6.899121550789818 -2.2222809320784087 8.7
    endloop
  endfacet
  facet normal 0.8819212643483553 -0.4713967368259973 0
    outer loop
      vertex -6.899121550789818 -2.2222809320784087 8.7
      vertex -6.899121550789818 -2.2222809320784087 6.7
      vertex -6.529481869954853 -1.5307337294603591 6.7
    endloop
  endfacet
  facet normal 0.9569403357322088 -0.2902846772544623 0
    outer loop
      vertex -6.529481869954853 -1.5307337294603591 8.7
      vertex -6.529481869954853 -1.5307337294603591 6.7
      vertex -6.301858878387078 -0.780361288064513 6.7
    endloop
  endfacet
  facet normal 0.8819212643483553 -0.4713967368259973 0
    outer loop
      vertex -6.899121550789818 -2.2222809320784087 8.7
      vertex -6.529481869954853 -1.5307337294603591 6.7
      vertex -6.529481869954853 -1.5307337294603591 8.7
    endloop
  endfacet
  facet normal 0.9951847266721969 -0.09801714032956071 0
    outer loop
      vertex -6.301858878387078 -0.780361288064513 8.7
      vertex -6.301858878387078 -0.780361288064513 6.7
      vertex -6.225 0 6.7
    endloop
  endfacet
  facet normal 0 0 1
    outer loop
      vertex -7.39657287525381 -2.8284271247461903 8.7
      vertex -6.899121550789818 -2.2222809320784087 8.7
      vertex -7.39657287525381 2.8284271247461903 8.7
    endloop
  endfacet
  facet normal 0 0 1
    outer loop
      vertex -6.899121550789818 -2.2222809320784087 8.7
      vertex -6.529481869954853 -1.5307337294603591 8.7
      vertex -6.899121550789818 2.2222809320784087 8.7
    endloop
  endfacet
  facet normal 0 0 1
    outer loop
      vertex -6.529481869954853 -1.5307337294603591 8.7
      vertex -6.301858878387078 -0.780361288064513 8.7
      vertex -6.529481869954853 1.5307337294603591 8.7
    endloop
  endfacet
  facet normal 0.9569403357322088 -0.2902846772544623 0
    outer loop
      vertex -6.529481869954853 -1.5307337294603591 8.7
      vertex -6.301858878387078 -0.780361288064513 6.7
      vertex -6.301858878387078 -0.780361288064513 8.7
    endloop
  endfacet
  facet normal 0.9951847266721969 -0.09801714032956071 0
    outer loop
      vertex -6.301858878387078 -0.780361288064513 8.7
      vertex -6.225 0 6.7
      vertex -6.225 0 8.7
    endloop
  endfacet
  facet normal 0 0 1
    outer loop
      vertex -6.301858878387078 -0.780361288064513 8.7
      vertex -6.225 0 8.7
      vertex -6.301858878387078 0.780361288064513 8.7
    endloop
  endfacet
  facet normal 0.9951847266721969 0.09801714032956071 0
    outer loop
      vertex -6.225 0 8.7
      vertex -6.225 0 6.7
      vertex -6.301858878387078 0.780361288064513 6.7
    endloop
  endfacet
  facet normal 0.9569403357322088 0.2902846772544623 0
    outer loop
      vertex -6.301858878387078 0.780361288064513 8.7
      vertex -6.301858878387078 0.780361288064513 6.7
      vertex -6.529481869954853 1.5307337294603591 6.7
    endloop
  endfacet
  facet normal 0 0 1
    outer loop
      vertex -6.529481869954853 -1.5307337294603591 8.7
      vertex -6.529481869954853 1.5307337294603591 8.7
      vertex -6.899121550789818 2.2222809320784087 8.7
    endloop
  endfacet
  facet normal 0.9569403357322088 0.2902846772544623 0
    outer loop
      vertex -6.301858878387078 0.780361288064513 8.7
      vertex -6.529481869954853 1.5307337294603591 6.7
      vertex -6.529481869954853 1.5307337294603591 8.7
    endloop
  endfacet
  facet normal 0 0 1
    outer loop
      vertex -7.39657287525381 2.8284271247461903 8.7
      vertex -6.899121550789818 -2.2222809320784087 8.7
      vertex -6.899121550789818 2.2222809320784087 8.7
    endloop
  endfacet
  facet normal 0.9951847266721969 0.09801714032956071 0
    outer loop
      vertex -6.225 0 8.7
      vertex -6.301858878387078 0.780361288064513 6.7
      vertex -6.301858878387078 0.780361288064513 8.7
    endloop
  endfacet
  facet normal 0 0 1
    outer loop
      vertex -6.301858878387078 -0.780361288064513 8.7
      vertex -6.301858878387078 0.780361288064513 8.7
      vertex -6.529481869954853 1.5307337294603591 8.7
    endloop
  endfacet
  facet normal 0.8819212643483553 0.4713967368259973 0
    outer loop
      vertex -6.529481869954853 1.5307337294603591 8.7
      vertex -6.529481869954853 1.5307337294603591 6.7
      vertex -6.899121550789818 2.2222809320784087 6.7
    endloop
  endfacet
  facet normal 0.7730104533627368 0.6343932841636458 0
    outer loop
      vertex -6.899121550789818 2.2222809320784087 8.7
      vertex -6.899121550789818 2.2222809320784087 6.7
      vertex -7.39657287525381 2.8284271247461903 6.7
    endloop
  endfacet
  facet normal 0.8819212643483553 0.4713967368259973 0
    outer loop
      vertex -6.529481869954853 1.5307337294603591 8.7
      vertex -6.899121550789818 2.2222809320784087 6.7
      vertex -6.899121550789818 2.2222809320784087 8.7
    endloop
  endfacet
  facet normal 0.7730104533627368 0.6343932841636458 0
    outer loop
      vertex -7.39657287525381 2.8284271247461903 8.7
      vertex -6.899121550789818 2.2222809320784087 8.7
      vertex -7.39657287525381 2.8284271247461903 6.7
    endloop
  endfacet
  facet normal -0.29028467725446244 -0.9569403357322088 0
    outer loop
      vertex 8.694638711935486 -3.9231411216129217 8.7
      vertex 7.94426627053964 -3.695518130045147 6.7
      vertex 8.694638711935486 -3.9231411216129217 6.7
    endloop
  endfacet
  facet normal -0.29028467725446244 -0.9569403357322088 0
    outer loop
      vertex 8.694638711935486 -3.9231411216129217 8.7
      vertex 7.94426627053964 -3.695518130045147 8.7
      vertex 7.94426627053964 -3.695518130045147 6.7
    endloop
  endfacet
  facet normal -0.09801714032956063 -0.9951847266721969 0
    outer loop
      vertex 8.694638711935486 -3.9231411216129217 8.7
      vertex 8.694638711935486 -3.9231411216129217 6.7
      vertex 9.475 -4 8.7
    endloop
  endfacet
  facet normal -0.09801714032956063 -0.9951847266721969 0
    outer loop
      vertex 9.475 -4 8.7
      vertex 8.694638711935486 -3.9231411216129217 6.7
      vertex 9.475 -4 6.7
    endloop
  endfacet
  facet normal 0.09801714032956063 -0.9951847266721969 0
    outer loop
      vertex 10.255361288064513 -3.9231411216129217 8.7
      vertex 9.475 -4 6.7
      vertex 10.255361288064513 -3.9231411216129217 6.7
    endloop
  endfacet
  facet normal 0.2902846772544628 -0.9569403357322088 0
    outer loop
      vertex 11.005733729460358 -3.695518130045147 8.7
      vertex 10.255361288064513 -3.9231411216129217 6.7
      vertex 11.005733729460358 -3.695518130045147 6.7
    endloop
  endfacet
  facet normal 0.09801714032956063 -0.9951847266721969 0
    outer loop
      vertex 9.475 -4 8.7
      vertex 9.475 -4 6.7
      vertex 10.255361288064513 -3.9231411216129217 8.7
    endloop
  endfacet
  facet normal 0.2902846772544628 -0.9569403357322088 0
    outer loop
      vertex 10.255361288064513 -3.9231411216129217 8.7
      vertex 10.255361288064513 -3.9231411216129217 6.7
      vertex 11.005733729460358 -3.695518130045147 8.7
    endloop
  endfacet
  facet normal -0.7730104533627368 -0.6343932841636458 0
    outer loop
      vertex 6.149121550789818 -2.2222809320784087 8.7
      vertex 6.149121550789818 -2.2222809320784087 6.7
      vertex 6.64657287525381 -2.8284271247461903 6.7
    endloop
  endfacet
  facet normal -0.6343932841636453 -0.773010453362737 0
    outer loop
      vertex 7.252719067921591 -3.325878449210181 8.7
      vertex 6.64657287525381 -2.8284271247461903 6.7
      vertex 7.252719067921591 -3.325878449210181 6.7
    endloop
  endfacet
  facet normal -0.6343932841636453 -0.773010453362737 0
    outer loop
      vertex 7.252719067921591 -3.325878449210181 8.7
      vertex 6.64657287525381 -2.8284271247461903 8.7
      vertex 6.64657287525381 -2.8284271247461903 6.7
    endloop
  endfacet
  facet normal -0.7730104533627368 -0.6343932841636458 0
    outer loop
      vertex 6.64657287525381 -2.8284271247461903 8.7
      vertex 6.149121550789818 -2.2222809320784087 8.7
      vertex 6.64657287525381 -2.8284271247461903 6.7
    endloop
  endfacet
  facet normal -0.8819212643483553 -0.4713967368259973 0
    outer loop
      vertex 5.779481869954853 -1.5307337294603591 8.7
      vertex 5.779481869954853 -1.5307337294603591 6.7
      vertex 6.149121550789818 -2.2222809320784087 6.7
    endloop
  endfacet
  facet normal -0.8819212643483553 -0.4713967368259973 0
    outer loop
      vertex 6.149121550789818 -2.2222809320784087 8.7
      vertex 5.779481869954853 -1.5307337294603591 8.7
      vertex 6.149121550789818 -2.2222809320784087 6.7
    endloop
  endfacet
  facet normal -0.9569403357322088 -0.2902846772544623 0
    outer loop
      vertex 5.779481869954853 -1.5307337294603591 8.7
      vertex 5.551858878387078 -0.780361288064513 8.7
      vertex 5.779481869954853 -1.5307337294603591 6.7
    endloop
  endfacet
  facet normal 0 0 1
    outer loop
      vertex 7.252719067921591 -3.325878449210181 8.7
      vertex 6.64657287525381 2.8284271247461903 8.7
      vertex 6.64657287525381 -2.8284271247461903 8.7
    endloop
  endfacet
  facet normal -0.9951847266721969 -0.09801714032956071 0
    outer loop
      vertex 5.475 0 8.7
      vertex 5.475 0 6.7
      vertex 5.551858878387078 -0.780361288064513 6.7
    endloop
  endfacet
  facet normal -0.9951847266721969 0.09801714032956071 0
    outer loop
      vertex 5.475 0 8.7
      vertex 5.551858878387078 0.780361288064513 8.7
      vertex 5.475 0 6.7
    endloop
  endfacet
  facet normal -0.9569403357322088 -0.2902846772544623 0
    outer loop
      vertex 5.551858878387078 -0.780361288064513 8.7
      vertex 5.551858878387078 -0.780361288064513 6.7
      vertex 5.779481869954853 -1.5307337294603591 6.7
    endloop
  endfacet
  facet normal -0.9951847266721969 -0.09801714032956071 0
    outer loop
      vertex 5.475 0 8.7
      vertex 5.551858878387078 -0.780361288064513 6.7
      vertex 5.551858878387078 -0.780361288064513 8.7
    endloop
  endfacet
  facet normal 0 0 1
    outer loop
      vertex 5.779481869954853 -1.5307337294603591 8.7
      vertex 5.551858878387078 0.780361288064513 8.7
      vertex 5.551858878387078 -0.780361288064513 8.7
    endloop
  endfacet
  facet normal 0 0 1
    outer loop
      vertex 6.149121550789818 -2.2222809320784087 8.7
      vertex 5.779481869954853 1.5307337294603591 8.7
      vertex 5.779481869954853 -1.5307337294603591 8.7
    endloop
  endfacet
  facet normal 0 0 1
    outer loop
      vertex 6.64657287525381 -2.8284271247461903 8.7
      vertex 6.149121550789818 2.2222809320784087 8.7
      vertex 6.149121550789818 -2.2222809320784087 8.7
    endloop
  endfacet
  facet normal 0 0 1
    outer loop
      vertex 5.475 0 8.7
      vertex 5.551858878387078 -0.780361288064513 8.7
      vertex 5.551858878387078 0.780361288064513 8.7
    endloop
  endfacet
  facet normal -0.9951847266721969 0.09801714032956071 0
    outer loop
      vertex 5.551858878387078 0.780361288064513 8.7
      vertex 5.551858878387078 0.780361288064513 6.7
      vertex 5.475 0 6.7
    endloop
  endfacet
  facet normal -0.9569403357322088 0.2902846772544623 0
    outer loop
      vertex 5.779481869954853 1.5307337294603591 8.7
      vertex 5.779481869954853 1.5307337294603591 6.7
      vertex 5.551858878387078 0.780361288064513 6.7
    endloop
  endfacet
  facet normal 0 0 1
    outer loop
      vertex 5.779481869954853 -1.5307337294603591 8.7
      vertex 5.779481869954853 1.5307337294603591 8.7
      vertex 5.551858878387078 0.780361288064513 8.7
    endloop
  endfacet
  facet normal 0 0 1
    outer loop
      vertex 6.149121550789818 -2.2222809320784087 8.7
      vertex 6.149121550789818 2.2222809320784087 8.7
      vertex 5.779481869954853 1.5307337294603591 8.7
    endloop
  endfacet
  facet normal -0.9569403357322088 0.2902846772544623 0
    outer loop
      vertex 5.551858878387078 0.780361288064513 8.7
      vertex 5.779481869954853 1.5307337294603591 8.7
      vertex 5.551858878387078 0.780361288064513 6.7
    endloop
  endfacet
  facet normal 0 0 1
    outer loop
      vertex 6.64657287525381 -2.8284271247461903 8.7
      vertex 6.64657287525381 2.8284271247461903 8.7
      vertex 6.149121550789818 2.2222809320784087 8.7
    endloop
  endfacet
  facet normal 0 0 1
    outer loop
      vertex 7.252719067921591 -3.325878449210181 8.7
      vertex 7.252719067921591 3.325878449210181 8.7
      vertex 6.64657287525381 2.8284271247461903 8.7
    endloop
  endfacet
  facet normal -0.8819212643483553 0.4713967368259973 0
    outer loop
      vertex 6.149121550789818 2.2222809320784087 8.7
      vertex 6.149121550789818 2.2222809320784087 6.7
      vertex 5.779481869954853 1.5307337294603591 6.7
    endloop
  endfacet
  facet normal -0.7730104533627368 0.6343932841636458 0
    outer loop
      vertex 6.64657287525381 2.8284271247461903 8.7
      vertex 6.64657287525381 2.8284271247461903 6.7
      vertex 6.149121550789818 2.2222809320784087 6.7
    endloop
  endfacet
  facet normal -0.8819212643483553 0.4713967368259973 0
    outer loop
      vertex 5.779481869954853 1.5307337294603591 8.7
      vertex 6.149121550789818 2.2222809320784087 8.7
      vertex 5.779481869954853 1.5307337294603591 6.7
    endloop
  endfacet
  facet normal -0.7730104533627368 0.6343932841636458 0
    outer loop
      vertex 6.149121550789818 2.2222809320784087 8.7
      vertex 6.64657287525381 2.8284271247461903 8.7
      vertex 6.149121550789818 2.2222809320784087 6.7
    endloop
  endfacet
  facet normal -0.6343932841636453 0.773010453362737 0
    outer loop
      vertex 6.64657287525381 2.8284271247461903 8.7
      vertex 7.252719067921591 3.325878449210181 6.7
      vertex 6.64657287525381 2.8284271247461903 6.7
    endloop
  endfacet
  facet normal -0.6343932841636453 0.773010453362737 0
    outer loop
      vertex 6.64657287525381 2.8284271247461903 8.7
      vertex 7.252719067921591 3.325878449210181 8.7
      vertex 7.252719067921591 3.325878449210181 6.7
    endloop
  endfacet
  facet normal -0.47139673682599786 -0.881921264348355 0
    outer loop
      vertex 7.94426627053964 -3.695518130045147 8.7
      vertex 7.252719067921591 -3.325878449210181 6.7
      vertex 7.94426627053964 -3.695518130045147 6.7
    endloop
  endfacet
  facet normal -0.47139673682599786 -0.881921264348355 0
    outer loop
      vertex 7.252719067921591 -3.325878449210181 8.7
      vertex 7.252719067921591 -3.325878449210181 6.7
      vertex 7.94426627053964 -3.695518130045147 8.7
    endloop
  endfacet
  facet normal 0 0 1
    outer loop
      vertex 7.252719067921591 -3.325878449210181 8.7
      vertex 7.94426627053964 -3.695518130045147 8.7
      vertex 7.252719067921591 3.325878449210181 8.7
    endloop
  endfacet
  facet normal 0 0 1
    outer loop
      vertex 8.694638711935486 -3.9231411216129217 8.7
      vertex 7.94426627053964 3.695518130045147 8.7
      vertex 7.94426627053964 -3.695518130045147 8.7
    endloop
  endfacet
  facet normal 0 0 1
    outer loop
      vertex 8.694638711935486 -3.9231411216129217 8.7
      vertex 9.475 -4 8.7
      vertex 8.694638711935486 3.9231411216129217 8.7
    endloop
  endfacet
  facet normal 0 0 1
    outer loop
      vertex 9.475 -4 8.7
      vertex 10.255361288064513 -3.9231411216129217 8.7
      vertex 9.475 4 8.7
    endloop
  endfacet
  facet normal 0 0 1
    outer loop
      vertex 10.255361288064513 -3.9231411216129217 8.7
      vertex 11.005733729460358 -3.695518130045147 8.7
      vertex 10.255361288064513 3.9231411216129217 8.7
    endloop
  endfacet
  facet normal 0 0 1
    outer loop
      vertex 7.252719067921591 3.325878449210181 8.7
      vertex 7.94426627053964 -3.695518130045147 8.7
      vertex 7.94426627053964 3.695518130045147 8.7
    endloop
  endfacet
  facet normal 0 0 1
    outer loop
      vertex 8.694638711935486 -3.9231411216129217 8.7
      vertex 8.694638711935486 3.9231411216129217 8.7
      vertex 7.94426627053964 3.695518130045147 8.7
    endloop
  endfacet
  facet normal 0 0 1
    outer loop
      vertex 9.475 -4 8.7
      vertex 9.475 4 8.7
      vertex 8.694638711935486 3.9231411216129217 8.7
    endloop
  endfacet
  facet normal 0 0 1
    outer loop
      vertex 10.255361288064513 -3.9231411216129217 8.7
      vertex 10.255361288064513 3.9231411216129217 8.7
      vertex 9.475 4 8.7
    endloop
  endfacet
  facet normal 0 0 1
    outer loop
      vertex 11.005733729460358 -3.695518130045147 8.7
      vertex 11.005733729460358 3.695518130045147 8.7
      vertex 10.255361288064513 3.9231411216129217 8.7
    endloop
  endfacet
  facet normal 0.4713967368259974 -0.8819212643483553 0
    outer loop
      vertex 11.697280932078408 -3.325878449210181 8.7
      vertex 11.005733729460358 -3.695518130045147 6.7
      vertex 11.697280932078408 -3.325878449210181 6.7
    endloop
  endfacet
  facet normal 0.6343932841636453 -0.773010453362737 0
    outer loop
      vertex 12.30342712474619 -2.8284271247461903 8.7
      vertex 11.697280932078408 -3.325878449210181 6.7
      vertex 12.30342712474619 -2.8284271247461903 6.7
    endloop
  endfacet
  facet normal 0.7730104533627368 -0.6343932841636458 0
    outer loop
      vertex 12.30342712474619 -2.8284271247461903 8.7
      vertex 12.30342712474619 -2.8284271247461903 6.7
      vertex 12.800878449210181 -2.2222809320784087 6.7
    endloop
  endfacet
  facet normal 0.4713967368259974 -0.8819212643483553 0
    outer loop
      vertex 11.005733729460358 -3.695518130045147 8.7
      vertex 11.005733729460358 -3.695518130045147 6.7
      vertex 11.697280932078408 -3.325878449210181 8.7
    endloop
  endfacet
  facet normal 0.6343932841636453 -0.773010453362737 0
    outer loop
      vertex 11.697280932078408 -3.325878449210181 8.7
      vertex 11.697280932078408 -3.325878449210181 6.7
      vertex 12.30342712474619 -2.8284271247461903 8.7
    endloop
  endfacet
  facet normal 0.7730104533627368 -0.6343932841636458 0
    outer loop
      vertex 12.30342712474619 -2.8284271247461903 8.7
      vertex 12.800878449210181 -2.2222809320784087 6.7
      vertex 12.800878449210181 -2.2222809320784087 8.7
    endloop
  endfacet
  facet normal 0 0 1
    outer loop
      vertex 11.005733729460358 -3.695518130045147 8.7
      vertex 11.697280932078408 -3.325878449210181 8.7
      vertex 11.005733729460358 3.695518130045147 8.7
    endloop
  endfacet
  facet normal 0.8819212643483557 -0.47139673682599637 0
    outer loop
      vertex 12.800878449210181 -2.2222809320784087 8.7
      vertex 12.800878449210181 -2.2222809320784087 6.7
      vertex 13.170518130045146 -1.5307337294603591 6.7
    endloop
  endfacet
  facet normal 0.9569403357322086 -0.29028467725446333 0
    outer loop
      vertex 13.170518130045146 -1.5307337294603591 8.7
      vertex 13.170518130045146 -1.5307337294603591 6.7
      vertex 13.398141121612921 -0.780361288064513 6.7
    endloop
  endfacet
  facet normal 0.8819212643483557 -0.47139673682599637 0
    outer loop
      vertex 12.800878449210181 -2.2222809320784087 8.7
      vertex 13.170518130045146 -1.5307337294603591 6.7
      vertex 13.170518130045146 -1.5307337294603591 8.7
    endloop
  endfacet
  facet normal 0 0 1
    outer loop
      vertex 11.697280932078408 -3.325878449210181 8.7
      vertex 12.30342712474619 -2.8284271247461903 8.7
      vertex 11.697280932078408 3.325878449210181 8.7
    endloop
  endfacet
  facet normal 0 0 1
    outer loop
      vertex 12.30342712474619 -2.8284271247461903 8.7
      vertex 12.800878449210181 -2.2222809320784087 8.7
      vertex 12.30342712474619 2.8284271247461903 8.7
    endloop
  endfacet
  facet normal 0 0 1
    outer loop
      vertex 11.697280932078408 -3.325878449210181 8.7
      vertex 11.697280932078408 3.325878449210181 8.7
      vertex 11.005733729460358 3.695518130045147 8.7
    endloop
  endfacet
  facet normal 0 0 1
    outer loop
      vertex 12.30342712474619 -2.8284271247461903 8.7
      vertex 12.30342712474619 2.8284271247461903 8.7
      vertex 11.697280932078408 3.325878449210181 8.7
    endloop
  endfacet
  facet normal 0 0 1
    outer loop
      vertex 12.800878449210181 -2.2222809320784087 8.7
      vertex 12.800878449210181 2.2222809320784087 8.7
      vertex 12.30342712474619 2.8284271247461903 8.7
    endloop
  endfacet
  facet normal 0.9951847266721969 -0.09801714032956071 0
    outer loop
      vertex 13.398141121612921 -0.780361288064513 8.7
      vertex 13.398141121612921 -0.780361288064513 6.7
      vertex 13.475 0 6.7
    endloop
  endfacet
  facet normal 0.9569403357322086 -0.29028467725446333 0
    outer loop
      vertex 13.170518130045146 -1.5307337294603591 8.7
      vertex 13.398141121612921 -0.780361288064513 6.7
      vertex 13.398141121612921 -0.780361288064513 8.7
    endloop
  endfacet
  facet normal 0 0 1
    outer loop
      vertex 12.800878449210181 -2.2222809320784087 8.7
      vertex 13.170518130045146 -1.5307337294603591 8.7
      vertex 12.800878449210181 2.2222809320784087 8.7
    endloop
  endfacet
  facet normal 0.9951847266721969 -0.09801714032956071 0
    outer loop
      vertex 13.398141121612921 -0.780361288064513 8.7
      vertex 13.475 0 6.7
      vertex 13.475 0 8.7
    endloop
  endfacet
  facet normal 0 0 1
    outer loop
      vertex 13.170518130045146 -1.5307337294603591 8.7
      vertex 13.398141121612921 -0.780361288064513 8.7
      vertex 13.170518130045146 1.5307337294603591 8.7
    endloop
  endfacet
  facet normal 0 0 1
    outer loop
      vertex 13.398141121612921 -0.780361288064513 8.7
      vertex 13.475 0 8.7
      vertex 13.398141121612921 0.780361288064513 8.7
    endloop
  endfacet
  facet normal 0.9951847266721969 0.09801714032956071 0
    outer loop
      vertex 13.475 0 8.7
      vertex 13.475 0 6.7
      vertex 13.398141121612921 0.780361288064513 6.7
    endloop
  endfacet
  facet normal 0.9569403357322086 0.29028467725446333 0
    outer loop
      vertex 13.398141121612921 0.780361288064513 8.7
      vertex 13.398141121612921 0.780361288064513 6.7
      vertex 13.170518130045146 1.5307337294603591 6.7
    endloop
  endfacet
  facet normal 0.9951847266721969 0.09801714032956071 0
    outer loop
      vertex 13.475 0 8.7
      vertex 13.398141121612921 0.780361288064513 6.7
      vertex 13.398141121612921 0.780361288064513 8.7
    endloop
  endfacet
  facet normal 0 0 1
    outer loop
      vertex 13.398141121612921 -0.780361288064513 8.7
      vertex 13.398141121612921 0.780361288064513 8.7
      vertex 13.170518130045146 1.5307337294603591 8.7
    endloop
  endfacet
  facet normal 0 0 1
    outer loop
      vertex 13.170518130045146 -1.5307337294603591 8.7
      vertex 13.170518130045146 1.5307337294603591 8.7
      vertex 12.800878449210181 2.2222809320784087 8.7
    endloop
  endfacet
  facet normal 0.9569403357322086 0.29028467725446333 0
    outer loop
      vertex 13.398141121612921 0.780361288064513 8.7
      vertex 13.170518130045146 1.5307337294603591 6.7
      vertex 13.170518130045146 1.5307337294603591 8.7
    endloop
  endfacet
  facet normal -0.47139673682599786 0.881921264348355 0
    outer loop
      vertex 7.252719067921591 3.325878449210181 8.7
      vertex 7.94426627053964 3.695518130045147 6.7
      vertex 7.252719067921591 3.325878449210181 6.7
    endloop
  endfacet
  facet normal -0.29028467725446244 0.9569403357322088 0
    outer loop
      vertex 7.94426627053964 3.695518130045147 8.7
      vertex 8.694638711935486 3.9231411216129217 6.7
      vertex 7.94426627053964 3.695518130045147 6.7
    endloop
  endfacet
  facet normal -0.09801714032956063 0.9951847266721969 0
    outer loop
      vertex 8.694638711935486 3.9231411216129217 8.7
      vertex 9.475 4 6.7
      vertex 8.694638711935486 3.9231411216129217 6.7
    endloop
  endfacet
  facet normal -0.47139673682599786 0.881921264348355 0
    outer loop
      vertex 7.252719067921591 3.325878449210181 8.7
      vertex 7.94426627053964 3.695518130045147 8.7
      vertex 7.94426627053964 3.695518130045147 6.7
    endloop
  endfacet
  facet normal -0.29028467725446244 0.9569403357322088 0
    outer loop
      vertex 7.94426627053964 3.695518130045147 8.7
      vertex 8.694638711935486 3.9231411216129217 8.7
      vertex 8.694638711935486 3.9231411216129217 6.7
    endloop
  endfacet
  facet normal 0.09801714032956063 0.9951847266721969 0
    outer loop
      vertex 9.475 4 8.7
      vertex 10.255361288064513 3.9231411216129217 6.7
      vertex 9.475 4 6.7
    endloop
  endfacet
  facet normal 0.2902846772544628 0.9569403357322088 0
    outer loop
      vertex 10.255361288064513 3.9231411216129217 8.7
      vertex 11.005733729460358 3.695518130045147 6.7
      vertex 10.255361288064513 3.9231411216129217 6.7
    endloop
  endfacet
  facet normal -0.09801714032956063 0.9951847266721969 0
    outer loop
      vertex 8.694638711935486 3.9231411216129217 8.7
      vertex 9.475 4 8.7
      vertex 9.475 4 6.7
    endloop
  endfacet
  facet normal 0.09801714032956063 0.9951847266721969 0
    outer loop
      vertex 9.475 4 8.7
      vertex 10.255361288064513 3.9231411216129217 8.7
      vertex 10.255361288064513 3.9231411216129217 6.7
    endloop
  endfacet
  facet normal 0.2902846772544628 0.9569403357322088 0
    outer loop
      vertex 10.255361288064513 3.9231411216129217 8.7
      vertex 11.005733729460358 3.695518130045147 8.7
      vertex 11.005733729460358 3.695518130045147 6.7
    endloop
  endfacet
  facet normal 0.7730104533627368 0.6343932841636458 0
    outer loop
      vertex 12.800878449210181 2.2222809320784087 8.7
      vertex 12.800878449210181 2.2222809320784087 6.7
      vertex 12.30342712474619 2.8284271247461903 6.7
    endloop
  endfacet
  facet normal 0.7730104533627368 0.6343932841636458 0
    outer loop
      vertex 12.30342712474619 2.8284271247461903 8.7
      vertex 12.800878449210181 2.2222809320784087 8.7
      vertex 12.30342712474619 2.8284271247461903 6.7
    endloop
  endfacet
  facet normal 0.6343932841636453 0.773010453362737 0
    outer loop
      vertex 11.697280932078408 3.325878449210181 8.7
      vertex 12.30342712474619 2.8284271247461903 6.7
      vertex 11.697280932078408 3.325878449210181 6.7
    endloop
  endfacet
  facet normal 0.4713967368259974 0.8819212643483553 0
    outer loop
      vertex 11.005733729460358 3.695518130045147 8.7
      vertex 11.697280932078408 3.325878449210181 6.7
      vertex 11.005733729460358 3.695518130045147 6.7
    endloop
  endfacet
  facet normal 0.4713967368259974 0.8819212643483553 0
    outer loop
      vertex 11.005733729460358 3.695518130045147 8.7
      vertex 11.697280932078408 3.325878449210181 8.7
      vertex 11.697280932078408 3.325878449210181 6.7
    endloop
  endfacet
  facet normal 0.6343932841636453 0.773010453362737 0
    outer loop
      vertex 12.30342712474619 2.8284271247461903 8.7
      vertex 12.30342712474619 2.8284271247461903 6.7
      vertex 11.697280932078408 3.325878449210181 8.7
    endloop
  endfacet
  facet normal 0.8819212643483557 0.47139673682599637 0
    outer loop
      vertex 13.170518130045146 1.5307337294603591 8.7
      vertex 13.170518130045146 1.5307337294603591 6.7
      vertex 12.800878449210181 2.2222809320784087 6.7
    endloop
  endfacet
  facet normal 0.8819212643483557 0.47139673682599637 0
    outer loop
      vertex 12.800878449210181 2.2222809320784087 8.7
      vertex 13.170518130045146 1.5307337294603591 8.7
      vertex 12.800878449210181 2.2222809320784087 6.7
    endloop
  endfacet
  facet normal 0 -1 0
    outer loop
      vertex -8.125 -12.149999999999999 -6.700000000000001
      vertex -5.914999999999999 -12.149999999999999 -5.3500000000000005
      vertex -8.125 -12.149999999999999 -3.400000000000001
    endloop
  endfacet
  facet normal -1 0 0
    outer loop
      vertex -8.125 -12.149999999999999 -6.700000000000001
      vertex -8.125 -12.149999999999999 -3.400000000000001
      vertex -8.125 -6.75 -3.400000000000001
    endloop
  endfacet
  facet normal -1 0 0
    outer loop
      vertex -8.125 -12.149999999999999 -6.700000000000001
      vertex -8.125 -6.75 -3.400000000000001
      vertex -8.125 -6.75 -6.700000000000001
    endloop
  endfacet
  facet normal 0 -1 0
    outer loop
      vertex -8.125 -12.149999999999999 -6.700000000000001
      vertex -5.3149999999999995 -12.149999999999999 -5.3500000000000005
      vertex -5.914999999999999 -12.149999999999999 -5.3500000000000005
    endloop
  endfacet
  facet normal 0 -1 0
    outer loop
      vertex -8.125 -12.149999999999999 -6.700000000000001
      vertex -3.374999999999999 -12.149999999999999 -5.3500000000000005
      vertex -5.3149999999999995 -12.149999999999999 -5.3500000000000005
    endloop
  endfacet
  facet normal 0 -1 0
    outer loop
      vertex -8.125 -12.149999999999999 -3.400000000000001
      vertex -5.914999999999999 -12.149999999999999 -5.3500000000000005
      vertex -5.914999999999999 -12.149999999999999 -4.750000000000001
    endloop
  endfacet
  facet normal 0 -1 0
    outer loop
      vertex -8.125 -12.149999999999999 -3.400000000000001
      vertex -5.914999999999999 -12.149999999999999 -4.750000000000001
      vertex -5.3149999999999995 -12.149999999999999 -4.750000000000001
    endloop
  endfacet
  facet normal 0 -1 0
    outer loop
      vertex -8.125 -12.149999999999999 -6.700000000000001
      vertex -2.7749999999999995 -12.149999999999999 -5.3500000000000005
      vertex -3.374999999999999 -12.149999999999999 -5.3500000000000005
    endloop
  endfacet
  facet normal 0 -1 0
    outer loop
      vertex -5.3149999999999995 -12.149999999999999 -5.3500000000000005
      vertex -3.374999999999999 -12.149999999999999 -5.3500000000000005
      vertex -5.3149999999999995 -12.149999999999999 -4.750000000000001
    endloop
  endfacet
  facet normal 0 -1 0
    outer loop
      vertex -8.125 -12.149999999999999 -6.700000000000001
      vertex -0.8349999999999993 -12.149999999999999 -5.3500000000000005
      vertex -2.7749999999999995 -12.149999999999999 -5.3500000000000005
    endloop
  endfacet
  facet normal 0 -1 0
    outer loop
      vertex -5.3149999999999995 -12.149999999999999 -4.750000000000001
      vertex -3.374999999999999 -12.149999999999999 -5.3500000000000005
      vertex -3.374999999999999 -12.149999999999999 -4.750000000000001
    endloop
  endfacet
  facet normal 0 -1 0
    outer loop
      vertex -8.125 -12.149999999999999 -3.400000000000001
      vertex -5.3149999999999995 -12.149999999999999 -4.750000000000001
      vertex 1.9750000000000005 -12.149999999999999 -3.400000000000001
    endloop
  endfacet
  facet normal 0 -1 0
    outer loop
      vertex -8.125 -12.149999999999999 -6.700000000000001
      vertex 1.9750000000000005 -12.149999999999999 -6.700000000000001
      vertex -0.8349999999999993 -12.149999999999999 -5.3500000000000005
    endloop
  endfacet
  facet normal 0 -1 0
    outer loop
      vertex -2.7749999999999995 -12.149999999999999 -5.3500000000000005
      vertex -0.8349999999999993 -12.149999999999999 -5.3500000000000005
      vertex -2.7749999999999995 -12.149999999999999 -4.750000000000001
    endloop
  endfacet
  facet normal 0 -1 0
    outer loop
      vertex -5.3149999999999995 -12.149999999999999 -4.750000000000001
      vertex -3.374999999999999 -12.149999999999999 -4.750000000000001
      vertex 1.9750000000000005 -12.149999999999999 -3.400000000000001
    endloop
  endfacet
  facet normal 0 -1 0
    outer loop
      vertex -2.7749999999999995 -12.149999999999999 -4.750000000000001
      vertex -0.8349999999999993 -12.149999999999999 -5.3500000000000005
      vertex -0.8349999999999993 -12.149999999999999 -4.750000000000001
    endloop
  endfacet
  facet normal 0 -1 0
    outer loop
      vertex -3.374999999999999 -12.149999999999999 -4.750000000000001
      vertex -2.7749999999999995 -12.149999999999999 -4.750000000000001
      vertex 1.9750000000000005 -12.149999999999999 -3.400000000000001
    endloop
  endfacet
  facet normal 0 -1 0
    outer loop
      vertex -2.7749999999999995 -12.149999999999999 -4.750000000000001
      vertex -0.8349999999999993 -12.149999999999999 -4.750000000000001
      vertex 1.9750000000000005 -12.149999999999999 -3.400000000000001
    endloop
  endfacet
  facet normal 0 1.6447748512965286e-16 -1
    outer loop
      vertex -8.125 -12.149999999999999 -6.700000000000001
      vertex 1.9750000000000005 -6.75 -6.7
      vertex 1.9750000000000005 -12.149999999999999 -6.700000000000001
    endloop
  endfacet
  facet normal 0 0 1
    outer loop
      vertex -8.125 -12.149999999999999 -3.400000000000001
      vertex 1.9750000000000005 -12.149999999999999 -3.400000000000001
      vertex -8.125 -6.75 -3.400000000000001
    endloop
  endfacet
  facet normal 8.7938457396052e-17 0 -1
    outer loop
      vertex -8.125 -12.149999999999999 -6.700000000000001
      vertex -8.125 -6.75 -6.700000000000001
      vertex 1.9750000000000005 -6.75 -6.7
    endloop
  endfacet
  facet normal 8.793845739605198e-17 1.9737298215558367e-15 -1
    outer loop
      vertex -8.125 -6.75 -6.700000000000001
      vertex -8.125 -6.300000000000001 -6.7
      vertex 1.9750000000000005 -6.75 -6.7
    endloop
  endfacet
  facet normal 0 0 -1
    outer loop
      vertex 1.9750000000000005 -6.75 -6.7
      vertex -8.125 -6.300000000000001 -6.7
      vertex 1.9750000000000005 -6.300000000000001 -6.7
    endloop
  endfacet
  facet normal 0 0 1
    outer loop
      vertex 1.9750000000000005 -12.149999999999999 -3.400000000000001
      vertex 1.9750000000000005 -6.75 -3.400000000000001
      vertex -8.125 -6.75 -3.400000000000001
    endloop
  endfacet
  facet normal 0 -1 0
    outer loop
      vertex -0.8349999999999993 -12.149999999999999 -5.3500000000000005
      vertex 1.9750000000000005 -12.149999999999999 -6.700000000000001
      vertex -0.23499999999999927 -12.149999999999999 -5.3500000000000005
    endloop
  endfacet
  facet normal 0 -1 0
    outer loop
      vertex -0.23499999999999927 -12.149999999999999 -5.3500000000000005
      vertex 1.9750000000000005 -12.149999999999999 -6.700000000000001
      vertex 1.9750000000000005 -12.149999999999999 -3.400000000000001
    endloop
  endfacet
  facet normal 0 -1 0
    outer loop
      vertex -0.8349999999999993 -12.149999999999999 -4.750000000000001
      vertex -0.23499999999999927 -12.149999999999999 -4.750000000000001
      vertex 1.9750000000000005 -12.149999999999999 -3.400000000000001
    endloop
  endfacet
  facet normal 0 -1 0
    outer loop
      vertex -0.23499999999999927 -12.149999999999999 -5.3500000000000005
      vertex 1.9750000000000005 -12.149999999999999 -3.400000000000001
      vertex -0.23499999999999927 -12.149999999999999 -4.750000000000001
    endloop
  endfacet
  facet normal 1 0 0
    outer loop
      vertex 1.9750000000000005 -12.149999999999999 -6.700000000000001
      vertex 1.9750000000000005 -6.75 -6.7
      vertex 1.9750000000000005 -12.149999999999999 -3.400000000000001
    endloop
  endfacet
  facet normal 1 0 0
    outer loop
      vertex 1.9750000000000005 -12.149999999999999 -3.400000000000001
      vertex 1.9750000000000005 -6.75 -6.7
      vertex 1.9750000000000005 -6.75 -3.400000000000001
    endloop
  endfacet
  facet normal 0 -1 0
    outer loop
      vertex -5.914999999999999 -14.149999999999999 -5.3500000000000005
      vertex -5.3149999999999995 -14.149999999999999 -4.750000000000001
      vertex -5.914999999999999 -14.149999999999999 -4.750000000000001
    endloop
  endfacet
  facet normal -1 0 0
    outer loop
      vertex -5.914999999999999 -14.149999999999999 -5.3500000000000005
      vertex -5.914999999999999 -14.149999999999999 -4.750000000000001
      vertex -5.914999999999999 -12.149999999999999 -4.750000000000001
    endloop
  endfacet
  facet normal 0 0 1
    outer loop
      vertex -5.914999999999999 -14.149999999999999 -4.750000000000001
      vertex -5.3149999999999995 -14.149999999999999 -4.750000000000001
      vertex -5.914999999999999 -12.149999999999999 -4.750000000000001
    endloop
  endfacet
  facet normal 0 0 -1
    outer loop
      vertex -5.914999999999999 -14.149999999999999 -5.3500000000000005
      vertex -5.914999999999999 -12.149999999999999 -5.3500000000000005
      vertex -5.3149999999999995 -12.149999999999999 -5.3500000000000005
    endloop
  endfacet
  facet normal -1 0 0
    outer loop
      vertex -5.914999999999999 -14.149999999999999 -5.3500000000000005
      vertex -5.914999999999999 -12.149999999999999 -4.750000000000001
      vertex -5.914999999999999 -12.149999999999999 -5.3500000000000005
    endloop
  endfacet
  facet normal 0 -1 0
    outer loop
      vertex -5.914999999999999 -14.149999999999999 -5.3500000000000005
      vertex -5.3149999999999995 -14.149999999999999 -5.3500000000000005
      vertex -5.3149999999999995 -14.149999999999999 -4.750000000000001
    endloop
  endfacet
  facet normal 0 0 -1
    outer loop
      vertex -5.914999999999999 -14.149999999999999 -5.3500000000000005
      vertex -5.3149999999999995 -12.149999999999999 -5.3500000000000005
      vertex -5.3149999999999995 -14.149999999999999 -5.3500000000000005
    endloop
  endfacet
  facet normal 1 0 0
    outer loop
      vertex -5.3149999999999995 -14.149999999999999 -5.3500000000000005
      vertex -5.3149999999999995 -12.149999999999999 -5.3500000000000005
      vertex -5.3149999999999995 -14.149999999999999 -4.750000000000001
    endloop
  endfacet
  facet normal 1 0 0
    outer loop
      vertex -5.3149999999999995 -14.149999999999999 -4.750000000000001
      vertex -5.3149999999999995 -12.149999999999999 -5.3500000000000005
      vertex -5.3149999999999995 -12.149999999999999 -4.750000000000001
    endloop
  endfacet
  facet normal 0 0 1
    outer loop
      vertex -5.914999999999999 -12.149999999999999 -4.750000000000001
      vertex -5.3149999999999995 -14.149999999999999 -4.750000000000001
      vertex -5.3149999999999995 -12.149999999999999 -4.750000000000001
    endloop
  endfacet
  facet normal 0 -1 0
    outer loop
      vertex -3.374999999999999 -14.149999999999999 -5.3500000000000005
      vertex -2.7749999999999995 -14.149999999999999 -5.3500000000000005
      vertex -2.7749999999999995 -14.149999999999999 -4.750000000000001
    endloop
  endfacet
  facet normal 0 -1 0
    outer loop
      vertex -3.374999999999999 -14.149999999999999 -5.3500000000000005
      vertex -2.7749999999999995 -14.149999999999999 -4.750000000000001
      vertex -3.374999999999999 -14.149999999999999 -4.750000000000001
    endloop
  endfacet
  facet normal 0 0 -1
    outer loop
      vertex -3.374999999999999 -14.149999999999999 -5.3500000000000005
      vertex -2.7749999999999995 -12.149999999999999 -5.3500000000000005
      vertex -2.7749999999999995 -14.149999999999999 -5.3500000000000005
    endloop
  endfacet
  facet normal -1 0 0
    outer loop
      vertex -3.374999999999999 -14.149999999999999 -5.3500000000000005
      vertex -3.374999999999999 -14.149999999999999 -4.750000000000001
      vertex -3.374999999999999 -12.149999999999999 -4.750000000000001
    endloop
  endfacet
  facet normal 1 0 0
    outer loop
      vertex -2.7749999999999995 -14.149999999999999 -5.3500000000000005
      vertex -2.7749999999999995 -12.149999999999999 -5.3500000000000005
      vertex -2.7749999999999995 -14.149999999999999 -4.750000000000001
    endloop
  endfacet
  facet normal 0 0 1
    outer loop
      vertex -3.374999999999999 -14.149999999999999 -4.750000000000001
      vertex -2.7749999999999995 -14.149999999999999 -4.750000000000001
      vertex -3.374999999999999 -12.149999999999999 -4.750000000000001
    endloop
  endfacet
  facet normal 0 0 -1
    outer loop
      vertex -3.374999999999999 -14.149999999999999 -5.3500000000000005
      vertex -3.374999999999999 -12.149999999999999 -5.3500000000000005
      vertex -2.7749999999999995 -12.149999999999999 -5.3500000000000005
    endloop
  endfacet
  facet normal -1 0 0
    outer loop
      vertex -3.374999999999999 -14.149999999999999 -5.3500000000000005
      vertex -3.374999999999999 -12.149999999999999 -4.750000000000001
      vertex -3.374999999999999 -12.149999999999999 -5.3500000000000005
    endloop
  endfacet
  facet normal 1 0 0
    outer loop
      vertex -2.7749999999999995 -14.149999999999999 -4.750000000000001
      vertex -2.7749999999999995 -12.149999999999999 -5.3500000000000005
      vertex -2.7749999999999995 -12.149999999999999 -4.750000000000001
    endloop
  endfacet
  facet normal 0 0 1
    outer loop
      vertex -2.7749999999999995 -14.149999999999999 -4.750000000000001
      vertex -2.7749999999999995 -12.149999999999999 -4.750000000000001
      vertex -3.374999999999999 -12.149999999999999 -4.750000000000001
    endloop
  endfacet
  facet normal 0 -1 0
    outer loop
      vertex -0.8349999999999993 -14.149999999999999 -5.3500000000000005
      vertex -0.23499999999999927 -14.149999999999999 -4.750000000000001
      vertex -0.8349999999999993 -14.149999999999999 -4.750000000000001
    endloop
  endfacet
  facet normal 0 -1 0
    outer loop
      vertex -0.8349999999999993 -14.149999999999999 -5.3500000000000005
      vertex -0.23499999999999927 -14.149999999999999 -5.3500000000000005
      vertex -0.23499999999999927 -14.149999999999999 -4.750000000000001
    endloop
  endfacet
  facet normal 0 0 -1
    outer loop
      vertex -0.8349999999999993 -14.149999999999999 -5.3500000000000005
      vertex -0.23499999999999927 -12.149999999999999 -5.3500000000000005
      vertex -0.23499999999999927 -14.149999999999999 -5.3500000000000005
    endloop
  endfacet
  facet normal -1 0 0
    outer loop
      vertex -0.8349999999999993 -14.149999999999999 -5.3500000000000005
      vertex -0.8349999999999993 -14.149999999999999 -4.750000000000001
      vertex -0.8349999999999993 -12.149999999999999 -4.750000000000001
    endloop
  endfacet
  facet normal 1 0 0
    outer loop
      vertex -0.23499999999999927 -14.149999999999999 -5.3500000000000005
      vertex -0.23499999999999927 -12.149999999999999 -5.3500000000000005
      vertex -0.23499999999999927 -14.149999999999999 -4.750000000000001
    endloop
  endfacet
  facet normal 0 0 1
    outer loop
      vertex -0.8349999999999993 -14.149999999999999 -4.750000000000001
      vertex -0.23499999999999927 -14.149999999999999 -4.750000000000001
      vertex -0.8349999999999993 -12.149999999999999 -4.750000000000001
    endloop
  endfacet
  facet normal 0 0 -1
    outer loop
      vertex -0.8349999999999993 -14.149999999999999 -5.3500000000000005
      vertex -0.8349999999999993 -12.149999999999999 -5.3500000000000005
      vertex -0.23499999999999927 -12.149999999999999 -5.3500000000000005
    endloop
  endfacet
  facet normal -1 0 0
    outer loop
      vertex -0.8349999999999993 -14.149999999999999 -5.3500000000000005
      vertex -0.8349999999999993 -12.149999999999999 -4.750000000000001
      vertex -0.8349999999999993 -12.149999999999999 -5.3500000000000005
    endloop
  endfacet
  facet normal 1 0 0
    outer loop
      vertex -0.23499999999999927 -14.149999999999999 -4.750000000000001
      vertex -0.23499999999999927 -12.149999999999999 -5.3500000000000005
      vertex -0.23499999999999927 -12.149999999999999 -4.750000000000001
    endloop
  endfacet
  facet normal 0 0 1
    outer loop
      vertex -0.23499999999999927 -14.149999999999999 -4.750000000000001
      vertex -0.23499999999999927 -12.149999999999999 -4.750000000000001
      vertex -0.8349999999999993 -12.149999999999999 -4.750000000000001
    endloop
  endfacet
  facet normal 0 -1 0
    outer loop
      vertex -14.725 -6.300000000000001 -7.8999999999999995
      vertex -8.125 -6.300000000000001 -6.7
      vertex -14.725 -6.300000000000001 -6.7
    endloop
  endfacet
  facet normal 0 -1 0
    outer loop
      vertex -14.725 -6.300000000000001 -7.8999999999999995
      vertex 1.9750000000000005 -6.300000000000001 -6.7
      vertex -8.125 -6.300000000000001 -6.7
    endloop
  endfacet
  facet normal -1 0 0
    outer loop
      vertex -14.725 -6.300000000000001 -7.8999999999999995
      vertex -14.725 -6.300000000000001 -6.7
      vertex -14.725 6.4750000000000005 -6.7
    endloop
  endfacet
  facet normal -1 0 0
    outer loop
      vertex -14.725 -6.300000000000001 -7.8999999999999995
      vertex -14.725 6.75 -6.7
      vertex -14.725 6.75 -7.8999999999999995
    endloop
  endfacet
  facet normal -1 0 0
    outer loop
      vertex -14.725 -6.300000000000001 -7.8999999999999995
      vertex -14.725 6.4750000000000005 -6.7
      vertex -14.725 6.75 -6.7
    endloop
  endfacet
  facet normal 0 0 -1
    outer loop
      vertex -14.725 -6.300000000000001 -7.8999999999999995
      vertex -14.725 6.75 -7.8999999999999995
      vertex 14.725 6.75 -7.8999999999999995
    endloop
  endfacet
  facet normal 0 1 0
    outer loop
      vertex -14.725 6.75 -7.8999999999999995
      vertex -14.725 6.75 -6.7
      vertex 14.725 6.75 -7.8999999999999995
    endloop
  endfacet
  facet normal 0 0 1
    outer loop
      vertex -14.725 6.75 -6.7
      vertex -14.725 6.4750000000000005 -6.7
      vertex 14.725 6.4750000000000005 -6.7
    endloop
  endfacet
  facet normal 0 -1 0
    outer loop
      vertex -14.725 -6.300000000000001 -7.8999999999999995
      vertex 14.725 -6.300000000000001 -6.7
      vertex 1.9750000000000005 -6.300000000000001 -6.7
    endloop
  endfacet
  facet normal 0 -1 0
    outer loop
      vertex -14.725 -6.300000000000001 -7.8999999999999995
      vertex 14.725 -6.300000000000001 -7.8999999999999995
      vertex 14.725 -6.300000000000001 -6.7
    endloop
  endfacet
  facet normal 0 0 -1
    outer loop
      vertex -14.725 -6.300000000000001 -7.8999999999999995
      vertex 14.725 6.75 -7.8999999999999995
      vertex 14.725 -6.300000000000001 -7.8999999999999995
    endloop
  endfacet
  facet normal 0 1 0
    outer loop
      vertex -14.725 6.75 -6.7
      vertex 14.725 6.75 -6.7
      vertex 14.725 6.75 -7.8999999999999995
    endloop
  endfacet
  facet normal 0 0 1
    outer loop
      vertex -14.725 6.75 -6.7
      vertex 14.725 6.4750000000000005 -6.7
      vertex 14.725 6.75 -6.7
    endloop
  endfacet
  facet normal 1 0 0
    outer loop
      vertex 14.725 -6.300000000000001 -7.8999999999999995
      vertex 14.725 6.75 -7.8999999999999995
      vertex 14.725 -6.300000000000001 -6.7
    endloop
  endfacet
  facet normal 1 0 0
    outer loop
      vertex 14.725 6.75 -7.8999999999999995
      vertex 14.725 6.4750000000000005 -6.7
      vertex 14.725 -6.300000000000001 -6.7
    endloop
  endfacet
  facet normal 1 0 0
    outer loop
      vertex 14.725 6.75 -7.8999999999999995
      vertex 14.725 6.75 -6.7
      vertex 14.725 6.4750000000000005 -6.7
    endloop
  endfacet
endsolid OpenSCAD_Model
