solid OpenSCAD_Model
  facet normal -1 0 -1.3611929803833336e-16
    outer loop
      vertex -14.724999999999998 -3.5499999999999994 -6.525
      vertex -14.725 -3.55 6.525
      vertex -14.725 3.55 6.525
    endloop
  endfacet
  facet normal 0 0 1
    outer loop
      vertex -14.725 3.55 6.525
      vertex -14.725 -3.55 6.525
      vertex 14.724999999999998 -3.5499999999999994 6.525
    endloop
  endfacet
  facet normal 0 1 0
    outer loop
      vertex -14.725 3.55 -6.525
      vertex -13.825 3.55 -4.2
      vertex -6.625 3.55 -4.2
    endloop
  endfacet
  facet normal 0 0 -1
    outer loop
      vertex -13.825 3.55 -4.2
      vertex -13.825 5.55 -4.2
      vertex -6.625 5.55 -4.2
    endloop
  endfacet
  facet normal 0 1 0
    outer loop
      vertex -13.825 5.55 -4.2
      vertex -11.181708580912725 5.55 -2.309698831278217
      vertex -10.71272580504032 5.55 -2.451963201008076
    endloop
  endfacet
  facet normal 0 1 0
    outer loop
      vertex -13.825 5.55 -4.2
      vertex -10.71272580504032 5.55 -2.451963201008076
      vertex -10.225 5.55 -2.5
    endloop
  endfacet
  facet normal 0 1 0
    outer loop
      vertex -13.825 5.55 -4.2
      vertex -10.225 5.55 -2.5
      vertex -9.73727419495968 5.55 -2.451963201008076
    endloop
  endfacet
  facet normal 0 0 -1
    outer loop
      vertex -13.825 3.55 -4.2
      vertex -6.625 5.55 -4.2
      vertex -6.625 3.55 -4.2
    endloop
  endfacet
  facet normal 0 1 0
    outer loop
      vertex -13.825 5.55 -4.2
      vertex -9.73727419495968 5.55 -2.451963201008076
      vertex -6.625 5.55 -4.2
    endloop
  endfacet
  facet normal 0 1 0
    outer loop
      vertex -6.625 5.55 -4.2
      vertex -9.73727419495968 5.55 -2.451963201008076
      vertex -9.268291419087275 5.55 -2.309698831278217
    endloop
  endfacet
  facet normal 0 0 -1
    outer loop
      vertex -14.724999999999998 -3.5499999999999994 -6.525
      vertex -14.725 3.55 -6.525
      vertex 14.725 3.55 -6.525
    endloop
  endfacet
  facet normal 0 1 0
    outer loop
      vertex -14.725 3.55 -6.525
      vertex -6.625 3.55 -4.2
      vertex 4.475 3.55 -4.2
    endloop
  endfacet
  facet normal -1 -2.5019110414088036e-16 0
    outer loop
      vertex -14.724999999999998 -3.5499999999999994 -6.525
      vertex -14.725 3.55 6.525
      vertex -14.725 3.55 -6.525
    endloop
  endfacet
  facet normal 0 1 0
    outer loop
      vertex -14.725 3.55 -6.525
      vertex -13.825 3.55 4.2
      vertex -13.825 3.55 -4.2
    endloop
  endfacet
  facet normal 0 1 0
    outer loop
      vertex -14.725 3.55 -6.525
      vertex -14.725 3.55 6.525
      vertex -13.825 3.55 4.2
    endloop
  endfacet
  facet normal -1 0 0
    outer loop
      vertex -13.825 3.55 -4.2
      vertex -13.825 3.55 4.2
      vertex -13.825 5.55 4.2
    endloop
  endfacet
  facet normal -1 0 0
    outer loop
      vertex -13.825 3.55 -4.2
      vertex -13.825 5.55 4.2
      vertex -13.825 5.55 -4.2
    endloop
  endfacet
  facet normal 0 1 0
    outer loop
      vertex -13.825 5.55 -4.2
      vertex -12.534698831278217 5.55 -0.9567085809127245
      vertex -12.303674030756362 5.55 -1.3889255825490054
    endloop
  endfacet
  facet normal 0 1 0
    outer loop
      vertex -13.825 5.55 -4.2
      vertex -12.676963201008075 5.55 -0.4877258050403206
      vertex -12.534698831278217 5.55 -0.9567085809127245
    endloop
  endfacet
  facet normal 0 1 0
    outer loop
      vertex -13.825 5.55 -4.2
      vertex -12.725 5.55 0
      vertex -12.676963201008075 5.55 -0.4877258050403206
    endloop
  endfacet
  facet normal 0 1 0
    outer loop
      vertex -13.825 5.55 -4.2
      vertex -12.676963201008075 5.55 0.4877258050403206
      vertex -12.725 5.55 0
    endloop
  endfacet
  facet normal 0 1 0
    outer loop
      vertex -13.825 5.55 -4.2
      vertex -11.992766952966369 5.55 -1.7677669529663689
      vertex -11.613925582549005 5.55 -2.078674030756363
    endloop
  endfacet
  facet normal 0 1 0
    outer loop
      vertex -13.825 5.55 -4.2
      vertex -12.303674030756362 5.55 -1.3889255825490054
      vertex -11.992766952966369 5.55 -1.7677669529663689
    endloop
  endfacet
  facet normal 0 1 0
    outer loop
      vertex -13.825 5.55 -4.2
      vertex -11.613925582549005 5.55 -2.078674030756363
      vertex -11.181708580912725 5.55 -2.309698831278217
    endloop
  endfacet
  facet normal 0 1 0
    outer loop
      vertex -13.825 5.55 -4.2
      vertex -13.825 5.55 4.2
      vertex -12.676963201008075 5.55 0.4877258050403206
    endloop
  endfacet
  facet normal 0 1 0
    outer loop
      vertex -6.625 5.55 -4.2
      vertex -9.268291419087275 5.55 -2.309698831278217
      vertex -8.836074417450995 5.55 -2.078674030756363
    endloop
  endfacet
  facet normal 0 1 0
    outer loop
      vertex -6.625 5.55 -4.2
      vertex -8.836074417450995 5.55 -2.078674030756363
      vertex -8.45723304703363 5.55 -1.7677669529663689
    endloop
  endfacet
  facet normal 0 1 0
    outer loop
      vertex -6.625 5.55 -4.2
      vertex -8.45723304703363 5.55 -1.7677669529663689
      vertex -8.146325969243637 5.55 -1.3889255825490054
    endloop
  endfacet
  facet normal 0 1 0
    outer loop
      vertex -6.625 5.55 -4.2
      vertex -8.146325969243637 5.55 -1.3889255825490054
      vertex -7.915301168721783 5.55 -0.9567085809127245
    endloop
  endfacet
  facet normal 0 1 0
    outer loop
      vertex -6.625 5.55 -4.2
      vertex -7.915301168721783 5.55 -0.9567085809127245
      vertex -7.773036798991924 5.55 -0.4877258050403206
    endloop
  endfacet
  facet normal 0 1 0
    outer loop
      vertex -6.625 5.55 4.2
      vertex -7.773036798991924 5.55 -0.4877258050403206
      vertex -7.725 5.55 0
    endloop
  endfacet
  facet normal 0 1 0
    outer loop
      vertex -6.625 5.55 4.2
      vertex -7.725 5.55 0
      vertex -7.773036798991924 5.55 0.4877258050403206
    endloop
  endfacet
  facet normal 0 1 0
    outer loop
      vertex -13.825 3.55 4.2
      vertex -14.725 3.55 6.525
      vertex -6.625 3.55 4.2
    endloop
  endfacet
  facet normal 0 0 1
    outer loop
      vertex -13.825 3.55 4.2
      vertex -6.625 3.55 4.2
      vertex -13.825 5.55 4.2
    endloop
  endfacet
  facet normal 0 1 0
    outer loop
      vertex -13.825 5.55 4.2
      vertex -12.534698831278217 5.55 0.9567085809127245
      vertex -12.676963201008075 5.55 0.4877258050403206
    endloop
  endfacet
  facet normal 0 1 0
    outer loop
      vertex -13.825 5.55 4.2
      vertex -12.303674030756362 5.55 1.3889255825490054
      vertex -12.534698831278217 5.55 0.9567085809127245
    endloop
  endfacet
  facet normal 0 1 0
    outer loop
      vertex -13.825 5.55 4.2
      vertex -11.992766952966369 5.55 1.7677669529663689
      vertex -12.303674030756362 5.55 1.3889255825490054
    endloop
  endfacet
  facet normal 0 1 0
    outer loop
      vertex -13.825 5.55 4.2
      vertex -11.613925582549005 5.55 2.078674030756363
      vertex -11.992766952966369 5.55 1.7677669529663689
    endloop
  endfacet
  facet normal 0 1 0
    outer loop
      vertex -13.825 5.55 4.2
      vertex -11.181708580912725 5.55 2.309698831278217
      vertex -11.613925582549005 5.55 2.078674030756363
    endloop
  endfacet
  facet normal 0 1 0
    outer loop
      vertex -13.825 5.55 4.2
      vertex -10.71272580504032 5.55 2.451963201008076
      vertex -11.181708580912725 5.55 2.309698831278217
    endloop
  endfacet
  facet normal 0 1 0
    outer loop
      vertex -13.825 5.55 4.2
      vertex -6.625 5.55 4.2
      vertex -10.71272580504032 5.55 2.451963201008076
    endloop
  endfacet
  facet normal 0 1 0
    outer loop
      vertex -6.625 5.55 4.2
      vertex -7.773036798991924 5.55 0.4877258050403206
      vertex -7.915301168721783 5.55 0.9567085809127245
    endloop
  endfacet
  facet normal 0 1 0
    outer loop
      vertex -6.625 5.55 4.2
      vertex -7.915301168721783 5.55 0.9567085809127245
      vertex -8.146325969243637 5.55 1.3889255825490054
    endloop
  endfacet
  facet normal 0 1 0
    outer loop
      vertex -6.625 5.55 4.2
      vertex -8.45723304703363 5.55 1.7677669529663689
      vertex -8.836074417450995 5.55 2.078674030756363
    endloop
  endfacet
  facet normal 0 1 0
    outer loop
      vertex -6.625 5.55 4.2
      vertex -8.836074417450995 5.55 2.078674030756363
      vertex -9.268291419087275 5.55 2.309698831278217
    endloop
  endfacet
  facet normal 0 1 0
    outer loop
      vertex -6.625 5.55 4.2
      vertex -8.146325969243637 5.55 1.3889255825490054
      vertex -8.45723304703363 5.55 1.7677669529663689
    endloop
  endfacet
  facet normal 0 1 0
    outer loop
      vertex -6.625 5.55 4.2
      vertex -10.225 5.55 2.5
      vertex -10.71272580504032 5.55 2.451963201008076
    endloop
  endfacet
  facet normal 0 1 0
    outer loop
      vertex -6.625 5.55 4.2
      vertex -9.73727419495968 5.55 2.451963201008076
      vertex -10.225 5.55 2.5
    endloop
  endfacet
  facet normal 0 1 0
    outer loop
      vertex -6.625 5.55 4.2
      vertex -9.268291419087275 5.55 2.309698831278217
      vertex -9.73727419495968 5.55 2.451963201008076
    endloop
  endfacet
  facet normal 0 0 1
    outer loop
      vertex -13.825 5.55 4.2
      vertex -6.625 3.55 4.2
      vertex -6.625 5.55 4.2
    endloop
  endfacet
  facet normal 1 0 0
    outer loop
      vertex -6.625 3.55 -4.2
      vertex -6.625 5.55 -4.2
      vertex -6.625 3.55 4.2
    endloop
  endfacet
  facet normal 1 0 0
    outer loop
      vertex -6.625 5.55 -4.2
      vertex -6.625 5.55 4.2
      vertex -6.625 3.55 4.2
    endloop
  endfacet
  facet normal 0 1 0
    outer loop
      vertex -6.625 5.55 -4.2
      vertex -7.773036798991924 5.55 -0.4877258050403206
      vertex -6.625 5.55 4.2
    endloop
  endfacet
  facet normal 0 1 0
    outer loop
      vertex -6.625 3.55 -4.2
      vertex -6.625 3.55 4.2
      vertex 4.475 3.55 4.2
    endloop
  endfacet
  facet normal 0 1 0
    outer loop
      vertex -14.725 3.55 6.525
      vertex 4.475 3.55 4.2
      vertex -6.625 3.55 4.2
    endloop
  endfacet
  facet normal 0 0 -1
    outer loop
      vertex 14.725 3.55 -6.525
      vertex 14.725 -3.5499999999999994 -6.525
      vertex -14.724999999999998 -3.5499999999999994 -6.525
    endloop
  endfacet
  facet normal 1 0 1.3611929803833336e-16
    outer loop
      vertex 14.725 3.55 -6.525
      vertex 14.724999999999998 -3.5499999999999994 6.525
      vertex 14.725 -3.5499999999999994 -6.525
    endloop
  endfacet
  facet normal 0 1 0
    outer loop
      vertex -14.725 3.55 -6.525
      vertex 4.475 3.55 -4.2
      vertex 14.725 3.55 -6.525
    endloop
  endfacet
  facet normal 0 1 0
    outer loop
      vertex 4.475 5.55 -4.2
      vertex 6.929415587728428 5.55 -2.121320343559643
      vertex 7.474947161129432 5.55 -2.4944088369076356
    endloop
  endfacet
  facet normal 0 1 0
    outer loop
      vertex 4.475 5.55 -4.2
      vertex 7.474947161129432 5.55 -2.4944088369076356
      vertex 8.097339643485677 5.55 -2.77163859753386
    endloop
  endfacet
  facet normal 0 1 0
    outer loop
      vertex 4.475 5.55 -4.2
      vertex 8.097339643485677 5.55 -2.77163859753386
      vertex 8.772674840741939 5.55 -2.9423558412096913
    endloop
  endfacet
  facet normal 0 0 -1
    outer loop
      vertex 4.475 3.55 -4.2
      vertex 4.475 5.55 -4.2
      vertex 14.475 5.55 -4.2
    endloop
  endfacet
  facet normal 0 1 0
    outer loop
      vertex 4.475 5.55 -4.2
      vertex 8.772674840741939 5.55 -2.9423558412096913
      vertex 14.475 5.55 -4.2
    endloop
  endfacet
  facet normal 0 1 0
    outer loop
      vertex 14.475 5.55 -4.2
      vertex 8.772674840741939 5.55 -2.9423558412096913
      vertex 9.475 5.55 -3
    endloop
  endfacet
  facet normal 0 1 0
    outer loop
      vertex 4.475 3.55 -4.2
      vertex 14.475 3.55 -4.2
      vertex 14.725 3.55 -6.525
    endloop
  endfacet
  facet normal 0 0 -1
    outer loop
      vertex 4.475 3.55 -4.2
      vertex 14.475 5.55 -4.2
      vertex 14.475 3.55 -4.2
    endloop
  endfacet
  facet normal 0 1 0
    outer loop
      vertex 14.475 5.55 -4.2
      vertex 9.475 5.55 -3
      vertex 10.17732515925806 5.55 -2.9423558412096913
    endloop
  endfacet
  facet normal 0 1 0
    outer loop
      vertex 14.475 5.55 -4.2
      vertex 10.17732515925806 5.55 -2.9423558412096913
      vertex 10.852660356514322 5.55 -2.77163859753386
    endloop
  endfacet
  facet normal 0 1 0
    outer loop
      vertex 14.475 5.55 -4.2
      vertex 10.852660356514322 5.55 -2.77163859753386
      vertex 11.475052838870567 5.55 -2.4944088369076356
    endloop
  endfacet
  facet normal 0 1 0
    outer loop
      vertex 14.475 5.55 -4.2
      vertex 11.475052838870567 5.55 -2.4944088369076356
      vertex 12.020584412271571 5.55 -2.121320343559643
    endloop
  endfacet
  facet normal 0 0 1
    outer loop
      vertex -14.725 3.55 6.525
      vertex 14.724999999999998 -3.5499999999999994 6.525
      vertex 14.725 3.55 6.525
    endloop
  endfacet
  facet normal 0 1 0
    outer loop
      vertex -6.625 3.55 -4.2
      vertex 4.475 3.55 4.2
      vertex 4.475 3.55 -4.2
    endloop
  endfacet
  facet normal -1 0 0
    outer loop
      vertex 4.475 3.55 -4.2
      vertex 4.475 3.55 4.2
      vertex 4.475 5.55 4.2
    endloop
  endfacet
  facet normal -1 0 0
    outer loop
      vertex 4.475 3.55 -4.2
      vertex 4.475 5.55 4.2
      vertex 4.475 5.55 -4.2
    endloop
  endfacet
  facet normal 0 1 0
    outer loop
      vertex 4.475 5.55 -4.2
      vertex 5.875 5.55 0
      vertex 5.9441729905483704 5.55 -0.5852709660483848
    endloop
  endfacet
  facet normal 0 1 0
    outer loop
      vertex 4.475 5.55 -4.2
      vertex 5.9441729905483704 5.55 0.5852709660483848
      vertex 5.875 5.55 0
    endloop
  endfacet
  facet normal 0 1 0
    outer loop
      vertex 4.475 5.55 -4.2
      vertex 6.481709395710837 5.55 -1.6667106990588065
      vertex 6.929415587728428 5.55 -2.121320343559643
    endloop
  endfacet
  facet normal 0 1 0
    outer loop
      vertex 4.475 5.55 -4.2
      vertex 6.149033682959368 5.55 -1.1480502970952693
      vertex 6.481709395710837 5.55 -1.6667106990588065
    endloop
  endfacet
  facet normal 0 1 0
    outer loop
      vertex 4.475 5.55 -4.2
      vertex 5.9441729905483704 5.55 -0.5852709660483848
      vertex 6.149033682959368 5.55 -1.1480502970952693
    endloop
  endfacet
  facet normal 0 1 0
    outer loop
      vertex 4.475 5.55 -4.2
      vertex 4.475 5.55 4.2
      vertex 5.9441729905483704 5.55 0.5852709660483848
    endloop
  endfacet
  facet normal 0 1 0
    outer loop
      vertex -14.725 3.55 6.525
      vertex 14.725 3.55 6.525
      vertex 4.475 3.55 4.2
    endloop
  endfacet
  facet normal 0 1 0
    outer loop
      vertex 4.475 5.55 4.2
      vertex 6.149033682959368 5.55 1.1480502970952693
      vertex 5.9441729905483704 5.55 0.5852709660483848
    endloop
  endfacet
  facet normal 0 1 0
    outer loop
      vertex 4.475 5.55 4.2
      vertex 6.481709395710837 5.55 1.6667106990588065
      vertex 6.149033682959368 5.55 1.1480502970952693
    endloop
  endfacet
  facet normal 0 1 0
    outer loop
      vertex 4.475 5.55 4.2
      vertex 6.929415587728428 5.55 2.121320343559643
      vertex 6.481709395710837 5.55 1.6667106990588065
    endloop
  endfacet
  facet normal 0 1 0
    outer loop
      vertex 4.475 5.55 4.2
      vertex 7.474947161129432 5.55 2.4944088369076356
      vertex 6.929415587728428 5.55 2.121320343559643
    endloop
  endfacet
  facet normal 0 1 0
    outer loop
      vertex 4.475 5.55 4.2
      vertex 8.097339643485677 5.55 2.77163859753386
      vertex 7.474947161129432 5.55 2.4944088369076356
    endloop
  endfacet
  facet normal 0 1 0
    outer loop
      vertex 4.475 5.55 4.2
      vertex 8.772674840741939 5.55 2.9423558412096913
      vertex 8.097339643485677 5.55 2.77163859753386
    endloop
  endfacet
  facet normal 1 -2.5019110414088036e-16 0
    outer loop
      vertex 14.725 3.55 -6.525
      vertex 14.725 3.55 6.525
      vertex 14.724999999999998 -3.5499999999999994 6.525
    endloop
  endfacet
  facet normal 0 1 0
    outer loop
      vertex 14.725 3.55 -6.525
      vertex 14.475 3.55 -4.2
      vertex 14.725 3.55 6.525
    endloop
  endfacet
  facet normal 1 0 0
    outer loop
      vertex 14.475 3.55 -4.2
      vertex 14.475 5.55 -4.2
      vertex 14.475 3.55 4.2
    endloop
  endfacet
  facet normal 0 1 0
    outer loop
      vertex 14.475 5.55 -4.2
      vertex 12.020584412271571 5.55 -2.121320343559643
      vertex 12.468290604289162 5.55 -1.6667106990588065
    endloop
  endfacet
  facet normal 0 1 0
    outer loop
      vertex 14.475 5.55 -4.2
      vertex 12.468290604289162 5.55 -1.6667106990588065
      vertex 12.800966317040631 5.55 -1.1480502970952693
    endloop
  endfacet
  facet normal 0 1 0
    outer loop
      vertex 14.475 5.55 -4.2
      vertex 12.800966317040631 5.55 -1.1480502970952693
      vertex 13.005827009451629 5.55 -0.5852709660483848
    endloop
  endfacet
  facet normal 1 0 0
    outer loop
      vertex 14.475 5.55 -4.2
      vertex 14.475 5.55 4.2
      vertex 14.475 3.55 4.2
    endloop
  endfacet
  facet normal 0 1 0
    outer loop
      vertex 14.475 5.55 -4.2
      vertex 13.005827009451629 5.55 -0.5852709660483848
      vertex 14.475 5.55 4.2
    endloop
  endfacet
  facet normal 0 1 0
    outer loop
      vertex 14.475 5.55 4.2
      vertex 13.005827009451629 5.55 -0.5852709660483848
      vertex 13.075 5.55 0
    endloop
  endfacet
  facet normal 0 1 0
    outer loop
      vertex 14.475 5.55 4.2
      vertex 13.075 5.55 0
      vertex 13.005827009451629 5.55 0.5852709660483848
    endloop
  endfacet
  facet normal 0 0 1
    outer loop
      vertex 4.475 3.55 4.2
      vertex 14.475 3.55 4.2
      vertex 4.475 5.55 4.2
    endloop
  endfacet
  facet normal 0 1 0
    outer loop
      vertex 4.475 5.55 4.2
      vertex 9.475 5.55 3
      vertex 8.772674840741939 5.55 2.9423558412096913
    endloop
  endfacet
  facet normal 0 1 0
    outer loop
      vertex 4.475 5.55 4.2
      vertex 10.17732515925806 5.55 2.9423558412096913
      vertex 9.475 5.55 3
    endloop
  endfacet
  facet normal 0 1 0
    outer loop
      vertex 4.475 5.55 4.2
      vertex 14.475 5.55 4.2
      vertex 10.17732515925806 5.55 2.9423558412096913
    endloop
  endfacet
  facet normal 0 1 0
    outer loop
      vertex 14.475 3.55 -4.2
      vertex 14.475 3.55 4.2
      vertex 14.725 3.55 6.525
    endloop
  endfacet
  facet normal 0 1 0
    outer loop
      vertex 4.475 3.55 4.2
      vertex 14.725 3.55 6.525
      vertex 14.475 3.55 4.2
    endloop
  endfacet
  facet normal 0 1 0
    outer loop
      vertex 14.475 5.55 4.2
      vertex 12.020584412271571 5.55 2.121320343559643
      vertex 11.475052838870567 5.55 2.4944088369076356
    endloop
  endfacet
  facet normal 0 1 0
    outer loop
      vertex 14.475 5.55 4.2
      vertex 10.852660356514322 5.55 2.77163859753386
      vertex 10.17732515925806 5.55 2.9423558412096913
    endloop
  endfacet
  facet normal 0 1 0
    outer loop
      vertex 14.475 5.55 4.2
      vertex 11.475052838870567 5.55 2.4944088369076356
      vertex 10.852660356514322 5.55 2.77163859753386
    endloop
  endfacet
  facet normal 0 1 0
    outer loop
      vertex 14.475 5.55 4.2
      vertex 12.800966317040631 5.55 1.1480502970952693
      vertex 12.468290604289162 5.55 1.6667106990588065
    endloop
  endfacet
  facet normal 0 1 0
    outer loop
      vertex 14.475 5.55 4.2
      vertex 13.005827009451629 5.55 0.5852709660483848
      vertex 12.800966317040631 5.55 1.1480502970952693
    endloop
  endfacet
  facet normal 0 1 0
    outer loop
      vertex 14.475 5.55 4.2
      vertex 12.468290604289162 5.55 1.6667106990588065
      vertex 12.020584412271571 5.55 2.121320343559643
    endloop
  endfacet
  facet normal 0 0 1
    outer loop
      vertex 4.475 5.55 4.2
      vertex 14.475 3.55 4.2
      vertex 14.475 5.55 4.2
    endloop
  endfacet
  facet normal -0.6343932841636449 0 -0.7730104533627375
    outer loop
      vertex -11.613925582549005 6.05 -2.078674030756363
      vertex -11.613925582549005 5.55 -2.078674030756363
      vertex -11.992766952966369 5.55 -1.7677669529663689
    endloop
  endfacet
  facet normal -0.6343932841636449 0 -0.7730104533627375
    outer loop
      vertex -11.992766952966369 6.05 -1.7677669529663689
      vertex -11.613925582549005 6.05 -2.078674030756363
      vertex -11.992766952966369 5.55 -1.7677669529663689
    endloop
  endfacet
  facet normal -0.4713967368259986 0 -0.8819212643483546
    outer loop
      vertex -11.181708580912725 6.05 -2.309698831278217
      vertex -11.181708580912725 5.55 -2.309698831278217
      vertex -11.613925582549005 5.55 -2.078674030756363
    endloop
  endfacet
  facet normal -0.4713967368259986 0 -0.8819212643483546
    outer loop
      vertex -11.613925582549005 6.05 -2.078674030756363
      vertex -11.181708580912725 6.05 -2.309698831278217
      vertex -11.613925582549005 5.55 -2.078674030756363
    endloop
  endfacet
  facet normal -0.773010453362738 0 -0.6343932841636443
    outer loop
      vertex -12.303674030756362 6.05 -1.3889255825490054
      vertex -11.992766952966369 5.55 -1.7677669529663689
      vertex -12.303674030756362 5.55 -1.3889255825490054
    endloop
  endfacet
  facet normal -0.773010453362738 0 -0.6343932841636443
    outer loop
      vertex -11.992766952966369 6.05 -1.7677669529663689
      vertex -11.992766952966369 5.55 -1.7677669529663689
      vertex -12.303674030756362 6.05 -1.3889255825490054
    endloop
  endfacet
  facet normal -0.8819212643483542 0 -0.4713967368259992
    outer loop
      vertex -12.303674030756362 6.05 -1.3889255825490054
      vertex -12.303674030756362 5.55 -1.3889255825490054
      vertex -12.534698831278217 6.05 -0.9567085809127245
    endloop
  endfacet
  facet normal -0.8819212643483542 0 -0.4713967368259992
    outer loop
      vertex -12.534698831278217 6.05 -0.9567085809127245
      vertex -12.303674030756362 5.55 -1.3889255825490054
      vertex -12.534698831278217 5.55 -0.9567085809127245
    endloop
  endfacet
  facet normal -0.9569403357322096 0 -0.29028467725446044
    outer loop
      vertex -12.676963201008075 6.05 -0.4877258050403206
      vertex -12.534698831278217 5.55 -0.9567085809127245
      vertex -12.676963201008075 5.55 -0.4877258050403206
    endloop
  endfacet
  facet normal -0.9569403357322096 0 -0.29028467725446044
    outer loop
      vertex -12.534698831278217 6.05 -0.9567085809127245
      vertex -12.534698831278217 5.55 -0.9567085809127245
      vertex -12.676963201008075 6.05 -0.4877258050403206
    endloop
  endfacet
  facet normal -0.9951847266721967 0 -0.0980171403295625
    outer loop
      vertex -12.725 6.05 0
      vertex -12.676963201008075 5.55 -0.4877258050403206
      vertex -12.725 5.55 0
    endloop
  endfacet
  facet normal -0.9951847266721967 0 -0.0980171403295625
    outer loop
      vertex -12.676963201008075 6.05 -0.4877258050403206
      vertex -12.676963201008075 5.55 -0.4877258050403206
      vertex -12.725 6.05 0
    endloop
  endfacet
  facet normal -0.9951847266721967 0 0.0980171403295625
    outer loop
      vertex -12.676963201008075 6.05 0.4877258050403206
      vertex -12.725 5.55 0
      vertex -12.676963201008075 5.55 0.4877258050403206
    endloop
  endfacet
  facet normal -0.9951847266721967 0 0.0980171403295625
    outer loop
      vertex -12.725 6.05 0
      vertex -12.725 5.55 0
      vertex -12.676963201008075 6.05 0.4877258050403206
    endloop
  endfacet
  facet normal 0 1 0
    outer loop
      vertex -12.676963201008075 6.05 -0.4877258050403206
      vertex -12.725 6.05 0
      vertex -7.773036798991924 6.05 -0.4877258050403206
    endloop
  endfacet
  facet normal -0.9569403357322096 0 0.29028467725446044
    outer loop
      vertex -12.534698831278217 6.05 0.9567085809127245
      vertex -12.676963201008075 5.55 0.4877258050403206
      vertex -12.534698831278217 5.55 0.9567085809127245
    endloop
  endfacet
  facet normal -0.9569403357322096 0 0.29028467725446044
    outer loop
      vertex -12.676963201008075 6.05 0.4877258050403206
      vertex -12.676963201008075 5.55 0.4877258050403206
      vertex -12.534698831278217 6.05 0.9567085809127245
    endloop
  endfacet
  facet normal -0.8819212643483542 0 0.4713967368259992
    outer loop
      vertex -12.534698831278217 6.05 0.9567085809127245
      vertex -12.534698831278217 5.55 0.9567085809127245
      vertex -12.303674030756362 6.05 1.3889255825490054
    endloop
  endfacet
  facet normal -0.8819212643483542 0 0.4713967368259992
    outer loop
      vertex -12.303674030756362 6.05 1.3889255825490054
      vertex -12.534698831278217 5.55 0.9567085809127245
      vertex -12.303674030756362 5.55 1.3889255825490054
    endloop
  endfacet
  facet normal -0.773010453362738 0 0.6343932841636443
    outer loop
      vertex -11.992766952966369 6.05 1.7677669529663689
      vertex -12.303674030756362 5.55 1.3889255825490054
      vertex -11.992766952966369 5.55 1.7677669529663689
    endloop
  endfacet
  facet normal -0.773010453362738 0 0.6343932841636443
    outer loop
      vertex -12.303674030756362 6.05 1.3889255825490054
      vertex -12.303674030756362 5.55 1.3889255825490054
      vertex -11.992766952966369 6.05 1.7677669529663689
    endloop
  endfacet
  facet normal -0.2902846772544615 0 -0.9569403357322092
    outer loop
      vertex -10.71272580504032 6.05 -2.451963201008076
      vertex -10.71272580504032 5.55 -2.451963201008076
      vertex -11.181708580912725 5.55 -2.309698831278217
    endloop
  endfacet
  facet normal -0.2902846772544615 0 -0.9569403357322092
    outer loop
      vertex -11.181708580912725 6.05 -2.309698831278217
      vertex -10.71272580504032 6.05 -2.451963201008076
      vertex -11.181708580912725 5.55 -2.309698831278217
    endloop
  endfacet
  facet normal -0.09801714032956084 0 -0.9951847266721968
    outer loop
      vertex -10.225 6.05 -2.5
      vertex -10.225 5.55 -2.5
      vertex -10.71272580504032 5.55 -2.451963201008076
    endloop
  endfacet
  facet normal -0.09801714032956084 0 -0.9951847266721968
    outer loop
      vertex -10.71272580504032 6.05 -2.451963201008076
      vertex -10.225 6.05 -2.5
      vertex -10.71272580504032 5.55 -2.451963201008076
    endloop
  endfacet
  facet normal 0 1 0
    outer loop
      vertex -11.181708580912725 6.05 -2.309698831278217
      vertex -9.73727419495968 6.05 -2.451963201008076
      vertex -10.71272580504032 6.05 -2.451963201008076
    endloop
  endfacet
  facet normal 0 1 0
    outer loop
      vertex -10.71272580504032 6.05 -2.451963201008076
      vertex -9.73727419495968 6.05 -2.451963201008076
      vertex -10.225 6.05 -2.5
    endloop
  endfacet
  facet normal 0 1 0
    outer loop
      vertex -11.613925582549005 6.05 -2.078674030756363
      vertex -9.268291419087275 6.05 -2.309698831278217
      vertex -11.181708580912725 6.05 -2.309698831278217
    endloop
  endfacet
  facet normal 0 1 0
    outer loop
      vertex -11.992766952966369 6.05 -1.7677669529663689
      vertex -8.836074417450995 6.05 -2.078674030756363
      vertex -11.613925582549005 6.05 -2.078674030756363
    endloop
  endfacet
  facet normal 0.09801714032956084 0 -0.9951847266721968
    outer loop
      vertex -9.73727419495968 6.05 -2.451963201008076
      vertex -9.73727419495968 5.55 -2.451963201008076
      vertex -10.225 5.55 -2.5
    endloop
  endfacet
  facet normal 0.09801714032956084 0 -0.9951847266721968
    outer loop
      vertex -10.225 6.05 -2.5
      vertex -9.73727419495968 6.05 -2.451963201008076
      vertex -10.225 5.55 -2.5
    endloop
  endfacet
  facet normal 0 1 0
    outer loop
      vertex -11.181708580912725 6.05 -2.309698831278217
      vertex -9.268291419087275 6.05 -2.309698831278217
      vertex -9.73727419495968 6.05 -2.451963201008076
    endloop
  endfacet
  facet normal 0.2902846772544615 0 -0.9569403357322092
    outer loop
      vertex -9.268291419087275 6.05 -2.309698831278217
      vertex -9.268291419087275 5.55 -2.309698831278217
      vertex -9.73727419495968 5.55 -2.451963201008076
    endloop
  endfacet
  facet normal 0.2902846772544615 0 -0.9569403357322092
    outer loop
      vertex -9.73727419495968 6.05 -2.451963201008076
      vertex -9.268291419087275 6.05 -2.309698831278217
      vertex -9.73727419495968 5.55 -2.451963201008076
    endloop
  endfacet
  facet normal 0 1 0
    outer loop
      vertex -11.613925582549005 6.05 -2.078674030756363
      vertex -8.836074417450995 6.05 -2.078674030756363
      vertex -9.268291419087275 6.05 -2.309698831278217
    endloop
  endfacet
  facet normal 0 1 0
    outer loop
      vertex -11.992766952966369 6.05 -1.7677669529663689
      vertex -8.45723304703363 6.05 -1.7677669529663689
      vertex -8.836074417450995 6.05 -2.078674030756363
    endloop
  endfacet
  facet normal 0 1 0
    outer loop
      vertex -11.992766952966369 6.05 -1.7677669529663689
      vertex -12.303674030756362 6.05 -1.3889255825490054
      vertex -8.45723304703363 6.05 -1.7677669529663689
    endloop
  endfacet
  facet normal 0 1 0
    outer loop
      vertex -12.303674030756362 6.05 -1.3889255825490054
      vertex -12.534698831278217 6.05 -0.9567085809127245
      vertex -8.146325969243637 6.05 -1.3889255825490054
    endloop
  endfacet
  facet normal 0 1 0
    outer loop
      vertex -12.534698831278217 6.05 -0.9567085809127245
      vertex -12.676963201008075 6.05 -0.4877258050403206
      vertex -7.915301168721783 6.05 -0.9567085809127245
    endloop
  endfacet
  facet normal 0 1 0
    outer loop
      vertex -12.303674030756362 6.05 -1.3889255825490054
      vertex -8.146325969243637 6.05 -1.3889255825490054
      vertex -8.45723304703363 6.05 -1.7677669529663689
    endloop
  endfacet
  facet normal 0 1 0
    outer loop
      vertex -12.534698831278217 6.05 -0.9567085809127245
      vertex -7.915301168721783 6.05 -0.9567085809127245
      vertex -8.146325969243637 6.05 -1.3889255825490054
    endloop
  endfacet
  facet normal 0 1 0
    outer loop
      vertex -12.676963201008075 6.05 -0.4877258050403206
      vertex -7.773036798991924 6.05 -0.4877258050403206
      vertex -7.915301168721783 6.05 -0.9567085809127245
    endloop
  endfacet
  facet normal 0.4713967368259986 0 -0.8819212643483546
    outer loop
      vertex -8.836074417450995 6.05 -2.078674030756363
      vertex -8.836074417450995 5.55 -2.078674030756363
      vertex -9.268291419087275 5.55 -2.309698831278217
    endloop
  endfacet
  facet normal 0.4713967368259986 0 -0.8819212643483546
    outer loop
      vertex -9.268291419087275 6.05 -2.309698831278217
      vertex -8.836074417450995 6.05 -2.078674030756363
      vertex -9.268291419087275 5.55 -2.309698831278217
    endloop
  endfacet
  facet normal 0.6343932841636449 0 -0.7730104533627375
    outer loop
      vertex -8.45723304703363 6.05 -1.7677669529663689
      vertex -8.45723304703363 5.55 -1.7677669529663689
      vertex -8.836074417450995 5.55 -2.078674030756363
    endloop
  endfacet
  facet normal 0.6343932841636449 0 -0.7730104533627375
    outer loop
      vertex -8.836074417450995 6.05 -2.078674030756363
      vertex -8.45723304703363 6.05 -1.7677669529663689
      vertex -8.836074417450995 5.55 -2.078674030756363
    endloop
  endfacet
  facet normal 0.773010453362738 0 -0.6343932841636443
    outer loop
      vertex -8.45723304703363 6.05 -1.7677669529663689
      vertex -8.146325969243637 5.55 -1.3889255825490054
      vertex -8.45723304703363 5.55 -1.7677669529663689
    endloop
  endfacet
  facet normal 0.8819212643483542 0 -0.4713967368259992
    outer loop
      vertex -8.146325969243637 6.05 -1.3889255825490054
      vertex -7.915301168721783 5.55 -0.9567085809127245
      vertex -8.146325969243637 5.55 -1.3889255825490054
    endloop
  endfacet
  facet normal 0.773010453362738 0 -0.6343932841636443
    outer loop
      vertex -8.45723304703363 6.05 -1.7677669529663689
      vertex -8.146325969243637 6.05 -1.3889255825490054
      vertex -8.146325969243637 5.55 -1.3889255825490054
    endloop
  endfacet
  facet normal 0.956940335732209 0 -0.2902846772544621
    outer loop
      vertex -7.915301168721783 6.05 -0.9567085809127245
      vertex -7.773036798991924 5.55 -0.4877258050403206
      vertex -7.915301168721783 5.55 -0.9567085809127245
    endloop
  endfacet
  facet normal 0.8819212643483542 0 -0.4713967368259992
    outer loop
      vertex -8.146325969243637 6.05 -1.3889255825490054
      vertex -7.915301168721783 6.05 -0.9567085809127245
      vertex -7.915301168721783 5.55 -0.9567085809127245
    endloop
  endfacet
  facet normal 0.956940335732209 0 -0.2902846772544621
    outer loop
      vertex -7.915301168721783 6.05 -0.9567085809127245
      vertex -7.773036798991924 6.05 -0.4877258050403206
      vertex -7.773036798991924 5.55 -0.4877258050403206
    endloop
  endfacet
  facet normal 0 1 0
    outer loop
      vertex -12.725 6.05 0
      vertex -12.676963201008075 6.05 0.4877258050403206
      vertex -7.725 6.05 0
    endloop
  endfacet
  facet normal 0 1 0
    outer loop
      vertex -12.725 6.05 0
      vertex -7.725 6.05 0
      vertex -7.773036798991924 6.05 -0.4877258050403206
    endloop
  endfacet
  facet normal 0 1 0
    outer loop
      vertex -12.676963201008075 6.05 0.4877258050403206
      vertex -7.773036798991924 6.05 0.4877258050403206
      vertex -7.725 6.05 0
    endloop
  endfacet
  facet normal 0 1 0
    outer loop
      vertex -12.676963201008075 6.05 0.4877258050403206
      vertex -12.534698831278217 6.05 0.9567085809127245
      vertex -7.773036798991924 6.05 0.4877258050403206
    endloop
  endfacet
  facet normal 0 1 0
    outer loop
      vertex -12.534698831278217 6.05 0.9567085809127245
      vertex -12.303674030756362 6.05 1.3889255825490054
      vertex -7.915301168721783 6.05 0.9567085809127245
    endloop
  endfacet
  facet normal 0 1 0
    outer loop
      vertex -12.303674030756362 6.05 1.3889255825490054
      vertex -11.992766952966369 6.05 1.7677669529663689
      vertex -8.146325969243637 6.05 1.3889255825490054
    endloop
  endfacet
  facet normal 0 1 0
    outer loop
      vertex -12.534698831278217 6.05 0.9567085809127245
      vertex -7.915301168721783 6.05 0.9567085809127245
      vertex -7.773036798991924 6.05 0.4877258050403206
    endloop
  endfacet
  facet normal 0 1 0
    outer loop
      vertex -12.303674030756362 6.05 1.3889255825490054
      vertex -8.146325969243637 6.05 1.3889255825490054
      vertex -7.915301168721783 6.05 0.9567085809127245
    endloop
  endfacet
  facet normal 0 1 0
    outer loop
      vertex -11.992766952966369 6.05 1.7677669529663689
      vertex -8.45723304703363 6.05 1.7677669529663689
      vertex -8.146325969243637 6.05 1.3889255825490054
    endloop
  endfacet
  facet normal 0.9951847266721968 0 -0.0980171403295607
    outer loop
      vertex -7.773036798991924 6.05 -0.4877258050403206
      vertex -7.725 5.55 0
      vertex -7.773036798991924 5.55 -0.4877258050403206
    endloop
  endfacet
  facet normal 0.9951847266721968 0 -0.0980171403295607
    outer loop
      vertex -7.773036798991924 6.05 -0.4877258050403206
      vertex -7.725 6.05 0
      vertex -7.725 5.55 0
    endloop
  endfacet
  facet normal 0.9951847266721968 0 0.0980171403295607
    outer loop
      vertex -7.725 6.05 0
      vertex -7.773036798991924 5.55 0.4877258050403206
      vertex -7.725 5.55 0
    endloop
  endfacet
  facet normal 0.9951847266721968 0 0.0980171403295607
    outer loop
      vertex -7.725 6.05 0
      vertex -7.773036798991924 6.05 0.4877258050403206
      vertex -7.773036798991924 5.55 0.4877258050403206
    endloop
  endfacet
  facet normal 0.773010453362738 0 0.6343932841636443
    outer loop
      vertex -8.45723304703363 6.05 1.7677669529663689
      vertex -8.45723304703363 5.55 1.7677669529663689
      vertex -8.146325969243637 6.05 1.3889255825490054
    endloop
  endfacet
  facet normal 0.8819212643483542 0 0.4713967368259992
    outer loop
      vertex -7.915301168721783 6.05 0.9567085809127245
      vertex -8.146325969243637 5.55 1.3889255825490054
      vertex -7.915301168721783 5.55 0.9567085809127245
    endloop
  endfacet
  facet normal 0.956940335732209 0 0.2902846772544621
    outer loop
      vertex -7.773036798991924 6.05 0.4877258050403206
      vertex -7.915301168721783 6.05 0.9567085809127245
      vertex -7.915301168721783 5.55 0.9567085809127245
    endloop
  endfacet
  facet normal 0.956940335732209 0 0.2902846772544621
    outer loop
      vertex -7.773036798991924 6.05 0.4877258050403206
      vertex -7.915301168721783 5.55 0.9567085809127245
      vertex -7.773036798991924 5.55 0.4877258050403206
    endloop
  endfacet
  facet normal 0.773010453362738 0 0.6343932841636443
    outer loop
      vertex -8.146325969243637 6.05 1.3889255825490054
      vertex -8.45723304703363 5.55 1.7677669529663689
      vertex -8.146325969243637 5.55 1.3889255825490054
    endloop
  endfacet
  facet normal 0.8819212643483542 0 0.4713967368259992
    outer loop
      vertex -7.915301168721783 6.05 0.9567085809127245
      vertex -8.146325969243637 6.05 1.3889255825490054
      vertex -8.146325969243637 5.55 1.3889255825490054
    endloop
  endfacet
  facet normal -0.6343932841636449 0 0.7730104533627375
    outer loop
      vertex -11.992766952966369 6.05 1.7677669529663689
      vertex -11.992766952966369 5.55 1.7677669529663689
      vertex -11.613925582549005 5.55 2.078674030756363
    endloop
  endfacet
  facet normal -0.6343932841636449 0 0.7730104533627375
    outer loop
      vertex -11.992766952966369 6.05 1.7677669529663689
      vertex -11.613925582549005 5.55 2.078674030756363
      vertex -11.613925582549005 6.05 2.078674030756363
    endloop
  endfacet
  facet normal -0.4713967368259986 0 0.8819212643483546
    outer loop
      vertex -11.613925582549005 6.05 2.078674030756363
      vertex -11.613925582549005 5.55 2.078674030756363
      vertex -11.181708580912725 5.55 2.309698831278217
    endloop
  endfacet
  facet normal -0.4713967368259986 0 0.8819212643483546
    outer loop
      vertex -11.613925582549005 6.05 2.078674030756363
      vertex -11.181708580912725 5.55 2.309698831278217
      vertex -11.181708580912725 6.05 2.309698831278217
    endloop
  endfacet
  facet normal -0.2902846772544615 0 0.9569403357322092
    outer loop
      vertex -11.181708580912725 6.05 2.309698831278217
      vertex -11.181708580912725 5.55 2.309698831278217
      vertex -10.71272580504032 5.55 2.451963201008076
    endloop
  endfacet
  facet normal 0 1 0
    outer loop
      vertex -11.992766952966369 6.05 1.7677669529663689
      vertex -11.613925582549005 6.05 2.078674030756363
      vertex -8.45723304703363 6.05 1.7677669529663689
    endloop
  endfacet
  facet normal 0 1 0
    outer loop
      vertex -11.613925582549005 6.05 2.078674030756363
      vertex -11.181708580912725 6.05 2.309698831278217
      vertex -8.836074417450995 6.05 2.078674030756363
    endloop
  endfacet
  facet normal 0 1 0
    outer loop
      vertex -11.181708580912725 6.05 2.309698831278217
      vertex -10.71272580504032 6.05 2.451963201008076
      vertex -9.268291419087275 6.05 2.309698831278217
    endloop
  endfacet
  facet normal -0.2902846772544615 0 0.9569403357322092
    outer loop
      vertex -11.181708580912725 6.05 2.309698831278217
      vertex -10.71272580504032 5.55 2.451963201008076
      vertex -10.71272580504032 6.05 2.451963201008076
    endloop
  endfacet
  facet normal -0.09801714032956084 0 0.9951847266721968
    outer loop
      vertex -10.71272580504032 6.05 2.451963201008076
      vertex -10.71272580504032 5.55 2.451963201008076
      vertex -10.225 5.55 2.5
    endloop
  endfacet
  facet normal -0.09801714032956084 0 0.9951847266721968
    outer loop
      vertex -10.71272580504032 6.05 2.451963201008076
      vertex -10.225 5.55 2.5
      vertex -10.225 6.05 2.5
    endloop
  endfacet
  facet normal 0 1 0
    outer loop
      vertex -10.71272580504032 6.05 2.451963201008076
      vertex -10.225 6.05 2.5
      vertex -9.73727419495968 6.05 2.451963201008076
    endloop
  endfacet
  facet normal 0 1 0
    outer loop
      vertex -11.181708580912725 6.05 2.309698831278217
      vertex -9.268291419087275 6.05 2.309698831278217
      vertex -8.836074417450995 6.05 2.078674030756363
    endloop
  endfacet
  facet normal 0 1 0
    outer loop
      vertex -8.45723304703363 6.05 1.7677669529663689
      vertex -11.613925582549005 6.05 2.078674030756363
      vertex -8.836074417450995 6.05 2.078674030756363
    endloop
  endfacet
  facet normal 0.2902846772544615 0 0.9569403357322092
    outer loop
      vertex -9.268291419087275 6.05 2.309698831278217
      vertex -9.73727419495968 6.05 2.451963201008076
      vertex -9.268291419087275 5.55 2.309698831278217
    endloop
  endfacet
  facet normal 0.09801714032956084 0 0.9951847266721968
    outer loop
      vertex -10.225 6.05 2.5
      vertex -10.225 5.55 2.5
      vertex -9.73727419495968 5.55 2.451963201008076
    endloop
  endfacet
  facet normal 0.09801714032956084 0 0.9951847266721968
    outer loop
      vertex -10.225 6.05 2.5
      vertex -9.73727419495968 5.55 2.451963201008076
      vertex -9.73727419495968 6.05 2.451963201008076
    endloop
  endfacet
  facet normal 0 1 0
    outer loop
      vertex -10.71272580504032 6.05 2.451963201008076
      vertex -9.73727419495968 6.05 2.451963201008076
      vertex -9.268291419087275 6.05 2.309698831278217
    endloop
  endfacet
  facet normal 0.2902846772544615 0 0.9569403357322092
    outer loop
      vertex -9.73727419495968 6.05 2.451963201008076
      vertex -9.73727419495968 5.55 2.451963201008076
      vertex -9.268291419087275 5.55 2.309698831278217
    endloop
  endfacet
  facet normal 0.4713967368259986 0 0.8819212643483546
    outer loop
      vertex -9.268291419087275 6.05 2.309698831278217
      vertex -9.268291419087275 5.55 2.309698831278217
      vertex -8.836074417450995 5.55 2.078674030756363
    endloop
  endfacet
  facet normal 0.4713967368259986 0 0.8819212643483546
    outer loop
      vertex -9.268291419087275 6.05 2.309698831278217
      vertex -8.836074417450995 5.55 2.078674030756363
      vertex -8.836074417450995 6.05 2.078674030756363
    endloop
  endfacet
  facet normal 0.6343932841636449 0 0.7730104533627375
    outer loop
      vertex -8.836074417450995 6.05 2.078674030756363
      vertex -8.836074417450995 5.55 2.078674030756363
      vertex -8.45723304703363 5.55 1.7677669529663689
    endloop
  endfacet
  facet normal 0.6343932841636449 0 0.7730104533627375
    outer loop
      vertex -8.45723304703363 6.05 1.7677669529663689
      vertex -8.836074417450995 6.05 2.078674030756363
      vertex -8.45723304703363 5.55 1.7677669529663689
    endloop
  endfacet
  facet normal -0.08180110545373953 0 -0.9966486738798914
    outer loop
      vertex 8.772674840741939 6.05 -2.9423558412096913
      vertex 9.475 6.05 -3
      vertex 8.772674840741939 5.55 -2.9423558412096913
    endloop
  endfacet
  facet normal -0.08180110545373953 0 -0.9966486738798914
    outer loop
      vertex 9.475 6.05 -3
      vertex 9.475 5.55 -3
      vertex 8.772674840741939 5.55 -2.9423558412096913
    endloop
  endfacet
  facet normal 0.08180110545373953 0 -0.9966486738798914
    outer loop
      vertex 10.17732515925806 6.05 -2.9423558412096913
      vertex 10.17732515925806 5.55 -2.9423558412096913
      vertex 9.475 5.55 -3
    endloop
  endfacet
  facet normal 0.08180110545373953 0 -0.9966486738798914
    outer loop
      vertex 9.475 6.05 -3
      vertex 10.17732515925806 6.05 -2.9423558412096913
      vertex 9.475 5.55 -3
    endloop
  endfacet
  facet normal -0.5645087507382188 0 -0.8254270835997422
    outer loop
      vertex 7.474947161129432 6.05 -2.4944088369076356
      vertex 7.474947161129432 5.55 -2.4944088369076356
      vertex 6.929415587728428 5.55 -2.121320343559643
    endloop
  endfacet
  facet normal -0.7124958724334742 0 -0.7016763012709367
    outer loop
      vertex 6.481709395710837 6.05 -1.6667106990588065
      vertex 6.929415587728428 5.55 -2.121320343559643
      vertex 6.481709395710837 5.55 -1.6667106990588065
    endloop
  endfacet
  facet normal -0.7124958724334742 0 -0.7016763012709367
    outer loop
      vertex 6.929415587728428 6.05 -2.121320343559643
      vertex 6.929415587728428 5.55 -2.121320343559643
      vertex 6.481709395710837 6.05 -1.6667106990588065
    endloop
  endfacet
  facet normal -0.5645087507382188 0 -0.8254270835997422
    outer loop
      vertex 6.929415587728428 6.05 -2.121320343559643
      vertex 7.474947161129432 6.05 -2.4944088369076356
      vertex 6.929415587728428 5.55 -2.121320343559643
    endloop
  endfacet
  facet normal -0.8417308319230058 0 -0.5398974037631635
    outer loop
      vertex 6.149033682959368 6.05 -1.1480502970952693
      vertex 6.481709395710837 5.55 -1.6667106990588065
      vertex 6.149033682959368 5.55 -1.1480502970952693
    endloop
  endfacet
  facet normal -0.8417308319230058 0 -0.5398974037631635
    outer loop
      vertex 6.149033682959368 6.05 -1.1480502970952693
      vertex 6.481709395710837 6.05 -1.6667106990588065
      vertex 6.481709395710837 5.55 -1.6667106990588065
    endloop
  endfacet
  facet normal -0.9396787923091502 0 -0.34205813436376115
    outer loop
      vertex 5.9441729905483704 6.05 -0.5852709660483848
      vertex 6.149033682959368 5.55 -1.1480502970952693
      vertex 5.9441729905483704 5.55 -0.5852709660483848
    endloop
  endfacet
  facet normal -0.9396787923091502 0 -0.34205813436376115
    outer loop
      vertex 5.9441729905483704 6.05 -0.5852709660483848
      vertex 6.149033682959368 6.05 -1.1480502970952693
      vertex 6.149033682959368 5.55 -1.1480502970952693
    endloop
  endfacet
  facet normal 0 1 0
    outer loop
      vertex 5.9441729905483704 6.05 -0.5852709660483848
      vertex 5.875 6.05 0
      vertex 6.149033682959368 6.05 -1.1480502970952693
    endloop
  endfacet
  facet normal 0 1 0
    outer loop
      vertex 6.929415587728428 6.05 -2.121320343559643
      vertex 6.481709395710837 6.05 -1.6667106990588065
      vertex 6.481709395710837 6.05 1.6667106990588065
    endloop
  endfacet
  facet normal 0 1 0
    outer loop
      vertex 6.929415587728428 6.05 -2.121320343559643
      vertex 6.929415587728428 6.05 2.121320343559643
      vertex 7.474947161129432 6.05 -2.4944088369076356
    endloop
  endfacet
  facet normal -0.9930879305762258 0 -0.11737274872741761
    outer loop
      vertex 5.875 6.05 0
      vertex 5.9441729905483704 5.55 -0.5852709660483848
      vertex 5.875 5.55 0
    endloop
  endfacet
  facet normal -0.9930879305762258 0 -0.11737274872741761
    outer loop
      vertex 5.9441729905483704 6.05 -0.5852709660483848
      vertex 5.9441729905483704 5.55 -0.5852709660483848
      vertex 5.875 6.05 0
    endloop
  endfacet
  facet normal 0 1 0
    outer loop
      vertex 6.149033682959368 6.05 -1.1480502970952693
      vertex 6.149033682959368 6.05 1.1480502970952693
      vertex 6.481709395710837 6.05 -1.6667106990588065
    endloop
  endfacet
  facet normal 0 1 0
    outer loop
      vertex 6.149033682959368 6.05 -1.1480502970952693
      vertex 5.875 6.05 0
      vertex 5.9441729905483704 6.05 0.5852709660483848
    endloop
  endfacet
  facet normal -0.9930879305762258 0 0.11737274872741761
    outer loop
      vertex 5.9441729905483704 6.05 0.5852709660483848
      vertex 5.875 5.55 0
      vertex 5.9441729905483704 5.55 0.5852709660483848
    endloop
  endfacet
  facet normal -0.9930879305762258 0 0.11737274872741761
    outer loop
      vertex 5.875 6.05 0
      vertex 5.875 5.55 0
      vertex 5.9441729905483704 6.05 0.5852709660483848
    endloop
  endfacet
  facet normal 0 1 0
    outer loop
      vertex 6.149033682959368 6.05 -1.1480502970952693
      vertex 5.9441729905483704 6.05 0.5852709660483848
      vertex 6.149033682959368 6.05 1.1480502970952693
    endloop
  endfacet
  facet normal 0 1 0
    outer loop
      vertex 6.481709395710837 6.05 -1.6667106990588065
      vertex 6.149033682959368 6.05 1.1480502970952693
      vertex 6.481709395710837 6.05 1.6667106990588065
    endloop
  endfacet
  facet normal 0 1 0
    outer loop
      vertex 6.929415587728428 6.05 -2.121320343559643
      vertex 6.481709395710837 6.05 1.6667106990588065
      vertex 6.929415587728428 6.05 2.121320343559643
    endloop
  endfacet
  facet normal -0.9396787923091502 0 0.34205813436376115
    outer loop
      vertex 6.149033682959368 6.05 1.1480502970952693
      vertex 5.9441729905483704 5.55 0.5852709660483848
      vertex 6.149033682959368 5.55 1.1480502970952693
    endloop
  endfacet
  facet normal -0.9396787923091502 0 0.34205813436376115
    outer loop
      vertex 5.9441729905483704 6.05 0.5852709660483848
      vertex 5.9441729905483704 5.55 0.5852709660483848
      vertex 6.149033682959368 6.05 1.1480502970952693
    endloop
  endfacet
  facet normal -0.8417308319230058 0 0.5398974037631635
    outer loop
      vertex 6.481709395710837 6.05 1.6667106990588065
      vertex 6.149033682959368 5.55 1.1480502970952693
      vertex 6.481709395710837 5.55 1.6667106990588065
    endloop
  endfacet
  facet normal -0.8417308319230058 0 0.5398974037631635
    outer loop
      vertex 6.149033682959368 6.05 1.1480502970952693
      vertex 6.149033682959368 5.55 1.1480502970952693
      vertex 6.481709395710837 6.05 1.6667106990588065
    endloop
  endfacet
  facet normal 0 1 0
    outer loop
      vertex 6.929415587728428 6.05 2.121320343559643
      vertex 7.474947161129432 6.05 2.4944088369076356
      vertex 7.474947161129432 6.05 -2.4944088369076356
    endloop
  endfacet
  facet normal -0.7124958724334742 0 0.7016763012709367
    outer loop
      vertex 6.929415587728428 6.05 2.121320343559643
      vertex 6.481709395710837 5.55 1.6667106990588065
      vertex 6.929415587728428 5.55 2.121320343559643
    endloop
  endfacet
  facet normal -0.7124958724334742 0 0.7016763012709367
    outer loop
      vertex 6.481709395710837 6.05 1.6667106990588065
      vertex 6.481709395710837 5.55 1.6667106990588065
      vertex 6.929415587728428 6.05 2.121320343559643
    endloop
  endfacet
  facet normal -0.5645087507382188 0 0.8254270835997422
    outer loop
      vertex 6.929415587728428 6.05 2.121320343559643
      vertex 6.929415587728428 5.55 2.121320343559643
      vertex 7.474947161129432 5.55 2.4944088369076356
    endloop
  endfacet
  facet normal -0.5645087507382188 0 0.8254270835997422
    outer loop
      vertex 6.929415587728428 6.05 2.121320343559643
      vertex 7.474947161129432 5.55 2.4944088369076356
      vertex 7.474947161129432 6.05 2.4944088369076356
    endloop
  endfacet
  facet normal -0.40688702120019393 0 -0.9134784901566281
    outer loop
      vertex 7.474947161129432 6.05 -2.4944088369076356
      vertex 8.097339643485677 6.05 -2.77163859753386
      vertex 7.474947161129432 5.55 -2.4944088369076356
    endloop
  endfacet
  facet normal -0.40688702120019393 0 -0.9134784901566281
    outer loop
      vertex 8.097339643485677 6.05 -2.77163859753386
      vertex 8.097339643485677 5.55 -2.77163859753386
      vertex 7.474947161129432 5.55 -2.4944088369076356
    endloop
  endfacet
  facet normal -0.24507959036342375 0 -0.9695029625469416
    outer loop
      vertex 8.772674840741939 6.05 -2.9423558412096913
      vertex 8.772674840741939 5.55 -2.9423558412096913
      vertex 8.097339643485677 5.55 -2.77163859753386
    endloop
  endfacet
  facet normal -0.24507959036342375 0 -0.9695029625469416
    outer loop
      vertex 8.772674840741939 6.05 -2.9423558412096913
      vertex 8.097339643485677 5.55 -2.77163859753386
      vertex 8.097339643485677 6.05 -2.77163859753386
    endloop
  endfacet
  facet normal 0 1 0
    outer loop
      vertex 7.474947161129432 6.05 -2.4944088369076356
      vertex 7.474947161129432 6.05 2.4944088369076356
      vertex 8.097339643485677 6.05 -2.77163859753386
    endloop
  endfacet
  facet normal 0 1 0
    outer loop
      vertex 8.772674840741939 6.05 -2.9423558412096913
      vertex 8.097339643485677 6.05 -2.77163859753386
      vertex 8.097339643485677 6.05 2.77163859753386
    endloop
  endfacet
  facet normal 0 1 0
    outer loop
      vertex 8.772674840741939 6.05 -2.9423558412096913
      vertex 8.772674840741939 6.05 2.9423558412096913
      vertex 9.475 6.05 -3
    endloop
  endfacet
  facet normal 0.24507959036342375 0 -0.9695029625469416
    outer loop
      vertex 10.17732515925806 6.05 -2.9423558412096913
      vertex 10.852660356514322 6.05 -2.77163859753386
      vertex 10.17732515925806 5.55 -2.9423558412096913
    endloop
  endfacet
  facet normal 0.24507959036342375 0 -0.9695029625469416
    outer loop
      vertex 10.852660356514322 6.05 -2.77163859753386
      vertex 10.852660356514322 5.55 -2.77163859753386
      vertex 10.17732515925806 5.55 -2.9423558412096913
    endloop
  endfacet
  facet normal 0 1 0
    outer loop
      vertex 9.475 6.05 -3
      vertex 10.17732515925806 6.05 2.9423558412096913
      vertex 10.17732515925806 6.05 -2.9423558412096913
    endloop
  endfacet
  facet normal 0 1 0
    outer loop
      vertex 10.17732515925806 6.05 -2.9423558412096913
      vertex 10.852660356514322 6.05 2.77163859753386
      vertex 10.852660356514322 6.05 -2.77163859753386
    endloop
  endfacet
  facet normal 0 1 0
    outer loop
      vertex 8.097339643485677 6.05 -2.77163859753386
      vertex 7.474947161129432 6.05 2.4944088369076356
      vertex 8.097339643485677 6.05 2.77163859753386
    endloop
  endfacet
  facet normal 0 1 0
    outer loop
      vertex 8.772674840741939 6.05 -2.9423558412096913
      vertex 8.097339643485677 6.05 2.77163859753386
      vertex 8.772674840741939 6.05 2.9423558412096913
    endloop
  endfacet
  facet normal 0 1 0
    outer loop
      vertex 9.475 6.05 -3
      vertex 8.772674840741939 6.05 2.9423558412096913
      vertex 9.475 6.05 3
    endloop
  endfacet
  facet normal 0 1 0
    outer loop
      vertex 9.475 6.05 -3
      vertex 9.475 6.05 3
      vertex 10.17732515925806 6.05 2.9423558412096913
    endloop
  endfacet
  facet normal 0 1 0
    outer loop
      vertex 10.17732515925806 6.05 -2.9423558412096913
      vertex 10.17732515925806 6.05 2.9423558412096913
      vertex 10.852660356514322 6.05 2.77163859753386
    endloop
  endfacet
  facet normal 0.40688702120019393 0 -0.9134784901566281
    outer loop
      vertex 11.475052838870567 6.05 -2.4944088369076356
      vertex 11.475052838870567 5.55 -2.4944088369076356
      vertex 10.852660356514322 5.55 -2.77163859753386
    endloop
  endfacet
  facet normal 0.40688702120019393 0 -0.9134784901566281
    outer loop
      vertex 10.852660356514322 6.05 -2.77163859753386
      vertex 11.475052838870567 6.05 -2.4944088369076356
      vertex 10.852660356514322 5.55 -2.77163859753386
    endloop
  endfacet
  facet normal 0.5645087507382188 0 -0.8254270835997422
    outer loop
      vertex 11.475052838870567 6.05 -2.4944088369076356
      vertex 12.020584412271571 6.05 -2.121320343559643
      vertex 11.475052838870567 5.55 -2.4944088369076356
    endloop
  endfacet
  facet normal 0.5645087507382188 0 -0.8254270835997422
    outer loop
      vertex 12.020584412271571 6.05 -2.121320343559643
      vertex 12.020584412271571 5.55 -2.121320343559643
      vertex 11.475052838870567 5.55 -2.4944088369076356
    endloop
  endfacet
  facet normal 0.7124958724334742 0 -0.7016763012709367
    outer loop
      vertex 12.020584412271571 6.05 -2.121320343559643
      vertex 12.468290604289162 5.55 -1.6667106990588065
      vertex 12.020584412271571 5.55 -2.121320343559643
    endloop
  endfacet
  facet normal 0.7124958724334742 0 -0.7016763012709367
    outer loop
      vertex 12.020584412271571 6.05 -2.121320343559643
      vertex 12.468290604289162 6.05 -1.6667106990588065
      vertex 12.468290604289162 5.55 -1.6667106990588065
    endloop
  endfacet
  facet normal 0 1 0
    outer loop
      vertex 10.852660356514322 6.05 -2.77163859753386
      vertex 11.475052838870567 6.05 2.4944088369076356
      vertex 11.475052838870567 6.05 -2.4944088369076356
    endloop
  endfacet
  facet normal 0 1 0
    outer loop
      vertex 11.475052838870567 6.05 -2.4944088369076356
      vertex 12.020584412271571 6.05 2.121320343559643
      vertex 12.020584412271571 6.05 -2.121320343559643
    endloop
  endfacet
  facet normal 0.8417308319230058 0 -0.5398974037631635
    outer loop
      vertex 12.468290604289162 6.05 -1.6667106990588065
      vertex 12.800966317040631 5.55 -1.1480502970952693
      vertex 12.468290604289162 5.55 -1.6667106990588065
    endloop
  endfacet
  facet normal 0.8417308319230058 0 -0.5398974037631635
    outer loop
      vertex 12.468290604289162 6.05 -1.6667106990588065
      vertex 12.800966317040631 6.05 -1.1480502970952693
      vertex 12.800966317040631 5.55 -1.1480502970952693
    endloop
  endfacet
  facet normal 0 1 0
    outer loop
      vertex 12.020584412271571 6.05 -2.121320343559643
      vertex 12.468290604289162 6.05 1.6667106990588065
      vertex 12.468290604289162 6.05 -1.6667106990588065
    endloop
  endfacet
  facet normal 0.9396787923091502 0 -0.34205813436376115
    outer loop
      vertex 12.800966317040631 6.05 -1.1480502970952693
      vertex 13.005827009451629 5.55 -0.5852709660483848
      vertex 12.800966317040631 5.55 -1.1480502970952693
    endloop
  endfacet
  facet normal 0.9396787923091502 0 -0.34205813436376115
    outer loop
      vertex 12.800966317040631 6.05 -1.1480502970952693
      vertex 13.005827009451629 6.05 -0.5852709660483848
      vertex 13.005827009451629 5.55 -0.5852709660483848
    endloop
  endfacet
  facet normal 0 1 0
    outer loop
      vertex 12.800966317040631 6.05 -1.1480502970952693
      vertex 13.075 6.05 0
      vertex 13.005827009451629 6.05 -0.5852709660483848
    endloop
  endfacet
  facet normal 0 1 0
    outer loop
      vertex 12.468290604289162 6.05 -1.6667106990588065
      vertex 12.800966317040631 6.05 1.1480502970952693
      vertex 12.800966317040631 6.05 -1.1480502970952693
    endloop
  endfacet
  facet normal 0 1 0
    outer loop
      vertex 12.020584412271571 6.05 -2.121320343559643
      vertex 12.020584412271571 6.05 2.121320343559643
      vertex 12.468290604289162 6.05 1.6667106990588065
    endloop
  endfacet
  facet normal 0 1 0
    outer loop
      vertex 12.800966317040631 6.05 -1.1480502970952693
      vertex 12.800966317040631 6.05 1.1480502970952693
      vertex 13.005827009451629 6.05 0.5852709660483848
    endloop
  endfacet
  facet normal 0 1 0
    outer loop
      vertex 12.468290604289162 6.05 -1.6667106990588065
      vertex 12.468290604289162 6.05 1.6667106990588065
      vertex 12.800966317040631 6.05 1.1480502970952693
    endloop
  endfacet
  facet normal 0 1 0
    outer loop
      vertex 10.852660356514322 6.05 -2.77163859753386
      vertex 10.852660356514322 6.05 2.77163859753386
      vertex 11.475052838870567 6.05 2.4944088369076356
    endloop
  endfacet
  facet normal 0 1 0
    outer loop
      vertex 11.475052838870567 6.05 -2.4944088369076356
      vertex 11.475052838870567 6.05 2.4944088369076356
      vertex 12.020584412271571 6.05 2.121320343559643
    endloop
  endfacet
  facet normal 0.9396787923091502 0 0.34205813436376115
    outer loop
      vertex 12.800966317040631 6.05 1.1480502970952693
      vertex 12.800966317040631 5.55 1.1480502970952693
      vertex 13.005827009451629 6.05 0.5852709660483848
    endloop
  endfacet
  facet normal 0.8417308319230058 0 0.5398974037631635
    outer loop
      vertex 12.800966317040631 6.05 1.1480502970952693
      vertex 12.468290604289162 5.55 1.6667106990588065
      vertex 12.800966317040631 5.55 1.1480502970952693
    endloop
  endfacet
  facet normal 0.8417308319230058 0 0.5398974037631635
    outer loop
      vertex 12.800966317040631 6.05 1.1480502970952693
      vertex 12.468290604289162 6.05 1.6667106990588065
      vertex 12.468290604289162 5.55 1.6667106990588065
    endloop
  endfacet
  facet normal 0.9930879305762258 0 -0.11737274872741761
    outer loop
      vertex 13.005827009451629 6.05 -0.5852709660483848
      vertex 13.075 5.55 0
      vertex 13.005827009451629 5.55 -0.5852709660483848
    endloop
  endfacet
  facet normal 0.9930879305762258 0 -0.11737274872741761
    outer loop
      vertex 13.005827009451629 6.05 -0.5852709660483848
      vertex 13.075 6.05 0
      vertex 13.075 5.55 0
    endloop
  endfacet
  facet normal 0 1 0
    outer loop
      vertex 12.800966317040631 6.05 -1.1480502970952693
      vertex 13.005827009451629 6.05 0.5852709660483848
      vertex 13.075 6.05 0
    endloop
  endfacet
  facet normal 0.9930879305762258 0 0.11737274872741761
    outer loop
      vertex 13.075 6.05 0
      vertex 13.005827009451629 5.55 0.5852709660483848
      vertex 13.075 5.55 0
    endloop
  endfacet
  facet normal 0.9930879305762258 0 0.11737274872741761
    outer loop
      vertex 13.075 6.05 0
      vertex 13.005827009451629 6.05 0.5852709660483848
      vertex 13.005827009451629 5.55 0.5852709660483848
    endloop
  endfacet
  facet normal 0.9396787923091502 0 0.34205813436376115
    outer loop
      vertex 13.005827009451629 6.05 0.5852709660483848
      vertex 12.800966317040631 5.55 1.1480502970952693
      vertex 13.005827009451629 5.55 0.5852709660483848
    endloop
  endfacet
  facet normal -0.40688702120019393 0 0.9134784901566281
    outer loop
      vertex 7.474947161129432 6.05 2.4944088369076356
      vertex 7.474947161129432 5.55 2.4944088369076356
      vertex 8.097339643485677 5.55 2.77163859753386
    endloop
  endfacet
  facet normal -0.40688702120019393 0 0.9134784901566281
    outer loop
      vertex 7.474947161129432 6.05 2.4944088369076356
      vertex 8.097339643485677 5.55 2.77163859753386
      vertex 8.097339643485677 6.05 2.77163859753386
    endloop
  endfacet
  facet normal -0.24507959036342375 0 0.9695029625469416
    outer loop
      vertex 8.097339643485677 6.05 2.77163859753386
      vertex 8.097339643485677 5.55 2.77163859753386
      vertex 8.772674840741939 5.55 2.9423558412096913
    endloop
  endfacet
  facet normal -0.24507959036342375 0 0.9695029625469416
    outer loop
      vertex 8.097339643485677 6.05 2.77163859753386
      vertex 8.772674840741939 5.55 2.9423558412096913
      vertex 8.772674840741939 6.05 2.9423558412096913
    endloop
  endfacet
  facet normal -0.08180110545373953 0 0.9966486738798914
    outer loop
      vertex 8.772674840741939 6.05 2.9423558412096913
      vertex 8.772674840741939 5.55 2.9423558412096913
      vertex 9.475 5.55 3
    endloop
  endfacet
  facet normal -0.08180110545373953 0 0.9966486738798914
    outer loop
      vertex 8.772674840741939 6.05 2.9423558412096913
      vertex 9.475 5.55 3
      vertex 9.475 6.05 3
    endloop
  endfacet
  facet normal 0.08180110545373953 0 0.9966486738798914
    outer loop
      vertex 9.475 6.05 3
      vertex 9.475 5.55 3
      vertex 10.17732515925806 5.55 2.9423558412096913
    endloop
  endfacet
  facet normal 0.08180110545373953 0 0.9966486738798914
    outer loop
      vertex 10.17732515925806 6.05 2.9423558412096913
      vertex 9.475 6.05 3
      vertex 10.17732515925806 5.55 2.9423558412096913
    endloop
  endfacet
  facet normal 0.24507959036342375 0 0.9695029625469416
    outer loop
      vertex 10.17732515925806 6.05 2.9423558412096913
      vertex 10.17732515925806 5.55 2.9423558412096913
      vertex 10.852660356514322 5.55 2.77163859753386
    endloop
  endfacet
  facet normal 0.24507959036342375 0 0.9695029625469416
    outer loop
      vertex 10.17732515925806 6.05 2.9423558412096913
      vertex 10.852660356514322 5.55 2.77163859753386
      vertex 10.852660356514322 6.05 2.77163859753386
    endloop
  endfacet
  facet normal 0.5645087507382188 0 0.8254270835997422
    outer loop
      vertex 11.475052838870567 6.05 2.4944088369076356
      vertex 11.475052838870567 5.55 2.4944088369076356
      vertex 12.020584412271571 5.55 2.121320343559643
    endloop
  endfacet
  facet normal 0.5645087507382188 0 0.8254270835997422
    outer loop
      vertex 11.475052838870567 6.05 2.4944088369076356
      vertex 12.020584412271571 5.55 2.121320343559643
      vertex 12.020584412271571 6.05 2.121320343559643
    endloop
  endfacet
  facet normal 0.40688702120019393 0 0.9134784901566281
    outer loop
      vertex 10.852660356514322 6.05 2.77163859753386
      vertex 10.852660356514322 5.55 2.77163859753386
      vertex 11.475052838870567 5.55 2.4944088369076356
    endloop
  endfacet
  facet normal 0.40688702120019393 0 0.9134784901566281
    outer loop
      vertex 10.852660356514322 6.05 2.77163859753386
      vertex 11.475052838870567 5.55 2.4944088369076356
      vertex 11.475052838870567 6.05 2.4944088369076356
    endloop
  endfacet
  facet normal 0.7124958724334742 0 0.7016763012709367
    outer loop
      vertex 12.468290604289162 6.05 1.6667106990588065
      vertex 12.020584412271571 5.55 2.121320343559643
      vertex 12.468290604289162 5.55 1.6667106990588065
    endloop
  endfacet
  facet normal 0.7124958724334742 0 0.7016763012709367
    outer loop
      vertex 12.468290604289162 6.05 1.6667106990588065
      vertex 12.020584412271571 6.05 2.121320343559643
      vertex 12.020584412271571 5.55 2.121320343559643
    endloop
  endfacet
  facet normal -1 0 3.036507417778207e-16
    outer loop
      vertex -14.725 -4.749999999999999 -12.374999999999998
      vertex -14.724999999999998 -3.5499999999999994 -6.525
      vertex -14.725 -3.5499999999999994 -12.374999999999998
    endloop
  endfacet
  facet normal -1 2.1438789441037505e-15 -1.3611929803833328e-16
    outer loop
      vertex -14.725 -4.749999999999999 -12.374999999999998
      vertex -14.725 -3.55 6.525
      vertex -14.724999999999998 -3.5499999999999994 -6.525
    endloop
  endfacet
  facet normal 0 0 -1
    outer loop
      vertex -14.725 -4.749999999999999 -12.374999999999998
      vertex -14.725 -3.5499999999999994 -12.374999999999998
      vertex 14.725 -3.5499999999999994 -12.374999999999998
    endloop
  endfacet
  facet normal 0 1 0
    outer loop
      vertex -14.725 -3.5499999999999994 -12.374999999999998
      vertex -14.724999999999998 -3.5499999999999994 -6.525
      vertex 14.725 -3.5499999999999994 -6.525
    endloop
  endfacet
  facet normal -1 0 0
    outer loop
      vertex -14.725 -4.749999999999999 -12.374999999999998
      vertex -14.725 -4.749999999999999 6.525
      vertex -14.725 -3.55 6.525
    endloop
  endfacet
  facet normal 0 -1 0
    outer loop
      vertex -14.725 -4.749999999999999 -12.374999999999998
      vertex 14.725 -4.749999999999999 6.525
      vertex -14.725 -4.749999999999999 6.525
    endloop
  endfacet
  facet normal 0 0 1
    outer loop
      vertex -14.725 -4.749999999999999 6.525
      vertex 14.725 -4.749999999999999 6.525
      vertex -14.725 -3.55 6.525
    endloop
  endfacet
  facet normal 0 -1 0
    outer loop
      vertex -14.725 -4.749999999999999 -12.374999999999998
      vertex 14.725 -4.749999999999999 -12.374999999999998
      vertex 14.725 -4.749999999999999 6.525
    endloop
  endfacet
  facet normal 0 0 -1
    outer loop
      vertex -14.725 -4.749999999999999 -12.374999999999998
      vertex 14.725 -3.5499999999999994 -12.374999999999998
      vertex 14.725 -4.749999999999999 -12.374999999999998
    endloop
  endfacet
  facet normal 0 1 0
    outer loop
      vertex -14.725 -3.5499999999999994 -12.374999999999998
      vertex 14.725 -3.5499999999999994 -6.525
      vertex 14.725 -3.5499999999999994 -12.374999999999998
    endloop
  endfacet
  facet normal 1 0 0
    outer loop
      vertex 14.725 -4.749999999999999 -12.374999999999998
      vertex 14.725 -3.5499999999999994 -12.374999999999998
      vertex 14.725 -4.749999999999999 6.525
    endloop
  endfacet
  facet normal 1 0 0
    outer loop
      vertex 14.725 -3.5499999999999994 -12.374999999999998
      vertex 14.725 -3.5499999999999994 -6.525
      vertex 14.725 -4.749999999999999 6.525
    endloop
  endfacet
  facet normal 0 0 1
    outer loop
      vertex 14.725 -4.749999999999999 6.525
      vertex 14.724999999999998 -3.5499999999999994 6.525
      vertex -14.725 -3.55 6.525
    endloop
  endfacet
  facet normal 1 1.4802973661668758e-15 1.3611929803833336e-16
    outer loop
      vertex 14.725 -3.5499999999999994 -6.525
      vertex 14.724999999999998 -3.5499999999999994 6.525
      vertex 14.725 -4.749999999999999 6.525
    endloop
  endfacet
  facet normal 0 0 -1
    outer loop
      vertex -7.225 -8.05 -11.525
      vertex -7.225 -4.75 -11.525
      vertex 2.875 -4.75 -11.525
    endloop
  endfacet
  facet normal -1 0 0
    outer loop
      vertex -7.225 -8.05 -11.525
      vertex -7.225 -4.75 -5.525
      vertex -7.225 -4.75 -11.525
    endloop
  endfacet
  facet normal 0 1 0
    outer loop
      vertex -7.225 -4.75 -11.525
      vertex -7.225 -4.75 -5.525
      vertex 2.875 -4.75 -11.525
    endloop
  endfacet
  facet normal 0 0 -1
    outer loop
      vertex -7.225 -8.05 -11.525
      vertex 2.875 -4.75 -11.525
      vertex 2.875 -8.05 -11.525
    endloop
  endfacet
  facet normal 0 -1 0
    outer loop
      vertex -7.225 -8.05 -11.525
      vertex 2.875 -8.05 -11.525
      vertex 2.875 -8.05 -5.525
    endloop
  endfacet
  facet normal -1 0 0
    outer loop
      vertex -7.225 -8.05 -11.525
      vertex -7.225 -8.05 -5.525
      vertex -7.225 -4.75 -5.525
    endloop
  endfacet
  facet normal 0 -1 0
    outer loop
      vertex -7.225 -8.05 -11.525
      vertex 2.875 -8.05 -5.525
      vertex -7.225 -8.05 -5.525
    endloop
  endfacet
  facet normal 0 0 1
    outer loop
      vertex -7.225 -8.05 -5.525
      vertex 2.875 -8.05 -5.525
      vertex -7.225 -4.75 -5.525
    endloop
  endfacet
  facet normal 0 0 1
    outer loop
      vertex -7.225 -4.75 -5.525
      vertex 2.875 -8.05 -5.525
      vertex 2.875 -4.75 -5.525
    endloop
  endfacet
  facet normal 0 1 0
    outer loop
      vertex -7.225 -4.75 -5.525
      vertex 2.875 -4.75 -5.525
      vertex 2.875 -4.75 -11.525
    endloop
  endfacet
  facet normal 1 0 0
    outer loop
      vertex 2.875 -8.05 -11.525
      vertex 2.875 -4.75 -11.525
      vertex 2.875 -8.05 -5.525
    endloop
  endfacet
  facet normal 1 0 0
    outer loop
      vertex 2.875 -4.75 -11.525
      vertex 2.875 -4.75 -5.525
      vertex 2.875 -8.05 -5.525
    endloop
  endfacet
endsolid OpenSCAD_Model
