solid OpenSCAD_Model
  facet normal 0 0 -1
    outer loop
      vertex -3.804226065180614 -1.2360679774997896 -30
      vertex -3.9125904029352228 -0.8316467632710374 -30
      vertex -3.804226065180614 1.2360679774997896 -30
    endloop
  endfacet
  facet normal 0 0 -1
    outer loop
      vertex -3.9125904029352228 -0.8316467632710374 -30
      vertex -3.978087581473093 -0.4181138530706139 -30
      vertex -3.9125904029352228 0.8316467632710374 -30
    endloop
  endfacet
  facet normal -0.9335804264972019 -0.35836794954530005 0
    outer loop
      vertex -3.6541818305704035 -1.6269465723032008 -30
      vertex -3.804226065180614 -1.2360679774997896 0
      vertex -3.804226065180614 -1.2360679774997896 -30
    endloop
  endfacet
  facet normal -0.9659258262890681 -0.2588190451025217 0
    outer loop
      vertex -3.804226065180614 -1.2360679774997896 -30
      vertex -3.9125904029352228 -0.8316467632710374 0
      vertex -3.9125904029352228 -0.8316467632710374 -30
    endloop
  endfacet
  facet normal -0.9876883405951378 -0.15643446504022993 0
    outer loop
      vertex -3.9125904029352228 -0.8316467632710374 -30
      vertex -3.978087581473093 -0.4181138530706139 0
      vertex -3.978087581473093 -0.4181138530706139 -30
    endloop
  endfacet
  facet normal -0.9986295347545738 -0.05233595624294428 0
    outer loop
      vertex -3.978087581473093 -0.4181138530706139 -30
      vertex -4 0 0
      vertex -4 0 -30
    endloop
  endfacet
  facet normal -0.5446390350150265 -0.8386705679454243 0
    outer loop
      vertex -2.3511410091698925 -3.23606797749979 -30
      vertex -2 -3.4641016151377544 -30
      vertex -2 -3.4641016151377544 0
    endloop
  endfacet
  facet normal -0.45399049973954697 -0.8910065241883678 0
    outer loop
      vertex -1.6269465723032008 -3.6541818305704035 -30
      vertex -1.6269465723032008 -3.6541818305704035 0
      vertex -2 -3.4641016151377544 -30
    endloop
  endfacet
  facet normal -0.35836794954530005 -0.9335804264972019 0
    outer loop
      vertex -1.6269465723032008 -3.6541818305704035 -30
      vertex -1.2360679774997896 -3.804226065180614 -30
      vertex -1.2360679774997896 -3.804226065180614 0
    endloop
  endfacet
  facet normal -0.2588190451025217 -0.9659258262890681 0
    outer loop
      vertex -1.2360679774997896 -3.804226065180614 -30
      vertex -0.8316467632710374 -3.9125904029352228 -30
      vertex -0.8316467632710374 -3.9125904029352228 0
    endloop
  endfacet
  facet normal -0.15643446504022993 -0.9876883405951378 0
    outer loop
      vertex -0.8316467632710374 -3.9125904029352228 -30
      vertex -0.4181138530706139 -3.978087581473093 -30
      vertex -0.4181138530706139 -3.978087581473093 0
    endloop
  endfacet
  facet normal -0.05233595624294428 -0.9986295347545738 0
    outer loop
      vertex -0.4181138530706139 -3.978087581473093 -30
      vertex 0 -4 -30
      vertex 0 -4 0
    endloop
  endfacet
  facet normal 0 0 -1
    outer loop
      vertex -3.6541818305704035 -1.6269465723032008 -30
      vertex -3.804226065180614 -1.2360679774997896 -30
      vertex -3.6541818305704035 1.6269465723032008 -30
    endloop
  endfacet
  facet normal 0 0 -1
    outer loop
      vertex -3.6541818305704035 -1.6269465723032008 -30
      vertex -3.4641016151377544 2 -30
      vertex -3.4641016151377544 -2 -30
    endloop
  endfacet
  facet normal 0 0 -1
    outer loop
      vertex -3.23606797749979 -2.3511410091698925 -30
      vertex -3.4641016151377544 -2 -30
      vertex -3.23606797749979 2.3511410091698925 -30
    endloop
  endfacet
  facet normal 0 0 -1
    outer loop
      vertex -3.23606797749979 -2.3511410091698925 -30
      vertex -2.972579301909577 2.676522425435433 -30
      vertex -2.972579301909577 -2.676522425435433 -30
    endloop
  endfacet
  facet normal 0 0 -1
    outer loop
      vertex -2.972579301909577 -2.676522425435433 -30
      vertex -2.676522425435433 2.972579301909577 -30
      vertex -2.676522425435433 -2.972579301909577 -30
    endloop
  endfacet
  facet normal 0 0 -1
    outer loop
      vertex -2.3511410091698925 -3.23606797749979 -30
      vertex -2.676522425435433 -2.972579301909577 -30
      vertex -2.3511410091698925 3.23606797749979 -30
    endloop
  endfacet
  facet normal 0 0 -1
    outer loop
      vertex -2.3511410091698925 -3.23606797749979 -30
      vertex -2 3.4641016151377544 -30
      vertex -2 -3.4641016151377544 -30
    endloop
  endfacet
  facet normal 0 0 -1
    outer loop
      vertex -1.6269465723032008 -3.6541818305704035 -30
      vertex -2 -3.4641016151377544 -30
      vertex -1.6269465723032008 3.6541818305704035 -30
    endloop
  endfacet
  facet normal 0 0 -1
    outer loop
      vertex -1.2360679774997896 -3.804226065180614 -30
      vertex -0.8316467632710374 3.9125904029352228 -30
      vertex -0.8316467632710374 -3.9125904029352228 -30
    endloop
  endfacet
  facet normal 0 0 -1
    outer loop
      vertex -1.6269465723032008 -3.6541818305704035 -30
      vertex -1.2360679774997896 3.804226065180614 -30
      vertex -1.2360679774997896 -3.804226065180614 -30
    endloop
  endfacet
  facet normal 0 0 -1
    outer loop
      vertex -0.8316467632710374 -3.9125904029352228 -30
      vertex -0.4181138530706139 3.978087581473093 -30
      vertex -0.4181138530706139 -3.978087581473093 -30
    endloop
  endfacet
  facet normal 0 0 -1
    outer loop
      vertex -0.4181138530706139 -3.978087581473093 -30
      vertex 0 4 -30
      vertex 0 -4 -30
    endloop
  endfacet
  facet normal -0.7771459614569708 -0.6293203910498374 0
    outer loop
      vertex -3.23606797749979 -2.3511410091698925 -30
      vertex -2.972579301909577 -2.676522425435433 -30
      vertex -3.23606797749979 -2.3511410091698925 0
    endloop
  endfacet
  facet normal -0.7071067811865476 -0.7071067811865476 0
    outer loop
      vertex -2.972579301909577 -2.676522425435433 -30
      vertex -2.676522425435433 -2.972579301909577 -30
      vertex -2.972579301909577 -2.676522425435433 0
    endloop
  endfacet
  facet normal -0.8386705679454243 -0.5446390350150265 0
    outer loop
      vertex -3.23606797749979 -2.3511410091698925 -30
      vertex -3.4641016151377544 -2 0
      vertex -3.4641016151377544 -2 -30
    endloop
  endfacet
  facet normal -0.8910065241883678 -0.45399049973954697 0
    outer loop
      vertex -3.6541818305704035 -1.6269465723032008 -30
      vertex -3.4641016151377544 -2 -30
      vertex -3.6541818305704035 -1.6269465723032008 0
    endloop
  endfacet
  facet normal -0.6293203910498374 -0.7771459614569708 0
    outer loop
      vertex -2.3511410091698925 -3.23606797749979 -30
      vertex -2.3511410091698925 -3.23606797749979 0
      vertex -2.676522425435433 -2.972579301909577 -30
    endloop
  endfacet
  facet normal -0.9659258262890681 -0.2588190451025217 0
    outer loop
      vertex -3.804226065180614 -1.2360679774997896 -30
      vertex -3.804226065180614 -1.2360679774997896 0
      vertex -3.9125904029352228 -0.8316467632710374 0
    endloop
  endfacet
  facet normal -0.9876883405951378 -0.15643446504022993 0
    outer loop
      vertex -3.9125904029352228 -0.8316467632710374 -30
      vertex -3.9125904029352228 -0.8316467632710374 0
      vertex -3.978087581473093 -0.4181138530706139 0
    endloop
  endfacet
  facet normal -0.9986295347545738 -0.05233595624294428 0
    outer loop
      vertex -3.978087581473093 -0.4181138530706139 -30
      vertex -3.978087581473093 -0.4181138530706139 0
      vertex -4 0 0
    endloop
  endfacet
  facet normal -0.5446390350150265 -0.8386705679454243 0
    outer loop
      vertex -2.3511410091698925 -3.23606797749979 -30
      vertex -2 -3.4641016151377544 0
      vertex -2.3511410091698925 -3.23606797749979 0
    endloop
  endfacet
  facet normal -0.35836794954530005 -0.9335804264972019 0
    outer loop
      vertex -1.6269465723032008 -3.6541818305704035 -30
      vertex -1.2360679774997896 -3.804226065180614 0
      vertex -1.6269465723032008 -3.6541818305704035 0
    endloop
  endfacet
  facet normal -0.45399049973954697 -0.8910065241883678 0
    outer loop
      vertex -2 -3.4641016151377544 -30
      vertex -1.6269465723032008 -3.6541818305704035 0
      vertex -2 -3.4641016151377544 0
    endloop
  endfacet
  facet normal -0.2588190451025217 -0.9659258262890681 0
    outer loop
      vertex -1.2360679774997896 -3.804226065180614 -30
      vertex -0.8316467632710374 -3.9125904029352228 0
      vertex -1.2360679774997896 -3.804226065180614 0
    endloop
  endfacet
  facet normal -0.15643446504022993 -0.9876883405951378 0
    outer loop
      vertex -0.8316467632710374 -3.9125904029352228 -30
      vertex -0.4181138530706139 -3.978087581473093 0
      vertex -0.8316467632710374 -3.9125904029352228 0
    endloop
  endfacet
  facet normal -0.05233595624294428 -0.9986295347545738 0
    outer loop
      vertex -0.4181138530706139 -3.978087581473093 -30
      vertex 0 -4 0
      vertex -0.4181138530706139 -3.978087581473093 0
    endloop
  endfacet
  facet normal -0.7771459614569708 -0.6293203910498374 0
    outer loop
      vertex -2.972579301909577 -2.676522425435433 -30
      vertex -2.972579301909577 -2.676522425435433 0
      vertex -3.23606797749979 -2.3511410091698925 0
    endloop
  endfacet
  facet normal -0.8386705679454243 -0.5446390350150265 0
    outer loop
      vertex -3.23606797749979 -2.3511410091698925 -30
      vertex -3.23606797749979 -2.3511410091698925 0
      vertex -3.4641016151377544 -2 0
    endloop
  endfacet
  facet normal -0.8910065241883678 -0.45399049973954697 0
    outer loop
      vertex -3.4641016151377544 -2 -30
      vertex -3.4641016151377544 -2 0
      vertex -3.6541818305704035 -1.6269465723032008 0
    endloop
  endfacet
  facet normal -0.7071067811865476 -0.7071067811865476 0
    outer loop
      vertex -2.676522425435433 -2.972579301909577 -30
      vertex -2.676522425435433 -2.972579301909577 0
      vertex -2.972579301909577 -2.676522425435433 0
    endloop
  endfacet
  facet normal -0.6293203910498374 -0.7771459614569708 0
    outer loop
      vertex -2.676522425435433 -2.972579301909577 -30
      vertex -2.3511410091698925 -3.23606797749979 0
      vertex -2.676522425435433 -2.972579301909577 0
    endloop
  endfacet
  facet normal -0.9335804264972019 -0.35836794954530005 0
    outer loop
      vertex -3.6541818305704035 -1.6269465723032008 -30
      vertex -3.6541818305704035 -1.6269465723032008 0
      vertex -3.804226065180614 -1.2360679774997896 0
    endloop
  endfacet
  facet normal 0 0 -1
    outer loop
      vertex -3.978087581473093 -0.4181138530706139 -30
      vertex -4 0 -30
      vertex -3.978087581473093 0.4181138530706139 -30
    endloop
  endfacet
  facet normal 0 0 -1
    outer loop
      vertex -3.978087581473093 -0.4181138530706139 -30
      vertex -3.978087581473093 0.4181138530706139 -30
      vertex -3.9125904029352228 0.8316467632710374 -30
    endloop
  endfacet
  facet normal 0 0 -1
    outer loop
      vertex -3.9125904029352228 -0.8316467632710374 -30
      vertex -3.9125904029352228 0.8316467632710374 -30
      vertex -3.804226065180614 1.2360679774997896 -30
    endloop
  endfacet
  facet normal 0 0 -1
    outer loop
      vertex -3.804226065180614 -1.2360679774997896 -30
      vertex -3.804226065180614 1.2360679774997896 -30
      vertex -3.6541818305704035 1.6269465723032008 -30
    endloop
  endfacet
  facet normal -0.9986295347545738 0.05233595624294428 0
    outer loop
      vertex -4 0 -30
      vertex -3.978087581473093 0.4181138530706139 0
      vertex -3.978087581473093 0.4181138530706139 -30
    endloop
  endfacet
  facet normal -0.9876883405951378 0.15643446504022993 0
    outer loop
      vertex -3.978087581473093 0.4181138530706139 -30
      vertex -3.9125904029352228 0.8316467632710374 0
      vertex -3.9125904029352228 0.8316467632710374 -30
    endloop
  endfacet
  facet normal -0.9659258262890681 0.2588190451025217 0
    outer loop
      vertex -3.9125904029352228 0.8316467632710374 -30
      vertex -3.804226065180614 1.2360679774997896 0
      vertex -3.804226065180614 1.2360679774997896 -30
    endloop
  endfacet
  facet normal 0 0 -1
    outer loop
      vertex -3.6541818305704035 -1.6269465723032008 -30
      vertex -3.6541818305704035 1.6269465723032008 -30
      vertex -3.4641016151377544 2 -30
    endloop
  endfacet
  facet normal 0 0 -1
    outer loop
      vertex -3.4641016151377544 -2 -30
      vertex -3.4641016151377544 2 -30
      vertex -3.23606797749979 2.3511410091698925 -30
    endloop
  endfacet
  facet normal 0 0 -1
    outer loop
      vertex -3.23606797749979 -2.3511410091698925 -30
      vertex -3.23606797749979 2.3511410091698925 -30
      vertex -2.972579301909577 2.676522425435433 -30
    endloop
  endfacet
  facet normal 0 0 -1
    outer loop
      vertex -2.972579301909577 -2.676522425435433 -30
      vertex -2.972579301909577 2.676522425435433 -30
      vertex -2.676522425435433 2.972579301909577 -30
    endloop
  endfacet
  facet normal 0 0 -1
    outer loop
      vertex -2.676522425435433 -2.972579301909577 -30
      vertex -2.676522425435433 2.972579301909577 -30
      vertex -2.3511410091698925 3.23606797749979 -30
    endloop
  endfacet
  facet normal 0 0 -1
    outer loop
      vertex -2.3511410091698925 -3.23606797749979 -30
      vertex -2.3511410091698925 3.23606797749979 -30
      vertex -2 3.4641016151377544 -30
    endloop
  endfacet
  facet normal 0 0 -1
    outer loop
      vertex -2 -3.4641016151377544 -30
      vertex -2 3.4641016151377544 -30
      vertex -1.6269465723032008 3.6541818305704035 -30
    endloop
  endfacet
  facet normal 0 0 -1
    outer loop
      vertex -1.6269465723032008 -3.6541818305704035 -30
      vertex -1.6269465723032008 3.6541818305704035 -30
      vertex -1.2360679774997896 3.804226065180614 -30
    endloop
  endfacet
  facet normal 0 0 -1
    outer loop
      vertex -1.2360679774997896 -3.804226065180614 -30
      vertex -1.2360679774997896 3.804226065180614 -30
      vertex -0.8316467632710374 3.9125904029352228 -30
    endloop
  endfacet
  facet normal 0 0 -1
    outer loop
      vertex -0.8316467632710374 -3.9125904029352228 -30
      vertex -0.8316467632710374 3.9125904029352228 -30
      vertex -0.4181138530706139 3.978087581473093 -30
    endloop
  endfacet
  facet normal 0 0 -1
    outer loop
      vertex -0.4181138530706139 -3.978087581473093 -30
      vertex -0.4181138530706139 3.978087581473093 -30
      vertex 0 4 -30
    endloop
  endfacet
  facet normal -0.9335804264972019 0.35836794954530005 0
    outer loop
      vertex -3.804226065180614 1.2360679774997896 -30
      vertex -3.6541818305704035 1.6269465723032008 0
      vertex -3.6541818305704035 1.6269465723032008 -30
    endloop
  endfacet
  facet normal -0.8910065241883678 0.45399049973954697 0
    outer loop
      vertex -3.6541818305704035 1.6269465723032008 -30
      vertex -3.4641016151377544 2 0
      vertex -3.4641016151377544 2 -30
    endloop
  endfacet
  facet normal -0.8386705679454243 0.5446390350150265 0
    outer loop
      vertex -3.4641016151377544 2 -30
      vertex -3.23606797749979 2.3511410091698925 0
      vertex -3.23606797749979 2.3511410091698925 -30
    endloop
  endfacet
  facet normal -0.7771459614569708 0.6293203910498374 0
    outer loop
      vertex -3.23606797749979 2.3511410091698925 -30
      vertex -2.972579301909577 2.676522425435433 0
      vertex -2.972579301909577 2.676522425435433 -30
    endloop
  endfacet
  facet normal -0.7071067811865476 0.7071067811865476 0
    outer loop
      vertex -2.972579301909577 2.676522425435433 -30
      vertex -2.676522425435433 2.972579301909577 0
      vertex -2.676522425435433 2.972579301909577 -30
    endloop
  endfacet
  facet normal -0.6293203910498374 0.7771459614569708 0
    outer loop
      vertex -2.676522425435433 2.972579301909577 -30
      vertex -2.676522425435433 2.972579301909577 0
      vertex -2.3511410091698925 3.23606797749979 -30
    endloop
  endfacet
  facet normal -0.5446390350150265 0.8386705679454243 0
    outer loop
      vertex -2.3511410091698925 3.23606797749979 -30
      vertex -2.3511410091698925 3.23606797749979 0
      vertex -2 3.4641016151377544 -30
    endloop
  endfacet
  facet normal -0.45399049973954697 0.8910065241883678 0
    outer loop
      vertex -2 3.4641016151377544 -30
      vertex -2 3.4641016151377544 0
      vertex -1.6269465723032008 3.6541818305704035 -30
    endloop
  endfacet
  facet normal -0.35836794954530005 0.9335804264972019 0
    outer loop
      vertex -1.6269465723032008 3.6541818305704035 -30
      vertex -1.6269465723032008 3.6541818305704035 0
      vertex -1.2360679774997896 3.804226065180614 -30
    endloop
  endfacet
  facet normal -0.2588190451025217 0.9659258262890681 0
    outer loop
      vertex -1.2360679774997896 3.804226065180614 -30
      vertex -1.2360679774997896 3.804226065180614 0
      vertex -0.8316467632710374 3.9125904029352228 -30
    endloop
  endfacet
  facet normal -0.15643446504022993 0.9876883405951378 0
    outer loop
      vertex -0.8316467632710374 3.9125904029352228 -30
      vertex -0.8316467632710374 3.9125904029352228 0
      vertex -0.4181138530706139 3.978087581473093 -30
    endloop
  endfacet
  facet normal -0.05233595624294428 0.9986295347545738 0
    outer loop
      vertex -0.4181138530706139 3.978087581473093 -30
      vertex -0.4181138530706139 3.978087581473093 0
      vertex 0 4 -30
    endloop
  endfacet
  facet normal -0.9986295347545738 0.05233595624294428 0
    outer loop
      vertex -4 0 -30
      vertex -4 0 0
      vertex -3.978087581473093 0.4181138530706139 0
    endloop
  endfacet
  facet normal -0.9876883405951378 0.15643446504022993 0
    outer loop
      vertex -3.978087581473093 0.4181138530706139 -30
      vertex -3.978087581473093 0.4181138530706139 0
      vertex -3.9125904029352228 0.8316467632710374 0
    endloop
  endfacet
  facet normal -0.9659258262890681 0.2588190451025217 0
    outer loop
      vertex -3.9125904029352228 0.8316467632710374 -30
      vertex -3.9125904029352228 0.8316467632710374 0
      vertex -3.804226065180614 1.2360679774997896 0
    endloop
  endfacet
  facet normal -0.9335804264972019 0.35836794954530005 0
    outer loop
      vertex -3.804226065180614 1.2360679774997896 -30
      vertex -3.804226065180614 1.2360679774997896 0
      vertex -3.6541818305704035 1.6269465723032008 0
    endloop
  endfacet
  facet normal -0.8910065241883678 0.45399049973954697 0
    outer loop
      vertex -3.6541818305704035 1.6269465723032008 -30
      vertex -3.6541818305704035 1.6269465723032008 0
      vertex -3.4641016151377544 2 0
    endloop
  endfacet
  facet normal -0.8386705679454243 0.5446390350150265 0
    outer loop
      vertex -3.4641016151377544 2 -30
      vertex -3.4641016151377544 2 0
      vertex -3.23606797749979 2.3511410091698925 0
    endloop
  endfacet
  facet normal -0.7771459614569708 0.6293203910498374 0
    outer loop
      vertex -3.23606797749979 2.3511410091698925 -30
      vertex -3.23606797749979 2.3511410091698925 0
      vertex -2.972579301909577 2.676522425435433 0
    endloop
  endfacet
  facet normal -0.7071067811865476 0.7071067811865476 0
    outer loop
      vertex -2.972579301909577 2.676522425435433 -30
      vertex -2.972579301909577 2.676522425435433 0
      vertex -2.676522425435433 2.972579301909577 0
    endloop
  endfacet
  facet normal -0.6293203910498374 0.7771459614569708 0
    outer loop
      vertex -2.3511410091698925 3.23606797749979 -30
      vertex -2.676522425435433 2.972579301909577 0
      vertex -2.3511410091698925 3.23606797749979 0
    endloop
  endfacet
  facet normal -0.5446390350150265 0.8386705679454243 0
    outer loop
      vertex -2 3.4641016151377544 -30
      vertex -2.3511410091698925 3.23606797749979 0
      vertex -2 3.4641016151377544 0
    endloop
  endfacet
  facet normal -0.45399049973954697 0.8910065241883678 0
    outer loop
      vertex -1.6269465723032008 3.6541818305704035 -30
      vertex -2 3.4641016151377544 0
      vertex -1.6269465723032008 3.6541818305704035 0
    endloop
  endfacet
  facet normal -0.35836794954530005 0.9335804264972019 0
    outer loop
      vertex -1.2360679774997896 3.804226065180614 -30
      vertex -1.6269465723032008 3.6541818305704035 0
      vertex -1.2360679774997896 3.804226065180614 0
    endloop
  endfacet
  facet normal -0.2588190451025217 0.9659258262890681 0
    outer loop
      vertex -0.8316467632710374 3.9125904029352228 -30
      vertex -1.2360679774997896 3.804226065180614 0
      vertex -0.8316467632710374 3.9125904029352228 0
    endloop
  endfacet
  facet normal -0.15643446504022993 0.9876883405951378 0
    outer loop
      vertex -0.4181138530706139 3.978087581473093 -30
      vertex -0.8316467632710374 3.9125904029352228 0
      vertex -0.4181138530706139 3.978087581473093 0
    endloop
  endfacet
  facet normal -0.05233595624294428 0.9986295347545738 0
    outer loop
      vertex 0 4 -30
      vertex -0.4181138530706139 3.978087581473093 0
      vertex 0 4 0
    endloop
  endfacet
  facet normal 0.05233595624294428 -0.9986295347545738 0
    outer loop
      vertex 0 -4 -30
      vertex 0.4181138530706139 -3.978087581473093 -30
      vertex 0.4181138530706139 -3.978087581473093 0
    endloop
  endfacet
  facet normal 0.15643446504022993 -0.9876883405951378 0
    outer loop
      vertex 0.4181138530706139 -3.978087581473093 -30
      vertex 0.8316467632710374 -3.9125904029352228 -30
      vertex 0.8316467632710374 -3.9125904029352228 0
    endloop
  endfacet
  facet normal 0.2588190451025217 -0.9659258262890681 0
    outer loop
      vertex 0.8316467632710374 -3.9125904029352228 -30
      vertex 1.2360679774997896 -3.804226065180614 -30
      vertex 1.2360679774997896 -3.804226065180614 0
    endloop
  endfacet
  facet normal 0.35836794954530005 -0.9335804264972019 0
    outer loop
      vertex 1.2360679774997896 -3.804226065180614 -30
      vertex 1.6269465723032008 -3.6541818305704035 -30
      vertex 1.6269465723032008 -3.6541818305704035 0
    endloop
  endfacet
  facet normal 0.45399049973954697 -0.8910065241883678 0
    outer loop
      vertex 1.6269465723032008 -3.6541818305704035 -30
      vertex 2 -3.4641016151377544 -30
      vertex 2 -3.4641016151377544 0
    endloop
  endfacet
  facet normal 0.5446390350150265 -0.8386705679454243 0
    outer loop
      vertex 2 -3.4641016151377544 -30
      vertex 2.3511410091698925 -3.23606797749979 -30
      vertex 2.3511410091698925 -3.23606797749979 0
    endloop
  endfacet
  facet normal 0 0 -1
    outer loop
      vertex 0 -4 -30
      vertex 0.4181138530706139 3.978087581473093 -30
      vertex 0.4181138530706139 -3.978087581473093 -30
    endloop
  endfacet
  facet normal 0 0 -1
    outer loop
      vertex 0.4181138530706139 -3.978087581473093 -30
      vertex 0.8316467632710374 3.9125904029352228 -30
      vertex 0.8316467632710374 -3.9125904029352228 -30
    endloop
  endfacet
  facet normal 0 0 -1
    outer loop
      vertex 0.8316467632710374 -3.9125904029352228 -30
      vertex 1.2360679774997896 3.804226065180614 -30
      vertex 1.2360679774997896 -3.804226065180614 -30
    endloop
  endfacet
  facet normal 0 0 -1
    outer loop
      vertex 1.2360679774997896 -3.804226065180614 -30
      vertex 1.6269465723032008 3.6541818305704035 -30
      vertex 1.6269465723032008 -3.6541818305704035 -30
    endloop
  endfacet
  facet normal 0 0 -1
    outer loop
      vertex 1.6269465723032008 -3.6541818305704035 -30
      vertex 2 3.4641016151377544 -30
      vertex 2 -3.4641016151377544 -30
    endloop
  endfacet
  facet normal 0 0 -1
    outer loop
      vertex 2 -3.4641016151377544 -30
      vertex 2.3511410091698925 3.23606797749979 -30
      vertex 2.3511410091698925 -3.23606797749979 -30
    endloop
  endfacet
  facet normal 0 0 -1
    outer loop
      vertex 2.3511410091698925 -3.23606797749979 -30
      vertex 2.676522425435433 2.972579301909577 -30
      vertex 2.676522425435433 -2.972579301909577 -30
    endloop
  endfacet
  facet normal 0 0 -1
    outer loop
      vertex 2.676522425435433 -2.972579301909577 -30
      vertex 2.972579301909577 2.676522425435433 -30
      vertex 2.972579301909577 -2.676522425435433 -30
    endloop
  endfacet
  facet normal 0 0 -1
    outer loop
      vertex 2.972579301909577 -2.676522425435433 -30
      vertex 3.23606797749979 2.3511410091698925 -30
      vertex 3.23606797749979 -2.3511410091698925 -30
    endloop
  endfacet
  facet normal 0 0 -1
    outer loop
      vertex 3.23606797749979 -2.3511410091698925 -30
      vertex 3.4641016151377544 2 -30
      vertex 3.4641016151377544 -2 -30
    endloop
  endfacet
  facet normal 0 0 -1
    outer loop
      vertex 3.4641016151377544 -2 -30
      vertex 3.6541818305704035 1.6269465723032008 -30
      vertex 3.6541818305704035 -1.6269465723032008 -30
    endloop
  endfacet
  facet normal 0.6293203910498374 -0.7771459614569708 0
    outer loop
      vertex 2.3511410091698925 -3.23606797749979 -30
      vertex 2.676522425435433 -2.972579301909577 -30
      vertex 2.676522425435433 -2.972579301909577 0
    endloop
  endfacet
  facet normal 0.7071067811865476 -0.7071067811865476 0
    outer loop
      vertex 2.676522425435433 -2.972579301909577 -30
      vertex 2.972579301909577 -2.676522425435433 -30
      vertex 2.676522425435433 -2.972579301909577 0
    endloop
  endfacet
  facet normal 0.7771459614569708 -0.6293203910498374 0
    outer loop
      vertex 2.972579301909577 -2.676522425435433 -30
      vertex 3.23606797749979 -2.3511410091698925 -30
      vertex 2.972579301909577 -2.676522425435433 0
    endloop
  endfacet
  facet normal 0.8386705679454243 -0.5446390350150265 0
    outer loop
      vertex 3.23606797749979 -2.3511410091698925 -30
      vertex 3.4641016151377544 -2 -30
      vertex 3.23606797749979 -2.3511410091698925 0
    endloop
  endfacet
  facet normal 0.8910065241883678 -0.45399049973954697 0
    outer loop
      vertex 3.4641016151377544 -2 -30
      vertex 3.6541818305704035 -1.6269465723032008 -30
      vertex 3.4641016151377544 -2 0
    endloop
  endfacet
  facet normal 0.9335804264972019 -0.35836794954530005 0
    outer loop
      vertex 3.6541818305704035 -1.6269465723032008 -30
      vertex 3.804226065180614 -1.2360679774997896 -30
      vertex 3.6541818305704035 -1.6269465723032008 0
    endloop
  endfacet
  facet normal 0 0 -1
    outer loop
      vertex 3.6541818305704035 -1.6269465723032008 -30
      vertex 3.804226065180614 1.2360679774997896 -30
      vertex 3.804226065180614 -1.2360679774997896 -30
    endloop
  endfacet
  facet normal 0 0 -1
    outer loop
      vertex 3.804226065180614 -1.2360679774997896 -30
      vertex 3.9125904029352228 0.8316467632710374 -30
      vertex 3.9125904029352228 -0.8316467632710374 -30
    endloop
  endfacet
  facet normal 0 0 -1
    outer loop
      vertex 3.9125904029352228 -0.8316467632710374 -30
      vertex 3.978087581473093 0.4181138530706139 -30
      vertex 3.978087581473093 -0.4181138530706139 -30
    endloop
  endfacet
  facet normal 0.9659258262890681 -0.2588190451025217 0
    outer loop
      vertex 3.804226065180614 -1.2360679774997896 -30
      vertex 3.9125904029352228 -0.8316467632710374 -30
      vertex 3.804226065180614 -1.2360679774997896 0
    endloop
  endfacet
  facet normal 0.9876883405951378 -0.15643446504022993 0
    outer loop
      vertex 3.9125904029352228 -0.8316467632710374 -30
      vertex 3.978087581473093 -0.4181138530706139 -30
      vertex 3.9125904029352228 -0.8316467632710374 0
    endloop
  endfacet
  facet normal 0.9986295347545738 -0.05233595624294428 0
    outer loop
      vertex 3.978087581473093 -0.4181138530706139 -30
      vertex 4 0 -30
      vertex 3.978087581473093 -0.4181138530706139 0
    endloop
  endfacet
  facet normal 0.05233595624294428 -0.9986295347545738 0
    outer loop
      vertex 0 -4 -30
      vertex 0.4181138530706139 -3.978087581473093 0
      vertex 0 -4 0
    endloop
  endfacet
  facet normal 0.15643446504022993 -0.9876883405951378 0
    outer loop
      vertex 0.4181138530706139 -3.978087581473093 -30
      vertex 0.8316467632710374 -3.9125904029352228 0
      vertex 0.4181138530706139 -3.978087581473093 0
    endloop
  endfacet
  facet normal 0.2588190451025217 -0.9659258262890681 0
    outer loop
      vertex 0.8316467632710374 -3.9125904029352228 -30
      vertex 1.2360679774997896 -3.804226065180614 0
      vertex 0.8316467632710374 -3.9125904029352228 0
    endloop
  endfacet
  facet normal 0.35836794954530005 -0.9335804264972019 0
    outer loop
      vertex 1.2360679774997896 -3.804226065180614 -30
      vertex 1.6269465723032008 -3.6541818305704035 0
      vertex 1.2360679774997896 -3.804226065180614 0
    endloop
  endfacet
  facet normal 0.45399049973954697 -0.8910065241883678 0
    outer loop
      vertex 1.6269465723032008 -3.6541818305704035 -30
      vertex 2 -3.4641016151377544 0
      vertex 1.6269465723032008 -3.6541818305704035 0
    endloop
  endfacet
  facet normal 0.5446390350150265 -0.8386705679454243 0
    outer loop
      vertex 2 -3.4641016151377544 -30
      vertex 2.3511410091698925 -3.23606797749979 0
      vertex 2 -3.4641016151377544 0
    endloop
  endfacet
  facet normal 0.6293203910498374 -0.7771459614569708 0
    outer loop
      vertex 2.3511410091698925 -3.23606797749979 -30
      vertex 2.676522425435433 -2.972579301909577 0
      vertex 2.3511410091698925 -3.23606797749979 0
    endloop
  endfacet
  facet normal 0.7071067811865476 -0.7071067811865476 0
    outer loop
      vertex 2.972579301909577 -2.676522425435433 -30
      vertex 2.972579301909577 -2.676522425435433 0
      vertex 2.676522425435433 -2.972579301909577 0
    endloop
  endfacet
  facet normal 0.7771459614569708 -0.6293203910498374 0
    outer loop
      vertex 3.23606797749979 -2.3511410091698925 -30
      vertex 3.23606797749979 -2.3511410091698925 0
      vertex 2.972579301909577 -2.676522425435433 0
    endloop
  endfacet
  facet normal 0.8386705679454243 -0.5446390350150265 0
    outer loop
      vertex 3.4641016151377544 -2 -30
      vertex 3.4641016151377544 -2 0
      vertex 3.23606797749979 -2.3511410091698925 0
    endloop
  endfacet
  facet normal 0.8910065241883678 -0.45399049973954697 0
    outer loop
      vertex 3.6541818305704035 -1.6269465723032008 -30
      vertex 3.6541818305704035 -1.6269465723032008 0
      vertex 3.4641016151377544 -2 0
    endloop
  endfacet
  facet normal 0.9335804264972019 -0.35836794954530005 0
    outer loop
      vertex 3.804226065180614 -1.2360679774997896 -30
      vertex 3.804226065180614 -1.2360679774997896 0
      vertex 3.6541818305704035 -1.6269465723032008 0
    endloop
  endfacet
  facet normal 0.9659258262890681 -0.2588190451025217 0
    outer loop
      vertex 3.9125904029352228 -0.8316467632710374 -30
      vertex 3.9125904029352228 -0.8316467632710374 0
      vertex 3.804226065180614 -1.2360679774997896 0
    endloop
  endfacet
  facet normal 0.9876883405951378 -0.15643446504022993 0
    outer loop
      vertex 3.978087581473093 -0.4181138530706139 -30
      vertex 3.978087581473093 -0.4181138530706139 0
      vertex 3.9125904029352228 -0.8316467632710374 0
    endloop
  endfacet
  facet normal 0.9986295347545738 -0.05233595624294428 0
    outer loop
      vertex 4 0 -30
      vertex 4 0 0
      vertex 3.978087581473093 -0.4181138530706139 0
    endloop
  endfacet
  facet normal 0 0 -1
    outer loop
      vertex 0 -4 -30
      vertex 0 4 -30
      vertex 0.4181138530706139 3.978087581473093 -30
    endloop
  endfacet
  facet normal 0 0 -1
    outer loop
      vertex 0.4181138530706139 -3.978087581473093 -30
      vertex 0.4181138530706139 3.978087581473093 -30
      vertex 0.8316467632710374 3.9125904029352228 -30
    endloop
  endfacet
  facet normal 0 0 -1
    outer loop
      vertex 1.2360679774997896 -3.804226065180614 -30
      vertex 1.2360679774997896 3.804226065180614 -30
      vertex 1.6269465723032008 3.6541818305704035 -30
    endloop
  endfacet
  facet normal 0 0 -1
    outer loop
      vertex 0.8316467632710374 -3.9125904029352228 -30
      vertex 0.8316467632710374 3.9125904029352228 -30
      vertex 1.2360679774997896 3.804226065180614 -30
    endloop
  endfacet
  facet normal 0 0 -1
    outer loop
      vertex 1.6269465723032008 -3.6541818305704035 -30
      vertex 1.6269465723032008 3.6541818305704035 -30
      vertex 2 3.4641016151377544 -30
    endloop
  endfacet
  facet normal 0 0 -1
    outer loop
      vertex 2 -3.4641016151377544 -30
      vertex 2 3.4641016151377544 -30
      vertex 2.3511410091698925 3.23606797749979 -30
    endloop
  endfacet
  facet normal 0 0 -1
    outer loop
      vertex 2.3511410091698925 -3.23606797749979 -30
      vertex 2.3511410091698925 3.23606797749979 -30
      vertex 2.676522425435433 2.972579301909577 -30
    endloop
  endfacet
  facet normal 0 0 -1
    outer loop
      vertex 2.676522425435433 -2.972579301909577 -30
      vertex 2.676522425435433 2.972579301909577 -30
      vertex 2.972579301909577 2.676522425435433 -30
    endloop
  endfacet
  facet normal 0 0 -1
    outer loop
      vertex 2.972579301909577 -2.676522425435433 -30
      vertex 2.972579301909577 2.676522425435433 -30
      vertex 3.23606797749979 2.3511410091698925 -30
    endloop
  endfacet
  facet normal 0 0 -1
    outer loop
      vertex 3.23606797749979 -2.3511410091698925 -30
      vertex 3.23606797749979 2.3511410091698925 -30
      vertex 3.4641016151377544 2 -30
    endloop
  endfacet
  facet normal 0 0 -1
    outer loop
      vertex 3.4641016151377544 -2 -30
      vertex 3.4641016151377544 2 -30
      vertex 3.6541818305704035 1.6269465723032008 -30
    endloop
  endfacet
  facet normal 0 0 -1
    outer loop
      vertex 3.6541818305704035 -1.6269465723032008 -30
      vertex 3.6541818305704035 1.6269465723032008 -30
      vertex 3.804226065180614 1.2360679774997896 -30
    endloop
  endfacet
  facet normal 0.6293203910498374 0.7771459614569708 0
    outer loop
      vertex 2.676522425435433 2.972579301909577 -30
      vertex 2.3511410091698925 3.23606797749979 -30
      vertex 2.3511410091698925 3.23606797749979 0
    endloop
  endfacet
  facet normal 0.8910065241883678 0.45399049973954697 0
    outer loop
      vertex 3.6541818305704035 1.6269465723032008 -30
      vertex 3.4641016151377544 2 -30
      vertex 3.6541818305704035 1.6269465723032008 0
    endloop
  endfacet
  facet normal 0.8386705679454243 0.5446390350150265 0
    outer loop
      vertex 3.23606797749979 2.3511410091698925 -30
      vertex 3.4641016151377544 2 0
      vertex 3.4641016151377544 2 -30
    endloop
  endfacet
  facet normal 0.7071067811865476 0.7071067811865476 0
    outer loop
      vertex 2.676522425435433 2.972579301909577 -30
      vertex 2.972579301909577 2.676522425435433 0
      vertex 2.972579301909577 2.676522425435433 -30
    endloop
  endfacet
  facet normal 0.7771459614569708 0.6293203910498374 0
    outer loop
      vertex 2.972579301909577 2.676522425435433 -30
      vertex 3.23606797749979 2.3511410091698925 0
      vertex 3.23606797749979 2.3511410091698925 -30
    endloop
  endfacet
  facet normal 0.05233595624294428 0.9986295347545738 0
    outer loop
      vertex 0 4 -30
      vertex 0 4 0
      vertex 0.4181138530706139 3.978087581473093 -30
    endloop
  endfacet
  facet normal 0.15643446504022993 0.9876883405951378 0
    outer loop
      vertex 0.4181138530706139 3.978087581473093 -30
      vertex 0.4181138530706139 3.978087581473093 0
      vertex 0.8316467632710374 3.9125904029352228 -30
    endloop
  endfacet
  facet normal 0.2588190451025217 0.9659258262890681 0
    outer loop
      vertex 0.8316467632710374 3.9125904029352228 -30
      vertex 0.8316467632710374 3.9125904029352228 0
      vertex 1.2360679774997896 3.804226065180614 -30
    endloop
  endfacet
  facet normal 0.35836794954530005 0.9335804264972019 0
    outer loop
      vertex 1.2360679774997896 3.804226065180614 -30
      vertex 1.2360679774997896 3.804226065180614 0
      vertex 1.6269465723032008 3.6541818305704035 -30
    endloop
  endfacet
  facet normal 0.45399049973954697 0.8910065241883678 0
    outer loop
      vertex 1.6269465723032008 3.6541818305704035 -30
      vertex 1.6269465723032008 3.6541818305704035 0
      vertex 2 3.4641016151377544 -30
    endloop
  endfacet
  facet normal 0.5446390350150265 0.8386705679454243 0
    outer loop
      vertex 2 3.4641016151377544 -30
      vertex 2 3.4641016151377544 0
      vertex 2.3511410091698925 3.23606797749979 -30
    endloop
  endfacet
  facet normal 0 0 -1
    outer loop
      vertex 3.978087581473093 -0.4181138530706139 -30
      vertex 3.978087581473093 0.4181138530706139 -30
      vertex 4 0 -30
    endloop
  endfacet
  facet normal 0 0 -1
    outer loop
      vertex 3.9125904029352228 -0.8316467632710374 -30
      vertex 3.9125904029352228 0.8316467632710374 -30
      vertex 3.978087581473093 0.4181138530706139 -30
    endloop
  endfacet
  facet normal 0 0 -1
    outer loop
      vertex 3.804226065180614 -1.2360679774997896 -30
      vertex 3.804226065180614 1.2360679774997896 -30
      vertex 3.9125904029352228 0.8316467632710374 -30
    endloop
  endfacet
  facet normal 0.9986295347545738 0.05233595624294428 0
    outer loop
      vertex 4 0 -30
      vertex 3.978087581473093 0.4181138530706139 -30
      vertex 4 0 0
    endloop
  endfacet
  facet normal 0.9876883405951378 0.15643446504022993 0
    outer loop
      vertex 3.978087581473093 0.4181138530706139 -30
      vertex 3.9125904029352228 0.8316467632710374 -30
      vertex 3.978087581473093 0.4181138530706139 0
    endloop
  endfacet
  facet normal 0.9659258262890681 0.2588190451025217 0
    outer loop
      vertex 3.9125904029352228 0.8316467632710374 -30
      vertex 3.804226065180614 1.2360679774997896 -30
      vertex 3.9125904029352228 0.8316467632710374 0
    endloop
  endfacet
  facet normal 0.9335804264972019 0.35836794954530005 0
    outer loop
      vertex 3.804226065180614 1.2360679774997896 -30
      vertex 3.6541818305704035 1.6269465723032008 -30
      vertex 3.804226065180614 1.2360679774997896 0
    endloop
  endfacet
  facet normal 0.9335804264972019 0.35836794954530005 0
    outer loop
      vertex 3.6541818305704035 1.6269465723032008 -30
      vertex 3.6541818305704035 1.6269465723032008 0
      vertex 3.804226065180614 1.2360679774997896 0
    endloop
  endfacet
  facet normal 0.6293203910498374 0.7771459614569708 0
    outer loop
      vertex 2.676522425435433 2.972579301909577 -30
      vertex 2.3511410091698925 3.23606797749979 0
      vertex 2.676522425435433 2.972579301909577 0
    endloop
  endfacet
  facet normal 0.7071067811865476 0.7071067811865476 0
    outer loop
      vertex 2.676522425435433 2.972579301909577 -30
      vertex 2.676522425435433 2.972579301909577 0
      vertex 2.972579301909577 2.676522425435433 0
    endloop
  endfacet
  facet normal 0.8910065241883678 0.45399049973954697 0
    outer loop
      vertex 3.4641016151377544 2 -30
      vertex 3.4641016151377544 2 0
      vertex 3.6541818305704035 1.6269465723032008 0
    endloop
  endfacet
  facet normal 0.8386705679454243 0.5446390350150265 0
    outer loop
      vertex 3.23606797749979 2.3511410091698925 -30
      vertex 3.23606797749979 2.3511410091698925 0
      vertex 3.4641016151377544 2 0
    endloop
  endfacet
  facet normal 0.7771459614569708 0.6293203910498374 0
    outer loop
      vertex 2.972579301909577 2.676522425435433 -30
      vertex 2.972579301909577 2.676522425435433 0
      vertex 3.23606797749979 2.3511410091698925 0
    endloop
  endfacet
  facet normal 0.05233595624294428 0.9986295347545738 0
    outer loop
      vertex 0.4181138530706139 3.978087581473093 -30
      vertex 0 4 0
      vertex 0.4181138530706139 3.978087581473093 0
    endloop
  endfacet
  facet normal 0.15643446504022993 0.9876883405951378 0
    outer loop
      vertex 0.8316467632710374 3.9125904029352228 -30
      vertex 0.4181138530706139 3.978087581473093 0
      vertex 0.8316467632710374 3.9125904029352228 0
    endloop
  endfacet
  facet normal 0.2588190451025217 0.9659258262890681 0
    outer loop
      vertex 1.2360679774997896 3.804226065180614 -30
      vertex 0.8316467632710374 3.9125904029352228 0
      vertex 1.2360679774997896 3.804226065180614 0
    endloop
  endfacet
  facet normal 0.45399049973954697 0.8910065241883678 0
    outer loop
      vertex 2 3.4641016151377544 -30
      vertex 1.6269465723032008 3.6541818305704035 0
      vertex 2 3.4641016151377544 0
    endloop
  endfacet
  facet normal 0.35836794954530005 0.9335804264972019 0
    outer loop
      vertex 1.6269465723032008 3.6541818305704035 -30
      vertex 1.2360679774997896 3.804226065180614 0
      vertex 1.6269465723032008 3.6541818305704035 0
    endloop
  endfacet
  facet normal 0.5446390350150265 0.8386705679454243 0
    outer loop
      vertex 2.3511410091698925 3.23606797749979 -30
      vertex 2 3.4641016151377544 0
      vertex 2.3511410091698925 3.23606797749979 0
    endloop
  endfacet
  facet normal 0.9986295347545738 0.05233595624294428 0
    outer loop
      vertex 3.978087581473093 0.4181138530706139 -30
      vertex 3.978087581473093 0.4181138530706139 0
      vertex 4 0 0
    endloop
  endfacet
  facet normal 0.9876883405951378 0.15643446504022993 0
    outer loop
      vertex 3.9125904029352228 0.8316467632710374 -30
      vertex 3.9125904029352228 0.8316467632710374 0
      vertex 3.978087581473093 0.4181138530706139 0
    endloop
  endfacet
  facet normal 0.9659258262890681 0.2588190451025217 0
    outer loop
      vertex 3.804226065180614 1.2360679774997896 -30
      vertex 3.804226065180614 1.2360679774997896 0
      vertex 3.9125904029352228 0.8316467632710374 0
    endloop
  endfacet
  facet normal -0.8660254037844386 -0.5 0
    outer loop
      vertex -3.7527767497325675 -6.5 0
      vertex -3.7527767497325675 -6.5 5.3
      vertex -7.505553499465135 0 5.3
    endloop
  endfacet
  facet normal -0.8660254037844386 -0.5 0
    outer loop
      vertex -3.7527767497325675 -6.5 0
      vertex -7.505553499465135 0 5.3
      vertex -7.505553499465135 0 0
    endloop
  endfacet
  facet normal 0 0 -1
    outer loop
      vertex -3.7527767497325675 -6.5 0
      vertex -7.505553499465135 0 0
      vertex -3.804226065180614 -1.2360679774997896 0
    endloop
  endfacet
  facet normal 0 0 -1
    outer loop
      vertex -7.505553499465135 0 0
      vertex -4 0 0
      vertex -3.978087581473093 -0.4181138530706139 0
    endloop
  endfacet
  facet normal 0 0 -1
    outer loop
      vertex -7.505553499465135 0 0
      vertex -3.9125904029352228 -0.8316467632710374 0
      vertex -3.804226065180614 -1.2360679774997896 0
    endloop
  endfacet
  facet normal 0 0 -1
    outer loop
      vertex -7.505553499465135 0 0
      vertex -3.978087581473093 -0.4181138530706139 0
      vertex -3.9125904029352228 -0.8316467632710374 0
    endloop
  endfacet
  facet normal 0 0 -1
    outer loop
      vertex -3.7527767497325675 -6.5 0
      vertex -2.676522425435433 -2.972579301909577 0
      vertex -2.3511410091698925 -3.23606797749979 0
    endloop
  endfacet
  facet normal 0 0 -1
    outer loop
      vertex -3.7527767497325675 -6.5 0
      vertex -3.23606797749979 -2.3511410091698925 0
      vertex -2.972579301909577 -2.676522425435433 0
    endloop
  endfacet
  facet normal 0 0 -1
    outer loop
      vertex -3.7527767497325675 -6.5 0
      vertex -3.6541818305704035 -1.6269465723032008 0
      vertex -3.4641016151377544 -2 0
    endloop
  endfacet
  facet normal 0 0 -1
    outer loop
      vertex -3.7527767497325675 -6.5 0
      vertex -3.4641016151377544 -2 0
      vertex -3.23606797749979 -2.3511410091698925 0
    endloop
  endfacet
  facet normal 0 0 -1
    outer loop
      vertex -3.7527767497325675 -6.5 0
      vertex -2.972579301909577 -2.676522425435433 0
      vertex -2.676522425435433 -2.972579301909577 0
    endloop
  endfacet
  facet normal 0 0 -1
    outer loop
      vertex -3.7527767497325675 -6.5 0
      vertex -2 -3.4641016151377544 0
      vertex -1.6269465723032008 -3.6541818305704035 0
    endloop
  endfacet
  facet normal 0 0 -1
    outer loop
      vertex -3.7527767497325675 -6.5 0
      vertex -2.3511410091698925 -3.23606797749979 0
      vertex -2 -3.4641016151377544 0
    endloop
  endfacet
  facet normal 0 0 -1
    outer loop
      vertex -3.7527767497325675 -6.5 0
      vertex -1.6269465723032008 -3.6541818305704035 0
      vertex -1.2360679774997896 -3.804226065180614 0
    endloop
  endfacet
  facet normal 0 0 -1
    outer loop
      vertex -3.7527767497325675 -6.5 0
      vertex -1.2360679774997896 -3.804226065180614 0
      vertex -0.8316467632710374 -3.9125904029352228 0
    endloop
  endfacet
  facet normal 0 0 -1
    outer loop
      vertex -3.7527767497325675 -6.5 0
      vertex -0.4181138530706139 -3.978087581473093 0
      vertex 3.7527767497325675 -6.5 0
    endloop
  endfacet
  facet normal 0 -1 0
    outer loop
      vertex -3.7527767497325675 -6.5 0
      vertex 3.7527767497325675 -6.5 0
      vertex -3.7527767497325675 -6.5 5.3
    endloop
  endfacet
  facet normal 0 0 -1
    outer loop
      vertex -3.7527767497325675 -6.5 0
      vertex -0.8316467632710374 -3.9125904029352228 0
      vertex -0.4181138530706139 -3.978087581473093 0
    endloop
  endfacet
  facet normal 0 0 -1
    outer loop
      vertex -3.7527767497325675 -6.5 0
      vertex -3.804226065180614 -1.2360679774997896 0
      vertex -3.6541818305704035 -1.6269465723032008 0
    endloop
  endfacet
  facet normal -0.8660254037844386 0.5 0
    outer loop
      vertex -7.505553499465135 0 0
      vertex -7.505553499465135 0 5.3
      vertex -3.7527767497325675 6.5 5.3
    endloop
  endfacet
  facet normal 0 0 -1
    outer loop
      vertex -7.505553499465135 0 0
      vertex -3.978087581473093 0.4181138530706139 0
      vertex -4 0 0
    endloop
  endfacet
  facet normal 0 0 -1
    outer loop
      vertex -7.505553499465135 0 0
      vertex -3.9125904029352228 0.8316467632710374 0
      vertex -3.978087581473093 0.4181138530706139 0
    endloop
  endfacet
  facet normal 0 0 -1
    outer loop
      vertex -7.505553499465135 0 0
      vertex -3.804226065180614 1.2360679774997896 0
      vertex -3.9125904029352228 0.8316467632710374 0
    endloop
  endfacet
  facet normal 0 0 -1
    outer loop
      vertex -7.505553499465135 0 0
      vertex -3.6541818305704035 1.6269465723032008 0
      vertex -3.804226065180614 1.2360679774997896 0
    endloop
  endfacet
  facet normal 0 0 1
    outer loop
      vertex -3.7527767497325675 -6.5 5.3
      vertex -3.7527767497325675 6.5 5.3
      vertex -7.505553499465135 0 5.3
    endloop
  endfacet
  facet normal 0 0 -1
    outer loop
      vertex -7.505553499465135 0 0
      vertex -3.7527767497325675 6.5 0
      vertex -3.6541818305704035 1.6269465723032008 0
    endloop
  endfacet
  facet normal -0.8660254037844386 0.5 0
    outer loop
      vertex -7.505553499465135 0 0
      vertex -3.7527767497325675 6.5 5.3
      vertex -3.7527767497325675 6.5 0
    endloop
  endfacet
  facet normal 0 0 1
    outer loop
      vertex -3.7527767497325675 -6.5 5.3
      vertex 3.7527767497325675 6.5 5.3
      vertex -3.7527767497325675 6.5 5.3
    endloop
  endfacet
  facet normal 0 0 -1
    outer loop
      vertex -3.7527767497325675 6.5 0
      vertex -3.4641016151377544 2 0
      vertex -3.6541818305704035 1.6269465723032008 0
    endloop
  endfacet
  facet normal 0 0 -1
    outer loop
      vertex -3.7527767497325675 6.5 0
      vertex -3.23606797749979 2.3511410091698925 0
      vertex -3.4641016151377544 2 0
    endloop
  endfacet
  facet normal 0 0 -1
    outer loop
      vertex -3.7527767497325675 6.5 0
      vertex -2.972579301909577 2.676522425435433 0
      vertex -3.23606797749979 2.3511410091698925 0
    endloop
  endfacet
  facet normal 0 0 -1
    outer loop
      vertex -3.7527767497325675 6.5 0
      vertex -2.676522425435433 2.972579301909577 0
      vertex -2.972579301909577 2.676522425435433 0
    endloop
  endfacet
  facet normal 0 0 -1
    outer loop
      vertex -3.7527767497325675 6.5 0
      vertex -2.3511410091698925 3.23606797749979 0
      vertex -2.676522425435433 2.972579301909577 0
    endloop
  endfacet
  facet normal 0 0 -1
    outer loop
      vertex -3.7527767497325675 6.5 0
      vertex -2 3.4641016151377544 0
      vertex -2.3511410091698925 3.23606797749979 0
    endloop
  endfacet
  facet normal 0 0 -1
    outer loop
      vertex -3.7527767497325675 6.5 0
      vertex -1.6269465723032008 3.6541818305704035 0
      vertex -2 3.4641016151377544 0
    endloop
  endfacet
  facet normal 0 0 -1
    outer loop
      vertex -3.7527767497325675 6.5 0
      vertex -1.2360679774997896 3.804226065180614 0
      vertex -1.6269465723032008 3.6541818305704035 0
    endloop
  endfacet
  facet normal 0 0 -1
    outer loop
      vertex -3.7527767497325675 6.5 0
      vertex -0.8316467632710374 3.9125904029352228 0
      vertex -1.2360679774997896 3.804226065180614 0
    endloop
  endfacet
  facet normal 0 0 -1
    outer loop
      vertex -3.7527767497325675 6.5 0
      vertex -0.4181138530706139 3.978087581473093 0
      vertex -0.8316467632710374 3.9125904029352228 0
    endloop
  endfacet
  facet normal 0 0 -1
    outer loop
      vertex -3.7527767497325675 6.5 0
      vertex 0 4 0
      vertex -0.4181138530706139 3.978087581473093 0
    endloop
  endfacet
  facet normal 0 0 -1
    outer loop
      vertex -3.7527767497325675 6.5 0
      vertex 0.4181138530706139 3.978087581473093 0
      vertex 0 4 0
    endloop
  endfacet
  facet normal 0 1 0
    outer loop
      vertex -3.7527767497325675 6.5 0
      vertex -3.7527767497325675 6.5 5.3
      vertex 3.7527767497325675 6.5 5.3
    endloop
  endfacet
  facet normal 0 -1 0
    outer loop
      vertex -3.7527767497325675 -6.5 5.3
      vertex 3.7527767497325675 -6.5 0
      vertex 3.7527767497325675 -6.5 5.3
    endloop
  endfacet
  facet normal 0 0 -1
    outer loop
      vertex 3.7527767497325675 -6.5 0
      vertex -0.4181138530706139 -3.978087581473093 0
      vertex 0 -4 0
    endloop
  endfacet
  facet normal 0 0 -1
    outer loop
      vertex 3.7527767497325675 -6.5 0
      vertex 0 -4 0
      vertex 0.4181138530706139 -3.978087581473093 0
    endloop
  endfacet
  facet normal 0 0 -1
    outer loop
      vertex 3.7527767497325675 -6.5 0
      vertex 0.4181138530706139 -3.978087581473093 0
      vertex 0.8316467632710374 -3.9125904029352228 0
    endloop
  endfacet
  facet normal 0 0 -1
    outer loop
      vertex 3.7527767497325675 -6.5 0
      vertex 0.8316467632710374 -3.9125904029352228 0
      vertex 1.2360679774997896 -3.804226065180614 0
    endloop
  endfacet
  facet normal 0 0 -1
    outer loop
      vertex 3.7527767497325675 -6.5 0
      vertex 1.2360679774997896 -3.804226065180614 0
      vertex 1.6269465723032008 -3.6541818305704035 0
    endloop
  endfacet
  facet normal 0 0 -1
    outer loop
      vertex 3.7527767497325675 -6.5 0
      vertex 1.6269465723032008 -3.6541818305704035 0
      vertex 2 -3.4641016151377544 0
    endloop
  endfacet
  facet normal 0 0 -1
    outer loop
      vertex 3.7527767497325675 -6.5 0
      vertex 2 -3.4641016151377544 0
      vertex 2.3511410091698925 -3.23606797749979 0
    endloop
  endfacet
  facet normal 0 0 -1
    outer loop
      vertex 3.7527767497325675 -6.5 0
      vertex 2.3511410091698925 -3.23606797749979 0
      vertex 2.676522425435433 -2.972579301909577 0
    endloop
  endfacet
  facet normal 0 0 -1
    outer loop
      vertex 3.7527767497325675 -6.5 0
      vertex 2.676522425435433 -2.972579301909577 0
      vertex 2.972579301909577 -2.676522425435433 0
    endloop
  endfacet
  facet normal 0 0 -1
    outer loop
      vertex 3.7527767497325675 -6.5 0
      vertex 2.972579301909577 -2.676522425435433 0
      vertex 3.23606797749979 -2.3511410091698925 0
    endloop
  endfacet
  facet normal 0 0 -1
    outer loop
      vertex 3.7527767497325675 -6.5 0
      vertex 3.23606797749979 -2.3511410091698925 0
      vertex 3.4641016151377544 -2 0
    endloop
  endfacet
  facet normal 0 0 -1
    outer loop
      vertex 3.7527767497325675 -6.5 0
      vertex 3.4641016151377544 -2 0
      vertex 3.6541818305704035 -1.6269465723032008 0
    endloop
  endfacet
  facet normal 0 0 1
    outer loop
      vertex -3.7527767497325675 -6.5 5.3
      vertex 3.7527767497325675 -6.5 5.3
      vertex 3.7527767497325675 6.5 5.3
    endloop
  endfacet
  facet normal 0.8660254037844386 -0.5 0
    outer loop
      vertex 3.7527767497325675 -6.5 0
      vertex 7.505553499465135 0 0
      vertex 3.7527767497325675 -6.5 5.3
    endloop
  endfacet
  facet normal 0 0 -1
    outer loop
      vertex 3.7527767497325675 -6.5 0
      vertex 3.6541818305704035 -1.6269465723032008 0
      vertex 7.505553499465135 0 0
    endloop
  endfacet
  facet normal 0 0 -1
    outer loop
      vertex 7.505553499465135 0 0
      vertex 3.6541818305704035 -1.6269465723032008 0
      vertex 3.804226065180614 -1.2360679774997896 0
    endloop
  endfacet
  facet normal 0 0 -1
    outer loop
      vertex 7.505553499465135 0 0
      vertex 3.804226065180614 -1.2360679774997896 0
      vertex 3.9125904029352228 -0.8316467632710374 0
    endloop
  endfacet
  facet normal 0 0 -1
    outer loop
      vertex 7.505553499465135 0 0
      vertex 3.9125904029352228 -0.8316467632710374 0
      vertex 3.978087581473093 -0.4181138530706139 0
    endloop
  endfacet
  facet normal 0 0 -1
    outer loop
      vertex 7.505553499465135 0 0
      vertex 3.978087581473093 -0.4181138530706139 0
      vertex 4 0 0
    endloop
  endfacet
  facet normal 0.8660254037844386 -0.5 0
    outer loop
      vertex 3.7527767497325675 -6.5 5.3
      vertex 7.505553499465135 0 0
      vertex 7.505553499465135 0 5.3
    endloop
  endfacet
  facet normal 0 0 -1
    outer loop
      vertex 3.7527767497325675 6.5 0
      vertex 3.804226065180614 1.2360679774997896 0
      vertex 3.6541818305704035 1.6269465723032008 0
    endloop
  endfacet
  facet normal 0 0 -1
    outer loop
      vertex 3.7527767497325675 6.5 0
      vertex 0.8316467632710374 3.9125904029352228 0
      vertex 0.4181138530706139 3.978087581473093 0
    endloop
  endfacet
  facet normal 0 0 -1
    outer loop
      vertex -3.7527767497325675 6.5 0
      vertex 3.7527767497325675 6.5 0
      vertex 0.4181138530706139 3.978087581473093 0
    endloop
  endfacet
  facet normal 0 1 0
    outer loop
      vertex -3.7527767497325675 6.5 0
      vertex 3.7527767497325675 6.5 5.3
      vertex 3.7527767497325675 6.5 0
    endloop
  endfacet
  facet normal 0 0 -1
    outer loop
      vertex 3.7527767497325675 6.5 0
      vertex 1.2360679774997896 3.804226065180614 0
      vertex 0.8316467632710374 3.9125904029352228 0
    endloop
  endfacet
  facet normal 0 0 -1
    outer loop
      vertex 3.7527767497325675 6.5 0
      vertex 1.6269465723032008 3.6541818305704035 0
      vertex 1.2360679774997896 3.804226065180614 0
    endloop
  endfacet
  facet normal 0 0 -1
    outer loop
      vertex 3.7527767497325675 6.5 0
      vertex 2.3511410091698925 3.23606797749979 0
      vertex 2 3.4641016151377544 0
    endloop
  endfacet
  facet normal 0 0 -1
    outer loop
      vertex 3.7527767497325675 6.5 0
      vertex 2 3.4641016151377544 0
      vertex 1.6269465723032008 3.6541818305704035 0
    endloop
  endfacet
  facet normal 0 0 -1
    outer loop
      vertex 3.7527767497325675 6.5 0
      vertex 2.972579301909577 2.676522425435433 0
      vertex 2.676522425435433 2.972579301909577 0
    endloop
  endfacet
  facet normal 0 0 -1
    outer loop
      vertex 3.7527767497325675 6.5 0
      vertex 3.4641016151377544 2 0
      vertex 3.23606797749979 2.3511410091698925 0
    endloop
  endfacet
  facet normal 0 0 -1
    outer loop
      vertex 3.7527767497325675 6.5 0
      vertex 3.6541818305704035 1.6269465723032008 0
      vertex 3.4641016151377544 2 0
    endloop
  endfacet
  facet normal 0 0 -1
    outer loop
      vertex 3.7527767497325675 6.5 0
      vertex 3.23606797749979 2.3511410091698925 0
      vertex 2.972579301909577 2.676522425435433 0
    endloop
  endfacet
  facet normal 0 0 -1
    outer loop
      vertex 3.7527767497325675 6.5 0
      vertex 2.676522425435433 2.972579301909577 0
      vertex 2.3511410091698925 3.23606797749979 0
    endloop
  endfacet
  facet normal 0 0 -1
    outer loop
      vertex 7.505553499465135 0 0
      vertex 3.978087581473093 0.4181138530706139 0
      vertex 3.9125904029352228 0.8316467632710374 0
    endloop
  endfacet
  facet normal 0 0 -1
    outer loop
      vertex 7.505553499465135 0 0
      vertex 3.9125904029352228 0.8316467632710374 0
      vertex 3.804226065180614 1.2360679774997896 0
    endloop
  endfacet
  facet normal 0 0 -1
    outer loop
      vertex 7.505553499465135 0 0
      vertex 4 0 0
      vertex 3.978087581473093 0.4181138530706139 0
    endloop
  endfacet
  facet normal 0 0 1
    outer loop
      vertex 3.7527767497325675 -6.5 5.3
      vertex 7.505553499465135 0 5.3
      vertex 3.7527767497325675 6.5 5.3
    endloop
  endfacet
  facet normal 0 0 -1
    outer loop
      vertex 3.7527767497325675 6.5 0
      vertex 7.505553499465135 0 0
      vertex 3.804226065180614 1.2360679774997896 0
    endloop
  endfacet
  facet normal 0.8660254037844386 0.5 0
    outer loop
      vertex 3.7527767497325675 6.5 0
      vertex 7.505553499465135 0 5.3
      vertex 7.505553499465135 0 0
    endloop
  endfacet
  facet normal 0.8660254037844386 0.5 0
    outer loop
      vertex 3.7527767497325675 6.5 0
      vertex 3.7527767497325675 6.5 5.3
      vertex 7.505553499465135 0 5.3
    endloop
  endfacet
endsolid OpenSCAD_Model
