solid OpenSCAD_Model
  facet normal -0.8660254037844386 -0.5 0
    outer loop
      vertex -3.7527767497325675 -6.5 0
      vertex -3.7527767497325675 -6.5 5.3
      vertex -7.505553499465135 0 5.3
    endloop
  endfacet
  facet normal -0.8660254037844386 -0.5 0
    outer loop
      vertex -3.7527767497325675 -6.5 0
      vertex -7.505553499465135 0 5.3
      vertex -7.505553499465135 0 0
    endloop
  endfacet
  facet normal 0 0 -1
    outer loop
      vertex -3.7527767497325675 -6.5 0
      vertex -7.505553499465135 0 0
      vertex -3.719105943553006 -1.4724982107387115 0
    endloop
  endfacet
  facet normal 0 0 -1
    outer loop
      vertex -7.505553499465135 0 0
      vertex -3.804226065180614 -1.2360679774997896 0
      vertex -3.719105943553006 -1.4724982107387115 0
    endloop
  endfacet
  facet normal 0 0 -1
    outer loop
      vertex -7.505553499465135 0 0
      vertex -4 0 0
      vertex -3.9921069137130862 -0.2511620781172531 0
    endloop
  endfacet
  facet normal 0 0 -1
    outer loop
      vertex -7.505553499465135 0 0
      vertex -3.8743326445145243 -0.9947595486594194 0
      vertex -3.804226065180614 -1.2360679774997896 0
    endloop
  endfacet
  facet normal 0 0 -1
    outer loop
      vertex -7.505553499465135 0 0
      vertex -3.9291490029147544 -0.7495252583428993 0
      vertex -3.8743326445145243 -0.9947595486594194 0
    endloop
  endfacet
  facet normal 0 0 -1
    outer loop
      vertex -7.505553499465135 0 0
      vertex -3.9684588052579115 -0.5013329342572163 0
      vertex -3.9291490029147544 -0.7495252583428993 0
    endloop
  endfacet
  facet normal 0 0 -1
    outer loop
      vertex -7.505553499465135 0 0
      vertex -3.9921069137130862 -0.2511620781172531 0
      vertex -3.9684588052579115 -0.5013329342572163 0
    endloop
  endfacet
  facet normal 0 0 -1
    outer loop
      vertex -3.7527767497325675 -6.5 0
      vertex -2.5496959589947585 -3.0820529711031575 0
      vertex -2.3511410091698925 -3.23606797749979 0
    endloop
  endfacet
  facet normal 0 0 -1
    outer loop
      vertex -3.7527767497325675 -6.5 0
      vertex -2.738188423714754 -2.9158745096856467 0
      vertex -2.5496959589947585 -3.0820529711031575 0
    endloop
  endfacet
  facet normal 0 0 -1
    outer loop
      vertex -3.7527767497325675 -6.5 0
      vertex -3.37731170200806 -2.143307179915987 0
      vertex -3.23606797749979 -2.3511410091698925 0
    endloop
  endfacet
  facet normal 0 0 -1
    outer loop
      vertex -3.7527767497325675 -6.5 0
      vertex -3.23606797749979 -2.3511410091698925 0
      vertex -3.0820529711031575 -2.5496959589947585 0
    endloop
  endfacet
  facet normal 0 0 -1
    outer loop
      vertex -3.7527767497325675 -6.5 0
      vertex -3.505226720175454 -1.9270146964068615 0
      vertex -3.37731170200806 -2.143307179915987 0
    endloop
  endfacet
  facet normal 0 0 -1
    outer loop
      vertex -3.7527767497325675 -6.5 0
      vertex -3.6193082098640783 -1.7031171662602897 0
      vertex -3.505226720175454 -1.9270146964068615 0
    endloop
  endfacet
  facet normal 0 0 -1
    outer loop
      vertex -3.7527767497325675 -6.5 0
      vertex -3.0820529711031575 -2.5496959589947585 0
      vertex -2.9158745096856467 -2.738188423714754 0
    endloop
  endfacet
  facet normal 0 0 -1
    outer loop
      vertex -3.7527767497325675 -6.5 0
      vertex -2.9158745096856467 -2.738188423714754 0
      vertex -2.738188423714754 -2.9158745096856467 0
    endloop
  endfacet
  facet normal 0 0 -1
    outer loop
      vertex -3.7527767497325675 -6.5 0
      vertex -1.9270146964068615 -3.505226720175454 0
      vertex -1.7031171662602897 -3.6193082098640783 0
    endloop
  endfacet
  facet normal 0 0 -1
    outer loop
      vertex -3.7527767497325675 -6.5 0
      vertex -2.3511410091698925 -3.23606797749979 0
      vertex -2.143307179915987 -3.37731170200806 0
    endloop
  endfacet
  facet normal 0 0 -1
    outer loop
      vertex -3.7527767497325675 -6.5 0
      vertex -2.143307179915987 -3.37731170200806 0
      vertex -1.9270146964068615 -3.505226720175454 0
    endloop
  endfacet
  facet normal 0 0 -1
    outer loop
      vertex -3.7527767497325675 -6.5 0
      vertex -1.4724982107387115 -3.719105943553006 0
      vertex -1.2360679774997896 -3.804226065180614 0
    endloop
  endfacet
  facet normal 0 0 -1
    outer loop
      vertex -3.7527767497325675 -6.5 0
      vertex -1.7031171662602897 -3.6193082098640783 0
      vertex -1.4724982107387115 -3.719105943553006 0
    endloop
  endfacet
  facet normal 0 0 -1
    outer loop
      vertex -3.7527767497325675 -6.5 0
      vertex -1.2360679774997896 -3.804226065180614 0
      vertex -0.9947595486594194 -3.8743326445145243 0
    endloop
  endfacet
  facet normal 0 0 -1
    outer loop
      vertex -3.7527767497325675 -6.5 0
      vertex -0.5013329342572163 -3.9684588052579115 0
      vertex 3.7527767497325675 -6.5 0
    endloop
  endfacet
  facet normal 0 -1 0
    outer loop
      vertex -3.7527767497325675 -6.5 0
      vertex 3.7527767497325675 -6.5 5.3
      vertex -3.7527767497325675 -6.5 5.3
    endloop
  endfacet
  facet normal 0 0 -1
    outer loop
      vertex -3.7527767497325675 -6.5 0
      vertex -0.9947595486594194 -3.8743326445145243 0
      vertex -0.7495252583428993 -3.9291490029147544 0
    endloop
  endfacet
  facet normal 0 0 -1
    outer loop
      vertex -3.7527767497325675 -6.5 0
      vertex -0.7495252583428993 -3.9291490029147544 0
      vertex -0.5013329342572163 -3.9684588052579115 0
    endloop
  endfacet
  facet normal 0 0 -1
    outer loop
      vertex -3.7527767497325675 -6.5 0
      vertex -3.719105943553006 -1.4724982107387115 0
      vertex -3.6193082098640783 -1.7031171662602897 0
    endloop
  endfacet
  facet normal 0 0 1
    outer loop
      vertex -3.7527767497325675 -6.5 5.3
      vertex 3.7527767497325675 -6.5 5.3
      vertex -3.7527767497325675 6.5 5.3
    endloop
  endfacet
  facet normal -0.8660254037844386 0.5 0
    outer loop
      vertex -7.505553499465135 0 0
      vertex -7.505553499465135 0 5.3
      vertex -3.7527767497325675 6.5 5.3
    endloop
  endfacet
  facet normal 0 0 -1
    outer loop
      vertex -7.505553499465135 0 0
      vertex -3.9921069137130862 0.2511620781172531 0
      vertex -4 0 0
    endloop
  endfacet
  facet normal 0 0 -1
    outer loop
      vertex -7.505553499465135 0 0
      vertex -3.9684588052579115 0.5013329342572163 0
      vertex -3.9921069137130862 0.2511620781172531 0
    endloop
  endfacet
  facet normal 0 0 -1
    outer loop
      vertex -7.505553499465135 0 0
      vertex -3.9291490029147544 0.7495252583428993 0
      vertex -3.9684588052579115 0.5013329342572163 0
    endloop
  endfacet
  facet normal 0 0 -1
    outer loop
      vertex -7.505553499465135 0 0
      vertex -3.8743326445145243 0.9947595486594194 0
      vertex -3.9291490029147544 0.7495252583428993 0
    endloop
  endfacet
  facet normal 0 0 -1
    outer loop
      vertex -7.505553499465135 0 0
      vertex -3.804226065180614 1.2360679774997896 0
      vertex -3.8743326445145243 0.9947595486594194 0
    endloop
  endfacet
  facet normal 0 0 1
    outer loop
      vertex -3.7527767497325675 -6.5 5.3
      vertex -3.7527767497325675 6.5 5.3
      vertex -7.505553499465135 0 5.3
    endloop
  endfacet
  facet normal 0 0 -1
    outer loop
      vertex -7.505553499465135 0 0
      vertex -3.7527767497325675 6.5 0
      vertex -3.804226065180614 1.2360679774997896 0
    endloop
  endfacet
  facet normal 0 0 -1
    outer loop
      vertex -3.7527767497325675 6.5 0
      vertex -3.719105943553006 1.4724982107387115 0
      vertex -3.804226065180614 1.2360679774997896 0
    endloop
  endfacet
  facet normal -0.8660254037844386 0.5 0
    outer loop
      vertex -7.505553499465135 0 0
      vertex -3.7527767497325675 6.5 5.3
      vertex -3.7527767497325675 6.5 0
    endloop
  endfacet
  facet normal 0 0 -1
    outer loop
      vertex -3.7527767497325675 6.5 0
      vertex -3.6193082098640783 1.7031171662602897 0
      vertex -3.719105943553006 1.4724982107387115 0
    endloop
  endfacet
  facet normal 0 0 -1
    outer loop
      vertex -3.7527767497325675 6.5 0
      vertex -3.505226720175454 1.9270146964068615 0
      vertex -3.6193082098640783 1.7031171662602897 0
    endloop
  endfacet
  facet normal 0 0 -1
    outer loop
      vertex -3.7527767497325675 6.5 0
      vertex -3.37731170200806 2.143307179915987 0
      vertex -3.505226720175454 1.9270146964068615 0
    endloop
  endfacet
  facet normal 0 0 -1
    outer loop
      vertex -3.7527767497325675 6.5 0
      vertex -3.23606797749979 2.3511410091698925 0
      vertex -3.37731170200806 2.143307179915987 0
    endloop
  endfacet
  facet normal 0 0 -1
    outer loop
      vertex -3.7527767497325675 6.5 0
      vertex -3.0820529711031575 2.5496959589947585 0
      vertex -3.23606797749979 2.3511410091698925 0
    endloop
  endfacet
  facet normal 0 0 -1
    outer loop
      vertex -3.7527767497325675 6.5 0
      vertex -2.9158745096856467 2.738188423714754 0
      vertex -3.0820529711031575 2.5496959589947585 0
    endloop
  endfacet
  facet normal 0 0 -1
    outer loop
      vertex -3.7527767497325675 6.5 0
      vertex -2.738188423714754 2.9158745096856467 0
      vertex -2.9158745096856467 2.738188423714754 0
    endloop
  endfacet
  facet normal 0 0 -1
    outer loop
      vertex -3.7527767497325675 6.5 0
      vertex -2.5496959589947585 3.0820529711031575 0
      vertex -2.738188423714754 2.9158745096856467 0
    endloop
  endfacet
  facet normal 0 0 -1
    outer loop
      vertex -3.7527767497325675 6.5 0
      vertex -2.3511410091698925 3.23606797749979 0
      vertex -2.5496959589947585 3.0820529711031575 0
    endloop
  endfacet
  facet normal 0 0 -1
    outer loop
      vertex -3.7527767497325675 6.5 0
      vertex -2.143307179915987 3.37731170200806 0
      vertex -2.3511410091698925 3.23606797749979 0
    endloop
  endfacet
  facet normal 0 0 -1
    outer loop
      vertex -3.7527767497325675 6.5 0
      vertex -1.9270146964068608 3.5052267201754543 0
      vertex -2.143307179915987 3.37731170200806 0
    endloop
  endfacet
  facet normal 0 0 -1
    outer loop
      vertex -3.7527767497325675 6.5 0
      vertex -1.7031171662602909 3.619308209864078 0
      vertex -1.9270146964068608 3.5052267201754543 0
    endloop
  endfacet
  facet normal 0 0 -1
    outer loop
      vertex -3.7527767497325675 6.5 0
      vertex -1.4724982107387115 3.719105943553006 0
      vertex -1.7031171662602909 3.619308209864078 0
    endloop
  endfacet
  facet normal 0 0 -1
    outer loop
      vertex -3.7527767497325675 6.5 0
      vertex -1.2360679774997896 3.804226065180614 0
      vertex -1.4724982107387115 3.719105943553006 0
    endloop
  endfacet
  facet normal 0 0 -1
    outer loop
      vertex -3.7527767497325675 6.5 0
      vertex -0.9947595486594194 3.8743326445145243 0
      vertex -1.2360679774997896 3.804226065180614 0
    endloop
  endfacet
  facet normal 0 0 -1
    outer loop
      vertex -3.7527767497325675 6.5 0
      vertex -0.7495252583428983 3.929149002914755 0
      vertex -0.9947595486594194 3.8743326445145243 0
    endloop
  endfacet
  facet normal 0 0 -1
    outer loop
      vertex -3.7527767497325675 6.5 0
      vertex -0.5013329342572171 3.9684588052579115 0
      vertex -0.7495252583428983 3.929149002914755 0
    endloop
  endfacet
  facet normal 0 0 -1
    outer loop
      vertex -3.7527767497325675 6.5 0
      vertex -0.2511620781172531 3.9921069137130862 0
      vertex -0.5013329342572171 3.9684588052579115 0
    endloop
  endfacet
  facet normal 0 0 -1
    outer loop
      vertex -3.7527767497325675 6.5 0
      vertex 0 4 0
      vertex -0.2511620781172531 3.9921069137130862 0
    endloop
  endfacet
  facet normal 0 0 -1
    outer loop
      vertex -3.7527767497325675 6.5 0
      vertex 0.2511620781172531 3.9921069137130862 0
      vertex 0 4 0
    endloop
  endfacet
  facet normal 0 0 -1
    outer loop
      vertex -3.7527767497325675 6.5 0
      vertex 0.5013329342572171 3.9684588052579115 0
      vertex 0.2511620781172531 3.9921069137130862 0
    endloop
  endfacet
  facet normal 0 1 0
    outer loop
      vertex -3.7527767497325675 6.5 0
      vertex -3.7527767497325675 6.5 5.3
      vertex 3.7527767497325675 6.5 0
    endloop
  endfacet
  facet normal 0 -1 0
    outer loop
      vertex -3.7527767497325675 -6.5 0
      vertex 3.7527767497325675 -6.5 0
      vertex 3.7527767497325675 -6.5 5.3
    endloop
  endfacet
  facet normal 0 0 -1
    outer loop
      vertex 3.7527767497325675 -6.5 0
      vertex -0.5013329342572163 -3.9684588052579115 0
      vertex -0.25116207811725505 -3.9921069137130862 0
    endloop
  endfacet
  facet normal 0 0 -1
    outer loop
      vertex 3.7527767497325675 -6.5 0
      vertex -0.25116207811725505 -3.9921069137130862 0
      vertex 0 -4 0
    endloop
  endfacet
  facet normal 0 0 -1
    outer loop
      vertex 3.7527767497325675 -6.5 0
      vertex 0 -4 0
      vertex 0.25116207811725505 -3.9921069137130862 0
    endloop
  endfacet
  facet normal 0 0 -1
    outer loop
      vertex 3.7527767497325675 -6.5 0
      vertex 0.25116207811725505 -3.9921069137130862 0
      vertex 0.5013329342572163 -3.9684588052579115 0
    endloop
  endfacet
  facet normal 0 0 -1
    outer loop
      vertex 3.7527767497325675 -6.5 0
      vertex 0.5013329342572163 -3.9684588052579115 0
      vertex 0.7495252583428993 -3.9291490029147544 0
    endloop
  endfacet
  facet normal 0 0 -1
    outer loop
      vertex 3.7527767497325675 -6.5 0
      vertex 0.7495252583428993 -3.9291490029147544 0
      vertex 0.9947595486594177 -3.8743326445145247 0
    endloop
  endfacet
  facet normal 0 0 -1
    outer loop
      vertex 3.7527767497325675 -6.5 0
      vertex 0.9947595486594177 -3.8743326445145247 0
      vertex 1.2360679774997896 -3.804226065180614 0
    endloop
  endfacet
  facet normal 0 0 -1
    outer loop
      vertex 3.7527767497325675 -6.5 0
      vertex 1.2360679774997896 -3.804226065180614 0
      vertex 1.4724982107387135 -3.719105943553005 0
    endloop
  endfacet
  facet normal 0 0 -1
    outer loop
      vertex 3.7527767497325675 -6.5 0
      vertex 1.4724982107387135 -3.719105943553005 0
      vertex 1.7031171662602897 -3.6193082098640783 0
    endloop
  endfacet
  facet normal 0 0 -1
    outer loop
      vertex 3.7527767497325675 -6.5 0
      vertex 1.7031171662602897 -3.6193082098640783 0
      vertex 1.9270146964068615 -3.505226720175454 0
    endloop
  endfacet
  facet normal 0 0 -1
    outer loop
      vertex 3.7527767497325675 -6.5 0
      vertex 1.9270146964068615 -3.505226720175454 0
      vertex 2.143307179915985 -3.377311702008061 0
    endloop
  endfacet
  facet normal 0 0 -1
    outer loop
      vertex 3.7527767497325675 -6.5 0
      vertex 2.143307179915985 -3.377311702008061 0
      vertex 2.3511410091698925 -3.23606797749979 0
    endloop
  endfacet
  facet normal 0 0 -1
    outer loop
      vertex 3.7527767497325675 -6.5 0
      vertex 2.3511410091698925 -3.23606797749979 0
      vertex 2.54969595899476 -3.082052971103156 0
    endloop
  endfacet
  facet normal 0 0 -1
    outer loop
      vertex 3.7527767497325675 -6.5 0
      vertex 2.54969595899476 -3.082052971103156 0
      vertex 2.738188423714754 -2.9158745096856467 0
    endloop
  endfacet
  facet normal 0 0 -1
    outer loop
      vertex 3.7527767497325675 -6.5 0
      vertex 2.738188423714754 -2.9158745096856467 0
      vertex 2.9158745096856467 -2.738188423714754 0
    endloop
  endfacet
  facet normal 0 0 -1
    outer loop
      vertex 3.7527767497325675 -6.5 0
      vertex 2.9158745096856467 -2.738188423714754 0
      vertex 3.082052971103156 -2.54969595899476 0
    endloop
  endfacet
  facet normal 0 0 -1
    outer loop
      vertex 3.7527767497325675 -6.5 0
      vertex 3.082052971103156 -2.54969595899476 0
      vertex 3.23606797749979 -2.3511410091698925 0
    endloop
  endfacet
  facet normal 0 0 -1
    outer loop
      vertex 3.7527767497325675 -6.5 0
      vertex 3.23606797749979 -2.3511410091698925 0
      vertex 3.377311702008061 -2.143307179915985 0
    endloop
  endfacet
  facet normal 0 0 -1
    outer loop
      vertex 3.7527767497325675 -6.5 0
      vertex 3.377311702008061 -2.143307179915985 0
      vertex 3.505226720175454 -1.9270146964068615 0
    endloop
  endfacet
  facet normal 0 0 -1
    outer loop
      vertex 3.7527767497325675 -6.5 0
      vertex 3.505226720175454 -1.9270146964068615 0
      vertex 3.6193082098640783 -1.7031171662602897 0
    endloop
  endfacet
  facet normal 0 0 -1
    outer loop
      vertex 3.7527767497325675 -6.5 0
      vertex 3.6193082098640783 -1.7031171662602897 0
      vertex 3.719105943553005 -1.4724982107387135 0
    endloop
  endfacet
  facet normal 0.8660254037844386 -0.5 0
    outer loop
      vertex 3.7527767497325675 -6.5 0
      vertex 7.505553499465135 0 0
      vertex 3.7527767497325675 -6.5 5.3
    endloop
  endfacet
  facet normal 0 0 -1
    outer loop
      vertex 3.7527767497325675 -6.5 0
      vertex 3.719105943553005 -1.4724982107387135 0
      vertex 3.804226065180614 -1.2360679774997896 0
    endloop
  endfacet
  facet normal 0 0 -1
    outer loop
      vertex 3.7527767497325675 -6.5 0
      vertex 3.804226065180614 -1.2360679774997896 0
      vertex 7.505553499465135 0 0
    endloop
  endfacet
  facet normal 0 0 -1
    outer loop
      vertex 7.505553499465135 0 0
      vertex 3.804226065180614 -1.2360679774997896 0
      vertex 3.8743326445145247 -0.9947595486594177 0
    endloop
  endfacet
  facet normal 0 0 -1
    outer loop
      vertex 7.505553499465135 0 0
      vertex 3.8743326445145247 -0.9947595486594177 0
      vertex 3.9291490029147544 -0.7495252583428993 0
    endloop
  endfacet
  facet normal 0 0 -1
    outer loop
      vertex 7.505553499465135 0 0
      vertex 3.9291490029147544 -0.7495252583428993 0
      vertex 3.9684588052579115 -0.5013329342572163 0
    endloop
  endfacet
  facet normal 0 0 -1
    outer loop
      vertex 7.505553499465135 0 0
      vertex 3.9684588052579115 -0.5013329342572163 0
      vertex 3.9921069137130862 -0.25116207811725505 0
    endloop
  endfacet
  facet normal 0 0 -1
    outer loop
      vertex 7.505553499465135 0 0
      vertex 3.9921069137130862 -0.25116207811725505 0
      vertex 4 0 0
    endloop
  endfacet
  facet normal 0.8660254037844386 -0.5 0
    outer loop
      vertex 3.7527767497325675 -6.5 5.3
      vertex 7.505553499465135 0 0
      vertex 7.505553499465135 0 5.3
    endloop
  endfacet
  facet normal 0 0 1
    outer loop
      vertex -3.7527767497325675 6.5 5.3
      vertex 3.7527767497325675 -6.5 5.3
      vertex 3.7527767497325675 6.5 5.3
    endloop
  endfacet
  facet normal 0 0 -1
    outer loop
      vertex 3.7527767497325675 6.5 0
      vertex 3.7191059435530054 1.472498210738712 0
      vertex 3.6193082098640783 1.7031171662602906 0
    endloop
  endfacet
  facet normal 0 0 -1
    outer loop
      vertex 3.7527767497325675 6.5 0
      vertex 0.7495252583428983 3.929149002914755 0
      vertex 0.5013329342572171 3.9684588052579115 0
    endloop
  endfacet
  facet normal 0 0 -1
    outer loop
      vertex 3.7527767497325675 6.5 0
      vertex 0.9947595486594194 3.8743326445145243 0
      vertex 0.7495252583428983 3.929149002914755 0
    endloop
  endfacet
  facet normal 0 0 -1
    outer loop
      vertex -3.7527767497325675 6.5 0
      vertex 3.7527767497325675 6.5 0
      vertex 0.5013329342572171 3.9684588052579115 0
    endloop
  endfacet
  facet normal 0 1 0
    outer loop
      vertex -3.7527767497325675 6.5 5.3
      vertex 3.7527767497325675 6.5 5.3
      vertex 3.7527767497325675 6.5 0
    endloop
  endfacet
  facet normal 0 0 -1
    outer loop
      vertex 3.7527767497325675 6.5 0
      vertex 1.2360679774997896 3.804226065180614 0
      vertex 0.9947595486594194 3.8743326445145243 0
    endloop
  endfacet
  facet normal 0 0 -1
    outer loop
      vertex 3.7527767497325675 6.5 0
      vertex 1.7031171662602909 3.619308209864078 0
      vertex 1.4724982107387115 3.719105943553006 0
    endloop
  endfacet
  facet normal 0 0 -1
    outer loop
      vertex 3.7527767497325675 6.5 0
      vertex 1.4724982107387115 3.719105943553006 0
      vertex 1.2360679774997896 3.804226065180614 0
    endloop
  endfacet
  facet normal 0 0 -1
    outer loop
      vertex 3.7527767497325675 6.5 0
      vertex 2.1433071799159866 3.3773117020080603 0
      vertex 1.9270146964068608 3.5052267201754543 0
    endloop
  endfacet
  facet normal 0 0 -1
    outer loop
      vertex 3.7527767497325675 6.5 0
      vertex 2.3511410091698925 3.23606797749979 0
      vertex 2.1433071799159866 3.3773117020080603 0
    endloop
  endfacet
  facet normal 0 0 -1
    outer loop
      vertex 3.7527767497325675 6.5 0
      vertex 1.9270146964068608 3.5052267201754543 0
      vertex 1.7031171662602909 3.619308209864078 0
    endloop
  endfacet
  facet normal 0 0 -1
    outer loop
      vertex 3.7527767497325675 6.5 0
      vertex 2.915874509685646 2.738188423714755 0
      vertex 2.738188423714755 2.915874509685646 0
    endloop
  endfacet
  facet normal 0 0 -1
    outer loop
      vertex 3.7527767497325675 6.5 0
      vertex 3.0820529711031566 2.549695958994759 0
      vertex 2.915874509685646 2.738188423714755 0
    endloop
  endfacet
  facet normal 0 0 -1
    outer loop
      vertex 3.7527767497325675 6.5 0
      vertex 3.6193082098640783 1.7031171662602906 0
      vertex 3.5052267201754543 1.9270146964068613 0
    endloop
  endfacet
  facet normal 0 0 -1
    outer loop
      vertex 3.7527767497325675 6.5 0
      vertex 3.5052267201754543 1.9270146964068613 0
      vertex 3.3773117020080603 2.1433071799159866 0
    endloop
  endfacet
  facet normal 0 0 -1
    outer loop
      vertex 3.7527767497325675 6.5 0
      vertex 3.23606797749979 2.3511410091698925 0
      vertex 3.0820529711031566 2.549695958994759 0
    endloop
  endfacet
  facet normal 0 0 -1
    outer loop
      vertex 3.7527767497325675 6.5 0
      vertex 3.3773117020080603 2.1433071799159866 0
      vertex 3.23606797749979 2.3511410091698925 0
    endloop
  endfacet
  facet normal 0 0 -1
    outer loop
      vertex 3.7527767497325675 6.5 0
      vertex 2.738188423714755 2.915874509685646 0
      vertex 2.549695958994759 3.0820529711031566 0
    endloop
  endfacet
  facet normal 0 0 -1
    outer loop
      vertex 3.7527767497325675 6.5 0
      vertex 2.549695958994759 3.0820529711031566 0
      vertex 2.3511410091698925 3.23606797749979 0
    endloop
  endfacet
  facet normal 0 0 -1
    outer loop
      vertex 7.505553499465135 0 0
      vertex 3.9921069137130862 0.2511620781172535 0
      vertex 3.9684588052579115 0.501332934257217 0
    endloop
  endfacet
  facet normal 0 0 -1
    outer loop
      vertex 7.505553499465135 0 0
      vertex 3.9684588052579115 0.501332934257217 0
      vertex 3.929149002914755 0.7495252583428985 0
    endloop
  endfacet
  facet normal 0 0 -1
    outer loop
      vertex 7.505553499465135 0 0
      vertex 3.929149002914755 0.7495252583428985 0
      vertex 3.8743326445145243 0.9947595486594192 0
    endloop
  endfacet
  facet normal 0 0 -1
    outer loop
      vertex 7.505553499465135 0 0
      vertex 3.8743326445145243 0.9947595486594192 0
      vertex 3.804226065180614 1.2360679774997896 0
    endloop
  endfacet
  facet normal 0 0 -1
    outer loop
      vertex 7.505553499465135 0 0
      vertex 4 0 0
      vertex 3.9921069137130862 0.2511620781172535 0
    endloop
  endfacet
  facet normal 0 0 -1
    outer loop
      vertex 7.505553499465135 0 0
      vertex 3.804226065180614 1.2360679774997896 0
      vertex 3.7191059435530054 1.472498210738712 0
    endloop
  endfacet
  facet normal 0 0 1
    outer loop
      vertex 3.7527767497325675 -6.5 5.3
      vertex 7.505553499465135 0 5.3
      vertex 3.7527767497325675 6.5 5.3
    endloop
  endfacet
  facet normal 0 0 -1
    outer loop
      vertex 3.7527767497325675 6.5 0
      vertex 7.505553499465135 0 0
      vertex 3.7191059435530054 1.472498210738712 0
    endloop
  endfacet
  facet normal 0.8660254037844386 0.5 0
    outer loop
      vertex 3.7527767497325675 6.5 0
      vertex 7.505553499465135 0 5.3
      vertex 7.505553499465135 0 0
    endloop
  endfacet
  facet normal 0.8660254037844386 0.5 0
    outer loop
      vertex 3.7527767497325675 6.5 0
      vertex 3.7527767497325675 6.5 5.3
      vertex 7.505553499465135 0 5.3
    endloop
  endfacet
  facet normal 0 0 -1
    outer loop
      vertex -3.8743326445145243 -0.9947595486594194 -30
      vertex -3.9291490029147544 -0.7495252583428993 -30
      vertex -3.8743326445145243 0.9947595486594194 -30
    endloop
  endfacet
  facet normal 0 0 -1
    outer loop
      vertex -3.804226065180614 -1.2360679774997896 -30
      vertex -3.8743326445145243 -0.9947595486594194 -30
      vertex -3.804226065180614 1.2360679774997896 -30
    endloop
  endfacet
  facet normal 0 0 -1
    outer loop
      vertex -3.9291490029147544 -0.7495252583428993 -30
      vertex -3.9684588052579115 -0.5013329342572163 -30
      vertex -3.9291490029147544 0.7495252583428993 -30
    endloop
  endfacet
  facet normal 0 0 -1
    outer loop
      vertex -3.9684588052579115 -0.5013329342572163 -30
      vertex -3.9921069137130862 -0.2511620781172531 -30
      vertex -3.9684588052579115 0.5013329342572163 -30
    endloop
  endfacet
  facet normal -0.9408807689542258 -0.33873792024529037 0
    outer loop
      vertex -3.804226065180614 -1.2360679774997896 -30
      vertex -3.719105943553006 -1.4724982107387115 -30
      vertex -3.804226065180614 -1.2360679774997896 0
    endloop
  endfacet
  facet normal -0.960293685676943 -0.2789911060392296 0
    outer loop
      vertex -3.804226065180614 -1.2360679774997896 -30
      vertex -3.8743326445145243 -0.9947595486594194 0
      vertex -3.8743326445145243 -0.9947595486594194 -30
    endloop
  endfacet
  facet normal -0.9759167619387473 -0.21814324139654256 0
    outer loop
      vertex -3.8743326445145243 -0.9947595486594194 -30
      vertex -3.9291490029147544 -0.7495252583428993 0
      vertex -3.9291490029147544 -0.7495252583428993 -30
    endloop
  endfacet
  facet normal -0.9876883405951375 -0.15643446504023176 0
    outer loop
      vertex -3.9291490029147544 -0.7495252583428993 -30
      vertex -3.9684588052579115 -0.5013329342572163 0
      vertex -3.9684588052579115 -0.5013329342572163 -30
    endloop
  endfacet
  facet normal -0.9995065603657316 -0.03141075907812839 0
    outer loop
      vertex -3.9921069137130862 -0.2511620781172531 -30
      vertex -4 0 0
      vertex -4 0 -30
    endloop
  endfacet
  facet normal -0.9955619646030801 -0.09410831331851369 0
    outer loop
      vertex -3.9684588052579115 -0.5013329342572163 -30
      vertex -3.9921069137130862 -0.2511620781172531 0
      vertex -3.9921069137130862 -0.2511620781172531 -30
    endloop
  endfacet
  facet normal -0.5620833778521301 -0.8270805742745622 0
    outer loop
      vertex -2.3511410091698925 -3.23606797749979 -30
      vertex -2.143307179915987 -3.37731170200806 -30
      vertex -2.143307179915987 -3.37731170200806 0
    endloop
  endfacet
  facet normal -0.509041415750371 -0.8607420270039439 0
    outer loop
      vertex -2.143307179915987 -3.37731170200806 -30
      vertex -1.9270146964068615 -3.505226720175454 -30
      vertex -1.9270146964068615 -3.505226720175454 0
    endloop
  endfacet
  facet normal -0.39714789063478134 -0.9177546256839808 0
    outer loop
      vertex -1.7031171662602897 -3.6193082098640783 -30
      vertex -1.4724982107387115 -3.719105943553006 -30
      vertex -1.4724982107387115 -3.719105943553006 0
    endloop
  endfacet
  facet normal -0.45399049973954686 -0.8910065241883678 0
    outer loop
      vertex -1.9270146964068615 -3.505226720175454 -30
      vertex -1.7031171662602897 -3.6193082098640783 -30
      vertex -1.7031171662602897 -3.6193082098640783 0
    endloop
  endfacet
  facet normal -0.33873792024529037 -0.9408807689542258 0
    outer loop
      vertex -1.4724982107387115 -3.719105943553006 -30
      vertex -1.2360679774997896 -3.804226065180614 -30
      vertex -1.2360679774997896 -3.804226065180614 0
    endloop
  endfacet
  facet normal -0.2789911060392296 -0.960293685676943 0
    outer loop
      vertex -1.2360679774997896 -3.804226065180614 -30
      vertex -0.9947595486594194 -3.8743326445145243 -30
      vertex -0.9947595486594194 -3.8743326445145243 0
    endloop
  endfacet
  facet normal -0.21814324139654256 -0.9759167619387473 0
    outer loop
      vertex -0.9947595486594194 -3.8743326445145243 -30
      vertex -0.7495252583428993 -3.9291490029147544 -30
      vertex -0.7495252583428993 -3.9291490029147544 0
    endloop
  endfacet
  facet normal -0.15643446504023176 -0.9876883405951375 0
    outer loop
      vertex -0.7495252583428993 -3.9291490029147544 -30
      vertex -0.5013329342572163 -3.9684588052579115 -30
      vertex -0.5013329342572163 -3.9684588052579115 0
    endloop
  endfacet
  facet normal -0.09410831331851442 -0.99556196460308 0
    outer loop
      vertex -0.5013329342572163 -3.9684588052579115 -30
      vertex -0.25116207811725505 -3.9921069137130862 -30
      vertex -0.25116207811725505 -3.9921069137130862 0
    endloop
  endfacet
  facet normal -0.031410759078128146 -0.9995065603657315 0
    outer loop
      vertex -0.25116207811725505 -3.9921069137130862 -30
      vertex 0 -4 -30
      vertex 0 -4 0
    endloop
  endfacet
  facet normal 0 0 -1
    outer loop
      vertex -3.0820529711031575 -2.5496959589947585 -30
      vertex -2.9158745096856467 2.738188423714754 -30
      vertex -2.9158745096856467 -2.738188423714754 -30
    endloop
  endfacet
  facet normal 0 0 -1
    outer loop
      vertex -3.804226065180614 -1.2360679774997896 -30
      vertex -3.719105943553006 1.4724982107387115 -30
      vertex -3.719105943553006 -1.4724982107387115 -30
    endloop
  endfacet
  facet normal 0 0 -1
    outer loop
      vertex -3.6193082098640783 -1.7031171662602897 -30
      vertex -3.719105943553006 -1.4724982107387115 -30
      vertex -3.6193082098640783 1.7031171662602897 -30
    endloop
  endfacet
  facet normal 0 0 -1
    outer loop
      vertex -3.505226720175454 -1.9270146964068615 -30
      vertex -3.6193082098640783 -1.7031171662602897 -30
      vertex -3.505226720175454 1.9270146964068615 -30
    endloop
  endfacet
  facet normal 0 0 -1
    outer loop
      vertex -3.37731170200806 -2.143307179915987 -30
      vertex -3.505226720175454 -1.9270146964068615 -30
      vertex -3.37731170200806 2.143307179915987 -30
    endloop
  endfacet
  facet normal 0 0 -1
    outer loop
      vertex -3.37731170200806 -2.143307179915987 -30
      vertex -3.23606797749979 2.3511410091698925 -30
      vertex -3.23606797749979 -2.3511410091698925 -30
    endloop
  endfacet
  facet normal 0 0 -1
    outer loop
      vertex -3.0820529711031575 -2.5496959589947585 -30
      vertex -3.23606797749979 -2.3511410091698925 -30
      vertex -3.0820529711031575 2.5496959589947585 -30
    endloop
  endfacet
  facet normal 0 0 -1
    outer loop
      vertex -2.9158745096856467 -2.738188423714754 -30
      vertex -2.738188423714754 2.9158745096856467 -30
      vertex -2.738188423714754 -2.9158745096856467 -30
    endloop
  endfacet
  facet normal 0 0 -1
    outer loop
      vertex -2.5496959589947585 -3.0820529711031575 -30
      vertex -2.738188423714754 -2.9158745096856467 -30
      vertex -2.5496959589947585 3.0820529711031575 -30
    endloop
  endfacet
  facet normal 0 0 -1
    outer loop
      vertex -2.5496959589947585 -3.0820529711031575 -30
      vertex -2.3511410091698925 3.23606797749979 -30
      vertex -2.3511410091698925 -3.23606797749979 -30
    endloop
  endfacet
  facet normal 0 0 -1
    outer loop
      vertex -2.3511410091698925 -3.23606797749979 -30
      vertex -2.143307179915987 3.37731170200806 -30
      vertex -2.143307179915987 -3.37731170200806 -30
    endloop
  endfacet
  facet normal 0 0 -1
    outer loop
      vertex -2.143307179915987 -3.37731170200806 -30
      vertex -1.9270146964068608 3.5052267201754543 -30
      vertex -1.9270146964068615 -3.505226720175454 -30
    endloop
  endfacet
  facet normal 0 0 -1
    outer loop
      vertex -1.9270146964068615 -3.505226720175454 -30
      vertex -1.7031171662602909 3.619308209864078 -30
      vertex -1.7031171662602897 -3.6193082098640783 -30
    endloop
  endfacet
  facet normal 0 0 -1
    outer loop
      vertex -1.7031171662602897 -3.6193082098640783 -30
      vertex -1.4724982107387115 3.719105943553006 -30
      vertex -1.4724982107387115 -3.719105943553006 -30
    endloop
  endfacet
  facet normal 0 0 -1
    outer loop
      vertex -1.4724982107387115 -3.719105943553006 -30
      vertex -1.2360679774997896 3.804226065180614 -30
      vertex -1.2360679774997896 -3.804226065180614 -30
    endloop
  endfacet
  facet normal 0 0 -1
    outer loop
      vertex -1.2360679774997896 -3.804226065180614 -30
      vertex -0.9947595486594194 3.8743326445145243 -30
      vertex -0.9947595486594194 -3.8743326445145243 -30
    endloop
  endfacet
  facet normal 0 0 -1
    outer loop
      vertex -0.9947595486594194 -3.8743326445145243 -30
      vertex -0.7495252583428983 3.929149002914755 -30
      vertex -0.7495252583428993 -3.9291490029147544 -30
    endloop
  endfacet
  facet normal 0 0 -1
    outer loop
      vertex -0.7495252583428993 -3.9291490029147544 -30
      vertex -0.5013329342572171 3.9684588052579115 -30
      vertex -0.5013329342572163 -3.9684588052579115 -30
    endloop
  endfacet
  facet normal 0 0 -1
    outer loop
      vertex -0.5013329342572163 -3.9684588052579115 -30
      vertex -0.2511620781172531 3.9921069137130862 -30
      vertex -0.25116207811725505 -3.9921069137130862 -30
    endloop
  endfacet
  facet normal 0 0 -1
    outer loop
      vertex -0.25116207811725505 -3.9921069137130862 -30
      vertex 0 4 -30
      vertex 0 -4 -30
    endloop
  endfacet
  facet normal -0.7071067811865475 -0.7071067811865475 0
    outer loop
      vertex -2.9158745096856467 -2.738188423714754 -30
      vertex -2.738188423714754 -2.9158745096856467 -30
      vertex -2.9158745096856467 -2.738188423714754 0
    endloop
  endfacet
  facet normal -0.7501110696304589 -0.6613118653236526 0
    outer loop
      vertex -3.0820529711031575 -2.5496959589947585 -30
      vertex -2.9158745096856467 -2.738188423714754 -30
      vertex -3.0820529711031575 -2.5496959589947585 0
    endloop
  endfacet
  facet normal -0.8270805742745622 -0.5620833778521301 0
    outer loop
      vertex -3.37731170200806 -2.143307179915987 -30
      vertex -3.23606797749979 -2.3511410091698925 -30
      vertex -3.37731170200806 -2.143307179915987 0
    endloop
  endfacet
  facet normal -0.8910065241883678 -0.45399049973954686 0
    outer loop
      vertex -3.505226720175454 -1.9270146964068615 -30
      vertex -3.6193082098640783 -1.7031171662602897 0
      vertex -3.6193082098640783 -1.7031171662602897 -30
    endloop
  endfacet
  facet normal -0.8607420270039439 -0.509041415750371 0
    outer loop
      vertex -3.37731170200806 -2.143307179915987 -30
      vertex -3.505226720175454 -1.9270146964068615 0
      vertex -3.505226720175454 -1.9270146964068615 -30
    endloop
  endfacet
  facet normal -0.7901550123756906 -0.612907053652976 0
    outer loop
      vertex -3.0820529711031575 -2.5496959589947585 -30
      vertex -3.23606797749979 -2.3511410091698925 0
      vertex -3.23606797749979 -2.3511410091698925 -30
    endloop
  endfacet
  facet normal -0.6613118653236526 -0.7501110696304589 0
    outer loop
      vertex -2.5496959589947585 -3.0820529711031575 -30
      vertex -2.5496959589947585 -3.0820529711031575 0
      vertex -2.738188423714754 -2.9158745096856467 -30
    endloop
  endfacet
  facet normal -0.612907053652976 -0.7901550123756906 0
    outer loop
      vertex -2.5496959589947585 -3.0820529711031575 -30
      vertex -2.3511410091698925 -3.23606797749979 -30
      vertex -2.3511410091698925 -3.23606797749979 0
    endloop
  endfacet
  facet normal -0.9177546256839808 -0.39714789063478134 0
    outer loop
      vertex -3.6193082098640783 -1.7031171662602897 -30
      vertex -3.719105943553006 -1.4724982107387115 0
      vertex -3.719105943553006 -1.4724982107387115 -30
    endloop
  endfacet
  facet normal -0.960293685676943 -0.2789911060392296 0
    outer loop
      vertex -3.804226065180614 -1.2360679774997896 -30
      vertex -3.804226065180614 -1.2360679774997896 0
      vertex -3.8743326445145243 -0.9947595486594194 0
    endloop
  endfacet
  facet normal -0.9759167619387473 -0.21814324139654256 0
    outer loop
      vertex -3.8743326445145243 -0.9947595486594194 -30
      vertex -3.8743326445145243 -0.9947595486594194 0
      vertex -3.9291490029147544 -0.7495252583428993 0
    endloop
  endfacet
  facet normal -0.9876883405951375 -0.15643446504023176 0
    outer loop
      vertex -3.9291490029147544 -0.7495252583428993 -30
      vertex -3.9291490029147544 -0.7495252583428993 0
      vertex -3.9684588052579115 -0.5013329342572163 0
    endloop
  endfacet
  facet normal -0.9955619646030801 -0.09410831331851369 0
    outer loop
      vertex -3.9684588052579115 -0.5013329342572163 -30
      vertex -3.9684588052579115 -0.5013329342572163 0
      vertex -3.9921069137130862 -0.2511620781172531 0
    endloop
  endfacet
  facet normal -0.9995065603657316 -0.03141075907812839 0
    outer loop
      vertex -3.9921069137130862 -0.2511620781172531 -30
      vertex -3.9921069137130862 -0.2511620781172531 0
      vertex -4 0 0
    endloop
  endfacet
  facet normal -0.5620833778521301 -0.8270805742745622 0
    outer loop
      vertex -2.3511410091698925 -3.23606797749979 -30
      vertex -2.143307179915987 -3.37731170200806 0
      vertex -2.3511410091698925 -3.23606797749979 0
    endloop
  endfacet
  facet normal -0.509041415750371 -0.8607420270039439 0
    outer loop
      vertex -2.143307179915987 -3.37731170200806 -30
      vertex -1.9270146964068615 -3.505226720175454 0
      vertex -2.143307179915987 -3.37731170200806 0
    endloop
  endfacet
  facet normal -0.45399049973954686 -0.8910065241883678 0
    outer loop
      vertex -1.9270146964068615 -3.505226720175454 -30
      vertex -1.7031171662602897 -3.6193082098640783 0
      vertex -1.9270146964068615 -3.505226720175454 0
    endloop
  endfacet
  facet normal -0.39714789063478134 -0.9177546256839808 0
    outer loop
      vertex -1.7031171662602897 -3.6193082098640783 -30
      vertex -1.4724982107387115 -3.719105943553006 0
      vertex -1.7031171662602897 -3.6193082098640783 0
    endloop
  endfacet
  facet normal -0.33873792024529037 -0.9408807689542258 0
    outer loop
      vertex -1.4724982107387115 -3.719105943553006 -30
      vertex -1.2360679774997896 -3.804226065180614 0
      vertex -1.4724982107387115 -3.719105943553006 0
    endloop
  endfacet
  facet normal -0.2789911060392296 -0.960293685676943 0
    outer loop
      vertex -1.2360679774997896 -3.804226065180614 -30
      vertex -0.9947595486594194 -3.8743326445145243 0
      vertex -1.2360679774997896 -3.804226065180614 0
    endloop
  endfacet
  facet normal -0.21814324139654256 -0.9759167619387473 0
    outer loop
      vertex -0.9947595486594194 -3.8743326445145243 -30
      vertex -0.7495252583428993 -3.9291490029147544 0
      vertex -0.9947595486594194 -3.8743326445145243 0
    endloop
  endfacet
  facet normal -0.15643446504023176 -0.9876883405951375 0
    outer loop
      vertex -0.7495252583428993 -3.9291490029147544 -30
      vertex -0.5013329342572163 -3.9684588052579115 0
      vertex -0.7495252583428993 -3.9291490029147544 0
    endloop
  endfacet
  facet normal -0.09410831331851442 -0.99556196460308 0
    outer loop
      vertex -0.5013329342572163 -3.9684588052579115 -30
      vertex -0.25116207811725505 -3.9921069137130862 0
      vertex -0.5013329342572163 -3.9684588052579115 0
    endloop
  endfacet
  facet normal -0.031410759078128146 -0.9995065603657315 0
    outer loop
      vertex -0.25116207811725505 -3.9921069137130862 -30
      vertex 0 -4 0
      vertex -0.25116207811725505 -3.9921069137130862 0
    endloop
  endfacet
  facet normal -0.7901550123756906 -0.612907053652976 0
    outer loop
      vertex -3.0820529711031575 -2.5496959589947585 -30
      vertex -3.0820529711031575 -2.5496959589947585 0
      vertex -3.23606797749979 -2.3511410091698925 0
    endloop
  endfacet
  facet normal -0.7501110696304589 -0.6613118653236526 0
    outer loop
      vertex -2.9158745096856467 -2.738188423714754 -30
      vertex -2.9158745096856467 -2.738188423714754 0
      vertex -3.0820529711031575 -2.5496959589947585 0
    endloop
  endfacet
  facet normal -0.8607420270039439 -0.509041415750371 0
    outer loop
      vertex -3.37731170200806 -2.143307179915987 -30
      vertex -3.37731170200806 -2.143307179915987 0
      vertex -3.505226720175454 -1.9270146964068615 0
    endloop
  endfacet
  facet normal -0.8910065241883678 -0.45399049973954686 0
    outer loop
      vertex -3.505226720175454 -1.9270146964068615 -30
      vertex -3.505226720175454 -1.9270146964068615 0
      vertex -3.6193082098640783 -1.7031171662602897 0
    endloop
  endfacet
  facet normal -0.9177546256839808 -0.39714789063478134 0
    outer loop
      vertex -3.6193082098640783 -1.7031171662602897 -30
      vertex -3.6193082098640783 -1.7031171662602897 0
      vertex -3.719105943553006 -1.4724982107387115 0
    endloop
  endfacet
  facet normal -0.8270805742745622 -0.5620833778521301 0
    outer loop
      vertex -3.23606797749979 -2.3511410091698925 -30
      vertex -3.23606797749979 -2.3511410091698925 0
      vertex -3.37731170200806 -2.143307179915987 0
    endloop
  endfacet
  facet normal -0.7071067811865475 -0.7071067811865475 0
    outer loop
      vertex -2.738188423714754 -2.9158745096856467 -30
      vertex -2.738188423714754 -2.9158745096856467 0
      vertex -2.9158745096856467 -2.738188423714754 0
    endloop
  endfacet
  facet normal -0.6613118653236526 -0.7501110696304589 0
    outer loop
      vertex -2.738188423714754 -2.9158745096856467 -30
      vertex -2.5496959589947585 -3.0820529711031575 0
      vertex -2.738188423714754 -2.9158745096856467 0
    endloop
  endfacet
  facet normal -0.612907053652976 -0.7901550123756906 0
    outer loop
      vertex -2.5496959589947585 -3.0820529711031575 -30
      vertex -2.3511410091698925 -3.23606797749979 0
      vertex -2.5496959589947585 -3.0820529711031575 0
    endloop
  endfacet
  facet normal -0.9408807689542258 -0.33873792024529037 0
    outer loop
      vertex -3.719105943553006 -1.4724982107387115 -30
      vertex -3.719105943553006 -1.4724982107387115 0
      vertex -3.804226065180614 -1.2360679774997896 0
    endloop
  endfacet
  facet normal 0 0 -1
    outer loop
      vertex -3.9921069137130862 -0.2511620781172531 -30
      vertex -4 0 -30
      vertex -3.9921069137130862 0.2511620781172531 -30
    endloop
  endfacet
  facet normal 0 0 -1
    outer loop
      vertex -3.9921069137130862 -0.2511620781172531 -30
      vertex -3.9921069137130862 0.2511620781172531 -30
      vertex -3.9684588052579115 0.5013329342572163 -30
    endloop
  endfacet
  facet normal 0 0 -1
    outer loop
      vertex -3.9684588052579115 -0.5013329342572163 -30
      vertex -3.9684588052579115 0.5013329342572163 -30
      vertex -3.9291490029147544 0.7495252583428993 -30
    endloop
  endfacet
  facet normal 0 0 -1
    outer loop
      vertex -3.9291490029147544 -0.7495252583428993 -30
      vertex -3.9291490029147544 0.7495252583428993 -30
      vertex -3.8743326445145243 0.9947595486594194 -30
    endloop
  endfacet
  facet normal 0 0 -1
    outer loop
      vertex -3.8743326445145243 -0.9947595486594194 -30
      vertex -3.8743326445145243 0.9947595486594194 -30
      vertex -3.804226065180614 1.2360679774997896 -30
    endloop
  endfacet
  facet normal 0 0 -1
    outer loop
      vertex -3.804226065180614 -1.2360679774997896 -30
      vertex -3.804226065180614 1.2360679774997896 -30
      vertex -3.719105943553006 1.4724982107387115 -30
    endloop
  endfacet
  facet normal -0.9995065603657316 0.03141075907812839 0
    outer loop
      vertex -4 0 -30
      vertex -3.9921069137130862 0.2511620781172531 0
      vertex -3.9921069137130862 0.2511620781172531 -30
    endloop
  endfacet
  facet normal -0.9955619646030801 0.09410831331851369 0
    outer loop
      vertex -3.9921069137130862 0.2511620781172531 -30
      vertex -3.9684588052579115 0.5013329342572163 0
      vertex -3.9684588052579115 0.5013329342572163 -30
    endloop
  endfacet
  facet normal -0.9876883405951375 0.15643446504023176 0
    outer loop
      vertex -3.9684588052579115 0.5013329342572163 -30
      vertex -3.9291490029147544 0.7495252583428993 0
      vertex -3.9291490029147544 0.7495252583428993 -30
    endloop
  endfacet
  facet normal -0.9759167619387473 0.21814324139654256 0
    outer loop
      vertex -3.9291490029147544 0.7495252583428993 -30
      vertex -3.8743326445145243 0.9947595486594194 0
      vertex -3.8743326445145243 0.9947595486594194 -30
    endloop
  endfacet
  facet normal -0.960293685676943 0.2789911060392296 0
    outer loop
      vertex -3.8743326445145243 0.9947595486594194 -30
      vertex -3.804226065180614 1.2360679774997896 0
      vertex -3.804226065180614 1.2360679774997896 -30
    endloop
  endfacet
  facet normal 0 0 -1
    outer loop
      vertex -3.719105943553006 -1.4724982107387115 -30
      vertex -3.719105943553006 1.4724982107387115 -30
      vertex -3.6193082098640783 1.7031171662602897 -30
    endloop
  endfacet
  facet normal 0 0 -1
    outer loop
      vertex -3.6193082098640783 -1.7031171662602897 -30
      vertex -3.6193082098640783 1.7031171662602897 -30
      vertex -3.505226720175454 1.9270146964068615 -30
    endloop
  endfacet
  facet normal 0 0 -1
    outer loop
      vertex -3.505226720175454 -1.9270146964068615 -30
      vertex -3.505226720175454 1.9270146964068615 -30
      vertex -3.37731170200806 2.143307179915987 -30
    endloop
  endfacet
  facet normal 0 0 -1
    outer loop
      vertex -3.37731170200806 -2.143307179915987 -30
      vertex -3.37731170200806 2.143307179915987 -30
      vertex -3.23606797749979 2.3511410091698925 -30
    endloop
  endfacet
  facet normal 0 0 -1
    outer loop
      vertex -3.23606797749979 -2.3511410091698925 -30
      vertex -3.23606797749979 2.3511410091698925 -30
      vertex -3.0820529711031575 2.5496959589947585 -30
    endloop
  endfacet
  facet normal 0 0 -1
    outer loop
      vertex -3.0820529711031575 -2.5496959589947585 -30
      vertex -3.0820529711031575 2.5496959589947585 -30
      vertex -2.9158745096856467 2.738188423714754 -30
    endloop
  endfacet
  facet normal 0 0 -1
    outer loop
      vertex -2.9158745096856467 -2.738188423714754 -30
      vertex -2.9158745096856467 2.738188423714754 -30
      vertex -2.738188423714754 2.9158745096856467 -30
    endloop
  endfacet
  facet normal 0 0 -1
    outer loop
      vertex -2.738188423714754 -2.9158745096856467 -30
      vertex -2.738188423714754 2.9158745096856467 -30
      vertex -2.5496959589947585 3.0820529711031575 -30
    endloop
  endfacet
  facet normal 0 0 -1
    outer loop
      vertex -2.5496959589947585 -3.0820529711031575 -30
      vertex -2.5496959589947585 3.0820529711031575 -30
      vertex -2.3511410091698925 3.23606797749979 -30
    endloop
  endfacet
  facet normal 0 0 -1
    outer loop
      vertex -2.3511410091698925 -3.23606797749979 -30
      vertex -2.3511410091698925 3.23606797749979 -30
      vertex -2.143307179915987 3.37731170200806 -30
    endloop
  endfacet
  facet normal 0 0 -1
    outer loop
      vertex -2.143307179915987 -3.37731170200806 -30
      vertex -2.143307179915987 3.37731170200806 -30
      vertex -1.9270146964068608 3.5052267201754543 -30
    endloop
  endfacet
  facet normal 0 0 -1
    outer loop
      vertex -1.9270146964068615 -3.505226720175454 -30
      vertex -1.9270146964068608 3.5052267201754543 -30
      vertex -1.7031171662602909 3.619308209864078 -30
    endloop
  endfacet
  facet normal 0 0 -1
    outer loop
      vertex -1.7031171662602897 -3.6193082098640783 -30
      vertex -1.7031171662602909 3.619308209864078 -30
      vertex -1.4724982107387115 3.719105943553006 -30
    endloop
  endfacet
  facet normal 0 0 -1
    outer loop
      vertex -1.4724982107387115 -3.719105943553006 -30
      vertex -1.4724982107387115 3.719105943553006 -30
      vertex -1.2360679774997896 3.804226065180614 -30
    endloop
  endfacet
  facet normal 0 0 -1
    outer loop
      vertex -1.2360679774997896 -3.804226065180614 -30
      vertex -1.2360679774997896 3.804226065180614 -30
      vertex -0.9947595486594194 3.8743326445145243 -30
    endloop
  endfacet
  facet normal 0 0 -1
    outer loop
      vertex -0.9947595486594194 -3.8743326445145243 -30
      vertex -0.9947595486594194 3.8743326445145243 -30
      vertex -0.7495252583428983 3.929149002914755 -30
    endloop
  endfacet
  facet normal 0 0 -1
    outer loop
      vertex -0.7495252583428993 -3.9291490029147544 -30
      vertex -0.7495252583428983 3.929149002914755 -30
      vertex -0.5013329342572171 3.9684588052579115 -30
    endloop
  endfacet
  facet normal 0 0 -1
    outer loop
      vertex -0.5013329342572163 -3.9684588052579115 -30
      vertex -0.5013329342572171 3.9684588052579115 -30
      vertex -0.2511620781172531 3.9921069137130862 -30
    endloop
  endfacet
  facet normal 0 0 -1
    outer loop
      vertex -0.25116207811725505 -3.9921069137130862 -30
      vertex -0.2511620781172531 3.9921069137130862 -30
      vertex 0 4 -30
    endloop
  endfacet
  facet normal -0.9408807689542258 0.33873792024529037 0
    outer loop
      vertex -3.804226065180614 1.2360679774997896 -30
      vertex -3.719105943553006 1.4724982107387115 0
      vertex -3.719105943553006 1.4724982107387115 -30
    endloop
  endfacet
  facet normal -0.9177546256839808 0.39714789063478134 0
    outer loop
      vertex -3.719105943553006 1.4724982107387115 -30
      vertex -3.6193082098640783 1.7031171662602897 0
      vertex -3.6193082098640783 1.7031171662602897 -30
    endloop
  endfacet
  facet normal -0.8910065241883678 0.45399049973954686 0
    outer loop
      vertex -3.6193082098640783 1.7031171662602897 -30
      vertex -3.505226720175454 1.9270146964068615 0
      vertex -3.505226720175454 1.9270146964068615 -30
    endloop
  endfacet
  facet normal -0.8607420270039439 0.509041415750371 0
    outer loop
      vertex -3.505226720175454 1.9270146964068615 -30
      vertex -3.37731170200806 2.143307179915987 0
      vertex -3.37731170200806 2.143307179915987 -30
    endloop
  endfacet
  facet normal -0.8270805742745622 0.5620833778521301 0
    outer loop
      vertex -3.37731170200806 2.143307179915987 -30
      vertex -3.23606797749979 2.3511410091698925 0
      vertex -3.23606797749979 2.3511410091698925 -30
    endloop
  endfacet
  facet normal -0.7901550123756906 0.612907053652976 0
    outer loop
      vertex -3.23606797749979 2.3511410091698925 -30
      vertex -3.0820529711031575 2.5496959589947585 0
      vertex -3.0820529711031575 2.5496959589947585 -30
    endloop
  endfacet
  facet normal -0.7501110696304589 0.6613118653236526 0
    outer loop
      vertex -3.0820529711031575 2.5496959589947585 -30
      vertex -2.9158745096856467 2.738188423714754 0
      vertex -2.9158745096856467 2.738188423714754 -30
    endloop
  endfacet
  facet normal -0.7071067811865475 0.7071067811865475 0
    outer loop
      vertex -2.9158745096856467 2.738188423714754 -30
      vertex -2.738188423714754 2.9158745096856467 0
      vertex -2.738188423714754 2.9158745096856467 -30
    endloop
  endfacet
  facet normal -0.6613118653236526 0.7501110696304589 0
    outer loop
      vertex -2.738188423714754 2.9158745096856467 -30
      vertex -2.738188423714754 2.9158745096856467 0
      vertex -2.5496959589947585 3.0820529711031575 -30
    endloop
  endfacet
  facet normal -0.612907053652976 0.7901550123756906 0
    outer loop
      vertex -2.5496959589947585 3.0820529711031575 -30
      vertex -2.5496959589947585 3.0820529711031575 0
      vertex -2.3511410091698925 3.23606797749979 -30
    endloop
  endfacet
  facet normal -0.5620833778521301 0.8270805742745622 0
    outer loop
      vertex -2.3511410091698925 3.23606797749979 -30
      vertex -2.3511410091698925 3.23606797749979 0
      vertex -2.143307179915987 3.37731170200806 -30
    endloop
  endfacet
  facet normal -0.5090414157503712 0.8607420270039439 0
    outer loop
      vertex -2.143307179915987 3.37731170200806 -30
      vertex -2.143307179915987 3.37731170200806 0
      vertex -1.9270146964068608 3.5052267201754543 -30
    endloop
  endfacet
  facet normal -0.4539904997395469 0.8910065241883678 0
    outer loop
      vertex -1.9270146964068608 3.5052267201754543 -30
      vertex -1.9270146964068608 3.5052267201754543 0
      vertex -1.7031171662602909 3.619308209864078 -30
    endloop
  endfacet
  facet normal -0.39714789063478123 0.9177546256839808 0
    outer loop
      vertex -1.7031171662602909 3.619308209864078 -30
      vertex -1.7031171662602909 3.619308209864078 0
      vertex -1.4724982107387115 3.719105943553006 -30
    endloop
  endfacet
  facet normal -0.33873792024529037 0.9408807689542258 0
    outer loop
      vertex -1.4724982107387115 3.719105943553006 -30
      vertex -1.4724982107387115 3.719105943553006 0
      vertex -1.2360679774997896 3.804226065180614 -30
    endloop
  endfacet
  facet normal -0.2789911060392296 0.960293685676943 0
    outer loop
      vertex -1.2360679774997896 3.804226065180614 -30
      vertex -1.2360679774997896 3.804226065180614 0
      vertex -0.9947595486594194 3.8743326445145243 -30
    endloop
  endfacet
  facet normal -0.2181432413965434 0.9759167619387472 0
    outer loop
      vertex -0.9947595486594194 3.8743326445145243 -30
      vertex -0.9947595486594194 3.8743326445145243 0
      vertex -0.7495252583428983 3.929149002914755 -30
    endloop
  endfacet
  facet normal -0.1564344650402312 0.9876883405951377 0
    outer loop
      vertex -0.7495252583428983 3.929149002914755 -30
      vertex -0.7495252583428983 3.929149002914755 0
      vertex -0.5013329342572171 3.9684588052579115 -30
    endloop
  endfacet
  facet normal -0.09410831331851335 0.9955619646030801 0
    outer loop
      vertex -0.5013329342572171 3.9684588052579115 -30
      vertex -0.5013329342572171 3.9684588052579115 0
      vertex -0.2511620781172531 3.9921069137130862 -30
    endloop
  endfacet
  facet normal -0.03141075907812839 0.9995065603657316 0
    outer loop
      vertex -0.2511620781172531 3.9921069137130862 -30
      vertex -0.2511620781172531 3.9921069137130862 0
      vertex 0 4 -30
    endloop
  endfacet
  facet normal -0.9995065603657316 0.03141075907812839 0
    outer loop
      vertex -4 0 -30
      vertex -4 0 0
      vertex -3.9921069137130862 0.2511620781172531 0
    endloop
  endfacet
  facet normal -0.9955619646030801 0.09410831331851369 0
    outer loop
      vertex -3.9921069137130862 0.2511620781172531 -30
      vertex -3.9921069137130862 0.2511620781172531 0
      vertex -3.9684588052579115 0.5013329342572163 0
    endloop
  endfacet
  facet normal -0.9876883405951375 0.15643446504023176 0
    outer loop
      vertex -3.9684588052579115 0.5013329342572163 -30
      vertex -3.9684588052579115 0.5013329342572163 0
      vertex -3.9291490029147544 0.7495252583428993 0
    endloop
  endfacet
  facet normal -0.9759167619387473 0.21814324139654256 0
    outer loop
      vertex -3.9291490029147544 0.7495252583428993 -30
      vertex -3.9291490029147544 0.7495252583428993 0
      vertex -3.8743326445145243 0.9947595486594194 0
    endloop
  endfacet
  facet normal -0.960293685676943 0.2789911060392296 0
    outer loop
      vertex -3.8743326445145243 0.9947595486594194 -30
      vertex -3.8743326445145243 0.9947595486594194 0
      vertex -3.804226065180614 1.2360679774997896 0
    endloop
  endfacet
  facet normal -0.9408807689542258 0.33873792024529037 0
    outer loop
      vertex -3.804226065180614 1.2360679774997896 -30
      vertex -3.804226065180614 1.2360679774997896 0
      vertex -3.719105943553006 1.4724982107387115 0
    endloop
  endfacet
  facet normal -0.9177546256839808 0.39714789063478134 0
    outer loop
      vertex -3.719105943553006 1.4724982107387115 -30
      vertex -3.719105943553006 1.4724982107387115 0
      vertex -3.6193082098640783 1.7031171662602897 0
    endloop
  endfacet
  facet normal -0.8910065241883678 0.45399049973954686 0
    outer loop
      vertex -3.6193082098640783 1.7031171662602897 -30
      vertex -3.6193082098640783 1.7031171662602897 0
      vertex -3.505226720175454 1.9270146964068615 0
    endloop
  endfacet
  facet normal -0.8607420270039439 0.509041415750371 0
    outer loop
      vertex -3.505226720175454 1.9270146964068615 -30
      vertex -3.505226720175454 1.9270146964068615 0
      vertex -3.37731170200806 2.143307179915987 0
    endloop
  endfacet
  facet normal -0.8270805742745622 0.5620833778521301 0
    outer loop
      vertex -3.37731170200806 2.143307179915987 -30
      vertex -3.37731170200806 2.143307179915987 0
      vertex -3.23606797749979 2.3511410091698925 0
    endloop
  endfacet
  facet normal -0.7901550123756906 0.612907053652976 0
    outer loop
      vertex -3.23606797749979 2.3511410091698925 -30
      vertex -3.23606797749979 2.3511410091698925 0
      vertex -3.0820529711031575 2.5496959589947585 0
    endloop
  endfacet
  facet normal -0.7501110696304589 0.6613118653236526 0
    outer loop
      vertex -3.0820529711031575 2.5496959589947585 -30
      vertex -3.0820529711031575 2.5496959589947585 0
      vertex -2.9158745096856467 2.738188423714754 0
    endloop
  endfacet
  facet normal -0.7071067811865475 0.7071067811865475 0
    outer loop
      vertex -2.9158745096856467 2.738188423714754 -30
      vertex -2.9158745096856467 2.738188423714754 0
      vertex -2.738188423714754 2.9158745096856467 0
    endloop
  endfacet
  facet normal -0.6613118653236526 0.7501110696304589 0
    outer loop
      vertex -2.5496959589947585 3.0820529711031575 -30
      vertex -2.738188423714754 2.9158745096856467 0
      vertex -2.5496959589947585 3.0820529711031575 0
    endloop
  endfacet
  facet normal -0.612907053652976 0.7901550123756906 0
    outer loop
      vertex -2.3511410091698925 3.23606797749979 -30
      vertex -2.5496959589947585 3.0820529711031575 0
      vertex -2.3511410091698925 3.23606797749979 0
    endloop
  endfacet
  facet normal -0.5620833778521301 0.8270805742745622 0
    outer loop
      vertex -2.143307179915987 3.37731170200806 -30
      vertex -2.3511410091698925 3.23606797749979 0
      vertex -2.143307179915987 3.37731170200806 0
    endloop
  endfacet
  facet normal -0.5090414157503712 0.8607420270039439 0
    outer loop
      vertex -1.9270146964068608 3.5052267201754543 -30
      vertex -2.143307179915987 3.37731170200806 0
      vertex -1.9270146964068608 3.5052267201754543 0
    endloop
  endfacet
  facet normal -0.4539904997395469 0.8910065241883678 0
    outer loop
      vertex -1.7031171662602909 3.619308209864078 -30
      vertex -1.9270146964068608 3.5052267201754543 0
      vertex -1.7031171662602909 3.619308209864078 0
    endloop
  endfacet
  facet normal -0.39714789063478123 0.9177546256839808 0
    outer loop
      vertex -1.4724982107387115 3.719105943553006 -30
      vertex -1.7031171662602909 3.619308209864078 0
      vertex -1.4724982107387115 3.719105943553006 0
    endloop
  endfacet
  facet normal -0.33873792024529037 0.9408807689542258 0
    outer loop
      vertex -1.2360679774997896 3.804226065180614 -30
      vertex -1.4724982107387115 3.719105943553006 0
      vertex -1.2360679774997896 3.804226065180614 0
    endloop
  endfacet
  facet normal -0.2789911060392296 0.960293685676943 0
    outer loop
      vertex -0.9947595486594194 3.8743326445145243 -30
      vertex -1.2360679774997896 3.804226065180614 0
      vertex -0.9947595486594194 3.8743326445145243 0
    endloop
  endfacet
  facet normal -0.2181432413965434 0.9759167619387472 0
    outer loop
      vertex -0.7495252583428983 3.929149002914755 -30
      vertex -0.9947595486594194 3.8743326445145243 0
      vertex -0.7495252583428983 3.929149002914755 0
    endloop
  endfacet
  facet normal -0.1564344650402312 0.9876883405951377 0
    outer loop
      vertex -0.5013329342572171 3.9684588052579115 -30
      vertex -0.7495252583428983 3.929149002914755 0
      vertex -0.5013329342572171 3.9684588052579115 0
    endloop
  endfacet
  facet normal -0.09410831331851335 0.9955619646030801 0
    outer loop
      vertex -0.2511620781172531 3.9921069137130862 -30
      vertex -0.5013329342572171 3.9684588052579115 0
      vertex -0.2511620781172531 3.9921069137130862 0
    endloop
  endfacet
  facet normal -0.03141075907812839 0.9995065603657316 0
    outer loop
      vertex 0 4 -30
      vertex -0.2511620781172531 3.9921069137130862 0
      vertex 0 4 0
    endloop
  endfacet
  facet normal 0.031410759078128146 -0.9995065603657315 0
    outer loop
      vertex 0 -4 -30
      vertex 0.25116207811725505 -3.9921069137130862 -30
      vertex 0.25116207811725505 -3.9921069137130862 0
    endloop
  endfacet
  facet normal 0.09410831331851442 -0.99556196460308 0
    outer loop
      vertex 0.25116207811725505 -3.9921069137130862 -30
      vertex 0.5013329342572163 -3.9684588052579115 -30
      vertex 0.5013329342572163 -3.9684588052579115 0
    endloop
  endfacet
  facet normal 0.15643446504023176 -0.9876883405951375 0
    outer loop
      vertex 0.5013329342572163 -3.9684588052579115 -30
      vertex 0.7495252583428993 -3.9291490029147544 -30
      vertex 0.7495252583428993 -3.9291490029147544 0
    endloop
  endfacet
  facet normal 0.2181432413965423 -0.9759167619387474 0
    outer loop
      vertex 0.7495252583428993 -3.9291490029147544 -30
      vertex 0.9947595486594177 -3.8743326445145247 -30
      vertex 0.9947595486594177 -3.8743326445145247 0
    endloop
  endfacet
  facet normal 0.27899110603922944 -0.9602936856769431 0
    outer loop
      vertex 0.9947595486594177 -3.8743326445145247 -30
      vertex 1.2360679774997896 -3.804226065180614 -30
      vertex 1.2360679774997896 -3.804226065180614 0
    endloop
  endfacet
  facet normal 0.3387379202452909 -0.9408807689542256 0
    outer loop
      vertex 1.2360679774997896 -3.804226065180614 -30
      vertex 1.4724982107387135 -3.719105943553005 -30
      vertex 1.4724982107387135 -3.719105943553005 0
    endloop
  endfacet
  facet normal 0.3971478906347813 -0.9177546256839809 0
    outer loop
      vertex 1.4724982107387135 -3.719105943553005 -30
      vertex 1.7031171662602897 -3.6193082098640783 -30
      vertex 1.7031171662602897 -3.6193082098640783 0
    endloop
  endfacet
  facet normal 0.45399049973954686 -0.8910065241883678 0
    outer loop
      vertex 1.7031171662602897 -3.6193082098640783 -30
      vertex 1.9270146964068615 -3.505226720175454 -30
      vertex 1.9270146964068615 -3.505226720175454 0
    endloop
  endfacet
  facet normal 0.509041415750371 -0.8607420270039439 0
    outer loop
      vertex 1.9270146964068615 -3.505226720175454 -30
      vertex 2.143307179915985 -3.377311702008061 -30
      vertex 2.143307179915985 -3.377311702008061 0
    endloop
  endfacet
  facet normal 0.5620833778521297 -0.8270805742745625 0
    outer loop
      vertex 2.143307179915985 -3.377311702008061 -30
      vertex 2.3511410091698925 -3.23606797749979 -30
      vertex 2.3511410091698925 -3.23606797749979 0
    endloop
  endfacet
  facet normal 0 0 -1
    outer loop
      vertex 0 -4 -30
      vertex 0.2511620781172531 3.9921069137130862 -30
      vertex 0.25116207811725505 -3.9921069137130862 -30
    endloop
  endfacet
  facet normal 0 0 -1
    outer loop
      vertex 0.25116207811725505 -3.9921069137130862 -30
      vertex 0.5013329342572171 3.9684588052579115 -30
      vertex 0.5013329342572163 -3.9684588052579115 -30
    endloop
  endfacet
  facet normal 0 0 -1
    outer loop
      vertex 0.5013329342572163 -3.9684588052579115 -30
      vertex 0.7495252583428983 3.929149002914755 -30
      vertex 0.7495252583428993 -3.9291490029147544 -30
    endloop
  endfacet
  facet normal 0 0 -1
    outer loop
      vertex 0.7495252583428993 -3.9291490029147544 -30
      vertex 0.9947595486594194 3.8743326445145243 -30
      vertex 0.9947595486594177 -3.8743326445145247 -30
    endloop
  endfacet
  facet normal 0 0 -1
    outer loop
      vertex 0.9947595486594177 -3.8743326445145247 -30
      vertex 1.2360679774997896 3.804226065180614 -30
      vertex 1.2360679774997896 -3.804226065180614 -30
    endloop
  endfacet
  facet normal 0 0 -1
    outer loop
      vertex 1.2360679774997896 -3.804226065180614 -30
      vertex 1.4724982107387115 3.719105943553006 -30
      vertex 1.4724982107387135 -3.719105943553005 -30
    endloop
  endfacet
  facet normal 0 0 -1
    outer loop
      vertex 1.4724982107387135 -3.719105943553005 -30
      vertex 1.7031171662602909 3.619308209864078 -30
      vertex 1.7031171662602897 -3.6193082098640783 -30
    endloop
  endfacet
  facet normal 0 0 -1
    outer loop
      vertex 1.7031171662602897 -3.6193082098640783 -30
      vertex 1.9270146964068608 3.5052267201754543 -30
      vertex 1.9270146964068615 -3.505226720175454 -30
    endloop
  endfacet
  facet normal 0 0 -1
    outer loop
      vertex 1.9270146964068615 -3.505226720175454 -30
      vertex 2.1433071799159866 3.3773117020080603 -30
      vertex 2.143307179915985 -3.377311702008061 -30
    endloop
  endfacet
  facet normal 0 0 -1
    outer loop
      vertex 2.143307179915985 -3.377311702008061 -30
      vertex 2.3511410091698925 3.23606797749979 -30
      vertex 2.3511410091698925 -3.23606797749979 -30
    endloop
  endfacet
  facet normal 0 0 -1
    outer loop
      vertex 2.3511410091698925 -3.23606797749979 -30
      vertex 2.549695958994759 3.0820529711031566 -30
      vertex 2.54969595899476 -3.082052971103156 -30
    endloop
  endfacet
  facet normal 0 0 -1
    outer loop
      vertex 2.54969595899476 -3.082052971103156 -30
      vertex 2.738188423714755 2.915874509685646 -30
      vertex 2.738188423714754 -2.9158745096856467 -30
    endloop
  endfacet
  facet normal 0 0 -1
    outer loop
      vertex 2.738188423714754 -2.9158745096856467 -30
      vertex 2.915874509685646 2.738188423714755 -30
      vertex 2.9158745096856467 -2.738188423714754 -30
    endloop
  endfacet
  facet normal 0 0 -1
    outer loop
      vertex 2.9158745096856467 -2.738188423714754 -30
      vertex 3.0820529711031566 2.549695958994759 -30
      vertex 3.082052971103156 -2.54969595899476 -30
    endloop
  endfacet
  facet normal 0 0 -1
    outer loop
      vertex 3.082052971103156 -2.54969595899476 -30
      vertex 3.23606797749979 2.3511410091698925 -30
      vertex 3.23606797749979 -2.3511410091698925 -30
    endloop
  endfacet
  facet normal 0 0 -1
    outer loop
      vertex 3.23606797749979 -2.3511410091698925 -30
      vertex 3.3773117020080603 2.1433071799159866 -30
      vertex 3.377311702008061 -2.143307179915985 -30
    endloop
  endfacet
  facet normal 0 0 -1
    outer loop
      vertex 3.377311702008061 -2.143307179915985 -30
      vertex 3.5052267201754543 1.9270146964068613 -30
      vertex 3.505226720175454 -1.9270146964068615 -30
    endloop
  endfacet
  facet normal 0 0 -1
    outer loop
      vertex 3.505226720175454 -1.9270146964068615 -30
      vertex 3.6193082098640783 1.7031171662602906 -30
      vertex 3.6193082098640783 -1.7031171662602897 -30
    endloop
  endfacet
  facet normal 0 0 -1
    outer loop
      vertex 3.6193082098640783 -1.7031171662602897 -30
      vertex 3.7191059435530054 1.472498210738712 -30
      vertex 3.719105943553005 -1.4724982107387135 -30
    endloop
  endfacet
  facet normal 0.6129070536529768 -0.7901550123756901 0
    outer loop
      vertex 2.3511410091698925 -3.23606797749979 -30
      vertex 2.54969595899476 -3.082052971103156 -30
      vertex 2.54969595899476 -3.082052971103156 0
    endloop
  endfacet
  facet normal 0.6613118653236522 -0.7501110696304593 0
    outer loop
      vertex 2.54969595899476 -3.082052971103156 -30
      vertex 2.738188423714754 -2.9158745096856467 -30
      vertex 2.738188423714754 -2.9158745096856467 0
    endloop
  endfacet
  facet normal 0.7071067811865475 -0.7071067811865475 0
    outer loop
      vertex 2.738188423714754 -2.9158745096856467 -30
      vertex 2.9158745096856467 -2.738188423714754 -30
      vertex 2.738188423714754 -2.9158745096856467 0
    endloop
  endfacet
  facet normal 0.7501110696304593 -0.6613118653236522 0
    outer loop
      vertex 2.9158745096856467 -2.738188423714754 -30
      vertex 3.082052971103156 -2.54969595899476 -30
      vertex 2.9158745096856467 -2.738188423714754 0
    endloop
  endfacet
  facet normal 0.7901550123756901 -0.6129070536529768 0
    outer loop
      vertex 3.082052971103156 -2.54969595899476 -30
      vertex 3.23606797749979 -2.3511410091698925 -30
      vertex 3.082052971103156 -2.54969595899476 0
    endloop
  endfacet
  facet normal 0.8270805742745625 -0.5620833778521297 0
    outer loop
      vertex 3.23606797749979 -2.3511410091698925 -30
      vertex 3.377311702008061 -2.143307179915985 -30
      vertex 3.23606797749979 -2.3511410091698925 0
    endloop
  endfacet
  facet normal 0.8607420270039439 -0.509041415750371 0
    outer loop
      vertex 3.377311702008061 -2.143307179915985 -30
      vertex 3.505226720175454 -1.9270146964068615 -30
      vertex 3.377311702008061 -2.143307179915985 0
    endloop
  endfacet
  facet normal 0.8910065241883678 -0.45399049973954686 0
    outer loop
      vertex 3.505226720175454 -1.9270146964068615 -30
      vertex 3.6193082098640783 -1.7031171662602897 -30
      vertex 3.505226720175454 -1.9270146964068615 0
    endloop
  endfacet
  facet normal 0.9177546256839809 -0.3971478906347813 0
    outer loop
      vertex 3.6193082098640783 -1.7031171662602897 -30
      vertex 3.719105943553005 -1.4724982107387135 -30
      vertex 3.6193082098640783 -1.7031171662602897 0
    endloop
  endfacet
  facet normal 0.9408807689542256 -0.3387379202452909 0
    outer loop
      vertex 3.719105943553005 -1.4724982107387135 -30
      vertex 3.804226065180614 -1.2360679774997896 -30
      vertex 3.719105943553005 -1.4724982107387135 0
    endloop
  endfacet
  facet normal 0 0 -1
    outer loop
      vertex 3.719105943553005 -1.4724982107387135 -30
      vertex 3.804226065180614 1.2360679774997896 -30
      vertex 3.804226065180614 -1.2360679774997896 -30
    endloop
  endfacet
  facet normal 0 0 -1
    outer loop
      vertex 3.804226065180614 -1.2360679774997896 -30
      vertex 3.8743326445145243 0.9947595486594192 -30
      vertex 3.8743326445145247 -0.9947595486594177 -30
    endloop
  endfacet
  facet normal 0 0 -1
    outer loop
      vertex 3.8743326445145247 -0.9947595486594177 -30
      vertex 3.929149002914755 0.7495252583428985 -30
      vertex 3.9291490029147544 -0.7495252583428993 -30
    endloop
  endfacet
  facet normal 0 0 -1
    outer loop
      vertex 3.9291490029147544 -0.7495252583428993 -30
      vertex 3.9684588052579115 0.501332934257217 -30
      vertex 3.9684588052579115 -0.5013329342572163 -30
    endloop
  endfacet
  facet normal 0 0 -1
    outer loop
      vertex 3.9684588052579115 -0.5013329342572163 -30
      vertex 3.9921069137130862 0.2511620781172535 -30
      vertex 3.9921069137130862 -0.25116207811725505 -30
    endloop
  endfacet
  facet normal 0 0 -1
    outer loop
      vertex 3.9921069137130862 -0.25116207811725505 -30
      vertex 3.9921069137130862 0.2511620781172535 -30
      vertex 4 0 -30
    endloop
  endfacet
  facet normal 0.9602936856769431 -0.27899110603922944 0
    outer loop
      vertex 3.804226065180614 -1.2360679774997896 -30
      vertex 3.8743326445145247 -0.9947595486594177 -30
      vertex 3.804226065180614 -1.2360679774997896 0
    endloop
  endfacet
  facet normal 0.9759167619387474 -0.2181432413965423 0
    outer loop
      vertex 3.8743326445145247 -0.9947595486594177 -30
      vertex 3.9291490029147544 -0.7495252583428993 -30
      vertex 3.8743326445145247 -0.9947595486594177 0
    endloop
  endfacet
  facet normal 0.9876883405951375 -0.15643446504023176 0
    outer loop
      vertex 3.9291490029147544 -0.7495252583428993 -30
      vertex 3.9684588052579115 -0.5013329342572163 -30
      vertex 3.9291490029147544 -0.7495252583428993 0
    endloop
  endfacet
  facet normal 0.99556196460308 -0.09410831331851442 0
    outer loop
      vertex 3.9684588052579115 -0.5013329342572163 -30
      vertex 3.9921069137130862 -0.25116207811725505 -30
      vertex 3.9684588052579115 -0.5013329342572163 0
    endloop
  endfacet
  facet normal 0.9995065603657315 -0.031410759078128146 0
    outer loop
      vertex 3.9921069137130862 -0.25116207811725505 -30
      vertex 4 0 -30
      vertex 3.9921069137130862 -0.25116207811725505 0
    endloop
  endfacet
  facet normal 0.031410759078128146 -0.9995065603657315 0
    outer loop
      vertex 0 -4 -30
      vertex 0.25116207811725505 -3.9921069137130862 0
      vertex 0 -4 0
    endloop
  endfacet
  facet normal 0.09410831331851442 -0.99556196460308 0
    outer loop
      vertex 0.25116207811725505 -3.9921069137130862 -30
      vertex 0.5013329342572163 -3.9684588052579115 0
      vertex 0.25116207811725505 -3.9921069137130862 0
    endloop
  endfacet
  facet normal 0.15643446504023176 -0.9876883405951375 0
    outer loop
      vertex 0.5013329342572163 -3.9684588052579115 -30
      vertex 0.7495252583428993 -3.9291490029147544 0
      vertex 0.5013329342572163 -3.9684588052579115 0
    endloop
  endfacet
  facet normal 0.2181432413965423 -0.9759167619387474 0
    outer loop
      vertex 0.7495252583428993 -3.9291490029147544 -30
      vertex 0.9947595486594177 -3.8743326445145247 0
      vertex 0.7495252583428993 -3.9291490029147544 0
    endloop
  endfacet
  facet normal 0.27899110603922944 -0.9602936856769431 0
    outer loop
      vertex 0.9947595486594177 -3.8743326445145247 -30
      vertex 1.2360679774997896 -3.804226065180614 0
      vertex 0.9947595486594177 -3.8743326445145247 0
    endloop
  endfacet
  facet normal 0.3387379202452909 -0.9408807689542256 0
    outer loop
      vertex 1.2360679774997896 -3.804226065180614 -30
      vertex 1.4724982107387135 -3.719105943553005 0
      vertex 1.2360679774997896 -3.804226065180614 0
    endloop
  endfacet
  facet normal 0.3971478906347813 -0.9177546256839809 0
    outer loop
      vertex 1.4724982107387135 -3.719105943553005 -30
      vertex 1.7031171662602897 -3.6193082098640783 0
      vertex 1.4724982107387135 -3.719105943553005 0
    endloop
  endfacet
  facet normal 0.45399049973954686 -0.8910065241883678 0
    outer loop
      vertex 1.7031171662602897 -3.6193082098640783 -30
      vertex 1.9270146964068615 -3.505226720175454 0
      vertex 1.7031171662602897 -3.6193082098640783 0
    endloop
  endfacet
  facet normal 0.509041415750371 -0.8607420270039439 0
    outer loop
      vertex 1.9270146964068615 -3.505226720175454 -30
      vertex 2.143307179915985 -3.377311702008061 0
      vertex 1.9270146964068615 -3.505226720175454 0
    endloop
  endfacet
  facet normal 0.5620833778521297 -0.8270805742745625 0
    outer loop
      vertex 2.143307179915985 -3.377311702008061 -30
      vertex 2.3511410091698925 -3.23606797749979 0
      vertex 2.143307179915985 -3.377311702008061 0
    endloop
  endfacet
  facet normal 0.6129070536529768 -0.7901550123756901 0
    outer loop
      vertex 2.3511410091698925 -3.23606797749979 -30
      vertex 2.54969595899476 -3.082052971103156 0
      vertex 2.3511410091698925 -3.23606797749979 0
    endloop
  endfacet
  facet normal 0.6613118653236522 -0.7501110696304593 0
    outer loop
      vertex 2.54969595899476 -3.082052971103156 -30
      vertex 2.738188423714754 -2.9158745096856467 0
      vertex 2.54969595899476 -3.082052971103156 0
    endloop
  endfacet
  facet normal 0.7071067811865475 -0.7071067811865475 0
    outer loop
      vertex 2.9158745096856467 -2.738188423714754 -30
      vertex 2.9158745096856467 -2.738188423714754 0
      vertex 2.738188423714754 -2.9158745096856467 0
    endloop
  endfacet
  facet normal 0.7501110696304593 -0.6613118653236522 0
    outer loop
      vertex 3.082052971103156 -2.54969595899476 -30
      vertex 3.082052971103156 -2.54969595899476 0
      vertex 2.9158745096856467 -2.738188423714754 0
    endloop
  endfacet
  facet normal 0.7901550123756901 -0.6129070536529768 0
    outer loop
      vertex 3.23606797749979 -2.3511410091698925 -30
      vertex 3.23606797749979 -2.3511410091698925 0
      vertex 3.082052971103156 -2.54969595899476 0
    endloop
  endfacet
  facet normal 0.8270805742745625 -0.5620833778521297 0
    outer loop
      vertex 3.377311702008061 -2.143307179915985 -30
      vertex 3.377311702008061 -2.143307179915985 0
      vertex 3.23606797749979 -2.3511410091698925 0
    endloop
  endfacet
  facet normal 0.8607420270039439 -0.509041415750371 0
    outer loop
      vertex 3.505226720175454 -1.9270146964068615 -30
      vertex 3.505226720175454 -1.9270146964068615 0
      vertex 3.377311702008061 -2.143307179915985 0
    endloop
  endfacet
  facet normal 0.8910065241883678 -0.45399049973954686 0
    outer loop
      vertex 3.6193082098640783 -1.7031171662602897 -30
      vertex 3.6193082098640783 -1.7031171662602897 0
      vertex 3.505226720175454 -1.9270146964068615 0
    endloop
  endfacet
  facet normal 0.9177546256839809 -0.3971478906347813 0
    outer loop
      vertex 3.719105943553005 -1.4724982107387135 -30
      vertex 3.719105943553005 -1.4724982107387135 0
      vertex 3.6193082098640783 -1.7031171662602897 0
    endloop
  endfacet
  facet normal 0.9408807689542256 -0.3387379202452909 0
    outer loop
      vertex 3.804226065180614 -1.2360679774997896 -30
      vertex 3.804226065180614 -1.2360679774997896 0
      vertex 3.719105943553005 -1.4724982107387135 0
    endloop
  endfacet
  facet normal 0.9602936856769431 -0.27899110603922944 0
    outer loop
      vertex 3.8743326445145247 -0.9947595486594177 -30
      vertex 3.8743326445145247 -0.9947595486594177 0
      vertex 3.804226065180614 -1.2360679774997896 0
    endloop
  endfacet
  facet normal 0.9759167619387474 -0.2181432413965423 0
    outer loop
      vertex 3.9291490029147544 -0.7495252583428993 -30
      vertex 3.9291490029147544 -0.7495252583428993 0
      vertex 3.8743326445145247 -0.9947595486594177 0
    endloop
  endfacet
  facet normal 0.9876883405951375 -0.15643446504023176 0
    outer loop
      vertex 3.9684588052579115 -0.5013329342572163 -30
      vertex 3.9684588052579115 -0.5013329342572163 0
      vertex 3.9291490029147544 -0.7495252583428993 0
    endloop
  endfacet
  facet normal 0.99556196460308 -0.09410831331851442 0
    outer loop
      vertex 3.9921069137130862 -0.25116207811725505 -30
      vertex 3.9921069137130862 -0.25116207811725505 0
      vertex 3.9684588052579115 -0.5013329342572163 0
    endloop
  endfacet
  facet normal 0.9995065603657315 -0.031410759078128146 0
    outer loop
      vertex 4 0 -30
      vertex 4 0 0
      vertex 3.9921069137130862 -0.25116207811725505 0
    endloop
  endfacet
  facet normal 0 0 -1
    outer loop
      vertex 0 -4 -30
      vertex 0 4 -30
      vertex 0.2511620781172531 3.9921069137130862 -30
    endloop
  endfacet
  facet normal 0 0 -1
    outer loop
      vertex 0.25116207811725505 -3.9921069137130862 -30
      vertex 0.2511620781172531 3.9921069137130862 -30
      vertex 0.5013329342572171 3.9684588052579115 -30
    endloop
  endfacet
  facet normal 0 0 -1
    outer loop
      vertex 0.5013329342572163 -3.9684588052579115 -30
      vertex 0.5013329342572171 3.9684588052579115 -30
      vertex 0.7495252583428983 3.929149002914755 -30
    endloop
  endfacet
  facet normal 0 0 -1
    outer loop
      vertex 0.7495252583428993 -3.9291490029147544 -30
      vertex 0.7495252583428983 3.929149002914755 -30
      vertex 0.9947595486594194 3.8743326445145243 -30
    endloop
  endfacet
  facet normal 0 0 -1
    outer loop
      vertex 0.9947595486594177 -3.8743326445145247 -30
      vertex 0.9947595486594194 3.8743326445145243 -30
      vertex 1.2360679774997896 3.804226065180614 -30
    endloop
  endfacet
  facet normal 0 0 -1
    outer loop
      vertex 1.2360679774997896 -3.804226065180614 -30
      vertex 1.2360679774997896 3.804226065180614 -30
      vertex 1.4724982107387115 3.719105943553006 -30
    endloop
  endfacet
  facet normal 0 0 -1
    outer loop
      vertex 1.4724982107387135 -3.719105943553005 -30
      vertex 1.4724982107387115 3.719105943553006 -30
      vertex 1.7031171662602909 3.619308209864078 -30
    endloop
  endfacet
  facet normal 0 0 -1
    outer loop
      vertex 1.7031171662602897 -3.6193082098640783 -30
      vertex 1.7031171662602909 3.619308209864078 -30
      vertex 1.9270146964068608 3.5052267201754543 -30
    endloop
  endfacet
  facet normal 0 0 -1
    outer loop
      vertex 1.9270146964068615 -3.505226720175454 -30
      vertex 1.9270146964068608 3.5052267201754543 -30
      vertex 2.1433071799159866 3.3773117020080603 -30
    endloop
  endfacet
  facet normal 0 0 -1
    outer loop
      vertex 2.143307179915985 -3.377311702008061 -30
      vertex 2.1433071799159866 3.3773117020080603 -30
      vertex 2.3511410091698925 3.23606797749979 -30
    endloop
  endfacet
  facet normal 0 0 -1
    outer loop
      vertex 2.3511410091698925 -3.23606797749979 -30
      vertex 2.3511410091698925 3.23606797749979 -30
      vertex 2.549695958994759 3.0820529711031566 -30
    endloop
  endfacet
  facet normal 0 0 -1
    outer loop
      vertex 2.54969595899476 -3.082052971103156 -30
      vertex 2.549695958994759 3.0820529711031566 -30
      vertex 2.738188423714755 2.915874509685646 -30
    endloop
  endfacet
  facet normal 0 0 -1
    outer loop
      vertex 2.738188423714754 -2.9158745096856467 -30
      vertex 2.738188423714755 2.915874509685646 -30
      vertex 2.915874509685646 2.738188423714755 -30
    endloop
  endfacet
  facet normal 0 0 -1
    outer loop
      vertex 3.082052971103156 -2.54969595899476 -30
      vertex 3.0820529711031566 2.549695958994759 -30
      vertex 3.23606797749979 2.3511410091698925 -30
    endloop
  endfacet
  facet normal 0 0 -1
    outer loop
      vertex 3.23606797749979 -2.3511410091698925 -30
      vertex 3.23606797749979 2.3511410091698925 -30
      vertex 3.3773117020080603 2.1433071799159866 -30
    endloop
  endfacet
  facet normal 0 0 -1
    outer loop
      vertex 3.377311702008061 -2.143307179915985 -30
      vertex 3.3773117020080603 2.1433071799159866 -30
      vertex 3.5052267201754543 1.9270146964068613 -30
    endloop
  endfacet
  facet normal 0 0 -1
    outer loop
      vertex 3.505226720175454 -1.9270146964068615 -30
      vertex 3.5052267201754543 1.9270146964068613 -30
      vertex 3.6193082098640783 1.7031171662602906 -30
    endloop
  endfacet
  facet normal 0 0 -1
    outer loop
      vertex 3.6193082098640783 -1.7031171662602897 -30
      vertex 3.6193082098640783 1.7031171662602906 -30
      vertex 3.7191059435530054 1.472498210738712 -30
    endloop
  endfacet
  facet normal 0 0 -1
    outer loop
      vertex 3.719105943553005 -1.4724982107387135 -30
      vertex 3.7191059435530054 1.472498210738712 -30
      vertex 3.804226065180614 1.2360679774997896 -30
    endloop
  endfacet
  facet normal 0 0 -1
    outer loop
      vertex 2.9158745096856467 -2.738188423714754 -30
      vertex 2.915874509685646 2.738188423714755 -30
      vertex 3.0820529711031566 2.549695958994759 -30
    endloop
  endfacet
  facet normal 0.9177546256839817 0.39714789063477923 0
    outer loop
      vertex 3.7191059435530054 1.472498210738712 -30
      vertex 3.6193082098640783 1.7031171662602906 -30
      vertex 3.7191059435530054 1.472498210738712 0
    endloop
  endfacet
  facet normal 0.6129070536529775 0.7901550123756896 0
    outer loop
      vertex 2.3511410091698925 3.23606797749979 -30
      vertex 2.3511410091698925 3.23606797749979 0
      vertex 2.549695958994759 3.0820529711031566 -30
    endloop
  endfacet
  facet normal 0.6613118653236507 0.7501110696304606 0
    outer loop
      vertex 2.738188423714755 2.915874509685646 -30
      vertex 2.549695958994759 3.0820529711031566 -30
      vertex 2.549695958994759 3.0820529711031566 0
    endloop
  endfacet
  facet normal 0.7901550123756896 0.6129070536529775 0
    outer loop
      vertex 3.23606797749979 2.3511410091698925 -30
      vertex 3.0820529711031566 2.549695958994759 -30
      vertex 3.23606797749979 2.3511410091698925 0
    endloop
  endfacet
  facet normal 0.8607420270039435 0.5090414157503713 0
    outer loop
      vertex 3.5052267201754543 1.9270146964068613 -30
      vertex 3.3773117020080603 2.1433071799159866 -30
      vertex 3.5052267201754543 1.9270146964068613 0
    endloop
  endfacet
  facet normal 0.8910065241883676 0.4539904997395472 0
    outer loop
      vertex 3.6193082098640783 1.7031171662602906 -30
      vertex 3.5052267201754543 1.9270146964068613 -30
      vertex 3.6193082098640783 1.7031171662602906 0
    endloop
  endfacet
  facet normal 0.8270805742745618 0.5620833778521305 0
    outer loop
      vertex 3.23606797749979 2.3511410091698925 -30
      vertex 3.3773117020080603 2.1433071799159866 0
      vertex 3.3773117020080603 2.1433071799159866 -30
    endloop
  endfacet
  facet normal 0.7501110696304606 0.6613118653236507 0
    outer loop
      vertex 2.915874509685646 2.738188423714755 -30
      vertex 3.0820529711031566 2.549695958994759 0
      vertex 3.0820529711031566 2.549695958994759 -30
    endloop
  endfacet
  facet normal 0.7071067811865476 0.7071067811865476 0
    outer loop
      vertex 2.738188423714755 2.915874509685646 -30
      vertex 2.915874509685646 2.738188423714755 0
      vertex 2.915874509685646 2.738188423714755 -30
    endloop
  endfacet
  facet normal 0.03141075907812839 0.9995065603657316 0
    outer loop
      vertex 0 4 -30
      vertex 0 4 0
      vertex 0.2511620781172531 3.9921069137130862 -30
    endloop
  endfacet
  facet normal 0.09410831331851335 0.9955619646030801 0
    outer loop
      vertex 0.2511620781172531 3.9921069137130862 -30
      vertex 0.2511620781172531 3.9921069137130862 0
      vertex 0.5013329342572171 3.9684588052579115 -30
    endloop
  endfacet
  facet normal 0.1564344650402312 0.9876883405951377 0
    outer loop
      vertex 0.5013329342572171 3.9684588052579115 -30
      vertex 0.5013329342572171 3.9684588052579115 0
      vertex 0.7495252583428983 3.929149002914755 -30
    endloop
  endfacet
  facet normal 0.2181432413965434 0.9759167619387472 0
    outer loop
      vertex 0.7495252583428983 3.929149002914755 -30
      vertex 0.7495252583428983 3.929149002914755 0
      vertex 0.9947595486594194 3.8743326445145243 -30
    endloop
  endfacet
  facet normal 0.2789911060392296 0.960293685676943 0
    outer loop
      vertex 0.9947595486594194 3.8743326445145243 -30
      vertex 0.9947595486594194 3.8743326445145243 0
      vertex 1.2360679774997896 3.804226065180614 -30
    endloop
  endfacet
  facet normal 0.33873792024529037 0.9408807689542258 0
    outer loop
      vertex 1.2360679774997896 3.804226065180614 -30
      vertex 1.2360679774997896 3.804226065180614 0
      vertex 1.4724982107387115 3.719105943553006 -30
    endloop
  endfacet
  facet normal 0.4539904997395469 0.8910065241883678 0
    outer loop
      vertex 1.7031171662602909 3.619308209864078 -30
      vertex 1.7031171662602909 3.619308209864078 0
      vertex 1.9270146964068608 3.5052267201754543 -30
    endloop
  endfacet
  facet normal 0.39714789063478123 0.9177546256839808 0
    outer loop
      vertex 1.4724982107387115 3.719105943553006 -30
      vertex 1.4724982107387115 3.719105943553006 0
      vertex 1.7031171662602909 3.619308209864078 -30
    endloop
  endfacet
  facet normal 0.5090414157503707 0.8607420270039441 0
    outer loop
      vertex 1.9270146964068608 3.5052267201754543 -30
      vertex 1.9270146964068608 3.5052267201754543 0
      vertex 2.1433071799159866 3.3773117020080603 -30
    endloop
  endfacet
  facet normal 0.5620833778521305 0.8270805742745618 0
    outer loop
      vertex 2.1433071799159866 3.3773117020080603 -30
      vertex 2.1433071799159866 3.3773117020080603 0
      vertex 2.3511410091698925 3.23606797749979 -30
    endloop
  endfacet
  facet normal 0 0 -1
    outer loop
      vertex 3.9684588052579115 -0.5013329342572163 -30
      vertex 3.9684588052579115 0.501332934257217 -30
      vertex 3.9921069137130862 0.2511620781172535 -30
    endloop
  endfacet
  facet normal 0 0 -1
    outer loop
      vertex 3.9291490029147544 -0.7495252583428993 -30
      vertex 3.929149002914755 0.7495252583428985 -30
      vertex 3.9684588052579115 0.501332934257217 -30
    endloop
  endfacet
  facet normal 0 0 -1
    outer loop
      vertex 3.804226065180614 -1.2360679774997896 -30
      vertex 3.804226065180614 1.2360679774997896 -30
      vertex 3.8743326445145243 0.9947595486594192 -30
    endloop
  endfacet
  facet normal 0 0 -1
    outer loop
      vertex 3.8743326445145247 -0.9947595486594177 -30
      vertex 3.8743326445145243 0.9947595486594192 -30
      vertex 3.929149002914755 0.7495252583428985 -30
    endloop
  endfacet
  facet normal 0.9955619646030801 0.09410831331851353 0
    outer loop
      vertex 3.9921069137130862 0.2511620781172535 -30
      vertex 3.9684588052579115 0.501332934257217 -30
      vertex 3.9921069137130862 0.2511620781172535 0
    endloop
  endfacet
  facet normal 0.9995065603657315 0.03141075907812834 0
    outer loop
      vertex 4 0 -30
      vertex 3.9921069137130862 0.2511620781172535 -30
      vertex 4 0 0
    endloop
  endfacet
  facet normal 0.9876883405951378 0.15643446504023098 0
    outer loop
      vertex 3.9684588052579115 0.501332934257217 -30
      vertex 3.929149002914755 0.7495252583428985 -30
      vertex 3.9684588052579115 0.501332934257217 0
    endloop
  endfacet
  facet normal 0.9759167619387472 0.21814324139654379 0
    outer loop
      vertex 3.929149002914755 0.7495252583428985 -30
      vertex 3.8743326445145243 0.9947595486594192 -30
      vertex 3.929149002914755 0.7495252583428985 0
    endloop
  endfacet
  facet normal 0.9602936856769431 0.2789911060392294 0
    outer loop
      vertex 3.8743326445145243 0.9947595486594192 -30
      vertex 3.804226065180614 1.2360679774997896 -30
      vertex 3.8743326445145243 0.9947595486594192 0
    endloop
  endfacet
  facet normal 0.9408807689542255 0.33873792024529137 0
    outer loop
      vertex 3.7191059435530054 1.472498210738712 -30
      vertex 3.804226065180614 1.2360679774997896 0
      vertex 3.804226065180614 1.2360679774997896 -30
    endloop
  endfacet
  facet normal 0.9408807689542255 0.33873792024529137 0
    outer loop
      vertex 3.7191059435530054 1.472498210738712 -30
      vertex 3.7191059435530054 1.472498210738712 0
      vertex 3.804226065180614 1.2360679774997896 0
    endloop
  endfacet
  facet normal 0.6129070536529775 0.7901550123756896 0
    outer loop
      vertex 2.549695958994759 3.0820529711031566 -30
      vertex 2.3511410091698925 3.23606797749979 0
      vertex 2.549695958994759 3.0820529711031566 0
    endloop
  endfacet
  facet normal 0.6613118653236507 0.7501110696304606 0
    outer loop
      vertex 2.738188423714755 2.915874509685646 -30
      vertex 2.549695958994759 3.0820529711031566 0
      vertex 2.738188423714755 2.915874509685646 0
    endloop
  endfacet
  facet normal 0.7071067811865476 0.7071067811865476 0
    outer loop
      vertex 2.738188423714755 2.915874509685646 -30
      vertex 2.738188423714755 2.915874509685646 0
      vertex 2.915874509685646 2.738188423714755 0
    endloop
  endfacet
  facet normal 0.8270805742745618 0.5620833778521305 0
    outer loop
      vertex 3.23606797749979 2.3511410091698925 -30
      vertex 3.23606797749979 2.3511410091698925 0
      vertex 3.3773117020080603 2.1433071799159866 0
    endloop
  endfacet
  facet normal 0.9177546256839817 0.39714789063477923 0
    outer loop
      vertex 3.6193082098640783 1.7031171662602906 -30
      vertex 3.6193082098640783 1.7031171662602906 0
      vertex 3.7191059435530054 1.472498210738712 0
    endloop
  endfacet
  facet normal 0.8910065241883676 0.4539904997395472 0
    outer loop
      vertex 3.5052267201754543 1.9270146964068613 -30
      vertex 3.5052267201754543 1.9270146964068613 0
      vertex 3.6193082098640783 1.7031171662602906 0
    endloop
  endfacet
  facet normal 0.8607420270039435 0.5090414157503713 0
    outer loop
      vertex 3.3773117020080603 2.1433071799159866 -30
      vertex 3.3773117020080603 2.1433071799159866 0
      vertex 3.5052267201754543 1.9270146964068613 0
    endloop
  endfacet
  facet normal 0.7501110696304606 0.6613118653236507 0
    outer loop
      vertex 2.915874509685646 2.738188423714755 -30
      vertex 2.915874509685646 2.738188423714755 0
      vertex 3.0820529711031566 2.549695958994759 0
    endloop
  endfacet
  facet normal 0.7901550123756896 0.6129070536529775 0
    outer loop
      vertex 3.0820529711031566 2.549695958994759 -30
      vertex 3.0820529711031566 2.549695958994759 0
      vertex 3.23606797749979 2.3511410091698925 0
    endloop
  endfacet
  facet normal 0.03141075907812839 0.9995065603657316 0
    outer loop
      vertex 0.2511620781172531 3.9921069137130862 -30
      vertex 0 4 0
      vertex 0.2511620781172531 3.9921069137130862 0
    endloop
  endfacet
  facet normal 0.09410831331851335 0.9955619646030801 0
    outer loop
      vertex 0.5013329342572171 3.9684588052579115 -30
      vertex 0.2511620781172531 3.9921069137130862 0
      vertex 0.5013329342572171 3.9684588052579115 0
    endloop
  endfacet
  facet normal 0.1564344650402312 0.9876883405951377 0
    outer loop
      vertex 0.7495252583428983 3.929149002914755 -30
      vertex 0.5013329342572171 3.9684588052579115 0
      vertex 0.7495252583428983 3.929149002914755 0
    endloop
  endfacet
  facet normal 0.2181432413965434 0.9759167619387472 0
    outer loop
      vertex 0.9947595486594194 3.8743326445145243 -30
      vertex 0.7495252583428983 3.929149002914755 0
      vertex 0.9947595486594194 3.8743326445145243 0
    endloop
  endfacet
  facet normal 0.2789911060392296 0.960293685676943 0
    outer loop
      vertex 1.2360679774997896 3.804226065180614 -30
      vertex 0.9947595486594194 3.8743326445145243 0
      vertex 1.2360679774997896 3.804226065180614 0
    endloop
  endfacet
  facet normal 0.33873792024529037 0.9408807689542258 0
    outer loop
      vertex 1.4724982107387115 3.719105943553006 -30
      vertex 1.2360679774997896 3.804226065180614 0
      vertex 1.4724982107387115 3.719105943553006 0
    endloop
  endfacet
  facet normal 0.39714789063478123 0.9177546256839808 0
    outer loop
      vertex 1.7031171662602909 3.619308209864078 -30
      vertex 1.4724982107387115 3.719105943553006 0
      vertex 1.7031171662602909 3.619308209864078 0
    endloop
  endfacet
  facet normal 0.4539904997395469 0.8910065241883678 0
    outer loop
      vertex 1.9270146964068608 3.5052267201754543 -30
      vertex 1.7031171662602909 3.619308209864078 0
      vertex 1.9270146964068608 3.5052267201754543 0
    endloop
  endfacet
  facet normal 0.5090414157503707 0.8607420270039441 0
    outer loop
      vertex 2.1433071799159866 3.3773117020080603 -30
      vertex 1.9270146964068608 3.5052267201754543 0
      vertex 2.1433071799159866 3.3773117020080603 0
    endloop
  endfacet
  facet normal 0.5620833778521305 0.8270805742745618 0
    outer loop
      vertex 2.3511410091698925 3.23606797749979 -30
      vertex 2.1433071799159866 3.3773117020080603 0
      vertex 2.3511410091698925 3.23606797749979 0
    endloop
  endfacet
  facet normal 0.9995065603657315 0.03141075907812834 0
    outer loop
      vertex 3.9921069137130862 0.2511620781172535 -30
      vertex 3.9921069137130862 0.2511620781172535 0
      vertex 4 0 0
    endloop
  endfacet
  facet normal 0.9955619646030801 0.09410831331851353 0
    outer loop
      vertex 3.9684588052579115 0.501332934257217 -30
      vertex 3.9684588052579115 0.501332934257217 0
      vertex 3.9921069137130862 0.2511620781172535 0
    endloop
  endfacet
  facet normal 0.9876883405951378 0.15643446504023098 0
    outer loop
      vertex 3.929149002914755 0.7495252583428985 -30
      vertex 3.929149002914755 0.7495252583428985 0
      vertex 3.9684588052579115 0.501332934257217 0
    endloop
  endfacet
  facet normal 0.9759167619387472 0.21814324139654379 0
    outer loop
      vertex 3.8743326445145243 0.9947595486594192 -30
      vertex 3.8743326445145243 0.9947595486594192 0
      vertex 3.929149002914755 0.7495252583428985 0
    endloop
  endfacet
  facet normal 0.9602936856769431 0.2789911060392294 0
    outer loop
      vertex 3.804226065180614 1.2360679774997896 -30
      vertex 3.804226065180614 1.2360679774997896 0
      vertex 3.8743326445145243 0.9947595486594192 0
    endloop
  endfacet
endsolid OpenSCAD_Model
