solid OpenSCAD_Model
  facet normal 0 0 -1
    outer loop
      vertex -32.3606797749979 -23.511410091698927 0
      vertex -23.419571222560037 -26.010068891708798 0
      vertex -26.76522425435433 -29.725793019095768 0
    endloop
  endfacet
  facet normal 0 0 -1
    outer loop
      vertex -32.3606797749979 -23.511410091698927 0
      vertex -28.31559480312316 -20.57248383023656 0
      vertex -23.419571222560037 -26.010068891708798 0
    endloop
  endfacet
  facet normal 0 0 -1
    outer loop
      vertex -26.76522425435433 -29.725793019095768 0
      vertex -17.5 -30.31088913245535 0
      vertex -20 -34.64101615137754 0
    endloop
  endfacet
  facet normal 0 0 -1
    outer loop
      vertex -20 -34.64101615137754 0
      vertex -10.815594803123158 -33.28697807033037 0
      vertex -12.360679774997896 -38.04226065180614 0
    endloop
  endfacet
  facet normal 0 0 -1
    outer loop
      vertex -20 -34.64101615137754 0
      vertex -17.5 -30.31088913245535 0
      vertex -10.815594803123158 -33.28697807033037 0
    endloop
  endfacet
  facet normal 0 0 -1
    outer loop
      vertex -26.76522425435433 -29.725793019095768 0
      vertex -23.419571222560037 -26.010068891708798 0
      vertex -17.5 -30.31088913245535 0
    endloop
  endfacet
  facet normal -0.743144825477394 -0.6691306063588583 0
    outer loop
      vertex -32.3606797749979 -23.511410091698927 0
      vertex -26.76522425435433 -29.725793019095768 0
      vertex -32.3606797749979 -23.511410091698927 90
    endloop
  endfacet
  facet normal -0.5877852522924729 -0.8090169943749476 0
    outer loop
      vertex -26.76522425435433 -29.725793019095768 0
      vertex -20 -34.64101615137754 0
      vertex -20 -34.64101615137754 90
    endloop
  endfacet
  facet normal -0.4067366430758001 -0.913545457642601 0
    outer loop
      vertex -20 -34.64101615137754 0
      vertex -12.360679774997896 -38.04226065180614 0
      vertex -12.360679774997896 -38.04226065180614 90
    endloop
  endfacet
  facet normal 0 0 -1
    outer loop
      vertex -32.3606797749979 -23.511410091698927 0
      vertex -36.541818305704034 -16.26946572303201 0
      vertex -31.97409101749103 -14.235782507653008 0
    endloop
  endfacet
  facet normal 0 0 -1
    outer loop
      vertex -36.541818305704034 -16.26946572303201 0
      vertex -34.2351660256832 -7.276909178621577 0
      vertex -31.97409101749103 -14.235782507653008 0
    endloop
  endfacet
  facet normal 0 0 -1
    outer loop
      vertex -32.3606797749979 -23.511410091698927 0
      vertex -31.97409101749103 -14.235782507653008 0
      vertex -28.31559480312316 -20.57248383023656 0
    endloop
  endfacet
  facet normal 0 0 -1
    outer loop
      vertex -36.541818305704034 -16.26946572303201 0
      vertex -35 0 0
      vertex -34.2351660256832 -7.276909178621577 0
    endloop
  endfacet
  facet normal 0 0 -1
    outer loop
      vertex -36.541818305704034 -16.26946572303201 0
      vertex -39.12590402935223 -8.316467632710374 0
      vertex -36.541818305704034 16.26946572303201 0
    endloop
  endfacet
  facet normal -0.8660254037844388 -0.4999999999999997 0
    outer loop
      vertex -32.3606797749979 -23.511410091698927 0
      vertex -36.541818305704034 -16.26946572303201 90
      vertex -36.541818305704034 -16.26946572303201 0
    endloop
  endfacet
  facet normal -0.9510565162951534 -0.30901699437494784 0
    outer loop
      vertex -36.541818305704034 -16.26946572303201 0
      vertex -39.12590402935223 -8.316467632710374 90
      vertex -39.12590402935223 -8.316467632710374 0
    endloop
  endfacet
  facet normal -0.9945218953682735 -0.10452846326765322 0
    outer loop
      vertex -39.12590402935223 -8.316467632710374 0
      vertex -40 0 90
      vertex -40 0 0
    endloop
  endfacet
  facet normal 0 0 -1
    outer loop
      vertex -12.360679774997896 -38.04226065180614 0
      vertex -3.6584962143678714 -34.80826633788956 0
      vertex -4.181138530706139 -39.78087581473093 0
    endloop
  endfacet
  facet normal 0 0 -1
    outer loop
      vertex -12.360679774997896 -38.04226065180614 0
      vertex -10.815594803123158 -33.28697807033037 0
      vertex -3.6584962143678714 -34.80826633788956 0
    endloop
  endfacet
  facet normal 0 0 -1
    outer loop
      vertex -4.181138530706139 -39.78087581473093 0
      vertex 3.6584962143678714 -34.80826633788956 0
      vertex 4.181138530706139 -39.78087581473093 0
    endloop
  endfacet
  facet normal 0 0 -1
    outer loop
      vertex -4.181138530706139 -39.78087581473093 0
      vertex -3.6584962143678714 -34.80826633788956 0
      vertex 3.6584962143678714 -34.80826633788956 0
    endloop
  endfacet
  facet normal 0 0 -1
    outer loop
      vertex 4.181138530706139 -39.78087581473093 0
      vertex 3.6584962143678714 -34.80826633788956 0
      vertex 10.815594803123158 -33.28697807033037 0
    endloop
  endfacet
  facet normal 0 0 -1
    outer loop
      vertex 4.181138530706139 -39.78087581473093 0
      vertex 10.815594803123158 -33.28697807033037 0
      vertex 12.360679774997896 -38.04226065180614 0
    endloop
  endfacet
  facet normal 0 0 -1
    outer loop
      vertex 12.360679774997896 -38.04226065180614 0
      vertex 10.815594803123158 -33.28697807033037 0
      vertex 17.5 -30.31088913245535 0
    endloop
  endfacet
  facet normal 0 0 -1
    outer loop
      vertex 12.360679774997896 -38.04226065180614 0
      vertex 17.5 -30.31088913245535 0
      vertex 20 -34.64101615137754 0
    endloop
  endfacet
  facet normal -0.20791169081775981 -0.9781476007338055 0
    outer loop
      vertex -12.360679774997896 -38.04226065180614 0
      vertex -4.181138530706139 -39.78087581473093 0
      vertex -4.181138530706139 -39.78087581473093 90
    endloop
  endfacet
  facet normal 0 -1 0
    outer loop
      vertex -4.181138530706139 -39.78087581473093 0
      vertex 4.181138530706139 -39.78087581473093 0
      vertex 4.181138530706139 -39.78087581473093 90
    endloop
  endfacet
  facet normal 0.20791169081775981 -0.9781476007338055 0
    outer loop
      vertex 4.181138530706139 -39.78087581473093 0
      vertex 12.360679774997896 -38.04226065180614 0
      vertex 12.360679774997896 -38.04226065180614 90
    endloop
  endfacet
  facet normal 0.4067366430758001 -0.913545457642601 0
    outer loop
      vertex 12.360679774997896 -38.04226065180614 0
      vertex 20 -34.64101615137754 0
      vertex 20 -34.64101615137754 90
    endloop
  endfacet
  facet normal -0.8660254037844388 -0.4999999999999997 0
    outer loop
      vertex -32.3606797749979 -23.511410091698927 0
      vertex -32.3606797749979 -23.511410091698927 90
      vertex -36.541818305704034 -16.26946572303201 90
    endloop
  endfacet
  facet normal -0.743144825477394 -0.6691306063588583 0
    outer loop
      vertex -26.76522425435433 -29.725793019095768 0
      vertex -26.76522425435433 -29.725793019095768 90
      vertex -32.3606797749979 -23.511410091698927 90
    endloop
  endfacet
  facet normal -0.5877852522924729 -0.8090169943749476 0
    outer loop
      vertex -26.76522425435433 -29.725793019095768 0
      vertex -20 -34.64101615137754 90
      vertex -26.76522425435433 -29.725793019095768 90
    endloop
  endfacet
  facet normal -0.4067366430758001 -0.913545457642601 0
    outer loop
      vertex -20 -34.64101615137754 0
      vertex -12.360679774997896 -38.04226065180614 90
      vertex -20 -34.64101615137754 90
    endloop
  endfacet
  facet normal -0.9510565162951534 -0.30901699437494784 0
    outer loop
      vertex -36.541818305704034 -16.26946572303201 0
      vertex -36.541818305704034 -16.26946572303201 90
      vertex -39.12590402935223 -8.316467632710374 90
    endloop
  endfacet
  facet normal -0.9945218953682735 -0.10452846326765322 0
    outer loop
      vertex -39.12590402935223 -8.316467632710374 0
      vertex -39.12590402935223 -8.316467632710374 90
      vertex -40 0 90
    endloop
  endfacet
  facet normal 0 0 1
    outer loop
      vertex -36.541818305704034 -16.26946572303201 90
      vertex -39.12590402935223 8.316467632710374 90
      vertex -39.12590402935223 -8.316467632710374 90
    endloop
  endfacet
  facet normal 0 0 1
    outer loop
      vertex -32.3606797749979 -23.511410091698927 90
      vertex -36.541818305704034 16.26946572303201 90
      vertex -36.541818305704034 -16.26946572303201 90
    endloop
  endfacet
  facet normal 0 0 1
    outer loop
      vertex -32.3606797749979 -23.511410091698927 90
      vertex -26.76522425435433 -29.725793019095768 90
      vertex -32.3606797749979 23.511410091698927 90
    endloop
  endfacet
  facet normal 0 0 1
    outer loop
      vertex -26.76522425435433 -29.725793019095768 90
      vertex -20 -34.64101615137754 90
      vertex -26.76522425435433 29.725793019095768 90
    endloop
  endfacet
  facet normal 0 0 1
    outer loop
      vertex -20 -34.64101615137754 90
      vertex -12.360679774997896 -38.04226065180614 90
      vertex -20 34.64101615137754 90
    endloop
  endfacet
  facet normal -0.20791169081775981 -0.9781476007338055 0
    outer loop
      vertex -12.360679774997896 -38.04226065180614 0
      vertex -4.181138530706139 -39.78087581473093 90
      vertex -12.360679774997896 -38.04226065180614 90
    endloop
  endfacet
  facet normal 0 -1 0
    outer loop
      vertex -4.181138530706139 -39.78087581473093 0
      vertex 4.181138530706139 -39.78087581473093 90
      vertex -4.181138530706139 -39.78087581473093 90
    endloop
  endfacet
  facet normal 0.20791169081775981 -0.9781476007338055 0
    outer loop
      vertex 4.181138530706139 -39.78087581473093 0
      vertex 12.360679774997896 -38.04226065180614 90
      vertex 4.181138530706139 -39.78087581473093 90
    endloop
  endfacet
  facet normal 0.4067366430758001 -0.913545457642601 0
    outer loop
      vertex 12.360679774997896 -38.04226065180614 0
      vertex 20 -34.64101615137754 90
      vertex 12.360679774997896 -38.04226065180614 90
    endloop
  endfacet
  facet normal 0 0 1
    outer loop
      vertex -12.360679774997896 -38.04226065180614 90
      vertex -4.181138530706139 -39.78087581473093 90
      vertex -12.360679774997896 38.04226065180614 90
    endloop
  endfacet
  facet normal 0 0 1
    outer loop
      vertex -4.181138530706139 -39.78087581473093 90
      vertex 4.181138530706139 -39.78087581473093 90
      vertex -4.181138530706139 39.78087581473093 90
    endloop
  endfacet
  facet normal 0 0 1
    outer loop
      vertex 4.181138530706139 -39.78087581473093 90
      vertex 12.360679774997896 -38.04226065180614 90
      vertex 4.181138530706139 39.78087581473093 90
    endloop
  endfacet
  facet normal 0 0 1
    outer loop
      vertex 12.360679774997896 -38.04226065180614 90
      vertex 20 -34.64101615137754 90
      vertex 12.360679774997896 38.04226065180614 90
    endloop
  endfacet
  facet normal 0 0 -1
    outer loop
      vertex -39.12590402935223 -8.316467632710374 0
      vertex -40 0 0
      vertex -39.12590402935223 8.316467632710374 0
    endloop
  endfacet
  facet normal 0 0 -1
    outer loop
      vertex -36.541818305704034 -16.26946572303201 0
      vertex -36.541818305704034 16.26946572303201 0
      vertex -35 0 0
    endloop
  endfacet
  facet normal 0 0 -1
    outer loop
      vertex -39.12590402935223 -8.316467632710374 0
      vertex -39.12590402935223 8.316467632710374 0
      vertex -36.541818305704034 16.26946572303201 0
    endloop
  endfacet
  facet normal 0 0 -1
    outer loop
      vertex -35 0 0
      vertex -36.541818305704034 16.26946572303201 0
      vertex -34.2351660256832 7.276909178621577 0
    endloop
  endfacet
  facet normal 0 0 -1
    outer loop
      vertex -34.2351660256832 7.276909178621577 0
      vertex -36.541818305704034 16.26946572303201 0
      vertex -32.3606797749979 23.511410091698927 0
    endloop
  endfacet
  facet normal 0 0 -1
    outer loop
      vertex -34.2351660256832 7.276909178621577 0
      vertex -32.3606797749979 23.511410091698927 0
      vertex -31.97409101749103 14.235782507653008 0
    endloop
  endfacet
  facet normal 0 0 -1
    outer loop
      vertex -31.97409101749103 14.235782507653008 0
      vertex -32.3606797749979 23.511410091698927 0
      vertex -28.31559480312316 20.57248383023656 0
    endloop
  endfacet
  facet normal -0.9945218953682735 0.10452846326765322 0
    outer loop
      vertex -40 0 0
      vertex -39.12590402935223 8.316467632710374 90
      vertex -39.12590402935223 8.316467632710374 0
    endloop
  endfacet
  facet normal -0.9510565162951534 0.30901699437494784 0
    outer loop
      vertex -39.12590402935223 8.316467632710374 0
      vertex -36.541818305704034 16.26946572303201 90
      vertex -36.541818305704034 16.26946572303201 0
    endloop
  endfacet
  facet normal 0 0 -1
    outer loop
      vertex -32.3606797749979 23.511410091698927 0
      vertex -26.76522425435433 29.725793019095768 0
      vertex -28.31559480312316 20.57248383023656 0
    endloop
  endfacet
  facet normal 0 0 -1
    outer loop
      vertex -28.31559480312316 20.57248383023656 0
      vertex -26.76522425435433 29.725793019095768 0
      vertex -23.419571222560037 26.010068891708798 0
    endloop
  endfacet
  facet normal 0 0 -1
    outer loop
      vertex -26.76522425435433 29.725793019095768 0
      vertex -20 34.64101615137754 0
      vertex -23.419571222560037 26.010068891708798 0
    endloop
  endfacet
  facet normal 0 0 -1
    outer loop
      vertex -23.419571222560037 26.010068891708798 0
      vertex -20 34.64101615137754 0
      vertex -17.5 30.31088913245535 0
    endloop
  endfacet
  facet normal 0 0 -1
    outer loop
      vertex -20 34.64101615137754 0
      vertex -12.360679774997896 38.04226065180614 0
      vertex -17.5 30.31088913245535 0
    endloop
  endfacet
  facet normal 0 0 -1
    outer loop
      vertex -17.5 30.31088913245535 0
      vertex -12.360679774997896 38.04226065180614 0
      vertex -10.815594803123158 33.28697807033037 0
    endloop
  endfacet
  facet normal -0.8660254037844388 0.4999999999999997 0
    outer loop
      vertex -36.541818305704034 16.26946572303201 0
      vertex -32.3606797749979 23.511410091698927 90
      vertex -32.3606797749979 23.511410091698927 0
    endloop
  endfacet
  facet normal -0.743144825477394 0.6691306063588583 0
    outer loop
      vertex -32.3606797749979 23.511410091698927 0
      vertex -26.76522425435433 29.725793019095768 90
      vertex -26.76522425435433 29.725793019095768 0
    endloop
  endfacet
  facet normal -0.5877852522924729 0.8090169943749476 0
    outer loop
      vertex -26.76522425435433 29.725793019095768 0
      vertex -26.76522425435433 29.725793019095768 90
      vertex -20 34.64101615137754 0
    endloop
  endfacet
  facet normal -0.4067366430758001 0.913545457642601 0
    outer loop
      vertex -20 34.64101615137754 0
      vertex -20 34.64101615137754 90
      vertex -12.360679774997896 38.04226065180614 0
    endloop
  endfacet
  facet normal 0 0 -1
    outer loop
      vertex -10.815594803123158 33.28697807033037 0
      vertex -12.360679774997896 38.04226065180614 0
      vertex -4.181138530706139 39.78087581473093 0
    endloop
  endfacet
  facet normal 0 0 -1
    outer loop
      vertex -10.815594803123158 33.28697807033037 0
      vertex -4.181138530706139 39.78087581473093 0
      vertex -3.6584962143678714 34.80826633788956 0
    endloop
  endfacet
  facet normal 0 0 -1
    outer loop
      vertex -3.6584962143678714 34.80826633788956 0
      vertex -4.181138530706139 39.78087581473093 0
      vertex 4.181138530706139 39.78087581473093 0
    endloop
  endfacet
  facet normal 0 0 -1
    outer loop
      vertex -3.6584962143678714 34.80826633788956 0
      vertex 4.181138530706139 39.78087581473093 0
      vertex 3.6584962143678714 34.80826633788956 0
    endloop
  endfacet
  facet normal 0 0 -1
    outer loop
      vertex 3.6584962143678714 34.80826633788956 0
      vertex 4.181138530706139 39.78087581473093 0
      vertex 12.360679774997896 38.04226065180614 0
    endloop
  endfacet
  facet normal 0 0 -1
    outer loop
      vertex 3.6584962143678714 34.80826633788956 0
      vertex 12.360679774997896 38.04226065180614 0
      vertex 10.815594803123158 33.28697807033037 0
    endloop
  endfacet
  facet normal 0 0 -1
    outer loop
      vertex 10.815594803123158 33.28697807033037 0
      vertex 20 34.64101615137754 0
      vertex 17.5 30.31088913245535 0
    endloop
  endfacet
  facet normal 0 0 -1
    outer loop
      vertex 10.815594803123158 33.28697807033037 0
      vertex 12.360679774997896 38.04226065180614 0
      vertex 20 34.64101615137754 0
    endloop
  endfacet
  facet normal -0.20791169081775981 0.9781476007338055 0
    outer loop
      vertex -12.360679774997896 38.04226065180614 0
      vertex -12.360679774997896 38.04226065180614 90
      vertex -4.181138530706139 39.78087581473093 0
    endloop
  endfacet
  facet normal 0 1 0
    outer loop
      vertex -4.181138530706139 39.78087581473093 0
      vertex -4.181138530706139 39.78087581473093 90
      vertex 4.181138530706139 39.78087581473093 0
    endloop
  endfacet
  facet normal 0.20791169081775981 0.9781476007338055 0
    outer loop
      vertex 4.181138530706139 39.78087581473093 0
      vertex 4.181138530706139 39.78087581473093 90
      vertex 12.360679774997896 38.04226065180614 0
    endloop
  endfacet
  facet normal 0.4067366430758001 0.913545457642601 0
    outer loop
      vertex 12.360679774997896 38.04226065180614 0
      vertex 12.360679774997896 38.04226065180614 90
      vertex 20 34.64101615137754 0
    endloop
  endfacet
  facet normal -0.9945218953682735 0.10452846326765322 0
    outer loop
      vertex -40 0 0
      vertex -40 0 90
      vertex -39.12590402935223 8.316467632710374 90
    endloop
  endfacet
  facet normal -0.9510565162951534 0.30901699437494784 0
    outer loop
      vertex -39.12590402935223 8.316467632710374 0
      vertex -39.12590402935223 8.316467632710374 90
      vertex -36.541818305704034 16.26946572303201 90
    endloop
  endfacet
  facet normal -0.8660254037844388 0.4999999999999997 0
    outer loop
      vertex -36.541818305704034 16.26946572303201 0
      vertex -36.541818305704034 16.26946572303201 90
      vertex -32.3606797749979 23.511410091698927 90
    endloop
  endfacet
  facet normal 0 0 1
    outer loop
      vertex -39.12590402935223 -8.316467632710374 90
      vertex -39.12590402935223 8.316467632710374 90
      vertex -40 0 90
    endloop
  endfacet
  facet normal 0 0 1
    outer loop
      vertex -36.541818305704034 -16.26946572303201 90
      vertex -36.541818305704034 16.26946572303201 90
      vertex -39.12590402935223 8.316467632710374 90
    endloop
  endfacet
  facet normal 0 0 1
    outer loop
      vertex -32.3606797749979 -23.511410091698927 90
      vertex -32.3606797749979 23.511410091698927 90
      vertex -36.541818305704034 16.26946572303201 90
    endloop
  endfacet
  facet normal 0 0 1
    outer loop
      vertex -26.76522425435433 -29.725793019095768 90
      vertex -26.76522425435433 29.725793019095768 90
      vertex -32.3606797749979 23.511410091698927 90
    endloop
  endfacet
  facet normal 0 0 1
    outer loop
      vertex -20 -34.64101615137754 90
      vertex -20 34.64101615137754 90
      vertex -26.76522425435433 29.725793019095768 90
    endloop
  endfacet
  facet normal 0 0 1
    outer loop
      vertex -12.360679774997896 -38.04226065180614 90
      vertex -12.360679774997896 38.04226065180614 90
      vertex -20 34.64101615137754 90
    endloop
  endfacet
  facet normal -0.743144825477394 0.6691306063588583 0
    outer loop
      vertex -32.3606797749979 23.511410091698927 0
      vertex -32.3606797749979 23.511410091698927 90
      vertex -26.76522425435433 29.725793019095768 90
    endloop
  endfacet
  facet normal -0.5877852522924729 0.8090169943749476 0
    outer loop
      vertex -20 34.64101615137754 0
      vertex -26.76522425435433 29.725793019095768 90
      vertex -20 34.64101615137754 90
    endloop
  endfacet
  facet normal -0.4067366430758001 0.913545457642601 0
    outer loop
      vertex -12.360679774997896 38.04226065180614 0
      vertex -20 34.64101615137754 90
      vertex -12.360679774997896 38.04226065180614 90
    endloop
  endfacet
  facet normal 0 0 1
    outer loop
      vertex -4.181138530706139 -39.78087581473093 90
      vertex -4.181138530706139 39.78087581473093 90
      vertex -12.360679774997896 38.04226065180614 90
    endloop
  endfacet
  facet normal 0 0 1
    outer loop
      vertex -4.181138530706139 39.78087581473093 90
      vertex 4.181138530706139 -39.78087581473093 90
      vertex 4.181138530706139 39.78087581473093 90
    endloop
  endfacet
  facet normal 0 0 1
    outer loop
      vertex 12.360679774997896 -38.04226065180614 90
      vertex 12.360679774997896 38.04226065180614 90
      vertex 4.181138530706139 39.78087581473093 90
    endloop
  endfacet
  facet normal 0 0 1
    outer loop
      vertex 20 -34.64101615137754 90
      vertex 20 34.64101615137754 90
      vertex 12.360679774997896 38.04226065180614 90
    endloop
  endfacet
  facet normal -0.20791169081775981 0.9781476007338055 0
    outer loop
      vertex -4.181138530706139 39.78087581473093 0
      vertex -12.360679774997896 38.04226065180614 90
      vertex -4.181138530706139 39.78087581473093 90
    endloop
  endfacet
  facet normal 0 1 0
    outer loop
      vertex -4.181138530706139 39.78087581473093 90
      vertex 4.181138530706139 39.78087581473093 90
      vertex 4.181138530706139 39.78087581473093 0
    endloop
  endfacet
  facet normal 0.20791169081775981 0.9781476007338055 0
    outer loop
      vertex 12.360679774997896 38.04226065180614 0
      vertex 4.181138530706139 39.78087581473093 90
      vertex 12.360679774997896 38.04226065180614 90
    endloop
  endfacet
  facet normal 0.4067366430758001 0.913545457642601 0
    outer loop
      vertex 20 34.64101615137754 0
      vertex 12.360679774997896 38.04226065180614 90
      vertex 20 34.64101615137754 90
    endloop
  endfacet
  facet normal 0 0 -1
    outer loop
      vertex 17.5 -30.31088913245535 0
      vertex 23.419571222560037 -26.010068891708798 0
      vertex 20 -34.64101615137754 0
    endloop
  endfacet
  facet normal 0 0 -1
    outer loop
      vertex 20 -34.64101615137754 0
      vertex 23.419571222560037 -26.010068891708798 0
      vertex 26.76522425435433 -29.725793019095768 0
    endloop
  endfacet
  facet normal 0 0 -1
    outer loop
      vertex 23.419571222560037 -26.010068891708798 0
      vertex 28.31559480312316 -20.57248383023656 0
      vertex 26.76522425435433 -29.725793019095768 0
    endloop
  endfacet
  facet normal 0 0 -1
    outer loop
      vertex 26.76522425435433 -29.725793019095768 0
      vertex 28.31559480312316 -20.57248383023656 0
      vertex 32.3606797749979 -23.511410091698927 0
    endloop
  endfacet
  facet normal 0.5877852522924729 -0.8090169943749476 0
    outer loop
      vertex 20 -34.64101615137754 0
      vertex 26.76522425435433 -29.725793019095768 0
      vertex 26.76522425435433 -29.725793019095768 90
    endloop
  endfacet
  facet normal 0.743144825477394 -0.6691306063588583 0
    outer loop
      vertex 26.76522425435433 -29.725793019095768 0
      vertex 32.3606797749979 -23.511410091698927 0
      vertex 26.76522425435433 -29.725793019095768 90
    endloop
  endfacet
  facet normal 0.8660254037844388 -0.4999999999999997 0
    outer loop
      vertex 32.3606797749979 -23.511410091698927 0
      vertex 36.541818305704034 -16.26946572303201 0
      vertex 32.3606797749979 -23.511410091698927 90
    endloop
  endfacet
  facet normal 0 0 -1
    outer loop
      vertex 28.31559480312316 -20.57248383023656 0
      vertex 31.97409101749103 -14.235782507653008 0
      vertex 32.3606797749979 -23.511410091698927 0
    endloop
  endfacet
  facet normal 0 0 -1
    outer loop
      vertex 32.3606797749979 -23.511410091698927 0
      vertex 31.97409101749103 -14.235782507653008 0
      vertex 34.2351660256832 -7.276909178621577 0
    endloop
  endfacet
  facet normal 0 0 -1
    outer loop
      vertex 32.3606797749979 -23.511410091698927 0
      vertex 34.2351660256832 -7.276909178621577 0
      vertex 36.541818305704034 -16.26946572303201 0
    endloop
  endfacet
  facet normal 0 0 -1
    outer loop
      vertex 36.541818305704034 -16.26946572303201 0
      vertex 34.2351660256832 -7.276909178621577 0
      vertex 35 0 0
    endloop
  endfacet
  facet normal 0 0 -1
    outer loop
      vertex 36.541818305704034 -16.26946572303201 0
      vertex 39.12590402935223 8.316467632710374 0
      vertex 39.12590402935223 -8.316467632710374 0
    endloop
  endfacet
  facet normal 0.9510565162951534 -0.30901699437494784 0
    outer loop
      vertex 36.541818305704034 -16.26946572303201 0
      vertex 39.12590402935223 -8.316467632710374 0
      vertex 36.541818305704034 -16.26946572303201 90
    endloop
  endfacet
  facet normal 0.9945218953682735 -0.10452846326765322 0
    outer loop
      vertex 39.12590402935223 -8.316467632710374 0
      vertex 40 0 0
      vertex 39.12590402935223 -8.316467632710374 90
    endloop
  endfacet
  facet normal 0.5877852522924729 -0.8090169943749476 0
    outer loop
      vertex 20 -34.64101615137754 0
      vertex 26.76522425435433 -29.725793019095768 90
      vertex 20 -34.64101615137754 90
    endloop
  endfacet
  facet normal 0.743144825477394 -0.6691306063588583 0
    outer loop
      vertex 32.3606797749979 -23.511410091698927 0
      vertex 32.3606797749979 -23.511410091698927 90
      vertex 26.76522425435433 -29.725793019095768 90
    endloop
  endfacet
  facet normal 0.8660254037844388 -0.4999999999999997 0
    outer loop
      vertex 36.541818305704034 -16.26946572303201 0
      vertex 36.541818305704034 -16.26946572303201 90
      vertex 32.3606797749979 -23.511410091698927 90
    endloop
  endfacet
  facet normal 0.9510565162951534 -0.30901699437494784 0
    outer loop
      vertex 39.12590402935223 -8.316467632710374 0
      vertex 39.12590402935223 -8.316467632710374 90
      vertex 36.541818305704034 -16.26946572303201 90
    endloop
  endfacet
  facet normal 0.9945218953682735 -0.10452846326765322 0
    outer loop
      vertex 39.12590402935223 -8.316467632710374 90
      vertex 40 0 0
      vertex 40 0 90
    endloop
  endfacet
  facet normal 0 0 1
    outer loop
      vertex 20 -34.64101615137754 90
      vertex 26.76522425435433 -29.725793019095768 90
      vertex 20 34.64101615137754 90
    endloop
  endfacet
  facet normal 0 0 1
    outer loop
      vertex 26.76522425435433 -29.725793019095768 90
      vertex 32.3606797749979 -23.511410091698927 90
      vertex 26.76522425435433 29.725793019095768 90
    endloop
  endfacet
  facet normal 0 0 1
    outer loop
      vertex 32.3606797749979 -23.511410091698927 90
      vertex 36.541818305704034 -16.26946572303201 90
      vertex 32.3606797749979 23.511410091698927 90
    endloop
  endfacet
  facet normal 0 0 1
    outer loop
      vertex 36.541818305704034 -16.26946572303201 90
      vertex 39.12590402935223 -8.316467632710374 90
      vertex 36.541818305704034 16.26946572303201 90
    endloop
  endfacet
  facet normal 0 0 -1
    outer loop
      vertex 34.2351660256832 7.276909178621577 0
      vertex 31.97409101749103 14.235782507653008 0
      vertex 36.541818305704034 16.26946572303201 0
    endloop
  endfacet
  facet normal 0 0 -1
    outer loop
      vertex 31.97409101749103 14.235782507653008 0
      vertex 28.31559480312316 20.57248383023656 0
      vertex 32.3606797749979 23.511410091698927 0
    endloop
  endfacet
  facet normal 0 0 -1
    outer loop
      vertex 31.97409101749103 14.235782507653008 0
      vertex 32.3606797749979 23.511410091698927 0
      vertex 36.541818305704034 16.26946572303201 0
    endloop
  endfacet
  facet normal 0 0 -1
    outer loop
      vertex 36.541818305704034 -16.26946572303201 0
      vertex 35 0 0
      vertex 36.541818305704034 16.26946572303201 0
    endloop
  endfacet
  facet normal 0 0 -1
    outer loop
      vertex 36.541818305704034 -16.26946572303201 0
      vertex 36.541818305704034 16.26946572303201 0
      vertex 39.12590402935223 8.316467632710374 0
    endloop
  endfacet
  facet normal 0 0 -1
    outer loop
      vertex 39.12590402935223 -8.316467632710374 0
      vertex 39.12590402935223 8.316467632710374 0
      vertex 40 0 0
    endloop
  endfacet
  facet normal 0 0 -1
    outer loop
      vertex 34.2351660256832 7.276909178621577 0
      vertex 36.541818305704034 16.26946572303201 0
      vertex 35 0 0
    endloop
  endfacet
  facet normal 0.9945218953682735 0.10452846326765322 0
    outer loop
      vertex 40 0 0
      vertex 39.12590402935223 8.316467632710374 0
      vertex 40 0 90
    endloop
  endfacet
  facet normal 0.9510565162951534 0.30901699437494784 0
    outer loop
      vertex 39.12590402935223 8.316467632710374 0
      vertex 36.541818305704034 16.26946572303201 0
      vertex 39.12590402935223 8.316467632710374 90
    endloop
  endfacet
  facet normal 0.8660254037844388 0.4999999999999997 0
    outer loop
      vertex 36.541818305704034 16.26946572303201 0
      vertex 32.3606797749979 23.511410091698927 0
      vertex 36.541818305704034 16.26946572303201 90
    endloop
  endfacet
  facet normal 0 0 -1
    outer loop
      vertex 17.5 30.31088913245535 0
      vertex 26.76522425435433 29.725793019095768 0
      vertex 23.419571222560037 26.010068891708798 0
    endloop
  endfacet
  facet normal 0 0 -1
    outer loop
      vertex 23.419571222560037 26.010068891708798 0
      vertex 32.3606797749979 23.511410091698927 0
      vertex 28.31559480312316 20.57248383023656 0
    endloop
  endfacet
  facet normal 0 0 -1
    outer loop
      vertex 23.419571222560037 26.010068891708798 0
      vertex 26.76522425435433 29.725793019095768 0
      vertex 32.3606797749979 23.511410091698927 0
    endloop
  endfacet
  facet normal 0 0 -1
    outer loop
      vertex 17.5 30.31088913245535 0
      vertex 20 34.64101615137754 0
      vertex 26.76522425435433 29.725793019095768 0
    endloop
  endfacet
  facet normal 0.743144825477394 0.6691306063588583 0
    outer loop
      vertex 26.76522425435433 29.725793019095768 0
      vertex 32.3606797749979 23.511410091698927 90
      vertex 32.3606797749979 23.511410091698927 0
    endloop
  endfacet
  facet normal 0.5877852522924729 0.8090169943749476 0
    outer loop
      vertex 26.76522425435433 29.725793019095768 0
      vertex 20 34.64101615137754 0
      vertex 20 34.64101615137754 90
    endloop
  endfacet
  facet normal 0.9945218953682735 0.10452846326765322 0
    outer loop
      vertex 39.12590402935223 8.316467632710374 0
      vertex 39.12590402935223 8.316467632710374 90
      vertex 40 0 90
    endloop
  endfacet
  facet normal 0.9510565162951534 0.30901699437494784 0
    outer loop
      vertex 36.541818305704034 16.26946572303201 0
      vertex 36.541818305704034 16.26946572303201 90
      vertex 39.12590402935223 8.316467632710374 90
    endloop
  endfacet
  facet normal 0 0 1
    outer loop
      vertex 32.3606797749979 -23.511410091698927 90
      vertex 32.3606797749979 23.511410091698927 90
      vertex 26.76522425435433 29.725793019095768 90
    endloop
  endfacet
  facet normal 0 0 1
    outer loop
      vertex 26.76522425435433 -29.725793019095768 90
      vertex 26.76522425435433 29.725793019095768 90
      vertex 20 34.64101615137754 90
    endloop
  endfacet
  facet normal 0 0 1
    outer loop
      vertex 39.12590402935223 -8.316467632710374 90
      vertex 40 0 90
      vertex 39.12590402935223 8.316467632710374 90
    endloop
  endfacet
  facet normal 0 0 1
    outer loop
      vertex 39.12590402935223 -8.316467632710374 90
      vertex 39.12590402935223 8.316467632710374 90
      vertex 36.541818305704034 16.26946572303201 90
    endloop
  endfacet
  facet normal 0 0 1
    outer loop
      vertex 36.541818305704034 -16.26946572303201 90
      vertex 36.541818305704034 16.26946572303201 90
      vertex 32.3606797749979 23.511410091698927 90
    endloop
  endfacet
  facet normal 0.8660254037844388 0.4999999999999997 0
    outer loop
      vertex 32.3606797749979 23.511410091698927 0
      vertex 32.3606797749979 23.511410091698927 90
      vertex 36.541818305704034 16.26946572303201 90
    endloop
  endfacet
  facet normal 0.743144825477394 0.6691306063588583 0
    outer loop
      vertex 26.76522425435433 29.725793019095768 0
      vertex 26.76522425435433 29.725793019095768 90
      vertex 32.3606797749979 23.511410091698927 90
    endloop
  endfacet
  facet normal 0.5877852522924729 0.8090169943749476 0
    outer loop
      vertex 26.76522425435433 29.725793019095768 0
      vertex 20 34.64101615137754 90
      vertex 26.76522425435433 29.725793019095768 90
    endloop
  endfacet
  facet normal 0.743144825477394 0.6691306063588585 0
    outer loop
      vertex -28.31559480312316 -20.57248383023656 0
      vertex -28.31559480312316 -20.57248383023656 84
      vertex -23.419571222560037 -26.010068891708798 0
    endloop
  endfacet
  facet normal 0.40673664307579976 0.9135454576426012 0
    outer loop
      vertex -17.5 -30.31088913245535 0
      vertex -10.815594803123158 -33.28697807033037 84
      vertex -10.815594803123158 -33.28697807033037 0
    endloop
  endfacet
  facet normal 0.587785252292473 0.8090169943749473 0
    outer loop
      vertex -23.419571222560037 -26.010068891708798 0
      vertex -17.5 -30.31088913245535 84
      vertex -17.5 -30.31088913245535 0
    endloop
  endfacet
  facet normal 0.8660254037844388 0.4999999999999997 0
    outer loop
      vertex -28.31559480312316 -20.57248383023656 0
      vertex -31.97409101749103 -14.235782507653008 0
      vertex -31.97409101749103 -14.235782507653008 84
    endloop
  endfacet
  facet normal 0.9510565162951534 0.3090169943749477 0
    outer loop
      vertex -31.97409101749103 -14.235782507653008 0
      vertex -34.2351660256832 -7.276909178621577 0
      vertex -34.2351660256832 -7.276909178621577 84
    endloop
  endfacet
  facet normal 0.9945218953682734 0.10452846326765322 0
    outer loop
      vertex -34.2351660256832 -7.276909178621577 0
      vertex -35 0 0
      vertex -35 0 84
    endloop
  endfacet
  facet normal 0.20791169081775945 0.9781476007338055 0
    outer loop
      vertex -10.815594803123158 -33.28697807033037 0
      vertex -3.6584962143678714 -34.80826633788956 84
      vertex -3.6584962143678714 -34.80826633788956 0
    endloop
  endfacet
  facet normal 0 1 0
    outer loop
      vertex -3.6584962143678714 -34.80826633788956 0
      vertex 3.6584962143678714 -34.80826633788956 84
      vertex 3.6584962143678714 -34.80826633788956 0
    endloop
  endfacet
  facet normal -0.20791169081775945 0.9781476007338055 0
    outer loop
      vertex 3.6584962143678714 -34.80826633788956 0
      vertex 10.815594803123158 -33.28697807033037 84
      vertex 10.815594803123158 -33.28697807033037 0
    endloop
  endfacet
  facet normal -0.40673664307579976 0.9135454576426012 0
    outer loop
      vertex 10.815594803123158 -33.28697807033037 0
      vertex 17.5 -30.31088913245535 84
      vertex 17.5 -30.31088913245535 0
    endloop
  endfacet
  facet normal 0.743144825477394 0.6691306063588585 0
    outer loop
      vertex -23.419571222560037 -26.010068891708798 0
      vertex -28.31559480312316 -20.57248383023656 84
      vertex -23.419571222560037 -26.010068891708798 84
    endloop
  endfacet
  facet normal 0.40673664307579976 0.9135454576426012 0
    outer loop
      vertex -17.5 -30.31088913245535 0
      vertex -17.5 -30.31088913245535 84
      vertex -10.815594803123158 -33.28697807033037 84
    endloop
  endfacet
  facet normal 0.587785252292473 0.8090169943749473 0
    outer loop
      vertex -23.419571222560037 -26.010068891708798 0
      vertex -23.419571222560037 -26.010068891708798 84
      vertex -17.5 -30.31088913245535 84
    endloop
  endfacet
  facet normal 0.9510565162951534 0.3090169943749477 0
    outer loop
      vertex -31.97409101749103 -14.235782507653008 0
      vertex -34.2351660256832 -7.276909178621577 84
      vertex -31.97409101749103 -14.235782507653008 84
    endloop
  endfacet
  facet normal 0.8660254037844388 0.4999999999999997 0
    outer loop
      vertex -28.31559480312316 -20.57248383023656 0
      vertex -31.97409101749103 -14.235782507653008 84
      vertex -28.31559480312316 -20.57248383023656 84
    endloop
  endfacet
  facet normal 0.9945218953682734 0.10452846326765322 0
    outer loop
      vertex -34.2351660256832 -7.276909178621577 0
      vertex -35 0 84
      vertex -34.2351660256832 -7.276909178621577 84
    endloop
  endfacet
  facet normal 0 0 -1
    outer loop
      vertex -31.97409101749103 -14.235782507653008 84
      vertex -34.2351660256832 -7.276909178621577 84
      vertex -34.2351660256832 7.276909178621577 84
    endloop
  endfacet
  facet normal 0 0 -1
    outer loop
      vertex -28.31559480312316 -20.57248383023656 84
      vertex -31.97409101749103 -14.235782507653008 84
      vertex -31.97409101749103 14.235782507653008 84
    endloop
  endfacet
  facet normal 0 0 -1
    outer loop
      vertex -28.31559480312316 -20.57248383023656 84
      vertex -28.31559480312316 20.57248383023656 84
      vertex -23.419571222560037 -26.010068891708798 84
    endloop
  endfacet
  facet normal 0 0 -1
    outer loop
      vertex -23.419571222560037 -26.010068891708798 84
      vertex -23.419571222560037 26.010068891708798 84
      vertex -17.5 -30.31088913245535 84
    endloop
  endfacet
  facet normal 0 0 -1
    outer loop
      vertex -17.5 -30.31088913245535 84
      vertex -17.5 30.31088913245535 84
      vertex -10.815594803123158 -33.28697807033037 84
    endloop
  endfacet
  facet normal 0.20791169081775945 0.9781476007338055 0
    outer loop
      vertex -10.815594803123158 -33.28697807033037 0
      vertex -10.815594803123158 -33.28697807033037 84
      vertex -3.6584962143678714 -34.80826633788956 84
    endloop
  endfacet
  facet normal 0 1 0
    outer loop
      vertex -3.6584962143678714 -34.80826633788956 0
      vertex -3.6584962143678714 -34.80826633788956 84
      vertex 3.6584962143678714 -34.80826633788956 84
    endloop
  endfacet
  facet normal -0.20791169081775945 0.9781476007338055 0
    outer loop
      vertex 3.6584962143678714 -34.80826633788956 0
      vertex 3.6584962143678714 -34.80826633788956 84
      vertex 10.815594803123158 -33.28697807033037 84
    endloop
  endfacet
  facet normal -0.40673664307579976 0.9135454576426012 0
    outer loop
      vertex 10.815594803123158 -33.28697807033037 0
      vertex 10.815594803123158 -33.28697807033037 84
      vertex 17.5 -30.31088913245535 84
    endloop
  endfacet
  facet normal -0.587785252292473 0.8090169943749473 0
    outer loop
      vertex 17.5 -30.31088913245535 0
      vertex 17.5 -30.31088913245535 84
      vertex 23.419571222560037 -26.010068891708798 84
    endloop
  endfacet
  facet normal 0 0 -1
    outer loop
      vertex -10.815594803123158 -33.28697807033037 84
      vertex -10.815594803123158 33.28697807033037 84
      vertex -3.6584962143678714 -34.80826633788956 84
    endloop
  endfacet
  facet normal 0 0 -1
    outer loop
      vertex -3.6584962143678714 -34.80826633788956 84
      vertex -3.6584962143678714 34.80826633788956 84
      vertex 3.6584962143678714 -34.80826633788956 84
    endloop
  endfacet
  facet normal 0 0 -1
    outer loop
      vertex 3.6584962143678714 -34.80826633788956 84
      vertex 3.6584962143678714 34.80826633788956 84
      vertex 10.815594803123158 -33.28697807033037 84
    endloop
  endfacet
  facet normal 0 0 -1
    outer loop
      vertex 10.815594803123158 -33.28697807033037 84
      vertex 10.815594803123158 33.28697807033037 84
      vertex 17.5 -30.31088913245535 84
    endloop
  endfacet
  facet normal 0 0 -1
    outer loop
      vertex 17.5 -30.31088913245535 84
      vertex 17.5 30.31088913245535 84
      vertex 23.419571222560037 -26.010068891708798 84
    endloop
  endfacet
  facet normal 0.9945218953682734 -0.10452846326765322 0
    outer loop
      vertex -35 0 0
      vertex -34.2351660256832 7.276909178621577 0
      vertex -34.2351660256832 7.276909178621577 84
    endloop
  endfacet
  facet normal 0.9510565162951534 -0.3090169943749477 0
    outer loop
      vertex -34.2351660256832 7.276909178621577 0
      vertex -31.97409101749103 14.235782507653008 0
      vertex -31.97409101749103 14.235782507653008 84
    endloop
  endfacet
  facet normal 0.8660254037844388 -0.4999999999999997 0
    outer loop
      vertex -31.97409101749103 14.235782507653008 0
      vertex -28.31559480312316 20.57248383023656 0
      vertex -28.31559480312316 20.57248383023656 84
    endloop
  endfacet
  facet normal 0.743144825477394 -0.6691306063588585 0
    outer loop
      vertex -28.31559480312316 20.57248383023656 0
      vertex -23.419571222560037 26.010068891708798 0
      vertex -23.419571222560037 26.010068891708798 84
    endloop
  endfacet
  facet normal 0.587785252292473 -0.8090169943749473 0
    outer loop
      vertex -23.419571222560037 26.010068891708798 0
      vertex -17.5 30.31088913245535 0
      vertex -23.419571222560037 26.010068891708798 84
    endloop
  endfacet
  facet normal 0.40673664307579976 -0.9135454576426012 0
    outer loop
      vertex -17.5 30.31088913245535 0
      vertex -10.815594803123158 33.28697807033037 0
      vertex -17.5 30.31088913245535 84
    endloop
  endfacet
  facet normal 0.20791169081775945 -0.9781476007338055 0
    outer loop
      vertex -10.815594803123158 33.28697807033037 0
      vertex -3.6584962143678714 34.80826633788956 0
      vertex -10.815594803123158 33.28697807033037 84
    endloop
  endfacet
  facet normal 0 -1 0
    outer loop
      vertex -3.6584962143678714 34.80826633788956 0
      vertex 3.6584962143678714 34.80826633788956 0
      vertex -3.6584962143678714 34.80826633788956 84
    endloop
  endfacet
  facet normal -0.587785252292473 -0.8090169943749473 0
    outer loop
      vertex 17.5 30.31088913245535 0
      vertex 23.419571222560037 26.010068891708798 0
      vertex 17.5 30.31088913245535 84
    endloop
  endfacet
  facet normal -0.20791169081775945 -0.9781476007338055 0
    outer loop
      vertex 3.6584962143678714 34.80826633788956 0
      vertex 10.815594803123158 33.28697807033037 0
      vertex 3.6584962143678714 34.80826633788956 84
    endloop
  endfacet
  facet normal -0.40673664307579976 -0.9135454576426012 0
    outer loop
      vertex 10.815594803123158 33.28697807033037 0
      vertex 17.5 30.31088913245535 0
      vertex 10.815594803123158 33.28697807033037 84
    endloop
  endfacet
  facet normal 0.9945218953682734 -0.10452846326765322 0
    outer loop
      vertex -35 0 0
      vertex -34.2351660256832 7.276909178621577 84
      vertex -35 0 84
    endloop
  endfacet
  facet normal 0.9510565162951534 -0.3090169943749477 0
    outer loop
      vertex -34.2351660256832 7.276909178621577 0
      vertex -31.97409101749103 14.235782507653008 84
      vertex -34.2351660256832 7.276909178621577 84
    endloop
  endfacet
  facet normal 0.8660254037844388 -0.4999999999999997 0
    outer loop
      vertex -31.97409101749103 14.235782507653008 0
      vertex -28.31559480312316 20.57248383023656 84
      vertex -31.97409101749103 14.235782507653008 84
    endloop
  endfacet
  facet normal 0 0 -1
    outer loop
      vertex -34.2351660256832 -7.276909178621577 84
      vertex -35 0 84
      vertex -34.2351660256832 7.276909178621577 84
    endloop
  endfacet
  facet normal 0 0 -1
    outer loop
      vertex -31.97409101749103 -14.235782507653008 84
      vertex -34.2351660256832 7.276909178621577 84
      vertex -31.97409101749103 14.235782507653008 84
    endloop
  endfacet
  facet normal 0 0 -1
    outer loop
      vertex -28.31559480312316 -20.57248383023656 84
      vertex -31.97409101749103 14.235782507653008 84
      vertex -28.31559480312316 20.57248383023656 84
    endloop
  endfacet
  facet normal 0 0 -1
    outer loop
      vertex -23.419571222560037 -26.010068891708798 84
      vertex -28.31559480312316 20.57248383023656 84
      vertex -23.419571222560037 26.010068891708798 84
    endloop
  endfacet
  facet normal 0 0 -1
    outer loop
      vertex -17.5 -30.31088913245535 84
      vertex -23.419571222560037 26.010068891708798 84
      vertex -17.5 30.31088913245535 84
    endloop
  endfacet
  facet normal 0 0 -1
    outer loop
      vertex -10.815594803123158 -33.28697807033037 84
      vertex -17.5 30.31088913245535 84
      vertex -10.815594803123158 33.28697807033037 84
    endloop
  endfacet
  facet normal 0.743144825477394 -0.6691306063588585 0
    outer loop
      vertex -28.31559480312316 20.57248383023656 0
      vertex -23.419571222560037 26.010068891708798 84
      vertex -28.31559480312316 20.57248383023656 84
    endloop
  endfacet
  facet normal 0.587785252292473 -0.8090169943749473 0
    outer loop
      vertex -17.5 30.31088913245535 0
      vertex -17.5 30.31088913245535 84
      vertex -23.419571222560037 26.010068891708798 84
    endloop
  endfacet
  facet normal 0.40673664307579976 -0.9135454576426012 0
    outer loop
      vertex -10.815594803123158 33.28697807033037 0
      vertex -10.815594803123158 33.28697807033037 84
      vertex -17.5 30.31088913245535 84
    endloop
  endfacet
  facet normal 0 0 -1
    outer loop
      vertex -3.6584962143678714 -34.80826633788956 84
      vertex -10.815594803123158 33.28697807033037 84
      vertex -3.6584962143678714 34.80826633788956 84
    endloop
  endfacet
  facet normal 0 0 -1
    outer loop
      vertex -3.6584962143678714 34.80826633788956 84
      vertex 3.6584962143678714 34.80826633788956 84
      vertex 3.6584962143678714 -34.80826633788956 84
    endloop
  endfacet
  facet normal 0 0 -1
    outer loop
      vertex 10.815594803123158 -33.28697807033037 84
      vertex 3.6584962143678714 34.80826633788956 84
      vertex 10.815594803123158 33.28697807033037 84
    endloop
  endfacet
  facet normal 0 0 -1
    outer loop
      vertex 17.5 -30.31088913245535 84
      vertex 10.815594803123158 33.28697807033037 84
      vertex 17.5 30.31088913245535 84
    endloop
  endfacet
  facet normal 0.20791169081775945 -0.9781476007338055 0
    outer loop
      vertex -3.6584962143678714 34.80826633788956 0
      vertex -3.6584962143678714 34.80826633788956 84
      vertex -10.815594803123158 33.28697807033037 84
    endloop
  endfacet
  facet normal 0 -1 0
    outer loop
      vertex -3.6584962143678714 34.80826633788956 84
      vertex 3.6584962143678714 34.80826633788956 0
      vertex 3.6584962143678714 34.80826633788956 84
    endloop
  endfacet
  facet normal -0.20791169081775945 -0.9781476007338055 0
    outer loop
      vertex 10.815594803123158 33.28697807033037 0
      vertex 10.815594803123158 33.28697807033037 84
      vertex 3.6584962143678714 34.80826633788956 84
    endloop
  endfacet
  facet normal -0.40673664307579976 -0.9135454576426012 0
    outer loop
      vertex 17.5 30.31088913245535 0
      vertex 17.5 30.31088913245535 84
      vertex 10.815594803123158 33.28697807033037 84
    endloop
  endfacet
  facet normal -0.587785252292473 0.8090169943749473 0
    outer loop
      vertex 17.5 -30.31088913245535 0
      vertex 23.419571222560037 -26.010068891708798 84
      vertex 23.419571222560037 -26.010068891708798 0
    endloop
  endfacet
  facet normal -0.743144825477394 0.6691306063588585 0
    outer loop
      vertex 23.419571222560037 -26.010068891708798 0
      vertex 23.419571222560037 -26.010068891708798 84
      vertex 28.31559480312316 -20.57248383023656 0
    endloop
  endfacet
  facet normal -0.8660254037844388 0.4999999999999997 0
    outer loop
      vertex 28.31559480312316 -20.57248383023656 0
      vertex 28.31559480312316 -20.57248383023656 84
      vertex 31.97409101749103 -14.235782507653008 0
    endloop
  endfacet
  facet normal -0.9510565162951534 0.3090169943749477 0
    outer loop
      vertex 31.97409101749103 -14.235782507653008 0
      vertex 31.97409101749103 -14.235782507653008 84
      vertex 34.2351660256832 -7.276909178621577 0
    endloop
  endfacet
  facet normal -0.9945218953682734 0.10452846326765322 0
    outer loop
      vertex 34.2351660256832 -7.276909178621577 0
      vertex 34.2351660256832 -7.276909178621577 84
      vertex 35 0 0
    endloop
  endfacet
  facet normal -0.743144825477394 0.6691306063588585 0
    outer loop
      vertex 28.31559480312316 -20.57248383023656 0
      vertex 23.419571222560037 -26.010068891708798 84
      vertex 28.31559480312316 -20.57248383023656 84
    endloop
  endfacet
  facet normal -0.8660254037844388 0.4999999999999997 0
    outer loop
      vertex 31.97409101749103 -14.235782507653008 0
      vertex 28.31559480312316 -20.57248383023656 84
      vertex 31.97409101749103 -14.235782507653008 84
    endloop
  endfacet
  facet normal -0.9510565162951534 0.3090169943749477 0
    outer loop
      vertex 34.2351660256832 -7.276909178621577 0
      vertex 31.97409101749103 -14.235782507653008 84
      vertex 34.2351660256832 -7.276909178621577 84
    endloop
  endfacet
  facet normal -0.9945218953682734 0.10452846326765322 0
    outer loop
      vertex 34.2351660256832 -7.276909178621577 84
      vertex 35 0 84
      vertex 35 0 0
    endloop
  endfacet
  facet normal 0 0 -1
    outer loop
      vertex 23.419571222560037 -26.010068891708798 84
      vertex 23.419571222560037 26.010068891708798 84
      vertex 28.31559480312316 -20.57248383023656 84
    endloop
  endfacet
  facet normal 0 0 -1
    outer loop
      vertex 28.31559480312316 -20.57248383023656 84
      vertex 28.31559480312316 20.57248383023656 84
      vertex 31.97409101749103 -14.235782507653008 84
    endloop
  endfacet
  facet normal 0 0 -1
    outer loop
      vertex 31.97409101749103 -14.235782507653008 84
      vertex 31.97409101749103 14.235782507653008 84
      vertex 34.2351660256832 -7.276909178621577 84
    endloop
  endfacet
  facet normal -0.9945218953682734 -0.10452846326765322 0
    outer loop
      vertex 34.2351660256832 7.276909178621577 0
      vertex 35 0 0
      vertex 35 0 84
    endloop
  endfacet
  facet normal -0.9510565162951534 -0.3090169943749477 0
    outer loop
      vertex 34.2351660256832 7.276909178621577 0
      vertex 34.2351660256832 7.276909178621577 84
      vertex 31.97409101749103 14.235782507653008 0
    endloop
  endfacet
  facet normal -0.8660254037844388 -0.4999999999999997 0
    outer loop
      vertex 31.97409101749103 14.235782507653008 0
      vertex 31.97409101749103 14.235782507653008 84
      vertex 28.31559480312316 20.57248383023656 0
    endloop
  endfacet
  facet normal -0.743144825477394 -0.6691306063588585 0
    outer loop
      vertex 23.419571222560037 26.010068891708798 0
      vertex 28.31559480312316 20.57248383023656 0
      vertex 28.31559480312316 20.57248383023656 84
    endloop
  endfacet
  facet normal -0.9945218953682734 -0.10452846326765322 0
    outer loop
      vertex 34.2351660256832 7.276909178621577 0
      vertex 35 0 84
      vertex 34.2351660256832 7.276909178621577 84
    endloop
  endfacet
  facet normal -0.9510565162951534 -0.3090169943749477 0
    outer loop
      vertex 31.97409101749103 14.235782507653008 0
      vertex 34.2351660256832 7.276909178621577 84
      vertex 31.97409101749103 14.235782507653008 84
    endloop
  endfacet
  facet normal -0.8660254037844388 -0.4999999999999997 0
    outer loop
      vertex 28.31559480312316 20.57248383023656 0
      vertex 31.97409101749103 14.235782507653008 84
      vertex 28.31559480312316 20.57248383023656 84
    endloop
  endfacet
  facet normal 0 0 -1
    outer loop
      vertex 28.31559480312316 -20.57248383023656 84
      vertex 23.419571222560037 26.010068891708798 84
      vertex 28.31559480312316 20.57248383023656 84
    endloop
  endfacet
  facet normal 0 0 -1
    outer loop
      vertex 34.2351660256832 -7.276909178621577 84
      vertex 34.2351660256832 7.276909178621577 84
      vertex 35 0 84
    endloop
  endfacet
  facet normal 0 0 -1
    outer loop
      vertex 34.2351660256832 -7.276909178621577 84
      vertex 31.97409101749103 14.235782507653008 84
      vertex 34.2351660256832 7.276909178621577 84
    endloop
  endfacet
  facet normal 0 0 -1
    outer loop
      vertex 31.97409101749103 -14.235782507653008 84
      vertex 28.31559480312316 20.57248383023656 84
      vertex 31.97409101749103 14.235782507653008 84
    endloop
  endfacet
  facet normal 0 0 -1
    outer loop
      vertex 23.419571222560037 -26.010068891708798 84
      vertex 17.5 30.31088913245535 84
      vertex 23.419571222560037 26.010068891708798 84
    endloop
  endfacet
  facet normal -0.743144825477394 -0.6691306063588585 0
    outer loop
      vertex 23.419571222560037 26.010068891708798 0
      vertex 28.31559480312316 20.57248383023656 84
      vertex 23.419571222560037 26.010068891708798 84
    endloop
  endfacet
  facet normal -0.587785252292473 -0.8090169943749473 0
    outer loop
      vertex 23.419571222560037 26.010068891708798 0
      vertex 23.419571222560037 26.010068891708798 84
      vertex 17.5 30.31088913245535 84
    endloop
  endfacet
  facet normal 0 0 -1
    outer loop
      vertex 40 20 30
      vertex 65 0 30
      vertex 40 0 30
    endloop
  endfacet
  facet normal -1 0 0
    outer loop
      vertex 65 0 0
      vertex 65 0 30
      vertex 65 20 30
    endloop
  endfacet
  facet normal -1 0 0
    outer loop
      vertex 65 0 0
      vertex 65 20 30
      vertex 65 20 0
    endloop
  endfacet
  facet normal 0 0 -1
    outer loop
      vertex 40 20 30
      vertex 65 20 30
      vertex 65 0 30
    endloop
  endfacet
  facet normal -1 0 0
    outer loop
      vertex 40 20 35
      vertex 40 0 30
      vertex 40 0 35
    endloop
  endfacet
  facet normal 0 -1 0
    outer loop
      vertex 65 0 30
      vertex 40 0 35
      vertex 40 0 30
    endloop
  endfacet
  facet normal -1 0 0
    outer loop
      vertex 40 20 30
      vertex 40 0 30
      vertex 40 20 35
    endloop
  endfacet
  facet normal 0 1 0
    outer loop
      vertex 40 20 30
      vertex 40 20 35
      vertex 65 20 30
    endloop
  endfacet
  facet normal 0 0 -1
    outer loop
      vertex 65 0 0
      vertex 65 20 0
      vertex 80 0 0
    endloop
  endfacet
  facet normal 0 -1 0
    outer loop
      vertex 65 0 0
      vertex 80 0 35
      vertex 65 0 30
    endloop
  endfacet
  facet normal 0 -1 0
    outer loop
      vertex 65 0 0
      vertex 80 0 0
      vertex 80 0 35
    endloop
  endfacet
  facet normal 1 0 0
    outer loop
      vertex 80 0 0
      vertex 80 20 0
      vertex 80 0 35
    endloop
  endfacet
  facet normal 0 0 -1
    outer loop
      vertex 80 0 0
      vertex 65 20 0
      vertex 80 20 0
    endloop
  endfacet
  facet normal 0 -1 0
    outer loop
      vertex 65 0 30
      vertex 80 0 35
      vertex 40 0 35
    endloop
  endfacet
  facet normal 0 0 1
    outer loop
      vertex 40 20 35
      vertex 40 0 35
      vertex 80 0 35
    endloop
  endfacet
  facet normal 1 0 0
    outer loop
      vertex 80 0 35
      vertex 80 20 0
      vertex 80 20 35
    endloop
  endfacet
  facet normal 0 0 1
    outer loop
      vertex 40 20 35
      vertex 80 0 35
      vertex 80 20 35
    endloop
  endfacet
  facet normal 0 1 0
    outer loop
      vertex 65 20 0
      vertex 65 20 30
      vertex 80 20 0
    endloop
  endfacet
  facet normal 0 1 0
    outer loop
      vertex 80 20 0
      vertex 65 20 30
      vertex 80 20 35
    endloop
  endfacet
  facet normal 0 1 0
    outer loop
      vertex 40 20 35
      vertex 80 20 35
      vertex 65 20 30
    endloop
  endfacet
endsolid OpenSCAD_Model
