solid OpenSCAD_Model
  facet normal 0 0 1
    outer loop
      vertex 0 3 3
      vertex 8.581580451829858 16.25993502925834 3
      vertex 7.005957007315596 17.347509367036817 3
    endloop
  endfacet
  facet normal 0 0 -1
    outer loop
      vertex 0 3 0
      vertex 8.409009742330268 18.40900974233027 0
      vertex 10 17.75 0
    endloop
  endfacet
  facet normal 0 0 -1
    outer loop
      vertex 0 3 0
      vertex 7.75 20 0
      vertex 8.409009742330268 18.40900974233027 0
    endloop
  endfacet
  facet normal 0 0 1
    outer loop
      vertex 0 3 3
      vertex 7.005957007315596 17.347509367036817 3
      vertex 6.116232730295792 19.04273734284977 3
    endloop
  endfacet
  facet normal -1 0 0
    outer loop
      vertex 0 3 0
      vertex 0 3 3
      vertex 0 40 0
    endloop
  endfacet
  facet normal 0 0 1
    outer loop
      vertex 0 3 3
      vertex 10.48214672102129 16.029164503607785 3
      vertex 8.581580451829858 16.25993502925834 3
    endloop
  endfacet
  facet normal 0 0 1
    outer loop
      vertex 0 3 3
      vertex 12.272258986924625 16.708064536425375 3
      vertex 10.48214672102129 16.029164503607785 3
    endloop
  endfacet
  facet normal 0 0 -1
    outer loop
      vertex 0 3 0
      vertex 10 17.75 0
      vertex 11.590990257669732 18.40900974233027 0
    endloop
  endfacet
  facet normal 0 0 1
    outer loop
      vertex 0 3 3
      vertex 50 3 3
      vertex 12.272258986924625 16.708064536425375 3
    endloop
  endfacet
  facet normal 0 0 -1
    outer loop
      vertex 0 0 0
      vertex 0 3 0
      vertex 50 40 0
    endloop
  endfacet
  facet normal 0 0 -1
    outer loop
      vertex 0 3 0
      vertex 0 40 0
      vertex 7.75 20 0
    endloop
  endfacet
  facet normal 0 0 1
    outer loop
      vertex 0 3 3
      vertex 6.116232730295792 19.04273734284977 3
      vertex 0 40 3
    endloop
  endfacet
  facet normal -1 0 0
    outer loop
      vertex 0 3 3
      vertex 0 40 3
      vertex 0 40 0
    endloop
  endfacet
  facet normal 0 0 -1
    outer loop
      vertex 0 40 0
      vertex 8.409009742330268 21.59099025766973 0
      vertex 7.75 20 0
    endloop
  endfacet
  facet normal 0 0 1
    outer loop
      vertex 0 40 3
      vertex 6.116232730295792 19.04273734284977 3
      vertex 6.116232730295792 20.95726265715023 3
    endloop
  endfacet
  facet normal 0 0 -1
    outer loop
      vertex 0 40 0
      vertex 10 22.25 0
      vertex 8.409009742330268 21.59099025766973 0
    endloop
  endfacet
  facet normal 0 0 1
    outer loop
      vertex 0 40 3
      vertex 6.116232730295792 20.95726265715023 3
      vertex 7.005957007315596 22.652490632963183 3
    endloop
  endfacet
  facet normal 0 0 1
    outer loop
      vertex 0 40 3
      vertex 7.005957007315596 22.652490632963183 3
      vertex 8.581580451829858 23.74006497074166 3
    endloop
  endfacet
  facet normal 0 0 1
    outer loop
      vertex 0 40 3
      vertex 8.581580451829858 23.74006497074166 3
      vertex 10.482146721021293 23.970835496392215 3
    endloop
  endfacet
  facet normal 0 0 1
    outer loop
      vertex 0 40 3
      vertex 10.482146721021293 23.970835496392215 3
      vertex 12.272258986924623 23.291935463574625 3
    endloop
  endfacet
  facet normal 0 0 1
    outer loop
      vertex 0 40 3
      vertex 12.272258986924623 23.291935463574625 3
      vertex 13.54182410261284 21.858892688175075 3
    endloop
  endfacet
  facet normal 0 0 -1
    outer loop
      vertex 0 3 0
      vertex 11.590990257669732 18.40900974233027 0
      vertex 50 40 0
    endloop
  endfacet
  facet normal 0 0 1
    outer loop
      vertex 0 40 3
      vertex 13.54182410261284 21.858892688175075 3
      vertex 50 3 3
    endloop
  endfacet
  facet normal 0 0 -1
    outer loop
      vertex 50 40 0
      vertex 11.590990257669732 18.40900974233027 0
      vertex 12.25 20 0
    endloop
  endfacet
  facet normal 0 0 -1
    outer loop
      vertex 50 40 0
      vertex 12.25 20 0
      vertex 11.590990257669732 21.59099025766973 0
    endloop
  endfacet
  facet normal 0 0 1
    outer loop
      vertex 0 40 3
      vertex 37.005957007315594 17.347509367036817 3
      vertex 36.11623273029579 19.04273734284977 3
    endloop
  endfacet
  facet normal 0 0 1
    outer loop
      vertex 0 40 3
      vertex 36.11623273029579 19.04273734284977 3
      vertex 36.11623273029579 20.95726265715023 3
    endloop
  endfacet
  facet normal 0 0 -1
    outer loop
      vertex 50 40 0
      vertex 11.590990257669732 21.59099025766973 0
      vertex 10 22.25 0
    endloop
  endfacet
  facet normal 0 0 1
    outer loop
      vertex 0 40 3
      vertex 36.11623273029579 20.95726265715023 3
      vertex 37.005957007315594 22.652490632963183 3
    endloop
  endfacet
  facet normal 0 1 0
    outer loop
      vertex 0 40 0
      vertex 0 40 3
      vertex 50 40 0
    endloop
  endfacet
  facet normal 0 0 -1
    outer loop
      vertex 0 40 0
      vertex 50 40 0
      vertex 10 22.25 0
    endloop
  endfacet
  facet normal 0 0 -1
    outer loop
      vertex 0 0 0
      vertex 38.40900974233027 18.40900974233027 0
      vertex 50 0 0
    endloop
  endfacet
  facet normal 0 0 -1
    outer loop
      vertex 0 0 0
      vertex 37.75 20 0
      vertex 38.40900974233027 18.40900974233027 0
    endloop
  endfacet
  facet normal 0 0 -1
    outer loop
      vertex 0 0 0
      vertex 38.40900974233027 21.59099025766973 0
      vertex 37.75 20 0
    endloop
  endfacet
  facet normal 0 0 1
    outer loop
      vertex 50 3 3
      vertex 13.54182410261284 18.141107311824925 3
      vertex 12.272258986924625 16.708064536425375 3
    endloop
  endfacet
  facet normal 0 0 1
    outer loop
      vertex 50 3 3
      vertex 14 20 3
      vertex 13.54182410261284 18.141107311824925 3
    endloop
  endfacet
  facet normal 0 0 1
    outer loop
      vertex 50 3 3
      vertex 13.54182410261284 21.858892688175075 3
      vertex 14 20 3
    endloop
  endfacet
  facet normal 0 0 1
    outer loop
      vertex 0 40 3
      vertex 50 3 3
      vertex 38.58158045182986 16.25993502925834 3
    endloop
  endfacet
  facet normal 1 0 0
    outer loop
      vertex 50 0 0
      vertex 50 2.7906976744186047 2.7906976744186047
      vertex 50 0 3
    endloop
  endfacet
  facet normal 1 0 0
    outer loop
      vertex 50 0 3
      vertex 50 2.7906976744186047 2.7906976744186047
      vertex 50 2.5813953488372094 3
    endloop
  endfacet
  facet normal 1 0 0
    outer loop
      vertex 50 2.7906976744186047 2.7906976744186047
      vertex 50 3 3
      vertex 50 2.775 3
    endloop
  endfacet
  facet normal 0 0 -1
    outer loop
      vertex 50 0 0
      vertex 38.40900974233027 18.40900974233027 0
      vertex 40 17.75 0
    endloop
  endfacet
  facet normal 0 0 1
    outer loop
      vertex 50 3 3
      vertex 40.482146721021294 16.029164503607785 3
      vertex 38.58158045182986 16.25993502925834 3
    endloop
  endfacet
  facet normal 0 0 -1
    outer loop
      vertex 50 0 0
      vertex 40 17.75 0
      vertex 41.59099025766973 18.40900974233027 0
    endloop
  endfacet
  facet normal 0 0 1
    outer loop
      vertex 50 3 3
      vertex 42.272258986924626 16.708064536425375 3
      vertex 40.482146721021294 16.029164503607785 3
    endloop
  endfacet
  facet normal 0 0 -1
    outer loop
      vertex 50 0 0
      vertex 41.59099025766973 18.40900974233027 0
      vertex 42.25 20 0
    endloop
  endfacet
  facet normal 0 0 1
    outer loop
      vertex 50 3 3
      vertex 43.54182410261284 18.141107311824925 3
      vertex 42.272258986924626 16.708064536425375 3
    endloop
  endfacet
  facet normal 0 0 1
    outer loop
      vertex 50 3 3
      vertex 44 20 3
      vertex 43.54182410261284 18.141107311824925 3
    endloop
  endfacet
  facet normal 1 0 0
    outer loop
      vertex 50 0 0
      vertex 50 40 0
      vertex 50 2.7906976744186047 2.7906976744186047
    endloop
  endfacet
  facet normal 1 0 0
    outer loop
      vertex 50 2.7906976744186047 2.7906976744186047
      vertex 50 40 3
      vertex 50 3 3
    endloop
  endfacet
  facet normal 0 0 1
    outer loop
      vertex 0 40 3
      vertex 38.58158045182986 16.25993502925834 3
      vertex 37.005957007315594 17.347509367036817 3
    endloop
  endfacet
  facet normal 0 0 -1
    outer loop
      vertex 0 0 0
      vertex 50 40 0
      vertex 38.40900974233027 21.59099025766973 0
    endloop
  endfacet
  facet normal 0 0 1
    outer loop
      vertex 0 40 3
      vertex 37.005957007315594 22.652490632963183 3
      vertex 38.58158045182986 23.74006497074166 3
    endloop
  endfacet
  facet normal 0 0 1
    outer loop
      vertex 0 40 3
      vertex 38.58158045182986 23.74006497074166 3
      vertex 40.482146721021294 23.970835496392215 3
    endloop
  endfacet
  facet normal 0 0 1
    outer loop
      vertex 0 40 3
      vertex 40.482146721021294 23.970835496392215 3
      vertex 50 40 3
    endloop
  endfacet
  facet normal 0 1 0
    outer loop
      vertex 0 40 3
      vertex 50 40 3
      vertex 50 40 0
    endloop
  endfacet
  facet normal 0 0 -1
    outer loop
      vertex 50 40 0
      vertex 40 22.25 0
      vertex 38.40900974233027 21.59099025766973 0
    endloop
  endfacet
  facet normal 0 0 -1
    outer loop
      vertex 50 0 0
      vertex 42.25 20 0
      vertex 50 40 0
    endloop
  endfacet
  facet normal 0 0 1
    outer loop
      vertex 50 3 3
      vertex 50 40 3
      vertex 44 20 3
    endloop
  endfacet
  facet normal 0 0 -1
    outer loop
      vertex 50 40 0
      vertex 42.25 20 0
      vertex 41.59099025766973 21.59099025766973 0
    endloop
  endfacet
  facet normal 0 0 1
    outer loop
      vertex 50 40 3
      vertex 43.54182410261284 21.858892688175075 3
      vertex 44 20 3
    endloop
  endfacet
  facet normal 0 0 -1
    outer loop
      vertex 50 40 0
      vertex 41.59099025766973 21.59099025766973 0
      vertex 40 22.25 0
    endloop
  endfacet
  facet normal 0 0 1
    outer loop
      vertex 50 40 3
      vertex 42.272258986924626 23.291935463574625 3
      vertex 43.54182410261284 21.858892688175075 3
    endloop
  endfacet
  facet normal 0 0 1
    outer loop
      vertex 50 40 3
      vertex 40.482146721021294 23.970835496392215 3
      vertex 42.272258986924626 23.291935463574625 3
    endloop
  endfacet
  facet normal 1 0 0
    outer loop
      vertex 50 2.7906976744186047 2.7906976744186047
      vertex 50 40 0
      vertex 50 40 3
    endloop
  endfacet
  facet normal -1 0 0
    outer loop
      vertex 0 0 0
      vertex 0 3 3
      vertex 0 3 0
    endloop
  endfacet
  facet normal -1 0 0
    outer loop
      vertex 0 0 0
      vertex 0 3 40
      vertex 0 3 3
    endloop
  endfacet
  facet normal 0 -1 0
    outer loop
      vertex 0 0 0
      vertex 10 0 17.75
      vertex 8.409009742330268 0 18.40900974233027
    endloop
  endfacet
  facet normal 0 -1 0
    outer loop
      vertex 0 0 0
      vertex 8.409009742330268 0 18.40900974233027
      vertex 7.75 0 20
    endloop
  endfacet
  facet normal 0 1 0
    outer loop
      vertex 0 3 3
      vertex 7.005957007315596 3 17.347509367036817
      vertex 8.581580451829858 3 16.25993502925834
    endloop
  endfacet
  facet normal 0 1 0
    outer loop
      vertex 0 3 3
      vertex 6.116232730295792 3 19.04273734284977
      vertex 7.005957007315596 3 17.347509367036817
    endloop
  endfacet
  facet normal 0 1 0
    outer loop
      vertex 0 3 3
      vertex 6.116232730295792 3 20.95726265715023
      vertex 6.116232730295792 3 19.04273734284977
    endloop
  endfacet
  facet normal 0 -1 0
    outer loop
      vertex 0 0 0
      vertex 11.590990257669732 0 18.40900974233027
      vertex 10 0 17.75
    endloop
  endfacet
  facet normal 0 1 0
    outer loop
      vertex 0 3 3
      vertex 8.581580451829858 3 16.25993502925834
      vertex 50 3 3
    endloop
  endfacet
  facet normal 0 1 0
    outer loop
      vertex 50 3 3
      vertex 8.581580451829858 3 16.25993502925834
      vertex 10.48214672102129 3 16.029164503607785
    endloop
  endfacet
  facet normal 0 1 0
    outer loop
      vertex 50 3 3
      vertex 10.48214672102129 3 16.029164503607785
      vertex 12.272258986924625 3 16.708064536425375
    endloop
  endfacet
  facet normal 0 -1 0
    outer loop
      vertex 0 0 0
      vertex 50 0 40
      vertex 11.590990257669732 0 18.40900974233027
    endloop
  endfacet
  facet normal 0 -1 0
    outer loop
      vertex 0 0 0
      vertex 7.75 0 20
      vertex 0 0 40
    endloop
  endfacet
  facet normal 0 1 0
    outer loop
      vertex 0 3 3
      vertex 0 3 40
      vertex 6.116232730295792 3 20.95726265715023
    endloop
  endfacet
  facet normal -1 0 0
    outer loop
      vertex 0 0 0
      vertex 0 0 40
      vertex 0 3 40
    endloop
  endfacet
  facet normal 0 -1 0
    outer loop
      vertex 0 0 40
      vertex 7.75 0 20
      vertex 8.409009742330268 0 21.59099025766973
    endloop
  endfacet
  facet normal 0 -1 0
    outer loop
      vertex 0 0 40
      vertex 8.409009742330268 0 21.59099025766973
      vertex 10 0 22.25
    endloop
  endfacet
  facet normal 0 1 0
    outer loop
      vertex 0 3 40
      vertex 7.005957007315596 3 22.652490632963183
      vertex 6.116232730295792 3 20.95726265715023
    endloop
  endfacet
  facet normal 0 1 0
    outer loop
      vertex 0 3 40
      vertex 8.581580451829858 3 23.74006497074166
      vertex 7.005957007315596 3 22.652490632963183
    endloop
  endfacet
  facet normal 0 1 0
    outer loop
      vertex 0 3 40
      vertex 10.482146721021293 3 23.970835496392215
      vertex 8.581580451829858 3 23.74006497074166
    endloop
  endfacet
  facet normal 0 1 0
    outer loop
      vertex 0 3 40
      vertex 12.272258986924623 3 23.291935463574625
      vertex 10.482146721021293 3 23.970835496392215
    endloop
  endfacet
  facet normal 0 1 0
    outer loop
      vertex 0 3 40
      vertex 13.54182410261284 3 21.858892688175075
      vertex 12.272258986924623 3 23.291935463574625
    endloop
  endfacet
  facet normal 0 1 0
    outer loop
      vertex 0 3 40
      vertex 50 3 3
      vertex 13.54182410261284 3 21.858892688175075
    endloop
  endfacet
  facet normal 0 -1 0
    outer loop
      vertex 50 0 40
      vertex 12.25 0 20
      vertex 11.590990257669732 0 18.40900974233027
    endloop
  endfacet
  facet normal 0 -1 0
    outer loop
      vertex 50 0 40
      vertex 11.590990257669732 0 21.59099025766973
      vertex 12.25 0 20
    endloop
  endfacet
  facet normal 0 -1 0
    outer loop
      vertex 50 0 40
      vertex 10 0 22.25
      vertex 11.590990257669732 0 21.59099025766973
    endloop
  endfacet
  facet normal 0 1 0
    outer loop
      vertex 0 3 40
      vertex 36.11623273029579 3 19.04273734284977
      vertex 37.005957007315594 3 17.347509367036817
    endloop
  endfacet
  facet normal 0 1 0
    outer loop
      vertex 0 3 40
      vertex 36.11623273029579 3 20.95726265715023
      vertex 36.11623273029579 3 19.04273734284977
    endloop
  endfacet
  facet normal 0 1 0
    outer loop
      vertex 0 3 40
      vertex 37.005957007315594 3 22.652490632963183
      vertex 36.11623273029579 3 20.95726265715023
    endloop
  endfacet
  facet normal 0 0 1
    outer loop
      vertex 0 0 40
      vertex 50 0 40
      vertex 0 3 40
    endloop
  endfacet
  facet normal 0 -1 0
    outer loop
      vertex 0 0 40
      vertex 10 0 22.25
      vertex 50 0 40
    endloop
  endfacet
  facet normal 0 -1 0
    outer loop
      vertex 0 0 0
      vertex 50 0 3
      vertex 40 0 17.75
    endloop
  endfacet
  facet normal 0 -1 0
    outer loop
      vertex 0 0 0
      vertex 50 0 0
      vertex 50 0 3
    endloop
  endfacet
  facet normal 0 -1 0
    outer loop
      vertex 0 0 0
      vertex 40 0 17.75
      vertex 38.40900974233027 0 18.40900974233027
    endloop
  endfacet
  facet normal 0 -1 0
    outer loop
      vertex 0 0 0
      vertex 38.40900974233027 0 18.40900974233027
      vertex 37.75 0 20
    endloop
  endfacet
  facet normal 0 -1 0
    outer loop
      vertex 0 0 0
      vertex 37.75 0 20
      vertex 38.40900974233027 0 21.59099025766973
    endloop
  endfacet
  facet normal 0 1 0
    outer loop
      vertex 50 3 3
      vertex 12.272258986924625 3 16.708064536425375
      vertex 13.54182410261284 3 18.141107311824925
    endloop
  endfacet
  facet normal 0 1 0
    outer loop
      vertex 50 3 3
      vertex 13.54182410261284 3 18.141107311824925
      vertex 14 3 20
    endloop
  endfacet
  facet normal 0 1 0
    outer loop
      vertex 50 3 3
      vertex 14 3 20
      vertex 13.54182410261284 3 21.858892688175075
    endloop
  endfacet
  facet normal 0 1 0
    outer loop
      vertex 0 3 40
      vertex 38.58158045182986 3 16.25993502925834
      vertex 50 3 3
    endloop
  endfacet
  facet normal 1 0 0
    outer loop
      vertex 50 2.7906976744186047 2.7906976744186047
      vertex 50 2.775 3
      vertex 50 2.5813953488372094 3
    endloop
  endfacet
  facet normal 0 1 0
    outer loop
      vertex 50 3 3
      vertex 38.58158045182986 3 16.25993502925834
      vertex 40.482146721021294 3 16.029164503607785
    endloop
  endfacet
  facet normal 0 -1 0
    outer loop
      vertex 50 0 3
      vertex 41.59099025766973 0 18.40900974233027
      vertex 40 0 17.75
    endloop
  endfacet
  facet normal 0 -1 0
    outer loop
      vertex 50 0 3
      vertex 42.25 0 20
      vertex 41.59099025766973 0 18.40900974233027
    endloop
  endfacet
  facet normal 0 1 0
    outer loop
      vertex 50 3 3
      vertex 40.482146721021294 3 16.029164503607785
      vertex 42.272258986924626 3 16.708064536425375
    endloop
  endfacet
  facet normal 0 1 0
    outer loop
      vertex 50 3 3
      vertex 42.272258986924626 3 16.708064536425375
      vertex 43.54182410261284 3 18.141107311824925
    endloop
  endfacet
  facet normal 0 1 0
    outer loop
      vertex 50 3 3
      vertex 43.54182410261284 3 18.141107311824925
      vertex 44 3 20
    endloop
  endfacet
  facet normal 0 1 0
    outer loop
      vertex 50 3 3
      vertex 44 3 20
      vertex 43.54182410261284 3 21.858892688175075
    endloop
  endfacet
  facet normal 1 0 0
    outer loop
      vertex 50 0 3
      vertex 50 2.5813953488372094 3
      vertex 50 0 40
    endloop
  endfacet
  facet normal 1 0 0
    outer loop
      vertex 50 2.5813953488372094 3
      vertex 50 2.775 3
      vertex 50 0 40
    endloop
  endfacet
  facet normal 1 0 0
    outer loop
      vertex 50 2.775 3
      vertex 50 3 3
      vertex 50 3 40
    endloop
  endfacet
  facet normal 0 1 0
    outer loop
      vertex 0 3 40
      vertex 37.005957007315594 3 17.347509367036817
      vertex 38.58158045182986 3 16.25993502925834
    endloop
  endfacet
  facet normal 0 -1 0
    outer loop
      vertex 0 0 0
      vertex 38.40900974233027 0 21.59099025766973
      vertex 50 0 40
    endloop
  endfacet
  facet normal 0 1 0
    outer loop
      vertex 0 3 40
      vertex 38.58158045182986 3 23.74006497074166
      vertex 37.005957007315594 3 22.652490632963183
    endloop
  endfacet
  facet normal 0 1 0
    outer loop
      vertex 0 3 40
      vertex 40.482146721021294 3 23.970835496392215
      vertex 38.58158045182986 3 23.74006497074166
    endloop
  endfacet
  facet normal 0 1 0
    outer loop
      vertex 0 3 40
      vertex 50 3 40
      vertex 40.482146721021294 3 23.970835496392215
    endloop
  endfacet
  facet normal 0 0 1
    outer loop
      vertex 0 3 40
      vertex 50 0 40
      vertex 50 3 40
    endloop
  endfacet
  facet normal 0 -1 0
    outer loop
      vertex 50 0 40
      vertex 38.40900974233027 0 21.59099025766973
      vertex 40 0 22.25
    endloop
  endfacet
  facet normal 0 -1 0
    outer loop
      vertex 50 0 3
      vertex 50 0 40
      vertex 42.25 0 20
    endloop
  endfacet
  facet normal 0 1 0
    outer loop
      vertex 50 3 3
      vertex 43.54182410261284 3 21.858892688175075
      vertex 50 3 40
    endloop
  endfacet
  facet normal 0 -1 0
    outer loop
      vertex 50 0 40
      vertex 41.59099025766973 0 21.59099025766973
      vertex 42.25 0 20
    endloop
  endfacet
  facet normal 0 -1 0
    outer loop
      vertex 50 0 40
      vertex 40 0 22.25
      vertex 41.59099025766973 0 21.59099025766973
    endloop
  endfacet
  facet normal 0 1 0
    outer loop
      vertex 50 3 40
      vertex 43.54182410261284 3 21.858892688175075
      vertex 42.272258986924626 3 23.291935463574625
    endloop
  endfacet
  facet normal 0 1 0
    outer loop
      vertex 50 3 40
      vertex 42.272258986924626 3 23.291935463574625
      vertex 40.482146721021294 3 23.970835496392215
    endloop
  endfacet
  facet normal 1 0 0
    outer loop
      vertex 50 2.775 3
      vertex 50 3 40
      vertex 50 0 40
    endloop
  endfacet
  facet normal 0.3826834323650904 0.9238795325112865 0
    outer loop
      vertex 8.409009742330268 18.40900974233027 1
      vertex 10 17.75 0
      vertex 8.409009742330268 18.40900974233027 0
    endloop
  endfacet
  facet normal 0.9238795325112867 0.38268343236508984 0
    outer loop
      vertex 8.409009742330268 18.40900974233027 1
      vertex 8.409009742330268 18.40900974233027 0
      vertex 7.75 20 1
    endloop
  endfacet
  facet normal 0.9238795325112867 0.38268343236508984 0
    outer loop
      vertex 7.75 20 1
      vertex 8.409009742330268 18.40900974233027 0
      vertex 7.75 20 0
    endloop
  endfacet
  facet normal 0.3826834323650904 0.9238795325112865 0
    outer loop
      vertex 8.409009742330268 18.40900974233027 1
      vertex 10 17.75 1
      vertex 10 17.75 0
    endloop
  endfacet
  facet normal -0.3826834323650904 0.9238795325112865 0
    outer loop
      vertex 10 17.75 1
      vertex 11.590990257669732 18.40900974233027 0
      vertex 10 17.75 0
    endloop
  endfacet
  facet normal -0.3826834323650904 0.9238795325112865 0
    outer loop
      vertex 10 17.75 1
      vertex 11.590990257669732 18.40900974233027 1
      vertex 11.590990257669732 18.40900974233027 0
    endloop
  endfacet
  facet normal -0.9238795325112867 0.38268343236508984 0
    outer loop
      vertex 11.590990257669732 18.40900974233027 1
      vertex 12.25 20 0
      vertex 11.590990257669732 18.40900974233027 0
    endloop
  endfacet
  facet normal -0.9238795325112867 0.38268343236508984 0
    outer loop
      vertex 11.590990257669732 18.40900974233027 1
      vertex 12.25 20 1
      vertex 12.25 20 0
    endloop
  endfacet
  facet normal 0.9238795325112867 -0.38268343236508984 0
    outer loop
      vertex 7.75 20 1
      vertex 7.75 20 0
      vertex 8.409009742330268 21.59099025766973 1
    endloop
  endfacet
  facet normal 0.9238795325112867 -0.38268343236508984 0
    outer loop
      vertex 8.409009742330268 21.59099025766973 1
      vertex 7.75 20 0
      vertex 8.409009742330268 21.59099025766973 0
    endloop
  endfacet
  facet normal 0.3826834323650904 -0.9238795325112865 0
    outer loop
      vertex 8.409009742330268 21.59099025766973 1
      vertex 8.409009742330268 21.59099025766973 0
      vertex 10 22.25 1
    endloop
  endfacet
  facet normal 0.3826834323650904 -0.9238795325112865 0
    outer loop
      vertex 10 22.25 1
      vertex 8.409009742330268 21.59099025766973 0
      vertex 10 22.25 0
    endloop
  endfacet
  facet normal -0.3826834323650904 -0.9238795325112865 0
    outer loop
      vertex 10 22.25 1
      vertex 10 22.25 0
      vertex 11.590990257669732 21.59099025766973 1
    endloop
  endfacet
  facet normal -0.9238795325112867 -0.38268343236508984 0
    outer loop
      vertex 12.25 20 1
      vertex 11.590990257669732 21.59099025766973 0
      vertex 12.25 20 0
    endloop
  endfacet
  facet normal -0.9238795325112867 -0.38268343236508984 0
    outer loop
      vertex 12.25 20 1
      vertex 11.590990257669732 21.59099025766973 1
      vertex 11.590990257669732 21.59099025766973 0
    endloop
  endfacet
  facet normal -0.3826834323650904 -0.9238795325112865 0
    outer loop
      vertex 11.590990257669732 21.59099025766973 1
      vertex 10 22.25 0
      vertex 11.590990257669732 21.59099025766973 0
    endloop
  endfacet
  facet normal 1 0 0
    outer loop
      vertex 6.116232730295792 19.04273734284977 1
      vertex 6.116232730295792 20.95726265715023 3
      vertex 6.116232730295792 19.04273734284977 3
    endloop
  endfacet
  facet normal 0.5680647467311554 0.8229838658936568 0
    outer loop
      vertex 7.005957007315596 17.347509367036817 1
      vertex 7.005957007315596 17.347509367036817 3
      vertex 8.581580451829858 16.25993502925834 3
    endloop
  endfacet
  facet normal 0.12053668025532263 0.992708874098054 0
    outer loop
      vertex 8.581580451829858 16.25993502925834 1
      vertex 8.581580451829858 16.25993502925834 3
      vertex 10.48214672102129 16.029164503607785 3
    endloop
  endfacet
  facet normal 0 0 1
    outer loop
      vertex 7.005957007315596 17.347509367036817 1
      vertex 8.581580451829858 16.25993502925834 1
      vertex 8.409009742330268 18.40900974233027 1
    endloop
  endfacet
  facet normal 0 0 1
    outer loop
      vertex 8.581580451829858 16.25993502925834 1
      vertex 10 17.75 1
      vertex 8.409009742330268 18.40900974233027 1
    endloop
  endfacet
  facet normal 0.5680647467311554 0.8229838658936568 0
    outer loop
      vertex 7.005957007315596 17.347509367036817 1
      vertex 8.581580451829858 16.25993502925834 3
      vertex 8.581580451829858 16.25993502925834 1
    endloop
  endfacet
  facet normal 0 0 1
    outer loop
      vertex 7.005957007315596 17.347509367036817 1
      vertex 8.409009742330268 18.40900974233027 1
      vertex 7.75 20 1
    endloop
  endfacet
  facet normal 0.88545602565321 0.4647231720437682 0
    outer loop
      vertex 7.005957007315596 17.347509367036817 1
      vertex 6.116232730295792 19.04273734284977 3
      vertex 7.005957007315596 17.347509367036817 3
    endloop
  endfacet
  facet normal 0.88545602565321 0.4647231720437682 0
    outer loop
      vertex 7.005957007315596 17.347509367036817 1
      vertex 6.116232730295792 19.04273734284977 1
      vertex 6.116232730295792 19.04273734284977 3
    endloop
  endfacet
  facet normal 0 0 1
    outer loop
      vertex 7.005957007315596 17.347509367036817 1
      vertex 7.005957007315596 22.652490632963183 1
      vertex 6.116232730295792 19.04273734284977 1
    endloop
  endfacet
  facet normal 0.12053668025532263 0.992708874098054 0
    outer loop
      vertex 10.48214672102129 16.029164503607785 1
      vertex 8.581580451829858 16.25993502925834 1
      vertex 10.48214672102129 16.029164503607785 3
    endloop
  endfacet
  facet normal 0 0 1
    outer loop
      vertex 10.48214672102129 16.029164503607785 1
      vertex 10 17.75 1
      vertex 8.581580451829858 16.25993502925834 1
    endloop
  endfacet
  facet normal 0 0 1
    outer loop
      vertex 10.48214672102129 16.029164503607785 1
      vertex 12.272258986924625 16.708064536425375 1
      vertex 10 17.75 1
    endloop
  endfacet
  facet normal -0.35460488704253534 0.9350162426854148 0
    outer loop
      vertex 10.48214672102129 16.029164503607785 1
      vertex 12.272258986924625 16.708064536425375 3
      vertex 12.272258986924625 16.708064536425375 1
    endloop
  endfacet
  facet normal -0.35460488704253534 0.9350162426854148 0
    outer loop
      vertex 10.48214672102129 16.029164503607785 1
      vertex 10.48214672102129 16.029164503607785 3
      vertex 12.272258986924625 16.708064536425375 3
    endloop
  endfacet
  facet normal 0 0 1
    outer loop
      vertex 12.272258986924625 16.708064536425375 1
      vertex 11.590990257669732 18.40900974233027 1
      vertex 10 17.75 1
    endloop
  endfacet
  facet normal 0 0 1
    outer loop
      vertex 12.272258986924625 16.708064536425375 1
      vertex 12.25 20 1
      vertex 11.590990257669732 18.40900974233027 1
    endloop
  endfacet
  facet normal -0.7485107481711011 0.6631226582407952 0
    outer loop
      vertex 12.272258986924625 16.708064536425375 1
      vertex 12.272258986924625 16.708064536425375 3
      vertex 13.54182410261284 18.141107311824925 1
    endloop
  endfacet
  facet normal -0.7485107481711011 0.6631226582407952 0
    outer loop
      vertex 13.54182410261284 18.141107311824925 1
      vertex 12.272258986924625 16.708064536425375 3
      vertex 13.54182410261284 18.141107311824925 3
    endloop
  endfacet
  facet normal 0 0 1
    outer loop
      vertex 12.272258986924625 16.708064536425375 1
      vertex 13.54182410261284 18.141107311824925 1
      vertex 13.54182410261284 21.858892688175075 1
    endloop
  endfacet
  facet normal -0.970941817426052 0.23931566428755782 0
    outer loop
      vertex 13.54182410261284 18.141107311824925 1
      vertex 13.54182410261284 18.141107311824925 3
      vertex 14 20 1
    endloop
  endfacet
  facet normal -0.970941817426052 0.23931566428755782 0
    outer loop
      vertex 14 20 1
      vertex 13.54182410261284 18.141107311824925 3
      vertex 14 20 3
    endloop
  endfacet
  facet normal 1 0 0
    outer loop
      vertex 6.116232730295792 19.04273734284977 1
      vertex 6.116232730295792 20.95726265715023 1
      vertex 6.116232730295792 20.95726265715023 3
    endloop
  endfacet
  facet normal 0 0 1
    outer loop
      vertex 6.116232730295792 19.04273734284977 1
      vertex 7.005957007315596 22.652490632963183 1
      vertex 6.116232730295792 20.95726265715023 1
    endloop
  endfacet
  facet normal 0 0 1
    outer loop
      vertex 7.005957007315596 17.347509367036817 1
      vertex 7.75 20 1
      vertex 8.581580451829858 23.74006497074166 1
    endloop
  endfacet
  facet normal 0 0 1
    outer loop
      vertex 7.005957007315596 17.347509367036817 1
      vertex 8.581580451829858 23.74006497074166 1
      vertex 7.005957007315596 22.652490632963183 1
    endloop
  endfacet
  facet normal 0.88545602565321 -0.4647231720437682 0
    outer loop
      vertex 6.116232730295792 20.95726265715023 1
      vertex 7.005957007315596 22.652490632963183 3
      vertex 6.116232730295792 20.95726265715023 3
    endloop
  endfacet
  facet normal 0.88545602565321 -0.4647231720437682 0
    outer loop
      vertex 6.116232730295792 20.95726265715023 1
      vertex 7.005957007315596 22.652490632963183 1
      vertex 7.005957007315596 22.652490632963183 3
    endloop
  endfacet
  facet normal 0 0 1
    outer loop
      vertex 7.75 20 1
      vertex 8.409009742330268 21.59099025766973 1
      vertex 8.581580451829858 23.74006497074166 1
    endloop
  endfacet
  facet normal 0.5680647467311554 -0.8229838658936568 0
    outer loop
      vertex 7.005957007315596 22.652490632963183 1
      vertex 8.581580451829858 23.74006497074166 1
      vertex 7.005957007315596 22.652490632963183 3
    endloop
  endfacet
  facet normal 0 0 1
    outer loop
      vertex 8.409009742330268 21.59099025766973 1
      vertex 10 22.25 1
      vertex 8.581580451829858 23.74006497074166 1
    endloop
  endfacet
  facet normal 0.5680647467311554 -0.8229838658936568 0
    outer loop
      vertex 8.581580451829858 23.74006497074166 1
      vertex 8.581580451829858 23.74006497074166 3
      vertex 7.005957007315596 22.652490632963183 3
    endloop
  endfacet
  facet normal 0.1205366802553225 -0.992708874098054 0
    outer loop
      vertex 8.581580451829858 23.74006497074166 1
      vertex 10.482146721021293 23.970835496392215 1
      vertex 8.581580451829858 23.74006497074166 3
    endloop
  endfacet
  facet normal 0 0 1
    outer loop
      vertex 12.272258986924625 16.708064536425375 1
      vertex 12.272258986924623 23.291935463574625 1
      vertex 12.25 20 1
    endloop
  endfacet
  facet normal 0 0 1
    outer loop
      vertex 12.25 20 1
      vertex 12.272258986924623 23.291935463574625 1
      vertex 11.590990257669732 21.59099025766973 1
    endloop
  endfacet
  facet normal 0 0 1
    outer loop
      vertex 10 22.25 1
      vertex 10.482146721021293 23.970835496392215 1
      vertex 8.581580451829858 23.74006497074166 1
    endloop
  endfacet
  facet normal 0 0 1
    outer loop
      vertex 10 22.25 1
      vertex 11.590990257669732 21.59099025766973 1
      vertex 10.482146721021293 23.970835496392215 1
    endloop
  endfacet
  facet normal 0.1205366802553225 -0.992708874098054 0
    outer loop
      vertex 10.482146721021293 23.970835496392215 1
      vertex 10.482146721021293 23.970835496392215 3
      vertex 8.581580451829858 23.74006497074166 3
    endloop
  endfacet
  facet normal 0 0 1
    outer loop
      vertex 10.482146721021293 23.970835496392215 1
      vertex 11.590990257669732 21.59099025766973 1
      vertex 12.272258986924623 23.291935463574625 1
    endloop
  endfacet
  facet normal -0.354604887042536 -0.9350162426854147 0
    outer loop
      vertex 10.482146721021293 23.970835496392215 1
      vertex 12.272258986924623 23.291935463574625 1
      vertex 10.482146721021293 23.970835496392215 3
    endloop
  endfacet
  facet normal -0.354604887042536 -0.9350162426854147 0
    outer loop
      vertex 12.272258986924623 23.291935463574625 1
      vertex 12.272258986924623 23.291935463574625 3
      vertex 10.482146721021293 23.970835496392215 3
    endloop
  endfacet
  facet normal 0 0 1
    outer loop
      vertex 12.272258986924625 16.708064536425375 1
      vertex 13.54182410261284 21.858892688175075 1
      vertex 12.272258986924623 23.291935463574625 1
    endloop
  endfacet
  facet normal 0 0 1
    outer loop
      vertex 13.54182410261284 18.141107311824925 1
      vertex 14 20 1
      vertex 13.54182410261284 21.858892688175075 1
    endloop
  endfacet
  facet normal -0.970941817426052 -0.23931566428755782 0
    outer loop
      vertex 14 20 1
      vertex 14 20 3
      vertex 13.54182410261284 21.858892688175075 1
    endloop
  endfacet
  facet normal -0.970941817426052 -0.23931566428755782 0
    outer loop
      vertex 13.54182410261284 21.858892688175075 1
      vertex 14 20 3
      vertex 13.54182410261284 21.858892688175075 3
    endloop
  endfacet
  facet normal -0.7485107481711006 -0.6631226582407957 0
    outer loop
      vertex 12.272258986924623 23.291935463574625 1
      vertex 13.54182410261284 21.858892688175075 1
      vertex 13.54182410261284 21.858892688175075 3
    endloop
  endfacet
  facet normal -0.7485107481711006 -0.6631226582407957 0
    outer loop
      vertex 12.272258986924623 23.291935463574625 1
      vertex 13.54182410261284 21.858892688175075 3
      vertex 12.272258986924623 23.291935463574625 3
    endloop
  endfacet
  facet normal 0.3826834323650907 0.9238795325112863 0
    outer loop
      vertex 38.40900974233027 18.40900974233027 1
      vertex 40 17.75 0
      vertex 38.40900974233027 18.40900974233027 0
    endloop
  endfacet
  facet normal 0.9238795325112863 0.3826834323650907 0
    outer loop
      vertex 38.40900974233027 18.40900974233027 1
      vertex 38.40900974233027 18.40900974233027 0
      vertex 37.75 20 1
    endloop
  endfacet
  facet normal 0.9238795325112863 0.3826834323650907 0
    outer loop
      vertex 37.75 20 1
      vertex 38.40900974233027 18.40900974233027 0
      vertex 37.75 20 0
    endloop
  endfacet
  facet normal 0.3826834323650907 0.9238795325112863 0
    outer loop
      vertex 38.40900974233027 18.40900974233027 1
      vertex 40 17.75 1
      vertex 40 17.75 0
    endloop
  endfacet
  facet normal -0.3826834323650907 0.9238795325112863 0
    outer loop
      vertex 40 17.75 1
      vertex 41.59099025766973 18.40900974233027 0
      vertex 40 17.75 0
    endloop
  endfacet
  facet normal -0.3826834323650907 0.9238795325112863 0
    outer loop
      vertex 40 17.75 1
      vertex 41.59099025766973 18.40900974233027 1
      vertex 41.59099025766973 18.40900974233027 0
    endloop
  endfacet
  facet normal -0.9238795325112863 0.3826834323650907 0
    outer loop
      vertex 41.59099025766973 18.40900974233027 1
      vertex 42.25 20 0
      vertex 41.59099025766973 18.40900974233027 0
    endloop
  endfacet
  facet normal -0.9238795325112863 0.3826834323650907 0
    outer loop
      vertex 41.59099025766973 18.40900974233027 1
      vertex 42.25 20 1
      vertex 42.25 20 0
    endloop
  endfacet
  facet normal 0.9238795325112863 -0.3826834323650907 0
    outer loop
      vertex 37.75 20 1
      vertex 37.75 20 0
      vertex 38.40900974233027 21.59099025766973 1
    endloop
  endfacet
  facet normal 0.9238795325112863 -0.3826834323650907 0
    outer loop
      vertex 38.40900974233027 21.59099025766973 1
      vertex 37.75 20 0
      vertex 38.40900974233027 21.59099025766973 0
    endloop
  endfacet
  facet normal 0.3826834323650907 -0.9238795325112863 0
    outer loop
      vertex 38.40900974233027 21.59099025766973 1
      vertex 38.40900974233027 21.59099025766973 0
      vertex 40 22.25 1
    endloop
  endfacet
  facet normal 0.3826834323650907 -0.9238795325112863 0
    outer loop
      vertex 40 22.25 1
      vertex 38.40900974233027 21.59099025766973 0
      vertex 40 22.25 0
    endloop
  endfacet
  facet normal -0.3826834323650907 -0.9238795325112863 0
    outer loop
      vertex 40 22.25 1
      vertex 40 22.25 0
      vertex 41.59099025766973 21.59099025766973 1
    endloop
  endfacet
  facet normal -0.9238795325112863 -0.3826834323650907 0
    outer loop
      vertex 42.25 20 1
      vertex 41.59099025766973 21.59099025766973 0
      vertex 42.25 20 0
    endloop
  endfacet
  facet normal -0.9238795325112863 -0.3826834323650907 0
    outer loop
      vertex 42.25 20 1
      vertex 41.59099025766973 21.59099025766973 1
      vertex 41.59099025766973 21.59099025766973 0
    endloop
  endfacet
  facet normal -0.3826834323650907 -0.9238795325112863 0
    outer loop
      vertex 41.59099025766973 21.59099025766973 1
      vertex 40 22.25 0
      vertex 41.59099025766973 21.59099025766973 0
    endloop
  endfacet
  facet normal 0.8854560256532105 0.46472317204376745 0
    outer loop
      vertex 37.005957007315594 17.347509367036817 1
      vertex 36.11623273029579 19.04273734284977 3
      vertex 37.005957007315594 17.347509367036817 3
    endloop
  endfacet
  facet normal 0.8854560256532105 0.46472317204376745 0
    outer loop
      vertex 37.005957007315594 17.347509367036817 1
      vertex 36.11623273029579 19.04273734284977 1
      vertex 36.11623273029579 19.04273734284977 3
    endloop
  endfacet
  facet normal 0 0 1
    outer loop
      vertex 37.005957007315594 17.347509367036817 1
      vertex 37.005957007315594 22.652490632963183 1
      vertex 36.11623273029579 19.04273734284977 1
    endloop
  endfacet
  facet normal 1 0 0
    outer loop
      vertex 36.11623273029579 19.04273734284977 1
      vertex 36.11623273029579 20.95726265715023 3
      vertex 36.11623273029579 19.04273734284977 3
    endloop
  endfacet
  facet normal 0 0 1
    outer loop
      vertex 37.005957007315594 17.347509367036817 1
      vertex 38.58158045182986 16.25993502925834 1
      vertex 40 17.75 1
    endloop
  endfacet
  facet normal 0.5680647467311549 0.822983865893657 0
    outer loop
      vertex 37.005957007315594 17.347509367036817 1
      vertex 38.58158045182986 16.25993502925834 3
      vertex 38.58158045182986 16.25993502925834 1
    endloop
  endfacet
  facet normal 0.5680647467311549 0.822983865893657 0
    outer loop
      vertex 37.005957007315594 17.347509367036817 1
      vertex 37.005957007315594 17.347509367036817 3
      vertex 38.58158045182986 16.25993502925834 3
    endloop
  endfacet
  facet normal 0.12053668025532241 0.9927088740980541 0
    outer loop
      vertex 38.58158045182986 16.25993502925834 1
      vertex 38.58158045182986 16.25993502925834 3
      vertex 40.482146721021294 16.029164503607785 3
    endloop
  endfacet
  facet normal 0.12053668025532241 0.9927088740980541 0
    outer loop
      vertex 38.58158045182986 16.25993502925834 1
      vertex 40.482146721021294 16.029164503607785 3
      vertex 40.482146721021294 16.029164503607785 1
    endloop
  endfacet
  facet normal 0 0 1
    outer loop
      vertex 38.58158045182986 16.25993502925834 1
      vertex 40.482146721021294 16.029164503607785 1
      vertex 40 17.75 1
    endloop
  endfacet
  facet normal 0 0 1
    outer loop
      vertex 37.005957007315594 17.347509367036817 1
      vertex 38.40900974233027 18.40900974233027 1
      vertex 37.75 20 1
    endloop
  endfacet
  facet normal 0 0 1
    outer loop
      vertex 37.005957007315594 17.347509367036817 1
      vertex 40 17.75 1
      vertex 38.40900974233027 18.40900974233027 1
    endloop
  endfacet
  facet normal 0 0 1
    outer loop
      vertex 40.482146721021294 16.029164503607785 1
      vertex 41.59099025766973 18.40900974233027 1
      vertex 40 17.75 1
    endloop
  endfacet
  facet normal 0 0 1
    outer loop
      vertex 40.482146721021294 16.029164503607785 1
      vertex 42.272258986924626 16.708064536425375 1
      vertex 41.59099025766973 18.40900974233027 1
    endloop
  endfacet
  facet normal -0.3546048870425357 0.9350162426854148 0
    outer loop
      vertex 40.482146721021294 16.029164503607785 1
      vertex 40.482146721021294 16.029164503607785 3
      vertex 42.272258986924626 16.708064536425375 3
    endloop
  endfacet
  facet normal -0.3546048870425357 0.9350162426854148 0
    outer loop
      vertex 40.482146721021294 16.029164503607785 1
      vertex 42.272258986924626 16.708064536425375 3
      vertex 42.272258986924626 16.708064536425375 1
    endloop
  endfacet
  facet normal -0.7485107481711006 0.6631226582407957 0
    outer loop
      vertex 42.272258986924626 16.708064536425375 1
      vertex 42.272258986924626 16.708064536425375 3
      vertex 43.54182410261284 18.141107311824925 1
    endloop
  endfacet
  facet normal 0 0 1
    outer loop
      vertex 42.272258986924626 16.708064536425375 1
      vertex 42.25 20 1
      vertex 41.59099025766973 18.40900974233027 1
    endloop
  endfacet
  facet normal -0.7485107481711006 0.6631226582407957 0
    outer loop
      vertex 43.54182410261284 18.141107311824925 1
      vertex 42.272258986924626 16.708064536425375 3
      vertex 43.54182410261284 18.141107311824925 3
    endloop
  endfacet
  facet normal 0 0 1
    outer loop
      vertex 42.272258986924626 16.708064536425375 1
      vertex 43.54182410261284 18.141107311824925 1
      vertex 43.54182410261284 21.858892688175075 1
    endloop
  endfacet
  facet normal -0.9709418174260525 0.23931566428755607 0
    outer loop
      vertex 43.54182410261284 18.141107311824925 1
      vertex 43.54182410261284 18.141107311824925 3
      vertex 44 20 1
    endloop
  endfacet
  facet normal -0.9709418174260525 0.23931566428755607 0
    outer loop
      vertex 44 20 1
      vertex 43.54182410261284 18.141107311824925 3
      vertex 44 20 3
    endloop
  endfacet
  facet normal 0 0 1
    outer loop
      vertex 36.11623273029579 19.04273734284977 1
      vertex 37.005957007315594 22.652490632963183 1
      vertex 36.11623273029579 20.95726265715023 1
    endloop
  endfacet
  facet normal 1 0 0
    outer loop
      vertex 36.11623273029579 19.04273734284977 1
      vertex 36.11623273029579 20.95726265715023 1
      vertex 36.11623273029579 20.95726265715023 3
    endloop
  endfacet
  facet normal 0.8854560256532105 -0.46472317204376745 0
    outer loop
      vertex 36.11623273029579 20.95726265715023 1
      vertex 37.005957007315594 22.652490632963183 3
      vertex 36.11623273029579 20.95726265715023 3
    endloop
  endfacet
  facet normal 0.8854560256532105 -0.46472317204376745 0
    outer loop
      vertex 36.11623273029579 20.95726265715023 1
      vertex 37.005957007315594 22.652490632963183 1
      vertex 37.005957007315594 22.652490632963183 3
    endloop
  endfacet
  facet normal 0 0 1
    outer loop
      vertex 37.005957007315594 17.347509367036817 1
      vertex 37.75 20 1
      vertex 38.58158045182986 23.74006497074166 1
    endloop
  endfacet
  facet normal 0 0 1
    outer loop
      vertex 37.005957007315594 17.347509367036817 1
      vertex 38.58158045182986 23.74006497074166 1
      vertex 37.005957007315594 22.652490632963183 1
    endloop
  endfacet
  facet normal 0 0 1
    outer loop
      vertex 37.75 20 1
      vertex 38.40900974233027 21.59099025766973 1
      vertex 38.58158045182986 23.74006497074166 1
    endloop
  endfacet
  facet normal 0 0 1
    outer loop
      vertex 38.40900974233027 21.59099025766973 1
      vertex 40 22.25 1
      vertex 38.58158045182986 23.74006497074166 1
    endloop
  endfacet
  facet normal 0.5680647467311549 -0.822983865893657 0
    outer loop
      vertex 37.005957007315594 22.652490632963183 1
      vertex 38.58158045182986 23.74006497074166 1
      vertex 37.005957007315594 22.652490632963183 3
    endloop
  endfacet
  facet normal 0.5680647467311549 -0.822983865893657 0
    outer loop
      vertex 38.58158045182986 23.74006497074166 1
      vertex 38.58158045182986 23.74006497074166 3
      vertex 37.005957007315594 22.652490632963183 3
    endloop
  endfacet
  facet normal 0 0 1
    outer loop
      vertex 38.58158045182986 23.74006497074166 1
      vertex 40 22.25 1
      vertex 40.482146721021294 23.970835496392215 1
    endloop
  endfacet
  facet normal 0.12053668025532241 -0.9927088740980541 0
    outer loop
      vertex 38.58158045182986 23.74006497074166 1
      vertex 40.482146721021294 23.970835496392215 1
      vertex 38.58158045182986 23.74006497074166 3
    endloop
  endfacet
  facet normal 0.12053668025532241 -0.9927088740980541 0
    outer loop
      vertex 40.482146721021294 23.970835496392215 1
      vertex 40.482146721021294 23.970835496392215 3
      vertex 38.58158045182986 23.74006497074166 3
    endloop
  endfacet
  facet normal 0 0 1
    outer loop
      vertex 40 22.25 1
      vertex 41.59099025766973 21.59099025766973 1
      vertex 42.272258986924626 23.291935463574625 1
    endloop
  endfacet
  facet normal 0 0 1
    outer loop
      vertex 42.25 20 1
      vertex 42.272258986924626 23.291935463574625 1
      vertex 41.59099025766973 21.59099025766973 1
    endloop
  endfacet
  facet normal 0 0 1
    outer loop
      vertex 42.272258986924626 16.708064536425375 1
      vertex 42.272258986924626 23.291935463574625 1
      vertex 42.25 20 1
    endloop
  endfacet
  facet normal 0 0 1
    outer loop
      vertex 42.272258986924626 16.708064536425375 1
      vertex 43.54182410261284 21.858892688175075 1
      vertex 42.272258986924626 23.291935463574625 1
    endloop
  endfacet
  facet normal 0 0 1
    outer loop
      vertex 43.54182410261284 18.141107311824925 1
      vertex 44 20 1
      vertex 43.54182410261284 21.858892688175075 1
    endloop
  endfacet
  facet normal -0.9709418174260525 -0.23931566428755607 0
    outer loop
      vertex 43.54182410261284 21.858892688175075 1
      vertex 44 20 3
      vertex 43.54182410261284 21.858892688175075 3
    endloop
  endfacet
  facet normal -0.7485107481711006 -0.6631226582407957 0
    outer loop
      vertex 43.54182410261284 21.858892688175075 1
      vertex 43.54182410261284 21.858892688175075 3
      vertex 42.272258986924626 23.291935463574625 1
    endloop
  endfacet
  facet normal 0 0 1
    outer loop
      vertex 40 22.25 1
      vertex 42.272258986924626 23.291935463574625 1
      vertex 40.482146721021294 23.970835496392215 1
    endloop
  endfacet
  facet normal -0.3546048870425357 -0.9350162426854148 0
    outer loop
      vertex 40.482146721021294 23.970835496392215 1
      vertex 42.272258986924626 23.291935463574625 1
      vertex 40.482146721021294 23.970835496392215 3
    endloop
  endfacet
  facet normal -0.3546048870425357 -0.9350162426854148 0
    outer loop
      vertex 42.272258986924626 23.291935463574625 1
      vertex 42.272258986924626 23.291935463574625 3
      vertex 40.482146721021294 23.970835496392215 3
    endloop
  endfacet
  facet normal -0.7485107481711006 -0.6631226582407957 0
    outer loop
      vertex 42.272258986924626 23.291935463574625 1
      vertex 43.54182410261284 21.858892688175075 3
      vertex 42.272258986924626 23.291935463574625 3
    endloop
  endfacet
  facet normal -0.9709418174260525 -0.23931566428755607 0
    outer loop
      vertex 44 20 1
      vertex 44 20 3
      vertex 43.54182410261284 21.858892688175075 1
    endloop
  endfacet
  facet normal 0.3826834323650904 0 0.9238795325112865
    outer loop
      vertex 8.409009742330268 1 18.40900974233027
      vertex 8.409009742330268 0 18.40900974233027
      vertex 10 1 17.75
    endloop
  endfacet
  facet normal 0.9238795325112867 0 0.38268343236508984
    outer loop
      vertex 8.409009742330268 1 18.40900974233027
      vertex 7.75 0 20
      vertex 8.409009742330268 0 18.40900974233027
    endloop
  endfacet
  facet normal 0.9238795325112867 0 0.38268343236508984
    outer loop
      vertex 8.409009742330268 1 18.40900974233027
      vertex 7.75 1 20
      vertex 7.75 0 20
    endloop
  endfacet
  facet normal 0.3826834323650904 0 0.9238795325112865
    outer loop
      vertex 10 1 17.75
      vertex 8.409009742330268 0 18.40900974233027
      vertex 10 0 17.75
    endloop
  endfacet
  facet normal -0.3826834323650904 0 0.9238795325112865
    outer loop
      vertex 10 1 17.75
      vertex 10 0 17.75
      vertex 11.590990257669732 1 18.40900974233027
    endloop
  endfacet
  facet normal -0.3826834323650904 0 0.9238795325112865
    outer loop
      vertex 11.590990257669732 1 18.40900974233027
      vertex 10 0 17.75
      vertex 11.590990257669732 0 18.40900974233027
    endloop
  endfacet
  facet normal -0.9238795325112867 0 0.38268343236508984
    outer loop
      vertex 12.25 1 20
      vertex 11.590990257669732 0 18.40900974233027
      vertex 12.25 0 20
    endloop
  endfacet
  facet normal -0.9238795325112867 0 0.38268343236508984
    outer loop
      vertex 11.590990257669732 1 18.40900974233027
      vertex 11.590990257669732 0 18.40900974233027
      vertex 12.25 1 20
    endloop
  endfacet
  facet normal 0.9238795325112867 0 -0.38268343236508984
    outer loop
      vertex 7.75 1 20
      vertex 8.409009742330268 0 21.59099025766973
      vertex 7.75 0 20
    endloop
  endfacet
  facet normal 0.9238795325112867 0 -0.38268343236508984
    outer loop
      vertex 7.75 1 20
      vertex 8.409009742330268 1 21.59099025766973
      vertex 8.409009742330268 0 21.59099025766973
    endloop
  endfacet
  facet normal 0.3826834323650904 0 -0.9238795325112865
    outer loop
      vertex 8.409009742330268 1 21.59099025766973
      vertex 10 0 22.25
      vertex 8.409009742330268 0 21.59099025766973
    endloop
  endfacet
  facet normal 0.3826834323650904 0 -0.9238795325112865
    outer loop
      vertex 8.409009742330268 1 21.59099025766973
      vertex 10 1 22.25
      vertex 10 0 22.25
    endloop
  endfacet
  facet normal -0.3826834323650904 0 -0.9238795325112865
    outer loop
      vertex 10 1 22.25
      vertex 11.590990257669732 0 21.59099025766973
      vertex 10 0 22.25
    endloop
  endfacet
  facet normal -0.9238795325112867 0 -0.38268343236508984
    outer loop
      vertex 11.590990257669732 1 21.59099025766973
      vertex 12.25 0 20
      vertex 11.590990257669732 0 21.59099025766973
    endloop
  endfacet
  facet normal -0.9238795325112867 0 -0.38268343236508984
    outer loop
      vertex 12.25 1 20
      vertex 12.25 0 20
      vertex 11.590990257669732 1 21.59099025766973
    endloop
  endfacet
  facet normal -0.3826834323650904 0 -0.9238795325112865
    outer loop
      vertex 10 1 22.25
      vertex 11.590990257669732 1 21.59099025766973
      vertex 11.590990257669732 0 21.59099025766973
    endloop
  endfacet
  facet normal 1 0 0
    outer loop
      vertex 6.116232730295792 1 19.04273734284977
      vertex 6.116232730295792 3 19.04273734284977
      vertex 6.116232730295792 3 20.95726265715023
    endloop
  endfacet
  facet normal 0.5680647467311554 0 0.8229838658936568
    outer loop
      vertex 7.005957007315596 1 17.347509367036817
      vertex 8.581580451829858 3 16.25993502925834
      vertex 7.005957007315596 3 17.347509367036817
    endloop
  endfacet
  facet normal 0 1 0
    outer loop
      vertex 7.005957007315596 1 17.347509367036817
      vertex 12.272258986924625 1 16.708064536425375
      vertex 8.581580451829858 1 16.25993502925834
    endloop
  endfacet
  facet normal 0.12053668025532263 0 0.992708874098054
    outer loop
      vertex 8.581580451829858 1 16.25993502925834
      vertex 10.48214672102129 3 16.029164503607785
      vertex 8.581580451829858 3 16.25993502925834
    endloop
  endfacet
  facet normal 0.5680647467311554 0 0.8229838658936568
    outer loop
      vertex 7.005957007315596 1 17.347509367036817
      vertex 8.581580451829858 1 16.25993502925834
      vertex 8.581580451829858 3 16.25993502925834
    endloop
  endfacet
  facet normal 0 1 0
    outer loop
      vertex 7.005957007315596 1 17.347509367036817
      vertex 6.116232730295792 1 19.04273734284977
      vertex 8.409009742330268 1 18.40900974233027
    endloop
  endfacet
  facet normal 0 1 0
    outer loop
      vertex 6.116232730295792 1 19.04273734284977
      vertex 7.75 1 20
      vertex 8.409009742330268 1 18.40900974233027
    endloop
  endfacet
  facet normal 0.88545602565321 0 0.4647231720437682
    outer loop
      vertex 7.005957007315596 1 17.347509367036817
      vertex 6.116232730295792 3 19.04273734284977
      vertex 6.116232730295792 1 19.04273734284977
    endloop
  endfacet
  facet normal 0.88545602565321 0 0.4647231720437682
    outer loop
      vertex 7.005957007315596 1 17.347509367036817
      vertex 7.005957007315596 3 17.347509367036817
      vertex 6.116232730295792 3 19.04273734284977
    endloop
  endfacet
  facet normal 0 1 0
    outer loop
      vertex 7.005957007315596 1 17.347509367036817
      vertex 8.409009742330268 1 18.40900974233027
      vertex 10 1 17.75
    endloop
  endfacet
  facet normal 0 1 0
    outer loop
      vertex 10.48214672102129 1 16.029164503607785
      vertex 8.581580451829858 1 16.25993502925834
      vertex 12.272258986924625 1 16.708064536425375
    endloop
  endfacet
  facet normal 0.12053668025532263 0 0.992708874098054
    outer loop
      vertex 10.48214672102129 1 16.029164503607785
      vertex 10.48214672102129 3 16.029164503607785
      vertex 8.581580451829858 1 16.25993502925834
    endloop
  endfacet
  facet normal 0 1 0
    outer loop
      vertex 7.005957007315596 1 17.347509367036817
      vertex 13.54182410261284 1 18.141107311824925
      vertex 12.272258986924625 1 16.708064536425375
    endloop
  endfacet
  facet normal -0.35460488704253534 0 0.9350162426854148
    outer loop
      vertex 10.48214672102129 1 16.029164503607785
      vertex 12.272258986924625 1 16.708064536425375
      vertex 12.272258986924625 3 16.708064536425375
    endloop
  endfacet
  facet normal -0.35460488704253534 0 0.9350162426854148
    outer loop
      vertex 10.48214672102129 1 16.029164503607785
      vertex 12.272258986924625 3 16.708064536425375
      vertex 10.48214672102129 3 16.029164503607785
    endloop
  endfacet
  facet normal 0 1 0
    outer loop
      vertex 7.005957007315596 1 17.347509367036817
      vertex 10 1 17.75
      vertex 13.54182410261284 1 18.141107311824925
    endloop
  endfacet
  facet normal 0 1 0
    outer loop
      vertex 10 1 17.75
      vertex 11.590990257669732 1 18.40900974233027
      vertex 13.54182410261284 1 18.141107311824925
    endloop
  endfacet
  facet normal 0 1 0
    outer loop
      vertex 11.590990257669732 1 18.40900974233027
      vertex 12.25 1 20
      vertex 13.54182410261284 1 18.141107311824925
    endloop
  endfacet
  facet normal -0.7485107481711011 0 0.6631226582407952
    outer loop
      vertex 12.272258986924625 1 16.708064536425375
      vertex 13.54182410261284 1 18.141107311824925
      vertex 12.272258986924625 3 16.708064536425375
    endloop
  endfacet
  facet normal 0 1 0
    outer loop
      vertex 12.25 1 20
      vertex 14 1 20
      vertex 13.54182410261284 1 18.141107311824925
    endloop
  endfacet
  facet normal -0.7485107481711011 0 0.6631226582407952
    outer loop
      vertex 13.54182410261284 1 18.141107311824925
      vertex 13.54182410261284 3 18.141107311824925
      vertex 12.272258986924625 3 16.708064536425375
    endloop
  endfacet
  facet normal -0.970941817426052 0 0.23931566428755782
    outer loop
      vertex 13.54182410261284 1 18.141107311824925
      vertex 14 1 20
      vertex 13.54182410261284 3 18.141107311824925
    endloop
  endfacet
  facet normal -0.970941817426052 0 0.23931566428755782
    outer loop
      vertex 14 1 20
      vertex 14 3 20
      vertex 13.54182410261284 3 18.141107311824925
    endloop
  endfacet
  facet normal 1 0 0
    outer loop
      vertex 6.116232730295792 1 19.04273734284977
      vertex 6.116232730295792 3 20.95726265715023
      vertex 6.116232730295792 1 20.95726265715023
    endloop
  endfacet
  facet normal 0 1 0
    outer loop
      vertex 6.116232730295792 1 19.04273734284977
      vertex 6.116232730295792 1 20.95726265715023
      vertex 7.75 1 20
    endloop
  endfacet
  facet normal 0 1 0
    outer loop
      vertex 7.75 1 20
      vertex 6.116232730295792 1 20.95726265715023
      vertex 7.005957007315596 1 22.652490632963183
    endloop
  endfacet
  facet normal 0 1 0
    outer loop
      vertex 7.75 1 20
      vertex 7.005957007315596 1 22.652490632963183
      vertex 8.409009742330268 1 21.59099025766973
    endloop
  endfacet
  facet normal 0.88545602565321 0 -0.4647231720437682
    outer loop
      vertex 6.116232730295792 1 20.95726265715023
      vertex 7.005957007315596 3 22.652490632963183
      vertex 7.005957007315596 1 22.652490632963183
    endloop
  endfacet
  facet normal 0.88545602565321 0 -0.4647231720437682
    outer loop
      vertex 6.116232730295792 1 20.95726265715023
      vertex 6.116232730295792 3 20.95726265715023
      vertex 7.005957007315596 3 22.652490632963183
    endloop
  endfacet
  facet normal 0 1 0
    outer loop
      vertex 8.409009742330268 1 21.59099025766973
      vertex 7.005957007315596 1 22.652490632963183
      vertex 10 1 22.25
    endloop
  endfacet
  facet normal 0.5680647467311554 0 -0.8229838658936568
    outer loop
      vertex 7.005957007315596 1 22.652490632963183
      vertex 7.005957007315596 3 22.652490632963183
      vertex 8.581580451829858 1 23.74006497074166
    endloop
  endfacet
  facet normal 0 1 0
    outer loop
      vertex 7.005957007315596 1 22.652490632963183
      vertex 8.581580451829858 1 23.74006497074166
      vertex 12.272258986924623 1 23.291935463574625
    endloop
  endfacet
  facet normal 0.5680647467311554 0 -0.8229838658936568
    outer loop
      vertex 8.581580451829858 1 23.74006497074166
      vertex 7.005957007315596 3 22.652490632963183
      vertex 8.581580451829858 3 23.74006497074166
    endloop
  endfacet
  facet normal 0.1205366802553225 0 -0.992708874098054
    outer loop
      vertex 8.581580451829858 1 23.74006497074166
      vertex 8.581580451829858 3 23.74006497074166
      vertex 10.482146721021293 1 23.970835496392215
    endloop
  endfacet
  facet normal 0 1 0
    outer loop
      vertex 7.005957007315596 1 22.652490632963183
      vertex 13.54182410261284 1 21.858892688175075
      vertex 10 1 22.25
    endloop
  endfacet
  facet normal 0 1 0
    outer loop
      vertex 10 1 22.25
      vertex 13.54182410261284 1 21.858892688175075
      vertex 11.590990257669732 1 21.59099025766973
    endloop
  endfacet
  facet normal 0 1 0
    outer loop
      vertex 8.581580451829858 1 23.74006497074166
      vertex 10.482146721021293 1 23.970835496392215
      vertex 12.272258986924623 1 23.291935463574625
    endloop
  endfacet
  facet normal 0.1205366802553225 0 -0.992708874098054
    outer loop
      vertex 10.482146721021293 1 23.970835496392215
      vertex 8.581580451829858 3 23.74006497074166
      vertex 10.482146721021293 3 23.970835496392215
    endloop
  endfacet
  facet normal 0 1 0
    outer loop
      vertex 7.005957007315596 1 22.652490632963183
      vertex 12.272258986924623 1 23.291935463574625
      vertex 13.54182410261284 1 21.858892688175075
    endloop
  endfacet
  facet normal -0.354604887042536 0 -0.9350162426854147
    outer loop
      vertex 10.482146721021293 1 23.970835496392215
      vertex 10.482146721021293 3 23.970835496392215
      vertex 12.272258986924623 1 23.291935463574625
    endloop
  endfacet
  facet normal -0.354604887042536 0 -0.9350162426854147
    outer loop
      vertex 12.272258986924623 1 23.291935463574625
      vertex 10.482146721021293 3 23.970835496392215
      vertex 12.272258986924623 3 23.291935463574625
    endloop
  endfacet
  facet normal 0 1 0
    outer loop
      vertex 12.25 1 20
      vertex 11.590990257669732 1 21.59099025766973
      vertex 14 1 20
    endloop
  endfacet
  facet normal 0 1 0
    outer loop
      vertex 14 1 20
      vertex 11.590990257669732 1 21.59099025766973
      vertex 13.54182410261284 1 21.858892688175075
    endloop
  endfacet
  facet normal -0.970941817426052 0 -0.23931566428755782
    outer loop
      vertex 14 1 20
      vertex 13.54182410261284 1 21.858892688175075
      vertex 14 3 20
    endloop
  endfacet
  facet normal -0.970941817426052 0 -0.23931566428755782
    outer loop
      vertex 13.54182410261284 1 21.858892688175075
      vertex 13.54182410261284 3 21.858892688175075
      vertex 14 3 20
    endloop
  endfacet
  facet normal -0.7485107481711006 0 -0.6631226582407957
    outer loop
      vertex 12.272258986924623 1 23.291935463574625
      vertex 13.54182410261284 3 21.858892688175075
      vertex 13.54182410261284 1 21.858892688175075
    endloop
  endfacet
  facet normal -0.7485107481711006 0 -0.6631226582407957
    outer loop
      vertex 12.272258986924623 1 23.291935463574625
      vertex 12.272258986924623 3 23.291935463574625
      vertex 13.54182410261284 3 21.858892688175075
    endloop
  endfacet
  facet normal 0.3826834323650907 0 0.9238795325112863
    outer loop
      vertex 38.40900974233027 1 18.40900974233027
      vertex 38.40900974233027 0 18.40900974233027
      vertex 40 1 17.75
    endloop
  endfacet
  facet normal 0.9238795325112863 0 0.3826834323650907
    outer loop
      vertex 38.40900974233027 1 18.40900974233027
      vertex 37.75 0 20
      vertex 38.40900974233027 0 18.40900974233027
    endloop
  endfacet
  facet normal 0.9238795325112863 0 0.3826834323650907
    outer loop
      vertex 38.40900974233027 1 18.40900974233027
      vertex 37.75 1 20
      vertex 37.75 0 20
    endloop
  endfacet
  facet normal 0.3826834323650907 0 0.9238795325112863
    outer loop
      vertex 40 1 17.75
      vertex 38.40900974233027 0 18.40900974233027
      vertex 40 0 17.75
    endloop
  endfacet
  facet normal -0.3826834323650907 0 0.9238795325112863
    outer loop
      vertex 40 1 17.75
      vertex 40 0 17.75
      vertex 41.59099025766973 1 18.40900974233027
    endloop
  endfacet
  facet normal -0.3826834323650907 0 0.9238795325112863
    outer loop
      vertex 41.59099025766973 1 18.40900974233027
      vertex 40 0 17.75
      vertex 41.59099025766973 0 18.40900974233027
    endloop
  endfacet
  facet normal -0.9238795325112863 0 0.3826834323650907
    outer loop
      vertex 42.25 1 20
      vertex 41.59099025766973 0 18.40900974233027
      vertex 42.25 0 20
    endloop
  endfacet
  facet normal -0.9238795325112863 0 0.3826834323650907
    outer loop
      vertex 41.59099025766973 1 18.40900974233027
      vertex 41.59099025766973 0 18.40900974233027
      vertex 42.25 1 20
    endloop
  endfacet
  facet normal 0.9238795325112863 0 -0.3826834323650907
    outer loop
      vertex 37.75 1 20
      vertex 38.40900974233027 0 21.59099025766973
      vertex 37.75 0 20
    endloop
  endfacet
  facet normal 0.9238795325112863 0 -0.3826834323650907
    outer loop
      vertex 37.75 1 20
      vertex 38.40900974233027 1 21.59099025766973
      vertex 38.40900974233027 0 21.59099025766973
    endloop
  endfacet
  facet normal 0.3826834323650907 0 -0.9238795325112863
    outer loop
      vertex 38.40900974233027 1 21.59099025766973
      vertex 40 0 22.25
      vertex 38.40900974233027 0 21.59099025766973
    endloop
  endfacet
  facet normal 0.3826834323650907 0 -0.9238795325112863
    outer loop
      vertex 38.40900974233027 1 21.59099025766973
      vertex 40 1 22.25
      vertex 40 0 22.25
    endloop
  endfacet
  facet normal -0.3826834323650907 0 -0.9238795325112863
    outer loop
      vertex 40 1 22.25
      vertex 41.59099025766973 0 21.59099025766973
      vertex 40 0 22.25
    endloop
  endfacet
  facet normal -0.9238795325112863 0 -0.3826834323650907
    outer loop
      vertex 41.59099025766973 1 21.59099025766973
      vertex 42.25 0 20
      vertex 41.59099025766973 0 21.59099025766973
    endloop
  endfacet
  facet normal -0.9238795325112863 0 -0.3826834323650907
    outer loop
      vertex 42.25 1 20
      vertex 42.25 0 20
      vertex 41.59099025766973 1 21.59099025766973
    endloop
  endfacet
  facet normal -0.3826834323650907 0 -0.9238795325112863
    outer loop
      vertex 40 1 22.25
      vertex 41.59099025766973 1 21.59099025766973
      vertex 41.59099025766973 0 21.59099025766973
    endloop
  endfacet
  facet normal 0 1 0
    outer loop
      vertex 37.005957007315594 1 17.347509367036817
      vertex 36.11623273029579 1 19.04273734284977
      vertex 37.75 1 20
    endloop
  endfacet
  facet normal 0.8854560256532105 0 0.46472317204376745
    outer loop
      vertex 37.005957007315594 1 17.347509367036817
      vertex 36.11623273029579 3 19.04273734284977
      vertex 36.11623273029579 1 19.04273734284977
    endloop
  endfacet
  facet normal 0.8854560256532105 0 0.46472317204376745
    outer loop
      vertex 37.005957007315594 1 17.347509367036817
      vertex 37.005957007315594 3 17.347509367036817
      vertex 36.11623273029579 3 19.04273734284977
    endloop
  endfacet
  facet normal 1 0 0
    outer loop
      vertex 36.11623273029579 1 19.04273734284977
      vertex 36.11623273029579 3 19.04273734284977
      vertex 36.11623273029579 3 20.95726265715023
    endloop
  endfacet
  facet normal 0.5680647467311549 0 0.822983865893657
    outer loop
      vertex 37.005957007315594 1 17.347509367036817
      vertex 38.58158045182986 1 16.25993502925834
      vertex 38.58158045182986 3 16.25993502925834
    endloop
  endfacet
  facet normal 0.5680647467311549 0 0.822983865893657
    outer loop
      vertex 37.005957007315594 1 17.347509367036817
      vertex 38.58158045182986 3 16.25993502925834
      vertex 37.005957007315594 3 17.347509367036817
    endloop
  endfacet
  facet normal 0 1 0
    outer loop
      vertex 37.005957007315594 1 17.347509367036817
      vertex 42.272258986924626 1 16.708064536425375
      vertex 38.58158045182986 1 16.25993502925834
    endloop
  endfacet
  facet normal 0 1 0
    outer loop
      vertex 38.58158045182986 1 16.25993502925834
      vertex 42.272258986924626 1 16.708064536425375
      vertex 40.482146721021294 1 16.029164503607785
    endloop
  endfacet
  facet normal 0.12053668025532241 0 0.9927088740980541
    outer loop
      vertex 38.58158045182986 1 16.25993502925834
      vertex 40.482146721021294 3 16.029164503607785
      vertex 38.58158045182986 3 16.25993502925834
    endloop
  endfacet
  facet normal 0.12053668025532241 0 0.9927088740980541
    outer loop
      vertex 38.58158045182986 1 16.25993502925834
      vertex 40.482146721021294 1 16.029164503607785
      vertex 40.482146721021294 3 16.029164503607785
    endloop
  endfacet
  facet normal 0 1 0
    outer loop
      vertex 37.005957007315594 1 17.347509367036817
      vertex 37.75 1 20
      vertex 38.40900974233027 1 18.40900974233027
    endloop
  endfacet
  facet normal 0 1 0
    outer loop
      vertex 37.005957007315594 1 17.347509367036817
      vertex 38.40900974233027 1 18.40900974233027
      vertex 40 1 17.75
    endloop
  endfacet
  facet normal 0 1 0
    outer loop
      vertex 37.005957007315594 1 17.347509367036817
      vertex 40 1 17.75
      vertex 43.54182410261284 1 18.141107311824925
    endloop
  endfacet
  facet normal 0 1 0
    outer loop
      vertex 37.005957007315594 1 17.347509367036817
      vertex 43.54182410261284 1 18.141107311824925
      vertex 42.272258986924626 1 16.708064536425375
    endloop
  endfacet
  facet normal -0.3546048870425357 0 0.9350162426854148
    outer loop
      vertex 40.482146721021294 1 16.029164503607785
      vertex 42.272258986924626 3 16.708064536425375
      vertex 40.482146721021294 3 16.029164503607785
    endloop
  endfacet
  facet normal -0.3546048870425357 0 0.9350162426854148
    outer loop
      vertex 40.482146721021294 1 16.029164503607785
      vertex 42.272258986924626 1 16.708064536425375
      vertex 42.272258986924626 3 16.708064536425375
    endloop
  endfacet
  facet normal -0.7485107481711006 0 0.6631226582407957
    outer loop
      vertex 42.272258986924626 1 16.708064536425375
      vertex 43.54182410261284 1 18.141107311824925
      vertex 42.272258986924626 3 16.708064536425375
    endloop
  endfacet
  facet normal 0 1 0
    outer loop
      vertex 40 1 17.75
      vertex 41.59099025766973 1 18.40900974233027
      vertex 43.54182410261284 1 18.141107311824925
    endloop
  endfacet
  facet normal 0 1 0
    outer loop
      vertex 41.59099025766973 1 18.40900974233027
      vertex 42.25 1 20
      vertex 44 1 20
    endloop
  endfacet
  facet normal 0 1 0
    outer loop
      vertex 41.59099025766973 1 18.40900974233027
      vertex 44 1 20
      vertex 43.54182410261284 1 18.141107311824925
    endloop
  endfacet
  facet normal -0.7485107481711006 0 0.6631226582407957
    outer loop
      vertex 43.54182410261284 1 18.141107311824925
      vertex 43.54182410261284 3 18.141107311824925
      vertex 42.272258986924626 3 16.708064536425375
    endloop
  endfacet
  facet normal -0.9709418174260525 0 0.23931566428755607
    outer loop
      vertex 43.54182410261284 1 18.141107311824925
      vertex 44 1 20
      vertex 43.54182410261284 3 18.141107311824925
    endloop
  endfacet
  facet normal -0.9709418174260525 0 0.23931566428755607
    outer loop
      vertex 44 1 20
      vertex 44 3 20
      vertex 43.54182410261284 3 18.141107311824925
    endloop
  endfacet
  facet normal 0 1 0
    outer loop
      vertex 36.11623273029579 1 19.04273734284977
      vertex 36.11623273029579 1 20.95726265715023
      vertex 37.75 1 20
    endloop
  endfacet
  facet normal 0 1 0
    outer loop
      vertex 37.75 1 20
      vertex 36.11623273029579 1 20.95726265715023
      vertex 38.40900974233027 1 21.59099025766973
    endloop
  endfacet
  facet normal 0 1 0
    outer loop
      vertex 36.11623273029579 1 20.95726265715023
      vertex 37.005957007315594 1 22.652490632963183
      vertex 38.40900974233027 1 21.59099025766973
    endloop
  endfacet
  facet normal 1 0 0
    outer loop
      vertex 36.11623273029579 1 19.04273734284977
      vertex 36.11623273029579 3 20.95726265715023
      vertex 36.11623273029579 1 20.95726265715023
    endloop
  endfacet
  facet normal 0.8854560256532105 0 -0.46472317204376745
    outer loop
      vertex 36.11623273029579 1 20.95726265715023
      vertex 37.005957007315594 3 22.652490632963183
      vertex 37.005957007315594 1 22.652490632963183
    endloop
  endfacet
  facet normal 0.8854560256532105 0 -0.46472317204376745
    outer loop
      vertex 36.11623273029579 1 20.95726265715023
      vertex 36.11623273029579 3 20.95726265715023
      vertex 37.005957007315594 3 22.652490632963183
    endloop
  endfacet
  facet normal 0 1 0
    outer loop
      vertex 38.40900974233027 1 21.59099025766973
      vertex 37.005957007315594 1 22.652490632963183
      vertex 40 1 22.25
    endloop
  endfacet
  facet normal 0 1 0
    outer loop
      vertex 37.005957007315594 1 22.652490632963183
      vertex 43.54182410261284 1 21.858892688175075
      vertex 40 1 22.25
    endloop
  endfacet
  facet normal 0.5680647467311549 0 -0.822983865893657
    outer loop
      vertex 37.005957007315594 1 22.652490632963183
      vertex 37.005957007315594 3 22.652490632963183
      vertex 38.58158045182986 1 23.74006497074166
    endloop
  endfacet
  facet normal 0.5680647467311549 0 -0.822983865893657
    outer loop
      vertex 38.58158045182986 1 23.74006497074166
      vertex 37.005957007315594 3 22.652490632963183
      vertex 38.58158045182986 3 23.74006497074166
    endloop
  endfacet
  facet normal 0 1 0
    outer loop
      vertex 37.005957007315594 1 22.652490632963183
      vertex 38.58158045182986 1 23.74006497074166
      vertex 42.272258986924626 1 23.291935463574625
    endloop
  endfacet
  facet normal 0 1 0
    outer loop
      vertex 38.58158045182986 1 23.74006497074166
      vertex 40.482146721021294 1 23.970835496392215
      vertex 42.272258986924626 1 23.291935463574625
    endloop
  endfacet
  facet normal 0.12053668025532241 0 -0.9927088740980541
    outer loop
      vertex 38.58158045182986 1 23.74006497074166
      vertex 38.58158045182986 3 23.74006497074166
      vertex 40.482146721021294 1 23.970835496392215
    endloop
  endfacet
  facet normal 0.12053668025532241 0 -0.9927088740980541
    outer loop
      vertex 40.482146721021294 1 23.970835496392215
      vertex 38.58158045182986 3 23.74006497074166
      vertex 40.482146721021294 3 23.970835496392215
    endloop
  endfacet
  facet normal 0 1 0
    outer loop
      vertex 40 1 22.25
      vertex 43.54182410261284 1 21.858892688175075
      vertex 41.59099025766973 1 21.59099025766973
    endloop
  endfacet
  facet normal 0 1 0
    outer loop
      vertex 42.25 1 20
      vertex 41.59099025766973 1 21.59099025766973
      vertex 43.54182410261284 1 21.858892688175075
    endloop
  endfacet
  facet normal 0 1 0
    outer loop
      vertex 42.25 1 20
      vertex 43.54182410261284 1 21.858892688175075
      vertex 44 1 20
    endloop
  endfacet
  facet normal -0.9709418174260525 0 -0.23931566428755607
    outer loop
      vertex 43.54182410261284 1 21.858892688175075
      vertex 43.54182410261284 3 21.858892688175075
      vertex 44 3 20
    endloop
  endfacet
  facet normal -0.7485107481711006 0 -0.6631226582407957
    outer loop
      vertex 43.54182410261284 1 21.858892688175075
      vertex 42.272258986924626 1 23.291935463574625
      vertex 43.54182410261284 3 21.858892688175075
    endloop
  endfacet
  facet normal 0 1 0
    outer loop
      vertex 37.005957007315594 1 22.652490632963183
      vertex 42.272258986924626 1 23.291935463574625
      vertex 43.54182410261284 1 21.858892688175075
    endloop
  endfacet
  facet normal -0.3546048870425357 0 -0.9350162426854148
    outer loop
      vertex 40.482146721021294 1 23.970835496392215
      vertex 40.482146721021294 3 23.970835496392215
      vertex 42.272258986924626 1 23.291935463574625
    endloop
  endfacet
  facet normal -0.3546048870425357 0 -0.9350162426854148
    outer loop
      vertex 42.272258986924626 1 23.291935463574625
      vertex 40.482146721021294 3 23.970835496392215
      vertex 42.272258986924626 3 23.291935463574625
    endloop
  endfacet
  facet normal -0.7485107481711006 0 -0.6631226582407957
    outer loop
      vertex 42.272258986924626 1 23.291935463574625
      vertex 42.272258986924626 3 23.291935463574625
      vertex 43.54182410261284 3 21.858892688175075
    endloop
  endfacet
  facet normal -0.9709418174260525 0 -0.23931566428755607
    outer loop
      vertex 44 1 20
      vertex 43.54182410261284 1 21.858892688175075
      vertex 44 3 20
    endloop
  endfacet
endsolid OpenSCAD_Model
