solid OpenSCAD_Model
  facet normal 0 0 1
    outer loop
      vertex -14.725 5.05 1.875
      vertex 14.725 -5.05 1.875
      vertex 14.725 5.05 1.875
    endloop
  endfacet
  facet normal 0 0 1
    outer loop
      vertex 14.725 -5.05 1.875
      vertex -14.725 5.05 1.875
      vertex -14.725 -5.05 1.875
    endloop
  endfacet
  facet normal 0 0 -1
    outer loop
      vertex -14.725 -5.05 -1.875
      vertex 14.725 5.05 -1.875
      vertex 14.725 -5.05 -1.875
    endloop
  endfacet
  facet normal 0 0 -1
    outer loop
      vertex 14.725 5.05 -1.875
      vertex -14.725 -5.05 -1.875
      vertex -14.725 5.05 -1.875
    endloop
  endfacet
  facet normal 0 -1 0
    outer loop
      vertex -14.725 -5.05 -1.875
      vertex 14.725 -5.05 1.875
      vertex -14.725 -5.05 1.875
    endloop
  endfacet
  facet normal 0 -1 0
    outer loop
      vertex 14.725 -5.05 1.875
      vertex -14.725 -5.05 -1.875
      vertex 14.725 -5.05 -1.875
    endloop
  endfacet
  facet normal 1 0 0
    outer loop
      vertex 14.725 -5.05 1.875
      vertex 14.725 5.05 -1.875
      vertex 14.725 5.05 1.875
    endloop
  endfacet
  facet normal 1 0 0
    outer loop
      vertex 14.725 5.05 -1.875
      vertex 14.725 -5.05 1.875
      vertex 14.725 -5.05 -1.875
    endloop
  endfacet
  facet normal 0 1 0
    outer loop
      vertex 14.725 5.05 -1.875
      vertex -14.725 5.05 1.875
      vertex 14.725 5.05 1.875
    endloop
  endfacet
  facet normal 0 1 0
    outer loop
      vertex -14.725 5.05 1.875
      vertex 14.725 5.05 -1.875
      vertex -14.725 5.05 -1.875
    endloop
  endfacet
  facet normal -1 0 0
    outer loop
      vertex -14.725 -5.05 -1.875
      vertex -14.725 5.05 1.875
      vertex -14.725 5.05 -1.875
    endloop
  endfacet
  facet normal -1 0 0
    outer loop
      vertex -14.725 5.05 1.875
      vertex -14.725 -5.05 -1.875
      vertex -14.725 -5.05 1.875
    endloop
  endfacet
endsolid OpenSCAD_Model
