solid OpenSCAD_Model
  facet normal 0 -1 0
    outer loop
      vertex -14.75 -6.5 -5.550000000000001
      vertex -10.940456403667957 -6.5 -1.294427190999916
      vertex -11.294427190999915 -6.5 -0.940456403667957
    endloop
  endfacet
  facet normal 0 -1 0
    outer loop
      vertex -14.75 -6.5 -5.550000000000001
      vertex -10.494427190999916 -6.5 -1.5216904260722457
      vertex -10.940456403667957 -6.5 -1.294427190999916
    endloop
  endfacet
  facet normal 0 -1 0
    outer loop
      vertex -14.75 -6.5 -5.550000000000001
      vertex -10 -6.5 -1.6
      vertex -10.494427190999916 -6.5 -1.5216904260722457
    endloop
  endfacet
  facet normal 0 -1 0
    outer loop
      vertex -14.75 -6.5 -5.550000000000001
      vertex -11.294427190999915 -6.5 -0.940456403667957
      vertex -11.521690426072245 -6.5 -0.49442719099991583
    endloop
  endfacet
  facet normal 0 -1 0
    outer loop
      vertex -14.75 -6.5 -5.550000000000001
      vertex -9.505572809000084 -6.5 -1.5216904260722457
      vertex -10 -6.5 -1.6
    endloop
  endfacet
  facet normal 0 -1 0
    outer loop
      vertex -14.75 -6.5 -5.550000000000001
      vertex -11.521690426072245 -6.5 -0.49442719099991583
      vertex -14.75 -6.5 6.75
    endloop
  endfacet
  facet normal 0 -1 0
    outer loop
      vertex -14.75 -6.5 6.75
      vertex -11.521690426072245 -6.5 -0.49442719099991583
      vertex -11.6 -6.5 0
    endloop
  endfacet
  facet normal 0 -1 0
    outer loop
      vertex -14.75 -6.5 6.75
      vertex -11.6 -6.5 0
      vertex -11.521690426072245 -6.5 0.49442719099991583
    endloop
  endfacet
  facet normal 0 -1 0
    outer loop
      vertex -14.75 -6.5 6.75
      vertex -11.521690426072245 -6.5 0.49442719099991583
      vertex -11.294427190999915 -6.5 0.940456403667957
    endloop
  endfacet
  facet normal 0 -1 0
    outer loop
      vertex -14.75 -6.5 6.75
      vertex -11.294427190999915 -6.5 0.940456403667957
      vertex -10.940456403667957 -6.5 1.294427190999916
    endloop
  endfacet
  facet normal 0 -1 0
    outer loop
      vertex -14.75 -6.5 6.75
      vertex -10.940456403667957 -6.5 1.294427190999916
      vertex -10.494427190999916 -6.5 1.5216904260722457
    endloop
  endfacet
  facet normal 0 -1 0
    outer loop
      vertex -14.75 -6.5 -5.550000000000001
      vertex 14.75 -6.5 6.75
      vertex -9.505572809000084 -6.5 -1.5216904260722457
    endloop
  endfacet
  facet normal 0 -1 0
    outer loop
      vertex 14.75 -6.5 6.75
      vertex -9.059543596332043 -6.5 -1.294427190999916
      vertex -9.505572809000084 -6.5 -1.5216904260722457
    endloop
  endfacet
  facet normal 0 -1 0
    outer loop
      vertex 14.75 -6.5 6.75
      vertex -8.705572809000085 -6.5 -0.940456403667957
      vertex -9.059543596332043 -6.5 -1.294427190999916
    endloop
  endfacet
  facet normal 0 -1 0
    outer loop
      vertex 14.75 -6.5 6.75
      vertex -8.478309573927755 -6.5 -0.49442719099991583
      vertex -8.705572809000085 -6.5 -0.940456403667957
    endloop
  endfacet
  facet normal 0 -1 0
    outer loop
      vertex 14.75 -6.5 6.75
      vertex -8.4 -6.5 0
      vertex -8.478309573927755 -6.5 -0.49442719099991583
    endloop
  endfacet
  facet normal 0 -1 0
    outer loop
      vertex 14.75 -6.5 6.75
      vertex -8.478309573927755 -6.5 0.49442719099991583
      vertex -8.4 -6.5 0
    endloop
  endfacet
  facet normal 0 -1 0
    outer loop
      vertex 14.75 -6.5 6.75
      vertex -8.705572809000085 -6.5 0.940456403667957
      vertex -8.478309573927755 -6.5 0.49442719099991583
    endloop
  endfacet
  facet normal 0 -1 0
    outer loop
      vertex 14.75 -6.5 6.75
      vertex -10.494427190999916 -6.5 1.5216904260722457
      vertex -10 -6.5 1.6
    endloop
  endfacet
  facet normal 0 -1 0
    outer loop
      vertex 14.75 -6.5 6.75
      vertex -10 -6.5 1.6
      vertex -9.505572809000084 -6.5 1.5216904260722457
    endloop
  endfacet
  facet normal 0 -1 0
    outer loop
      vertex 14.75 -6.5 6.75
      vertex -9.505572809000084 -6.5 1.5216904260722457
      vertex -9.059543596332043 -6.5 1.294427190999916
    endloop
  endfacet
  facet normal 0 -1 0
    outer loop
      vertex 14.75 -6.5 6.75
      vertex -9.059543596332043 -6.5 1.294427190999916
      vertex -8.705572809000085 -6.5 0.940456403667957
    endloop
  endfacet
  facet normal 0 -1 0
    outer loop
      vertex -14.75 -6.5 6.75
      vertex -10.494427190999916 -6.5 1.5216904260722457
      vertex 14.75 -6.5 6.75
    endloop
  endfacet
  facet normal 0 0 1
    outer loop
      vertex -14.75 -6.5 6.75
      vertex 14.75 -6.5 6.75
      vertex -14.75 6.5 6.75
    endloop
  endfacet
  facet normal 0 1 0
    outer loop
      vertex -14.75 6.5 -5.550000000000001
      vertex -11.294427190999915 6.5 -0.940456403667957
      vertex -10.940456403667957 6.5 -1.294427190999916
    endloop
  endfacet
  facet normal 0 1 0
    outer loop
      vertex -14.75 6.5 -5.550000000000001
      vertex -10.940456403667957 6.5 -1.294427190999916
      vertex -10.494427190999916 6.5 -1.5216904260722457
    endloop
  endfacet
  facet normal 0 1 0
    outer loop
      vertex -14.75 6.5 -5.550000000000001
      vertex -11.521690426072245 6.5 -0.49442719099991583
      vertex -11.294427190999915 6.5 -0.940456403667957
    endloop
  endfacet
  facet normal 0 1 0
    outer loop
      vertex -14.75 6.5 -5.550000000000001
      vertex -11.6 6.5 0
      vertex -11.521690426072245 6.5 -0.49442719099991583
    endloop
  endfacet
  facet normal 0 1 0
    outer loop
      vertex -14.75 6.5 -5.550000000000001
      vertex -11.521690426072245 6.5 0.49442719099991583
      vertex -11.6 6.5 0
    endloop
  endfacet
  facet normal 0 1 0
    outer loop
      vertex -14.75 6.5 -5.550000000000001
      vertex -10.494427190999916 6.5 -1.5216904260722457
      vertex 14.75 6.5 -5.550000000000001
    endloop
  endfacet
  facet normal 0 1 0
    outer loop
      vertex 14.75 6.5 -5.550000000000001
      vertex -10.494427190999916 6.5 -1.5216904260722457
      vertex -10 6.5 -1.6
    endloop
  endfacet
  facet normal 0 1 0
    outer loop
      vertex 14.75 6.5 -5.550000000000001
      vertex -10 6.5 -1.6
      vertex -9.505572809000084 6.5 -1.5216904260722457
    endloop
  endfacet
  facet normal 0 1 0
    outer loop
      vertex 14.75 6.5 -5.550000000000001
      vertex -9.505572809000084 6.5 -1.5216904260722457
      vertex -9.059543596332043 6.5 -1.294427190999916
    endloop
  endfacet
  facet normal 0 1 0
    outer loop
      vertex 14.75 6.5 -5.550000000000001
      vertex -9.059543596332043 6.5 -1.294427190999916
      vertex -8.705572809000085 6.5 -0.940456403667957
    endloop
  endfacet
  facet normal 0 1 0
    outer loop
      vertex 14.75 6.5 -5.550000000000001
      vertex -8.705572809000085 6.5 -0.940456403667957
      vertex -8.478309573927755 6.5 -0.49442719099991583
    endloop
  endfacet
  facet normal 0 1 0
    outer loop
      vertex 14.75 6.5 -5.550000000000001
      vertex -8.478309573927755 6.5 -0.49442719099991583
      vertex -8.4 6.5 0
    endloop
  endfacet
  facet normal 0 1 0
    outer loop
      vertex 14.75 6.5 -5.550000000000001
      vertex -8.4 6.5 0
      vertex -8.478309573927755 6.5 0.49442719099991583
    endloop
  endfacet
  facet normal 0 1 0
    outer loop
      vertex 14.75 6.5 -5.550000000000001
      vertex -8.478309573927755 6.5 0.49442719099991583
      vertex -8.705572809000085 6.5 0.940456403667957
    endloop
  endfacet
  facet normal 0 1 0
    outer loop
      vertex 14.75 6.5 -5.550000000000001
      vertex -8.705572809000085 6.5 0.940456403667957
      vertex -9.059543596332043 6.5 1.294427190999916
    endloop
  endfacet
  facet normal 0 1 0
    outer loop
      vertex -14.75 6.5 -5.550000000000001
      vertex -14.75 6.5 6.75
      vertex -11.521690426072245 6.5 0.49442719099991583
    endloop
  endfacet
  facet normal 0 1 0
    outer loop
      vertex -14.75 6.5 6.75
      vertex -11.294427190999915 6.5 0.940456403667957
      vertex -11.521690426072245 6.5 0.49442719099991583
    endloop
  endfacet
  facet normal 0 1 0
    outer loop
      vertex -14.75 6.5 6.75
      vertex -10.940456403667957 6.5 1.294427190999916
      vertex -11.294427190999915 6.5 0.940456403667957
    endloop
  endfacet
  facet normal 0 1 0
    outer loop
      vertex -14.75 6.5 6.75
      vertex -10.494427190999916 6.5 1.5216904260722457
      vertex -10.940456403667957 6.5 1.294427190999916
    endloop
  endfacet
  facet normal 0 1 0
    outer loop
      vertex -14.75 6.5 6.75
      vertex -10 6.5 1.6
      vertex -10.494427190999916 6.5 1.5216904260722457
    endloop
  endfacet
  facet normal 0 1 0
    outer loop
      vertex -14.75 6.5 6.75
      vertex -9.505572809000084 6.5 1.5216904260722457
      vertex -10 6.5 1.6
    endloop
  endfacet
  facet normal 0 1 0
    outer loop
      vertex -14.75 6.5 6.75
      vertex 14.75 6.5 -5.550000000000001
      vertex -9.505572809000084 6.5 1.5216904260722457
    endloop
  endfacet
  facet normal 0 1 0
    outer loop
      vertex 14.75 6.5 -5.550000000000001
      vertex -9.059543596332043 6.5 1.294427190999916
      vertex -9.505572809000084 6.5 1.5216904260722457
    endloop
  endfacet
  facet normal 0 -1 0
    outer loop
      vertex -14.75 -6.5 -5.550000000000001
      vertex 14.75 -6.5 -5.550000000000001
      vertex 10 -6.5 -1.6
    endloop
  endfacet
  facet normal 0 -1 0
    outer loop
      vertex -14.75 -6.5 -5.550000000000001
      vertex 9.059543596332043 -6.5 -1.294427190999916
      vertex 8.705572809000085 -6.5 -0.940456403667957
    endloop
  endfacet
  facet normal 0 -1 0
    outer loop
      vertex -14.75 -6.5 -5.550000000000001
      vertex 8.705572809000085 -6.5 -0.940456403667957
      vertex 8.478309573927755 -6.5 -0.49442719099991583
    endloop
  endfacet
  facet normal 0 -1 0
    outer loop
      vertex -14.75 -6.5 -5.550000000000001
      vertex 8.478309573927755 -6.5 -0.49442719099991583
      vertex 8.4 -6.5 0
    endloop
  endfacet
  facet normal 0 -1 0
    outer loop
      vertex -14.75 -6.5 -5.550000000000001
      vertex 9.505572809000084 -6.5 -1.5216904260722457
      vertex 9.059543596332043 -6.5 -1.294427190999916
    endloop
  endfacet
  facet normal 0 -1 0
    outer loop
      vertex -14.75 -6.5 -5.550000000000001
      vertex 10 -6.5 -1.6
      vertex 9.505572809000084 -6.5 -1.5216904260722457
    endloop
  endfacet
  facet normal 0 -1 0
    outer loop
      vertex -14.75 -6.5 -5.550000000000001
      vertex 8.4 -6.5 0
      vertex 8.478309573927755 -6.5 0.49442719099991583
    endloop
  endfacet
  facet normal 0 -1 0
    outer loop
      vertex -14.75 -6.5 -5.550000000000001
      vertex 8.478309573927755 -6.5 0.49442719099991583
      vertex 8.705572809000085 -6.5 0.940456403667957
    endloop
  endfacet
  facet normal 0 -1 0
    outer loop
      vertex -14.75 -6.5 -5.550000000000001
      vertex 8.705572809000085 -6.5 0.940456403667957
      vertex 9.059543596332043 -6.5 1.294427190999916
    endloop
  endfacet
  facet normal 0 -1 0
    outer loop
      vertex 14.75 -6.5 -5.550000000000001
      vertex 10.494427190999916 -6.5 -1.5216904260722457
      vertex 10 -6.5 -1.6
    endloop
  endfacet
  facet normal 0 -1 0
    outer loop
      vertex 14.75 -6.5 -5.550000000000001
      vertex 10.940456403667957 -6.5 -1.294427190999916
      vertex 10.494427190999916 -6.5 -1.5216904260722457
    endloop
  endfacet
  facet normal 0 -1 0
    outer loop
      vertex 14.75 -6.5 -5.550000000000001
      vertex 11.294427190999915 -6.5 -0.940456403667957
      vertex 10.940456403667957 -6.5 -1.294427190999916
    endloop
  endfacet
  facet normal 0 -1 0
    outer loop
      vertex 14.75 -6.5 -5.550000000000001
      vertex 11.521690426072245 -6.5 -0.49442719099991583
      vertex 11.294427190999915 -6.5 -0.940456403667957
    endloop
  endfacet
  facet normal 0 -1 0
    outer loop
      vertex -14.75 -6.5 -5.550000000000001
      vertex 9.059543596332043 -6.5 1.294427190999916
      vertex 9.505572809000084 -6.5 1.5216904260722457
    endloop
  endfacet
  facet normal 0 -1 0
    outer loop
      vertex -14.75 -6.5 -5.550000000000001
      vertex 9.505572809000084 -6.5 1.5216904260722457
      vertex 14.75 -6.5 6.75
    endloop
  endfacet
  facet normal 0 -1 0
    outer loop
      vertex 14.75 -6.5 -5.550000000000001
      vertex 14.75 -6.5 6.75
      vertex 11.521690426072245 -6.5 -0.49442719099991583
    endloop
  endfacet
  facet normal 0 -1 0
    outer loop
      vertex 14.75 -6.5 6.75
      vertex 11.6 -6.5 0
      vertex 11.521690426072245 -6.5 -0.49442719099991583
    endloop
  endfacet
  facet normal 0 -1 0
    outer loop
      vertex 14.75 -6.5 6.75
      vertex 11.521690426072245 -6.5 0.49442719099991583
      vertex 11.6 -6.5 0
    endloop
  endfacet
  facet normal 0 -1 0
    outer loop
      vertex 14.75 -6.5 6.75
      vertex 11.294427190999915 -6.5 0.940456403667957
      vertex 11.521690426072245 -6.5 0.49442719099991583
    endloop
  endfacet
  facet normal 0 -1 0
    outer loop
      vertex 14.75 -6.5 6.75
      vertex 9.505572809000084 -6.5 1.5216904260722457
      vertex 10 -6.5 1.6
    endloop
  endfacet
  facet normal 0 -1 0
    outer loop
      vertex 14.75 -6.5 6.75
      vertex 10 -6.5 1.6
      vertex 10.494427190999916 -6.5 1.5216904260722457
    endloop
  endfacet
  facet normal 0 -1 0
    outer loop
      vertex 14.75 -6.5 6.75
      vertex 10.494427190999916 -6.5 1.5216904260722457
      vertex 10.940456403667957 -6.5 1.294427190999916
    endloop
  endfacet
  facet normal 0 -1 0
    outer loop
      vertex 14.75 -6.5 6.75
      vertex 10.940456403667957 -6.5 1.294427190999916
      vertex 11.294427190999915 -6.5 0.940456403667957
    endloop
  endfacet
  facet normal 0 1 0
    outer loop
      vertex 14.75 6.5 -5.550000000000001
      vertex 9.505572809000084 6.5 -1.5216904260722457
      vertex 10 6.5 -1.6
    endloop
  endfacet
  facet normal 0 1 0
    outer loop
      vertex 14.75 6.5 -5.550000000000001
      vertex 10 6.5 -1.6
      vertex 10.494427190999916 6.5 -1.5216904260722457
    endloop
  endfacet
  facet normal 0 1 0
    outer loop
      vertex 14.75 6.5 -5.550000000000001
      vertex 10.494427190999916 6.5 -1.5216904260722457
      vertex 10.940456403667957 6.5 -1.294427190999916
    endloop
  endfacet
  facet normal 0 1 0
    outer loop
      vertex 14.75 6.5 -5.550000000000001
      vertex 10.940456403667957 6.5 -1.294427190999916
      vertex 11.294427190999915 6.5 -0.940456403667957
    endloop
  endfacet
  facet normal 0 1 0
    outer loop
      vertex 14.75 6.5 -5.550000000000001
      vertex 11.294427190999915 6.5 -0.940456403667957
      vertex 11.521690426072245 6.5 -0.49442719099991583
    endloop
  endfacet
  facet normal 0 1 0
    outer loop
      vertex 14.75 6.5 -5.550000000000001
      vertex 11.521690426072245 6.5 -0.49442719099991583
      vertex 11.6 6.5 0
    endloop
  endfacet
  facet normal 0 1 0
    outer loop
      vertex 14.75 6.5 -5.550000000000001
      vertex 11.6 6.5 0
      vertex 11.521690426072245 6.5 0.49442719099991583
    endloop
  endfacet
  facet normal 0 1 0
    outer loop
      vertex 14.75 6.5 -5.550000000000001
      vertex 11.521690426072245 6.5 0.49442719099991583
      vertex 11.294427190999915 6.5 0.940456403667957
    endloop
  endfacet
  facet normal 0 0 1
    outer loop
      vertex -14.75 6.5 6.75
      vertex 14.75 -6.5 6.75
      vertex 14.75 6.5 6.75
    endloop
  endfacet
  facet normal 0 1 0
    outer loop
      vertex -14.75 6.5 6.75
      vertex 9.505572809000084 6.5 -1.5216904260722457
      vertex 14.75 6.5 -5.550000000000001
    endloop
  endfacet
  facet normal 0 1 0
    outer loop
      vertex -14.75 6.5 6.75
      vertex 8.705572809000085 6.5 -0.940456403667957
      vertex 9.059543596332043 6.5 -1.294427190999916
    endloop
  endfacet
  facet normal 0 1 0
    outer loop
      vertex -14.75 6.5 6.75
      vertex 8.478309573927755 6.5 -0.49442719099991583
      vertex 8.705572809000085 6.5 -0.940456403667957
    endloop
  endfacet
  facet normal 0 1 0
    outer loop
      vertex -14.75 6.5 6.75
      vertex 9.059543596332043 6.5 -1.294427190999916
      vertex 9.505572809000084 6.5 -1.5216904260722457
    endloop
  endfacet
  facet normal 0 1 0
    outer loop
      vertex -14.75 6.5 6.75
      vertex 8.4 6.5 0
      vertex 8.478309573927755 6.5 -0.49442719099991583
    endloop
  endfacet
  facet normal 0 1 0
    outer loop
      vertex -14.75 6.5 6.75
      vertex 8.478309573927755 6.5 0.49442719099991583
      vertex 8.4 6.5 0
    endloop
  endfacet
  facet normal 0 1 0
    outer loop
      vertex -14.75 6.5 6.75
      vertex 8.705572809000085 6.5 0.940456403667957
      vertex 8.478309573927755 6.5 0.49442719099991583
    endloop
  endfacet
  facet normal 0 1 0
    outer loop
      vertex -14.75 6.5 6.75
      vertex 9.059543596332043 6.5 1.294427190999916
      vertex 8.705572809000085 6.5 0.940456403667957
    endloop
  endfacet
  facet normal 0 1 0
    outer loop
      vertex -14.75 6.5 6.75
      vertex 9.505572809000084 6.5 1.5216904260722457
      vertex 9.059543596332043 6.5 1.294427190999916
    endloop
  endfacet
  facet normal 0 1 0
    outer loop
      vertex -14.75 6.5 6.75
      vertex 10 6.5 1.6
      vertex 9.505572809000084 6.5 1.5216904260722457
    endloop
  endfacet
  facet normal 0 1 0
    outer loop
      vertex -14.75 6.5 6.75
      vertex 14.75 6.5 6.75
      vertex 10 6.5 1.6
    endloop
  endfacet
  facet normal 0 1 0
    outer loop
      vertex 14.75 6.5 -5.550000000000001
      vertex 11.294427190999915 6.5 0.940456403667957
      vertex 14.75 6.5 6.75
    endloop
  endfacet
  facet normal 0 1 0
    outer loop
      vertex 14.75 6.5 6.75
      vertex 10.494427190999916 6.5 1.5216904260722457
      vertex 10 6.5 1.6
    endloop
  endfacet
  facet normal 0 1 0
    outer loop
      vertex 14.75 6.5 6.75
      vertex 10.940456403667957 6.5 1.294427190999916
      vertex 10.494427190999916 6.5 1.5216904260722457
    endloop
  endfacet
  facet normal 0 1 0
    outer loop
      vertex 14.75 6.5 6.75
      vertex 11.294427190999915 6.5 0.940456403667957
      vertex 10.940456403667957 6.5 1.294427190999916
    endloop
  endfacet
  facet normal 0 -1 0
    outer loop
      vertex -18.5 -6.5 -5.550000000000001
      vertex -14.75 -6.5 -5.550000000000001
      vertex -14.75 -6.5 6.75
    endloop
  endfacet
  facet normal 0 -1 0
    outer loop
      vertex -18.5 -6.5 -5.550000000000001
      vertex -14.75 -6.5 6.75
      vertex -18.5 -6.5 6.75
    endloop
  endfacet
  facet normal -1 0 0
    outer loop
      vertex -18.5 -6.5 -5.550000000000001
      vertex -18.5 -6.5 6.75
      vertex -18.5 6.5 6.75
    endloop
  endfacet
  facet normal 0 0 1
    outer loop
      vertex -18.5 -6.5 6.75
      vertex -14.75 -6.5 6.75
      vertex -18.5 6.5 6.75
    endloop
  endfacet
  facet normal -1 0 0
    outer loop
      vertex -18.5 -6.5 -5.550000000000001
      vertex -18.5 6.5 6.75
      vertex -18.5 6.5 -5.550000000000001
    endloop
  endfacet
  facet normal 0 1 0
    outer loop
      vertex -18.5 6.5 -5.550000000000001
      vertex -18.5 6.5 6.75
      vertex -14.75 6.5 -5.550000000000001
    endloop
  endfacet
  facet normal 0 0 1
    outer loop
      vertex -14.75 -6.5 6.75
      vertex -14.75 6.5 6.75
      vertex -18.5 6.5 6.75
    endloop
  endfacet
  facet normal 0 1 0
    outer loop
      vertex -14.75 6.5 -5.550000000000001
      vertex -18.5 6.5 6.75
      vertex -14.75 6.5 6.75
    endloop
  endfacet
  facet normal 0 -1 0
    outer loop
      vertex 14.75 -6.5 -5.550000000000001
      vertex 18.5 -6.5 -5.550000000000001
      vertex 18.5 -6.5 6.75
    endloop
  endfacet
  facet normal 1 0 0
    outer loop
      vertex 18.5 -6.5 -5.550000000000001
      vertex 18.5 6.5 -5.550000000000001
      vertex 18.5 -6.5 6.75
    endloop
  endfacet
  facet normal 0 -1 0
    outer loop
      vertex 14.75 -6.5 -5.550000000000001
      vertex 18.5 -6.5 6.75
      vertex 14.75 -6.5 6.75
    endloop
  endfacet
  facet normal 0 0 1
    outer loop
      vertex 14.75 -6.5 6.75
      vertex 18.5 -6.5 6.75
      vertex 14.75 6.5 6.75
    endloop
  endfacet
  facet normal 0 1 0
    outer loop
      vertex 14.75 6.5 -5.550000000000001
      vertex 14.75 6.5 6.75
      vertex 18.5 6.5 -5.550000000000001
    endloop
  endfacet
  facet normal 1 0 0
    outer loop
      vertex 18.5 -6.5 6.75
      vertex 18.5 6.5 -5.550000000000001
      vertex 18.5 6.5 6.75
    endloop
  endfacet
  facet normal 0 0 1
    outer loop
      vertex 18.5 -6.5 6.75
      vertex 18.5 6.5 6.75
      vertex 14.75 6.5 6.75
    endloop
  endfacet
  facet normal 0 1 0
    outer loop
      vertex 18.5 6.5 -5.550000000000001
      vertex 14.75 6.5 6.75
      vertex 18.5 6.5 6.75
    endloop
  endfacet
  facet normal 0 -1 0
    outer loop
      vertex -18.5 -6.5 -6.75
      vertex -14.75 -6.5 -5.550000000000001
      vertex -18.5 -6.5 -5.550000000000001
    endloop
  endfacet
  facet normal 0 0 -1
    outer loop
      vertex -18.5 -6.5 -6.75
      vertex -5.05 -4.5 -6.75
      vertex -5.05 -6.5 -6.75
    endloop
  endfacet
  facet normal -1 0 0
    outer loop
      vertex -18.5 -6.5 -6.75
      vertex -18.5 -6.5 -5.550000000000001
      vertex -18.5 6.5 -5.550000000000001
    endloop
  endfacet
  facet normal 0 -1 0
    outer loop
      vertex -18.5 -6.5 -6.75
      vertex 14.75 -6.5 -5.550000000000001
      vertex -14.75 -6.5 -5.550000000000001
    endloop
  endfacet
  facet normal 0 -1 0
    outer loop
      vertex -18.5 -6.5 -6.75
      vertex -5.05 -6.5 -6.75
      vertex 18.5 -6.5 -5.550000000000001
    endloop
  endfacet
  facet normal 0 0 -1
    outer loop
      vertex -18.5 -6.5 -6.75
      vertex 18.5 6.5 -6.75
      vertex -5.05 -4.5 -6.75
    endloop
  endfacet
  facet normal -1 0 0
    outer loop
      vertex -18.5 -6.5 -6.75
      vertex -18.5 6.5 -5.550000000000001
      vertex -18.5 6.5 -6.75
    endloop
  endfacet
  facet normal 0 0 -1
    outer loop
      vertex -18.5 -6.5 -6.75
      vertex -18.5 6.5 -6.75
      vertex 18.5 6.5 -6.75
    endloop
  endfacet
  facet normal 0 1 0
    outer loop
      vertex -18.5 6.5 -6.75
      vertex -18.5 6.5 -5.550000000000001
      vertex 18.5 6.5 -6.75
    endloop
  endfacet
  facet normal 0 1 0
    outer loop
      vertex -18.5 6.5 -5.550000000000001
      vertex -14.75 6.5 -5.550000000000001
      vertex 18.5 6.5 -6.75
    endloop
  endfacet
  facet normal 0 -1 0
    outer loop
      vertex -18.5 -6.5 -6.75
      vertex 18.5 -6.5 -5.550000000000001
      vertex 14.75 -6.5 -5.550000000000001
    endloop
  endfacet
  facet normal 0 -1 0
    outer loop
      vertex -5.05 -6.5 -6.75
      vertex 5.05 -6.5 -6.75
      vertex 18.5 -6.5 -5.550000000000001
    endloop
  endfacet
  facet normal 0 0 -1
    outer loop
      vertex 5.05 -6.5 -6.75
      vertex 5.05 -4.5 -6.75
      vertex 18.5 -6.5 -6.75
    endloop
  endfacet
  facet normal 0 -1 0
    outer loop
      vertex 5.05 -6.5 -6.75
      vertex 18.5 -6.5 -6.75
      vertex 18.5 -6.5 -5.550000000000001
    endloop
  endfacet
  facet normal 0 0 -1
    outer loop
      vertex 5.05 -4.5 -6.75
      vertex 18.5 6.5 -6.75
      vertex 18.5 -6.5 -6.75
    endloop
  endfacet
  facet normal 1 0 0
    outer loop
      vertex 18.5 -6.5 -6.75
      vertex 18.5 6.5 -6.75
      vertex 18.5 -6.5 -5.550000000000001
    endloop
  endfacet
  facet normal 0 0 -1
    outer loop
      vertex -5.05 -4.5 -6.75
      vertex 18.5 6.5 -6.75
      vertex 5.05 -4.5 -6.75
    endloop
  endfacet
  facet normal 0 1 0
    outer loop
      vertex -14.75 6.5 -5.550000000000001
      vertex 14.75 6.5 -5.550000000000001
      vertex 18.5 6.5 -6.75
    endloop
  endfacet
  facet normal 1 0 0
    outer loop
      vertex 18.5 -6.5 -5.550000000000001
      vertex 18.5 6.5 -6.75
      vertex 18.5 6.5 -5.550000000000001
    endloop
  endfacet
  facet normal 0 1 0
    outer loop
      vertex 14.75 6.5 -5.550000000000001
      vertex 18.5 6.5 -5.550000000000001
      vertex 18.5 6.5 -6.75
    endloop
  endfacet
  facet normal -1 0 0
    outer loop
      vertex -5.05 -8.5 -8.75
      vertex -5.05 -8.5 -6.75
      vertex -5.05 -6.5 -6.75
    endloop
  endfacet
  facet normal -1 0 0
    outer loop
      vertex -5.05 -8.5 -8.75
      vertex -5.05 -4.5 -6.75
      vertex -5.05 -4.5 -8.75
    endloop
  endfacet
  facet normal -1 0 0
    outer loop
      vertex -5.05 -8.5 -8.75
      vertex -5.05 -6.5 -6.75
      vertex -5.05 -4.5 -6.75
    endloop
  endfacet
  facet normal 0 -1 0
    outer loop
      vertex -5.05 -8.5 -8.75
      vertex 5.05 -8.5 -6.75
      vertex -5.05 -8.5 -6.75
    endloop
  endfacet
  facet normal 0 0 1
    outer loop
      vertex -5.05 -8.5 -6.75
      vertex 5.05 -8.5 -6.75
      vertex -5.05 -6.5 -6.75
    endloop
  endfacet
  facet normal 0 0 -1
    outer loop
      vertex -5.05 -8.5 -8.75
      vertex -5.05 -4.5 -8.75
      vertex 5.05 -4.5 -8.75
    endloop
  endfacet
  facet normal 0 1 0
    outer loop
      vertex -5.05 -4.5 -8.75
      vertex -5.05 -4.5 -6.75
      vertex 5.05 -4.5 -8.75
    endloop
  endfacet
  facet normal 0 -1 0
    outer loop
      vertex -5.05 -8.5 -8.75
      vertex 5.05 -8.5 -8.75
      vertex 5.05 -8.5 -6.75
    endloop
  endfacet
  facet normal 0 0 -1
    outer loop
      vertex -5.05 -8.5 -8.75
      vertex 5.05 -4.5 -8.75
      vertex 5.05 -8.5 -8.75
    endloop
  endfacet
  facet normal 0 0 1
    outer loop
      vertex -5.05 -6.5 -6.75
      vertex 5.05 -8.5 -6.75
      vertex 5.05 -6.5 -6.75
    endloop
  endfacet
  facet normal 1 0 0
    outer loop
      vertex 5.05 -8.5 -8.75
      vertex 5.05 -4.5 -8.75
      vertex 5.05 -8.5 -6.75
    endloop
  endfacet
  facet normal 1 0 0
    outer loop
      vertex 5.05 -8.5 -6.75
      vertex 5.05 -4.5 -8.75
      vertex 5.05 -6.5 -6.75
    endloop
  endfacet
  facet normal 1 0 0
    outer loop
      vertex 5.05 -6.5 -6.75
      vertex 5.05 -4.5 -8.75
      vertex 5.05 -4.5 -6.75
    endloop
  endfacet
  facet normal 0 1 0
    outer loop
      vertex -5.05 -4.5 -6.75
      vertex 5.05 -4.5 -6.75
      vertex 5.05 -4.5 -8.75
    endloop
  endfacet
  facet normal 0.7071067811865485 0 0.7071067811865467
    outer loop
      vertex 9.059543596332043 -6.5 -1.294427190999916
      vertex 9.059543596332043 6.5 -1.294427190999916
      vertex 8.705572809000085 -6.5 -0.940456403667957
    endloop
  endfacet
  facet normal 0.15643446504023095 0 0.9876883405951377
    outer loop
      vertex 9.505572809000084 -6.5 -1.5216904260722457
      vertex 10 -6.5 -1.6
      vertex 10 6.5 -1.6
    endloop
  endfacet
  facet normal -0.15643446504023095 0 0.9876883405951377
    outer loop
      vertex 10 -6.5 -1.6
      vertex 10.494427190999916 -6.5 -1.5216904260722457
      vertex 10.494427190999916 6.5 -1.5216904260722457
    endloop
  endfacet
  facet normal 0.4539904997395467 0 0.8910065241883679
    outer loop
      vertex 9.059543596332043 -6.5 -1.294427190999916
      vertex 9.505572809000084 -6.5 -1.5216904260722457
      vertex 9.505572809000084 6.5 -1.5216904260722457
    endloop
  endfacet
  facet normal -0.4539904997395467 0 0.8910065241883679
    outer loop
      vertex 10.494427190999916 -6.5 -1.5216904260722457
      vertex 10.940456403667957 -6.5 -1.294427190999916
      vertex 10.940456403667957 6.5 -1.294427190999916
    endloop
  endfacet
  facet normal -0.7071067811865485 0 0.7071067811865467
    outer loop
      vertex 11.294427190999915 -6.5 -0.940456403667957
      vertex 11.294427190999915 6.5 -0.940456403667957
      vertex 10.940456403667957 -6.5 -1.294427190999916
    endloop
  endfacet
  facet normal 0.8910065241883676 0 0.45399049973954747
    outer loop
      vertex 8.705572809000085 -6.5 -0.940456403667957
      vertex 8.705572809000085 6.5 -0.940456403667957
      vertex 8.478309573927755 -6.5 -0.49442719099991583
    endloop
  endfacet
  facet normal 0.9876883405951378 0 0.15643446504023067
    outer loop
      vertex 8.478309573927755 -6.5 -0.49442719099991583
      vertex 8.478309573927755 6.5 -0.49442719099991583
      vertex 8.4 -6.5 0
    endloop
  endfacet
  facet normal 0.9876883405951378 0 -0.15643446504023067
    outer loop
      vertex 8.4 -6.5 0
      vertex 8.4 6.5 0
      vertex 8.478309573927755 -6.5 0.49442719099991583
    endloop
  endfacet
  facet normal 0.8910065241883676 0 -0.45399049973954747
    outer loop
      vertex 8.478309573927755 -6.5 0.49442719099991583
      vertex 8.478309573927755 6.5 0.49442719099991583
      vertex 8.705572809000085 -6.5 0.940456403667957
    endloop
  endfacet
  facet normal 0.7071067811865485 0 -0.7071067811865467
    outer loop
      vertex 8.705572809000085 -6.5 0.940456403667957
      vertex 8.705572809000085 6.5 0.940456403667957
      vertex 9.059543596332043 -6.5 1.294427190999916
    endloop
  endfacet
  facet normal 0.4539904997395467 0 -0.8910065241883679
    outer loop
      vertex 9.059543596332043 -6.5 1.294427190999916
      vertex 9.059543596332043 6.5 1.294427190999916
      vertex 9.505572809000084 -6.5 1.5216904260722457
    endloop
  endfacet
  facet normal -0.8910065241883676 0 0.45399049973954747
    outer loop
      vertex 11.521690426072245 -6.5 -0.49442719099991583
      vertex 11.521690426072245 6.5 -0.49442719099991583
      vertex 11.294427190999915 -6.5 -0.940456403667957
    endloop
  endfacet
  facet normal -0.9876883405951378 0 -0.15643446504023067
    outer loop
      vertex 11.521690426072245 -6.5 0.49442719099991583
      vertex 11.521690426072245 6.5 0.49442719099991583
      vertex 11.6 -6.5 0
    endloop
  endfacet
  facet normal -0.8910065241883676 0 -0.45399049973954747
    outer loop
      vertex 11.294427190999915 -6.5 0.940456403667957
      vertex 11.294427190999915 6.5 0.940456403667957
      vertex 11.521690426072245 -6.5 0.49442719099991583
    endloop
  endfacet
  facet normal -0.9876883405951378 0 0.15643446504023067
    outer loop
      vertex 11.6 -6.5 0
      vertex 11.6 6.5 0
      vertex 11.521690426072245 -6.5 -0.49442719099991583
    endloop
  endfacet
  facet normal 0.15643446504023095 0 -0.9876883405951377
    outer loop
      vertex 10 -6.5 1.6
      vertex 9.505572809000084 -6.5 1.5216904260722457
      vertex 9.505572809000084 6.5 1.5216904260722457
    endloop
  endfacet
  facet normal -0.15643446504023095 0 -0.9876883405951377
    outer loop
      vertex 10.494427190999916 -6.5 1.5216904260722457
      vertex 10 -6.5 1.6
      vertex 10 6.5 1.6
    endloop
  endfacet
  facet normal -0.7071067811865485 0 -0.7071067811865467
    outer loop
      vertex 11.294427190999915 -6.5 0.940456403667957
      vertex 10.940456403667957 -6.5 1.294427190999916
      vertex 10.940456403667957 6.5 1.294427190999916
    endloop
  endfacet
  facet normal -0.4539904997395467 0 -0.8910065241883679
    outer loop
      vertex 10.940456403667957 -6.5 1.294427190999916
      vertex 10.494427190999916 -6.5 1.5216904260722457
      vertex 10.494427190999916 6.5 1.5216904260722457
    endloop
  endfacet
  facet normal 0.4539904997395467 0 0.8910065241883679
    outer loop
      vertex 9.059543596332043 -6.5 -1.294427190999916
      vertex 9.505572809000084 6.5 -1.5216904260722457
      vertex 9.059543596332043 6.5 -1.294427190999916
    endloop
  endfacet
  facet normal 0.7071067811865485 0 0.7071067811865467
    outer loop
      vertex 8.705572809000085 -6.5 -0.940456403667957
      vertex 9.059543596332043 6.5 -1.294427190999916
      vertex 8.705572809000085 6.5 -0.940456403667957
    endloop
  endfacet
  facet normal 0.15643446504023095 0 0.9876883405951377
    outer loop
      vertex 9.505572809000084 -6.5 -1.5216904260722457
      vertex 10 6.5 -1.6
      vertex 9.505572809000084 6.5 -1.5216904260722457
    endloop
  endfacet
  facet normal -0.15643446504023095 0 0.9876883405951377
    outer loop
      vertex 10 -6.5 -1.6
      vertex 10.494427190999916 6.5 -1.5216904260722457
      vertex 10 6.5 -1.6
    endloop
  endfacet
  facet normal -0.4539904997395467 0 0.8910065241883679
    outer loop
      vertex 10.494427190999916 -6.5 -1.5216904260722457
      vertex 10.940456403667957 6.5 -1.294427190999916
      vertex 10.494427190999916 6.5 -1.5216904260722457
    endloop
  endfacet
  facet normal -0.7071067811865485 0 0.7071067811865467
    outer loop
      vertex 10.940456403667957 -6.5 -1.294427190999916
      vertex 11.294427190999915 6.5 -0.940456403667957
      vertex 10.940456403667957 6.5 -1.294427190999916
    endloop
  endfacet
  facet normal 0.8910065241883676 0 0.45399049973954747
    outer loop
      vertex 8.478309573927755 -6.5 -0.49442719099991583
      vertex 8.705572809000085 6.5 -0.940456403667957
      vertex 8.478309573927755 6.5 -0.49442719099991583
    endloop
  endfacet
  facet normal 0.9876883405951378 0 0.15643446504023067
    outer loop
      vertex 8.4 -6.5 0
      vertex 8.478309573927755 6.5 -0.49442719099991583
      vertex 8.4 6.5 0
    endloop
  endfacet
  facet normal 0.9876883405951378 0 -0.15643446504023067
    outer loop
      vertex 8.478309573927755 -6.5 0.49442719099991583
      vertex 8.4 6.5 0
      vertex 8.478309573927755 6.5 0.49442719099991583
    endloop
  endfacet
  facet normal 0.8910065241883676 0 -0.45399049973954747
    outer loop
      vertex 8.705572809000085 -6.5 0.940456403667957
      vertex 8.478309573927755 6.5 0.49442719099991583
      vertex 8.705572809000085 6.5 0.940456403667957
    endloop
  endfacet
  facet normal 0.7071067811865485 0 -0.7071067811865467
    outer loop
      vertex 9.059543596332043 -6.5 1.294427190999916
      vertex 8.705572809000085 6.5 0.940456403667957
      vertex 9.059543596332043 6.5 1.294427190999916
    endloop
  endfacet
  facet normal -0.8910065241883676 0 0.45399049973954747
    outer loop
      vertex 11.294427190999915 -6.5 -0.940456403667957
      vertex 11.521690426072245 6.5 -0.49442719099991583
      vertex 11.294427190999915 6.5 -0.940456403667957
    endloop
  endfacet
  facet normal -0.9876883405951378 0 0.15643446504023067
    outer loop
      vertex 11.521690426072245 -6.5 -0.49442719099991583
      vertex 11.6 6.5 0
      vertex 11.521690426072245 6.5 -0.49442719099991583
    endloop
  endfacet
  facet normal -0.8910065241883676 0 -0.45399049973954747
    outer loop
      vertex 11.521690426072245 -6.5 0.49442719099991583
      vertex 11.294427190999915 6.5 0.940456403667957
      vertex 11.521690426072245 6.5 0.49442719099991583
    endloop
  endfacet
  facet normal -0.9876883405951378 0 -0.15643446504023067
    outer loop
      vertex 11.6 -6.5 0
      vertex 11.521690426072245 6.5 0.49442719099991583
      vertex 11.6 6.5 0
    endloop
  endfacet
  facet normal 0.4539904997395467 0 -0.8910065241883679
    outer loop
      vertex 9.505572809000084 -6.5 1.5216904260722457
      vertex 9.059543596332043 6.5 1.294427190999916
      vertex 9.505572809000084 6.5 1.5216904260722457
    endloop
  endfacet
  facet normal 0.15643446504023095 0 -0.9876883405951377
    outer loop
      vertex 10 -6.5 1.6
      vertex 9.505572809000084 6.5 1.5216904260722457
      vertex 10 6.5 1.6
    endloop
  endfacet
  facet normal -0.15643446504023095 0 -0.9876883405951377
    outer loop
      vertex 10.494427190999916 -6.5 1.5216904260722457
      vertex 10 6.5 1.6
      vertex 10.494427190999916 6.5 1.5216904260722457
    endloop
  endfacet
  facet normal -0.4539904997395467 0 -0.8910065241883679
    outer loop
      vertex 10.940456403667957 -6.5 1.294427190999916
      vertex 10.494427190999916 6.5 1.5216904260722457
      vertex 10.940456403667957 6.5 1.294427190999916
    endloop
  endfacet
  facet normal -0.7071067811865485 0 -0.7071067811865467
    outer loop
      vertex 11.294427190999915 -6.5 0.940456403667957
      vertex 10.940456403667957 6.5 1.294427190999916
      vertex 11.294427190999915 6.5 0.940456403667957
    endloop
  endfacet
  facet normal 0.7071067811865485 0 0.7071067811865467
    outer loop
      vertex -10.940456403667957 -6.5 -1.294427190999916
      vertex -10.940456403667957 6.5 -1.294427190999916
      vertex -11.294427190999915 -6.5 -0.940456403667957
    endloop
  endfacet
  facet normal 0.4539904997395467 0 0.8910065241883679
    outer loop
      vertex -10.940456403667957 -6.5 -1.294427190999916
      vertex -10.494427190999916 -6.5 -1.5216904260722457
      vertex -10.494427190999916 6.5 -1.5216904260722457
    endloop
  endfacet
  facet normal 0.15643446504023095 0 0.9876883405951377
    outer loop
      vertex -10.494427190999916 -6.5 -1.5216904260722457
      vertex -10 -6.5 -1.6
      vertex -10 6.5 -1.6
    endloop
  endfacet
  facet normal -0.15643446504023095 0 0.9876883405951377
    outer loop
      vertex -10 -6.5 -1.6
      vertex -9.505572809000084 -6.5 -1.5216904260722457
      vertex -9.505572809000084 6.5 -1.5216904260722457
    endloop
  endfacet
  facet normal -0.4539904997395467 0 0.8910065241883679
    outer loop
      vertex -9.505572809000084 -6.5 -1.5216904260722457
      vertex -9.059543596332043 -6.5 -1.294427190999916
      vertex -9.059543596332043 6.5 -1.294427190999916
    endloop
  endfacet
  facet normal -0.7071067811865485 0 0.7071067811865467
    outer loop
      vertex -8.705572809000085 -6.5 -0.940456403667957
      vertex -8.705572809000085 6.5 -0.940456403667957
      vertex -9.059543596332043 -6.5 -1.294427190999916
    endloop
  endfacet
  facet normal 0.9876883405951378 0 -0.15643446504023067
    outer loop
      vertex -11.6 -6.5 0
      vertex -11.6 6.5 0
      vertex -11.521690426072245 -6.5 0.49442719099991583
    endloop
  endfacet
  facet normal 0.8910065241883676 0 0.45399049973954747
    outer loop
      vertex -11.294427190999915 -6.5 -0.940456403667957
      vertex -11.294427190999915 6.5 -0.940456403667957
      vertex -11.521690426072245 -6.5 -0.49442719099991583
    endloop
  endfacet
  facet normal 0.9876883405951378 0 0.15643446504023067
    outer loop
      vertex -11.521690426072245 -6.5 -0.49442719099991583
      vertex -11.521690426072245 6.5 -0.49442719099991583
      vertex -11.6 -6.5 0
    endloop
  endfacet
  facet normal 0.8910065241883676 0 -0.45399049973954747
    outer loop
      vertex -11.521690426072245 -6.5 0.49442719099991583
      vertex -11.521690426072245 6.5 0.49442719099991583
      vertex -11.294427190999915 -6.5 0.940456403667957
    endloop
  endfacet
  facet normal 0.7071067811865485 0 -0.7071067811865467
    outer loop
      vertex -11.294427190999915 -6.5 0.940456403667957
      vertex -11.294427190999915 6.5 0.940456403667957
      vertex -10.940456403667957 -6.5 1.294427190999916
    endloop
  endfacet
  facet normal 0.4539904997395467 0 -0.8910065241883679
    outer loop
      vertex -10.940456403667957 -6.5 1.294427190999916
      vertex -10.940456403667957 6.5 1.294427190999916
      vertex -10.494427190999916 -6.5 1.5216904260722457
    endloop
  endfacet
  facet normal 0.15643446504023095 0 -0.9876883405951377
    outer loop
      vertex -10 -6.5 1.6
      vertex -10.494427190999916 -6.5 1.5216904260722457
      vertex -10.494427190999916 6.5 1.5216904260722457
    endloop
  endfacet
  facet normal -0.15643446504023095 0 -0.9876883405951377
    outer loop
      vertex -9.505572809000084 -6.5 1.5216904260722457
      vertex -10 -6.5 1.6
      vertex -10 6.5 1.6
    endloop
  endfacet
  facet normal -0.4539904997395467 0 -0.8910065241883679
    outer loop
      vertex -9.059543596332043 -6.5 1.294427190999916
      vertex -9.505572809000084 -6.5 1.5216904260722457
      vertex -9.505572809000084 6.5 1.5216904260722457
    endloop
  endfacet
  facet normal -0.8910065241883676 0 0.45399049973954747
    outer loop
      vertex -8.478309573927755 -6.5 -0.49442719099991583
      vertex -8.478309573927755 6.5 -0.49442719099991583
      vertex -8.705572809000085 -6.5 -0.940456403667957
    endloop
  endfacet
  facet normal -0.9876883405951378 0 0.15643446504023067
    outer loop
      vertex -8.4 -6.5 0
      vertex -8.4 6.5 0
      vertex -8.478309573927755 -6.5 -0.49442719099991583
    endloop
  endfacet
  facet normal -0.9876883405951378 0 -0.15643446504023067
    outer loop
      vertex -8.478309573927755 -6.5 0.49442719099991583
      vertex -8.478309573927755 6.5 0.49442719099991583
      vertex -8.4 -6.5 0
    endloop
  endfacet
  facet normal -0.8910065241883676 0 -0.45399049973954747
    outer loop
      vertex -8.705572809000085 -6.5 0.940456403667957
      vertex -8.705572809000085 6.5 0.940456403667957
      vertex -8.478309573927755 -6.5 0.49442719099991583
    endloop
  endfacet
  facet normal -0.7071067811865485 0 -0.7071067811865467
    outer loop
      vertex -8.705572809000085 -6.5 0.940456403667957
      vertex -9.059543596332043 -6.5 1.294427190999916
      vertex -9.059543596332043 6.5 1.294427190999916
    endloop
  endfacet
  facet normal 0.7071067811865485 0 0.7071067811865467
    outer loop
      vertex -11.294427190999915 -6.5 -0.940456403667957
      vertex -10.940456403667957 6.5 -1.294427190999916
      vertex -11.294427190999915 6.5 -0.940456403667957
    endloop
  endfacet
  facet normal 0.4539904997395467 0 0.8910065241883679
    outer loop
      vertex -10.940456403667957 -6.5 -1.294427190999916
      vertex -10.494427190999916 6.5 -1.5216904260722457
      vertex -10.940456403667957 6.5 -1.294427190999916
    endloop
  endfacet
  facet normal 0.15643446504023095 0 0.9876883405951377
    outer loop
      vertex -10.494427190999916 -6.5 -1.5216904260722457
      vertex -10 6.5 -1.6
      vertex -10.494427190999916 6.5 -1.5216904260722457
    endloop
  endfacet
  facet normal -0.15643446504023095 0 0.9876883405951377
    outer loop
      vertex -10 -6.5 -1.6
      vertex -9.505572809000084 6.5 -1.5216904260722457
      vertex -10 6.5 -1.6
    endloop
  endfacet
  facet normal -0.4539904997395467 0 0.8910065241883679
    outer loop
      vertex -9.505572809000084 -6.5 -1.5216904260722457
      vertex -9.059543596332043 6.5 -1.294427190999916
      vertex -9.505572809000084 6.5 -1.5216904260722457
    endloop
  endfacet
  facet normal -0.7071067811865485 0 0.7071067811865467
    outer loop
      vertex -9.059543596332043 -6.5 -1.294427190999916
      vertex -8.705572809000085 6.5 -0.940456403667957
      vertex -9.059543596332043 6.5 -1.294427190999916
    endloop
  endfacet
  facet normal 0.9876883405951378 0 0.15643446504023067
    outer loop
      vertex -11.6 -6.5 0
      vertex -11.521690426072245 6.5 -0.49442719099991583
      vertex -11.6 6.5 0
    endloop
  endfacet
  facet normal 0.8910065241883676 0 0.45399049973954747
    outer loop
      vertex -11.521690426072245 -6.5 -0.49442719099991583
      vertex -11.294427190999915 6.5 -0.940456403667957
      vertex -11.521690426072245 6.5 -0.49442719099991583
    endloop
  endfacet
  facet normal 0.9876883405951378 0 -0.15643446504023067
    outer loop
      vertex -11.521690426072245 -6.5 0.49442719099991583
      vertex -11.6 6.5 0
      vertex -11.521690426072245 6.5 0.49442719099991583
    endloop
  endfacet
  facet normal 0.8910065241883676 0 -0.45399049973954747
    outer loop
      vertex -11.294427190999915 -6.5 0.940456403667957
      vertex -11.521690426072245 6.5 0.49442719099991583
      vertex -11.294427190999915 6.5 0.940456403667957
    endloop
  endfacet
  facet normal 0.7071067811865485 0 -0.7071067811865467
    outer loop
      vertex -10.940456403667957 -6.5 1.294427190999916
      vertex -11.294427190999915 6.5 0.940456403667957
      vertex -10.940456403667957 6.5 1.294427190999916
    endloop
  endfacet
  facet normal 0.4539904997395467 0 -0.8910065241883679
    outer loop
      vertex -10.494427190999916 -6.5 1.5216904260722457
      vertex -10.940456403667957 6.5 1.294427190999916
      vertex -10.494427190999916 6.5 1.5216904260722457
    endloop
  endfacet
  facet normal 0.15643446504023095 0 -0.9876883405951377
    outer loop
      vertex -10 -6.5 1.6
      vertex -10.494427190999916 6.5 1.5216904260722457
      vertex -10 6.5 1.6
    endloop
  endfacet
  facet normal -0.15643446504023095 0 -0.9876883405951377
    outer loop
      vertex -9.505572809000084 -6.5 1.5216904260722457
      vertex -10 6.5 1.6
      vertex -9.505572809000084 6.5 1.5216904260722457
    endloop
  endfacet
  facet normal -0.8910065241883676 0 0.45399049973954747
    outer loop
      vertex -8.705572809000085 -6.5 -0.940456403667957
      vertex -8.478309573927755 6.5 -0.49442719099991583
      vertex -8.705572809000085 6.5 -0.940456403667957
    endloop
  endfacet
  facet normal -0.9876883405951378 0 0.15643446504023067
    outer loop
      vertex -8.478309573927755 -6.5 -0.49442719099991583
      vertex -8.4 6.5 0
      vertex -8.478309573927755 6.5 -0.49442719099991583
    endloop
  endfacet
  facet normal -0.9876883405951378 0 -0.15643446504023067
    outer loop
      vertex -8.4 -6.5 0
      vertex -8.478309573927755 6.5 0.49442719099991583
      vertex -8.4 6.5 0
    endloop
  endfacet
  facet normal -0.8910065241883676 0 -0.45399049973954747
    outer loop
      vertex -8.478309573927755 -6.5 0.49442719099991583
      vertex -8.705572809000085 6.5 0.940456403667957
      vertex -8.478309573927755 6.5 0.49442719099991583
    endloop
  endfacet
  facet normal -0.7071067811865485 0 -0.7071067811865467
    outer loop
      vertex -8.705572809000085 -6.5 0.940456403667957
      vertex -9.059543596332043 6.5 1.294427190999916
      vertex -8.705572809000085 6.5 0.940456403667957
    endloop
  endfacet
  facet normal -0.4539904997395467 0 -0.8910065241883679
    outer loop
      vertex -9.059543596332043 -6.5 1.294427190999916
      vertex -9.505572809000084 6.5 1.5216904260722457
      vertex -9.059543596332043 6.5 1.294427190999916
    endloop
  endfacet
endsolid OpenSCAD_Model
