solid OpenSCAD_Model
  facet normal 0 0 -1
    outer loop
      vertex -2.25 -0.25 -14.149999999999999
      vertex -1.75 0.25 -14.149999999999999
      vertex -1.75 -0.25 -14.149999999999999
    endloop
  endfacet
  facet normal 0 -1 0
    outer loop
      vertex -2.25 -0.25 -14.149999999999999
      vertex -1.75 -0.25 -14.149999999999999
      vertex -1.75 -0.25 -12.149999999999999
    endloop
  endfacet
  facet normal 0 0 -1
    outer loop
      vertex -2.25 -0.25 -14.149999999999999
      vertex -2.25 0.25 -14.149999999999999
      vertex -1.75 0.25 -14.149999999999999
    endloop
  endfacet
  facet normal -1 0 0
    outer loop
      vertex -2.25 -0.25 -14.149999999999999
      vertex -2.25 0.25 -12.149999999999999
      vertex -2.25 0.25 -14.149999999999999
    endloop
  endfacet
  facet normal 0 1 0
    outer loop
      vertex -2.25 0.25 -14.149999999999999
      vertex -2.25 0.25 -12.149999999999999
      vertex -1.75 0.25 -14.149999999999999
    endloop
  endfacet
  facet normal 0 -1 0
    outer loop
      vertex -2.25 -0.25 -14.149999999999999
      vertex -1.75 -0.25 -12.149999999999999
      vertex -2.25 -0.25 -12.149999999999999
    endloop
  endfacet
  facet normal -1 0 0
    outer loop
      vertex -2.25 -0.25 -14.149999999999999
      vertex -2.25 -0.25 -12.149999999999999
      vertex -2.25 0.25 -12.149999999999999
    endloop
  endfacet
  facet normal 0 1 0
    outer loop
      vertex -2.25 0.25 -12.149999999999999
      vertex -1.75 0.25 -12.149999999999999
      vertex -1.75 0.25 -14.149999999999999
    endloop
  endfacet
  facet normal 1 0 0
    outer loop
      vertex -1.75 -0.25 -14.149999999999999
      vertex -1.75 0.25 -14.149999999999999
      vertex -1.75 -0.25 -12.149999999999999
    endloop
  endfacet
  facet normal 1 0 0
    outer loop
      vertex -1.75 -0.25 -12.149999999999999
      vertex -1.75 0.25 -14.149999999999999
      vertex -1.75 0.25 -12.149999999999999
    endloop
  endfacet
  facet normal 0 0 -1
    outer loop
      vertex -0.25 -0.25 -14.149999999999999
      vertex -0.25 0.25 -14.149999999999999
      vertex 0.25 0.25 -14.149999999999999
    endloop
  endfacet
  facet normal -1 0 0
    outer loop
      vertex -0.25 -0.25 -14.149999999999999
      vertex -0.25 0.25 -12.149999999999999
      vertex -0.25 0.25 -14.149999999999999
    endloop
  endfacet
  facet normal 0 1 0
    outer loop
      vertex -0.25 0.25 -14.149999999999999
      vertex -0.25 0.25 -12.149999999999999
      vertex 0.25 0.25 -14.149999999999999
    endloop
  endfacet
  facet normal -1 0 0
    outer loop
      vertex -0.25 -0.25 -14.149999999999999
      vertex -0.25 -0.25 -12.149999999999999
      vertex -0.25 0.25 -12.149999999999999
    endloop
  endfacet
  facet normal 0 -1 0
    outer loop
      vertex -0.25 -0.25 -14.149999999999999
      vertex 0.25 -0.25 -12.149999999999999
      vertex -0.25 -0.25 -12.149999999999999
    endloop
  endfacet
  facet normal 0 0 -1
    outer loop
      vertex -0.25 -0.25 -14.149999999999999
      vertex 0.25 0.25 -14.149999999999999
      vertex 0.25 -0.25 -14.149999999999999
    endloop
  endfacet
  facet normal 0 -1 0
    outer loop
      vertex -0.25 -0.25 -14.149999999999999
      vertex 0.25 -0.25 -14.149999999999999
      vertex 0.25 -0.25 -12.149999999999999
    endloop
  endfacet
  facet normal 1 0 0
    outer loop
      vertex 0.25 -0.25 -14.149999999999999
      vertex 0.25 0.25 -14.149999999999999
      vertex 0.25 -0.25 -12.149999999999999
    endloop
  endfacet
  facet normal 1 0 0
    outer loop
      vertex 0.25 -0.25 -12.149999999999999
      vertex 0.25 0.25 -14.149999999999999
      vertex 0.25 0.25 -12.149999999999999
    endloop
  endfacet
  facet normal 0 1 0
    outer loop
      vertex -0.25 0.25 -12.149999999999999
      vertex 0.25 0.25 -12.149999999999999
      vertex 0.25 0.25 -14.149999999999999
    endloop
  endfacet
  facet normal -1 0 0
    outer loop
      vertex 1.75 -0.25 -14.149999999999999
      vertex 1.75 0.25 -12.149999999999999
      vertex 1.75 0.25 -14.149999999999999
    endloop
  endfacet
  facet normal -1 0 0
    outer loop
      vertex 1.75 -0.25 -14.149999999999999
      vertex 1.75 -0.25 -12.149999999999999
      vertex 1.75 0.25 -12.149999999999999
    endloop
  endfacet
  facet normal 0 0 -1
    outer loop
      vertex 1.75 -0.25 -14.149999999999999
      vertex 2.25 0.25 -14.149999999999999
      vertex 2.25 -0.25 -14.149999999999999
    endloop
  endfacet
  facet normal 0 -1 0
    outer loop
      vertex 1.75 -0.25 -14.149999999999999
      vertex 2.25 -0.25 -14.149999999999999
      vertex 2.25 -0.25 -12.149999999999999
    endloop
  endfacet
  facet normal 1 0 0
    outer loop
      vertex 2.25 -0.25 -14.149999999999999
      vertex 2.25 0.25 -14.149999999999999
      vertex 2.25 -0.25 -12.149999999999999
    endloop
  endfacet
  facet normal 0 0 -1
    outer loop
      vertex 1.75 -0.25 -14.149999999999999
      vertex 1.75 0.25 -14.149999999999999
      vertex 2.25 0.25 -14.149999999999999
    endloop
  endfacet
  facet normal 0 1 0
    outer loop
      vertex 1.75 0.25 -14.149999999999999
      vertex 1.75 0.25 -12.149999999999999
      vertex 2.25 0.25 -14.149999999999999
    endloop
  endfacet
  facet normal 0 -1 0
    outer loop
      vertex 1.75 -0.25 -14.149999999999999
      vertex 2.25 -0.25 -12.149999999999999
      vertex 1.75 -0.25 -12.149999999999999
    endloop
  endfacet
  facet normal 1 0 0
    outer loop
      vertex 2.25 -0.25 -12.149999999999999
      vertex 2.25 0.25 -14.149999999999999
      vertex 2.25 0.25 -12.149999999999999
    endloop
  endfacet
  facet normal 0 1 0
    outer loop
      vertex 1.75 0.25 -12.149999999999999
      vertex 2.25 0.25 -12.149999999999999
      vertex 2.25 0.25 -14.149999999999999
    endloop
  endfacet
  facet normal -1 0 0
    outer loop
      vertex -5.05 -2.5 -12.149999999999999
      vertex -5.05 -2.5 -7.949999999999999
      vertex -5.05 2.5 -7.949999999999999
    endloop
  endfacet
  facet normal 0 0 -1
    outer loop
      vertex -5.05 -2.5 -12.149999999999999
      vertex -5.05 2.5 -12.149999999999999
      vertex -2.25 -0.25 -12.149999999999999
    endloop
  endfacet
  facet normal -1 0 0
    outer loop
      vertex -5.05 -2.5 -12.149999999999999
      vertex -5.05 2.5 -7.949999999999999
      vertex -5.05 2.5 -12.149999999999999
    endloop
  endfacet
  facet normal 0 0 -1
    outer loop
      vertex -5.05 -2.5 -12.149999999999999
      vertex -2.25 -0.25 -12.149999999999999
      vertex -1.75 -0.25 -12.149999999999999
    endloop
  endfacet
  facet normal 0 0 -1
    outer loop
      vertex -5.05 -2.5 -12.149999999999999
      vertex -1.75 -0.25 -12.149999999999999
      vertex -0.25 -0.25 -12.149999999999999
    endloop
  endfacet
  facet normal 0 0 -1
    outer loop
      vertex -5.05 -2.5 -12.149999999999999
      vertex -0.25 -0.25 -12.149999999999999
      vertex 0.25 -0.25 -12.149999999999999
    endloop
  endfacet
  facet normal 0 0 -1
    outer loop
      vertex -5.05 -2.5 -12.149999999999999
      vertex 0.25 -0.25 -12.149999999999999
      vertex 1.75 -0.25 -12.149999999999999
    endloop
  endfacet
  facet normal 0 -1 0
    outer loop
      vertex -5.05 -2.5 -12.149999999999999
      vertex 5.05 -2.5 -7.949999999999999
      vertex -5.05 -2.5 -7.949999999999999
    endloop
  endfacet
  facet normal 0 0 -1
    outer loop
      vertex -2.25 -0.25 -12.149999999999999
      vertex -5.05 2.5 -12.149999999999999
      vertex -2.25 0.25 -12.149999999999999
    endloop
  endfacet
  facet normal 0 0 -1
    outer loop
      vertex -5.05 2.5 -12.149999999999999
      vertex -1.75 0.25 -12.149999999999999
      vertex -2.25 0.25 -12.149999999999999
    endloop
  endfacet
  facet normal 0 0 -1
    outer loop
      vertex -1.75 -0.25 -12.149999999999999
      vertex -1.75 0.25 -12.149999999999999
      vertex -0.25 -0.25 -12.149999999999999
    endloop
  endfacet
  facet normal 0 0 -1
    outer loop
      vertex -0.25 -0.25 -12.149999999999999
      vertex -1.75 0.25 -12.149999999999999
      vertex -0.25 0.25 -12.149999999999999
    endloop
  endfacet
  facet normal 0 0 -1
    outer loop
      vertex -5.05 2.5 -12.149999999999999
      vertex 5.05 2.5 -12.149999999999999
      vertex -1.75 0.25 -12.149999999999999
    endloop
  endfacet
  facet normal 0 1 0
    outer loop
      vertex -5.05 2.5 -12.149999999999999
      vertex -5.05 2.5 -7.949999999999999
      vertex 5.05 2.5 -12.149999999999999
    endloop
  endfacet
  facet normal 0 0 -1
    outer loop
      vertex -5.05 -2.5 -12.149999999999999
      vertex 1.75 -0.25 -12.149999999999999
      vertex 5.05 -2.5 -12.149999999999999
    endloop
  endfacet
  facet normal 0 0 -1
    outer loop
      vertex 1.75 -0.25 -12.149999999999999
      vertex 2.25 -0.25 -12.149999999999999
      vertex 5.05 -2.5 -12.149999999999999
    endloop
  endfacet
  facet normal 0 0 -1
    outer loop
      vertex 2.25 -0.25 -12.149999999999999
      vertex 2.25 0.25 -12.149999999999999
      vertex 5.05 -2.5 -12.149999999999999
    endloop
  endfacet
  facet normal 0 -1 0
    outer loop
      vertex -5.05 -2.5 -12.149999999999999
      vertex 5.05 -2.5 -12.149999999999999
      vertex 5.05 -2.5 -7.949999999999999
    endloop
  endfacet
  facet normal 0 0 -1
    outer loop
      vertex 0.25 -0.25 -12.149999999999999
      vertex 0.25 0.25 -12.149999999999999
      vertex 1.75 -0.25 -12.149999999999999
    endloop
  endfacet
  facet normal 0 0 -1
    outer loop
      vertex 1.75 -0.25 -12.149999999999999
      vertex 0.25 0.25 -12.149999999999999
      vertex 1.75 0.25 -12.149999999999999
    endloop
  endfacet
  facet normal 0 0 -1
    outer loop
      vertex -1.75 0.25 -12.149999999999999
      vertex 5.05 2.5 -12.149999999999999
      vertex -0.25 0.25 -12.149999999999999
    endloop
  endfacet
  facet normal 0 0 -1
    outer loop
      vertex -0.25 0.25 -12.149999999999999
      vertex 5.05 2.5 -12.149999999999999
      vertex 0.25 0.25 -12.149999999999999
    endloop
  endfacet
  facet normal 0 0 -1
    outer loop
      vertex 0.25 0.25 -12.149999999999999
      vertex 5.05 2.5 -12.149999999999999
      vertex 1.75 0.25 -12.149999999999999
    endloop
  endfacet
  facet normal 0 0 -1
    outer loop
      vertex 1.75 0.25 -12.149999999999999
      vertex 5.05 2.5 -12.149999999999999
      vertex 2.25 0.25 -12.149999999999999
    endloop
  endfacet
  facet normal 1 0 0
    outer loop
      vertex 5.05 -2.5 -12.149999999999999
      vertex 5.05 2.5 -12.149999999999999
      vertex 5.05 -2.5 -7.949999999999999
    endloop
  endfacet
  facet normal 0 0 -1
    outer loop
      vertex 5.05 -2.5 -12.149999999999999
      vertex 2.25 0.25 -12.149999999999999
      vertex 5.05 2.5 -12.149999999999999
    endloop
  endfacet
  facet normal 1 0 0
    outer loop
      vertex 5.05 2.5 -12.149999999999999
      vertex 5.05 2.5 -7.949999999999999
      vertex 5.05 -2.5 -7.949999999999999
    endloop
  endfacet
  facet normal 0 1 0
    outer loop
      vertex 5.05 2.5 -12.149999999999999
      vertex -5.05 2.5 -7.949999999999999
      vertex 5.05 2.5 -7.949999999999999
    endloop
  endfacet
  facet normal -1 0 0
    outer loop
      vertex -14.725 -3.55 -6.75
      vertex -14.725 3.55 6.75
      vertex -14.725 3.5499999999999994 -6.75
    endloop
  endfacet
  facet normal -1 0 0
    outer loop
      vertex -14.725 -3.55 -6.75
      vertex -14.725 -3.55 6.75
      vertex -14.725 3.55 6.75
    endloop
  endfacet
  facet normal 0 -1 0
    outer loop
      vertex -14.725 -3.55 -6.75
      vertex 14.725 -3.55 6.75
      vertex -14.725 -3.55 6.75
    endloop
  endfacet
  facet normal 0 0 1
    outer loop
      vertex -14.725 -3.55 6.75
      vertex 14.725 -3.55 6.75
      vertex -14.725 3.55 6.75
    endloop
  endfacet
  facet normal 0 1 -1.7415263131375007e-16
    outer loop
      vertex -14.725 3.5499999999999994 -6.75
      vertex -13.249999999999998 3.55 -4.2
      vertex 13.25 3.55 -4.2
    endloop
  endfacet
  facet normal -3.0107743040682166e-16 1 -6.366916103478699e-32
    outer loop
      vertex -14.725 3.5499999999999994 -6.75
      vertex -13.25 3.55 4.2
      vertex -13.249999999999998 3.55 -4.2
    endloop
  endfacet
  facet normal -5.687018129906643e-17 1 -3.289549702593057e-17
    outer loop
      vertex -14.725 3.5499999999999994 -6.75
      vertex -14.725 3.55 6.75
      vertex -13.25 3.55 4.2
    endloop
  endfacet
  facet normal 0 1 0
    outer loop
      vertex -14.725 3.55 6.75
      vertex 14.725 3.55 6.75
      vertex -13.25 3.55 4.2
    endloop
  endfacet
  facet normal 0 -1 0
    outer loop
      vertex 14.725 -3.55 6.75
      vertex -14.725 -3.55 -6.75
      vertex 14.725 -3.55 -6.75
    endloop
  endfacet
  facet normal 0 0 1
    outer loop
      vertex -14.725 3.55 6.75
      vertex 14.725 -3.55 6.75
      vertex 14.725 3.55 6.75
    endloop
  endfacet
  facet normal 1 2.5019110414088036e-16 0
    outer loop
      vertex 14.725 -3.55 -6.75
      vertex 14.724999999999998 3.5499999999999994 -6.75
      vertex 14.725 -3.55 6.75
    endloop
  endfacet
  facet normal 1 0 -1.3158198810372225e-16
    outer loop
      vertex 14.725 -3.55 6.75
      vertex 14.724999999999998 3.5499999999999994 -6.75
      vertex 14.725 3.55 6.75
    endloop
  endfacet
  facet normal 0 1 -1.7415263131375007e-16
    outer loop
      vertex -14.725 3.5499999999999994 -6.75
      vertex 13.25 3.55 -4.2
      vertex 14.724999999999998 3.5499999999999994 -6.75
    endloop
  endfacet
  facet normal 0 1 0
    outer loop
      vertex 14.725 3.55 6.75
      vertex 13.249999999999998 3.55 4.2
      vertex -13.25 3.55 4.2
    endloop
  endfacet
  facet normal 2.44207249107756e-16 1 -3.2895497025930593e-17
    outer loop
      vertex 14.724999999999998 3.5499999999999994 -6.75
      vertex 13.25 3.55 -4.2
      vertex 14.725 3.55 6.75
    endloop
  endfacet
  facet normal 0 1 0
    outer loop
      vertex 14.725 3.55 6.75
      vertex 13.25 3.55 -4.2
      vertex 13.249999999999998 3.55 4.2
    endloop
  endfacet
  facet normal 0 0 -1
    outer loop
      vertex -13.25 9.85 -4.2
      vertex 13.25 9.85 -4.2
      vertex -13.249999999999998 3.55 -4.2
    endloop
  endfacet
  facet normal -1 0 -2.1147105230955362e-16
    outer loop
      vertex -13.25 9.85 4.2
      vertex -13.249999999999998 3.55 -4.2
      vertex -13.25 3.55 4.2
    endloop
  endfacet
  facet normal -1 -2.819614030794048e-16 0
    outer loop
      vertex -13.25 9.85 -4.2
      vertex -13.249999999999998 3.55 -4.2
      vertex -13.25 9.85 4.2
    endloop
  endfacet
  facet normal 0 0 1
    outer loop
      vertex -13.25 9.85 4.2
      vertex -13.25 3.55 4.2
      vertex 13.249999999999998 3.55 4.2
    endloop
  endfacet
  facet normal 0 1 0
    outer loop
      vertex -13.25 9.85 -4.2
      vertex -13.25 9.85 4.2
      vertex 13.25 9.85 -4.2
    endloop
  endfacet
  facet normal 0 0 -1
    outer loop
      vertex 13.25 9.85 -4.2
      vertex 13.25 3.55 -4.2
      vertex -13.249999999999998 3.55 -4.2
    endloop
  endfacet
  facet normal 1 0 0
    outer loop
      vertex 13.25 8.85 -3.6
      vertex 13.25 3.55 -4.2
      vertex 13.25 9.85 -3.6
    endloop
  endfacet
  facet normal 1 0 0
    outer loop
      vertex 13.25 9.85 -4.2
      vertex 13.25 9.85 -3.6
      vertex 13.25 3.55 -4.2
    endloop
  endfacet
  facet normal 0 1 0
    outer loop
      vertex -13.25 9.85 4.2
      vertex 13.25 9.85 -3.6
      vertex 13.25 9.85 -4.2
    endloop
  endfacet
  facet normal 0 1 0
    outer loop
      vertex -13.25 9.85 4.2
      vertex 13.25 9.85 3.6
      vertex 13.25 9.85 -3.6
    endloop
  endfacet
  facet normal 0 0 1
    outer loop
      vertex -13.25 9.85 4.2
      vertex 13.249999999999998 3.55 4.2
      vertex 13.25 9.85 4.2
    endloop
  endfacet
  facet normal 0 1 0
    outer loop
      vertex -13.25 9.85 4.2
      vertex 13.25 9.85 4.2
      vertex 13.25 9.85 3.6
    endloop
  endfacet
  facet normal 1 -2.3940119129383412e-17 2.1147105230955362e-16
    outer loop
      vertex 13.249999999999998 3.55 4.2
      vertex 13.25 3.55 -4.2
      vertex 13.25 8.85 -3.6
    endloop
  endfacet
  facet normal 1 -3.3516166781136804e-16 0
    outer loop
      vertex 13.25 8.85 -3.6
      vertex 13.25 8.85 3.6
      vertex 13.249999999999998 3.55 4.2
    endloop
  endfacet
  facet normal 1 -2.8196140307940487e-16 4.69935671799008e-16
    outer loop
      vertex 13.25 9.85 4.2
      vertex 13.249999999999998 3.55 4.2
      vertex 13.25 8.85 3.6
    endloop
  endfacet
  facet normal 1 0 0
    outer loop
      vertex 13.25 9.85 4.2
      vertex 13.25 8.85 3.6
      vertex 13.25 9.85 3.6
    endloop
  endfacet
  facet normal 0 0 -1
    outer loop
      vertex 13.475 8.85 -3.6
      vertex 13.25 8.85 -3.6
      vertex 13.25 9.85 -3.6
    endloop
  endfacet
  facet normal 0 0 -1
    outer loop
      vertex 13.475 8.85 -3.6
      vertex 13.25 9.85 -3.6
      vertex 13.475 9.85 -3.6
    endloop
  endfacet
  facet normal 0 -1 0
    outer loop
      vertex 13.475 8.85 -3.6
      vertex 13.475 8.85 3.6
      vertex 13.25 8.85 -3.6
    endloop
  endfacet
  facet normal 1 0 0
    outer loop
      vertex 13.475 8.85 -3.6
      vertex 13.475 9.85 -3.6
      vertex 13.475 8.85 3.6
    endloop
  endfacet
  facet normal 0 1 0
    outer loop
      vertex 13.475 9.85 -3.6
      vertex 13.25 9.85 -3.6
      vertex 13.25 9.85 3.6
    endloop
  endfacet
  facet normal 0 -1 0
    outer loop
      vertex 13.475 8.85 3.6
      vertex 13.25 8.85 3.6
      vertex 13.25 8.85 -3.6
    endloop
  endfacet
  facet normal 1 0 0
    outer loop
      vertex 13.475 9.85 -3.6
      vertex 13.475 9.85 3.6
      vertex 13.475 8.85 3.6
    endloop
  endfacet
  facet normal 0 1 0
    outer loop
      vertex 13.475 9.85 -3.6
      vertex 13.25 9.85 3.6
      vertex 13.475 9.85 3.6
    endloop
  endfacet
  facet normal 0 0 1
    outer loop
      vertex 13.475 8.85 3.6
      vertex 13.475 9.85 3.6
      vertex 13.25 8.85 3.6
    endloop
  endfacet
  facet normal 0 0 1
    outer loop
      vertex 13.475 9.85 3.6
      vertex 13.25 9.85 3.6
      vertex 13.25 8.85 3.6
    endloop
  endfacet
  facet normal -1 0 0
    outer loop
      vertex -14.725 -6.85 -7.949999999999999
      vertex -14.725 -6.85 -6.75
      vertex -14.725 -3.55 -6.75
    endloop
  endfacet
  facet normal -1 0 0
    outer loop
      vertex -14.725 -6.85 -7.949999999999999
      vertex -14.725 -3.55 -6.75
      vertex -14.725 3.5499999999999994 -6.75
    endloop
  endfacet
  facet normal 0 0 -1
    outer loop
      vertex -14.725 -6.85 -7.949999999999999
      vertex -14.725 3.5499999999999994 -7.949999999999999
      vertex -5.05 -2.5 -7.949999999999999
    endloop
  endfacet
  facet normal -1 0 0
    outer loop
      vertex -14.725 -6.85 -7.949999999999999
      vertex -14.725 3.5499999999999994 -6.75
      vertex -14.725 3.5499999999999994 -7.949999999999999
    endloop
  endfacet
  facet normal 0 0 -1
    outer loop
      vertex -14.725 3.5499999999999994 -7.949999999999999
      vertex -5.05 2.5 -7.949999999999999
      vertex -5.05 -2.5 -7.949999999999999
    endloop
  endfacet
  facet normal 0 -1 0
    outer loop
      vertex -14.725 -6.85 -7.949999999999999
      vertex 14.725 -6.85 -6.75
      vertex -14.725 -6.85 -6.75
    endloop
  endfacet
  facet normal 0 0 -1
    outer loop
      vertex -14.725 -6.85 -7.949999999999999
      vertex -5.05 -2.5 -7.949999999999999
      vertex 5.05 -2.5 -7.949999999999999
    endloop
  endfacet
  facet normal 0 0 1
    outer loop
      vertex -14.725 -6.85 -6.75
      vertex 14.725 -3.55 -6.75
      vertex -14.725 -3.55 -6.75
    endloop
  endfacet
  facet normal 0 1 0
    outer loop
      vertex -14.725 3.5499999999999994 -7.949999999999999
      vertex -14.725 3.5499999999999994 -6.75
      vertex 14.725 3.5499999999999994 -7.949999999999999
    endloop
  endfacet
  facet normal 0 0 -1
    outer loop
      vertex -14.725 3.5499999999999994 -7.949999999999999
      vertex 14.725 3.5499999999999994 -7.949999999999999
      vertex -5.05 2.5 -7.949999999999999
    endloop
  endfacet
  facet normal 0 0 -1
    outer loop
      vertex -14.725 -6.85 -7.949999999999999
      vertex 5.05 -2.5 -7.949999999999999
      vertex 14.725 -6.85 -7.949999999999999
    endloop
  endfacet
  facet normal 0 -1 0
    outer loop
      vertex -14.725 -6.85 -7.949999999999999
      vertex 14.725 -6.85 -7.949999999999999
      vertex 14.725 -6.85 -6.75
    endloop
  endfacet
  facet normal 0 0 1
    outer loop
      vertex -14.725 -6.85 -6.75
      vertex 14.725 -6.85 -6.75
      vertex 14.725 -3.55 -6.75
    endloop
  endfacet
  facet normal 1 0 0
    outer loop
      vertex 14.725 -6.85 -7.949999999999999
      vertex 14.725 3.5499999999999994 -7.949999999999999
      vertex 14.725 -6.85 -6.75
    endloop
  endfacet
  facet normal 0 0 -1
    outer loop
      vertex 14.725 3.5499999999999994 -7.949999999999999
      vertex 5.05 -2.5 -7.949999999999999
      vertex 5.05 2.5 -7.949999999999999
    endloop
  endfacet
  facet normal 0 0 -1
    outer loop
      vertex 14.725 -6.85 -7.949999999999999
      vertex 5.05 -2.5 -7.949999999999999
      vertex 14.725 3.5499999999999994 -7.949999999999999
    endloop
  endfacet
  facet normal 1 0 0
    outer loop
      vertex 14.725 -6.85 -6.75
      vertex 14.725 3.5499999999999994 -7.949999999999999
      vertex 14.725 -3.55 -6.75
    endloop
  endfacet
  facet normal 1 2.5019110414088036e-16 1.4802973661668762e-15
    outer loop
      vertex 14.725 3.5499999999999994 -7.949999999999999
      vertex 14.724999999999998 3.5499999999999994 -6.75
      vertex 14.725 -3.55 -6.75
    endloop
  endfacet
  facet normal 0 0 -1
    outer loop
      vertex 14.725 3.5499999999999994 -7.949999999999999
      vertex 5.05 2.5 -7.949999999999999
      vertex -5.05 2.5 -7.949999999999999
    endloop
  endfacet
  facet normal 0 1 0
    outer loop
      vertex 14.725 3.5499999999999994 -7.949999999999999
      vertex -14.725 3.5499999999999994 -6.75
      vertex 14.724999999999998 3.5499999999999994 -6.75
    endloop
  endfacet
endsolid OpenSCAD_Model
