solid OpenSCAD_Model
  facet normal -1 0 0
    outer loop
      vertex -3.75 -2.075 8.15
      vertex -3.75 2.075 8.15
      vertex -3.75 -2.075 -4.85
    endloop
  endfacet
  facet normal 0 -1 0
    outer loop
      vertex -3.75 -2.075 8.15
      vertex -3.75 -2.075 -4.85
      vertex 3.75 -2.075 -4.85
    endloop
  endfacet
  facet normal 0 0 1
    outer loop
      vertex -3.75 -2.075 8.15
      vertex 3.75 -2.075 8.15
      vertex -3.75 2.075 8.15
    endloop
  endfacet
  facet normal 0 0 -1
    outer loop
      vertex -3.75 2.075 -8.15
      vertex -3.15 0 -8.15
      vertex -3.75 0 -8.15
    endloop
  endfacet
  facet normal 0 0 -1
    outer loop
      vertex -3.75 2.075 -8.15
      vertex -3.15 2.075 -8.15
      vertex -3.15 0 -8.15
    endloop
  endfacet
  facet normal -1 0 0
    outer loop
      vertex -3.75 2.075 8.15
      vertex -3.75 0 -8.15
      vertex -3.75 0 -4.85
    endloop
  endfacet
  facet normal -1 0 0
    outer loop
      vertex -3.75 2.075 -8.15
      vertex -3.75 0 -8.15
      vertex -3.75 2.075 8.15
    endloop
  endfacet
  facet normal 0 1 0
    outer loop
      vertex -3.75 2.075 -8.15
      vertex -3.15 2.075 -6.5
      vertex -3.15 2.075 -8.15
    endloop
  endfacet
  facet normal 0 1 0
    outer loop
      vertex -3.75 2.075 -8.15
      vertex -3.75 2.075 8.15
      vertex -3.15 2.075 -6.5
    endloop
  endfacet
  facet normal 0 1 0
    outer loop
      vertex -3.15 2.075 -6.5
      vertex -0.4854101966249684 2.075 -4.85
      vertex -0.4854101966249684 2.075 -6.5
    endloop
  endfacet
  facet normal -1 0 0
    outer loop
      vertex -3.75 2.075 8.15
      vertex -3.75 0 -4.85
      vertex -3.75 -2.075 -4.85
    endloop
  endfacet
  facet normal 0 1 0
    outer loop
      vertex -3.15 2.075 -6.5
      vertex -3.75 2.075 8.15
      vertex 3.75 2.075 8.15
    endloop
  endfacet
  facet normal 0 -1 0
    outer loop
      vertex -3.75 -2.075 8.15
      vertex 3.75 -2.075 -4.85
      vertex 3.75 -2.075 8.15
    endloop
  endfacet
  facet normal 1 0 0
    outer loop
      vertex 3.75 -2.075 8.15
      vertex 3.75 -2.075 -4.85
      vertex 3.75 0 -4.85
    endloop
  endfacet
  facet normal 0 1 0
    outer loop
      vertex 3.15 2.075 -6.5
      vertex 0.6 2.075 -6.5
      vertex 0.6 2.075 -4.85
    endloop
  endfacet
  facet normal 0 1 0
    outer loop
      vertex -3.15 2.075 -6.5
      vertex 3.75 2.075 8.15
      vertex -0.4854101966249684 2.075 -4.85
    endloop
  endfacet
  facet normal 0 1 0
    outer loop
      vertex 3.15 2.075 -6.5
      vertex 0.6 2.075 -4.85
      vertex 3.75 2.075 8.15
    endloop
  endfacet
  facet normal 0 0 -1
    outer loop
      vertex 3.15 2.075 -8.15
      vertex 3.75 0 -8.15
      vertex 3.15 0 -8.15
    endloop
  endfacet
  facet normal 1 0 0
    outer loop
      vertex 3.75 2.075 -8.15
      vertex 3.75 0 -4.85
      vertex 3.75 0 -8.15
    endloop
  endfacet
  facet normal 0 0 -1
    outer loop
      vertex 3.15 2.075 -8.15
      vertex 3.75 2.075 -8.15
      vertex 3.75 0 -8.15
    endloop
  endfacet
  facet normal 1 0 0
    outer loop
      vertex 3.75 -2.075 8.15
      vertex 3.75 0 -4.85
      vertex 3.75 2.075 -8.15
    endloop
  endfacet
  facet normal 0 1 0
    outer loop
      vertex 3.15 2.075 -8.15
      vertex 3.15 2.075 -6.5
      vertex 3.75 2.075 -8.15
    endloop
  endfacet
  facet normal 0 1 0
    outer loop
      vertex 3.75 2.075 -8.15
      vertex 3.15 2.075 -6.5
      vertex 3.75 2.075 8.15
    endloop
  endfacet
  facet normal 0 0 1
    outer loop
      vertex -3.75 2.075 8.15
      vertex 3.75 -2.075 8.15
      vertex 3.75 2.075 8.15
    endloop
  endfacet
  facet normal 0 1 0
    outer loop
      vertex 3.75 2.075 8.15
      vertex 0.6 2.075 -4.85
      vertex -0.4854101966249684 2.075 -4.85
    endloop
  endfacet
  facet normal 1 0 0
    outer loop
      vertex 3.75 -2.075 8.15
      vertex 3.75 2.075 -8.15
      vertex 3.75 2.075 8.15
    endloop
  endfacet
  facet normal -1 0 0
    outer loop
      vertex -6 -4.15 -9.8
      vertex -6 -4.15 -8.15
      vertex -6 0 -8.15
    endloop
  endfacet
  facet normal -1 0 0
    outer loop
      vertex -6 -4.15 -9.8
      vertex -6 0 -8.15
      vertex -6 0 -9.8
    endloop
  endfacet
  facet normal 0 0 -1
    outer loop
      vertex -6 -4.15 -9.8
      vertex -6 0 -9.8
      vertex -3.15 0 -9.8
    endloop
  endfacet
  facet normal 0 0 -1
    outer loop
      vertex -6 -4.15 -9.8
      vertex -3.15 0 -9.8
      vertex -0.9708203932499369 -0.7053423027509678 -9.8
    endloop
  endfacet
  facet normal 0 -1 0
    outer loop
      vertex -6 -4.15 -9.8
      vertex 6 -4.15 -9.8
      vertex -6 -4.15 -8.15
    endloop
  endfacet
  facet normal 0 0 -1
    outer loop
      vertex -6 -4.15 -9.8
      vertex -0.9708203932499369 -0.7053423027509678 -9.8
      vertex 0.3708203932499369 -1.141267819554184 -9.8
    endloop
  endfacet
  facet normal 0 0 -1
    outer loop
      vertex -3.15 0 -9.8
      vertex -0.9708203932499369 0 -9.8
      vertex -0.9708203932499369 -0.7053423027509678 -9.8
    endloop
  endfacet
  facet normal 0 0 -1
    outer loop
      vertex -6 -4.15 -9.8
      vertex 0.3708203932499369 -1.141267819554184 -9.8
      vertex 3.15 0 -9.8
    endloop
  endfacet
  facet normal 0 1 0
    outer loop
      vertex -6 0 -9.8
      vertex -6 0 -8.15
      vertex -3.15 0 -8.15
    endloop
  endfacet
  facet normal 0 1 0
    outer loop
      vertex -6 0 -9.8
      vertex -3.15 0 -8.15
      vertex -3.15 0 -9.8
    endloop
  endfacet
  facet normal 0 -1 0
    outer loop
      vertex 6 -4.15 -9.8
      vertex 6 -4.15 -8.15
      vertex -6 -4.15 -8.15
    endloop
  endfacet
  facet normal 0 0 -1
    outer loop
      vertex -6 -4.15 -9.8
      vertex 6 0 -9.8
      vertex 6 -4.15 -9.8
    endloop
  endfacet
  facet normal 0 0 -1
    outer loop
      vertex -6 -4.15 -9.8
      vertex 3.15 0 -9.8
      vertex 6 0 -9.8
    endloop
  endfacet
  facet normal 0 0 -1
    outer loop
      vertex 3.15 0 -9.8
      vertex 0.3708203932499369 -1.141267819554184 -9.8
      vertex 1.2 0 -9.8
    endloop
  endfacet
  facet normal 1 0 0
    outer loop
      vertex 6 -4.15 -9.8
      vertex 6 0 -9.8
      vertex 6 -4.15 -8.15
    endloop
  endfacet
  facet normal 1 0 0
    outer loop
      vertex 6 0 -9.8
      vertex 6 0 -8.15
      vertex 6 -4.15 -8.15
    endloop
  endfacet
  facet normal 0 1 0
    outer loop
      vertex 3.15 0 -9.8
      vertex 3.15 0 -8.15
      vertex 6 0 -8.15
    endloop
  endfacet
  facet normal 0 1 0
    outer loop
      vertex 3.15 0 -9.8
      vertex 6 0 -8.15
      vertex 6 0 -9.8
    endloop
  endfacet
  facet normal -1 0 0
    outer loop
      vertex -3.15 0 -9.8
      vertex -3.15 0 -8.15
      vertex -3.15 2.075 -8.15
    endloop
  endfacet
  facet normal -1 0 0
    outer loop
      vertex -3.15 0 -9.8
      vertex -3.15 2.075 -8.15
      vertex -3.15 4.15 -9.8
    endloop
  endfacet
  facet normal -1 0 0
    outer loop
      vertex -3.15 2.075 -8.15
      vertex -3.15 2.075 -6.5
      vertex -3.15 4.15 -6.5
    endloop
  endfacet
  facet normal -1 0 0
    outer loop
      vertex -3.15 2.075 -8.15
      vertex -3.15 4.15 -6.5
      vertex -3.15 4.15 -9.8
    endloop
  endfacet
  facet normal 0 0 -1
    outer loop
      vertex -3.15 0 -9.8
      vertex -0.9708203932499369 0.7053423027509678 -9.8
      vertex -0.9708203932499369 0 -9.8
    endloop
  endfacet
  facet normal 0 0 -1
    outer loop
      vertex -3.15 0 -9.8
      vertex 3.15 4.15 -9.8
      vertex -0.9708203932499369 0.7053423027509678 -9.8
    endloop
  endfacet
  facet normal 0 0 -1
    outer loop
      vertex -3.15 0 -9.8
      vertex -3.15 4.15 -9.8
      vertex 3.15 4.15 -9.8
    endloop
  endfacet
  facet normal 0 0 1
    outer loop
      vertex -3.15 2.075 -6.5
      vertex -0.4854101966249684 2.075 -6.5
      vertex -0.4854101966249684 2.427671151375484 -6.5
    endloop
  endfacet
  facet normal 0 0 1
    outer loop
      vertex -3.15 2.075 -6.5
      vertex -0.4854101966249684 2.427671151375484 -6.5
      vertex 3.15 4.15 -6.5
    endloop
  endfacet
  facet normal 0 1 0
    outer loop
      vertex -3.15 4.15 -9.8
      vertex -3.15 4.15 -6.5
      vertex 3.15 4.15 -9.8
    endloop
  endfacet
  facet normal 0 0 1
    outer loop
      vertex -3.15 2.075 -6.5
      vertex 3.15 4.15 -6.5
      vertex -3.15 4.15 -6.5
    endloop
  endfacet
  facet normal 0 0 -1
    outer loop
      vertex 3.15 4.15 -9.8
      vertex 0.3708203932499369 1.141267819554184 -9.8
      vertex -0.9708203932499369 0.7053423027509678 -9.8
    endloop
  endfacet
  facet normal 0 0 -1
    outer loop
      vertex 3.15 4.15 -9.8
      vertex 1.2 0 -9.8
      vertex 0.3708203932499369 1.141267819554184 -9.8
    endloop
  endfacet
  facet normal 0 0 -1
    outer loop
      vertex 3.15 0 -9.8
      vertex 1.2 0 -9.8
      vertex 3.15 4.15 -9.8
    endloop
  endfacet
  facet normal 0 0 1
    outer loop
      vertex 3.15 4.15 -6.5
      vertex -0.4854101966249684 2.427671151375484 -6.5
      vertex 0.18541019662496844 2.645633909777092 -6.5
    endloop
  endfacet
  facet normal 0 0 1
    outer loop
      vertex 3.15 4.15 -6.5
      vertex 0.18541019662496844 2.645633909777092 -6.5
      vertex 0.6 2.075 -6.5
    endloop
  endfacet
  facet normal 0 1 0
    outer loop
      vertex -3.15 4.15 -6.5
      vertex 3.15 4.15 -6.5
      vertex 3.15 4.15 -9.8
    endloop
  endfacet
  facet normal 0 0 1
    outer loop
      vertex 3.15 2.075 -6.5
      vertex 3.15 4.15 -6.5
      vertex 0.6 2.075 -6.5
    endloop
  endfacet
  facet normal 1 0 0
    outer loop
      vertex 3.15 0 -9.8
      vertex 3.15 2.075 -8.15
      vertex 3.15 0 -8.15
    endloop
  endfacet
  facet normal 1 0 0
    outer loop
      vertex 3.15 0 -9.8
      vertex 3.15 4.15 -9.8
      vertex 3.15 2.075 -8.15
    endloop
  endfacet
  facet normal 1 0 0
    outer loop
      vertex 3.15 2.075 -8.15
      vertex 3.15 4.15 -6.5
      vertex 3.15 2.075 -6.5
    endloop
  endfacet
  facet normal 1 0 0
    outer loop
      vertex 3.15 2.075 -8.15
      vertex 3.15 4.15 -9.8
      vertex 3.15 4.15 -6.5
    endloop
  endfacet
  facet normal 0 0 1
    outer loop
      vertex -0.9708203932499369 -0.7053423027509678 -8.15
      vertex -6 0 -8.15
      vertex -6 -4.15 -8.15
    endloop
  endfacet
  facet normal 0 0 1
    outer loop
      vertex -0.9708203932499369 -0.7053423027509678 -8.15
      vertex -3.15 0 -8.15
      vertex -6 0 -8.15
    endloop
  endfacet
  facet normal 0 0 1
    outer loop
      vertex -0.9708203932499369 -0.7053423027509678 -8.15
      vertex -6 -4.15 -8.15
      vertex 0.3708203932499369 -1.141267819554184 -8.15
    endloop
  endfacet
  facet normal 0 0 1
    outer loop
      vertex -0.9708203932499369 -0.7053423027509678 -8.15
      vertex -0.9708203932499369 0 -8.15
      vertex -3.15 0 -8.15
    endloop
  endfacet
  facet normal 0 0 -1
    outer loop
      vertex -3.75 -2.075 -4.85
      vertex -3.75 0 -4.85
      vertex 3.75 -2.075 -4.85
    endloop
  endfacet
  facet normal 0 -1 0
    outer loop
      vertex -3.75 0 -8.15
      vertex -3.15 0 -8.15
      vertex -3.75 0 -4.85
    endloop
  endfacet
  facet normal 0 -1 0
    outer loop
      vertex -0.9708203932499369 0 -8.15
      vertex -0.9708203932499369 0 -6.5
      vertex -3.15 0 -8.15
    endloop
  endfacet
  facet normal 0 -1 0
    outer loop
      vertex -0.9708203932499369 0 -6.5
      vertex -3.75 0 -4.85
      vertex -3.15 0 -8.15
    endloop
  endfacet
  facet normal 0 -1 0
    outer loop
      vertex -0.9708203932499369 0 -6.5
      vertex 1.2 0 -6.5
      vertex -3.75 0 -4.85
    endloop
  endfacet
  facet normal 0 0 1
    outer loop
      vertex -6 -4.15 -8.15
      vertex 6 -4.15 -8.15
      vertex 6 0 -8.15
    endloop
  endfacet
  facet normal 0 0 1
    outer loop
      vertex 0.3708203932499369 -1.141267819554184 -8.15
      vertex -6 -4.15 -8.15
      vertex 6 0 -8.15
    endloop
  endfacet
  facet normal 0 0 1
    outer loop
      vertex 0.3708203932499369 -1.141267819554184 -8.15
      vertex 3.15 0 -8.15
      vertex 1.2 0 -8.15
    endloop
  endfacet
  facet normal 0 0 -1
    outer loop
      vertex 3.75 -2.075 -4.85
      vertex -3.75 0 -4.85
      vertex 3.75 0 -4.85
    endloop
  endfacet
  facet normal 0 0 1
    outer loop
      vertex 0.3708203932499369 -1.141267819554184 -8.15
      vertex 6 0 -8.15
      vertex 3.15 0 -8.15
    endloop
  endfacet
  facet normal 0 -1 0
    outer loop
      vertex 1.2 0 -6.5
      vertex 3.75 0 -4.85
      vertex -3.75 0 -4.85
    endloop
  endfacet
  facet normal 0 -1 0
    outer loop
      vertex 1.2 0 -8.15
      vertex 3.15 0 -8.15
      vertex 1.2 0 -6.5
    endloop
  endfacet
  facet normal 0 -1 0
    outer loop
      vertex 3.15 0 -8.15
      vertex 3.75 0 -8.15
      vertex 1.2 0 -6.5
    endloop
  endfacet
  facet normal 0 -1 0
    outer loop
      vertex 1.2 0 -6.5
      vertex 3.75 0 -8.15
      vertex 3.75 0 -4.85
    endloop
  endfacet
  facet normal 1 0 0
    outer loop
      vertex -0.9708203932499369 -0.7053423027509678 -8.15
      vertex -0.9708203932499369 -0.7053423027509678 -9.8
      vertex -0.9708203932499369 0 -8.15
    endloop
  endfacet
  facet normal 1 0 0
    outer loop
      vertex -0.9708203932499369 0 -9.8
      vertex -0.9708203932499369 0 -8.15
      vertex -0.9708203932499369 -0.7053423027509678 -9.8
    endloop
  endfacet
  facet normal 0.30901699437494734 0.9510565162951535 0
    outer loop
      vertex -0.9708203932499369 -0.7053423027509678 -8.15
      vertex 0.3708203932499369 -1.141267819554184 -9.8
      vertex -0.9708203932499369 -0.7053423027509678 -9.8
    endloop
  endfacet
  facet normal 0.30901699437494734 0.9510565162951535 0
    outer loop
      vertex -0.9708203932499369 -0.7053423027509678 -8.15
      vertex 0.3708203932499369 -1.141267819554184 -8.15
      vertex 0.3708203932499369 -1.141267819554184 -9.8
    endloop
  endfacet
  facet normal 1 0 0
    outer loop
      vertex -0.9708203932499369 0 -8.15
      vertex -0.9708203932499369 0 -9.8
      vertex -0.9708203932499369 0.7053423027509678 -9.8
    endloop
  endfacet
  facet normal 1 0 0
    outer loop
      vertex -0.9708203932499369 0 -8.15
      vertex -0.9708203932499369 0.7053423027509678 -9.8
      vertex -0.9708203932499369 0.7053423027509678 -6.5
    endloop
  endfacet
  facet normal 0.30901699437494734 -0.9510565162951535 0
    outer loop
      vertex -0.9708203932499369 0.7053423027509678 -6.5
      vertex -0.9708203932499369 0.7053423027509678 -9.8
      vertex 0.3708203932499369 1.141267819554184 -9.8
    endloop
  endfacet
  facet normal 0.30901699437494734 -0.9510565162951535 0
    outer loop
      vertex -0.9708203932499369 0.7053423027509678 -6.5
      vertex 0.3708203932499369 1.141267819554184 -9.8
      vertex 0.3708203932499369 1.141267819554184 -6.5
    endloop
  endfacet
  facet normal 1 0 0
    outer loop
      vertex -0.9708203932499369 0 -8.15
      vertex -0.9708203932499369 0.7053423027509678 -6.5
      vertex -0.9708203932499369 0 -6.5
    endloop
  endfacet
  facet normal 0 0 -1
    outer loop
      vertex -0.9708203932499369 0 -6.5
      vertex -0.9708203932499369 0.7053423027509678 -6.5
      vertex 1.2 0 -6.5
    endloop
  endfacet
  facet normal -0.8090169943749472 0.5877852522924731 0
    outer loop
      vertex 0.3708203932499369 -1.141267819554184 -8.15
      vertex 1.2 0 -9.8
      vertex 0.3708203932499369 -1.141267819554184 -9.8
    endloop
  endfacet
  facet normal -0.8090169943749472 0.5877852522924731 0
    outer loop
      vertex 0.3708203932499369 -1.141267819554184 -8.15
      vertex 1.2 0 -8.15
      vertex 1.2 0 -9.8
    endloop
  endfacet
  facet normal -0.8090169943749472 -0.5877852522924731 0
    outer loop
      vertex 1.2 0 -6.5
      vertex 0.3708203932499369 1.141267819554184 -6.5
      vertex 0.3708203932499369 1.141267819554184 -9.8
    endloop
  endfacet
  facet normal -0.8090169943749472 -0.5877852522924731 0
    outer loop
      vertex 1.2 0 -8.15
      vertex 0.3708203932499369 1.141267819554184 -9.8
      vertex 1.2 0 -9.8
    endloop
  endfacet
  facet normal -0.8090169943749472 -0.5877852522924731 0
    outer loop
      vertex 1.2 0 -8.15
      vertex 1.2 0 -6.5
      vertex 0.3708203932499369 1.141267819554184 -9.8
    endloop
  endfacet
  facet normal 0 0 -1
    outer loop
      vertex -0.9708203932499369 0.7053423027509678 -6.5
      vertex 0.3708203932499369 1.141267819554184 -6.5
      vertex 1.2 0 -6.5
    endloop
  endfacet
  facet normal 0 0 1
    outer loop
      vertex -0.4854101966249684 1.7223288486245163 -8.15
      vertex 0.18541019662496844 1.5043660902229081 -8.15
      vertex 0.18541019662496844 2.645633909777092 -8.15
    endloop
  endfacet
  facet normal 1 0 0
    outer loop
      vertex -0.4854101966249684 1.7223288486245163 -8.15
      vertex -0.4854101966249684 2.075 -6.5
      vertex -0.4854101966249684 1.7223288486245163 -4.85
    endloop
  endfacet
  facet normal 0.30901699437494734 0.9510565162951535 0
    outer loop
      vertex -0.4854101966249684 1.7223288486245163 -8.15
      vertex 0.18541019662496844 1.5043660902229081 -4.85
      vertex 0.18541019662496844 1.5043660902229081 -8.15
    endloop
  endfacet
  facet normal 1 0 0
    outer loop
      vertex -0.4854101966249684 1.7223288486245163 -4.85
      vertex -0.4854101966249684 2.075 -6.5
      vertex -0.4854101966249684 2.075 -4.85
    endloop
  endfacet
  facet normal 0.30901699437494734 0.9510565162951535 0
    outer loop
      vertex -0.4854101966249684 1.7223288486245163 -8.15
      vertex -0.4854101966249684 1.7223288486245163 -4.85
      vertex 0.18541019662496844 1.5043660902229081 -4.85
    endloop
  endfacet
  facet normal 0 0 -1
    outer loop
      vertex -0.4854101966249684 1.7223288486245163 -4.85
      vertex -0.4854101966249684 2.075 -4.85
      vertex 0.18541019662496844 1.5043660902229081 -4.85
    endloop
  endfacet
  facet normal 1 0 0
    outer loop
      vertex -0.4854101966249684 1.7223288486245163 -8.15
      vertex -0.4854101966249684 2.427671151375484 -8.15
      vertex -0.4854101966249684 2.075 -6.5
    endloop
  endfacet
  facet normal 0 0 1
    outer loop
      vertex -0.4854101966249684 1.7223288486245163 -8.15
      vertex 0.18541019662496844 2.645633909777092 -8.15
      vertex -0.4854101966249684 2.427671151375484 -8.15
    endloop
  endfacet
  facet normal 0.30901699437494734 -0.9510565162951535 0
    outer loop
      vertex -0.4854101966249684 2.427671151375484 -8.15
      vertex 0.18541019662496844 2.645633909777092 -8.15
      vertex 0.18541019662496844 2.645633909777092 -6.5
    endloop
  endfacet
  facet normal 1 0 0
    outer loop
      vertex -0.4854101966249684 2.427671151375484 -8.15
      vertex -0.4854101966249684 2.427671151375484 -6.5
      vertex -0.4854101966249684 2.075 -6.5
    endloop
  endfacet
  facet normal 0.30901699437494734 -0.9510565162951535 0
    outer loop
      vertex -0.4854101966249684 2.427671151375484 -8.15
      vertex 0.18541019662496844 2.645633909777092 -6.5
      vertex -0.4854101966249684 2.427671151375484 -6.5
    endloop
  endfacet
  facet normal -0.8090169943749472 0.5877852522924731 0
    outer loop
      vertex 0.18541019662496844 1.5043660902229081 -8.15
      vertex 0.18541019662496844 1.5043660902229081 -4.85
      vertex 0.6 2.075 -8.15
    endloop
  endfacet
  facet normal -0.8090169943749472 0.5877852522924731 0
    outer loop
      vertex 0.6 2.075 -8.15
      vertex 0.18541019662496844 1.5043660902229081 -4.85
      vertex 0.6 2.075 -6.5
    endloop
  endfacet
  facet normal -0.8090169943749472 0.5877852522924731 0
    outer loop
      vertex 0.18541019662496844 1.5043660902229081 -4.85
      vertex 0.6 2.075 -4.85
      vertex 0.6 2.075 -6.5
    endloop
  endfacet
  facet normal 0 0 -1
    outer loop
      vertex 0.18541019662496844 1.5043660902229081 -4.85
      vertex -0.4854101966249684 2.075 -4.85
      vertex 0.6 2.075 -4.85
    endloop
  endfacet
  facet normal 0 0 1
    outer loop
      vertex 0.18541019662496844 1.5043660902229081 -8.15
      vertex 0.6 2.075 -8.15
      vertex 0.18541019662496844 2.645633909777092 -8.15
    endloop
  endfacet
  facet normal -0.8090169943749473 -0.5877852522924734 0
    outer loop
      vertex 0.6 2.075 -8.15
      vertex 0.6 2.075 -6.5
      vertex 0.18541019662496844 2.645633909777092 -8.15
    endloop
  endfacet
  facet normal -0.8090169943749473 -0.5877852522924734 0
    outer loop
      vertex 0.18541019662496844 2.645633909777092 -8.15
      vertex 0.6 2.075 -6.5
      vertex 0.18541019662496844 2.645633909777092 -6.5
    endloop
  endfacet
endsolid OpenSCAD_Model
