solid OpenSCAD_Model
  facet normal 0 0 -1
    outer loop
      vertex -32.3606797749979 -23.511410091698927 0
      vertex -23.419571222560037 -26.010068891708798 0
      vertex -26.76522425435433 -29.725793019095768 0
    endloop
  endfacet
  facet normal 0 0 -1
    outer loop
      vertex -32.3606797749979 -23.511410091698927 0
      vertex -28.31559480312316 -20.57248383023656 0
      vertex -23.419571222560037 -26.010068891708798 0
    endloop
  endfacet
  facet normal 0 0 -1
    outer loop
      vertex -26.76522425435433 -29.725793019095768 0
      vertex -17.5 -30.31088913245535 0
      vertex -20 -34.64101615137754 0
    endloop
  endfacet
  facet normal 0 0 -1
    outer loop
      vertex -20 -34.64101615137754 0
      vertex -10.815594803123158 -33.28697807033037 0
      vertex -12.360679774997896 -38.04226065180614 0
    endloop
  endfacet
  facet normal 0 0 -1
    outer loop
      vertex -20 -34.64101615137754 0
      vertex -17.5 -30.31088913245535 0
      vertex -10.815594803123158 -33.28697807033037 0
    endloop
  endfacet
  facet normal 0 0 -1
    outer loop
      vertex -26.76522425435433 -29.725793019095768 0
      vertex -23.419571222560037 -26.010068891708798 0
      vertex -17.5 -30.31088913245535 0
    endloop
  endfacet
  facet normal -0.743144825477394 -0.6691306063588583 0
    outer loop
      vertex -32.3606797749979 -23.511410091698927 0
      vertex -26.76522425435433 -29.725793019095768 0
      vertex -32.3606797749979 -23.511410091698927 90
    endloop
  endfacet
  facet normal -0.5877852522924729 -0.8090169943749476 0
    outer loop
      vertex -26.76522425435433 -29.725793019095768 0
      vertex -20 -34.64101615137754 0
      vertex -20 -34.64101615137754 90
    endloop
  endfacet
  facet normal -0.4067366430758001 -0.913545457642601 0
    outer loop
      vertex -20 -34.64101615137754 0
      vertex -12.360679774997896 -38.04226065180614 0
      vertex -12.360679774997896 -38.04226065180614 90
    endloop
  endfacet
  facet normal 0 0 -1
    outer loop
      vertex -32.3606797749979 -23.511410091698927 0
      vertex -36.541818305704034 -16.26946572303201 0
      vertex -31.97409101749103 -14.235782507653008 0
    endloop
  endfacet
  facet normal 0 0 -1
    outer loop
      vertex -36.541818305704034 -16.26946572303201 0
      vertex -34.2351660256832 -7.276909178621577 0
      vertex -31.97409101749103 -14.235782507653008 0
    endloop
  endfacet
  facet normal 0 0 -1
    outer loop
      vertex -32.3606797749979 -23.511410091698927 0
      vertex -31.97409101749103 -14.235782507653008 0
      vertex -28.31559480312316 -20.57248383023656 0
    endloop
  endfacet
  facet normal 0 0 -1
    outer loop
      vertex -36.541818305704034 -16.26946572303201 0
      vertex -35 0 0
      vertex -34.2351660256832 -7.276909178621577 0
    endloop
  endfacet
  facet normal 0 0 -1
    outer loop
      vertex -36.541818305704034 -16.26946572303201 0
      vertex -39.12590402935223 -8.316467632710374 0
      vertex -36.541818305704034 16.26946572303201 0
    endloop
  endfacet
  facet normal -0.8660254037844388 -0.4999999999999997 0
    outer loop
      vertex -32.3606797749979 -23.511410091698927 0
      vertex -36.541818305704034 -16.26946572303201 90
      vertex -36.541818305704034 -16.26946572303201 0
    endloop
  endfacet
  facet normal -0.9510565162951534 -0.30901699437494784 0
    outer loop
      vertex -36.541818305704034 -16.26946572303201 0
      vertex -39.12590402935223 -8.316467632710374 90
      vertex -39.12590402935223 -8.316467632710374 0
    endloop
  endfacet
  facet normal -0.9945218953682735 -0.10452846326765322 0
    outer loop
      vertex -39.12590402935223 -8.316467632710374 0
      vertex -40 0 90
      vertex -40 0 0
    endloop
  endfacet
  facet normal 0 0 -1
    outer loop
      vertex -12.360679774997896 -38.04226065180614 0
      vertex -3.6584962143678714 -34.80826633788956 0
      vertex -4.181138530706139 -39.78087581473093 0
    endloop
  endfacet
  facet normal 0 0 -1
    outer loop
      vertex -12.360679774997896 -38.04226065180614 0
      vertex -10.815594803123158 -33.28697807033037 0
      vertex -3.6584962143678714 -34.80826633788956 0
    endloop
  endfacet
  facet normal 0 0 -1
    outer loop
      vertex -4.181138530706139 -39.78087581473093 0
      vertex 3.6584962143678714 -34.80826633788956 0
      vertex 4.181138530706139 -39.78087581473093 0
    endloop
  endfacet
  facet normal 0 0 -1
    outer loop
      vertex -4.181138530706139 -39.78087581473093 0
      vertex -3.6584962143678714 -34.80826633788956 0
      vertex 3.6584962143678714 -34.80826633788956 0
    endloop
  endfacet
  facet normal 0 0 -1
    outer loop
      vertex 4.181138530706139 -39.78087581473093 0
      vertex 3.6584962143678714 -34.80826633788956 0
      vertex 10.815594803123158 -33.28697807033037 0
    endloop
  endfacet
  facet normal 0 0 -1
    outer loop
      vertex 4.181138530706139 -39.78087581473093 0
      vertex 10.815594803123158 -33.28697807033037 0
      vertex 12.360679774997896 -38.04226065180614 0
    endloop
  endfacet
  facet normal 0 0 -1
    outer loop
      vertex 12.360679774997896 -38.04226065180614 0
      vertex 10.815594803123158 -33.28697807033037 0
      vertex 17.5 -30.31088913245535 0
    endloop
  endfacet
  facet normal 0 0 -1
    outer loop
      vertex 12.360679774997896 -38.04226065180614 0
      vertex 17.5 -30.31088913245535 0
      vertex 20 -34.64101615137754 0
    endloop
  endfacet
  facet normal 0 0 -1
    outer loop
      vertex 20 -34.64101615137754 0
      vertex 17.5 -30.31088913245535 0
      vertex 23.419571222560037 -26.010068891708798 0
    endloop
  endfacet
  facet normal -0.20791169081775981 -0.9781476007338055 0
    outer loop
      vertex -12.360679774997896 -38.04226065180614 0
      vertex -4.181138530706139 -39.78087581473093 0
      vertex -4.181138530706139 -39.78087581473093 90
    endloop
  endfacet
  facet normal 0 -1 0
    outer loop
      vertex -4.181138530706139 -39.78087581473093 0
      vertex 4.181138530706139 -39.78087581473093 0
      vertex 4.181138530706139 -39.78087581473093 90
    endloop
  endfacet
  facet normal 0.20791169081775981 -0.9781476007338055 0
    outer loop
      vertex 4.181138530706139 -39.78087581473093 0
      vertex 12.360679774997896 -38.04226065180614 0
      vertex 12.360679774997896 -38.04226065180614 90
    endloop
  endfacet
  facet normal 0.4067366430758001 -0.913545457642601 0
    outer loop
      vertex 12.360679774997896 -38.04226065180614 0
      vertex 20 -34.64101615137754 0
      vertex 20 -34.64101615137754 90
    endloop
  endfacet
  facet normal -0.8660254037844388 -0.4999999999999997 0
    outer loop
      vertex -32.3606797749979 -23.511410091698927 0
      vertex -32.3606797749979 -23.511410091698927 90
      vertex -36.541818305704034 -16.26946572303201 90
    endloop
  endfacet
  facet normal -0.743144825477394 -0.6691306063588583 0
    outer loop
      vertex -26.76522425435433 -29.725793019095768 0
      vertex -26.76522425435433 -29.725793019095768 90
      vertex -32.3606797749979 -23.511410091698927 90
    endloop
  endfacet
  facet normal -0.4067366430758001 -0.913545457642601 0
    outer loop
      vertex -20 -34.64101615137754 0
      vertex -12.360679774997896 -38.04226065180614 90
      vertex -20 -34.64101615137754 90
    endloop
  endfacet
  facet normal -0.5877852522924729 -0.8090169943749476 0
    outer loop
      vertex -26.76522425435433 -29.725793019095768 0
      vertex -20 -34.64101615137754 90
      vertex -26.76522425435433 -29.725793019095768 90
    endloop
  endfacet
  facet normal -0.20791169081775981 -0.9781476007338055 0
    outer loop
      vertex -12.360679774997896 -38.04226065180614 0
      vertex -4.181138530706139 -39.78087581473093 90
      vertex -12.360679774997896 -38.04226065180614 90
    endloop
  endfacet
  facet normal 0 0 1
    outer loop
      vertex -26.76522425435433 -29.725793019095768 90
      vertex -23.419571222560037 -26.010068891708798 90
      vertex -28.31559480312316 -20.57248383023656 90
    endloop
  endfacet
  facet normal 0 0 1
    outer loop
      vertex -32.3606797749979 -23.511410091698927 90
      vertex -26.76522425435433 -29.725793019095768 90
      vertex -28.31559480312316 -20.57248383023656 90
    endloop
  endfacet
  facet normal 0 0 1
    outer loop
      vertex -26.76522425435433 -29.725793019095768 90
      vertex -20 -34.64101615137754 90
      vertex -23.419571222560037 -26.010068891708798 90
    endloop
  endfacet
  facet normal 0 0 1
    outer loop
      vertex -20 -34.64101615137754 90
      vertex -17.5 -30.31088913245535 90
      vertex -23.419571222560037 -26.010068891708798 90
    endloop
  endfacet
  facet normal 0 0 1
    outer loop
      vertex -20 -34.64101615137754 90
      vertex -12.360679774997896 -38.04226065180614 90
      vertex -17.5 -30.31088913245535 90
    endloop
  endfacet
  facet normal 0 0 1
    outer loop
      vertex -12.360679774997896 -38.04226065180614 90
      vertex -10.815594803123158 -33.28697807033037 90
      vertex -17.5 -30.31088913245535 90
    endloop
  endfacet
  facet normal -0.9510565162951534 -0.30901699437494784 0
    outer loop
      vertex -36.541818305704034 -16.26946572303201 0
      vertex -36.541818305704034 -16.26946572303201 90
      vertex -39.12590402935223 -8.316467632710374 90
    endloop
  endfacet
  facet normal -0.9945218953682735 -0.10452846326765322 0
    outer loop
      vertex -39.12590402935223 -8.316467632710374 0
      vertex -39.12590402935223 -8.316467632710374 90
      vertex -40 0 90
    endloop
  endfacet
  facet normal 0 0 1
    outer loop
      vertex -32.3606797749979 -23.511410091698927 90
      vertex -34.2351660256832 -7.276909178621577 90
      vertex -36.541818305704034 -16.26946572303201 90
    endloop
  endfacet
  facet normal 0 0 1
    outer loop
      vertex -32.3606797749979 -23.511410091698927 90
      vertex -31.97409101749103 -14.235782507653008 90
      vertex -34.2351660256832 -7.276909178621577 90
    endloop
  endfacet
  facet normal 0 0 1
    outer loop
      vertex -32.3606797749979 -23.511410091698927 90
      vertex -28.31559480312316 -20.57248383023656 90
      vertex -31.97409101749103 -14.235782507653008 90
    endloop
  endfacet
  facet normal 0 0 1
    outer loop
      vertex -36.541818305704034 -16.26946572303201 90
      vertex -39.12590402935223 8.316467632710374 90
      vertex -39.12590402935223 -8.316467632710374 90
    endloop
  endfacet
  facet normal 0 0 1
    outer loop
      vertex -36.541818305704034 -16.26946572303201 90
      vertex -34.2351660256832 -7.276909178621577 90
      vertex -35 0 90
    endloop
  endfacet
  facet normal 0 -1 0
    outer loop
      vertex -4.181138530706139 -39.78087581473093 0
      vertex 4.181138530706139 -39.78087581473093 90
      vertex -4.181138530706139 -39.78087581473093 90
    endloop
  endfacet
  facet normal 0.20791169081775981 -0.9781476007338055 0
    outer loop
      vertex 4.181138530706139 -39.78087581473093 0
      vertex 12.360679774997896 -38.04226065180614 90
      vertex 4.181138530706139 -39.78087581473093 90
    endloop
  endfacet
  facet normal 0.4067366430758001 -0.913545457642601 0
    outer loop
      vertex 12.360679774997896 -38.04226065180614 0
      vertex 20 -34.64101615137754 90
      vertex 12.360679774997896 -38.04226065180614 90
    endloop
  endfacet
  facet normal 0 0 1
    outer loop
      vertex -12.360679774997896 -38.04226065180614 90
      vertex -4.181138530706139 -39.78087581473093 90
      vertex -10.815594803123158 -33.28697807033037 90
    endloop
  endfacet
  facet normal 0 0 1
    outer loop
      vertex -4.181138530706139 -39.78087581473093 90
      vertex -3.6584962143678714 -34.80826633788956 90
      vertex -10.815594803123158 -33.28697807033037 90
    endloop
  endfacet
  facet normal 0 0 1
    outer loop
      vertex -4.181138530706139 -39.78087581473093 90
      vertex 4.181138530706139 -39.78087581473093 90
      vertex -3.6584962143678714 -34.80826633788956 90
    endloop
  endfacet
  facet normal 0 0 1
    outer loop
      vertex 4.181138530706139 -39.78087581473093 90
      vertex 3.6584962143678714 -34.80826633788956 90
      vertex -3.6584962143678714 -34.80826633788956 90
    endloop
  endfacet
  facet normal 0 0 1
    outer loop
      vertex 4.181138530706139 -39.78087581473093 90
      vertex 12.360679774997896 -38.04226065180614 90
      vertex 3.6584962143678714 -34.80826633788956 90
    endloop
  endfacet
  facet normal 0 0 1
    outer loop
      vertex 12.360679774997896 -38.04226065180614 90
      vertex 10.815594803123158 -33.28697807033037 90
      vertex 3.6584962143678714 -34.80826633788956 90
    endloop
  endfacet
  facet normal 0 0 1
    outer loop
      vertex 12.360679774997896 -38.04226065180614 90
      vertex 20 -34.64101615137754 90
      vertex 10.815594803123158 -33.28697807033037 90
    endloop
  endfacet
  facet normal 0 0 1
    outer loop
      vertex 20 -34.64101615137754 90
      vertex 17.5 -30.31088913245535 90
      vertex 10.815594803123158 -33.28697807033037 90
    endloop
  endfacet
  facet normal 0 0 -1
    outer loop
      vertex -39.12590402935223 -8.316467632710374 0
      vertex -40 0 0
      vertex -39.12590402935223 8.316467632710374 0
    endloop
  endfacet
  facet normal 0 0 -1
    outer loop
      vertex -36.541818305704034 -16.26946572303201 0
      vertex -36.541818305704034 16.26946572303201 0
      vertex -35 0 0
    endloop
  endfacet
  facet normal 0 0 -1
    outer loop
      vertex -39.12590402935223 -8.316467632710374 0
      vertex -39.12590402935223 8.316467632710374 0
      vertex -36.541818305704034 16.26946572303201 0
    endloop
  endfacet
  facet normal 0 0 -1
    outer loop
      vertex -36.541818305704034 16.26946572303201 0
      vertex -34.2351660256832 7.276909178621577 0
      vertex -35 0 0
    endloop
  endfacet
  facet normal 0 0 -1
    outer loop
      vertex -36.541818305704034 16.26946572303201 0
      vertex -32.3606797749979 23.511410091698927 0
      vertex -34.2351660256832 7.276909178621577 0
    endloop
  endfacet
  facet normal 0 0 -1
    outer loop
      vertex -32.3606797749979 23.511410091698927 0
      vertex -31.97409101749103 14.235782507653008 0
      vertex -34.2351660256832 7.276909178621577 0
    endloop
  endfacet
  facet normal 0 0 -1
    outer loop
      vertex -32.3606797749979 23.511410091698927 0
      vertex -28.31559480312316 20.57248383023656 0
      vertex -31.97409101749103 14.235782507653008 0
    endloop
  endfacet
  facet normal -0.9945218953682735 0.10452846326765322 0
    outer loop
      vertex -40 0 0
      vertex -39.12590402935223 8.316467632710374 90
      vertex -39.12590402935223 8.316467632710374 0
    endloop
  endfacet
  facet normal -0.9510565162951534 0.30901699437494784 0
    outer loop
      vertex -39.12590402935223 8.316467632710374 0
      vertex -36.541818305704034 16.26946572303201 90
      vertex -36.541818305704034 16.26946572303201 0
    endloop
  endfacet
  facet normal 0 0 -1
    outer loop
      vertex -32.3606797749979 23.511410091698927 0
      vertex -26.76522425435433 29.725793019095768 0
      vertex -28.31559480312316 20.57248383023656 0
    endloop
  endfacet
  facet normal 0 0 -1
    outer loop
      vertex -26.76522425435433 29.725793019095768 0
      vertex -23.419571222560037 26.010068891708798 0
      vertex -28.31559480312316 20.57248383023656 0
    endloop
  endfacet
  facet normal 0 0 -1
    outer loop
      vertex -26.76522425435433 29.725793019095768 0
      vertex -20 34.64101615137754 0
      vertex -23.419571222560037 26.010068891708798 0
    endloop
  endfacet
  facet normal 0 0 -1
    outer loop
      vertex -20 34.64101615137754 0
      vertex -17.5 30.31088913245535 0
      vertex -23.419571222560037 26.010068891708798 0
    endloop
  endfacet
  facet normal 0 0 -1
    outer loop
      vertex -20 34.64101615137754 0
      vertex -12.360679774997896 38.04226065180614 0
      vertex -17.5 30.31088913245535 0
    endloop
  endfacet
  facet normal 0 0 -1
    outer loop
      vertex -12.360679774997896 38.04226065180614 0
      vertex -10.815594803123158 33.28697807033037 0
      vertex -17.5 30.31088913245535 0
    endloop
  endfacet
  facet normal -0.8660254037844388 0.4999999999999997 0
    outer loop
      vertex -36.541818305704034 16.26946572303201 0
      vertex -32.3606797749979 23.511410091698927 90
      vertex -32.3606797749979 23.511410091698927 0
    endloop
  endfacet
  facet normal -0.743144825477394 0.6691306063588583 0
    outer loop
      vertex -32.3606797749979 23.511410091698927 0
      vertex -26.76522425435433 29.725793019095768 90
      vertex -26.76522425435433 29.725793019095768 0
    endloop
  endfacet
  facet normal -0.5877852522924729 0.8090169943749476 0
    outer loop
      vertex -26.76522425435433 29.725793019095768 0
      vertex -26.76522425435433 29.725793019095768 90
      vertex -20 34.64101615137754 0
    endloop
  endfacet
  facet normal -0.4067366430758001 0.913545457642601 0
    outer loop
      vertex -20 34.64101615137754 0
      vertex -20 34.64101615137754 90
      vertex -12.360679774997896 38.04226065180614 0
    endloop
  endfacet
  facet normal -0.20791169081775981 0.9781476007338055 0
    outer loop
      vertex -12.360679774997896 38.04226065180614 0
      vertex -12.360679774997896 38.04226065180614 90
      vertex -4.181138530706139 39.78087581473093 0
    endloop
  endfacet
  facet normal 0 0 -1
    outer loop
      vertex -12.360679774997896 38.04226065180614 0
      vertex -4.181138530706139 39.78087581473093 0
      vertex -10.815594803123158 33.28697807033037 0
    endloop
  endfacet
  facet normal 0 0 -1
    outer loop
      vertex -4.181138530706139 39.78087581473093 0
      vertex -3.6584962143678714 34.80826633788956 0
      vertex -10.815594803123158 33.28697807033037 0
    endloop
  endfacet
  facet normal 0 0 -1
    outer loop
      vertex 4.181138530706139 39.78087581473093 0
      vertex 3.6584962143678714 34.80826633788956 0
      vertex -3.6584962143678714 34.80826633788956 0
    endloop
  endfacet
  facet normal 0 0 -1
    outer loop
      vertex -4.181138530706139 39.78087581473093 0
      vertex 4.181138530706139 39.78087581473093 0
      vertex -3.6584962143678714 34.80826633788956 0
    endloop
  endfacet
  facet normal 0 0 -1
    outer loop
      vertex 12.360679774997896 38.04226065180614 0
      vertex 10.815594803123158 33.28697807033037 0
      vertex 3.6584962143678714 34.80826633788956 0
    endloop
  endfacet
  facet normal 0 0 -1
    outer loop
      vertex 4.181138530706139 39.78087581473093 0
      vertex 12.360679774997896 38.04226065180614 0
      vertex 3.6584962143678714 34.80826633788956 0
    endloop
  endfacet
  facet normal 0 0 -1
    outer loop
      vertex 20 34.64101615137754 0
      vertex 17.5 30.31088913245535 0
      vertex 10.815594803123158 33.28697807033037 0
    endloop
  endfacet
  facet normal 0 0 -1
    outer loop
      vertex 12.360679774997896 38.04226065180614 0
      vertex 20 34.64101615137754 0
      vertex 10.815594803123158 33.28697807033037 0
    endloop
  endfacet
  facet normal 0 1 0
    outer loop
      vertex -4.181138530706139 39.78087581473093 0
      vertex -4.181138530706139 39.78087581473093 90
      vertex 4.181138530706139 39.78087581473093 0
    endloop
  endfacet
  facet normal 0.20791169081775981 0.9781476007338055 0
    outer loop
      vertex 4.181138530706139 39.78087581473093 0
      vertex 4.181138530706139 39.78087581473093 90
      vertex 12.360679774997896 38.04226065180614 0
    endloop
  endfacet
  facet normal 0.4067366430758001 0.913545457642601 0
    outer loop
      vertex 12.360679774997896 38.04226065180614 0
      vertex 12.360679774997896 38.04226065180614 90
      vertex 20 34.64101615137754 0
    endloop
  endfacet
  facet normal -0.9945218953682735 0.10452846326765322 0
    outer loop
      vertex -40 0 0
      vertex -40 0 90
      vertex -39.12590402935223 8.316467632710374 90
    endloop
  endfacet
  facet normal -0.9510565162951534 0.30901699437494784 0
    outer loop
      vertex -39.12590402935223 8.316467632710374 0
      vertex -39.12590402935223 8.316467632710374 90
      vertex -36.541818305704034 16.26946572303201 90
    endloop
  endfacet
  facet normal -0.8660254037844388 0.4999999999999997 0
    outer loop
      vertex -36.541818305704034 16.26946572303201 0
      vertex -36.541818305704034 16.26946572303201 90
      vertex -32.3606797749979 23.511410091698927 90
    endloop
  endfacet
  facet normal 0 0 1
    outer loop
      vertex -39.12590402935223 -8.316467632710374 90
      vertex -39.12590402935223 8.316467632710374 90
      vertex -40 0 90
    endloop
  endfacet
  facet normal 0 0 1
    outer loop
      vertex -36.541818305704034 -16.26946572303201 90
      vertex -36.541818305704034 16.26946572303201 90
      vertex -39.12590402935223 8.316467632710374 90
    endloop
  endfacet
  facet normal 0 0 1
    outer loop
      vertex -36.541818305704034 -16.26946572303201 90
      vertex -35 0 90
      vertex -36.541818305704034 16.26946572303201 90
    endloop
  endfacet
  facet normal 0 0 1
    outer loop
      vertex -36.541818305704034 16.26946572303201 90
      vertex -35 0 90
      vertex -34.2351660256832 7.276909178621577 90
    endloop
  endfacet
  facet normal 0 0 1
    outer loop
      vertex -36.541818305704034 16.26946572303201 90
      vertex -34.2351660256832 7.276909178621577 90
      vertex -31.97409101749103 14.235782507653008 90
    endloop
  endfacet
  facet normal 0 0 1
    outer loop
      vertex -36.541818305704034 16.26946572303201 90
      vertex -31.97409101749103 14.235782507653008 90
      vertex -32.3606797749979 23.511410091698927 90
    endloop
  endfacet
  facet normal 0 0 1
    outer loop
      vertex -32.3606797749979 23.511410091698927 90
      vertex -31.97409101749103 14.235782507653008 90
      vertex -28.31559480312316 20.57248383023656 90
    endloop
  endfacet
  facet normal -0.743144825477394 0.6691306063588583 0
    outer loop
      vertex -32.3606797749979 23.511410091698927 0
      vertex -32.3606797749979 23.511410091698927 90
      vertex -26.76522425435433 29.725793019095768 90
    endloop
  endfacet
  facet normal -0.5877852522924729 0.8090169943749476 0
    outer loop
      vertex -20 34.64101615137754 0
      vertex -26.76522425435433 29.725793019095768 90
      vertex -20 34.64101615137754 90
    endloop
  endfacet
  facet normal -0.4067366430758001 0.913545457642601 0
    outer loop
      vertex -12.360679774997896 38.04226065180614 0
      vertex -20 34.64101615137754 90
      vertex -12.360679774997896 38.04226065180614 90
    endloop
  endfacet
  facet normal 0 0 1
    outer loop
      vertex -32.3606797749979 23.511410091698927 90
      vertex -28.31559480312316 20.57248383023656 90
      vertex -23.419571222560037 26.010068891708798 90
    endloop
  endfacet
  facet normal 0 0 1
    outer loop
      vertex -32.3606797749979 23.511410091698927 90
      vertex -23.419571222560037 26.010068891708798 90
      vertex -26.76522425435433 29.725793019095768 90
    endloop
  endfacet
  facet normal 0 0 1
    outer loop
      vertex -26.76522425435433 29.725793019095768 90
      vertex -23.419571222560037 26.010068891708798 90
      vertex -17.5 30.31088913245535 90
    endloop
  endfacet
  facet normal 0 0 1
    outer loop
      vertex -26.76522425435433 29.725793019095768 90
      vertex -17.5 30.31088913245535 90
      vertex -20 34.64101615137754 90
    endloop
  endfacet
  facet normal 0 0 1
    outer loop
      vertex -20 34.64101615137754 90
      vertex -17.5 30.31088913245535 90
      vertex -10.815594803123158 33.28697807033037 90
    endloop
  endfacet
  facet normal 0 0 1
    outer loop
      vertex -20 34.64101615137754 90
      vertex -10.815594803123158 33.28697807033037 90
      vertex -12.360679774997896 38.04226065180614 90
    endloop
  endfacet
  facet normal -0.20791169081775981 0.9781476007338055 0
    outer loop
      vertex -4.181138530706139 39.78087581473093 0
      vertex -12.360679774997896 38.04226065180614 90
      vertex -4.181138530706139 39.78087581473093 90
    endloop
  endfacet
  facet normal 0 1 0
    outer loop
      vertex -4.181138530706139 39.78087581473093 90
      vertex 4.181138530706139 39.78087581473093 90
      vertex 4.181138530706139 39.78087581473093 0
    endloop
  endfacet
  facet normal 0.20791169081775981 0.9781476007338055 0
    outer loop
      vertex 12.360679774997896 38.04226065180614 0
      vertex 4.181138530706139 39.78087581473093 90
      vertex 12.360679774997896 38.04226065180614 90
    endloop
  endfacet
  facet normal 0.4067366430758001 0.913545457642601 0
    outer loop
      vertex 20 34.64101615137754 0
      vertex 12.360679774997896 38.04226065180614 90
      vertex 20 34.64101615137754 90
    endloop
  endfacet
  facet normal 0 0 1
    outer loop
      vertex -12.360679774997896 38.04226065180614 90
      vertex -10.815594803123158 33.28697807033037 90
      vertex -3.6584962143678714 34.80826633788956 90
    endloop
  endfacet
  facet normal 0 0 1
    outer loop
      vertex -12.360679774997896 38.04226065180614 90
      vertex -3.6584962143678714 34.80826633788956 90
      vertex -4.181138530706139 39.78087581473093 90
    endloop
  endfacet
  facet normal 0 0 1
    outer loop
      vertex -4.181138530706139 39.78087581473093 90
      vertex -3.6584962143678714 34.80826633788956 90
      vertex 3.6584962143678714 34.80826633788956 90
    endloop
  endfacet
  facet normal 0 0 1
    outer loop
      vertex -4.181138530706139 39.78087581473093 90
      vertex 3.6584962143678714 34.80826633788956 90
      vertex 4.181138530706139 39.78087581473093 90
    endloop
  endfacet
  facet normal 0 0 1
    outer loop
      vertex 12.360679774997896 38.04226065180614 90
      vertex 10.815594803123158 33.28697807033037 90
      vertex 17.5 30.31088913245535 90
    endloop
  endfacet
  facet normal 0 0 1
    outer loop
      vertex 4.181138530706139 39.78087581473093 90
      vertex 3.6584962143678714 34.80826633788956 90
      vertex 10.815594803123158 33.28697807033037 90
    endloop
  endfacet
  facet normal 0 0 1
    outer loop
      vertex 4.181138530706139 39.78087581473093 90
      vertex 10.815594803123158 33.28697807033037 90
      vertex 12.360679774997896 38.04226065180614 90
    endloop
  endfacet
  facet normal 0 0 1
    outer loop
      vertex 12.360679774997896 38.04226065180614 90
      vertex 17.5 30.31088913245535 90
      vertex 20 34.64101615137754 90
    endloop
  endfacet
  facet normal 0 0 1
    outer loop
      vertex 20 34.64101615137754 90
      vertex 17.5 30.31088913245535 90
      vertex 23.419571222560037 26.010068891708798 90
    endloop
  endfacet
  facet normal 0 0 -1
    outer loop
      vertex 20 -34.64101615137754 0
      vertex 23.419571222560037 -26.010068891708798 0
      vertex 26.76522425435433 -29.725793019095768 0
    endloop
  endfacet
  facet normal 0 0 -1
    outer loop
      vertex 26.76522425435433 -29.725793019095768 0
      vertex 23.419571222560037 -26.010068891708798 0
      vertex 28.31559480312316 -20.57248383023656 0
    endloop
  endfacet
  facet normal 0 0 -1
    outer loop
      vertex 26.76522425435433 -29.725793019095768 0
      vertex 28.31559480312316 -20.57248383023656 0
      vertex 32.3606797749979 -23.511410091698927 0
    endloop
  endfacet
  facet normal 0.5877852522924729 -0.8090169943749476 0
    outer loop
      vertex 20 -34.64101615137754 0
      vertex 26.76522425435433 -29.725793019095768 0
      vertex 26.76522425435433 -29.725793019095768 90
    endloop
  endfacet
  facet normal 0.743144825477394 -0.6691306063588583 0
    outer loop
      vertex 26.76522425435433 -29.725793019095768 0
      vertex 32.3606797749979 -23.511410091698927 0
      vertex 26.76522425435433 -29.725793019095768 90
    endloop
  endfacet
  facet normal 0.8660254037844388 -0.4999999999999997 0
    outer loop
      vertex 32.3606797749979 -23.511410091698927 0
      vertex 36.541818305704034 -16.26946572303201 0
      vertex 32.3606797749979 -23.511410091698927 90
    endloop
  endfacet
  facet normal 0 0 -1
    outer loop
      vertex 32.3606797749979 -23.511410091698927 0
      vertex 28.31559480312316 -20.57248383023656 0
      vertex 31.97409101749103 -14.235782507653008 0
    endloop
  endfacet
  facet normal 0 0 -1
    outer loop
      vertex 32.3606797749979 -23.511410091698927 0
      vertex 31.97409101749103 -14.235782507653008 0
      vertex 34.2351660256832 -7.276909178621577 0
    endloop
  endfacet
  facet normal 0 0 -1
    outer loop
      vertex 32.3606797749979 -23.511410091698927 0
      vertex 34.2351660256832 -7.276909178621577 0
      vertex 36.541818305704034 -16.26946572303201 0
    endloop
  endfacet
  facet normal 0 0 -1
    outer loop
      vertex 36.541818305704034 -16.26946572303201 0
      vertex 34.2351660256832 -7.276909178621577 0
      vertex 35 0 0
    endloop
  endfacet
  facet normal 0 0 -1
    outer loop
      vertex 36.541818305704034 -16.26946572303201 0
      vertex 39.12590402935223 8.316467632710374 0
      vertex 39.12590402935223 -8.316467632710374 0
    endloop
  endfacet
  facet normal 0.9510565162951534 -0.30901699437494784 0
    outer loop
      vertex 36.541818305704034 -16.26946572303201 0
      vertex 39.12590402935223 -8.316467632710374 0
      vertex 36.541818305704034 -16.26946572303201 90
    endloop
  endfacet
  facet normal 0.9945218953682735 -0.10452846326765322 0
    outer loop
      vertex 39.12590402935223 -8.316467632710374 0
      vertex 40 0 0
      vertex 39.12590402935223 -8.316467632710374 90
    endloop
  endfacet
  facet normal 0.5877852522924729 -0.8090169943749476 0
    outer loop
      vertex 20 -34.64101615137754 0
      vertex 26.76522425435433 -29.725793019095768 90
      vertex 20 -34.64101615137754 90
    endloop
  endfacet
  facet normal 0.743144825477394 -0.6691306063588583 0
    outer loop
      vertex 32.3606797749979 -23.511410091698927 0
      vertex 32.3606797749979 -23.511410091698927 90
      vertex 26.76522425435433 -29.725793019095768 90
    endloop
  endfacet
  facet normal 0 0 1
    outer loop
      vertex 20 -34.64101615137754 90
      vertex 26.76522425435433 -29.725793019095768 90
      vertex 17.5 -30.31088913245535 90
    endloop
  endfacet
  facet normal 0 0 1
    outer loop
      vertex 26.76522425435433 -29.725793019095768 90
      vertex 23.419571222560037 -26.010068891708798 90
      vertex 17.5 -30.31088913245535 90
    endloop
  endfacet
  facet normal 0 0 1
    outer loop
      vertex 26.76522425435433 -29.725793019095768 90
      vertex 32.3606797749979 -23.511410091698927 90
      vertex 23.419571222560037 -26.010068891708798 90
    endloop
  endfacet
  facet normal 0 0 1
    outer loop
      vertex 32.3606797749979 -23.511410091698927 90
      vertex 28.31559480312316 -20.57248383023656 90
      vertex 23.419571222560037 -26.010068891708798 90
    endloop
  endfacet
  facet normal 0.8660254037844388 -0.4999999999999997 0
    outer loop
      vertex 36.541818305704034 -16.26946572303201 0
      vertex 36.541818305704034 -16.26946572303201 90
      vertex 32.3606797749979 -23.511410091698927 90
    endloop
  endfacet
  facet normal 0.9510565162951534 -0.30901699437494784 0
    outer loop
      vertex 39.12590402935223 -8.316467632710374 0
      vertex 39.12590402935223 -8.316467632710374 90
      vertex 36.541818305704034 -16.26946572303201 90
    endloop
  endfacet
  facet normal 0.9945218953682735 -0.10452846326765322 0
    outer loop
      vertex 39.12590402935223 -8.316467632710374 90
      vertex 40 0 0
      vertex 40 0 90
    endloop
  endfacet
  facet normal 0 0 1
    outer loop
      vertex 32.3606797749979 -23.511410091698927 90
      vertex 31.97409101749103 -14.235782507653008 90
      vertex 28.31559480312316 -20.57248383023656 90
    endloop
  endfacet
  facet normal 0 0 1
    outer loop
      vertex 32.3606797749979 -23.511410091698927 90
      vertex 36.541818305704034 -16.26946572303201 90
      vertex 31.97409101749103 -14.235782507653008 90
    endloop
  endfacet
  facet normal 0 0 1
    outer loop
      vertex 36.541818305704034 -16.26946572303201 90
      vertex 34.2351660256832 -7.276909178621577 90
      vertex 31.97409101749103 -14.235782507653008 90
    endloop
  endfacet
  facet normal 0 0 1
    outer loop
      vertex 36.541818305704034 -16.26946572303201 90
      vertex 35 0 90
      vertex 34.2351660256832 -7.276909178621577 90
    endloop
  endfacet
  facet normal 0 0 1
    outer loop
      vertex 36.541818305704034 -16.26946572303201 90
      vertex 39.12590402935223 -8.316467632710374 90
      vertex 36.541818305704034 16.26946572303201 90
    endloop
  endfacet
  facet normal 0 0 -1
    outer loop
      vertex 36.541818305704034 -16.26946572303201 0
      vertex 35 0 0
      vertex 36.541818305704034 16.26946572303201 0
    endloop
  endfacet
  facet normal 0 0 -1
    outer loop
      vertex 36.541818305704034 16.26946572303201 0
      vertex 35 0 0
      vertex 34.2351660256832 7.276909178621577 0
    endloop
  endfacet
  facet normal 0 0 -1
    outer loop
      vertex 36.541818305704034 16.26946572303201 0
      vertex 34.2351660256832 7.276909178621577 0
      vertex 31.97409101749103 14.235782507653008 0
    endloop
  endfacet
  facet normal 0 0 -1
    outer loop
      vertex 32.3606797749979 23.511410091698927 0
      vertex 31.97409101749103 14.235782507653008 0
      vertex 28.31559480312316 20.57248383023656 0
    endloop
  endfacet
  facet normal 0 0 -1
    outer loop
      vertex 36.541818305704034 16.26946572303201 0
      vertex 31.97409101749103 14.235782507653008 0
      vertex 32.3606797749979 23.511410091698927 0
    endloop
  endfacet
  facet normal 0 0 -1
    outer loop
      vertex 39.12590402935223 -8.316467632710374 0
      vertex 39.12590402935223 8.316467632710374 0
      vertex 40 0 0
    endloop
  endfacet
  facet normal 0 0 -1
    outer loop
      vertex 36.541818305704034 -16.26946572303201 0
      vertex 36.541818305704034 16.26946572303201 0
      vertex 39.12590402935223 8.316467632710374 0
    endloop
  endfacet
  facet normal 0.8660254037844388 0.4999999999999997 0
    outer loop
      vertex 36.541818305704034 16.26946572303201 0
      vertex 32.3606797749979 23.511410091698927 0
      vertex 36.541818305704034 16.26946572303201 90
    endloop
  endfacet
  facet normal 0.9945218953682735 0.10452846326765322 0
    outer loop
      vertex 40 0 0
      vertex 39.12590402935223 8.316467632710374 0
      vertex 40 0 90
    endloop
  endfacet
  facet normal 0.9510565162951534 0.30901699437494784 0
    outer loop
      vertex 39.12590402935223 8.316467632710374 0
      vertex 36.541818305704034 16.26946572303201 0
      vertex 39.12590402935223 8.316467632710374 90
    endloop
  endfacet
  facet normal 0 0 -1
    outer loop
      vertex 32.3606797749979 23.511410091698927 0
      vertex 28.31559480312316 20.57248383023656 0
      vertex 23.419571222560037 26.010068891708798 0
    endloop
  endfacet
  facet normal 0 0 -1
    outer loop
      vertex 26.76522425435433 29.725793019095768 0
      vertex 23.419571222560037 26.010068891708798 0
      vertex 17.5 30.31088913245535 0
    endloop
  endfacet
  facet normal 0 0 -1
    outer loop
      vertex 26.76522425435433 29.725793019095768 0
      vertex 32.3606797749979 23.511410091698927 0
      vertex 23.419571222560037 26.010068891708798 0
    endloop
  endfacet
  facet normal 0 0 -1
    outer loop
      vertex 26.76522425435433 29.725793019095768 0
      vertex 17.5 30.31088913245535 0
      vertex 20 34.64101615137754 0
    endloop
  endfacet
  facet normal 0.743144825477394 0.6691306063588583 0
    outer loop
      vertex 26.76522425435433 29.725793019095768 0
      vertex 32.3606797749979 23.511410091698927 90
      vertex 32.3606797749979 23.511410091698927 0
    endloop
  endfacet
  facet normal 0.5877852522924729 0.8090169943749476 0
    outer loop
      vertex 26.76522425435433 29.725793019095768 0
      vertex 20 34.64101615137754 0
      vertex 20 34.64101615137754 90
    endloop
  endfacet
  facet normal 0.9945218953682735 0.10452846326765322 0
    outer loop
      vertex 39.12590402935223 8.316467632710374 0
      vertex 39.12590402935223 8.316467632710374 90
      vertex 40 0 90
    endloop
  endfacet
  facet normal 0.9510565162951534 0.30901699437494784 0
    outer loop
      vertex 36.541818305704034 16.26946572303201 0
      vertex 36.541818305704034 16.26946572303201 90
      vertex 39.12590402935223 8.316467632710374 90
    endloop
  endfacet
  facet normal 0 0 1
    outer loop
      vertex 36.541818305704034 -16.26946572303201 90
      vertex 36.541818305704034 16.26946572303201 90
      vertex 35 0 90
    endloop
  endfacet
  facet normal 0 0 1
    outer loop
      vertex 36.541818305704034 16.26946572303201 90
      vertex 34.2351660256832 7.276909178621577 90
      vertex 35 0 90
    endloop
  endfacet
  facet normal 0 0 1
    outer loop
      vertex 32.3606797749979 23.511410091698927 90
      vertex 28.31559480312316 20.57248383023656 90
      vertex 31.97409101749103 14.235782507653008 90
    endloop
  endfacet
  facet normal 0 0 1
    outer loop
      vertex 32.3606797749979 23.511410091698927 90
      vertex 31.97409101749103 14.235782507653008 90
      vertex 34.2351660256832 7.276909178621577 90
    endloop
  endfacet
  facet normal 0 0 1
    outer loop
      vertex 36.541818305704034 16.26946572303201 90
      vertex 32.3606797749979 23.511410091698927 90
      vertex 34.2351660256832 7.276909178621577 90
    endloop
  endfacet
  facet normal 0 0 1
    outer loop
      vertex 39.12590402935223 -8.316467632710374 90
      vertex 40 0 90
      vertex 39.12590402935223 8.316467632710374 90
    endloop
  endfacet
  facet normal 0 0 1
    outer loop
      vertex 39.12590402935223 -8.316467632710374 90
      vertex 39.12590402935223 8.316467632710374 90
      vertex 36.541818305704034 16.26946572303201 90
    endloop
  endfacet
  facet normal 0.743144825477394 0.6691306063588583 0
    outer loop
      vertex 26.76522425435433 29.725793019095768 0
      vertex 26.76522425435433 29.725793019095768 90
      vertex 32.3606797749979 23.511410091698927 90
    endloop
  endfacet
  facet normal 0.8660254037844388 0.4999999999999997 0
    outer loop
      vertex 32.3606797749979 23.511410091698927 0
      vertex 32.3606797749979 23.511410091698927 90
      vertex 36.541818305704034 16.26946572303201 90
    endloop
  endfacet
  facet normal 0.5877852522924729 0.8090169943749476 0
    outer loop
      vertex 26.76522425435433 29.725793019095768 0
      vertex 20 34.64101615137754 90
      vertex 26.76522425435433 29.725793019095768 90
    endloop
  endfacet
  facet normal 0 0 1
    outer loop
      vertex 26.76522425435433 29.725793019095768 90
      vertex 23.419571222560037 26.010068891708798 90
      vertex 28.31559480312316 20.57248383023656 90
    endloop
  endfacet
  facet normal 0 0 1
    outer loop
      vertex 26.76522425435433 29.725793019095768 90
      vertex 28.31559480312316 20.57248383023656 90
      vertex 32.3606797749979 23.511410091698927 90
    endloop
  endfacet
  facet normal 0 0 1
    outer loop
      vertex 26.76522425435433 29.725793019095768 90
      vertex 20 34.64101615137754 90
      vertex 23.419571222560037 26.010068891708798 90
    endloop
  endfacet
  facet normal 0.743144825477394 0.6691306063588585 0
    outer loop
      vertex -23.419571222560037 -26.010068891708798 0
      vertex -28.31559480312316 -20.57248383023656 0
      vertex -28.31559480312316 -20.57248383023656 90
    endloop
  endfacet
  facet normal 0.4067366430757998 0.9135454576426011 0
    outer loop
      vertex -10.815594803123158 -33.28697807033037 0
      vertex -17.5 -30.31088913245535 0
      vertex -17.5 -30.31088913245535 90
    endloop
  endfacet
  facet normal 0.587785252292473 0.8090169943749475 0
    outer loop
      vertex -17.5 -30.31088913245535 0
      vertex -23.419571222560037 -26.010068891708798 0
      vertex -23.419571222560037 -26.010068891708798 90
    endloop
  endfacet
  facet normal 0.8660254037844388 0.4999999999999997 0
    outer loop
      vertex -28.31559480312316 -20.57248383023656 0
      vertex -31.97409101749103 -14.235782507653008 0
      vertex -31.97409101749103 -14.235782507653008 90
    endloop
  endfacet
  facet normal 0.9510565162951534 0.30901699437494773 0
    outer loop
      vertex -31.97409101749103 -14.235782507653008 0
      vertex -34.2351660256832 -7.276909178621577 0
      vertex -34.2351660256832 -7.276909178621577 90
    endloop
  endfacet
  facet normal 0.9945218953682734 0.10452846326765323 0
    outer loop
      vertex -34.2351660256832 -7.276909178621577 0
      vertex -35 0 0
      vertex -35 0 90
    endloop
  endfacet
  facet normal 0.2079116908177595 0.9781476007338056 0
    outer loop
      vertex -3.6584962143678714 -34.80826633788956 0
      vertex -10.815594803123158 -33.28697807033037 0
      vertex -10.815594803123158 -33.28697807033037 90
    endloop
  endfacet
  facet normal 0 1 0
    outer loop
      vertex -3.6584962143678714 -34.80826633788956 90
      vertex 3.6584962143678714 -34.80826633788956 0
      vertex -3.6584962143678714 -34.80826633788956 0
    endloop
  endfacet
  facet normal -0.2079116908177595 0.9781476007338056 0
    outer loop
      vertex 10.815594803123158 -33.28697807033037 0
      vertex 3.6584962143678714 -34.80826633788956 0
      vertex 3.6584962143678714 -34.80826633788956 90
    endloop
  endfacet
  facet normal -0.4067366430757998 0.9135454576426011 0
    outer loop
      vertex 17.5 -30.31088913245535 0
      vertex 10.815594803123158 -33.28697807033037 0
      vertex 10.815594803123158 -33.28697807033037 90
    endloop
  endfacet
  facet normal -0.587785252292473 0.8090169943749475 0
    outer loop
      vertex 23.419571222560037 -26.010068891708798 0
      vertex 17.5 -30.31088913245535 0
      vertex 17.5 -30.31088913245535 90
    endloop
  endfacet
  facet normal 0.743144825477394 0.6691306063588585 0
    outer loop
      vertex -28.31559480312316 -20.57248383023656 90
      vertex -23.419571222560037 -26.010068891708798 90
      vertex -23.419571222560037 -26.010068891708798 0
    endloop
  endfacet
  facet normal 0.4067366430757998 0.9135454576426011 0
    outer loop
      vertex -10.815594803123158 -33.28697807033037 0
      vertex -17.5 -30.31088913245535 90
      vertex -10.815594803123158 -33.28697807033037 90
    endloop
  endfacet
  facet normal 0.587785252292473 0.8090169943749475 0
    outer loop
      vertex -17.5 -30.31088913245535 0
      vertex -23.419571222560037 -26.010068891708798 90
      vertex -17.5 -30.31088913245535 90
    endloop
  endfacet
  facet normal 0.9510565162951534 0.30901699437494773 0
    outer loop
      vertex -34.2351660256832 -7.276909178621577 90
      vertex -31.97409101749103 -14.235782507653008 90
      vertex -31.97409101749103 -14.235782507653008 0
    endloop
  endfacet
  facet normal 0.8660254037844388 0.4999999999999997 0
    outer loop
      vertex -28.31559480312316 -20.57248383023656 0
      vertex -31.97409101749103 -14.235782507653008 90
      vertex -28.31559480312316 -20.57248383023656 90
    endloop
  endfacet
  facet normal 0.9945218953682734 0.10452846326765323 0
    outer loop
      vertex -34.2351660256832 -7.276909178621577 0
      vertex -35 0 90
      vertex -34.2351660256832 -7.276909178621577 90
    endloop
  endfacet
  facet normal 0.2079116908177595 0.9781476007338056 0
    outer loop
      vertex -3.6584962143678714 -34.80826633788956 0
      vertex -10.815594803123158 -33.28697807033037 90
      vertex -3.6584962143678714 -34.80826633788956 90
    endloop
  endfacet
  facet normal 0 1 0
    outer loop
      vertex -3.6584962143678714 -34.80826633788956 90
      vertex 3.6584962143678714 -34.80826633788956 90
      vertex 3.6584962143678714 -34.80826633788956 0
    endloop
  endfacet
  facet normal -0.2079116908177595 0.9781476007338056 0
    outer loop
      vertex 10.815594803123158 -33.28697807033037 0
      vertex 3.6584962143678714 -34.80826633788956 90
      vertex 10.815594803123158 -33.28697807033037 90
    endloop
  endfacet
  facet normal -0.4067366430757998 0.9135454576426011 0
    outer loop
      vertex 17.5 -30.31088913245535 0
      vertex 10.815594803123158 -33.28697807033037 90
      vertex 17.5 -30.31088913245535 90
    endloop
  endfacet
  facet normal 0.9945218953682734 -0.10452846326765323 0
    outer loop
      vertex -35 0 0
      vertex -34.2351660256832 7.276909178621577 0
      vertex -34.2351660256832 7.276909178621577 90
    endloop
  endfacet
  facet normal 0.9510565162951534 -0.30901699437494773 0
    outer loop
      vertex -34.2351660256832 7.276909178621577 0
      vertex -31.97409101749103 14.235782507653008 0
      vertex -31.97409101749103 14.235782507653008 90
    endloop
  endfacet
  facet normal 0.8660254037844388 -0.4999999999999997 0
    outer loop
      vertex -31.97409101749103 14.235782507653008 0
      vertex -28.31559480312316 20.57248383023656 0
      vertex -28.31559480312316 20.57248383023656 90
    endloop
  endfacet
  facet normal 0.743144825477394 -0.6691306063588585 0
    outer loop
      vertex -28.31559480312316 20.57248383023656 0
      vertex -23.419571222560037 26.010068891708798 0
      vertex -23.419571222560037 26.010068891708798 90
    endloop
  endfacet
  facet normal 0.587785252292473 -0.8090169943749475 0
    outer loop
      vertex -23.419571222560037 26.010068891708798 0
      vertex -17.5 30.31088913245535 0
      vertex -17.5 30.31088913245535 90
    endloop
  endfacet
  facet normal 0.4067366430757998 -0.9135454576426011 0
    outer loop
      vertex -17.5 30.31088913245535 0
      vertex -10.815594803123158 33.28697807033037 0
      vertex -10.815594803123158 33.28697807033037 90
    endloop
  endfacet
  facet normal 0.2079116908177595 -0.9781476007338056 0
    outer loop
      vertex -10.815594803123158 33.28697807033037 0
      vertex -3.6584962143678714 34.80826633788956 0
      vertex -3.6584962143678714 34.80826633788956 90
    endloop
  endfacet
  facet normal 0 -1 0
    outer loop
      vertex 3.6584962143678714 34.80826633788956 0
      vertex 3.6584962143678714 34.80826633788956 90
      vertex -3.6584962143678714 34.80826633788956 0
    endloop
  endfacet
  facet normal -0.2079116908177595 -0.9781476007338056 0
    outer loop
      vertex 3.6584962143678714 34.80826633788956 0
      vertex 10.815594803123158 33.28697807033037 0
      vertex 10.815594803123158 33.28697807033037 90
    endloop
  endfacet
  facet normal -0.4067366430757998 -0.9135454576426011 0
    outer loop
      vertex 10.815594803123158 33.28697807033037 0
      vertex 17.5 30.31088913245535 0
      vertex 17.5 30.31088913245535 90
    endloop
  endfacet
  facet normal 0.9945218953682734 -0.10452846326765323 0
    outer loop
      vertex -34.2351660256832 7.276909178621577 90
      vertex -35 0 90
      vertex -35 0 0
    endloop
  endfacet
  facet normal 0.9510565162951534 -0.30901699437494773 0
    outer loop
      vertex -31.97409101749103 14.235782507653008 90
      vertex -34.2351660256832 7.276909178621577 90
      vertex -34.2351660256832 7.276909178621577 0
    endloop
  endfacet
  facet normal 0.8660254037844388 -0.4999999999999997 0
    outer loop
      vertex -28.31559480312316 20.57248383023656 90
      vertex -31.97409101749103 14.235782507653008 90
      vertex -31.97409101749103 14.235782507653008 0
    endloop
  endfacet
  facet normal 0.743144825477394 -0.6691306063588585 0
    outer loop
      vertex -23.419571222560037 26.010068891708798 90
      vertex -28.31559480312316 20.57248383023656 90
      vertex -28.31559480312316 20.57248383023656 0
    endloop
  endfacet
  facet normal 0.587785252292473 -0.8090169943749475 0
    outer loop
      vertex -23.419571222560037 26.010068891708798 0
      vertex -17.5 30.31088913245535 90
      vertex -23.419571222560037 26.010068891708798 90
    endloop
  endfacet
  facet normal 0.4067366430757998 -0.9135454576426011 0
    outer loop
      vertex -17.5 30.31088913245535 0
      vertex -10.815594803123158 33.28697807033037 90
      vertex -17.5 30.31088913245535 90
    endloop
  endfacet
  facet normal 0.2079116908177595 -0.9781476007338056 0
    outer loop
      vertex -10.815594803123158 33.28697807033037 0
      vertex -3.6584962143678714 34.80826633788956 90
      vertex -10.815594803123158 33.28697807033037 90
    endloop
  endfacet
  facet normal 0 -1 0
    outer loop
      vertex 3.6584962143678714 34.80826633788956 90
      vertex -3.6584962143678714 34.80826633788956 90
      vertex -3.6584962143678714 34.80826633788956 0
    endloop
  endfacet
  facet normal -0.587785252292473 -0.8090169943749475 0
    outer loop
      vertex 17.5 30.31088913245535 0
      vertex 23.419571222560037 26.010068891708798 90
      vertex 17.5 30.31088913245535 90
    endloop
  endfacet
  facet normal -0.2079116908177595 -0.9781476007338056 0
    outer loop
      vertex 3.6584962143678714 34.80826633788956 0
      vertex 10.815594803123158 33.28697807033037 90
      vertex 3.6584962143678714 34.80826633788956 90
    endloop
  endfacet
  facet normal -0.4067366430757998 -0.9135454576426011 0
    outer loop
      vertex 10.815594803123158 33.28697807033037 0
      vertex 17.5 30.31088913245535 90
      vertex 10.815594803123158 33.28697807033037 90
    endloop
  endfacet
  facet normal -0.743144825477394 0.6691306063588585 0
    outer loop
      vertex 28.31559480312316 -20.57248383023656 0
      vertex 23.419571222560037 -26.010068891708798 0
      vertex 23.419571222560037 -26.010068891708798 90
    endloop
  endfacet
  facet normal -0.8660254037844388 0.4999999999999997 0
    outer loop
      vertex 31.97409101749103 -14.235782507653008 0
      vertex 28.31559480312316 -20.57248383023656 0
      vertex 28.31559480312316 -20.57248383023656 90
    endloop
  endfacet
  facet normal -0.9510565162951534 0.30901699437494773 0
    outer loop
      vertex 34.2351660256832 -7.276909178621577 0
      vertex 31.97409101749103 -14.235782507653008 0
      vertex 31.97409101749103 -14.235782507653008 90
    endloop
  endfacet
  facet normal -0.9945218953682734 0.10452846326765323 0
    outer loop
      vertex 34.2351660256832 -7.276909178621577 0
      vertex 34.2351660256832 -7.276909178621577 90
      vertex 35 0 0
    endloop
  endfacet
  facet normal -0.587785252292473 0.8090169943749475 0
    outer loop
      vertex 23.419571222560037 -26.010068891708798 0
      vertex 17.5 -30.31088913245535 90
      vertex 23.419571222560037 -26.010068891708798 90
    endloop
  endfacet
  facet normal -0.743144825477394 0.6691306063588585 0
    outer loop
      vertex 23.419571222560037 -26.010068891708798 90
      vertex 28.31559480312316 -20.57248383023656 90
      vertex 28.31559480312316 -20.57248383023656 0
    endloop
  endfacet
  facet normal -0.8660254037844388 0.4999999999999997 0
    outer loop
      vertex 28.31559480312316 -20.57248383023656 90
      vertex 31.97409101749103 -14.235782507653008 90
      vertex 31.97409101749103 -14.235782507653008 0
    endloop
  endfacet
  facet normal -0.9510565162951534 0.30901699437494773 0
    outer loop
      vertex 31.97409101749103 -14.235782507653008 90
      vertex 34.2351660256832 -7.276909178621577 90
      vertex 34.2351660256832 -7.276909178621577 0
    endloop
  endfacet
  facet normal -0.9945218953682734 0.10452846326765323 0
    outer loop
      vertex 34.2351660256832 -7.276909178621577 90
      vertex 35 0 90
      vertex 35 0 0
    endloop
  endfacet
  facet normal -0.9945218953682734 -0.10452846326765323 0
    outer loop
      vertex 34.2351660256832 7.276909178621577 0
      vertex 35 0 0
      vertex 35 0 90
    endloop
  endfacet
  facet normal -0.9510565162951534 -0.30901699437494773 0
    outer loop
      vertex 31.97409101749103 14.235782507653008 0
      vertex 34.2351660256832 7.276909178621577 0
      vertex 34.2351660256832 7.276909178621577 90
    endloop
  endfacet
  facet normal -0.8660254037844388 -0.4999999999999997 0
    outer loop
      vertex 28.31559480312316 20.57248383023656 0
      vertex 31.97409101749103 14.235782507653008 0
      vertex 31.97409101749103 14.235782507653008 90
    endloop
  endfacet
  facet normal -0.743144825477394 -0.6691306063588585 0
    outer loop
      vertex 23.419571222560037 26.010068891708798 0
      vertex 28.31559480312316 20.57248383023656 0
      vertex 28.31559480312316 20.57248383023656 90
    endloop
  endfacet
  facet normal -0.587785252292473 -0.8090169943749475 0
    outer loop
      vertex 17.5 30.31088913245535 0
      vertex 23.419571222560037 26.010068891708798 0
      vertex 23.419571222560037 26.010068891708798 90
    endloop
  endfacet
  facet normal -0.9945218953682734 -0.10452846326765323 0
    outer loop
      vertex 34.2351660256832 7.276909178621577 0
      vertex 35 0 90
      vertex 34.2351660256832 7.276909178621577 90
    endloop
  endfacet
  facet normal -0.9510565162951534 -0.30901699437494773 0
    outer loop
      vertex 34.2351660256832 7.276909178621577 90
      vertex 31.97409101749103 14.235782507653008 90
      vertex 31.97409101749103 14.235782507653008 0
    endloop
  endfacet
  facet normal -0.8660254037844388 -0.4999999999999997 0
    outer loop
      vertex 28.31559480312316 20.57248383023656 0
      vertex 31.97409101749103 14.235782507653008 90
      vertex 28.31559480312316 20.57248383023656 90
    endloop
  endfacet
  facet normal -0.743144825477394 -0.6691306063588585 0
    outer loop
      vertex 28.31559480312316 20.57248383023656 90
      vertex 23.419571222560037 26.010068891708798 90
      vertex 23.419571222560037 26.010068891708798 0
    endloop
  endfacet
  facet normal 0 -0.669130604797694 -0.7431448268830728
    outer loop
      vertex 52.5 -7.347315654158592 19.887287572026253
      vertex 82.5 -9.289310321211815 21.635867416858673
      vertex 52.5 -9.289310321211815 21.635867416858673
    endloop
  endfacet
  facet normal 0 -0.5000000011828801 -0.8660254031015024
    outer loop
      vertex 52.5 -5.08420804142952 18.580681778490543
      vertex 82.5 -7.347315654158592 19.887287572026253
      vertex 52.5 -7.347315654158592 19.887287572026253
    endloop
  endfacet
  facet normal 0 -0.30901699472782745 -0.9510565161804959
    outer loop
      vertex 52.5 -2.598896138370037 17.773154988884926
      vertex 82.5 -5.08420804142952 18.580681778490543
      vertex 52.5 -5.08420804142952 18.580681778490543
    endloop
  endfacet
  facet normal 0 -0.10452846240720373 -0.9945218954587103
    outer loop
      vertex 52.5 0 17.5
      vertex 82.5 -2.598896138370037 17.773154988884926
      vertex 52.5 -2.598896138370037 17.773154988884926
    endloop
  endfacet
  facet normal 0 -0.809016995463232 -0.5877852507945777
    outer loop
      vertex 52.5 -9.289310321211815 21.635867416858673
      vertex 82.5 -9.289310321211815 21.635867416858673
      vertex 82.5 -10.825317546725273 23.75
    endloop
  endfacet
  facet normal 0 -0.669130604797694 -0.7431448268830728
    outer loop
      vertex 52.5 -7.347315654158592 19.887287572026253
      vertex 82.5 -7.347315654158592 19.887287572026253
      vertex 82.5 -9.289310321211815 21.635867416858673
    endloop
  endfacet
  facet normal 0 -0.5000000011828801 -0.8660254031015024
    outer loop
      vertex 52.5 -5.08420804142952 18.580681778490543
      vertex 82.5 -5.08420804142952 18.580681778490543
      vertex 82.5 -7.347315654158592 19.887287572026253
    endloop
  endfacet
  facet normal 0 -0.30901699472782745 -0.9510565161804959
    outer loop
      vertex 52.5 -2.598896138370037 17.773154988884926
      vertex 82.5 -2.598896138370037 17.773154988884926
      vertex 82.5 -5.08420804142952 18.580681778490543
    endloop
  endfacet
  facet normal 0 -0.10452846240720373 -0.9945218954587103
    outer loop
      vertex 52.5 0 17.5
      vertex 82.5 0 17.5
      vertex 82.5 -2.598896138370037 17.773154988884926
    endloop
  endfacet
  facet normal -1 0 0
    outer loop
      vertex 52.5 -12.431523695588112 28.69339420646429
      vertex 52.5 -10.825317546725273 23.75
      vertex 52.5 -11.888206452131271 26.137287572026253
    endloop
  endfacet
  facet normal -1 0 0
    outer loop
      vertex 52.5 -12.431523695588112 28.69339420646429
      vertex 52.5 -12.431523695588112 31.30660579353571
      vertex 52.5 -10.825317546725273 23.75
    endloop
  endfacet
  facet normal -1 0 0
    outer loop
      vertex 52.5 -12.431523695588112 31.30660579353571
      vertex 52.5 -9.289310321211815 21.635867416858673
      vertex 52.5 -10.825317546725273 23.75
    endloop
  endfacet
  facet normal -1 0 0
    outer loop
      vertex 52.5 -12.431523695588112 31.30660579353571
      vertex 52.5 -11.888206452131271 33.86271242797375
      vertex 52.5 -9.289310321211815 21.635867416858673
    endloop
  endfacet
  facet normal -1 0 0
    outer loop
      vertex 52.5 -11.888206452131271 33.86271242797375
      vertex 52.5 -10.825317546725273 36.25
      vertex 52.5 -7.347315654158592 19.887287572026253
    endloop
  endfacet
  facet normal 0 -0.809016995463232 -0.5877852507945777
    outer loop
      vertex 52.5 -9.289310321211815 21.635867416858673
      vertex 82.5 -10.825317546725273 23.75
      vertex 52.5 -10.825317546725273 23.75
    endloop
  endfacet
  facet normal 0 -0.913545457890105 -0.4067366425198971
    outer loop
      vertex 52.5 -10.825317546725273 23.75
      vertex 82.5 -11.888206452131271 26.137287572026253
      vertex 52.5 -11.888206452131271 26.137287572026253
    endloop
  endfacet
  facet normal 0 -0.9781476002685198 -0.20791169300675683
    outer loop
      vertex 52.5 -11.888206452131271 26.137287572026253
      vertex 82.5 -12.431523695588112 28.69339420646429
      vertex 52.5 -12.431523695588112 28.69339420646429
    endloop
  endfacet
  facet normal 0 -1 0
    outer loop
      vertex 52.5 -12.431523695588112 28.69339420646429
      vertex 82.5 -12.431523695588112 31.30660579353571
      vertex 52.5 -12.431523695588112 31.30660579353571
    endloop
  endfacet
  facet normal 0 -0.9781476002685198 0.20791169300675683
    outer loop
      vertex 52.5 -12.431523695588112 31.30660579353571
      vertex 82.5 -11.888206452131271 33.86271242797375
      vertex 52.5 -11.888206452131271 33.86271242797375
    endloop
  endfacet
  facet normal 0 -0.913545457890105 0.4067366425198971
    outer loop
      vertex 52.5 -11.888206452131271 33.86271242797375
      vertex 82.5 -10.825317546725273 36.25
      vertex 52.5 -10.825317546725273 36.25
    endloop
  endfacet
  facet normal -1 0 0
    outer loop
      vertex 52.5 -11.888206452131271 33.86271242797375
      vertex 52.5 -7.347315654158592 19.887287572026253
      vertex 52.5 -9.289310321211815 21.635867416858673
    endloop
  endfacet
  facet normal -1 0 0
    outer loop
      vertex 52.5 -10.825317546725273 36.25
      vertex 52.5 -5.08420804142952 18.580681778490543
      vertex 52.5 -7.347315654158592 19.887287572026253
    endloop
  endfacet
  facet normal -1 0 0
    outer loop
      vertex 52.5 -9.289310321211815 38.36413258314133
      vertex 52.5 -2.598896138370037 17.773154988884926
      vertex 52.5 -5.08420804142952 18.580681778490543
    endloop
  endfacet
  facet normal -1 0 0
    outer loop
      vertex 52.5 -10.825317546725273 36.25
      vertex 52.5 -9.289310321211815 38.36413258314133
      vertex 52.5 -5.08420804142952 18.580681778490543
    endloop
  endfacet
  facet normal -1 0 0
    outer loop
      vertex 52.5 -9.289310321211815 38.36413258314133
      vertex 52.5 -7.347315654158592 40.11271242797375
      vertex 52.5 -2.598896138370037 17.773154988884926
    endloop
  endfacet
  facet normal -1 0 0
    outer loop
      vertex 52.5 -7.347315654158592 40.11271242797375
      vertex 52.5 0 17.5
      vertex 52.5 -2.598896138370037 17.773154988884926
    endloop
  endfacet
  facet normal -1 0 0
    outer loop
      vertex 52.5 -5.08420804142952 41.41931822150946
      vertex 52.5 2.598896138370037 17.773154988884926
      vertex 52.5 0 17.5
    endloop
  endfacet
  facet normal -1 0 0
    outer loop
      vertex 52.5 -7.347315654158592 40.11271242797375
      vertex 52.5 -5.08420804142952 41.41931822150946
      vertex 52.5 0 17.5
    endloop
  endfacet
  facet normal -1 0 0
    outer loop
      vertex 52.5 -5.08420804142952 41.41931822150946
      vertex 52.5 -2.598896138370037 42.226845011115074
      vertex 52.5 2.598896138370037 17.773154988884926
    endloop
  endfacet
  facet normal 0 -0.809016995463232 0.5877852507945777
    outer loop
      vertex 52.5 -10.825317546725273 36.25
      vertex 82.5 -9.289310321211815 38.36413258314133
      vertex 52.5 -9.289310321211815 38.36413258314133
    endloop
  endfacet
  facet normal 0 -0.669130604797694 0.7431448268830728
    outer loop
      vertex 52.5 -9.289310321211815 38.36413258314133
      vertex 82.5 -7.347315654158592 40.11271242797375
      vertex 52.5 -7.347315654158592 40.11271242797375
    endloop
  endfacet
  facet normal 0 -0.5000000011828801 0.8660254031015024
    outer loop
      vertex 52.5 -7.347315654158592 40.11271242797375
      vertex 82.5 -5.08420804142952 41.41931822150946
      vertex 52.5 -5.08420804142952 41.41931822150946
    endloop
  endfacet
  facet normal 0 -0.30901699472782745 0.9510565161804959
    outer loop
      vertex 52.5 -5.08420804142952 41.41931822150946
      vertex 82.5 -2.598896138370037 42.226845011115074
      vertex 52.5 -2.598896138370037 42.226845011115074
    endloop
  endfacet
  facet normal 0 -0.10452846240720373 0.9945218954587103
    outer loop
      vertex 52.5 -2.598896138370037 42.226845011115074
      vertex 82.5 0 42.5
      vertex 52.5 0 42.5
    endloop
  endfacet
  facet normal 0 -0.913545457890105 -0.4067366425198971
    outer loop
      vertex 52.5 -10.825317546725273 23.75
      vertex 82.5 -10.825317546725273 23.75
      vertex 82.5 -11.888206452131271 26.137287572026253
    endloop
  endfacet
  facet normal 0 -0.9781476002685198 -0.20791169300675683
    outer loop
      vertex 52.5 -11.888206452131271 26.137287572026253
      vertex 82.5 -11.888206452131271 26.137287572026253
      vertex 82.5 -12.431523695588112 28.69339420646429
    endloop
  endfacet
  facet normal 0 -1 0
    outer loop
      vertex 52.5 -12.431523695588112 28.69339420646429
      vertex 82.5 -12.431523695588112 28.69339420646429
      vertex 82.5 -12.431523695588112 31.30660579353571
    endloop
  endfacet
  facet normal 0 -0.9781476002685198 0.20791169300675683
    outer loop
      vertex 52.5 -12.431523695588112 31.30660579353571
      vertex 82.5 -12.431523695588112 31.30660579353571
      vertex 82.5 -11.888206452131271 33.86271242797375
    endloop
  endfacet
  facet normal 1 0 0
    outer loop
      vertex 82.5 -11.888206452131271 26.137287572026253
      vertex 82.5 -10.825317546725273 23.75
      vertex 82.5 -12.431523695588112 28.69339420646429
    endloop
  endfacet
  facet normal 1 0 0
    outer loop
      vertex 82.5 -10.825317546725273 23.75
      vertex 82.5 -12.431523695588112 31.30660579353571
      vertex 82.5 -12.431523695588112 28.69339420646429
    endloop
  endfacet
  facet normal 1 0 0
    outer loop
      vertex 82.5 -10.825317546725273 23.75
      vertex 82.5 -9.289310321211815 21.635867416858673
      vertex 82.5 -12.431523695588112 31.30660579353571
    endloop
  endfacet
  facet normal 1 0 0
    outer loop
      vertex 82.5 -9.289310321211815 21.635867416858673
      vertex 82.5 -11.888206452131271 33.86271242797375
      vertex 82.5 -12.431523695588112 31.30660579353571
    endloop
  endfacet
  facet normal 1 0 0
    outer loop
      vertex 82.5 -7.347315654158592 19.887287572026253
      vertex 82.5 -10.825317546725273 36.25
      vertex 82.5 -11.888206452131271 33.86271242797375
    endloop
  endfacet
  facet normal 0 -0.913545457890105 0.4067366425198971
    outer loop
      vertex 52.5 -11.888206452131271 33.86271242797375
      vertex 82.5 -11.888206452131271 33.86271242797375
      vertex 82.5 -10.825317546725273 36.25
    endloop
  endfacet
  facet normal 0 -0.809016995463232 0.5877852507945777
    outer loop
      vertex 52.5 -10.825317546725273 36.25
      vertex 82.5 -10.825317546725273 36.25
      vertex 82.5 -9.289310321211815 38.36413258314133
    endloop
  endfacet
  facet normal 1 0 0
    outer loop
      vertex 82.5 -9.289310321211815 21.635867416858673
      vertex 82.5 -7.347315654158592 19.887287572026253
      vertex 82.5 -11.888206452131271 33.86271242797375
    endloop
  endfacet
  facet normal 1 0 0
    outer loop
      vertex 82.5 -7.347315654158592 19.887287572026253
      vertex 82.5 -5.08420804142952 18.580681778490543
      vertex 82.5 -10.825317546725273 36.25
    endloop
  endfacet
  facet normal 1 0 0
    outer loop
      vertex 82.5 -5.08420804142952 18.580681778490543
      vertex 82.5 -2.598896138370037 17.773154988884926
      vertex 82.5 -9.289310321211815 38.36413258314133
    endloop
  endfacet
  facet normal 1 0 0
    outer loop
      vertex 82.5 -5.08420804142952 18.580681778490543
      vertex 82.5 -9.289310321211815 38.36413258314133
      vertex 82.5 -10.825317546725273 36.25
    endloop
  endfacet
  facet normal 1 0 0
    outer loop
      vertex 82.5 -2.598896138370037 17.773154988884926
      vertex 82.5 -7.347315654158592 40.11271242797375
      vertex 82.5 -9.289310321211815 38.36413258314133
    endloop
  endfacet
  facet normal 1 0 0
    outer loop
      vertex 82.5 -2.598896138370037 17.773154988884926
      vertex 82.5 0 17.5
      vertex 82.5 -7.347315654158592 40.11271242797375
    endloop
  endfacet
  facet normal 1 0 0
    outer loop
      vertex 82.5 0 17.5
      vertex 82.5 2.598896138370037 17.773154988884926
      vertex 82.5 -5.08420804142952 41.41931822150946
    endloop
  endfacet
  facet normal 1 0 0
    outer loop
      vertex 82.5 0 17.5
      vertex 82.5 -5.08420804142952 41.41931822150946
      vertex 82.5 -7.347315654158592 40.11271242797375
    endloop
  endfacet
  facet normal 0 -0.669130604797694 0.7431448268830728
    outer loop
      vertex 52.5 -9.289310321211815 38.36413258314133
      vertex 82.5 -9.289310321211815 38.36413258314133
      vertex 82.5 -7.347315654158592 40.11271242797375
    endloop
  endfacet
  facet normal 0 -0.5000000011828801 0.8660254031015024
    outer loop
      vertex 52.5 -7.347315654158592 40.11271242797375
      vertex 82.5 -7.347315654158592 40.11271242797375
      vertex 82.5 -5.08420804142952 41.41931822150946
    endloop
  endfacet
  facet normal 0 -0.30901699472782745 0.9510565161804959
    outer loop
      vertex 52.5 -5.08420804142952 41.41931822150946
      vertex 82.5 -5.08420804142952 41.41931822150946
      vertex 82.5 -2.598896138370037 42.226845011115074
    endloop
  endfacet
  facet normal 0 -0.10452846240720373 0.9945218954587103
    outer loop
      vertex 52.5 -2.598896138370037 42.226845011115074
      vertex 82.5 -2.598896138370037 42.226845011115074
      vertex 82.5 0 42.5
    endloop
  endfacet
  facet normal 1 0 0
    outer loop
      vertex 82.5 2.598896138370037 17.773154988884926
      vertex 82.5 -2.598896138370037 42.226845011115074
      vertex 82.5 -5.08420804142952 41.41931822150946
    endloop
  endfacet
  facet normal 0 0.10452846240720373 -0.9945218954587103
    outer loop
      vertex 52.5 2.598896138370037 17.773154988884926
      vertex 82.5 0 17.5
      vertex 52.5 0 17.5
    endloop
  endfacet
  facet normal 0 0.30901699472782745 -0.9510565161804959
    outer loop
      vertex 52.5 5.08420804142952 18.580681778490543
      vertex 82.5 2.598896138370037 17.773154988884926
      vertex 52.5 2.598896138370037 17.773154988884926
    endloop
  endfacet
  facet normal 0 0.5000000011828801 -0.8660254031015024
    outer loop
      vertex 52.5 7.347315654158592 19.887287572026253
      vertex 82.5 5.08420804142952 18.580681778490543
      vertex 52.5 5.08420804142952 18.580681778490543
    endloop
  endfacet
  facet normal 0 0.669130604797694 -0.7431448268830728
    outer loop
      vertex 52.5 9.289310321211815 21.635867416858673
      vertex 82.5 7.347315654158592 19.887287572026253
      vertex 52.5 7.347315654158592 19.887287572026253
    endloop
  endfacet
  facet normal 0 0.809016995463232 -0.5877852507945777
    outer loop
      vertex 52.5 10.825317546725273 23.75
      vertex 82.5 9.289310321211815 21.635867416858673
      vertex 52.5 9.289310321211815 21.635867416858673
    endloop
  endfacet
  facet normal 0 0.10452846240720373 -0.9945218954587103
    outer loop
      vertex 52.5 2.598896138370037 17.773154988884926
      vertex 82.5 2.598896138370037 17.773154988884926
      vertex 82.5 0 17.5
    endloop
  endfacet
  facet normal 0 0.30901699472782745 -0.9510565161804959
    outer loop
      vertex 52.5 5.08420804142952 18.580681778490543
      vertex 82.5 5.08420804142952 18.580681778490543
      vertex 82.5 2.598896138370037 17.773154988884926
    endloop
  endfacet
  facet normal 0 0.5000000011828801 -0.8660254031015024
    outer loop
      vertex 52.5 7.347315654158592 19.887287572026253
      vertex 82.5 7.347315654158592 19.887287572026253
      vertex 82.5 5.08420804142952 18.580681778490543
    endloop
  endfacet
  facet normal 0 0.669130604797694 -0.7431448268830728
    outer loop
      vertex 52.5 9.289310321211815 21.635867416858673
      vertex 82.5 9.289310321211815 21.635867416858673
      vertex 82.5 7.347315654158592 19.887287572026253
    endloop
  endfacet
  facet normal -1 0 0
    outer loop
      vertex 52.5 -2.598896138370037 42.226845011115074
      vertex 52.5 5.08420804142952 18.580681778490543
      vertex 52.5 2.598896138370037 17.773154988884926
    endloop
  endfacet
  facet normal -1 0 0
    outer loop
      vertex 52.5 0 42.5
      vertex 52.5 7.347315654158592 19.887287572026253
      vertex 52.5 5.08420804142952 18.580681778490543
    endloop
  endfacet
  facet normal -1 0 0
    outer loop
      vertex 52.5 2.598896138370037 42.226845011115074
      vertex 52.5 9.289310321211815 21.635867416858673
      vertex 52.5 7.347315654158592 19.887287572026253
    endloop
  endfacet
  facet normal -1 0 0
    outer loop
      vertex 52.5 5.08420804142952 41.41931822150946
      vertex 52.5 10.825317546725273 23.75
      vertex 52.5 9.289310321211815 21.635867416858673
    endloop
  endfacet
  facet normal -1 0 0
    outer loop
      vertex 52.5 -2.598896138370037 42.226845011115074
      vertex 52.5 0 42.5
      vertex 52.5 5.08420804142952 18.580681778490543
    endloop
  endfacet
  facet normal -1 0 0
    outer loop
      vertex 52.5 0 42.5
      vertex 52.5 2.598896138370037 42.226845011115074
      vertex 52.5 7.347315654158592 19.887287572026253
    endloop
  endfacet
  facet normal -1 0 0
    outer loop
      vertex 52.5 2.598896138370037 42.226845011115074
      vertex 52.5 5.08420804142952 41.41931822150946
      vertex 52.5 9.289310321211815 21.635867416858673
    endloop
  endfacet
  facet normal -1 0 0
    outer loop
      vertex 52.5 5.08420804142952 41.41931822150946
      vertex 52.5 7.347315654158592 40.11271242797375
      vertex 52.5 10.825317546725273 23.75
    endloop
  endfacet
  facet normal -1 0 0
    outer loop
      vertex 52.5 7.347315654158592 40.11271242797375
      vertex 52.5 9.289310321211815 38.36413258314133
      vertex 52.5 11.888206452131271 26.137287572026253
    endloop
  endfacet
  facet normal 0 0.10452846240720373 0.9945218954587103
    outer loop
      vertex 52.5 0 42.5
      vertex 82.5 2.598896138370037 42.226845011115074
      vertex 52.5 2.598896138370037 42.226845011115074
    endloop
  endfacet
  facet normal 0 0.30901699472782745 0.9510565161804959
    outer loop
      vertex 52.5 2.598896138370037 42.226845011115074
      vertex 82.5 5.08420804142952 41.41931822150946
      vertex 52.5 5.08420804142952 41.41931822150946
    endloop
  endfacet
  facet normal 0 0.669130604797694 0.7431448268830728
    outer loop
      vertex 52.5 7.347315654158592 40.11271242797375
      vertex 82.5 9.289310321211815 38.36413258314133
      vertex 52.5 9.289310321211815 38.36413258314133
    endloop
  endfacet
  facet normal 0 0.5000000011828801 0.8660254031015024
    outer loop
      vertex 52.5 5.08420804142952 41.41931822150946
      vertex 82.5 7.347315654158592 40.11271242797375
      vertex 52.5 7.347315654158592 40.11271242797375
    endloop
  endfacet
  facet normal -1 0 0
    outer loop
      vertex 52.5 7.347315654158592 40.11271242797375
      vertex 52.5 11.888206452131271 26.137287572026253
      vertex 52.5 10.825317546725273 23.75
    endloop
  endfacet
  facet normal -1 0 0
    outer loop
      vertex 52.5 9.289310321211815 38.36413258314133
      vertex 52.5 12.431523695588112 28.69339420646429
      vertex 52.5 11.888206452131271 26.137287572026253
    endloop
  endfacet
  facet normal -1 0 0
    outer loop
      vertex 52.5 10.825317546725273 36.25
      vertex 52.5 12.431523695588112 31.30660579353571
      vertex 52.5 12.431523695588112 28.69339420646429
    endloop
  endfacet
  facet normal 0 0.913545457890105 -0.4067366425198971
    outer loop
      vertex 52.5 11.888206452131271 26.137287572026253
      vertex 82.5 10.825317546725273 23.75
      vertex 52.5 10.825317546725273 23.75
    endloop
  endfacet
  facet normal 0 0.9781476002685198 -0.20791169300675683
    outer loop
      vertex 52.5 12.431523695588112 28.69339420646429
      vertex 82.5 11.888206452131271 26.137287572026253
      vertex 52.5 11.888206452131271 26.137287572026253
    endloop
  endfacet
  facet normal 0 0.9781476002685198 0.20791169300675683
    outer loop
      vertex 52.5 11.888206452131271 33.86271242797375
      vertex 82.5 12.431523695588112 31.30660579353571
      vertex 52.5 12.431523695588112 31.30660579353571
    endloop
  endfacet
  facet normal 0 1 0
    outer loop
      vertex 52.5 12.431523695588112 31.30660579353571
      vertex 82.5 12.431523695588112 28.69339420646429
      vertex 52.5 12.431523695588112 28.69339420646429
    endloop
  endfacet
  facet normal -1 0 0
    outer loop
      vertex 52.5 9.289310321211815 38.36413258314133
      vertex 52.5 10.825317546725273 36.25
      vertex 52.5 12.431523695588112 28.69339420646429
    endloop
  endfacet
  facet normal -1 0 0
    outer loop
      vertex 52.5 10.825317546725273 36.25
      vertex 52.5 11.888206452131271 33.86271242797375
      vertex 52.5 12.431523695588112 31.30660579353571
    endloop
  endfacet
  facet normal 0 0.913545457890105 0.4067366425198971
    outer loop
      vertex 52.5 10.825317546725273 36.25
      vertex 82.5 11.888206452131271 33.86271242797375
      vertex 52.5 11.888206452131271 33.86271242797375
    endloop
  endfacet
  facet normal 0 0.809016995463232 0.5877852507945777
    outer loop
      vertex 52.5 9.289310321211815 38.36413258314133
      vertex 82.5 10.825317546725273 36.25
      vertex 52.5 10.825317546725273 36.25
    endloop
  endfacet
  facet normal 1 0 0
    outer loop
      vertex 82.5 2.598896138370037 17.773154988884926
      vertex 82.5 5.08420804142952 18.580681778490543
      vertex 82.5 -2.598896138370037 42.226845011115074
    endloop
  endfacet
  facet normal 1 0 0
    outer loop
      vertex 82.5 5.08420804142952 18.580681778490543
      vertex 82.5 7.347315654158592 19.887287572026253
      vertex 82.5 0 42.5
    endloop
  endfacet
  facet normal 1 0 0
    outer loop
      vertex 82.5 7.347315654158592 19.887287572026253
      vertex 82.5 9.289310321211815 21.635867416858673
      vertex 82.5 2.598896138370037 42.226845011115074
    endloop
  endfacet
  facet normal 1 0 0
    outer loop
      vertex 82.5 9.289310321211815 21.635867416858673
      vertex 82.5 10.825317546725273 23.75
      vertex 82.5 5.08420804142952 41.41931822150946
    endloop
  endfacet
  facet normal 0 0.10452846240720373 0.9945218954587103
    outer loop
      vertex 52.5 0 42.5
      vertex 82.5 0 42.5
      vertex 82.5 2.598896138370037 42.226845011115074
    endloop
  endfacet
  facet normal 0 0.30901699472782745 0.9510565161804959
    outer loop
      vertex 52.5 2.598896138370037 42.226845011115074
      vertex 82.5 2.598896138370037 42.226845011115074
      vertex 82.5 5.08420804142952 41.41931822150946
    endloop
  endfacet
  facet normal 0 0.809016995463232 0.5877852507945777
    outer loop
      vertex 52.5 9.289310321211815 38.36413258314133
      vertex 82.5 9.289310321211815 38.36413258314133
      vertex 82.5 10.825317546725273 36.25
    endloop
  endfacet
  facet normal 0 0.5000000011828801 0.8660254031015024
    outer loop
      vertex 52.5 5.08420804142952 41.41931822150946
      vertex 82.5 5.08420804142952 41.41931822150946
      vertex 82.5 7.347315654158592 40.11271242797375
    endloop
  endfacet
  facet normal 0 0.669130604797694 0.7431448268830728
    outer loop
      vertex 52.5 7.347315654158592 40.11271242797375
      vertex 82.5 7.347315654158592 40.11271242797375
      vertex 82.5 9.289310321211815 38.36413258314133
    endloop
  endfacet
  facet normal 1 0 0
    outer loop
      vertex 82.5 5.08420804142952 18.580681778490543
      vertex 82.5 0 42.5
      vertex 82.5 -2.598896138370037 42.226845011115074
    endloop
  endfacet
  facet normal 1 0 0
    outer loop
      vertex 82.5 7.347315654158592 19.887287572026253
      vertex 82.5 2.598896138370037 42.226845011115074
      vertex 82.5 0 42.5
    endloop
  endfacet
  facet normal 1 0 0
    outer loop
      vertex 82.5 9.289310321211815 21.635867416858673
      vertex 82.5 5.08420804142952 41.41931822150946
      vertex 82.5 2.598896138370037 42.226845011115074
    endloop
  endfacet
  facet normal 1 0 0
    outer loop
      vertex 82.5 10.825317546725273 23.75
      vertex 82.5 7.347315654158592 40.11271242797375
      vertex 82.5 5.08420804142952 41.41931822150946
    endloop
  endfacet
  facet normal 1 0 0
    outer loop
      vertex 82.5 11.888206452131271 26.137287572026253
      vertex 82.5 9.289310321211815 38.36413258314133
      vertex 82.5 7.347315654158592 40.11271242797375
    endloop
  endfacet
  facet normal 0 0.809016995463232 -0.5877852507945777
    outer loop
      vertex 52.5 10.825317546725273 23.75
      vertex 82.5 10.825317546725273 23.75
      vertex 82.5 9.289310321211815 21.635867416858673
    endloop
  endfacet
  facet normal 0 0.913545457890105 -0.4067366425198971
    outer loop
      vertex 52.5 11.888206452131271 26.137287572026253
      vertex 82.5 11.888206452131271 26.137287572026253
      vertex 82.5 10.825317546725273 23.75
    endloop
  endfacet
  facet normal 0 0.9781476002685198 -0.20791169300675683
    outer loop
      vertex 52.5 12.431523695588112 28.69339420646429
      vertex 82.5 12.431523695588112 28.69339420646429
      vertex 82.5 11.888206452131271 26.137287572026253
    endloop
  endfacet
  facet normal 0 0.9781476002685198 0.20791169300675683
    outer loop
      vertex 52.5 11.888206452131271 33.86271242797375
      vertex 82.5 11.888206452131271 33.86271242797375
      vertex 82.5 12.431523695588112 31.30660579353571
    endloop
  endfacet
  facet normal 0 1 0
    outer loop
      vertex 52.5 12.431523695588112 31.30660579353571
      vertex 82.5 12.431523695588112 31.30660579353571
      vertex 82.5 12.431523695588112 28.69339420646429
    endloop
  endfacet
  facet normal 1 0 0
    outer loop
      vertex 82.5 10.825317546725273 23.75
      vertex 82.5 11.888206452131271 26.137287572026253
      vertex 82.5 7.347315654158592 40.11271242797375
    endloop
  endfacet
  facet normal 1 0 0
    outer loop
      vertex 82.5 11.888206452131271 26.137287572026253
      vertex 82.5 12.431523695588112 28.69339420646429
      vertex 82.5 9.289310321211815 38.36413258314133
    endloop
  endfacet
  facet normal 1 0 0
    outer loop
      vertex 82.5 12.431523695588112 28.69339420646429
      vertex 82.5 12.431523695588112 31.30660579353571
      vertex 82.5 10.825317546725273 36.25
    endloop
  endfacet
  facet normal 0 0.913545457890105 0.4067366425198971
    outer loop
      vertex 52.5 10.825317546725273 36.25
      vertex 82.5 10.825317546725273 36.25
      vertex 82.5 11.888206452131271 33.86271242797375
    endloop
  endfacet
  facet normal 1 0 0
    outer loop
      vertex 82.5 12.431523695588112 28.69339420646429
      vertex 82.5 10.825317546725273 36.25
      vertex 82.5 9.289310321211815 38.36413258314133
    endloop
  endfacet
  facet normal 1 0 0
    outer loop
      vertex 82.5 12.431523695588112 31.30660579353571
      vertex 82.5 11.888206452131271 33.86271242797375
      vertex 82.5 10.825317546725273 36.25
    endloop
  endfacet
endsolid OpenSCAD_Model
