solid OpenSCAD_Model
  facet normal 0 0 -1
    outer loop
      vertex -14.725 -6.75 -9.45
      vertex -5.05 -5.550000000000001 -9.45
      vertex -5.05 -6.75 -9.45
    endloop
  endfacet
  facet normal -1 0 0
    outer loop
      vertex -14.725 -6.75 -9.45
      vertex -14.725 6.75 9.45
      vertex -14.725 6.75 -9.45
    endloop
  endfacet
  facet normal 0 0 -1
    outer loop
      vertex -14.725 -6.75 -9.45
      vertex 14.725 6.75 -9.45
      vertex -5.05 -5.550000000000001 -9.45
    endloop
  endfacet
  facet normal 0 -1 0
    outer loop
      vertex -14.725 -6.75 -9.45
      vertex -5.05 -6.75 -9.45
      vertex 14.725 -6.75 9.45
    endloop
  endfacet
  facet normal 0 0 -1
    outer loop
      vertex -14.725 -6.75 -9.45
      vertex -14.725 6.75 -9.45
      vertex 14.725 6.75 -9.45
    endloop
  endfacet
  facet normal -1 0 0
    outer loop
      vertex -14.725 -6.75 -9.45
      vertex -14.725 -6.75 9.45
      vertex -14.725 6.75 9.45
    endloop
  endfacet
  facet normal 0 -1 0
    outer loop
      vertex -14.725 -6.75 -9.45
      vertex 14.725 -6.75 9.45
      vertex -14.725 -6.75 9.45
    endloop
  endfacet
  facet normal 0 0 1
    outer loop
      vertex -14.725 -6.75 9.45
      vertex 14.725 -6.75 9.45
      vertex -14.725 6.75 9.45
    endloop
  endfacet
  facet normal 0 1 0
    outer loop
      vertex -14.725 6.75 -9.45
      vertex -14.725 6.75 9.45
      vertex 14.725 6.75 -9.45
    endloop
  endfacet
  facet normal 0 -1 0
    outer loop
      vertex 14.725 -6.75 9.45
      vertex -5.05 -6.75 -9.45
      vertex 5.05 -6.75 -9.45
    endloop
  endfacet
  facet normal 0 0 -1
    outer loop
      vertex 14.725 6.75 -9.45
      vertex 5.05 -5.550000000000001 -9.45
      vertex -5.05 -5.550000000000001 -9.45
    endloop
  endfacet
  facet normal 0 0 -1
    outer loop
      vertex 14.725 -6.75 -9.45
      vertex 5.05 -6.75 -9.45
      vertex 5.05 -5.550000000000001 -9.45
    endloop
  endfacet
  facet normal 0 0 -1
    outer loop
      vertex 14.725 -6.75 -9.45
      vertex 5.05 -5.550000000000001 -9.45
      vertex 14.725 6.75 -9.45
    endloop
  endfacet
  facet normal 0 -1 0
    outer loop
      vertex 5.05 -6.75 -9.45
      vertex 14.725 -6.75 -9.45
      vertex 14.725 -6.75 9.45
    endloop
  endfacet
  facet normal 1 0 0
    outer loop
      vertex 14.725 -6.75 -9.45
      vertex 14.725 6.75 -9.45
      vertex 14.725 -6.75 9.45
    endloop
  endfacet
  facet normal 0 0 1
    outer loop
      vertex -14.725 6.75 9.45
      vertex 14.725 -6.75 9.45
      vertex 14.725 6.75 9.45
    endloop
  endfacet
  facet normal 1 0 0
    outer loop
      vertex 14.725 -6.75 9.45
      vertex 14.725 6.75 -9.45
      vertex 14.725 6.75 9.45
    endloop
  endfacet
  facet normal 0 1 0
    outer loop
      vertex -14.725 6.75 9.45
      vertex 14.725 6.75 9.45
      vertex 14.725 6.75 -9.45
    endloop
  endfacet
  facet normal -1 0 0
    outer loop
      vertex -14.725 6.750000000000001 -9.45
      vertex -14.725 13.850000000000001 9.45
      vertex -14.725 13.850000000000001 -9.45
    endloop
  endfacet
  facet normal 0 0 -1
    outer loop
      vertex -14.725 6.750000000000001 -9.45
      vertex -14.725 13.850000000000001 -9.45
      vertex 14.725 13.850000000000001 -9.45
    endloop
  endfacet
  facet normal 0 1 0
    outer loop
      vertex -14.725 13.850000000000001 -9.45
      vertex -14.725 13.850000000000001 9.45
      vertex 14.725 13.850000000000001 -9.45
    endloop
  endfacet
  facet normal -1 0 0
    outer loop
      vertex -14.725 6.750000000000001 -9.45
      vertex -14.725 6.750000000000001 9.45
      vertex -14.725 13.850000000000001 9.45
    endloop
  endfacet
  facet normal 0 -1 0
    outer loop
      vertex -14.725 6.750000000000001 -9.45
      vertex 14.725 6.750000000000001 9.45
      vertex -14.725 6.750000000000001 9.45
    endloop
  endfacet
  facet normal 0 0 1
    outer loop
      vertex -14.725 6.750000000000001 9.45
      vertex 14.725 6.750000000000001 9.45
      vertex -14.725 13.850000000000001 9.45
    endloop
  endfacet
  facet normal 0 -1 0
    outer loop
      vertex -14.725 6.750000000000001 -9.45
      vertex 14.725 6.750000000000001 -9.45
      vertex 14.725 6.750000000000001 9.45
    endloop
  endfacet
  facet normal 0 0 -1
    outer loop
      vertex -14.725 6.750000000000001 -9.45
      vertex 14.725 13.850000000000001 -9.45
      vertex 14.725 6.750000000000001 -9.45
    endloop
  endfacet
  facet normal 1 0 0
    outer loop
      vertex 14.725 6.750000000000001 -9.45
      vertex 14.725 13.850000000000001 -9.45
      vertex 14.725 6.750000000000001 9.45
    endloop
  endfacet
  facet normal 0 1 0
    outer loop
      vertex -14.725 13.850000000000001 9.45
      vertex 14.725 13.850000000000001 9.45
      vertex 14.725 13.850000000000001 -9.45
    endloop
  endfacet
  facet normal 0 0 1
    outer loop
      vertex -14.725 13.850000000000001 9.45
      vertex 14.725 6.750000000000001 9.45
      vertex 14.725 13.850000000000001 9.45
    endloop
  endfacet
  facet normal 1 0 0
    outer loop
      vertex 14.725 13.850000000000001 -9.45
      vertex 14.725 13.850000000000001 9.45
      vertex 14.725 6.750000000000001 9.45
    endloop
  endfacet
  facet normal -1 0 0
    outer loop
      vertex -5.05 -6.75 -11.45
      vertex -5.05 -5.550000000000001 -9.45
      vertex -5.05 -5.550000000000001 -11.45
    endloop
  endfacet
  facet normal -1 0 0
    outer loop
      vertex -5.05 -6.75 -11.45
      vertex -5.05 -6.75 -9.45
      vertex -5.05 -5.550000000000001 -9.45
    endloop
  endfacet
  facet normal 0 0 -1
    outer loop
      vertex -5.05 -6.75 -11.45
      vertex -5.05 -5.550000000000001 -11.45
      vertex 5.05 -5.550000000000001 -11.45
    endloop
  endfacet
  facet normal 0 1 0
    outer loop
      vertex -5.05 -5.550000000000001 -11.45
      vertex -5.05 -5.550000000000001 -9.45
      vertex 5.05 -5.550000000000001 -11.45
    endloop
  endfacet
  facet normal 0 -1 0
    outer loop
      vertex -5.05 -6.75 -11.45
      vertex 5.05 -6.75 -9.45
      vertex -5.05 -6.75 -9.45
    endloop
  endfacet
  facet normal 0 0 -1
    outer loop
      vertex -5.05 -6.75 -11.45
      vertex 5.05 -5.550000000000001 -11.45
      vertex 5.05 -6.75 -11.45
    endloop
  endfacet
  facet normal 0 -1 0
    outer loop
      vertex -5.05 -6.75 -11.45
      vertex 5.05 -6.75 -11.45
      vertex 5.05 -6.75 -9.45
    endloop
  endfacet
  facet normal 0 1 0
    outer loop
      vertex 5.05 -5.550000000000001 -11.45
      vertex -5.05 -5.550000000000001 -9.45
      vertex 5.05 -5.550000000000001 -9.45
    endloop
  endfacet
  facet normal 1 0 0
    outer loop
      vertex 5.05 -6.75 -11.45
      vertex 5.05 -5.550000000000001 -11.45
      vertex 5.05 -6.75 -9.45
    endloop
  endfacet
  facet normal 1 0 0
    outer loop
      vertex 5.05 -5.550000000000001 -11.45
      vertex 5.05 -5.550000000000001 -9.45
      vertex 5.05 -6.75 -9.45
    endloop
  endfacet
endsolid OpenSCAD_Model
