solid OpenSCAD_Model
  facet normal 0 0 -1
    outer loop
      vertex -38.6435309248245 -34.79479153066063 0
      vertex -45.033320996790806 -26 0
      vertex -28.561070910143624 -27.731303248462027 0
    endloop
  endfacet
  facet normal 0 0 -1
    outer loop
      vertex -45.033320996790806 -26 0
      vertex -31.525109076801797 -24.439405366140083 0
      vertex -28.561070910143624 -27.731303248462027 0
    endloop
  endfacet
  facet normal 0 0 -1
    outer loop
      vertex -30.564833119208604 -42.068883707497264 0
      vertex -38.6435309248245 -34.79479153066063 0
      vertex -13.786717069230233 -37.407347942094134 0
    endloop
  endfacet
  facet normal 0 0 -1
    outer loop
      vertex -38.6435309248245 -34.79479153066063 0
      vertex -19.375234923482104 -28.696773515116014 0
      vertex -19.65461484320911 -34.79479153066063 0
    endloop
  endfacet
  facet normal 0 0 -1
    outer loop
      vertex -38.6435309248245 -34.79479153066063 0
      vertex -28.561070910143624 -27.731303248462027 0
      vertex -19.375234923482104 -28.696773515116014 0
    endloop
  endfacet
  facet normal -0.6652269349293819 -0.7388093591340374 0.10786035370057265
    outer loop
      vertex -30.564833119208604 -42.068883707497264 0
      vertex -29.725793019095768 -26.76522425435433 110
      vertex -38.6435309248245 -34.79479153066063 0
    endloop
  endfacet
  facet normal -0.8042972333942221 -0.584356145217955 0.10786035370057266
    outer loop
      vertex -38.6435309248245 -34.79479153066063 0
      vertex -29.725793019095768 -26.76522425435433 110
      vertex -45.033320996790806 -26 0
    endloop
  endfacet
  facet normal 0 0 -1
    outer loop
      vertex -49.45493884734798 -16.068883707497264 0
      vertex -35.46604667041858 -18.132756852687873 0
      vertex -45.033320996790806 -26 0
    endloop
  endfacet
  facet normal 0 0 -1
    outer loop
      vertex -49.45493884734798 -16.068883707497264 0
      vertex -36.608278353907934 -16.064922726794997 0
      vertex -35.9174478986 -17.35090699087866 0
    endloop
  endfacet
  facet normal 0 0 -1
    outer loop
      vertex -49.45493884734798 -16.068883707497264 0
      vertex -35.9174478986 -17.35090699087866 0
      vertex -35.46604667041858 -18.132756852687873 0
    endloop
  endfacet
  facet normal 0 0 -1
    outer loop
      vertex -49.45493884734798 -16.068883707497264 0
      vertex -37.17332713276198 -14.325881402414916 0
      vertex -36.608278353907934 -16.064922726794997 0
    endloop
  endfacet
  facet normal 0 0 -1
    outer loop
      vertex -49.45493884734798 -16.068883707497264 0
      vertex -51.71513855915021 -5.435480089917981 0
      vertex -39.14838488585496 -8.102576570700334 0
    endloop
  endfacet
  facet normal 0 0 -1
    outer loop
      vertex -51.71513855915021 -5.435480089917981 0
      vertex -51.71513855915021 5.435480089917981 0
      vertex -39.786385058317435 -2.032410408035409 0
    endloop
  endfacet
  facet normal 0 0 -1
    outer loop
      vertex -49.45493884734798 -16.068883707497264 0
      vertex -39.14838488585496 -8.102576570700334 0
      vertex -39.10440423714734 -8.111910773983068 0
    endloop
  endfacet
  facet normal 0 0 -1
    outer loop
      vertex -49.45493884734798 -16.068883707497264 0
      vertex -39.10440423714734 -8.111910773983068 0
      vertex -37.17332713276198 -14.325881402414916 0
    endloop
  endfacet
  facet normal 0 0 -1
    outer loop
      vertex -51.71513855915021 -5.435480089917981 0
      vertex -39.786385058317435 -2.032410408035409 0
      vertex -39.14838488585496 -8.102576570700334 0
    endloop
  endfacet
  facet normal 0 0 -1
    outer loop
      vertex -45.033320996790806 -26 0
      vertex -35.46604667041858 -18.132756852687873 0
      vertex -31.525109076801797 -24.439405366140083 0
    endloop
  endfacet
  facet normal 0 0 -1
    outer loop
      vertex -35.46604667041858 -18.132756852687873 0
      vertex -31.85141166588418 -18.66604769667821 0
      vertex -31.525109076801797 -24.439405366140083 0
    endloop
  endfacet
  facet normal 0 0 -1
    outer loop
      vertex -36.608278353907934 -16.064922726794997 0
      vertex -36.52031711998614 -16.064895605914025 0
      vertex -35.9174478986 -17.35090699087866 0
    endloop
  endfacet
  facet normal -0.9082158833134089 -0.4043637637039599 0.1078603537005726
    outer loop
      vertex -49.45493884734798 -16.068883707497264 0
      vertex -45.033320996790806 -26 0
      vertex -34.64101615137754 -20 110
    endloop
  endfacet
  facet normal -0.9724411410284681 -0.20669874536348448 0.1078603537005726
    outer loop
      vertex -49.45493884734798 -16.068883707497264 0
      vertex -38.04226065180614 -12.360679774997896 110
      vertex -51.71513855915021 -5.435480089917981 0
    endloop
  endfacet
  facet normal -0.9941660545902719 0 0.10786035370057256
    outer loop
      vertex -51.71513855915021 -5.435480089917981 0
      vertex -39.78087581473093 -4.181138530706139 110
      vertex -51.71513855915021 5.435480089917981 0
    endloop
  endfacet
  facet normal 0 0 -1
    outer loop
      vertex -38.6435309248245 -34.79479153066063 0
      vertex -19.65461484320911 -34.79479153066063 0
      vertex -13.786717069230233 -37.407347942094134 0
    endloop
  endfacet
  facet normal 0 0 -1
    outer loop
      vertex -30.564833119208604 -42.068883707497264 0
      vertex 21.15030543994161 -47.504363797415245 0
      vertex -21.15030543994161 -47.504363797415245 0
    endloop
  endfacet
  facet normal 0 0 -1
    outer loop
      vertex -21.15030543994161 -47.504363797415245 0
      vertex 10.811407922523486 -50.863675238157896 0
      vertex -10.811407922523486 -50.863675238157896 0
    endloop
  endfacet
  facet normal 0 0 -1
    outer loop
      vertex -30.564833119208604 -42.068883707497264 0
      vertex -13.786717069230233 -37.407347942094134 0
      vertex 5.708019263614339 -39.45632729606376 0
    endloop
  endfacet
  facet normal -0.4970830272951359 -0.8609730588553225 0.10786035370057256
    outer loop
      vertex -30.564833119208604 -42.068883707497264 0
      vertex -21.15030543994161 -47.504363797415245 0
      vertex -23.511410091698927 -32.3606797749979 110
    endloop
  endfacet
  facet normal -0.30721420609908606 -0.9455081044975213 0.1078603537005726
    outer loop
      vertex -21.15030543994161 -47.504363797415245 0
      vertex -10.811407922523486 -50.863675238157896 0
      vertex -16.26946572303201 -36.541818305704034 110
    endloop
  endfacet
  facet normal -0.10391864991918695 -0.9887199089219154 0.10786035370057259
    outer loop
      vertex -10.811407922523486 -50.863675238157896 0
      vertex 0 -52 0
      vertex -8.316467632710374 -39.12590402935223 110
    endloop
  endfacet
  facet normal -0.6652269349293823 -0.738809359134037 0.10786035370057256
    outer loop
      vertex -30.564833119208604 -42.068883707497264 0
      vertex -23.511410091698927 -32.3606797749979 110
      vertex -29.725793019095768 -26.76522425435433 110
    endloop
  endfacet
  facet normal -0.9082158833134089 -0.40436376370395977 0.10786035370057259
    outer loop
      vertex -49.45493884734798 -16.068883707497264 0
      vertex -34.64101615137754 -20 110
      vertex -38.04226065180614 -12.360679774997896 110
    endloop
  endfacet
  facet normal -0.972441141028468 -0.20669874536348484 0.10786035370057258
    outer loop
      vertex -51.71513855915021 -5.435480089917981 0
      vertex -38.04226065180614 -12.360679774997896 110
      vertex -39.78087581473093 -4.181138530706139 110
    endloop
  endfacet
  facet normal -0.8042972333942218 -0.5843561452179552 0.1078603537005726
    outer loop
      vertex -45.033320996790806 -26 0
      vertex -29.725793019095768 -26.76522425435433 110
      vertex -34.64101615137754 -20 110
    endloop
  endfacet
  facet normal 0 0 1
    outer loop
      vertex -29.725793019095768 -26.76522425435433 110
      vertex -14.106846055019355 -19.41640786499874 110
      vertex -34.64101615137754 -20 110
    endloop
  endfacet
  facet normal 0 0 1
    outer loop
      vertex -34.64101615137754 -20 110
      vertex -20.784609690826528 -12 110
      vertex -38.04226065180614 -12.360679774997896 110
    endloop
  endfacet
  facet normal 0 0 1
    outer loop
      vertex -39.78087581473093 -4.181138530706139 110
      vertex -38.04226065180614 -12.360679774997896 110
      vertex -23.868525488838557 -2.5086831184236833 110
    endloop
  endfacet
  facet normal 0 0 1
    outer loop
      vertex -38.04226065180614 -12.360679774997896 110
      vertex -20.784609690826528 -12 110
      vertex -22.825356391083684 -7.416407864998737 110
    endloop
  endfacet
  facet normal 0 0 1
    outer loop
      vertex -38.04226065180614 -12.360679774997896 110
      vertex -22.825356391083684 -7.416407864998737 110
      vertex -23.868525488838557 -2.5086831184236833 110
    endloop
  endfacet
  facet normal 0 0 1
    outer loop
      vertex -39.78087581473093 -4.181138530706139 110
      vertex -23.868525488838557 -2.5086831184236833 110
      vertex -23.868525488838557 2.5086831184236833 110
    endloop
  endfacet
  facet normal -0.49708302729513565 -0.8609730588553226 0.1078603537005726
    outer loop
      vertex -21.15030543994161 -47.504363797415245 0
      vertex -16.26946572303201 -36.541818305704034 110
      vertex -23.511410091698927 -32.3606797749979 110
    endloop
  endfacet
  facet normal -0.30721420609908623 -0.9455081044975212 0.10786035370057258
    outer loop
      vertex -10.811407922523486 -50.863675238157896 0
      vertex -8.316467632710374 -39.12590402935223 110
      vertex -16.26946572303201 -36.541818305704034 110
    endloop
  endfacet
  facet normal -0.10391864991918695 -0.9887199089219154 0.10786035370057259
    outer loop
      vertex -8.316467632710374 -39.12590402935223 110
      vertex 0 -52 0
      vertex 0 -40 110
    endloop
  endfacet
  facet normal 0 0 1
    outer loop
      vertex -29.725793019095768 -26.76522425435433 110
      vertex -23.511410091698927 -32.3606797749979 110
      vertex 29.725793019095768 -26.76522425435433 110
    endloop
  endfacet
  facet normal 0 0 1
    outer loop
      vertex -23.511410091698927 -32.3606797749979 110
      vertex -16.26946572303201 -36.541818305704034 110
      vertex 23.511410091698927 -32.3606797749979 110
    endloop
  endfacet
  facet normal 0 0 1
    outer loop
      vertex -16.26946572303201 -36.541818305704034 110
      vertex -8.316467632710374 -39.12590402935223 110
      vertex 16.26946572303201 -36.541818305704034 110
    endloop
  endfacet
  facet normal 0 0 1
    outer loop
      vertex -34.64101615137754 -20 110
      vertex -17.835475811457464 -16.059134552612598 110
      vertex -20.784609690826528 -12 110
    endloop
  endfacet
  facet normal 0 0 1
    outer loop
      vertex -34.64101615137754 -20 110
      vertex -14.106846055019355 -19.41640786499874 110
      vertex -17.835475811457464 -16.059134552612598 110
    endloop
  endfacet
  facet normal 0 0 1
    outer loop
      vertex -29.725793019095768 -26.76522425435433 110
      vertex -9.761679433819205 -21.92509098342242 110
      vertex -14.106846055019355 -19.41640786499874 110
    endloop
  endfacet
  facet normal 0 0 1
    outer loop
      vertex -29.725793019095768 -26.76522425435433 110
      vertex -4.989880579626224 -23.475542417611337 110
      vertex -9.761679433819205 -21.92509098342242 110
    endloop
  endfacet
  facet normal 0 0 1
    outer loop
      vertex -29.725793019095768 -26.76522425435433 110
      vertex 0 -24 110
      vertex -4.989880579626224 -23.475542417611337 110
    endloop
  endfacet
  facet normal 0 0 -1
    outer loop
      vertex -51.71513855915021 5.435480089917981 0
      vertex -49.45493884734798 16.068883707497264 0
      vertex -39.562952014676114 4.158233816355187 0
    endloop
  endfacet
  facet normal 0 0 -1
    outer loop
      vertex -51.71513855915021 5.435480089917981 0
      vertex -39.562952014676114 4.158233816355187 0
      vertex -39.786385058317435 -2.032410408035409 0
    endloop
  endfacet
  facet normal 0 0 -1
    outer loop
      vertex -49.45493884734798 16.068883707497264 0
      vertex -37.24313199147738 9.596911719850288 0
      vertex -39.562952014676114 4.158233816355187 0
    endloop
  endfacet
  facet normal 0 0 -1
    outer loop
      vertex -49.45493884734798 16.068883707497264 0
      vertex -45.033320996790806 26 0
      vertex -36.56331809790892 16.064908864304705 0
    endloop
  endfacet
  facet normal 0 0 -1
    outer loop
      vertex -49.45493884734798 16.068883707497264 0
      vertex -36.56331809790892 16.064908864304705 0
      vertex -37.24313199147738 9.596911719850288 0
    endloop
  endfacet
  facet normal 0 0 -1
    outer loop
      vertex -45.033320996790806 26 0
      vertex -36.541818305704034 16.064902235324194 0
      vertex -36.56331809790892 16.064908864304705 0
    endloop
  endfacet
  facet normal 0 0 -1
    outer loop
      vertex -39.562952014676114 4.158233816355187 0
      vertex -37.24313199147738 9.596911719850288 0
      vertex -39.12590402935223 4.112298222083315 0
    endloop
  endfacet
  facet normal 0 0 -1
    outer loop
      vertex -45.033320996790806 26 0
      vertex -32.57761440554381 21.44741495394297 0
      vertex -36.541818305704034 16.064902235324194 0
    endloop
  endfacet
  facet normal 0 0 -1
    outer loop
      vertex -45.033320996790806 26 0
      vertex -32.38218096071579 23.306839974580946 0
      vertex -32.57761440554381 21.44741495394297 0
    endloop
  endfacet
  facet normal 0 0 -1
    outer loop
      vertex -45.033320996790806 26 0
      vertex -27.371284308206132 23.95951678560395 0
      vertex -32.38218096071579 23.306839974580946 0
    endloop
  endfacet
  facet normal 0 0 -1
    outer loop
      vertex -45.033320996790806 26 0
      vertex -27.156820880384586 26 0
      vertex -27.371284308206132 23.95951678560395 0
    endloop
  endfacet
  facet normal 0 0 -1
    outer loop
      vertex -32.38218096071579 23.306839974580946 0
      vertex -27.371284308206132 23.95951678560395 0
      vertex -32.3606797749979 23.302262827089933 0
    endloop
  endfacet
  facet normal -0.9724411410284681 0.20669874536348448 0.1078603537005726
    outer loop
      vertex -51.71513855915021 5.435480089917981 0
      vertex -38.04226065180614 12.360679774997896 110
      vertex -49.45493884734798 16.068883707497264 0
    endloop
  endfacet
  facet normal -0.9082158833134089 0.4043637637039599 0.1078603537005726
    outer loop
      vertex -49.45493884734798 16.068883707497264 0
      vertex -34.64101615137754 20 110
      vertex -45.033320996790806 26 0
    endloop
  endfacet
  facet normal 0 0 -1
    outer loop
      vertex -45.033320996790806 26 0
      vertex -38.6435309248245 34.79479153066063 0
      vertex -27.156820880384586 26 0
    endloop
  endfacet
  facet normal 0 0 -1
    outer loop
      vertex -38.6435309248245 34.79479153066063 0
      vertex -26.76522425435433 26 0
      vertex -27.156820880384586 26 0
    endloop
  endfacet
  facet normal 0 0 -1
    outer loop
      vertex -38.6435309248245 34.79479153066063 0
      vertex -20.18771709119401 32.85500733147121 0
      vertex -26.76522425435433 26 0
    endloop
  endfacet
  facet normal 0 0 -1
    outer loop
      vertex -38.6435309248245 34.79479153066063 0
      vertex -30.564833119208604 42.068883707497264 0
      vertex -12.702002533524793 34.79479153066063 0
    endloop
  endfacet
  facet normal -0.8042972333942221 0.584356145217955 0.10786035370057266
    outer loop
      vertex -45.033320996790806 26 0
      vertex -29.725793019095768 26.76522425435433 110
      vertex -38.6435309248245 34.79479153066063 0
    endloop
  endfacet
  facet normal -0.6652269349293819 0.7388093591340374 0.10786035370057263
    outer loop
      vertex -38.6435309248245 34.79479153066063 0
      vertex -29.725793019095768 26.76522425435433 110
      vertex -30.564833119208604 42.068883707497264 0
    endloop
  endfacet
  facet normal 0 0 -1
    outer loop
      vertex -38.6435309248245 34.79479153066063 0
      vertex -12.702002533524793 34.79479153066063 0
      vertex -20.18771709119401 32.85500733147121 0
    endloop
  endfacet
  facet normal 0 0 -1
    outer loop
      vertex -20.18771709119401 32.85500733147121 0
      vertex -12.702002533524793 34.79479153066063 0
      vertex -20 32.83527747015496 0
    endloop
  endfacet
  facet normal 0 0 -1
    outer loop
      vertex -30.564833119208604 42.068883707497264 0
      vertex -12.360679774997896 34.79479153066063 0
      vertex -12.702002533524793 34.79479153066063 0
    endloop
  endfacet
  facet normal 0 0 -1
    outer loop
      vertex -30.564833119208604 42.068883707497264 0
      vertex -4.231560250044069 39.30114520054134 0
      vertex -12.360679774997896 34.79479153066063 0
    endloop
  endfacet
  facet normal 0 0 -1
    outer loop
      vertex -30.564833119208604 42.068883707497264 0
      vertex -21.15030543994161 47.504363797415245 0
      vertex 30.564833119208604 42.068883707497264 0
    endloop
  endfacet
  facet normal 0 0 -1
    outer loop
      vertex -30.564833119208604 42.068883707497264 0
      vertex 30.564833119208604 42.068883707497264 0
      vertex -4.231560250044069 39.30114520054134 0
    endloop
  endfacet
  facet normal 0 0 -1
    outer loop
      vertex -21.15030543994161 47.504363797415245 0
      vertex -10.811407922523486 50.863675238157896 0
      vertex 21.15030543994161 47.504363797415245 0
    endloop
  endfacet
  facet normal -0.4970830272951359 0.8609730588553225 0.10786035370057256
    outer loop
      vertex -30.564833119208604 42.068883707497264 0
      vertex -23.511410091698927 32.3606797749979 110
      vertex -21.15030543994161 47.504363797415245 0
    endloop
  endfacet
  facet normal -0.30721420609908606 0.9455081044975213 0.1078603537005726
    outer loop
      vertex -21.15030543994161 47.504363797415245 0
      vertex -16.26946572303201 36.541818305704034 110
      vertex -10.811407922523486 50.863675238157896 0
    endloop
  endfacet
  facet normal -0.10391864991918695 0.9887199089219154 0.10786035370057259
    outer loop
      vertex -10.811407922523486 50.863675238157896 0
      vertex -8.316467632710374 39.12590402935223 110
      vertex 0 52 0
    endloop
  endfacet
  facet normal -0.9941660545902719 0 0.10786035370057258
    outer loop
      vertex -39.78087581473093 -4.181138530706139 110
      vertex -39.78087581473093 4.181138530706139 110
      vertex -51.71513855915021 5.435480089917981 0
    endloop
  endfacet
  facet normal -0.972441141028468 0.20669874536348484 0.10786035370057258
    outer loop
      vertex -51.71513855915021 5.435480089917981 0
      vertex -39.78087581473093 4.181138530706139 110
      vertex -38.04226065180614 12.360679774997896 110
    endloop
  endfacet
  facet normal -0.9082158833134089 0.40436376370395977 0.10786035370057259
    outer loop
      vertex -49.45493884734798 16.068883707497264 0
      vertex -38.04226065180614 12.360679774997896 110
      vertex -34.64101615137754 20 110
    endloop
  endfacet
  facet normal -0.8042972333942218 0.5843561452179552 0.1078603537005726
    outer loop
      vertex -45.033320996790806 26 0
      vertex -34.64101615137754 20 110
      vertex -29.725793019095768 26.76522425435433 110
    endloop
  endfacet
  facet normal 0 0 1
    outer loop
      vertex -39.78087581473093 -4.181138530706139 110
      vertex -23.868525488838557 2.5086831184236833 110
      vertex -39.78087581473093 4.181138530706139 110
    endloop
  endfacet
  facet normal 0 0 1
    outer loop
      vertex -39.78087581473093 4.181138530706139 110
      vertex -22.825356391083684 7.416407864998737 110
      vertex -38.04226065180614 12.360679774997896 110
    endloop
  endfacet
  facet normal 0 0 1
    outer loop
      vertex -39.78087581473093 4.181138530706139 110
      vertex -23.868525488838557 2.5086831184236833 110
      vertex -22.825356391083684 7.416407864998737 110
    endloop
  endfacet
  facet normal 0 0 1
    outer loop
      vertex -38.04226065180614 12.360679774997896 110
      vertex -22.825356391083684 7.416407864998737 110
      vertex -20.784609690826528 12 110
    endloop
  endfacet
  facet normal 0 0 1
    outer loop
      vertex -38.04226065180614 12.360679774997896 110
      vertex -17.835475811457464 16.059134552612598 110
      vertex -34.64101615137754 20 110
    endloop
  endfacet
  facet normal -0.6652269349293823 0.738809359134037 0.10786035370057256
    outer loop
      vertex -30.564833119208604 42.068883707497264 0
      vertex -29.725793019095768 26.76522425435433 110
      vertex -23.511410091698927 32.3606797749979 110
    endloop
  endfacet
  facet normal 0 0 1
    outer loop
      vertex -38.04226065180614 12.360679774997896 110
      vertex -20.784609690826528 12 110
      vertex -17.835475811457464 16.059134552612598 110
    endloop
  endfacet
  facet normal 0 0 1
    outer loop
      vertex -34.64101615137754 20 110
      vertex -17.835475811457464 16.059134552612598 110
      vertex -14.106846055019355 19.41640786499874 110
    endloop
  endfacet
  facet normal 0 0 1
    outer loop
      vertex -34.64101615137754 20 110
      vertex -4.989880579626224 23.475542417611337 110
      vertex -29.725793019095768 26.76522425435433 110
    endloop
  endfacet
  facet normal 0 0 1
    outer loop
      vertex -34.64101615137754 20 110
      vertex -14.106846055019355 19.41640786499874 110
      vertex -9.761679433819205 21.92509098342242 110
    endloop
  endfacet
  facet normal 0 0 1
    outer loop
      vertex -34.64101615137754 20 110
      vertex -9.761679433819205 21.92509098342242 110
      vertex -4.989880579626224 23.475542417611337 110
    endloop
  endfacet
  facet normal 0 0 1
    outer loop
      vertex -29.725793019095768 26.76522425435433 110
      vertex -4.989880579626224 23.475542417611337 110
      vertex 0 24 110
    endloop
  endfacet
  facet normal -0.49708302729513565 0.8609730588553226 0.1078603537005726
    outer loop
      vertex -21.15030543994161 47.504363797415245 0
      vertex -23.511410091698927 32.3606797749979 110
      vertex -16.26946572303201 36.541818305704034 110
    endloop
  endfacet
  facet normal -0.30721420609908623 0.9455081044975212 0.10786035370057258
    outer loop
      vertex -10.811407922523486 50.863675238157896 0
      vertex -16.26946572303201 36.541818305704034 110
      vertex -8.316467632710374 39.12590402935223 110
    endloop
  endfacet
  facet normal -0.10391864991918695 0.9887199089219154 0.10786035370057259
    outer loop
      vertex -8.316467632710374 39.12590402935223 110
      vertex 0 40 110
      vertex 0 52 0
    endloop
  endfacet
  facet normal 0 0 1
    outer loop
      vertex -29.725793019095768 26.76522425435433 110
      vertex 23.511410091698927 32.3606797749979 110
      vertex -23.511410091698927 32.3606797749979 110
    endloop
  endfacet
  facet normal 0 0 1
    outer loop
      vertex -23.511410091698927 32.3606797749979 110
      vertex 16.26946572303201 36.541818305704034 110
      vertex -16.26946572303201 36.541818305704034 110
    endloop
  endfacet
  facet normal 0 0 1
    outer loop
      vertex -16.26946572303201 36.541818305704034 110
      vertex 8.316467632710374 39.12590402935223 110
      vertex -8.316467632710374 39.12590402935223 110
    endloop
  endfacet
  facet normal 0 0 -1
    outer loop
      vertex -10.811407922523486 -50.863675238157896 0
      vertex 10.811407922523486 -50.863675238157896 0
      vertex 0 -52 0
    endloop
  endfacet
  facet normal 0 0 -1
    outer loop
      vertex -21.15030543994161 -47.504363797415245 0
      vertex 21.15030543994161 -47.504363797415245 0
      vertex 10.811407922523486 -50.863675238157896 0
    endloop
  endfacet
  facet normal 0 0 -1
    outer loop
      vertex -30.564833119208604 -42.068883707497264 0
      vertex 5.708019263614339 -39.45632729606376 0
      vertex 30.564833119208604 -42.068883707497264 0
    endloop
  endfacet
  facet normal 0 0 -1
    outer loop
      vertex -30.564833119208604 -42.068883707497264 0
      vertex 30.564833119208604 -42.068883707497264 0
      vertex 21.15030543994161 -47.504363797415245 0
    endloop
  endfacet
  facet normal 0 0 -1
    outer loop
      vertex 5.708019263614339 -39.45632729606376 0
      vertex 12.360679774997896 -34.79479153066063 0
      vertex 19.65461484320911 -34.79479153066063 0
    endloop
  endfacet
  facet normal 0 0 -1
    outer loop
      vertex 30.564833119208604 -42.068883707497264 0
      vertex 5.708019263614339 -39.45632729606376 0
      vertex 19.65461484320911 -34.79479153066063 0
    endloop
  endfacet
  facet normal 0 0 -1
    outer loop
      vertex 19.65461484320911 -34.79479153066063 0
      vertex 20 -32.83527747015496 0
      vertex 22.171280838177307 -33.063488282198605 0
    endloop
  endfacet
  facet normal 0.10391864991918695 -0.9887199089219154 0.10786035370057259
    outer loop
      vertex 0 -52 0
      vertex 10.811407922523486 -50.863675238157896 0
      vertex 8.316467632710374 -39.12590402935223 110
    endloop
  endfacet
  facet normal 0.30721420609908606 -0.9455081044975213 0.1078603537005726
    outer loop
      vertex 10.811407922523486 -50.863675238157896 0
      vertex 21.15030543994161 -47.504363797415245 0
      vertex 16.26946572303201 -36.541818305704034 110
    endloop
  endfacet
  facet normal 0.4970830272951359 -0.8609730588553225 0.10786035370057254
    outer loop
      vertex 21.15030543994161 -47.504363797415245 0
      vertex 30.564833119208604 -42.068883707497264 0
      vertex 23.511410091698927 -32.3606797749979 110
    endloop
  endfacet
  facet normal 0 0 -1
    outer loop
      vertex 38.6435309248245 -34.79479153066063 0
      vertex 19.65461484320911 -34.79479153066063 0
      vertex 22.171280838177307 -33.063488282198605 0
    endloop
  endfacet
  facet normal 0 0 -1
    outer loop
      vertex 30.564833119208604 -42.068883707497264 0
      vertex 19.65461484320911 -34.79479153066063 0
      vertex 38.6435309248245 -34.79479153066063 0
    endloop
  endfacet
  facet normal 0 0 -1
    outer loop
      vertex 38.6435309248245 -34.79479153066063 0
      vertex 22.171280838177307 -33.063488282198605 0
      vertex 26.76522425435433 -26 0
    endloop
  endfacet
  facet normal 0 0 -1
    outer loop
      vertex 38.6435309248245 -34.79479153066063 0
      vertex 26.76522425435433 -26 0
      vertex 30.11994335696482 -26 0
    endloop
  endfacet
  facet normal 0 0 -1
    outer loop
      vertex 38.6435309248245 -34.79479153066063 0
      vertex 30.11994335696482 -26 0
      vertex 45.033320996790806 -26 0
    endloop
  endfacet
  facet normal 0.6652269349293819 -0.7388093591340374 0.10786035370057265
    outer loop
      vertex 30.564833119208604 -42.068883707497264 0
      vertex 38.6435309248245 -34.79479153066063 0
      vertex 29.725793019095768 -26.76522425435433 110
    endloop
  endfacet
  facet normal 0.8042972333942221 -0.584356145217955 0.10786035370057266
    outer loop
      vertex 38.6435309248245 -34.79479153066063 0
      vertex 45.033320996790806 -26 0
      vertex 29.725793019095768 -26.76522425435433 110
    endloop
  endfacet
  facet normal 0 0 -1
    outer loop
      vertex 31.525109076801797 -24.439405366140083 0
      vertex 32.3606797749979 -23.302262827089933 0
      vertex 32.46821439188576 -23.325154671676692 0
    endloop
  endfacet
  facet normal 0 0 -1
    outer loop
      vertex 45.033320996790806 -26 0
      vertex 30.11994335696482 -26 0
      vertex 31.525109076801797 -24.439405366140083 0
    endloop
  endfacet
  facet normal 0 0 -1
    outer loop
      vertex 45.033320996790806 -26 0
      vertex 31.525109076801797 -24.439405366140083 0
      vertex 32.46821439188576 -23.325154671676692 0
    endloop
  endfacet
  facet normal 0 0 -1
    outer loop
      vertex 45.033320996790806 -26 0
      vertex 32.46821439188576 -23.325154671676692 0
      vertex 33.382482521373234 -21.741595819663434 0
    endloop
  endfacet
  facet normal 0 0 -1
    outer loop
      vertex 45.033320996790806 -26 0
      vertex 33.382482521373234 -21.741595819663434 0
      vertex 36.541818305704034 -16.064902235324194 0
    endloop
  endfacet
  facet normal 0 0 -1
    outer loop
      vertex 45.033320996790806 -26 0
      vertex 36.541818305704034 -16.064902235324194 0
      vertex 36.608278353907934 -16.064922726794997 0
    endloop
  endfacet
  facet normal 0 0 -1
    outer loop
      vertex 49.45493884734798 -16.068883707497264 0
      vertex 36.608278353907934 -16.064922726794997 0
      vertex 38.494395202294285 -10.260051953327466 0
    endloop
  endfacet
  facet normal 0 0 -1
    outer loop
      vertex 45.033320996790806 -26 0
      vertex 36.608278353907934 -16.064922726794997 0
      vertex 49.45493884734798 -16.068883707497264 0
    endloop
  endfacet
  facet normal 0 0 -1
    outer loop
      vertex 51.71513855915021 -5.435480089917981 0
      vertex 38.494395202294285 -10.260051953327466 0
      vertex 39.562952014676114 -4.158233816355187 0
    endloop
  endfacet
  facet normal 0 0 -1
    outer loop
      vertex 38.494395202294285 -10.260051953327466 0
      vertex 39.12590402935223 -4.112298222083315 0
      vertex 39.562952014676114 -4.158233816355187 0
    endloop
  endfacet
  facet normal 0 0 -1
    outer loop
      vertex 51.71513855915021 -5.435480089917981 0
      vertex 39.562952014676114 -4.158233816355187 0
      vertex 39.786385058317435 2.032410408035409 0
    endloop
  endfacet
  facet normal 0 0 -1
    outer loop
      vertex 49.45493884734798 -16.068883707497264 0
      vertex 38.494395202294285 -10.260051953327466 0
      vertex 51.71513855915021 -5.435480089917981 0
    endloop
  endfacet
  facet normal 0.9082158833134089 -0.4043637637039599 0.10786035370057259
    outer loop
      vertex 45.033320996790806 -26 0
      vertex 49.45493884734798 -16.068883707497264 0
      vertex 34.64101615137754 -20 110
    endloop
  endfacet
  facet normal 0.9724411410284681 -0.20669874536348448 0.1078603537005726
    outer loop
      vertex 49.45493884734798 -16.068883707497264 0
      vertex 51.71513855915021 -5.435480089917981 0
      vertex 38.04226065180614 -12.360679774997896 110
    endloop
  endfacet
  facet normal 0.10391864991918695 -0.9887199089219154 0.10786035370057259
    outer loop
      vertex 0 -52 0
      vertex 8.316467632710374 -39.12590402935223 110
      vertex 0 -40 110
    endloop
  endfacet
  facet normal 0.30721420609908623 -0.9455081044975212 0.10786035370057258
    outer loop
      vertex 10.811407922523486 -50.863675238157896 0
      vertex 16.26946572303201 -36.541818305704034 110
      vertex 8.316467632710374 -39.12590402935223 110
    endloop
  endfacet
  facet normal 0.49708302729513565 -0.8609730588553226 0.1078603537005726
    outer loop
      vertex 21.15030543994161 -47.504363797415245 0
      vertex 23.511410091698927 -32.3606797749979 110
      vertex 16.26946572303201 -36.541818305704034 110
    endloop
  endfacet
  facet normal 0 0 1
    outer loop
      vertex -8.316467632710374 -39.12590402935223 110
      vertex 0 -40 110
      vertex 8.316467632710374 -39.12590402935223 110
    endloop
  endfacet
  facet normal 0 0 1
    outer loop
      vertex -8.316467632710374 -39.12590402935223 110
      vertex 8.316467632710374 -39.12590402935223 110
      vertex 16.26946572303201 -36.541818305704034 110
    endloop
  endfacet
  facet normal 0 0 1
    outer loop
      vertex -16.26946572303201 -36.541818305704034 110
      vertex 16.26946572303201 -36.541818305704034 110
      vertex 23.511410091698927 -32.3606797749979 110
    endloop
  endfacet
  facet normal 0 0 1
    outer loop
      vertex -23.511410091698927 -32.3606797749979 110
      vertex 23.511410091698927 -32.3606797749979 110
      vertex 29.725793019095768 -26.76522425435433 110
    endloop
  endfacet
  facet normal 0 0 1
    outer loop
      vertex -29.725793019095768 -26.76522425435433 110
      vertex 29.725793019095768 -26.76522425435433 110
      vertex 0 -24 110
    endloop
  endfacet
  facet normal 0 0 1
    outer loop
      vertex 0 -24 110
      vertex 29.725793019095768 -26.76522425435433 110
      vertex 4.989880579626224 -23.475542417611337 110
    endloop
  endfacet
  facet normal 0 0 1
    outer loop
      vertex 4.989880579626224 -23.475542417611337 110
      vertex 34.64101615137754 -20 110
      vertex 9.761679433819205 -21.92509098342242 110
    endloop
  endfacet
  facet normal 0 0 1
    outer loop
      vertex 9.761679433819205 -21.92509098342242 110
      vertex 34.64101615137754 -20 110
      vertex 14.106846055019355 -19.41640786499874 110
    endloop
  endfacet
  facet normal 0 0 1
    outer loop
      vertex 4.989880579626224 -23.475542417611337 110
      vertex 29.725793019095768 -26.76522425435433 110
      vertex 34.64101615137754 -20 110
    endloop
  endfacet
  facet normal 0 0 1
    outer loop
      vertex 14.106846055019355 -19.41640786499874 110
      vertex 34.64101615137754 -20 110
      vertex 17.835475811457464 -16.059134552612598 110
    endloop
  endfacet
  facet normal 0 0 1
    outer loop
      vertex 17.835475811457464 -16.059134552612598 110
      vertex 38.04226065180614 -12.360679774997896 110
      vertex 20.784609690826528 -12 110
    endloop
  endfacet
  facet normal 0.6652269349293823 -0.738809359134037 0.10786035370057256
    outer loop
      vertex 30.564833119208604 -42.068883707497264 0
      vertex 29.725793019095768 -26.76522425435433 110
      vertex 23.511410091698927 -32.3606797749979 110
    endloop
  endfacet
  facet normal 0.8042972333942218 -0.5843561452179552 0.1078603537005726
    outer loop
      vertex 45.033320996790806 -26 0
      vertex 34.64101615137754 -20 110
      vertex 29.725793019095768 -26.76522425435433 110
    endloop
  endfacet
  facet normal 0.9082158833134089 -0.40436376370395977 0.10786035370057259
    outer loop
      vertex 49.45493884734798 -16.068883707497264 0
      vertex 38.04226065180614 -12.360679774997896 110
      vertex 34.64101615137754 -20 110
    endloop
  endfacet
  facet normal 0.972441141028468 -0.20669874536348484 0.10786035370057258
    outer loop
      vertex 51.71513855915021 -5.435480089917981 0
      vertex 39.78087581473093 -4.181138530706139 110
      vertex 38.04226065180614 -12.360679774997896 110
    endloop
  endfacet
  facet normal 0.9941660545902719 0 0.10786035370057259
    outer loop
      vertex 51.71513855915021 -5.435480089917981 0
      vertex 39.78087581473093 4.181138530706139 110
      vertex 39.78087581473093 -4.181138530706139 110
    endloop
  endfacet
  facet normal 0 0 1
    outer loop
      vertex 17.835475811457464 -16.059134552612598 110
      vertex 34.64101615137754 -20 110
      vertex 38.04226065180614 -12.360679774997896 110
    endloop
  endfacet
  facet normal 0 0 1
    outer loop
      vertex 20.784609690826528 -12 110
      vertex 38.04226065180614 -12.360679774997896 110
      vertex 22.825356391083684 -7.416407864998737 110
    endloop
  endfacet
  facet normal 0 0 1
    outer loop
      vertex 22.825356391083684 -7.416407864998737 110
      vertex 39.78087581473093 -4.181138530706139 110
      vertex 23.868525488838557 -2.5086831184236833 110
    endloop
  endfacet
  facet normal 0 0 1
    outer loop
      vertex 22.825356391083684 -7.416407864998737 110
      vertex 38.04226065180614 -12.360679774997896 110
      vertex 39.78087581473093 -4.181138530706139 110
    endloop
  endfacet
  facet normal 0 0 1
    outer loop
      vertex 23.868525488838557 -2.5086831184236833 110
      vertex 39.78087581473093 -4.181138530706139 110
      vertex 39.78087581473093 4.181138530706139 110
    endloop
  endfacet
  facet normal 0 0 -1
    outer loop
      vertex -10.811407922523486 50.863675238157896 0
      vertex 0 52 0
      vertex 10.811407922523486 50.863675238157896 0
    endloop
  endfacet
  facet normal 0 0 -1
    outer loop
      vertex -10.811407922523486 50.863675238157896 0
      vertex 10.811407922523486 50.863675238157896 0
      vertex 21.15030543994161 47.504363797415245 0
    endloop
  endfacet
  facet normal 0 0 -1
    outer loop
      vertex -21.15030543994161 47.504363797415245 0
      vertex 21.15030543994161 47.504363797415245 0
      vertex 30.564833119208604 42.068883707497264 0
    endloop
  endfacet
  facet normal 0 0 -1
    outer loop
      vertex 38.6435309248245 34.79479153066063 0
      vertex 19.65461484320911 34.79479153066063 0
      vertex 13.786717069230233 37.407347942094134 0
    endloop
  endfacet
  facet normal 0 0 -1
    outer loop
      vertex 30.564833119208604 42.068883707497264 0
      vertex 13.786717069230233 37.407347942094134 0
      vertex -4.231560250044069 39.30114520054134 0
    endloop
  endfacet
  facet normal 0.10391864991918695 0.9887199089219154 0.10786035370057259
    outer loop
      vertex 0 52 0
      vertex 8.316467632710374 39.12590402935223 110
      vertex 10.811407922523486 50.863675238157896 0
    endloop
  endfacet
  facet normal 0.30721420609908606 0.9455081044975213 0.1078603537005726
    outer loop
      vertex 10.811407922523486 50.863675238157896 0
      vertex 16.26946572303201 36.541818305704034 110
      vertex 21.15030543994161 47.504363797415245 0
    endloop
  endfacet
  facet normal 0.4970830272951359 0.8609730588553225 0.10786035370057254
    outer loop
      vertex 21.15030543994161 47.504363797415245 0
      vertex 23.511410091698927 32.3606797749979 110
      vertex 30.564833119208604 42.068883707497264 0
    endloop
  endfacet
  facet normal 0 0 -1
    outer loop
      vertex 35.9174478986 17.35090699087866 0
      vertex 36.608278353907934 16.064922726794997 0
      vertex 36.52031711998614 16.064895605914025 0
    endloop
  endfacet
  facet normal 0 0 -1
    outer loop
      vertex 35.46604667041858 18.132756852687873 0
      vertex 31.85141166588418 18.66604769667821 0
      vertex 31.525109076801797 24.439405366140083 0
    endloop
  endfacet
  facet normal 0 0 -1
    outer loop
      vertex 45.033320996790806 26 0
      vertex 35.46604667041858 18.132756852687873 0
      vertex 31.525109076801797 24.439405366140083 0
    endloop
  endfacet
  facet normal 0 0 -1
    outer loop
      vertex 51.71513855915021 5.435480089917981 0
      vertex 39.786385058317435 2.032410408035409 0
      vertex 39.14838488585496 8.102576570700334 0
    endloop
  endfacet
  facet normal 0 0 -1
    outer loop
      vertex 49.45493884734798 16.068883707497264 0
      vertex 39.10440423714734 8.111910773983068 0
      vertex 37.17332713276198 14.325881402414916 0
    endloop
  endfacet
  facet normal 0 0 -1
    outer loop
      vertex 49.45493884734798 16.068883707497264 0
      vertex 39.14838488585496 8.102576570700334 0
      vertex 39.10440423714734 8.111910773983068 0
    endloop
  endfacet
  facet normal 0 0 -1
    outer loop
      vertex 51.71513855915021 -5.435480089917981 0
      vertex 39.786385058317435 2.032410408035409 0
      vertex 51.71513855915021 5.435480089917981 0
    endloop
  endfacet
  facet normal 0 0 -1
    outer loop
      vertex 51.71513855915021 5.435480089917981 0
      vertex 39.14838488585496 8.102576570700334 0
      vertex 49.45493884734798 16.068883707497264 0
    endloop
  endfacet
  facet normal 0 0 -1
    outer loop
      vertex 49.45493884734798 16.068883707497264 0
      vertex 37.17332713276198 14.325881402414916 0
      vertex 36.608278353907934 16.064922726794997 0
    endloop
  endfacet
  facet normal 0 0 -1
    outer loop
      vertex 49.45493884734798 16.068883707497264 0
      vertex 35.9174478986 17.35090699087866 0
      vertex 35.46604667041858 18.132756852687873 0
    endloop
  endfacet
  facet normal 0 0 -1
    outer loop
      vertex 49.45493884734798 16.068883707497264 0
      vertex 36.608278353907934 16.064922726794997 0
      vertex 35.9174478986 17.35090699087866 0
    endloop
  endfacet
  facet normal 0 0 -1
    outer loop
      vertex 49.45493884734798 16.068883707497264 0
      vertex 35.46604667041858 18.132756852687873 0
      vertex 45.033320996790806 26 0
    endloop
  endfacet
  facet normal 0.9941660545902719 0 0.10786035370057256
    outer loop
      vertex 51.71513855915021 -5.435480089917981 0
      vertex 51.71513855915021 5.435480089917981 0
      vertex 39.78087581473093 4.181138530706139 110
    endloop
  endfacet
  facet normal 0.9724411410284681 0.20669874536348448 0.1078603537005726
    outer loop
      vertex 51.71513855915021 5.435480089917981 0
      vertex 49.45493884734798 16.068883707497264 0
      vertex 38.04226065180614 12.360679774997896 110
    endloop
  endfacet
  facet normal 0.9082158833134089 0.4043637637039599 0.1078603537005726
    outer loop
      vertex 49.45493884734798 16.068883707497264 0
      vertex 45.033320996790806 26 0
      vertex 34.64101615137754 20 110
    endloop
  endfacet
  facet normal 0 0 -1
    outer loop
      vertex 38.6435309248245 34.79479153066063 0
      vertex 28.561070910143624 27.731303248462027 0
      vertex 19.375234923482104 28.696773515116014 0
    endloop
  endfacet
  facet normal 0 0 -1
    outer loop
      vertex 38.6435309248245 34.79479153066063 0
      vertex 19.375234923482104 28.696773515116014 0
      vertex 19.65461484320911 34.79479153066063 0
    endloop
  endfacet
  facet normal 0 0 -1
    outer loop
      vertex 38.6435309248245 34.79479153066063 0
      vertex 13.786717069230233 37.407347942094134 0
      vertex 30.564833119208604 42.068883707497264 0
    endloop
  endfacet
  facet normal 0 0 -1
    outer loop
      vertex 45.033320996790806 26 0
      vertex 31.525109076801797 24.439405366140083 0
      vertex 28.561070910143624 27.731303248462027 0
    endloop
  endfacet
  facet normal 0 0 -1
    outer loop
      vertex 38.6435309248245 34.79479153066063 0
      vertex 45.033320996790806 26 0
      vertex 28.561070910143624 27.731303248462027 0
    endloop
  endfacet
  facet normal 0.8042972333942221 0.584356145217955 0.10786035370057266
    outer loop
      vertex 38.6435309248245 34.79479153066063 0
      vertex 29.725793019095768 26.76522425435433 110
      vertex 45.033320996790806 26 0
    endloop
  endfacet
  facet normal 0.6652269349293819 0.7388093591340374 0.10786035370057263
    outer loop
      vertex 38.6435309248245 34.79479153066063 0
      vertex 30.564833119208604 42.068883707497264 0
      vertex 29.725793019095768 26.76522425435433 110
    endloop
  endfacet
  facet normal 0 0 1
    outer loop
      vertex -29.725793019095768 26.76522425435433 110
      vertex 0 24 110
      vertex 29.725793019095768 26.76522425435433 110
    endloop
  endfacet
  facet normal 0 0 1
    outer loop
      vertex 0 24 110
      vertex 4.989880579626224 23.475542417611337 110
      vertex 29.725793019095768 26.76522425435433 110
    endloop
  endfacet
  facet normal 0 0 1
    outer loop
      vertex 4.989880579626224 23.475542417611337 110
      vertex 9.761679433819205 21.92509098342242 110
      vertex 29.725793019095768 26.76522425435433 110
    endloop
  endfacet
  facet normal 0 0 1
    outer loop
      vertex 9.761679433819205 21.92509098342242 110
      vertex 14.106846055019355 19.41640786499874 110
      vertex 29.725793019095768 26.76522425435433 110
    endloop
  endfacet
  facet normal 0 0 1
    outer loop
      vertex 14.106846055019355 19.41640786499874 110
      vertex 17.835475811457464 16.059134552612598 110
      vertex 34.64101615137754 20 110
    endloop
  endfacet
  facet normal 0 0 1
    outer loop
      vertex 20.784609690826528 12 110
      vertex 34.64101615137754 20 110
      vertex 17.835475811457464 16.059134552612598 110
    endloop
  endfacet
  facet normal 0.10391864991918695 0.9887199089219154 0.10786035370057259
    outer loop
      vertex 0 52 0
      vertex 0 40 110
      vertex 8.316467632710374 39.12590402935223 110
    endloop
  endfacet
  facet normal 0.30721420609908623 0.9455081044975212 0.10786035370057258
    outer loop
      vertex 10.811407922523486 50.863675238157896 0
      vertex 8.316467632710374 39.12590402935223 110
      vertex 16.26946572303201 36.541818305704034 110
    endloop
  endfacet
  facet normal 0.49708302729513565 0.8609730588553226 0.1078603537005726
    outer loop
      vertex 21.15030543994161 47.504363797415245 0
      vertex 16.26946572303201 36.541818305704034 110
      vertex 23.511410091698927 32.3606797749979 110
    endloop
  endfacet
  facet normal 0 0 1
    outer loop
      vertex -16.26946572303201 36.541818305704034 110
      vertex 16.26946572303201 36.541818305704034 110
      vertex 8.316467632710374 39.12590402935223 110
    endloop
  endfacet
  facet normal 0 0 1
    outer loop
      vertex -23.511410091698927 32.3606797749979 110
      vertex 23.511410091698927 32.3606797749979 110
      vertex 16.26946572303201 36.541818305704034 110
    endloop
  endfacet
  facet normal 0 0 1
    outer loop
      vertex -29.725793019095768 26.76522425435433 110
      vertex 29.725793019095768 26.76522425435433 110
      vertex 23.511410091698927 32.3606797749979 110
    endloop
  endfacet
  facet normal 0 0 1
    outer loop
      vertex -8.316467632710374 39.12590402935223 110
      vertex 8.316467632710374 39.12590402935223 110
      vertex 0 40 110
    endloop
  endfacet
  facet normal 0.8042972333942218 0.5843561452179552 0.1078603537005726
    outer loop
      vertex 45.033320996790806 26 0
      vertex 29.725793019095768 26.76522425435433 110
      vertex 34.64101615137754 20 110
    endloop
  endfacet
  facet normal 0.972441141028468 0.20669874536348484 0.10786035370057258
    outer loop
      vertex 51.71513855915021 5.435480089917981 0
      vertex 38.04226065180614 12.360679774997896 110
      vertex 39.78087581473093 4.181138530706139 110
    endloop
  endfacet
  facet normal 0.9082158833134089 0.40436376370395977 0.10786035370057259
    outer loop
      vertex 49.45493884734798 16.068883707497264 0
      vertex 34.64101615137754 20 110
      vertex 38.04226065180614 12.360679774997896 110
    endloop
  endfacet
  facet normal 0 0 1
    outer loop
      vertex 23.868525488838557 -2.5086831184236833 110
      vertex 39.78087581473093 4.181138530706139 110
      vertex 23.868525488838557 2.5086831184236833 110
    endloop
  endfacet
  facet normal 0 0 1
    outer loop
      vertex 23.868525488838557 2.5086831184236833 110
      vertex 38.04226065180614 12.360679774997896 110
      vertex 22.825356391083684 7.416407864998737 110
    endloop
  endfacet
  facet normal 0 0 1
    outer loop
      vertex 20.784609690826528 12 110
      vertex 22.825356391083684 7.416407864998737 110
      vertex 38.04226065180614 12.360679774997896 110
    endloop
  endfacet
  facet normal 0 0 1
    outer loop
      vertex 23.868525488838557 2.5086831184236833 110
      vertex 39.78087581473093 4.181138530706139 110
      vertex 38.04226065180614 12.360679774997896 110
    endloop
  endfacet
  facet normal 0 0 1
    outer loop
      vertex 20.784609690826528 12 110
      vertex 38.04226065180614 12.360679774997896 110
      vertex 34.64101615137754 20 110
    endloop
  endfacet
  facet normal 0 0 1
    outer loop
      vertex 14.106846055019355 19.41640786499874 110
      vertex 34.64101615137754 20 110
      vertex 29.725793019095768 26.76522425435433 110
    endloop
  endfacet
  facet normal 0.6652269349293823 0.738809359134037 0.10786035370057256
    outer loop
      vertex 30.564833119208604 42.068883707497264 0
      vertex 23.511410091698927 32.3606797749979 110
      vertex 29.725793019095768 26.76522425435433 110
    endloop
  endfacet
  facet normal 0.8090169943749476 0.5877852522924729 0
    outer loop
      vertex -17.835475811457464 -16.059134552612598 110
      vertex -20.784609690826528 -12 100
      vertex -20.784609690826528 -12 110
    endloop
  endfacet
  facet normal 0.669130606358858 0.7431448254773945 0
    outer loop
      vertex -17.835475811457464 -16.059134552612598 110
      vertex -14.106846055019355 -19.41640786499874 110
      vertex -17.835475811457464 -16.059134552612598 100
    endloop
  endfacet
  facet normal 0.8090169943749476 0.5877852522924729 0
    outer loop
      vertex -17.835475811457464 -16.059134552612598 110
      vertex -17.835475811457464 -16.059134552612598 100
      vertex -20.784609690826528 -12 100
    endloop
  endfacet
  facet normal 0.669130606358858 0.7431448254773945 0
    outer loop
      vertex -14.106846055019355 -19.41640786499874 110
      vertex -14.106846055019355 -19.41640786499874 100
      vertex -17.835475811457464 -16.059134552612598 100
    endloop
  endfacet
  facet normal 0.9135454576426011 0.40673664307579976 0
    outer loop
      vertex -20.784609690826528 -12 110
      vertex -20.784609690826528 -12 100
      vertex -22.825356391083684 -7.416407864998737 100
    endloop
  endfacet
  facet normal 0.9135454576426011 0.40673664307579976 0
    outer loop
      vertex -22.825356391083684 -7.416407864998737 110
      vertex -20.784609690826528 -12 110
      vertex -22.825356391083684 -7.416407864998737 100
    endloop
  endfacet
  facet normal 0.9781476007338058 0.20791169081775918 0
    outer loop
      vertex -22.825356391083684 -7.416407864998737 110
      vertex -22.825356391083684 -7.416407864998737 100
      vertex -23.868525488838557 -2.5086831184236833 100
    endloop
  endfacet
  facet normal 0.9781476007338058 0.20791169081775918 0
    outer loop
      vertex -22.825356391083684 -7.416407864998737 110
      vertex -23.868525488838557 -2.5086831184236833 100
      vertex -23.868525488838557 -2.5086831184236833 110
    endloop
  endfacet
  facet normal 1 0 0
    outer loop
      vertex -23.868525488838557 -2.5086831184236833 110
      vertex -23.868525488838557 -2.5086831184236833 100
      vertex -23.868525488838557 2.5086831184236833 100
    endloop
  endfacet
  facet normal 0.49999999999999994 0.8660254037844386 0
    outer loop
      vertex -9.761679433819205 -21.92509098342242 110
      vertex -9.761679433819205 -21.92509098342242 100
      vertex -14.106846055019355 -19.41640786499874 100
    endloop
  endfacet
  facet normal 0.49999999999999994 0.8660254037844386 0
    outer loop
      vertex -14.106846055019355 -19.41640786499874 110
      vertex -9.761679433819205 -21.92509098342242 110
      vertex -14.106846055019355 -19.41640786499874 100
    endloop
  endfacet
  facet normal 0.30901699437494756 0.9510565162951534 0
    outer loop
      vertex -4.989880579626224 -23.475542417611337 110
      vertex -4.989880579626224 -23.475542417611337 100
      vertex -9.761679433819205 -21.92509098342242 100
    endloop
  endfacet
  facet normal 0.30901699437494756 0.9510565162951534 0
    outer loop
      vertex -9.761679433819205 -21.92509098342242 110
      vertex -4.989880579626224 -23.475542417611337 110
      vertex -9.761679433819205 -21.92509098342242 100
    endloop
  endfacet
  facet normal 0.10452846326765323 0.9945218953682733 0
    outer loop
      vertex -4.989880579626224 -23.475542417611337 110
      vertex 0 -24 110
      vertex -4.989880579626224 -23.475542417611337 100
    endloop
  endfacet
  facet normal 0.10452846326765323 0.9945218953682733 0
    outer loop
      vertex 0 -24 110
      vertex 0 -24 100
      vertex -4.989880579626224 -23.475542417611337 100
    endloop
  endfacet
  facet normal 1 0 0
    outer loop
      vertex -23.868525488838557 -2.5086831184236833 110
      vertex -23.868525488838557 2.5086831184236833 100
      vertex -23.868525488838557 2.5086831184236833 110
    endloop
  endfacet
  facet normal 0.9781476007338058 -0.20791169081775918 0
    outer loop
      vertex -23.868525488838557 2.5086831184236833 110
      vertex -23.868525488838557 2.5086831184236833 100
      vertex -22.825356391083684 7.416407864998737 100
    endloop
  endfacet
  facet normal 0.9781476007338058 -0.20791169081775918 0
    outer loop
      vertex -23.868525488838557 2.5086831184236833 110
      vertex -22.825356391083684 7.416407864998737 100
      vertex -22.825356391083684 7.416407864998737 110
    endloop
  endfacet
  facet normal 0.9135454576426011 -0.40673664307579976 0
    outer loop
      vertex -22.825356391083684 7.416407864998737 110
      vertex -22.825356391083684 7.416407864998737 100
      vertex -20.784609690826528 12 100
    endloop
  endfacet
  facet normal 0.9135454576426011 -0.40673664307579976 0
    outer loop
      vertex -22.825356391083684 7.416407864998737 110
      vertex -20.784609690826528 12 100
      vertex -20.784609690826528 12 110
    endloop
  endfacet
  facet normal 0.8090169943749476 -0.5877852522924729 0
    outer loop
      vertex -20.784609690826528 12 110
      vertex -20.784609690826528 12 100
      vertex -17.835475811457464 16.059134552612598 100
    endloop
  endfacet
  facet normal 0.8090169943749476 -0.5877852522924729 0
    outer loop
      vertex -20.784609690826528 12 110
      vertex -17.835475811457464 16.059134552612598 100
      vertex -17.835475811457464 16.059134552612598 110
    endloop
  endfacet
  facet normal 0.669130606358858 -0.7431448254773945 0
    outer loop
      vertex -17.835475811457464 16.059134552612598 110
      vertex -17.835475811457464 16.059134552612598 100
      vertex -14.106846055019355 19.41640786499874 100
    endloop
  endfacet
  facet normal 0.669130606358858 -0.7431448254773945 0
    outer loop
      vertex -17.835475811457464 16.059134552612598 110
      vertex -14.106846055019355 19.41640786499874 100
      vertex -14.106846055019355 19.41640786499874 110
    endloop
  endfacet
  facet normal 0.49999999999999994 -0.8660254037844386 0
    outer loop
      vertex -14.106846055019355 19.41640786499874 110
      vertex -14.106846055019355 19.41640786499874 100
      vertex -9.761679433819205 21.92509098342242 100
    endloop
  endfacet
  facet normal 0.49999999999999994 -0.8660254037844386 0
    outer loop
      vertex -14.106846055019355 19.41640786499874 110
      vertex -9.761679433819205 21.92509098342242 100
      vertex -9.761679433819205 21.92509098342242 110
    endloop
  endfacet
  facet normal 0.30901699437494756 -0.9510565162951534 0
    outer loop
      vertex -9.761679433819205 21.92509098342242 110
      vertex -9.761679433819205 21.92509098342242 100
      vertex -4.989880579626224 23.475542417611337 100
    endloop
  endfacet
  facet normal 0.30901699437494756 -0.9510565162951534 0
    outer loop
      vertex -9.761679433819205 21.92509098342242 110
      vertex -4.989880579626224 23.475542417611337 100
      vertex -4.989880579626224 23.475542417611337 110
    endloop
  endfacet
  facet normal 0.10452846326765323 -0.9945218953682733 0
    outer loop
      vertex -4.989880579626224 23.475542417611337 110
      vertex -4.989880579626224 23.475542417611337 100
      vertex 0 24 100
    endloop
  endfacet
  facet normal 0.10452846326765323 -0.9945218953682733 0
    outer loop
      vertex -4.989880579626224 23.475542417611337 110
      vertex 0 24 100
      vertex 0 24 110
    endloop
  endfacet
  facet normal -0.10452846326765323 0.9945218953682733 0
    outer loop
      vertex 0 -24 110
      vertex 4.989880579626224 -23.475542417611337 110
      vertex 0 -24 100
    endloop
  endfacet
  facet normal -0.10452846326765323 0.9945218953682733 0
    outer loop
      vertex 4.989880579626224 -23.475542417611337 110
      vertex 4.989880579626224 -23.475542417611337 100
      vertex 0 -24 100
    endloop
  endfacet
  facet normal -0.30901699437494756 0.9510565162951534 0
    outer loop
      vertex 4.989880579626224 -23.475542417611337 110
      vertex 9.761679433819205 -21.92509098342242 110
      vertex 4.989880579626224 -23.475542417611337 100
    endloop
  endfacet
  facet normal -0.30901699437494756 0.9510565162951534 0
    outer loop
      vertex 9.761679433819205 -21.92509098342242 110
      vertex 9.761679433819205 -21.92509098342242 100
      vertex 4.989880579626224 -23.475542417611337 100
    endloop
  endfacet
  facet normal -0.49999999999999994 0.8660254037844386 0
    outer loop
      vertex 14.106846055019355 -19.41640786499874 110
      vertex 14.106846055019355 -19.41640786499874 100
      vertex 9.761679433819205 -21.92509098342242 100
    endloop
  endfacet
  facet normal -0.49999999999999994 0.8660254037844386 0
    outer loop
      vertex 9.761679433819205 -21.92509098342242 110
      vertex 14.106846055019355 -19.41640786499874 110
      vertex 9.761679433819205 -21.92509098342242 100
    endloop
  endfacet
  facet normal -0.669130606358858 0.7431448254773945 0
    outer loop
      vertex 14.106846055019355 -19.41640786499874 110
      vertex 17.835475811457464 -16.059134552612598 110
      vertex 14.106846055019355 -19.41640786499874 100
    endloop
  endfacet
  facet normal -0.669130606358858 0.7431448254773945 0
    outer loop
      vertex 17.835475811457464 -16.059134552612598 110
      vertex 17.835475811457464 -16.059134552612598 100
      vertex 14.106846055019355 -19.41640786499874 100
    endloop
  endfacet
  facet normal -0.8090169943749476 0.5877852522924729 0
    outer loop
      vertex 17.835475811457464 -16.059134552612598 110
      vertex 20.784609690826528 -12 110
      vertex 17.835475811457464 -16.059134552612598 100
    endloop
  endfacet
  facet normal -0.8090169943749476 0.5877852522924729 0
    outer loop
      vertex 20.784609690826528 -12 110
      vertex 20.784609690826528 -12 100
      vertex 17.835475811457464 -16.059134552612598 100
    endloop
  endfacet
  facet normal -0.9135454576426011 0.40673664307579976 0
    outer loop
      vertex 20.784609690826528 -12 110
      vertex 22.825356391083684 -7.416407864998737 110
      vertex 20.784609690826528 -12 100
    endloop
  endfacet
  facet normal -0.9135454576426011 0.40673664307579976 0
    outer loop
      vertex 22.825356391083684 -7.416407864998737 110
      vertex 22.825356391083684 -7.416407864998737 100
      vertex 20.784609690826528 -12 100
    endloop
  endfacet
  facet normal -0.9781476007338058 0.20791169081775918 0
    outer loop
      vertex 23.868525488838557 -2.5086831184236833 110
      vertex 23.868525488838557 -2.5086831184236833 100
      vertex 22.825356391083684 -7.416407864998737 100
    endloop
  endfacet
  facet normal -0.9781476007338058 0.20791169081775918 0
    outer loop
      vertex 22.825356391083684 -7.416407864998737 110
      vertex 23.868525488838557 -2.5086831184236833 110
      vertex 22.825356391083684 -7.416407864998737 100
    endloop
  endfacet
  facet normal -1 0 0
    outer loop
      vertex 23.868525488838557 -2.5086831184236833 110
      vertex 23.868525488838557 2.5086831184236833 110
      vertex 23.868525488838557 -2.5086831184236833 100
    endloop
  endfacet
  facet normal -0.10452846326765323 -0.9945218953682733 0
    outer loop
      vertex 0 24 110
      vertex 0 24 100
      vertex 4.989880579626224 23.475542417611337 100
    endloop
  endfacet
  facet normal -0.10452846326765323 -0.9945218953682733 0
    outer loop
      vertex 0 24 110
      vertex 4.989880579626224 23.475542417611337 100
      vertex 4.989880579626224 23.475542417611337 110
    endloop
  endfacet
  facet normal -0.30901699437494756 -0.9510565162951534 0
    outer loop
      vertex 4.989880579626224 23.475542417611337 110
      vertex 9.761679433819205 21.92509098342242 100
      vertex 9.761679433819205 21.92509098342242 110
    endloop
  endfacet
  facet normal -0.30901699437494756 -0.9510565162951534 0
    outer loop
      vertex 4.989880579626224 23.475542417611337 110
      vertex 4.989880579626224 23.475542417611337 100
      vertex 9.761679433819205 21.92509098342242 100
    endloop
  endfacet
  facet normal -0.49999999999999994 -0.8660254037844386 0
    outer loop
      vertex 9.761679433819205 21.92509098342242 110
      vertex 9.761679433819205 21.92509098342242 100
      vertex 14.106846055019355 19.41640786499874 100
    endloop
  endfacet
  facet normal -0.49999999999999994 -0.8660254037844386 0
    outer loop
      vertex 9.761679433819205 21.92509098342242 110
      vertex 14.106846055019355 19.41640786499874 100
      vertex 14.106846055019355 19.41640786499874 110
    endloop
  endfacet
  facet normal -1 0 0
    outer loop
      vertex 23.868525488838557 2.5086831184236833 110
      vertex 23.868525488838557 2.5086831184236833 100
      vertex 23.868525488838557 -2.5086831184236833 100
    endloop
  endfacet
  facet normal -0.9781476007338058 -0.20791169081775918 0
    outer loop
      vertex 22.825356391083684 7.416407864998737 110
      vertex 22.825356391083684 7.416407864998737 100
      vertex 23.868525488838557 2.5086831184236833 100
    endloop
  endfacet
  facet normal -0.9781476007338058 -0.20791169081775918 0
    outer loop
      vertex 23.868525488838557 2.5086831184236833 110
      vertex 22.825356391083684 7.416407864998737 110
      vertex 23.868525488838557 2.5086831184236833 100
    endloop
  endfacet
  facet normal -0.9135454576426011 -0.40673664307579976 0
    outer loop
      vertex 20.784609690826528 12 110
      vertex 22.825356391083684 7.416407864998737 100
      vertex 22.825356391083684 7.416407864998737 110
    endloop
  endfacet
  facet normal -0.9135454576426011 -0.40673664307579976 0
    outer loop
      vertex 20.784609690826528 12 110
      vertex 20.784609690826528 12 100
      vertex 22.825356391083684 7.416407864998737 100
    endloop
  endfacet
  facet normal -0.669130606358858 -0.7431448254773945 0
    outer loop
      vertex 14.106846055019355 19.41640786499874 110
      vertex 14.106846055019355 19.41640786499874 100
      vertex 17.835475811457464 16.059134552612598 100
    endloop
  endfacet
  facet normal -0.8090169943749476 -0.5877852522924729 0
    outer loop
      vertex 17.835475811457464 16.059134552612598 110
      vertex 17.835475811457464 16.059134552612598 100
      vertex 20.784609690826528 12 100
    endloop
  endfacet
  facet normal -0.669130606358858 -0.7431448254773945 0
    outer loop
      vertex 14.106846055019355 19.41640786499874 110
      vertex 17.835475811457464 16.059134552612598 100
      vertex 17.835475811457464 16.059134552612598 110
    endloop
  endfacet
  facet normal -0.8090169943749476 -0.5877852522924729 0
    outer loop
      vertex 20.784609690826528 12 110
      vertex 17.835475811457464 16.059134552612598 110
      vertex 20.784609690826528 12 100
    endloop
  endfacet
  facet normal 0 0 -1
    outer loop
      vertex -39.14838488585496 -8.102576570700334 0
      vertex -39.786385058317435 -2.032410408035409 0
      vertex -39.10440423714734 -8.111910773983068 0
    endloop
  endfacet
  facet normal 0 0 -1
    outer loop
      vertex -39.786385058317435 -2.032410408035409 0
      vertex -39.12590402935223 4.112298222083315 0
      vertex -39.10440423714734 -8.111910773983068 0
    endloop
  endfacet
  facet normal 0 0 -1
    outer loop
      vertex -37.17332713276198 -14.325881402414916 0
      vertex -36.52031711998614 -16.064895605914025 0
      vertex -36.608278353907934 -16.064922726794997 0
    endloop
  endfacet
  facet normal 0 0 -1
    outer loop
      vertex -31.525109076801797 -24.439405366140083 0
      vertex -31.85141166588418 -18.66604769667821 0
      vertex -28.561070910143624 -27.731303248462027 0
    endloop
  endfacet
  facet normal 0 0 -1
    outer loop
      vertex -37.17332713276198 -14.325881402414916 0
      vertex -36.541818305704034 16.064902235324194 0
      vertex -36.52031711998614 -16.064895605914025 0
    endloop
  endfacet
  facet normal 0 0 -1
    outer loop
      vertex -37.17332713276198 -14.325881402414916 0
      vertex -39.10440423714734 -8.111910773983068 0
      vertex -36.541818305704034 16.064902235324194 0
    endloop
  endfacet
  facet normal 0 0 -1
    outer loop
      vertex -35.9174478986 -17.35090699087866 0
      vertex -36.52031711998614 -16.064895605914025 0
      vertex -32.3606797749979 23.302262827089933 0
    endloop
  endfacet
  facet normal 0 0 -1
    outer loop
      vertex -35.46604667041858 -18.132756852687873 0
      vertex -35.9174478986 -17.35090699087866 0
      vertex -32.3606797749979 23.302262827089933 0
    endloop
  endfacet
  facet normal 0 0 -1
    outer loop
      vertex -35.46604667041858 -18.132756852687873 0
      vertex -32.3606797749979 23.302262827089933 0
      vertex -31.85141166588418 -18.66604769667821 0
    endloop
  endfacet
  facet normal 0 0 -1
    outer loop
      vertex -28.561070910143624 -27.731303248462027 0
      vertex -31.85141166588418 -18.66604769667821 0
      vertex -26.76522425435433 26 0
    endloop
  endfacet
  facet normal 0 0 -1
    outer loop
      vertex -13.786717069230233 -37.407347942094134 0
      vertex -19.65461484320911 -34.79479153066063 0
      vertex -19.375234923482104 -28.696773515116014 0
    endloop
  endfacet
  facet normal 0 0 -1
    outer loop
      vertex -28.561070910143624 -27.731303248462027 0
      vertex -26.76522425435433 26 0
      vertex -19.375234923482104 -28.696773515116014 0
    endloop
  endfacet
  facet normal 0 0 -1
    outer loop
      vertex -13.786717069230233 -37.407347942094134 0
      vertex -19.375234923482104 -28.696773515116014 0
      vertex -12.360679774997896 34.79479153066063 0
    endloop
  endfacet
  facet normal 0 0 -1
    outer loop
      vertex -13.786717069230233 -37.407347942094134 0
      vertex -12.360679774997896 34.79479153066063 0
      vertex 5.708019263614339 -39.45632729606376 0
    endloop
  endfacet
  facet normal 0 0 1
    outer loop
      vertex -22.825356391083684 -7.416407864998737 100
      vertex -23.868525488838557 2.5086831184236833 100
      vertex -23.868525488838557 -2.5086831184236833 100
    endloop
  endfacet
  facet normal 0 0 1
    outer loop
      vertex -22.825356391083684 -7.416407864998737 100
      vertex -20.784609690826528 -12 100
      vertex -22.825356391083684 7.416407864998737 100
    endloop
  endfacet
  facet normal 0 0 1
    outer loop
      vertex -17.835475811457464 -16.059134552612598 100
      vertex -17.835475811457464 16.059134552612598 100
      vertex -20.784609690826528 -12 100
    endloop
  endfacet
  facet normal 0 0 1
    outer loop
      vertex -14.106846055019355 -19.41640786499874 100
      vertex -17.835475811457464 16.059134552612598 100
      vertex -17.835475811457464 -16.059134552612598 100
    endloop
  endfacet
  facet normal 0 0 1
    outer loop
      vertex -4.989880579626224 -23.475542417611337 100
      vertex -9.761679433819205 21.92509098342242 100
      vertex -9.761679433819205 -21.92509098342242 100
    endloop
  endfacet
  facet normal 0 0 1
    outer loop
      vertex -9.761679433819205 -21.92509098342242 100
      vertex -9.761679433819205 21.92509098342242 100
      vertex -14.106846055019355 -19.41640786499874 100
    endloop
  endfacet
  facet normal 0 0 1
    outer loop
      vertex 0 -24 100
      vertex 0 24 100
      vertex -4.989880579626224 -23.475542417611337 100
    endloop
  endfacet
  facet normal 0 0 -1
    outer loop
      vertex -39.786385058317435 -2.032410408035409 0
      vertex -39.562952014676114 4.158233816355187 0
      vertex -39.12590402935223 4.112298222083315 0
    endloop
  endfacet
  facet normal 0 0 -1
    outer loop
      vertex -37.24313199147738 9.596911719850288 0
      vertex -39.10440423714734 -8.111910773983068 0
      vertex -39.12590402935223 4.112298222083315 0
    endloop
  endfacet
  facet normal 0 0 -1
    outer loop
      vertex -37.24313199147738 9.596911719850288 0
      vertex -36.541818305704034 16.064902235324194 0
      vertex -39.10440423714734 -8.111910773983068 0
    endloop
  endfacet
  facet normal 0 0 -1
    outer loop
      vertex -32.57761440554381 21.44741495394297 0
      vertex -36.52031711998614 -16.064895605914025 0
      vertex -36.541818305704034 16.064902235324194 0
    endloop
  endfacet
  facet normal 0 0 -1
    outer loop
      vertex -32.57761440554381 21.44741495394297 0
      vertex -32.3606797749979 23.302262827089933 0
      vertex -36.52031711998614 -16.064895605914025 0
    endloop
  endfacet
  facet normal 0 0 -1
    outer loop
      vertex -27.371284308206132 23.95951678560395 0
      vertex -31.85141166588418 -18.66604769667821 0
      vertex -32.3606797749979 23.302262827089933 0
    endloop
  endfacet
  facet normal 0 0 -1
    outer loop
      vertex -27.371284308206132 23.95951678560395 0
      vertex -26.76522425435433 26 0
      vertex -31.85141166588418 -18.66604769667821 0
    endloop
  endfacet
  facet normal 0 0 -1
    outer loop
      vertex -37.24313199147738 9.596911719850288 0
      vertex -36.56331809790892 16.064908864304705 0
      vertex -36.541818305704034 16.064902235324194 0
    endloop
  endfacet
  facet normal 0 0 -1
    outer loop
      vertex -32.57761440554381 21.44741495394297 0
      vertex -32.38218096071579 23.306839974580946 0
      vertex -32.3606797749979 23.302262827089933 0
    endloop
  endfacet
  facet normal 0 0 -1
    outer loop
      vertex -27.371284308206132 23.95951678560395 0
      vertex -27.156820880384586 26 0
      vertex -26.76522425435433 26 0
    endloop
  endfacet
  facet normal 0 0 -1
    outer loop
      vertex -19.375234923482104 -28.696773515116014 0
      vertex -26.76522425435433 26 0
      vertex -20.18771709119401 32.85500733147121 0
    endloop
  endfacet
  facet normal 0 0 -1
    outer loop
      vertex -19.375234923482104 -28.696773515116014 0
      vertex -20.18771709119401 32.85500733147121 0
      vertex -20 32.83527747015496 0
    endloop
  endfacet
  facet normal 0 0 -1
    outer loop
      vertex -19.375234923482104 -28.696773515116014 0
      vertex -20 32.83527747015496 0
      vertex -12.702002533524793 34.79479153066063 0
    endloop
  endfacet
  facet normal 0 0 -1
    outer loop
      vertex -19.375234923482104 -28.696773515116014 0
      vertex -12.702002533524793 34.79479153066063 0
      vertex -12.360679774997896 34.79479153066063 0
    endloop
  endfacet
  facet normal 0 0 -1
    outer loop
      vertex 5.708019263614339 -39.45632729606376 0
      vertex -12.360679774997896 34.79479153066063 0
      vertex -4.231560250044069 39.30114520054134 0
    endloop
  endfacet
  facet normal 0 0 1
    outer loop
      vertex -22.825356391083684 -7.416407864998737 100
      vertex -22.825356391083684 7.416407864998737 100
      vertex -23.868525488838557 2.5086831184236833 100
    endloop
  endfacet
  facet normal 0 0 1
    outer loop
      vertex -20.784609690826528 -12 100
      vertex -20.784609690826528 12 100
      vertex -22.825356391083684 7.416407864998737 100
    endloop
  endfacet
  facet normal 0 0 1
    outer loop
      vertex -17.835475811457464 16.059134552612598 100
      vertex -20.784609690826528 12 100
      vertex -20.784609690826528 -12 100
    endloop
  endfacet
  facet normal 0 0 1
    outer loop
      vertex -17.835475811457464 16.059134552612598 100
      vertex -14.106846055019355 -19.41640786499874 100
      vertex -14.106846055019355 19.41640786499874 100
    endloop
  endfacet
  facet normal 0 0 1
    outer loop
      vertex -14.106846055019355 19.41640786499874 100
      vertex -14.106846055019355 -19.41640786499874 100
      vertex -9.761679433819205 21.92509098342242 100
    endloop
  endfacet
  facet normal 0 0 1
    outer loop
      vertex -9.761679433819205 21.92509098342242 100
      vertex -4.989880579626224 -23.475542417611337 100
      vertex -4.989880579626224 23.475542417611337 100
    endloop
  endfacet
  facet normal 0 0 1
    outer loop
      vertex -4.989880579626224 23.475542417611337 100
      vertex -4.989880579626224 -23.475542417611337 100
      vertex 0 24 100
    endloop
  endfacet
  facet normal 0 0 -1
    outer loop
      vertex 5.708019263614339 -39.45632729606376 0
      vertex -4.231560250044069 39.30114520054134 0
      vertex 12.360679774997896 -34.79479153066063 0
    endloop
  endfacet
  facet normal 0 0 -1
    outer loop
      vertex 19.65461484320911 -34.79479153066063 0
      vertex 12.360679774997896 -34.79479153066063 0
      vertex 19.375234923482104 28.696773515116014 0
    endloop
  endfacet
  facet normal 0 0 -1
    outer loop
      vertex 19.65461484320911 -34.79479153066063 0
      vertex 19.375234923482104 28.696773515116014 0
      vertex 20 -32.83527747015496 0
    endloop
  endfacet
  facet normal 0 0 -1
    outer loop
      vertex 22.171280838177307 -33.063488282198605 0
      vertex 20 -32.83527747015496 0
      vertex 19.375234923482104 28.696773515116014 0
    endloop
  endfacet
  facet normal 0 0 -1
    outer loop
      vertex 22.171280838177307 -33.063488282198605 0
      vertex 19.375234923482104 28.696773515116014 0
      vertex 26.76522425435433 -26 0
    endloop
  endfacet
  facet normal 0 0 -1
    outer loop
      vertex 30.11994335696482 -26 0
      vertex 26.76522425435433 -26 0
      vertex 31.85141166588418 18.66604769667821 0
    endloop
  endfacet
  facet normal 0 0 -1
    outer loop
      vertex 30.11994335696482 -26 0
      vertex 31.85141166588418 18.66604769667821 0
      vertex 31.525109076801797 -24.439405366140083 0
    endloop
  endfacet
  facet normal 0 0 -1
    outer loop
      vertex 31.525109076801797 -24.439405366140083 0
      vertex 31.85141166588418 18.66604769667821 0
      vertex 32.3606797749979 -23.302262827089933 0
    endloop
  endfacet
  facet normal 0 0 -1
    outer loop
      vertex 32.46821439188576 -23.325154671676692 0
      vertex 32.3606797749979 -23.302262827089933 0
      vertex 36.52031711998614 16.064895605914025 0
    endloop
  endfacet
  facet normal 0 0 -1
    outer loop
      vertex 33.382482521373234 -21.741595819663434 0
      vertex 32.46821439188576 -23.325154671676692 0
      vertex 36.52031711998614 16.064895605914025 0
    endloop
  endfacet
  facet normal 0 0 -1
    outer loop
      vertex 33.382482521373234 -21.741595819663434 0
      vertex 36.52031711998614 16.064895605914025 0
      vertex 36.541818305704034 -16.064902235324194 0
    endloop
  endfacet
  facet normal 0 0 -1
    outer loop
      vertex 36.608278353907934 -16.064922726794997 0
      vertex 36.541818305704034 -16.064902235324194 0
      vertex 39.10440423714734 8.111910773983068 0
    endloop
  endfacet
  facet normal 0 0 -1
    outer loop
      vertex 38.494395202294285 -10.260051953327466 0
      vertex 36.608278353907934 -16.064922726794997 0
      vertex 39.10440423714734 8.111910773983068 0
    endloop
  endfacet
  facet normal 0 0 -1
    outer loop
      vertex 38.494395202294285 -10.260051953327466 0
      vertex 39.10440423714734 8.111910773983068 0
      vertex 39.12590402935223 -4.112298222083315 0
    endloop
  endfacet
  facet normal 0 0 -1
    outer loop
      vertex 39.562952014676114 -4.158233816355187 0
      vertex 39.12590402935223 -4.112298222083315 0
      vertex 39.786385058317435 2.032410408035409 0
    endloop
  endfacet
  facet normal 0 0 1
    outer loop
      vertex 4.989880579626224 -23.475542417611337 100
      vertex 4.989880579626224 23.475542417611337 100
      vertex 0 -24 100
    endloop
  endfacet
  facet normal 0 0 1
    outer loop
      vertex 9.761679433819205 -21.92509098342242 100
      vertex 4.989880579626224 23.475542417611337 100
      vertex 4.989880579626224 -23.475542417611337 100
    endloop
  endfacet
  facet normal 0 0 1
    outer loop
      vertex 14.106846055019355 -19.41640786499874 100
      vertex 14.106846055019355 19.41640786499874 100
      vertex 9.761679433819205 -21.92509098342242 100
    endloop
  endfacet
  facet normal 0 0 1
    outer loop
      vertex 14.106846055019355 -19.41640786499874 100
      vertex 17.835475811457464 -16.059134552612598 100
      vertex 14.106846055019355 19.41640786499874 100
    endloop
  endfacet
  facet normal 0 0 1
    outer loop
      vertex 17.835475811457464 -16.059134552612598 100
      vertex 20.784609690826528 -12 100
      vertex 20.784609690826528 12 100
    endloop
  endfacet
  facet normal 0 0 1
    outer loop
      vertex 20.784609690826528 -12 100
      vertex 22.825356391083684 -7.416407864998737 100
      vertex 20.784609690826528 12 100
    endloop
  endfacet
  facet normal 0 0 1
    outer loop
      vertex 22.825356391083684 -7.416407864998737 100
      vertex 23.868525488838557 -2.5086831184236833 100
      vertex 22.825356391083684 7.416407864998737 100
    endloop
  endfacet
  facet normal 0 0 -1
    outer loop
      vertex 13.786717069230233 37.407347942094134 0
      vertex 12.360679774997896 -34.79479153066063 0
      vertex -4.231560250044069 39.30114520054134 0
    endloop
  endfacet
  facet normal 0 0 -1
    outer loop
      vertex 13.786717069230233 37.407347942094134 0
      vertex 19.375234923482104 28.696773515116014 0
      vertex 12.360679774997896 -34.79479153066063 0
    endloop
  endfacet
  facet normal 0 0 -1
    outer loop
      vertex 28.561070910143624 27.731303248462027 0
      vertex 26.76522425435433 -26 0
      vertex 19.375234923482104 28.696773515116014 0
    endloop
  endfacet
  facet normal 0 0 -1
    outer loop
      vertex 13.786717069230233 37.407347942094134 0
      vertex 19.65461484320911 34.79479153066063 0
      vertex 19.375234923482104 28.696773515116014 0
    endloop
  endfacet
  facet normal 0 0 -1
    outer loop
      vertex 28.561070910143624 27.731303248462027 0
      vertex 31.85141166588418 18.66604769667821 0
      vertex 26.76522425435433 -26 0
    endloop
  endfacet
  facet normal 0 0 -1
    outer loop
      vertex 35.46604667041858 18.132756852687873 0
      vertex 32.3606797749979 -23.302262827089933 0
      vertex 31.85141166588418 18.66604769667821 0
    endloop
  endfacet
  facet normal 0 0 -1
    outer loop
      vertex 35.46604667041858 18.132756852687873 0
      vertex 35.9174478986 17.35090699087866 0
      vertex 32.3606797749979 -23.302262827089933 0
    endloop
  endfacet
  facet normal 0 0 -1
    outer loop
      vertex 35.9174478986 17.35090699087866 0
      vertex 36.52031711998614 16.064895605914025 0
      vertex 32.3606797749979 -23.302262827089933 0
    endloop
  endfacet
  facet normal 0 0 -1
    outer loop
      vertex 37.17332713276198 14.325881402414916 0
      vertex 39.10440423714734 8.111910773983068 0
      vertex 36.541818305704034 -16.064902235324194 0
    endloop
  endfacet
  facet normal 0 0 -1
    outer loop
      vertex 37.17332713276198 14.325881402414916 0
      vertex 36.541818305704034 -16.064902235324194 0
      vertex 36.52031711998614 16.064895605914025 0
    endloop
  endfacet
  facet normal 0 0 -1
    outer loop
      vertex 28.561070910143624 27.731303248462027 0
      vertex 31.525109076801797 24.439405366140083 0
      vertex 31.85141166588418 18.66604769667821 0
    endloop
  endfacet
  facet normal 0 0 -1
    outer loop
      vertex 36.608278353907934 16.064922726794997 0
      vertex 37.17332713276198 14.325881402414916 0
      vertex 36.52031711998614 16.064895605914025 0
    endloop
  endfacet
  facet normal 0 0 -1
    outer loop
      vertex 39.786385058317435 2.032410408035409 0
      vertex 39.12590402935223 -4.112298222083315 0
      vertex 39.10440423714734 8.111910773983068 0
    endloop
  endfacet
  facet normal 0 0 -1
    outer loop
      vertex 39.786385058317435 2.032410408035409 0
      vertex 39.10440423714734 8.111910773983068 0
      vertex 39.14838488585496 8.102576570700334 0
    endloop
  endfacet
  facet normal 0 0 1
    outer loop
      vertex 0 24 100
      vertex 0 -24 100
      vertex 4.989880579626224 23.475542417611337 100
    endloop
  endfacet
  facet normal 0 0 1
    outer loop
      vertex 9.761679433819205 21.92509098342242 100
      vertex 9.761679433819205 -21.92509098342242 100
      vertex 14.106846055019355 19.41640786499874 100
    endloop
  endfacet
  facet normal 0 0 1
    outer loop
      vertex 9.761679433819205 -21.92509098342242 100
      vertex 9.761679433819205 21.92509098342242 100
      vertex 4.989880579626224 23.475542417611337 100
    endloop
  endfacet
  facet normal 0 0 1
    outer loop
      vertex 14.106846055019355 19.41640786499874 100
      vertex 17.835475811457464 -16.059134552612598 100
      vertex 17.835475811457464 16.059134552612598 100
    endloop
  endfacet
  facet normal 0 0 1
    outer loop
      vertex 20.784609690826528 12 100
      vertex 17.835475811457464 16.059134552612598 100
      vertex 17.835475811457464 -16.059134552612598 100
    endloop
  endfacet
  facet normal 0 0 1
    outer loop
      vertex 22.825356391083684 -7.416407864998737 100
      vertex 22.825356391083684 7.416407864998737 100
      vertex 20.784609690826528 12 100
    endloop
  endfacet
  facet normal 0 0 1
    outer loop
      vertex 22.825356391083684 7.416407864998737 100
      vertex 23.868525488838557 -2.5086831184236833 100
      vertex 23.868525488838557 2.5086831184236833 100
    endloop
  endfacet
endsolid OpenSCAD_Model
