solid OpenSCAD_Model
  facet normal -1 0 0
    outer loop
      vertex -14.725 -7.1 -6.75
      vertex -14.725 0 6.75
      vertex -14.725 -4.199999999999999 -6.75
    endloop
  endfacet
  facet normal 0 0 -1
    outer loop
      vertex -14.725 -7.1 -6.75
      vertex -14.725 -4.199999999999999 -6.75
      vertex 14.725 -7.1 -6.75
    endloop
  endfacet
  facet normal -1 0 0
    outer loop
      vertex -14.725 -7.1 -6.75
      vertex -14.725 -7.1 6.75
      vertex -14.725 0 6.75
    endloop
  endfacet
  facet normal 0 -1 0
    outer loop
      vertex -14.725 -7.1 -6.75
      vertex 14.725 -7.1 6.75
      vertex -14.725 -7.1 6.75
    endloop
  endfacet
  facet normal 0 0 1
    outer loop
      vertex -14.725 -7.1 6.75
      vertex 14.725 -7.1 6.75
      vertex -14.725 0 6.75
    endloop
  endfacet
  facet normal -1 0 0
    outer loop
      vertex -14.725 0 6.75
      vertex -14.725 -0.8999999999999999 -6.75
      vertex -14.725 -4.199999999999999 -6.75
    endloop
  endfacet
  facet normal -1 0 0
    outer loop
      vertex -14.725 0 -6.75
      vertex -14.725 -0.8999999999999999 -6.75
      vertex -14.725 0 6.75
    endloop
  endfacet
  facet normal 0 0 -1
    outer loop
      vertex -14.725 0 -6.75
      vertex 14.725 -0.8999999999999999 -6.75
      vertex -14.725 -0.8999999999999999 -6.75
    endloop
  endfacet
  facet normal 0 1 0
    outer loop
      vertex -14.725 0 -6.75
      vertex -14.725 0 6.75
      vertex 14.725 0 -6.75
    endloop
  endfacet
  facet normal 0 -1 0
    outer loop
      vertex -14.725 -7.1 -6.75
      vertex 14.725 -7.1 -6.75
      vertex 14.725 -7.1 6.75
    endloop
  endfacet
  facet normal 0 0 -1
    outer loop
      vertex 14.725 -7.1 -6.75
      vertex -14.725 -4.199999999999999 -6.75
      vertex 14.725 -4.199999999999999 -6.75
    endloop
  endfacet
  facet normal 1 0 0
    outer loop
      vertex 14.725 -7.1 -6.75
      vertex 14.725 -4.199999999999999 -6.75
      vertex 14.725 -7.1 6.75
    endloop
  endfacet
  facet normal 1 0 0
    outer loop
      vertex 14.725 -7.1 6.75
      vertex 14.725 -4.199999999999999 -6.75
      vertex 14.725 -0.8999999999999999 -6.75
    endloop
  endfacet
  facet normal 0 0 -1
    outer loop
      vertex -14.725 0 -6.75
      vertex 14.725 0 -6.75
      vertex 14.725 -0.8999999999999999 -6.75
    endloop
  endfacet
  facet normal 1 0 0
    outer loop
      vertex 14.725 -7.1 6.75
      vertex 14.725 -0.8999999999999999 -6.75
      vertex 14.725 0 -6.75
    endloop
  endfacet
  facet normal 0 0 1
    outer loop
      vertex -14.725 0 6.75
      vertex 14.725 -7.1 6.75
      vertex 14.725 0 6.75
    endloop
  endfacet
  facet normal 0 1 0
    outer loop
      vertex -14.725 0 6.75
      vertex 14.725 0 6.75
      vertex 14.725 0 -6.75
    endloop
  endfacet
  facet normal 1 0 0
    outer loop
      vertex 14.725 -7.1 6.75
      vertex 14.725 0 -6.75
      vertex 14.725 0 6.75
    endloop
  endfacet
  facet normal 0 -1 0
    outer loop
      vertex -14.725 -4.199999999999999 -7.949999999999999
      vertex 14.725 -4.199999999999999 -6.75
      vertex -14.725 -4.199999999999999 -6.75
    endloop
  endfacet
  facet normal 0 0 -1
    outer loop
      vertex -14.725 -4.199999999999999 -7.949999999999999
      vertex -5.05 -4.05 -7.949999999999999
      vertex 14.725 -4.199999999999999 -7.949999999999999
    endloop
  endfacet
  facet normal -1 0 0
    outer loop
      vertex -14.725 -4.199999999999999 -7.949999999999999
      vertex -14.725 -4.199999999999999 -6.75
      vertex -14.725 -0.8999999999999999 -6.75
    endloop
  endfacet
  facet normal -1 0 0
    outer loop
      vertex -14.725 -4.199999999999999 -7.949999999999999
      vertex -14.725 -0.8999999999999999 -6.75
      vertex -14.725 -0.8999999999999999 -7.949999999999999
    endloop
  endfacet
  facet normal 0 0 -1
    outer loop
      vertex -14.725 -4.199999999999999 -7.949999999999999
      vertex -14.725 -0.8999999999999999 -7.949999999999999
      vertex -5.05 -1.0499999999999998 -7.949999999999999
    endloop
  endfacet
  facet normal 0 0 -1
    outer loop
      vertex -14.725 -4.199999999999999 -7.949999999999999
      vertex -5.05 -1.0499999999999998 -7.949999999999999
      vertex -5.05 -4.05 -7.949999999999999
    endloop
  endfacet
  facet normal 0 0 -1
    outer loop
      vertex -14.725 -0.8999999999999999 -7.949999999999999
      vertex 5.05 -1.0499999999999998 -7.949999999999999
      vertex -5.05 -1.0499999999999998 -7.949999999999999
    endloop
  endfacet
  facet normal 0 1 0
    outer loop
      vertex -14.725 -0.8999999999999999 -7.949999999999999
      vertex -14.725 -0.8999999999999999 -6.75
      vertex 14.725 -0.8999999999999999 -7.949999999999999
    endloop
  endfacet
  facet normal 0 0 -1
    outer loop
      vertex -5.05 -4.05 -7.949999999999999
      vertex 5.05 -4.05 -7.949999999999999
      vertex 14.725 -4.199999999999999 -7.949999999999999
    endloop
  endfacet
  facet normal 0 -1 0
    outer loop
      vertex -14.725 -4.199999999999999 -7.949999999999999
      vertex 14.725 -4.199999999999999 -7.949999999999999
      vertex 14.725 -4.199999999999999 -6.75
    endloop
  endfacet
  facet normal 0 0 -1
    outer loop
      vertex -14.725 -0.8999999999999999 -7.949999999999999
      vertex 14.725 -0.8999999999999999 -7.949999999999999
      vertex 5.05 -1.0499999999999998 -7.949999999999999
    endloop
  endfacet
  facet normal 0 1 0
    outer loop
      vertex 14.725 -0.8999999999999999 -7.949999999999999
      vertex -14.725 -0.8999999999999999 -6.75
      vertex 14.725 -0.8999999999999999 -6.75
    endloop
  endfacet
  facet normal 0 0 -1
    outer loop
      vertex 5.05 -4.05 -7.949999999999999
      vertex 5.05 -1.0499999999999998 -7.949999999999999
      vertex 14.725 -0.8999999999999999 -7.949999999999999
    endloop
  endfacet
  facet normal 0 0 -1
    outer loop
      vertex 5.05 -4.05 -7.949999999999999
      vertex 14.725 -0.8999999999999999 -7.949999999999999
      vertex 14.725 -4.199999999999999 -7.949999999999999
    endloop
  endfacet
  facet normal 1 0 0
    outer loop
      vertex 14.725 -4.199999999999999 -7.949999999999999
      vertex 14.725 -0.8999999999999999 -7.949999999999999
      vertex 14.725 -4.199999999999999 -6.75
    endloop
  endfacet
  facet normal 1 0 0
    outer loop
      vertex 14.725 -0.8999999999999999 -7.949999999999999
      vertex 14.725 -0.8999999999999999 -6.75
      vertex 14.725 -4.199999999999999 -6.75
    endloop
  endfacet
  facet normal 0 -1 0
    outer loop
      vertex -5.05 -4.05 -10.95
      vertex 5.05 -4.05 -7.949999999999999
      vertex -5.05 -4.05 -7.949999999999999
    endloop
  endfacet
  facet normal -1 0 0
    outer loop
      vertex -5.05 -4.05 -10.95
      vertex -5.05 -4.05 -7.949999999999999
      vertex -5.05 -1.0499999999999998 -7.949999999999999
    endloop
  endfacet
  facet normal -1 0 0
    outer loop
      vertex -5.05 -4.05 -10.95
      vertex -5.05 -1.0499999999999998 -7.949999999999999
      vertex -5.05 -1.0499999999999998 -10.95
    endloop
  endfacet
  facet normal 0 0 -1
    outer loop
      vertex -5.05 -4.05 -10.95
      vertex -5.05 -1.0499999999999998 -10.95
      vertex 5.05 -1.0499999999999998 -10.95
    endloop
  endfacet
  facet normal 0 1 0
    outer loop
      vertex -5.05 -1.0499999999999998 -10.95
      vertex -5.05 -1.0499999999999998 -7.949999999999999
      vertex 5.05 -1.0499999999999998 -10.95
    endloop
  endfacet
  facet normal 0 -1 0
    outer loop
      vertex -5.05 -4.05 -10.95
      vertex 5.05 -4.05 -10.95
      vertex 5.05 -4.05 -7.949999999999999
    endloop
  endfacet
  facet normal 0 0 -1
    outer loop
      vertex -5.05 -4.05 -10.95
      vertex 5.05 -1.0499999999999998 -10.95
      vertex 5.05 -4.05 -10.95
    endloop
  endfacet
  facet normal 1 0 0
    outer loop
      vertex 5.05 -4.05 -10.95
      vertex 5.05 -1.0499999999999998 -10.95
      vertex 5.05 -4.05 -7.949999999999999
    endloop
  endfacet
  facet normal 1 0 0
    outer loop
      vertex 5.05 -4.05 -7.949999999999999
      vertex 5.05 -1.0499999999999998 -10.95
      vertex 5.05 -1.0499999999999998 -7.949999999999999
    endloop
  endfacet
  facet normal 0 1 0
    outer loop
      vertex -5.05 -1.0499999999999998 -7.949999999999999
      vertex 5.05 -1.0499999999999998 -7.949999999999999
      vertex 5.05 -1.0499999999999998 -10.95
    endloop
  endfacet
endsolid OpenSCAD_Model
