solid OpenSCAD_Model
  facet normal 0 0 -1
    outer loop
      vertex 7.505553498864174 0 0
      vertex 7.500539593398571 0.2742975875735283 0
      vertex 7.504299916327 0.1371717005968094 0
    endloop
  endfacet
  facet normal 0 0 -1
    outer loop
      vertex 7.505553498864174 0 0
      vertex 7.474234893918037 0.6849424168467522 0
      vertex 7.500539593398571 0.2742975875735283 0
    endloop
  endfacet
  facet normal 0 0 -1
    outer loop
      vertex 7.474234893918037 0.6849424168467522 0
      vertex 7.494273774325848 0.4113318398594856 0
      vertex 7.500539593398571 0.2742975875735283 0
    endloop
  endfacet
  facet normal 0 0 -1
    outer loop
      vertex 7.474234893918037 0.6849424168467522 0
      vertex 7.485504567623138 0.5482286959886551 0
      vertex 7.494273774325848 0.4113318398594856 0
    endloop
  endfacet
  facet normal 0.9999582439293664 0.00913840236024904 0
    outer loop
      vertex 7.504299916327 0.1371717005968094 0
      vertex 7.505553498864174 0 5.3
      vertex 7.505553498864174 0 0
    endloop
  endfacet
  facet normal 0.9996242175129775 0.027412109761337632 0
    outer loop
      vertex 7.500539593398571 0.2742975875735283 0
      vertex 7.504299916327 0.1371717005968094 5.3
      vertex 7.504299916327 0.1371717005968094 0
    endloop
  endfacet
  facet normal 0.9989562725771093 0.0456767498717672 0
    outer loop
      vertex 7.494273774325848 0.4113318398594856 0
      vertex 7.500539593398571 0.2742975875735283 5.3
      vertex 7.500539593398571 0.2742975875735283 0
    endloop
  endfacet
  facet normal -0.9989562743485693 -0.045676711129699274 0
    outer loop
      vertex 7.505553498864174 0 0
      vertex 7.474234893918037 0.6849424168467522 5.3
      vertex 7.474234893918037 0.6849424168467522 0
    endloop
  endfacet
  facet normal 0.9979546405347005 0.06392601532440857 0
    outer loop
      vertex 7.485504567623138 0.5482286959886551 0
      vertex 7.494273774325848 0.4113318398594856 5.3
      vertex 7.494273774325848 0.4113318398594856 0
    endloop
  endfacet
  facet normal 0.9999582439293664 0.00913840236024904 0
    outer loop
      vertex 7.504299916327 0.1371717005968094 0
      vertex 7.504299916327 0.1371717005968094 5.3
      vertex 7.505553498864174 0 5.3
    endloop
  endfacet
  facet normal -0.9989562743485693 -0.045676711129699274 0
    outer loop
      vertex 7.505553498864174 0 0
      vertex 7.505553498864174 0 5.3
      vertex 7.474234893918037 0.6849424168467522 5.3
    endloop
  endfacet
  facet normal 0.9996242175129775 0.027412109761337632 0
    outer loop
      vertex 7.500539593398571 0.2742975875735283 0
      vertex 7.500539593398571 0.2742975875735283 5.3
      vertex 7.504299916327 0.1371717005968094 5.3
    endloop
  endfacet
  facet normal 0 0 1
    outer loop
      vertex 7.504299916327 0.1371717005968094 5.3
      vertex 7.500539593398571 0.2742975875735283 5.3
      vertex 7.505553498864174 0 5.3
    endloop
  endfacet
  facet normal 0.9989562725771093 0.0456767498717672 0
    outer loop
      vertex 7.494273774325848 0.4113318398594856 0
      vertex 7.494273774325848 0.4113318398594856 5.3
      vertex 7.500539593398571 0.2742975875735283 5.3
    endloop
  endfacet
  facet normal 0 0 1
    outer loop
      vertex 7.500539593398571 0.2742975875735283 5.3
      vertex 7.474234893918037 0.6849424168467522 5.3
      vertex 7.505553498864174 0 5.3
    endloop
  endfacet
  facet normal 0 0 1
    outer loop
      vertex 7.500539593398571 0.2742975875735283 5.3
      vertex 7.494273774325848 0.4113318398594856 5.3
      vertex 7.474234893918037 0.6849424168467522 5.3
    endloop
  endfacet
  facet normal 0.9966196472249208 0.08215399421376023 0
    outer loop
      vertex 7.474234893918037 0.6849424168467522 0
      vertex 7.485504567623138 0.5482286959886551 5.3
      vertex 7.485504567623138 0.5482286959886551 0
    endloop
  endfacet
  facet normal 0.9979546405347005 0.06392601532440857 0
    outer loop
      vertex 7.485504567623138 0.5482286959886551 0
      vertex 7.485504567623138 0.5482286959886551 5.3
      vertex 7.494273774325848 0.4113318398594856 5.3
    endloop
  endfacet
  facet normal 0.9966196472249208 0.08215399421376023 0
    outer loop
      vertex 7.474234893918037 0.6849424168467522 0
      vertex 7.474234893918037 0.6849424168467522 5.3
      vertex 7.485504567623138 0.5482286959886551 5.3
    endloop
  endfacet
  facet normal 0 0 1
    outer loop
      vertex 7.494273774325848 0.4113318398594856 5.3
      vertex 7.485504567623138 0.5482286959886551 5.3
      vertex 7.474234893918037 0.6849424168467522 5.3
    endloop
  endfacet
  facet normal -0.5680647467311558 -0.8229838658936564 0
    outer loop
      vertex -1.4184195481701427 -3.7400649707416593 0
      vertex -2.994042992684404 -2.652490632963181 -30
      vertex -1.4184195481701427 -3.7400649707416593 -30
    endloop
  endfacet
  facet normal 0 0 -1
    outer loop
      vertex -3.883767269704208 -0.9572626571502305 -30
      vertex -2.994042992684404 2.652490632963181 -30
      vertex -2.994042992684404 -2.652490632963181 -30
    endloop
  endfacet
  facet normal 0 0 -1
    outer loop
      vertex -2.994042992684404 -2.652490632963181 -30
      vertex -1.4184195481701427 3.7400649707416593 -30
      vertex -1.4184195481701427 -3.7400649707416593 -30
    endloop
  endfacet
  facet normal -0.8854560256532098 -0.4647231720437685 0
    outer loop
      vertex -2.994042992684404 -2.652490632963181 -30
      vertex -3.883767269704208 -0.9572626571502305 0
      vertex -3.883767269704208 -0.9572626571502305 -30
    endloop
  endfacet
  facet normal -0.12053668025532327 -0.9927088740980539 0
    outer loop
      vertex 0.482146721021291 -3.9708354963922163 0
      vertex -1.4184195481701427 -3.7400649707416593 -30
      vertex 0.482146721021291 -3.9708354963922163 -30
    endloop
  endfacet
  facet normal 0.35460488704253584 -0.9350162426854147 0
    outer loop
      vertex 2.2722589869246246 -3.2919354635746245 0
      vertex 0.482146721021291 -3.9708354963922163 -30
      vertex 2.2722589869246246 -3.2919354635746245 -30
    endloop
  endfacet
  facet normal 0 0 -1
    outer loop
      vertex -1.4184195481701427 -3.7400649707416593 -30
      vertex 0.48214672102129197 3.970835496392216 -30
      vertex 0.482146721021291 -3.9708354963922163 -30
    endloop
  endfacet
  facet normal 0 0 -1
    outer loop
      vertex 0.482146721021291 -3.9708354963922163 -30
      vertex 2.272258986924623 3.291935463574626 -30
      vertex 2.2722589869246246 -3.2919354635746245 -30
    endloop
  endfacet
  facet normal -0.5680647467311558 -0.8229838658936564 0
    outer loop
      vertex -2.994042992684404 -2.652490632963181 -30
      vertex -1.4184195481701427 -3.7400649707416593 0
      vertex -2.994042992684404 -2.652490632963181 0
    endloop
  endfacet
  facet normal -0.8854560256532098 -0.4647231720437685 0
    outer loop
      vertex -3.883767269704208 -0.9572626571502305 0
      vertex -2.994042992684404 -2.652490632963181 -30
      vertex -2.994042992684404 -2.652490632963181 0
    endloop
  endfacet
  facet normal -1 0 0
    outer loop
      vertex -3.883767269704208 0.9572626571502305 0
      vertex -3.883767269704208 -0.9572626571502305 -30
      vertex -3.883767269704208 -0.9572626571502305 0
    endloop
  endfacet
  facet normal 0 0 1
    outer loop
      vertex -2.994042992684404 2.652490632963181 0
      vertex -2.994042992684404 -2.652490632963181 0
      vertex -1.4184195481701427 -3.7400649707416593 0
    endloop
  endfacet
  facet normal 0 0 1
    outer loop
      vertex -2.994042992684404 -2.652490632963181 0
      vertex -3.883767269704208 0.9572626571502305 0
      vertex -3.883767269704208 -0.9572626571502305 0
    endloop
  endfacet
  facet normal -0.12053668025532327 -0.9927088740980539 0
    outer loop
      vertex -1.4184195481701427 -3.7400649707416593 -30
      vertex 0.482146721021291 -3.9708354963922163 0
      vertex -1.4184195481701427 -3.7400649707416593 0
    endloop
  endfacet
  facet normal 0.35460488704253584 -0.9350162426854147 0
    outer loop
      vertex 0.482146721021291 -3.9708354963922163 -30
      vertex 2.2722589869246246 -3.2919354635746245 0
      vertex 0.482146721021291 -3.9708354963922163 0
    endloop
  endfacet
  facet normal 0 0 1
    outer loop
      vertex -1.4184195481701427 3.7400649707416593 0
      vertex -1.4184195481701427 -3.7400649707416593 0
      vertex 0.482146721021291 -3.9708354963922163 0
    endloop
  endfacet
  facet normal 0 0 1
    outer loop
      vertex 0.48214672102129197 3.970835496392216 0
      vertex 0.482146721021291 -3.9708354963922163 0
      vertex 2.2722589869246246 -3.2919354635746245 0
    endloop
  endfacet
  facet normal 0 0 -1
    outer loop
      vertex -2.994042992684404 2.652490632963181 -30
      vertex -3.883767269704208 -0.9572626571502305 -30
      vertex -3.883767269704208 0.9572626571502305 -30
    endloop
  endfacet
  facet normal 0 0 -1
    outer loop
      vertex -2.994042992684404 -2.652490632963181 -30
      vertex -2.994042992684404 2.652490632963181 -30
      vertex -1.4184195481701427 3.7400649707416593 -30
    endloop
  endfacet
  facet normal -1 0 0
    outer loop
      vertex -3.883767269704208 -0.9572626571502305 -30
      vertex -3.883767269704208 0.9572626571502305 0
      vertex -3.883767269704208 0.9572626571502305 -30
    endloop
  endfacet
  facet normal -0.8854560256532098 0.4647231720437685 0
    outer loop
      vertex -3.883767269704208 0.9572626571502305 -30
      vertex -2.994042992684404 2.652490632963181 0
      vertex -2.994042992684404 2.652490632963181 -30
    endloop
  endfacet
  facet normal -0.5680647467311558 0.8229838658936564 0
    outer loop
      vertex -2.994042992684404 2.652490632963181 0
      vertex -1.4184195481701427 3.7400649707416593 -30
      vertex -2.994042992684404 2.652490632963181 -30
    endloop
  endfacet
  facet normal 0 0 -1
    outer loop
      vertex -1.4184195481701427 -3.7400649707416593 -30
      vertex -1.4184195481701427 3.7400649707416593 -30
      vertex 0.48214672102129197 3.970835496392216 -30
    endloop
  endfacet
  facet normal 0 0 -1
    outer loop
      vertex 0.482146721021291 -3.9708354963922163 -30
      vertex 0.48214672102129197 3.970835496392216 -30
      vertex 2.272258986924623 3.291935463574626 -30
    endloop
  endfacet
  facet normal -0.12053668025532299 0.9927088740980541 0
    outer loop
      vertex -1.4184195481701427 3.7400649707416593 0
      vertex 0.48214672102129197 3.970835496392216 -30
      vertex -1.4184195481701427 3.7400649707416593 -30
    endloop
  endfacet
  facet normal 0.35460488704253545 0.9350162426854148 0
    outer loop
      vertex 0.48214672102129197 3.970835496392216 0
      vertex 2.272258986924623 3.291935463574626 -30
      vertex 0.48214672102129197 3.970835496392216 -30
    endloop
  endfacet
  facet normal -0.8854560256532098 0.4647231720437685 0
    outer loop
      vertex -2.994042992684404 2.652490632963181 0
      vertex -3.883767269704208 0.9572626571502305 -30
      vertex -3.883767269704208 0.9572626571502305 0
    endloop
  endfacet
  facet normal 0 0 1
    outer loop
      vertex -3.883767269704208 0.9572626571502305 0
      vertex -2.994042992684404 -2.652490632963181 0
      vertex -2.994042992684404 2.652490632963181 0
    endloop
  endfacet
  facet normal 0 0 1
    outer loop
      vertex -2.994042992684404 2.652490632963181 0
      vertex -1.4184195481701427 -3.7400649707416593 0
      vertex -1.4184195481701427 3.7400649707416593 0
    endloop
  endfacet
  facet normal -0.5680647467311558 0.8229838658936564 0
    outer loop
      vertex -1.4184195481701427 3.7400649707416593 -30
      vertex -2.994042992684404 2.652490632963181 0
      vertex -1.4184195481701427 3.7400649707416593 0
    endloop
  endfacet
  facet normal 0 0 1
    outer loop
      vertex -1.4184195481701427 3.7400649707416593 0
      vertex 0.482146721021291 -3.9708354963922163 0
      vertex 0.48214672102129197 3.970835496392216 0
    endloop
  endfacet
  facet normal 0 0 1
    outer loop
      vertex 0.48214672102129197 3.970835496392216 0
      vertex 2.2722589869246246 -3.2919354635746245 0
      vertex 2.272258986924623 3.291935463574626 0
    endloop
  endfacet
  facet normal -0.12053668025532299 0.9927088740980541 0
    outer loop
      vertex 0.48214672102129197 3.970835496392216 -30
      vertex -1.4184195481701427 3.7400649707416593 0
      vertex 0.48214672102129197 3.970835496392216 0
    endloop
  endfacet
  facet normal 0.35460488704253545 0.9350162426854148 0
    outer loop
      vertex 2.272258986924623 3.291935463574626 -30
      vertex 0.48214672102129197 3.970835496392216 0
      vertex 2.272258986924623 3.291935463574626 0
    endloop
  endfacet
  facet normal 0.7485107481711013 -0.663122658240795 0
    outer loop
      vertex 3.54182410261284 -1.8588926881750734 -30
      vertex 2.2722589869246246 -3.2919354635746245 0
      vertex 2.2722589869246246 -3.2919354635746245 -30
    endloop
  endfacet
  facet normal 0 0 -1
    outer loop
      vertex 2.2722589869246246 -3.2919354635746245 -30
      vertex 3.5418241026128396 1.8588926881750742 -30
      vertex 3.54182410261284 -1.8588926881750734 -30
    endloop
  endfacet
  facet normal 0.9709418174260521 -0.23931566428755766 0
    outer loop
      vertex 4 0 -30
      vertex 3.54182410261284 -1.8588926881750734 0
      vertex 3.54182410261284 -1.8588926881750734 -30
    endloop
  endfacet
  facet normal 0.7485107481711013 -0.663122658240795 0
    outer loop
      vertex 2.2722589869246246 -3.2919354635746245 0
      vertex 3.54182410261284 -1.8588926881750734 -30
      vertex 3.54182410261284 -1.8588926881750734 0
    endloop
  endfacet
  facet normal 0.9709418174260521 -0.23931566428755766 0
    outer loop
      vertex 3.54182410261284 -1.8588926881750734 0
      vertex 4 0 -30
      vertex 4 0 0
    endloop
  endfacet
  facet normal 0 0 1
    outer loop
      vertex 2.272258986924623 3.291935463574626 0
      vertex 2.2722589869246246 -3.2919354635746245 0
      vertex 3.54182410261284 -1.8588926881750734 0
    endloop
  endfacet
  facet normal 0 0 -1
    outer loop
      vertex 2.2722589869246246 -3.2919354635746245 -30
      vertex 2.272258986924623 3.291935463574626 -30
      vertex 3.5418241026128396 1.8588926881750742 -30
    endloop
  endfacet
  facet normal 0 0 -1
    outer loop
      vertex 3.54182410261284 -1.8588926881750734 -30
      vertex 3.5418241026128396 1.8588926881750742 -30
      vertex 4 0 -30
    endloop
  endfacet
  facet normal 0.970941817426052 0.2393156642875577 0
    outer loop
      vertex 3.5418241026128396 1.8588926881750742 -30
      vertex 4 0 0
      vertex 4 0 -30
    endloop
  endfacet
  facet normal 0.748510748171101 0.6631226582407953 0
    outer loop
      vertex 2.272258986924623 3.291935463574626 -30
      vertex 3.5418241026128396 1.8588926881750742 0
      vertex 3.5418241026128396 1.8588926881750742 -30
    endloop
  endfacet
  facet normal 0.970941817426052 0.2393156642875577 0
    outer loop
      vertex 4 0 0
      vertex 3.5418241026128396 1.8588926881750742 -30
      vertex 3.5418241026128396 1.8588926881750742 0
    endloop
  endfacet
  facet normal 0 0 1
    outer loop
      vertex 2.272258986924623 3.291935463574626 0
      vertex 3.54182410261284 -1.8588926881750734 0
      vertex 3.5418241026128396 1.8588926881750742 0
    endloop
  endfacet
  facet normal 0 0 1
    outer loop
      vertex 3.5418241026128396 1.8588926881750742 0
      vertex 3.54182410261284 -1.8588926881750734 0
      vertex 4 0 0
    endloop
  endfacet
  facet normal 0.748510748171101 0.6631226582407953 0
    outer loop
      vertex 3.5418241026128396 1.8588926881750742 0
      vertex 2.272258986924623 3.291935463574626 -30
      vertex 2.272258986924623 3.291935463574626 0
    endloop
  endfacet
endsolid OpenSCAD_Model
