solid OpenSCAD_Model
  facet normal 0 0 1
    outer loop
      vertex -25 3 3
      vertex -16.418419548170142 16.25993502925834 3
      vertex -17.994042992684403 17.347509367036817 3
    endloop
  endfacet
  facet normal 0 0 -1
    outer loop
      vertex -25 3 0
      vertex -16.59099025766973 18.40900974233027 0
      vertex -15 17.75 0
    endloop
  endfacet
  facet normal 0 0 -1
    outer loop
      vertex -25 3 0
      vertex -17.25 20 0
      vertex -16.59099025766973 18.40900974233027 0
    endloop
  endfacet
  facet normal 0 0 1
    outer loop
      vertex -25 3 3
      vertex -17.994042992684403 17.347509367036817 3
      vertex -18.883767269704208 19.04273734284977 3
    endloop
  endfacet
  facet normal -1 0 0
    outer loop
      vertex -25 3 0
      vertex -25 3 3
      vertex -25 40 0
    endloop
  endfacet
  facet normal 0 0 1
    outer loop
      vertex -25 3 3
      vertex -14.51785327897871 16.029164503607785 3
      vertex -16.418419548170142 16.25993502925834 3
    endloop
  endfacet
  facet normal 0 0 1
    outer loop
      vertex -25 3 3
      vertex -12.727741013075375 16.708064536425375 3
      vertex -14.51785327897871 16.029164503607785 3
    endloop
  endfacet
  facet normal 0 0 -1
    outer loop
      vertex -25 3 0
      vertex -15 17.75 0
      vertex -13.409009742330268 18.40900974233027 0
    endloop
  endfacet
  facet normal 0 0 1
    outer loop
      vertex -25 3 3
      vertex 25 3 3
      vertex -12.727741013075375 16.708064536425375 3
    endloop
  endfacet
  facet normal 0 0 -1
    outer loop
      vertex -25 0 0
      vertex -25 3 0
      vertex 25 40 0
    endloop
  endfacet
  facet normal 0 0 -1
    outer loop
      vertex -25 3 0
      vertex -25 40 0
      vertex -17.25 20 0
    endloop
  endfacet
  facet normal 0 0 1
    outer loop
      vertex -25 3 3
      vertex -18.883767269704208 19.04273734284977 3
      vertex -25 40 3
    endloop
  endfacet
  facet normal -1 0 0
    outer loop
      vertex -25 3 3
      vertex -25 40 3
      vertex -25 40 0
    endloop
  endfacet
  facet normal 0 0 -1
    outer loop
      vertex -25 40 0
      vertex -16.59099025766973 21.59099025766973 0
      vertex -17.25 20 0
    endloop
  endfacet
  facet normal 0 0 1
    outer loop
      vertex -25 40 3
      vertex -18.883767269704208 19.04273734284977 3
      vertex -18.883767269704208 20.95726265715023 3
    endloop
  endfacet
  facet normal 0 0 -1
    outer loop
      vertex -25 40 0
      vertex -15 22.25 0
      vertex -16.59099025766973 21.59099025766973 0
    endloop
  endfacet
  facet normal 0 0 1
    outer loop
      vertex -25 40 3
      vertex -18.883767269704208 20.95726265715023 3
      vertex -17.994042992684403 22.652490632963183 3
    endloop
  endfacet
  facet normal 0 0 1
    outer loop
      vertex -25 40 3
      vertex -17.994042992684403 22.652490632963183 3
      vertex -16.418419548170142 23.74006497074166 3
    endloop
  endfacet
  facet normal 0 0 1
    outer loop
      vertex -25 40 3
      vertex -16.418419548170142 23.74006497074166 3
      vertex -14.517853278978707 23.970835496392215 3
    endloop
  endfacet
  facet normal 0 0 1
    outer loop
      vertex -25 40 3
      vertex -14.517853278978707 23.970835496392215 3
      vertex -12.727741013075377 23.291935463574625 3
    endloop
  endfacet
  facet normal 0 0 1
    outer loop
      vertex -25 40 3
      vertex -12.727741013075377 23.291935463574625 3
      vertex -11.45817589738716 21.858892688175075 3
    endloop
  endfacet
  facet normal 0 0 -1
    outer loop
      vertex -25 3 0
      vertex -13.409009742330268 18.40900974233027 0
      vertex 25 40 0
    endloop
  endfacet
  facet normal 0 0 1
    outer loop
      vertex -25 40 3
      vertex -11.45817589738716 21.858892688175075 3
      vertex 25 3 3
    endloop
  endfacet
  facet normal 0 0 -1
    outer loop
      vertex 25 40 0
      vertex -13.409009742330268 18.40900974233027 0
      vertex -12.75 20 0
    endloop
  endfacet
  facet normal 0 0 -1
    outer loop
      vertex 25 40 0
      vertex -12.75 20 0
      vertex -13.409009742330268 21.59099025766973 0
    endloop
  endfacet
  facet normal 0 0 1
    outer loop
      vertex -25 40 3
      vertex 12.005957007315596 17.347509367036817 3
      vertex 11.116232730295792 19.04273734284977 3
    endloop
  endfacet
  facet normal 0 0 1
    outer loop
      vertex -25 40 3
      vertex 11.116232730295792 19.04273734284977 3
      vertex 11.116232730295792 20.95726265715023 3
    endloop
  endfacet
  facet normal 0 0 -1
    outer loop
      vertex 25 40 0
      vertex -13.409009742330268 21.59099025766973 0
      vertex -15 22.25 0
    endloop
  endfacet
  facet normal 0 0 1
    outer loop
      vertex -25 40 3
      vertex 11.116232730295792 20.95726265715023 3
      vertex 12.005957007315596 22.652490632963183 3
    endloop
  endfacet
  facet normal 0 1 0
    outer loop
      vertex -25 40 0
      vertex -25 40 3
      vertex 25 40 0
    endloop
  endfacet
  facet normal 0 0 -1
    outer loop
      vertex -25 40 0
      vertex 25 40 0
      vertex -15 22.25 0
    endloop
  endfacet
  facet normal 0 0 -1
    outer loop
      vertex -25 0 0
      vertex 13.409009742330268 18.40900974233027 0
      vertex 25 0 0
    endloop
  endfacet
  facet normal 0 0 -1
    outer loop
      vertex -25 0 0
      vertex 12.75 20 0
      vertex 13.409009742330268 18.40900974233027 0
    endloop
  endfacet
  facet normal 0 0 -1
    outer loop
      vertex -25 0 0
      vertex 13.409009742330268 21.59099025766973 0
      vertex 12.75 20 0
    endloop
  endfacet
  facet normal 0 0 1
    outer loop
      vertex 25 3 3
      vertex -11.45817589738716 18.141107311824925 3
      vertex -12.727741013075375 16.708064536425375 3
    endloop
  endfacet
  facet normal 0 0 1
    outer loop
      vertex 25 3 3
      vertex -11 20 3
      vertex -11.45817589738716 18.141107311824925 3
    endloop
  endfacet
  facet normal 0 0 1
    outer loop
      vertex 25 3 3
      vertex -11.45817589738716 21.858892688175075 3
      vertex -11 20 3
    endloop
  endfacet
  facet normal 0 0 1
    outer loop
      vertex -25 40 3
      vertex 25 3 3
      vertex 13.581580451829858 16.25993502925834 3
    endloop
  endfacet
  facet normal 1 0 0
    outer loop
      vertex 25 0 0
      vertex 25 2.7906976744186047 2.7906976744186047
      vertex 25 0 3
    endloop
  endfacet
  facet normal 1 0 0
    outer loop
      vertex 25 0 3
      vertex 25 2.7906976744186047 2.7906976744186047
      vertex 25 2.5813953488372094 3
    endloop
  endfacet
  facet normal 1 0 0
    outer loop
      vertex 25 2.7906976744186047 2.7906976744186047
      vertex 25 3 3
      vertex 25 2.775 3
    endloop
  endfacet
  facet normal 0 0 -1
    outer loop
      vertex 25 0 0
      vertex 13.409009742330268 18.40900974233027 0
      vertex 15 17.75 0
    endloop
  endfacet
  facet normal 0 0 1
    outer loop
      vertex 25 3 3
      vertex 15.48214672102129 16.029164503607785 3
      vertex 13.581580451829858 16.25993502925834 3
    endloop
  endfacet
  facet normal 0 0 -1
    outer loop
      vertex 25 0 0
      vertex 15 17.75 0
      vertex 16.59099025766973 18.40900974233027 0
    endloop
  endfacet
  facet normal 0 0 1
    outer loop
      vertex 25 3 3
      vertex 17.272258986924626 16.708064536425375 3
      vertex 15.48214672102129 16.029164503607785 3
    endloop
  endfacet
  facet normal 0 0 -1
    outer loop
      vertex 25 0 0
      vertex 16.59099025766973 18.40900974233027 0
      vertex 17.25 20 0
    endloop
  endfacet
  facet normal 0 0 1
    outer loop
      vertex 25 3 3
      vertex 18.54182410261284 18.141107311824925 3
      vertex 17.272258986924626 16.708064536425375 3
    endloop
  endfacet
  facet normal 0 0 1
    outer loop
      vertex 25 3 3
      vertex 19 20 3
      vertex 18.54182410261284 18.141107311824925 3
    endloop
  endfacet
  facet normal 1 0 0
    outer loop
      vertex 25 0 0
      vertex 25 40 0
      vertex 25 2.7906976744186047 2.7906976744186047
    endloop
  endfacet
  facet normal 1 0 0
    outer loop
      vertex 25 2.7906976744186047 2.7906976744186047
      vertex 25 40 3
      vertex 25 3 3
    endloop
  endfacet
  facet normal 0 0 1
    outer loop
      vertex -25 40 3
      vertex 13.581580451829858 16.25993502925834 3
      vertex 12.005957007315596 17.347509367036817 3
    endloop
  endfacet
  facet normal 0 0 -1
    outer loop
      vertex -25 0 0
      vertex 25 40 0
      vertex 13.409009742330268 21.59099025766973 0
    endloop
  endfacet
  facet normal 0 0 1
    outer loop
      vertex -25 40 3
      vertex 12.005957007315596 22.652490632963183 3
      vertex 13.581580451829858 23.74006497074166 3
    endloop
  endfacet
  facet normal 0 0 1
    outer loop
      vertex -25 40 3
      vertex 13.581580451829858 23.74006497074166 3
      vertex 15.482146721021293 23.970835496392215 3
    endloop
  endfacet
  facet normal 0 0 1
    outer loop
      vertex -25 40 3
      vertex 15.482146721021293 23.970835496392215 3
      vertex 25 40 3
    endloop
  endfacet
  facet normal 0 1 0
    outer loop
      vertex -25 40 3
      vertex 25 40 3
      vertex 25 40 0
    endloop
  endfacet
  facet normal 0 0 -1
    outer loop
      vertex 25 40 0
      vertex 15 22.25 0
      vertex 13.409009742330268 21.59099025766973 0
    endloop
  endfacet
  facet normal 0 0 -1
    outer loop
      vertex 25 0 0
      vertex 17.25 20 0
      vertex 25 40 0
    endloop
  endfacet
  facet normal 0 0 1
    outer loop
      vertex 25 3 3
      vertex 25 40 3
      vertex 19 20 3
    endloop
  endfacet
  facet normal 0 0 -1
    outer loop
      vertex 25 40 0
      vertex 17.25 20 0
      vertex 16.59099025766973 21.59099025766973 0
    endloop
  endfacet
  facet normal 0 0 1
    outer loop
      vertex 25 40 3
      vertex 18.54182410261284 21.858892688175075 3
      vertex 19 20 3
    endloop
  endfacet
  facet normal 0 0 -1
    outer loop
      vertex 25 40 0
      vertex 16.59099025766973 21.59099025766973 0
      vertex 15 22.25 0
    endloop
  endfacet
  facet normal 0 0 1
    outer loop
      vertex 25 40 3
      vertex 17.272258986924623 23.291935463574625 3
      vertex 18.54182410261284 21.858892688175075 3
    endloop
  endfacet
  facet normal 0 0 1
    outer loop
      vertex 25 40 3
      vertex 15.482146721021293 23.970835496392215 3
      vertex 17.272258986924623 23.291935463574625 3
    endloop
  endfacet
  facet normal 1 0 0
    outer loop
      vertex 25 2.7906976744186047 2.7906976744186047
      vertex 25 40 0
      vertex 25 40 3
    endloop
  endfacet
  facet normal -1 0 0
    outer loop
      vertex -25 0 0
      vertex -25 3 3
      vertex -25 3 0
    endloop
  endfacet
  facet normal -1 0 0
    outer loop
      vertex -25 0 0
      vertex -25 3 40
      vertex -25 3 3
    endloop
  endfacet
  facet normal 0 -1 0
    outer loop
      vertex -25 0 0
      vertex -15 0 17.75
      vertex -16.59099025766973 0 18.40900974233027
    endloop
  endfacet
  facet normal 0 -1 0
    outer loop
      vertex -25 0 0
      vertex -16.59099025766973 0 18.40900974233027
      vertex -17.25 0 20
    endloop
  endfacet
  facet normal 0 1 0
    outer loop
      vertex -25 3 3
      vertex -17.994042992684403 3 17.347509367036817
      vertex -16.418419548170142 3 16.25993502925834
    endloop
  endfacet
  facet normal 0 1 0
    outer loop
      vertex -25 3 3
      vertex -18.883767269704208 3 19.04273734284977
      vertex -17.994042992684403 3 17.347509367036817
    endloop
  endfacet
  facet normal 0 1 0
    outer loop
      vertex -25 3 3
      vertex -18.883767269704208 3 20.95726265715023
      vertex -18.883767269704208 3 19.04273734284977
    endloop
  endfacet
  facet normal 0 -1 0
    outer loop
      vertex -25 0 0
      vertex -13.409009742330268 0 18.40900974233027
      vertex -15 0 17.75
    endloop
  endfacet
  facet normal 0 1 0
    outer loop
      vertex -25 3 3
      vertex -16.418419548170142 3 16.25993502925834
      vertex 25 3 3
    endloop
  endfacet
  facet normal 0 1 0
    outer loop
      vertex 25 3 3
      vertex -16.418419548170142 3 16.25993502925834
      vertex -14.51785327897871 3 16.029164503607785
    endloop
  endfacet
  facet normal 0 1 0
    outer loop
      vertex 25 3 3
      vertex -14.51785327897871 3 16.029164503607785
      vertex -12.727741013075375 3 16.708064536425375
    endloop
  endfacet
  facet normal 0 -1 0
    outer loop
      vertex -25 0 0
      vertex 25 0 40
      vertex -13.409009742330268 0 18.40900974233027
    endloop
  endfacet
  facet normal 0 -1 0
    outer loop
      vertex -25 0 0
      vertex -17.25 0 20
      vertex -25 0 40
    endloop
  endfacet
  facet normal 0 1 0
    outer loop
      vertex -25 3 3
      vertex -25 3 40
      vertex -18.883767269704208 3 20.95726265715023
    endloop
  endfacet
  facet normal -1 0 0
    outer loop
      vertex -25 0 0
      vertex -25 0 40
      vertex -25 3 40
    endloop
  endfacet
  facet normal 0 -1 0
    outer loop
      vertex -25 0 40
      vertex -17.25 0 20
      vertex -16.59099025766973 0 21.59099025766973
    endloop
  endfacet
  facet normal 0 -1 0
    outer loop
      vertex -25 0 40
      vertex -16.59099025766973 0 21.59099025766973
      vertex -15 0 22.25
    endloop
  endfacet
  facet normal 0 1 0
    outer loop
      vertex -25 3 40
      vertex -17.994042992684403 3 22.652490632963183
      vertex -18.883767269704208 3 20.95726265715023
    endloop
  endfacet
  facet normal 0 1 0
    outer loop
      vertex -25 3 40
      vertex -16.418419548170142 3 23.74006497074166
      vertex -17.994042992684403 3 22.652490632963183
    endloop
  endfacet
  facet normal 0 1 0
    outer loop
      vertex -25 3 40
      vertex -14.517853278978707 3 23.970835496392215
      vertex -16.418419548170142 3 23.74006497074166
    endloop
  endfacet
  facet normal 0 1 0
    outer loop
      vertex -25 3 40
      vertex -12.727741013075377 3 23.291935463574625
      vertex -14.517853278978707 3 23.970835496392215
    endloop
  endfacet
  facet normal 0 1 0
    outer loop
      vertex -25 3 40
      vertex -11.45817589738716 3 21.858892688175075
      vertex -12.727741013075377 3 23.291935463574625
    endloop
  endfacet
  facet normal 0 1 0
    outer loop
      vertex -25 3 40
      vertex 25 3 3
      vertex -11.45817589738716 3 21.858892688175075
    endloop
  endfacet
  facet normal 0 -1 0
    outer loop
      vertex 25 0 40
      vertex -12.75 0 20
      vertex -13.409009742330268 0 18.40900974233027
    endloop
  endfacet
  facet normal 0 -1 0
    outer loop
      vertex 25 0 40
      vertex -13.409009742330268 0 21.59099025766973
      vertex -12.75 0 20
    endloop
  endfacet
  facet normal 0 -1 0
    outer loop
      vertex 25 0 40
      vertex -15 0 22.25
      vertex -13.409009742330268 0 21.59099025766973
    endloop
  endfacet
  facet normal 0 1 0
    outer loop
      vertex -25 3 40
      vertex 11.116232730295792 3 19.04273734284977
      vertex 12.005957007315596 3 17.347509367036817
    endloop
  endfacet
  facet normal 0 1 0
    outer loop
      vertex -25 3 40
      vertex 11.116232730295792 3 20.95726265715023
      vertex 11.116232730295792 3 19.04273734284977
    endloop
  endfacet
  facet normal 0 1 0
    outer loop
      vertex -25 3 40
      vertex 12.005957007315596 3 22.652490632963183
      vertex 11.116232730295792 3 20.95726265715023
    endloop
  endfacet
  facet normal 0 0 1
    outer loop
      vertex -25 0 40
      vertex 25 0 40
      vertex -25 3 40
    endloop
  endfacet
  facet normal 0 -1 0
    outer loop
      vertex -25 0 40
      vertex -15 0 22.25
      vertex 25 0 40
    endloop
  endfacet
  facet normal 0 -1 0
    outer loop
      vertex -25 0 0
      vertex 25 0 3
      vertex 15 0 17.75
    endloop
  endfacet
  facet normal 0 -1 0
    outer loop
      vertex -25 0 0
      vertex 25 0 0
      vertex 25 0 3
    endloop
  endfacet
  facet normal 0 -1 0
    outer loop
      vertex -25 0 0
      vertex 15 0 17.75
      vertex 13.409009742330268 0 18.40900974233027
    endloop
  endfacet
  facet normal 0 -1 0
    outer loop
      vertex -25 0 0
      vertex 13.409009742330268 0 18.40900974233027
      vertex 12.75 0 20
    endloop
  endfacet
  facet normal 0 -1 0
    outer loop
      vertex -25 0 0
      vertex 12.75 0 20
      vertex 13.409009742330268 0 21.59099025766973
    endloop
  endfacet
  facet normal 0 1 0
    outer loop
      vertex 25 3 3
      vertex -12.727741013075375 3 16.708064536425375
      vertex -11.45817589738716 3 18.141107311824925
    endloop
  endfacet
  facet normal 0 1 0
    outer loop
      vertex 25 3 3
      vertex -11.45817589738716 3 18.141107311824925
      vertex -11 3 20
    endloop
  endfacet
  facet normal 0 1 0
    outer loop
      vertex 25 3 3
      vertex -11 3 20
      vertex -11.45817589738716 3 21.858892688175075
    endloop
  endfacet
  facet normal 0 1 0
    outer loop
      vertex -25 3 40
      vertex 13.581580451829858 3 16.25993502925834
      vertex 25 3 3
    endloop
  endfacet
  facet normal 1 0 0
    outer loop
      vertex 25 2.7906976744186047 2.7906976744186047
      vertex 25 2.775 3
      vertex 25 2.5813953488372094 3
    endloop
  endfacet
  facet normal 0 1 0
    outer loop
      vertex 25 3 3
      vertex 13.581580451829858 3 16.25993502925834
      vertex 15.48214672102129 3 16.029164503607785
    endloop
  endfacet
  facet normal 0 -1 0
    outer loop
      vertex 25 0 3
      vertex 16.59099025766973 0 18.40900974233027
      vertex 15 0 17.75
    endloop
  endfacet
  facet normal 0 -1 0
    outer loop
      vertex 25 0 3
      vertex 17.25 0 20
      vertex 16.59099025766973 0 18.40900974233027
    endloop
  endfacet
  facet normal 0 1 0
    outer loop
      vertex 25 3 3
      vertex 15.48214672102129 3 16.029164503607785
      vertex 17.272258986924626 3 16.708064536425375
    endloop
  endfacet
  facet normal 0 1 0
    outer loop
      vertex 25 3 3
      vertex 17.272258986924626 3 16.708064536425375
      vertex 18.54182410261284 3 18.141107311824925
    endloop
  endfacet
  facet normal 0 1 0
    outer loop
      vertex 25 3 3
      vertex 18.54182410261284 3 18.141107311824925
      vertex 19 3 20
    endloop
  endfacet
  facet normal 0 1 0
    outer loop
      vertex 25 3 3
      vertex 19 3 20
      vertex 18.54182410261284 3 21.858892688175075
    endloop
  endfacet
  facet normal 1 0 0
    outer loop
      vertex 25 0 3
      vertex 25 2.5813953488372094 3
      vertex 25 0 40
    endloop
  endfacet
  facet normal 1 0 0
    outer loop
      vertex 25 2.5813953488372094 3
      vertex 25 2.775 3
      vertex 25 0 40
    endloop
  endfacet
  facet normal 1 0 0
    outer loop
      vertex 25 2.775 3
      vertex 25 3 3
      vertex 25 3 40
    endloop
  endfacet
  facet normal 0 1 0
    outer loop
      vertex -25 3 40
      vertex 12.005957007315596 3 17.347509367036817
      vertex 13.581580451829858 3 16.25993502925834
    endloop
  endfacet
  facet normal 0 -1 0
    outer loop
      vertex -25 0 0
      vertex 13.409009742330268 0 21.59099025766973
      vertex 25 0 40
    endloop
  endfacet
  facet normal 0 1 0
    outer loop
      vertex -25 3 40
      vertex 13.581580451829858 3 23.74006497074166
      vertex 12.005957007315596 3 22.652490632963183
    endloop
  endfacet
  facet normal 0 1 0
    outer loop
      vertex -25 3 40
      vertex 15.482146721021293 3 23.970835496392215
      vertex 13.581580451829858 3 23.74006497074166
    endloop
  endfacet
  facet normal 0 1 0
    outer loop
      vertex -25 3 40
      vertex 25 3 40
      vertex 15.482146721021293 3 23.970835496392215
    endloop
  endfacet
  facet normal 0 0 1
    outer loop
      vertex -25 3 40
      vertex 25 0 40
      vertex 25 3 40
    endloop
  endfacet
  facet normal 0 -1 0
    outer loop
      vertex 25 0 40
      vertex 13.409009742330268 0 21.59099025766973
      vertex 15 0 22.25
    endloop
  endfacet
  facet normal 0 -1 0
    outer loop
      vertex 25 0 3
      vertex 25 0 40
      vertex 17.25 0 20
    endloop
  endfacet
  facet normal 0 1 0
    outer loop
      vertex 25 3 3
      vertex 18.54182410261284 3 21.858892688175075
      vertex 25 3 40
    endloop
  endfacet
  facet normal 0 -1 0
    outer loop
      vertex 25 0 40
      vertex 16.59099025766973 0 21.59099025766973
      vertex 17.25 0 20
    endloop
  endfacet
  facet normal 0 -1 0
    outer loop
      vertex 25 0 40
      vertex 15 0 22.25
      vertex 16.59099025766973 0 21.59099025766973
    endloop
  endfacet
  facet normal 0 1 0
    outer loop
      vertex 25 3 40
      vertex 18.54182410261284 3 21.858892688175075
      vertex 17.272258986924623 3 23.291935463574625
    endloop
  endfacet
  facet normal 0 1 0
    outer loop
      vertex 25 3 40
      vertex 17.272258986924623 3 23.291935463574625
      vertex 15.482146721021293 3 23.970835496392215
    endloop
  endfacet
  facet normal 1 0 0
    outer loop
      vertex 25 2.775 3
      vertex 25 3 40
      vertex 25 0 40
    endloop
  endfacet
  facet normal 0.3826834323650907 0.9238795325112863 0
    outer loop
      vertex -16.59099025766973 18.40900974233027 1
      vertex -15 17.75 0
      vertex -16.59099025766973 18.40900974233027 0
    endloop
  endfacet
  facet normal 0.9238795325112863 0.3826834323650907 0
    outer loop
      vertex -16.59099025766973 18.40900974233027 1
      vertex -16.59099025766973 18.40900974233027 0
      vertex -17.25 20 1
    endloop
  endfacet
  facet normal 0.9238795325112863 0.3826834323650907 0
    outer loop
      vertex -17.25 20 1
      vertex -16.59099025766973 18.40900974233027 0
      vertex -17.25 20 0
    endloop
  endfacet
  facet normal 0.3826834323650907 0.9238795325112863 0
    outer loop
      vertex -16.59099025766973 18.40900974233027 1
      vertex -15 17.75 1
      vertex -15 17.75 0
    endloop
  endfacet
  facet normal -0.3826834323650904 0.9238795325112865 0
    outer loop
      vertex -15 17.75 1
      vertex -13.409009742330268 18.40900974233027 0
      vertex -15 17.75 0
    endloop
  endfacet
  facet normal -0.3826834323650904 0.9238795325112865 0
    outer loop
      vertex -15 17.75 1
      vertex -13.409009742330268 18.40900974233027 1
      vertex -13.409009742330268 18.40900974233027 0
    endloop
  endfacet
  facet normal -0.9238795325112867 0.38268343236508984 0
    outer loop
      vertex -13.409009742330268 18.40900974233027 1
      vertex -12.75 20 0
      vertex -13.409009742330268 18.40900974233027 0
    endloop
  endfacet
  facet normal -0.9238795325112867 0.38268343236508984 0
    outer loop
      vertex -13.409009742330268 18.40900974233027 1
      vertex -12.75 20 1
      vertex -12.75 20 0
    endloop
  endfacet
  facet normal 0.9238795325112863 -0.3826834323650907 0
    outer loop
      vertex -17.25 20 1
      vertex -17.25 20 0
      vertex -16.59099025766973 21.59099025766973 1
    endloop
  endfacet
  facet normal 0.9238795325112863 -0.3826834323650907 0
    outer loop
      vertex -16.59099025766973 21.59099025766973 1
      vertex -17.25 20 0
      vertex -16.59099025766973 21.59099025766973 0
    endloop
  endfacet
  facet normal 0.3826834323650907 -0.9238795325112863 0
    outer loop
      vertex -16.59099025766973 21.59099025766973 1
      vertex -16.59099025766973 21.59099025766973 0
      vertex -15 22.25 1
    endloop
  endfacet
  facet normal 0.3826834323650907 -0.9238795325112863 0
    outer loop
      vertex -15 22.25 1
      vertex -16.59099025766973 21.59099025766973 0
      vertex -15 22.25 0
    endloop
  endfacet
  facet normal -0.3826834323650904 -0.9238795325112865 0
    outer loop
      vertex -15 22.25 1
      vertex -15 22.25 0
      vertex -13.409009742330268 21.59099025766973 1
    endloop
  endfacet
  facet normal -0.9238795325112867 -0.38268343236508984 0
    outer loop
      vertex -12.75 20 1
      vertex -13.409009742330268 21.59099025766973 0
      vertex -12.75 20 0
    endloop
  endfacet
  facet normal -0.9238795325112867 -0.38268343236508984 0
    outer loop
      vertex -12.75 20 1
      vertex -13.409009742330268 21.59099025766973 1
      vertex -13.409009742330268 21.59099025766973 0
    endloop
  endfacet
  facet normal -0.3826834323650904 -0.9238795325112865 0
    outer loop
      vertex -13.409009742330268 21.59099025766973 1
      vertex -15 22.25 0
      vertex -13.409009742330268 21.59099025766973 0
    endloop
  endfacet
  facet normal 1 0 0
    outer loop
      vertex -18.883767269704208 19.04273734284977 1
      vertex -18.883767269704208 20.95726265715023 3
      vertex -18.883767269704208 19.04273734284977 3
    endloop
  endfacet
  facet normal 0.5680647467311557 0.8229838658936565 0
    outer loop
      vertex -17.994042992684403 17.347509367036817 1
      vertex -17.994042992684403 17.347509367036817 3
      vertex -16.418419548170142 16.25993502925834 3
    endloop
  endfacet
  facet normal 0.12053668025532263 0.992708874098054 0
    outer loop
      vertex -16.418419548170142 16.25993502925834 1
      vertex -16.418419548170142 16.25993502925834 3
      vertex -14.51785327897871 16.029164503607785 3
    endloop
  endfacet
  facet normal 0 0 1
    outer loop
      vertex -17.994042992684403 17.347509367036817 1
      vertex -16.418419548170142 16.25993502925834 1
      vertex -16.59099025766973 18.40900974233027 1
    endloop
  endfacet
  facet normal 0 0 1
    outer loop
      vertex -16.418419548170142 16.25993502925834 1
      vertex -15 17.75 1
      vertex -16.59099025766973 18.40900974233027 1
    endloop
  endfacet
  facet normal 0.5680647467311557 0.8229838658936565 0
    outer loop
      vertex -17.994042992684403 17.347509367036817 1
      vertex -16.418419548170142 16.25993502925834 3
      vertex -16.418419548170142 16.25993502925834 1
    endloop
  endfacet
  facet normal 0 0 1
    outer loop
      vertex -17.994042992684403 17.347509367036817 1
      vertex -16.59099025766973 18.40900974233027 1
      vertex -17.25 20 1
    endloop
  endfacet
  facet normal 0.8854560256532097 0.46472317204376895 0
    outer loop
      vertex -17.994042992684403 17.347509367036817 1
      vertex -18.883767269704208 19.04273734284977 3
      vertex -17.994042992684403 17.347509367036817 3
    endloop
  endfacet
  facet normal 0.8854560256532097 0.46472317204376895 0
    outer loop
      vertex -17.994042992684403 17.347509367036817 1
      vertex -18.883767269704208 19.04273734284977 1
      vertex -18.883767269704208 19.04273734284977 3
    endloop
  endfacet
  facet normal 0 0 1
    outer loop
      vertex -17.994042992684403 17.347509367036817 1
      vertex -17.994042992684403 22.652490632963183 1
      vertex -18.883767269704208 19.04273734284977 1
    endloop
  endfacet
  facet normal 0.12053668025532263 0.992708874098054 0
    outer loop
      vertex -14.51785327897871 16.029164503607785 1
      vertex -16.418419548170142 16.25993502925834 1
      vertex -14.51785327897871 16.029164503607785 3
    endloop
  endfacet
  facet normal 0 0 1
    outer loop
      vertex -14.51785327897871 16.029164503607785 1
      vertex -15 17.75 1
      vertex -16.418419548170142 16.25993502925834 1
    endloop
  endfacet
  facet normal 0 0 1
    outer loop
      vertex -14.51785327897871 16.029164503607785 1
      vertex -12.727741013075375 16.708064536425375 1
      vertex -15 17.75 1
    endloop
  endfacet
  facet normal -0.35460488704253534 0.9350162426854148 0
    outer loop
      vertex -14.51785327897871 16.029164503607785 1
      vertex -12.727741013075375 16.708064536425375 3
      vertex -12.727741013075375 16.708064536425375 1
    endloop
  endfacet
  facet normal -0.35460488704253534 0.9350162426854148 0
    outer loop
      vertex -14.51785327897871 16.029164503607785 1
      vertex -14.51785327897871 16.029164503607785 3
      vertex -12.727741013075375 16.708064536425375 3
    endloop
  endfacet
  facet normal 0 0 1
    outer loop
      vertex -12.727741013075375 16.708064536425375 1
      vertex -13.409009742330268 18.40900974233027 1
      vertex -15 17.75 1
    endloop
  endfacet
  facet normal 0 0 1
    outer loop
      vertex -12.727741013075375 16.708064536425375 1
      vertex -12.75 20 1
      vertex -13.409009742330268 18.40900974233027 1
    endloop
  endfacet
  facet normal -0.7485107481711011 0.6631226582407952 0
    outer loop
      vertex -12.727741013075375 16.708064536425375 1
      vertex -12.727741013075375 16.708064536425375 3
      vertex -11.45817589738716 18.141107311824925 1
    endloop
  endfacet
  facet normal -0.7485107481711011 0.6631226582407952 0
    outer loop
      vertex -11.45817589738716 18.141107311824925 1
      vertex -12.727741013075375 16.708064536425375 3
      vertex -11.45817589738716 18.141107311824925 3
    endloop
  endfacet
  facet normal 0 0 1
    outer loop
      vertex -12.727741013075375 16.708064536425375 1
      vertex -11.45817589738716 18.141107311824925 1
      vertex -11.45817589738716 21.858892688175075 1
    endloop
  endfacet
  facet normal -0.970941817426052 0.23931566428755782 0
    outer loop
      vertex -11.45817589738716 18.141107311824925 1
      vertex -11.45817589738716 18.141107311824925 3
      vertex -11 20 1
    endloop
  endfacet
  facet normal -0.970941817426052 0.23931566428755782 0
    outer loop
      vertex -11 20 1
      vertex -11.45817589738716 18.141107311824925 3
      vertex -11 20 3
    endloop
  endfacet
  facet normal 1 0 0
    outer loop
      vertex -18.883767269704208 19.04273734284977 1
      vertex -18.883767269704208 20.95726265715023 1
      vertex -18.883767269704208 20.95726265715023 3
    endloop
  endfacet
  facet normal 0 0 1
    outer loop
      vertex -18.883767269704208 19.04273734284977 1
      vertex -17.994042992684403 22.652490632963183 1
      vertex -18.883767269704208 20.95726265715023 1
    endloop
  endfacet
  facet normal 0 0 1
    outer loop
      vertex -17.994042992684403 17.347509367036817 1
      vertex -17.25 20 1
      vertex -16.418419548170142 23.74006497074166 1
    endloop
  endfacet
  facet normal 0 0 1
    outer loop
      vertex -17.994042992684403 17.347509367036817 1
      vertex -16.418419548170142 23.74006497074166 1
      vertex -17.994042992684403 22.652490632963183 1
    endloop
  endfacet
  facet normal 0.8854560256532097 -0.46472317204376895 0
    outer loop
      vertex -18.883767269704208 20.95726265715023 1
      vertex -17.994042992684403 22.652490632963183 3
      vertex -18.883767269704208 20.95726265715023 3
    endloop
  endfacet
  facet normal 0.8854560256532097 -0.46472317204376895 0
    outer loop
      vertex -18.883767269704208 20.95726265715023 1
      vertex -17.994042992684403 22.652490632963183 1
      vertex -17.994042992684403 22.652490632963183 3
    endloop
  endfacet
  facet normal 0 0 1
    outer loop
      vertex -17.25 20 1
      vertex -16.59099025766973 21.59099025766973 1
      vertex -16.418419548170142 23.74006497074166 1
    endloop
  endfacet
  facet normal 0.5680647467311557 -0.8229838658936565 0
    outer loop
      vertex -17.994042992684403 22.652490632963183 1
      vertex -16.418419548170142 23.74006497074166 1
      vertex -17.994042992684403 22.652490632963183 3
    endloop
  endfacet
  facet normal 0 0 1
    outer loop
      vertex -16.59099025766973 21.59099025766973 1
      vertex -15 22.25 1
      vertex -16.418419548170142 23.74006497074166 1
    endloop
  endfacet
  facet normal 0.5680647467311557 -0.8229838658936565 0
    outer loop
      vertex -16.418419548170142 23.74006497074166 1
      vertex -16.418419548170142 23.74006497074166 3
      vertex -17.994042992684403 22.652490632963183 3
    endloop
  endfacet
  facet normal 0.1205366802553225 -0.992708874098054 0
    outer loop
      vertex -16.418419548170142 23.74006497074166 1
      vertex -14.517853278978707 23.970835496392215 1
      vertex -16.418419548170142 23.74006497074166 3
    endloop
  endfacet
  facet normal 0 0 1
    outer loop
      vertex -12.727741013075375 16.708064536425375 1
      vertex -12.727741013075377 23.291935463574625 1
      vertex -12.75 20 1
    endloop
  endfacet
  facet normal 0 0 1
    outer loop
      vertex -12.75 20 1
      vertex -12.727741013075377 23.291935463574625 1
      vertex -13.409009742330268 21.59099025766973 1
    endloop
  endfacet
  facet normal 0 0 1
    outer loop
      vertex -15 22.25 1
      vertex -14.517853278978707 23.970835496392215 1
      vertex -16.418419548170142 23.74006497074166 1
    endloop
  endfacet
  facet normal 0 0 1
    outer loop
      vertex -15 22.25 1
      vertex -13.409009742330268 21.59099025766973 1
      vertex -14.517853278978707 23.970835496392215 1
    endloop
  endfacet
  facet normal 0.1205366802553225 -0.992708874098054 0
    outer loop
      vertex -14.517853278978707 23.970835496392215 1
      vertex -14.517853278978707 23.970835496392215 3
      vertex -16.418419548170142 23.74006497074166 3
    endloop
  endfacet
  facet normal 0 0 1
    outer loop
      vertex -14.517853278978707 23.970835496392215 1
      vertex -13.409009742330268 21.59099025766973 1
      vertex -12.727741013075377 23.291935463574625 1
    endloop
  endfacet
  facet normal -0.354604887042536 -0.9350162426854147 0
    outer loop
      vertex -14.517853278978707 23.970835496392215 1
      vertex -12.727741013075377 23.291935463574625 1
      vertex -14.517853278978707 23.970835496392215 3
    endloop
  endfacet
  facet normal -0.354604887042536 -0.9350162426854147 0
    outer loop
      vertex -12.727741013075377 23.291935463574625 1
      vertex -12.727741013075377 23.291935463574625 3
      vertex -14.517853278978707 23.970835496392215 3
    endloop
  endfacet
  facet normal 0 0 1
    outer loop
      vertex -12.727741013075375 16.708064536425375 1
      vertex -11.45817589738716 21.858892688175075 1
      vertex -12.727741013075377 23.291935463574625 1
    endloop
  endfacet
  facet normal 0 0 1
    outer loop
      vertex -11.45817589738716 18.141107311824925 1
      vertex -11 20 1
      vertex -11.45817589738716 21.858892688175075 1
    endloop
  endfacet
  facet normal -0.970941817426052 -0.23931566428755782 0
    outer loop
      vertex -11 20 1
      vertex -11 20 3
      vertex -11.45817589738716 21.858892688175075 1
    endloop
  endfacet
  facet normal -0.970941817426052 -0.23931566428755782 0
    outer loop
      vertex -11.45817589738716 21.858892688175075 1
      vertex -11 20 3
      vertex -11.45817589738716 21.858892688175075 3
    endloop
  endfacet
  facet normal -0.7485107481711006 -0.6631226582407957 0
    outer loop
      vertex -12.727741013075377 23.291935463574625 1
      vertex -11.45817589738716 21.858892688175075 1
      vertex -11.45817589738716 21.858892688175075 3
    endloop
  endfacet
  facet normal -0.7485107481711006 -0.6631226582407957 0
    outer loop
      vertex -12.727741013075377 23.291935463574625 1
      vertex -11.45817589738716 21.858892688175075 3
      vertex -12.727741013075377 23.291935463574625 3
    endloop
  endfacet
  facet normal 0.3826834323650904 0.9238795325112865 0
    outer loop
      vertex 13.409009742330268 18.40900974233027 1
      vertex 15 17.75 0
      vertex 13.409009742330268 18.40900974233027 0
    endloop
  endfacet
  facet normal 0.9238795325112867 0.38268343236508984 0
    outer loop
      vertex 13.409009742330268 18.40900974233027 1
      vertex 13.409009742330268 18.40900974233027 0
      vertex 12.75 20 1
    endloop
  endfacet
  facet normal 0.9238795325112867 0.38268343236508984 0
    outer loop
      vertex 12.75 20 1
      vertex 13.409009742330268 18.40900974233027 0
      vertex 12.75 20 0
    endloop
  endfacet
  facet normal 0.3826834323650904 0.9238795325112865 0
    outer loop
      vertex 13.409009742330268 18.40900974233027 1
      vertex 15 17.75 1
      vertex 15 17.75 0
    endloop
  endfacet
  facet normal -0.3826834323650907 0.9238795325112863 0
    outer loop
      vertex 15 17.75 1
      vertex 16.59099025766973 18.40900974233027 0
      vertex 15 17.75 0
    endloop
  endfacet
  facet normal -0.3826834323650907 0.9238795325112863 0
    outer loop
      vertex 15 17.75 1
      vertex 16.59099025766973 18.40900974233027 1
      vertex 16.59099025766973 18.40900974233027 0
    endloop
  endfacet
  facet normal -0.9238795325112863 0.3826834323650907 0
    outer loop
      vertex 16.59099025766973 18.40900974233027 1
      vertex 17.25 20 0
      vertex 16.59099025766973 18.40900974233027 0
    endloop
  endfacet
  facet normal -0.9238795325112863 0.3826834323650907 0
    outer loop
      vertex 16.59099025766973 18.40900974233027 1
      vertex 17.25 20 1
      vertex 17.25 20 0
    endloop
  endfacet
  facet normal 0.9238795325112867 -0.38268343236508984 0
    outer loop
      vertex 12.75 20 1
      vertex 12.75 20 0
      vertex 13.409009742330268 21.59099025766973 1
    endloop
  endfacet
  facet normal 0.9238795325112867 -0.38268343236508984 0
    outer loop
      vertex 13.409009742330268 21.59099025766973 1
      vertex 12.75 20 0
      vertex 13.409009742330268 21.59099025766973 0
    endloop
  endfacet
  facet normal 0.3826834323650904 -0.9238795325112865 0
    outer loop
      vertex 13.409009742330268 21.59099025766973 1
      vertex 13.409009742330268 21.59099025766973 0
      vertex 15 22.25 1
    endloop
  endfacet
  facet normal 0.3826834323650904 -0.9238795325112865 0
    outer loop
      vertex 15 22.25 1
      vertex 13.409009742330268 21.59099025766973 0
      vertex 15 22.25 0
    endloop
  endfacet
  facet normal -0.3826834323650907 -0.9238795325112863 0
    outer loop
      vertex 15 22.25 1
      vertex 15 22.25 0
      vertex 16.59099025766973 21.59099025766973 1
    endloop
  endfacet
  facet normal -0.9238795325112863 -0.3826834323650907 0
    outer loop
      vertex 17.25 20 1
      vertex 16.59099025766973 21.59099025766973 0
      vertex 17.25 20 0
    endloop
  endfacet
  facet normal -0.9238795325112863 -0.3826834323650907 0
    outer loop
      vertex 17.25 20 1
      vertex 16.59099025766973 21.59099025766973 1
      vertex 16.59099025766973 21.59099025766973 0
    endloop
  endfacet
  facet normal -0.3826834323650907 -0.9238795325112863 0
    outer loop
      vertex 16.59099025766973 21.59099025766973 1
      vertex 15 22.25 0
      vertex 16.59099025766973 21.59099025766973 0
    endloop
  endfacet
  facet normal 0.88545602565321 0.4647231720437682 0
    outer loop
      vertex 12.005957007315596 17.347509367036817 1
      vertex 11.116232730295792 19.04273734284977 3
      vertex 12.005957007315596 17.347509367036817 3
    endloop
  endfacet
  facet normal 0.88545602565321 0.4647231720437682 0
    outer loop
      vertex 12.005957007315596 17.347509367036817 1
      vertex 11.116232730295792 19.04273734284977 1
      vertex 11.116232730295792 19.04273734284977 3
    endloop
  endfacet
  facet normal 0 0 1
    outer loop
      vertex 12.005957007315596 17.347509367036817 1
      vertex 12.005957007315596 22.652490632963183 1
      vertex 11.116232730295792 19.04273734284977 1
    endloop
  endfacet
  facet normal 1 0 0
    outer loop
      vertex 11.116232730295792 19.04273734284977 1
      vertex 11.116232730295792 20.95726265715023 3
      vertex 11.116232730295792 19.04273734284977 3
    endloop
  endfacet
  facet normal 0 0 1
    outer loop
      vertex 12.005957007315596 17.347509367036817 1
      vertex 13.581580451829858 16.25993502925834 1
      vertex 15 17.75 1
    endloop
  endfacet
  facet normal 0.5680647467311554 0.8229838658936568 0
    outer loop
      vertex 12.005957007315596 17.347509367036817 1
      vertex 13.581580451829858 16.25993502925834 3
      vertex 13.581580451829858 16.25993502925834 1
    endloop
  endfacet
  facet normal 0.5680647467311554 0.8229838658936568 0
    outer loop
      vertex 12.005957007315596 17.347509367036817 1
      vertex 12.005957007315596 17.347509367036817 3
      vertex 13.581580451829858 16.25993502925834 3
    endloop
  endfacet
  facet normal 0.12053668025532263 0.992708874098054 0
    outer loop
      vertex 13.581580451829858 16.25993502925834 1
      vertex 13.581580451829858 16.25993502925834 3
      vertex 15.48214672102129 16.029164503607785 3
    endloop
  endfacet
  facet normal 0.12053668025532263 0.992708874098054 0
    outer loop
      vertex 13.581580451829858 16.25993502925834 1
      vertex 15.48214672102129 16.029164503607785 3
      vertex 15.48214672102129 16.029164503607785 1
    endloop
  endfacet
  facet normal 0 0 1
    outer loop
      vertex 13.581580451829858 16.25993502925834 1
      vertex 15.48214672102129 16.029164503607785 1
      vertex 15 17.75 1
    endloop
  endfacet
  facet normal 0 0 1
    outer loop
      vertex 12.005957007315596 17.347509367036817 1
      vertex 13.409009742330268 18.40900974233027 1
      vertex 12.75 20 1
    endloop
  endfacet
  facet normal 0 0 1
    outer loop
      vertex 12.005957007315596 17.347509367036817 1
      vertex 15 17.75 1
      vertex 13.409009742330268 18.40900974233027 1
    endloop
  endfacet
  facet normal 0 0 1
    outer loop
      vertex 15.48214672102129 16.029164503607785 1
      vertex 16.59099025766973 18.40900974233027 1
      vertex 15 17.75 1
    endloop
  endfacet
  facet normal 0 0 1
    outer loop
      vertex 15.48214672102129 16.029164503607785 1
      vertex 17.272258986924626 16.708064536425375 1
      vertex 16.59099025766973 18.40900974233027 1
    endloop
  endfacet
  facet normal -0.35460488704253507 0.935016242685415 0
    outer loop
      vertex 15.48214672102129 16.029164503607785 1
      vertex 15.48214672102129 16.029164503607785 3
      vertex 17.272258986924626 16.708064536425375 3
    endloop
  endfacet
  facet normal -0.35460488704253507 0.935016242685415 0
    outer loop
      vertex 15.48214672102129 16.029164503607785 1
      vertex 17.272258986924626 16.708064536425375 3
      vertex 17.272258986924626 16.708064536425375 1
    endloop
  endfacet
  facet normal -0.7485107481711015 0.6631226582407946 0
    outer loop
      vertex 17.272258986924626 16.708064536425375 1
      vertex 17.272258986924626 16.708064536425375 3
      vertex 18.54182410261284 18.141107311824925 1
    endloop
  endfacet
  facet normal 0 0 1
    outer loop
      vertex 17.272258986924626 16.708064536425375 1
      vertex 17.25 20 1
      vertex 16.59099025766973 18.40900974233027 1
    endloop
  endfacet
  facet normal -0.7485107481711015 0.6631226582407946 0
    outer loop
      vertex 18.54182410261284 18.141107311824925 1
      vertex 17.272258986924626 16.708064536425375 3
      vertex 18.54182410261284 18.141107311824925 3
    endloop
  endfacet
  facet normal 0 0 1
    outer loop
      vertex 17.272258986924626 16.708064536425375 1
      vertex 18.54182410261284 18.141107311824925 1
      vertex 18.54182410261284 21.858892688175075 1
    endloop
  endfacet
  facet normal -0.970941817426052 0.23931566428755782 0
    outer loop
      vertex 18.54182410261284 18.141107311824925 1
      vertex 18.54182410261284 18.141107311824925 3
      vertex 19 20 1
    endloop
  endfacet
  facet normal -0.970941817426052 0.23931566428755782 0
    outer loop
      vertex 19 20 1
      vertex 18.54182410261284 18.141107311824925 3
      vertex 19 20 3
    endloop
  endfacet
  facet normal 0 0 1
    outer loop
      vertex 11.116232730295792 19.04273734284977 1
      vertex 12.005957007315596 22.652490632963183 1
      vertex 11.116232730295792 20.95726265715023 1
    endloop
  endfacet
  facet normal 1 0 0
    outer loop
      vertex 11.116232730295792 19.04273734284977 1
      vertex 11.116232730295792 20.95726265715023 1
      vertex 11.116232730295792 20.95726265715023 3
    endloop
  endfacet
  facet normal 0.88545602565321 -0.4647231720437682 0
    outer loop
      vertex 11.116232730295792 20.95726265715023 1
      vertex 12.005957007315596 22.652490632963183 3
      vertex 11.116232730295792 20.95726265715023 3
    endloop
  endfacet
  facet normal 0.88545602565321 -0.4647231720437682 0
    outer loop
      vertex 11.116232730295792 20.95726265715023 1
      vertex 12.005957007315596 22.652490632963183 1
      vertex 12.005957007315596 22.652490632963183 3
    endloop
  endfacet
  facet normal 0 0 1
    outer loop
      vertex 12.005957007315596 17.347509367036817 1
      vertex 12.75 20 1
      vertex 13.581580451829858 23.74006497074166 1
    endloop
  endfacet
  facet normal 0 0 1
    outer loop
      vertex 12.005957007315596 17.347509367036817 1
      vertex 13.581580451829858 23.74006497074166 1
      vertex 12.005957007315596 22.652490632963183 1
    endloop
  endfacet
  facet normal 0 0 1
    outer loop
      vertex 12.75 20 1
      vertex 13.409009742330268 21.59099025766973 1
      vertex 13.581580451829858 23.74006497074166 1
    endloop
  endfacet
  facet normal 0 0 1
    outer loop
      vertex 13.409009742330268 21.59099025766973 1
      vertex 15 22.25 1
      vertex 13.581580451829858 23.74006497074166 1
    endloop
  endfacet
  facet normal 0.5680647467311554 -0.8229838658936568 0
    outer loop
      vertex 12.005957007315596 22.652490632963183 1
      vertex 13.581580451829858 23.74006497074166 1
      vertex 12.005957007315596 22.652490632963183 3
    endloop
  endfacet
  facet normal 0.5680647467311554 -0.8229838658936568 0
    outer loop
      vertex 13.581580451829858 23.74006497074166 1
      vertex 13.581580451829858 23.74006497074166 3
      vertex 12.005957007315596 22.652490632963183 3
    endloop
  endfacet
  facet normal 0 0 1
    outer loop
      vertex 13.581580451829858 23.74006497074166 1
      vertex 15 22.25 1
      vertex 15.482146721021293 23.970835496392215 1
    endloop
  endfacet
  facet normal 0.1205366802553225 -0.992708874098054 0
    outer loop
      vertex 13.581580451829858 23.74006497074166 1
      vertex 15.482146721021293 23.970835496392215 1
      vertex 13.581580451829858 23.74006497074166 3
    endloop
  endfacet
  facet normal 0.1205366802553225 -0.992708874098054 0
    outer loop
      vertex 15.482146721021293 23.970835496392215 1
      vertex 15.482146721021293 23.970835496392215 3
      vertex 13.581580451829858 23.74006497074166 3
    endloop
  endfacet
  facet normal 0 0 1
    outer loop
      vertex 15 22.25 1
      vertex 16.59099025766973 21.59099025766973 1
      vertex 17.272258986924623 23.291935463574625 1
    endloop
  endfacet
  facet normal 0 0 1
    outer loop
      vertex 17.25 20 1
      vertex 17.272258986924623 23.291935463574625 1
      vertex 16.59099025766973 21.59099025766973 1
    endloop
  endfacet
  facet normal 0 0 1
    outer loop
      vertex 17.272258986924626 16.708064536425375 1
      vertex 17.272258986924623 23.291935463574625 1
      vertex 17.25 20 1
    endloop
  endfacet
  facet normal 0 0 1
    outer loop
      vertex 17.272258986924626 16.708064536425375 1
      vertex 18.54182410261284 21.858892688175075 1
      vertex 17.272258986924623 23.291935463574625 1
    endloop
  endfacet
  facet normal 0 0 1
    outer loop
      vertex 18.54182410261284 18.141107311824925 1
      vertex 19 20 1
      vertex 18.54182410261284 21.858892688175075 1
    endloop
  endfacet
  facet normal -0.970941817426052 -0.23931566428755782 0
    outer loop
      vertex 18.54182410261284 21.858892688175075 1
      vertex 19 20 3
      vertex 18.54182410261284 21.858892688175075 3
    endloop
  endfacet
  facet normal -0.7485107481711006 -0.6631226582407957 0
    outer loop
      vertex 18.54182410261284 21.858892688175075 1
      vertex 18.54182410261284 21.858892688175075 3
      vertex 17.272258986924623 23.291935463574625 1
    endloop
  endfacet
  facet normal 0 0 1
    outer loop
      vertex 15 22.25 1
      vertex 17.272258986924623 23.291935463574625 1
      vertex 15.482146721021293 23.970835496392215 1
    endloop
  endfacet
  facet normal -0.354604887042536 -0.9350162426854147 0
    outer loop
      vertex 15.482146721021293 23.970835496392215 1
      vertex 17.272258986924623 23.291935463574625 1
      vertex 15.482146721021293 23.970835496392215 3
    endloop
  endfacet
  facet normal -0.354604887042536 -0.9350162426854147 0
    outer loop
      vertex 17.272258986924623 23.291935463574625 1
      vertex 17.272258986924623 23.291935463574625 3
      vertex 15.482146721021293 23.970835496392215 3
    endloop
  endfacet
  facet normal -0.7485107481711006 -0.6631226582407957 0
    outer loop
      vertex 17.272258986924623 23.291935463574625 1
      vertex 18.54182410261284 21.858892688175075 3
      vertex 17.272258986924623 23.291935463574625 3
    endloop
  endfacet
  facet normal -0.970941817426052 -0.23931566428755782 0
    outer loop
      vertex 19 20 1
      vertex 19 20 3
      vertex 18.54182410261284 21.858892688175075 1
    endloop
  endfacet
  facet normal 0.3826834323650907 0 0.9238795325112863
    outer loop
      vertex -16.59099025766973 1 18.40900974233027
      vertex -16.59099025766973 0 18.40900974233027
      vertex -15 1 17.75
    endloop
  endfacet
  facet normal 0.9238795325112863 0 0.3826834323650907
    outer loop
      vertex -16.59099025766973 1 18.40900974233027
      vertex -17.25 0 20
      vertex -16.59099025766973 0 18.40900974233027
    endloop
  endfacet
  facet normal 0.9238795325112863 0 0.3826834323650907
    outer loop
      vertex -16.59099025766973 1 18.40900974233027
      vertex -17.25 1 20
      vertex -17.25 0 20
    endloop
  endfacet
  facet normal 0.3826834323650907 0 0.9238795325112863
    outer loop
      vertex -15 1 17.75
      vertex -16.59099025766973 0 18.40900974233027
      vertex -15 0 17.75
    endloop
  endfacet
  facet normal -0.3826834323650904 0 0.9238795325112865
    outer loop
      vertex -15 1 17.75
      vertex -15 0 17.75
      vertex -13.409009742330268 1 18.40900974233027
    endloop
  endfacet
  facet normal -0.3826834323650904 0 0.9238795325112865
    outer loop
      vertex -13.409009742330268 1 18.40900974233027
      vertex -15 0 17.75
      vertex -13.409009742330268 0 18.40900974233027
    endloop
  endfacet
  facet normal -0.9238795325112867 0 0.38268343236508984
    outer loop
      vertex -12.75 1 20
      vertex -13.409009742330268 0 18.40900974233027
      vertex -12.75 0 20
    endloop
  endfacet
  facet normal -0.9238795325112867 0 0.38268343236508984
    outer loop
      vertex -13.409009742330268 1 18.40900974233027
      vertex -13.409009742330268 0 18.40900974233027
      vertex -12.75 1 20
    endloop
  endfacet
  facet normal 0.9238795325112863 0 -0.3826834323650907
    outer loop
      vertex -17.25 1 20
      vertex -16.59099025766973 0 21.59099025766973
      vertex -17.25 0 20
    endloop
  endfacet
  facet normal 0.9238795325112863 0 -0.3826834323650907
    outer loop
      vertex -17.25 1 20
      vertex -16.59099025766973 1 21.59099025766973
      vertex -16.59099025766973 0 21.59099025766973
    endloop
  endfacet
  facet normal 0.3826834323650907 0 -0.9238795325112863
    outer loop
      vertex -16.59099025766973 1 21.59099025766973
      vertex -15 0 22.25
      vertex -16.59099025766973 0 21.59099025766973
    endloop
  endfacet
  facet normal 0.3826834323650907 0 -0.9238795325112863
    outer loop
      vertex -16.59099025766973 1 21.59099025766973
      vertex -15 1 22.25
      vertex -15 0 22.25
    endloop
  endfacet
  facet normal -0.3826834323650904 0 -0.9238795325112865
    outer loop
      vertex -15 1 22.25
      vertex -13.409009742330268 0 21.59099025766973
      vertex -15 0 22.25
    endloop
  endfacet
  facet normal -0.9238795325112867 0 -0.38268343236508984
    outer loop
      vertex -13.409009742330268 1 21.59099025766973
      vertex -12.75 0 20
      vertex -13.409009742330268 0 21.59099025766973
    endloop
  endfacet
  facet normal -0.9238795325112867 0 -0.38268343236508984
    outer loop
      vertex -12.75 1 20
      vertex -12.75 0 20
      vertex -13.409009742330268 1 21.59099025766973
    endloop
  endfacet
  facet normal -0.3826834323650904 0 -0.9238795325112865
    outer loop
      vertex -15 1 22.25
      vertex -13.409009742330268 1 21.59099025766973
      vertex -13.409009742330268 0 21.59099025766973
    endloop
  endfacet
  facet normal 1 0 0
    outer loop
      vertex -18.883767269704208 1 19.04273734284977
      vertex -18.883767269704208 3 19.04273734284977
      vertex -18.883767269704208 3 20.95726265715023
    endloop
  endfacet
  facet normal 0.5680647467311557 0 0.8229838658936565
    outer loop
      vertex -17.994042992684403 1 17.347509367036817
      vertex -16.418419548170142 3 16.25993502925834
      vertex -17.994042992684403 3 17.347509367036817
    endloop
  endfacet
  facet normal 0 1 0
    outer loop
      vertex -17.994042992684403 1 17.347509367036817
      vertex -12.727741013075375 1 16.708064536425375
      vertex -16.418419548170142 1 16.25993502925834
    endloop
  endfacet
  facet normal 0.12053668025532263 0 0.992708874098054
    outer loop
      vertex -16.418419548170142 1 16.25993502925834
      vertex -14.51785327897871 3 16.029164503607785
      vertex -16.418419548170142 3 16.25993502925834
    endloop
  endfacet
  facet normal 0.5680647467311557 0 0.8229838658936565
    outer loop
      vertex -17.994042992684403 1 17.347509367036817
      vertex -16.418419548170142 1 16.25993502925834
      vertex -16.418419548170142 3 16.25993502925834
    endloop
  endfacet
  facet normal 0 1 0
    outer loop
      vertex -17.994042992684403 1 17.347509367036817
      vertex -18.883767269704208 1 19.04273734284977
      vertex -16.59099025766973 1 18.40900974233027
    endloop
  endfacet
  facet normal 0 1 0
    outer loop
      vertex -18.883767269704208 1 19.04273734284977
      vertex -17.25 1 20
      vertex -16.59099025766973 1 18.40900974233027
    endloop
  endfacet
  facet normal 0.8854560256532097 0 0.46472317204376895
    outer loop
      vertex -17.994042992684403 1 17.347509367036817
      vertex -18.883767269704208 3 19.04273734284977
      vertex -18.883767269704208 1 19.04273734284977
    endloop
  endfacet
  facet normal 0.8854560256532097 0 0.46472317204376895
    outer loop
      vertex -17.994042992684403 1 17.347509367036817
      vertex -17.994042992684403 3 17.347509367036817
      vertex -18.883767269704208 3 19.04273734284977
    endloop
  endfacet
  facet normal 0 1 0
    outer loop
      vertex -17.994042992684403 1 17.347509367036817
      vertex -16.59099025766973 1 18.40900974233027
      vertex -15 1 17.75
    endloop
  endfacet
  facet normal 0 1 0
    outer loop
      vertex -14.51785327897871 1 16.029164503607785
      vertex -16.418419548170142 1 16.25993502925834
      vertex -12.727741013075375 1 16.708064536425375
    endloop
  endfacet
  facet normal 0.12053668025532263 0 0.992708874098054
    outer loop
      vertex -14.51785327897871 1 16.029164503607785
      vertex -14.51785327897871 3 16.029164503607785
      vertex -16.418419548170142 1 16.25993502925834
    endloop
  endfacet
  facet normal 0 1 0
    outer loop
      vertex -17.994042992684403 1 17.347509367036817
      vertex -11.45817589738716 1 18.141107311824925
      vertex -12.727741013075375 1 16.708064536425375
    endloop
  endfacet
  facet normal -0.35460488704253534 0 0.9350162426854148
    outer loop
      vertex -14.51785327897871 1 16.029164503607785
      vertex -12.727741013075375 1 16.708064536425375
      vertex -12.727741013075375 3 16.708064536425375
    endloop
  endfacet
  facet normal -0.35460488704253534 0 0.9350162426854148
    outer loop
      vertex -14.51785327897871 1 16.029164503607785
      vertex -12.727741013075375 3 16.708064536425375
      vertex -14.51785327897871 3 16.029164503607785
    endloop
  endfacet
  facet normal 0 1 0
    outer loop
      vertex -17.994042992684403 1 17.347509367036817
      vertex -15 1 17.75
      vertex -11.45817589738716 1 18.141107311824925
    endloop
  endfacet
  facet normal 0 1 0
    outer loop
      vertex -15 1 17.75
      vertex -13.409009742330268 1 18.40900974233027
      vertex -11.45817589738716 1 18.141107311824925
    endloop
  endfacet
  facet normal 0 1 0
    outer loop
      vertex -13.409009742330268 1 18.40900974233027
      vertex -12.75 1 20
      vertex -11.45817589738716 1 18.141107311824925
    endloop
  endfacet
  facet normal -0.7485107481711011 0 0.6631226582407952
    outer loop
      vertex -12.727741013075375 1 16.708064536425375
      vertex -11.45817589738716 1 18.141107311824925
      vertex -12.727741013075375 3 16.708064536425375
    endloop
  endfacet
  facet normal 0 1 0
    outer loop
      vertex -12.75 1 20
      vertex -11 1 20
      vertex -11.45817589738716 1 18.141107311824925
    endloop
  endfacet
  facet normal -0.7485107481711011 0 0.6631226582407952
    outer loop
      vertex -11.45817589738716 1 18.141107311824925
      vertex -11.45817589738716 3 18.141107311824925
      vertex -12.727741013075375 3 16.708064536425375
    endloop
  endfacet
  facet normal -0.970941817426052 0 0.23931566428755782
    outer loop
      vertex -11.45817589738716 1 18.141107311824925
      vertex -11 1 20
      vertex -11.45817589738716 3 18.141107311824925
    endloop
  endfacet
  facet normal -0.970941817426052 0 0.23931566428755782
    outer loop
      vertex -11 1 20
      vertex -11 3 20
      vertex -11.45817589738716 3 18.141107311824925
    endloop
  endfacet
  facet normal 1 0 0
    outer loop
      vertex -18.883767269704208 1 19.04273734284977
      vertex -18.883767269704208 3 20.95726265715023
      vertex -18.883767269704208 1 20.95726265715023
    endloop
  endfacet
  facet normal 0 1 0
    outer loop
      vertex -18.883767269704208 1 19.04273734284977
      vertex -18.883767269704208 1 20.95726265715023
      vertex -17.25 1 20
    endloop
  endfacet
  facet normal 0 1 0
    outer loop
      vertex -17.25 1 20
      vertex -18.883767269704208 1 20.95726265715023
      vertex -17.994042992684403 1 22.652490632963183
    endloop
  endfacet
  facet normal 0 1 0
    outer loop
      vertex -17.25 1 20
      vertex -17.994042992684403 1 22.652490632963183
      vertex -16.59099025766973 1 21.59099025766973
    endloop
  endfacet
  facet normal 0.8854560256532097 0 -0.46472317204376895
    outer loop
      vertex -18.883767269704208 1 20.95726265715023
      vertex -17.994042992684403 3 22.652490632963183
      vertex -17.994042992684403 1 22.652490632963183
    endloop
  endfacet
  facet normal 0.8854560256532097 0 -0.46472317204376895
    outer loop
      vertex -18.883767269704208 1 20.95726265715023
      vertex -18.883767269704208 3 20.95726265715023
      vertex -17.994042992684403 3 22.652490632963183
    endloop
  endfacet
  facet normal 0 1 0
    outer loop
      vertex -16.59099025766973 1 21.59099025766973
      vertex -17.994042992684403 1 22.652490632963183
      vertex -15 1 22.25
    endloop
  endfacet
  facet normal 0.5680647467311557 0 -0.8229838658936565
    outer loop
      vertex -17.994042992684403 1 22.652490632963183
      vertex -17.994042992684403 3 22.652490632963183
      vertex -16.418419548170142 1 23.74006497074166
    endloop
  endfacet
  facet normal 0 1 0
    outer loop
      vertex -17.994042992684403 1 22.652490632963183
      vertex -16.418419548170142 1 23.74006497074166
      vertex -12.727741013075377 1 23.291935463574625
    endloop
  endfacet
  facet normal 0.5680647467311557 0 -0.8229838658936565
    outer loop
      vertex -16.418419548170142 1 23.74006497074166
      vertex -17.994042992684403 3 22.652490632963183
      vertex -16.418419548170142 3 23.74006497074166
    endloop
  endfacet
  facet normal 0.1205366802553225 0 -0.992708874098054
    outer loop
      vertex -16.418419548170142 1 23.74006497074166
      vertex -16.418419548170142 3 23.74006497074166
      vertex -14.517853278978707 1 23.970835496392215
    endloop
  endfacet
  facet normal 0 1 0
    outer loop
      vertex -17.994042992684403 1 22.652490632963183
      vertex -11.45817589738716 1 21.858892688175075
      vertex -15 1 22.25
    endloop
  endfacet
  facet normal 0 1 0
    outer loop
      vertex -15 1 22.25
      vertex -11.45817589738716 1 21.858892688175075
      vertex -13.409009742330268 1 21.59099025766973
    endloop
  endfacet
  facet normal 0 1 0
    outer loop
      vertex -16.418419548170142 1 23.74006497074166
      vertex -14.517853278978707 1 23.970835496392215
      vertex -12.727741013075377 1 23.291935463574625
    endloop
  endfacet
  facet normal 0.1205366802553225 0 -0.992708874098054
    outer loop
      vertex -14.517853278978707 1 23.970835496392215
      vertex -16.418419548170142 3 23.74006497074166
      vertex -14.517853278978707 3 23.970835496392215
    endloop
  endfacet
  facet normal 0 1 0
    outer loop
      vertex -17.994042992684403 1 22.652490632963183
      vertex -12.727741013075377 1 23.291935463574625
      vertex -11.45817589738716 1 21.858892688175075
    endloop
  endfacet
  facet normal -0.354604887042536 0 -0.9350162426854147
    outer loop
      vertex -14.517853278978707 1 23.970835496392215
      vertex -14.517853278978707 3 23.970835496392215
      vertex -12.727741013075377 1 23.291935463574625
    endloop
  endfacet
  facet normal -0.354604887042536 0 -0.9350162426854147
    outer loop
      vertex -12.727741013075377 1 23.291935463574625
      vertex -14.517853278978707 3 23.970835496392215
      vertex -12.727741013075377 3 23.291935463574625
    endloop
  endfacet
  facet normal 0 1 0
    outer loop
      vertex -12.75 1 20
      vertex -13.409009742330268 1 21.59099025766973
      vertex -11 1 20
    endloop
  endfacet
  facet normal 0 1 0
    outer loop
      vertex -11 1 20
      vertex -13.409009742330268 1 21.59099025766973
      vertex -11.45817589738716 1 21.858892688175075
    endloop
  endfacet
  facet normal -0.970941817426052 0 -0.23931566428755782
    outer loop
      vertex -11 1 20
      vertex -11.45817589738716 1 21.858892688175075
      vertex -11 3 20
    endloop
  endfacet
  facet normal -0.970941817426052 0 -0.23931566428755782
    outer loop
      vertex -11.45817589738716 1 21.858892688175075
      vertex -11.45817589738716 3 21.858892688175075
      vertex -11 3 20
    endloop
  endfacet
  facet normal -0.7485107481711006 0 -0.6631226582407957
    outer loop
      vertex -12.727741013075377 1 23.291935463574625
      vertex -11.45817589738716 3 21.858892688175075
      vertex -11.45817589738716 1 21.858892688175075
    endloop
  endfacet
  facet normal -0.7485107481711006 0 -0.6631226582407957
    outer loop
      vertex -12.727741013075377 1 23.291935463574625
      vertex -12.727741013075377 3 23.291935463574625
      vertex -11.45817589738716 3 21.858892688175075
    endloop
  endfacet
  facet normal 0.3826834323650904 0 0.9238795325112865
    outer loop
      vertex 13.409009742330268 1 18.40900974233027
      vertex 13.409009742330268 0 18.40900974233027
      vertex 15 1 17.75
    endloop
  endfacet
  facet normal 0.9238795325112867 0 0.38268343236508984
    outer loop
      vertex 13.409009742330268 1 18.40900974233027
      vertex 12.75 0 20
      vertex 13.409009742330268 0 18.40900974233027
    endloop
  endfacet
  facet normal 0.9238795325112867 0 0.38268343236508984
    outer loop
      vertex 13.409009742330268 1 18.40900974233027
      vertex 12.75 1 20
      vertex 12.75 0 20
    endloop
  endfacet
  facet normal 0.3826834323650904 0 0.9238795325112865
    outer loop
      vertex 15 1 17.75
      vertex 13.409009742330268 0 18.40900974233027
      vertex 15 0 17.75
    endloop
  endfacet
  facet normal -0.3826834323650907 0 0.9238795325112863
    outer loop
      vertex 15 1 17.75
      vertex 15 0 17.75
      vertex 16.59099025766973 1 18.40900974233027
    endloop
  endfacet
  facet normal -0.3826834323650907 0 0.9238795325112863
    outer loop
      vertex 16.59099025766973 1 18.40900974233027
      vertex 15 0 17.75
      vertex 16.59099025766973 0 18.40900974233027
    endloop
  endfacet
  facet normal -0.9238795325112863 0 0.3826834323650907
    outer loop
      vertex 17.25 1 20
      vertex 16.59099025766973 0 18.40900974233027
      vertex 17.25 0 20
    endloop
  endfacet
  facet normal -0.9238795325112863 0 0.3826834323650907
    outer loop
      vertex 16.59099025766973 1 18.40900974233027
      vertex 16.59099025766973 0 18.40900974233027
      vertex 17.25 1 20
    endloop
  endfacet
  facet normal 0.9238795325112867 0 -0.38268343236508984
    outer loop
      vertex 12.75 1 20
      vertex 13.409009742330268 0 21.59099025766973
      vertex 12.75 0 20
    endloop
  endfacet
  facet normal 0.9238795325112867 0 -0.38268343236508984
    outer loop
      vertex 12.75 1 20
      vertex 13.409009742330268 1 21.59099025766973
      vertex 13.409009742330268 0 21.59099025766973
    endloop
  endfacet
  facet normal 0.3826834323650904 0 -0.9238795325112865
    outer loop
      vertex 13.409009742330268 1 21.59099025766973
      vertex 15 0 22.25
      vertex 13.409009742330268 0 21.59099025766973
    endloop
  endfacet
  facet normal 0.3826834323650904 0 -0.9238795325112865
    outer loop
      vertex 13.409009742330268 1 21.59099025766973
      vertex 15 1 22.25
      vertex 15 0 22.25
    endloop
  endfacet
  facet normal -0.3826834323650907 0 -0.9238795325112863
    outer loop
      vertex 15 1 22.25
      vertex 16.59099025766973 0 21.59099025766973
      vertex 15 0 22.25
    endloop
  endfacet
  facet normal -0.9238795325112863 0 -0.3826834323650907
    outer loop
      vertex 16.59099025766973 1 21.59099025766973
      vertex 17.25 0 20
      vertex 16.59099025766973 0 21.59099025766973
    endloop
  endfacet
  facet normal -0.9238795325112863 0 -0.3826834323650907
    outer loop
      vertex 17.25 1 20
      vertex 17.25 0 20
      vertex 16.59099025766973 1 21.59099025766973
    endloop
  endfacet
  facet normal -0.3826834323650907 0 -0.9238795325112863
    outer loop
      vertex 15 1 22.25
      vertex 16.59099025766973 1 21.59099025766973
      vertex 16.59099025766973 0 21.59099025766973
    endloop
  endfacet
  facet normal 0 1 0
    outer loop
      vertex 12.005957007315596 1 17.347509367036817
      vertex 11.116232730295792 1 19.04273734284977
      vertex 12.75 1 20
    endloop
  endfacet
  facet normal 0.88545602565321 0 0.4647231720437682
    outer loop
      vertex 12.005957007315596 1 17.347509367036817
      vertex 11.116232730295792 3 19.04273734284977
      vertex 11.116232730295792 1 19.04273734284977
    endloop
  endfacet
  facet normal 0.88545602565321 0 0.4647231720437682
    outer loop
      vertex 12.005957007315596 1 17.347509367036817
      vertex 12.005957007315596 3 17.347509367036817
      vertex 11.116232730295792 3 19.04273734284977
    endloop
  endfacet
  facet normal 1 0 0
    outer loop
      vertex 11.116232730295792 1 19.04273734284977
      vertex 11.116232730295792 3 19.04273734284977
      vertex 11.116232730295792 3 20.95726265715023
    endloop
  endfacet
  facet normal 0.5680647467311554 0 0.8229838658936568
    outer loop
      vertex 12.005957007315596 1 17.347509367036817
      vertex 13.581580451829858 1 16.25993502925834
      vertex 13.581580451829858 3 16.25993502925834
    endloop
  endfacet
  facet normal 0.5680647467311554 0 0.8229838658936568
    outer loop
      vertex 12.005957007315596 1 17.347509367036817
      vertex 13.581580451829858 3 16.25993502925834
      vertex 12.005957007315596 3 17.347509367036817
    endloop
  endfacet
  facet normal 0 1 0
    outer loop
      vertex 12.005957007315596 1 17.347509367036817
      vertex 17.272258986924626 1 16.708064536425375
      vertex 13.581580451829858 1 16.25993502925834
    endloop
  endfacet
  facet normal 0 1 0
    outer loop
      vertex 13.581580451829858 1 16.25993502925834
      vertex 17.272258986924626 1 16.708064536425375
      vertex 15.48214672102129 1 16.029164503607785
    endloop
  endfacet
  facet normal 0.12053668025532263 0 0.992708874098054
    outer loop
      vertex 13.581580451829858 1 16.25993502925834
      vertex 15.48214672102129 3 16.029164503607785
      vertex 13.581580451829858 3 16.25993502925834
    endloop
  endfacet
  facet normal 0.12053668025532263 0 0.992708874098054
    outer loop
      vertex 13.581580451829858 1 16.25993502925834
      vertex 15.48214672102129 1 16.029164503607785
      vertex 15.48214672102129 3 16.029164503607785
    endloop
  endfacet
  facet normal 0 1 0
    outer loop
      vertex 12.005957007315596 1 17.347509367036817
      vertex 12.75 1 20
      vertex 13.409009742330268 1 18.40900974233027
    endloop
  endfacet
  facet normal 0 1 0
    outer loop
      vertex 12.005957007315596 1 17.347509367036817
      vertex 13.409009742330268 1 18.40900974233027
      vertex 15 1 17.75
    endloop
  endfacet
  facet normal 0 1 0
    outer loop
      vertex 12.005957007315596 1 17.347509367036817
      vertex 15 1 17.75
      vertex 18.54182410261284 1 18.141107311824925
    endloop
  endfacet
  facet normal 0 1 0
    outer loop
      vertex 12.005957007315596 1 17.347509367036817
      vertex 18.54182410261284 1 18.141107311824925
      vertex 17.272258986924626 1 16.708064536425375
    endloop
  endfacet
  facet normal -0.35460488704253507 0 0.935016242685415
    outer loop
      vertex 15.48214672102129 1 16.029164503607785
      vertex 17.272258986924626 3 16.708064536425375
      vertex 15.48214672102129 3 16.029164503607785
    endloop
  endfacet
  facet normal -0.35460488704253507 0 0.935016242685415
    outer loop
      vertex 15.48214672102129 1 16.029164503607785
      vertex 17.272258986924626 1 16.708064536425375
      vertex 17.272258986924626 3 16.708064536425375
    endloop
  endfacet
  facet normal -0.7485107481711015 0 0.6631226582407946
    outer loop
      vertex 17.272258986924626 1 16.708064536425375
      vertex 18.54182410261284 1 18.141107311824925
      vertex 17.272258986924626 3 16.708064536425375
    endloop
  endfacet
  facet normal 0 1 0
    outer loop
      vertex 15 1 17.75
      vertex 16.59099025766973 1 18.40900974233027
      vertex 18.54182410261284 1 18.141107311824925
    endloop
  endfacet
  facet normal 0 1 0
    outer loop
      vertex 16.59099025766973 1 18.40900974233027
      vertex 17.25 1 20
      vertex 19 1 20
    endloop
  endfacet
  facet normal 0 1 0
    outer loop
      vertex 16.59099025766973 1 18.40900974233027
      vertex 19 1 20
      vertex 18.54182410261284 1 18.141107311824925
    endloop
  endfacet
  facet normal -0.7485107481711015 0 0.6631226582407946
    outer loop
      vertex 18.54182410261284 1 18.141107311824925
      vertex 18.54182410261284 3 18.141107311824925
      vertex 17.272258986924626 3 16.708064536425375
    endloop
  endfacet
  facet normal -0.970941817426052 0 0.23931566428755782
    outer loop
      vertex 18.54182410261284 1 18.141107311824925
      vertex 19 1 20
      vertex 18.54182410261284 3 18.141107311824925
    endloop
  endfacet
  facet normal -0.970941817426052 0 0.23931566428755782
    outer loop
      vertex 19 1 20
      vertex 19 3 20
      vertex 18.54182410261284 3 18.141107311824925
    endloop
  endfacet
  facet normal 0 1 0
    outer loop
      vertex 11.116232730295792 1 19.04273734284977
      vertex 11.116232730295792 1 20.95726265715023
      vertex 12.75 1 20
    endloop
  endfacet
  facet normal 0 1 0
    outer loop
      vertex 12.75 1 20
      vertex 11.116232730295792 1 20.95726265715023
      vertex 13.409009742330268 1 21.59099025766973
    endloop
  endfacet
  facet normal 0 1 0
    outer loop
      vertex 11.116232730295792 1 20.95726265715023
      vertex 12.005957007315596 1 22.652490632963183
      vertex 13.409009742330268 1 21.59099025766973
    endloop
  endfacet
  facet normal 1 0 0
    outer loop
      vertex 11.116232730295792 1 19.04273734284977
      vertex 11.116232730295792 3 20.95726265715023
      vertex 11.116232730295792 1 20.95726265715023
    endloop
  endfacet
  facet normal 0.88545602565321 0 -0.4647231720437682
    outer loop
      vertex 11.116232730295792 1 20.95726265715023
      vertex 12.005957007315596 3 22.652490632963183
      vertex 12.005957007315596 1 22.652490632963183
    endloop
  endfacet
  facet normal 0.88545602565321 0 -0.4647231720437682
    outer loop
      vertex 11.116232730295792 1 20.95726265715023
      vertex 11.116232730295792 3 20.95726265715023
      vertex 12.005957007315596 3 22.652490632963183
    endloop
  endfacet
  facet normal 0 1 0
    outer loop
      vertex 13.409009742330268 1 21.59099025766973
      vertex 12.005957007315596 1 22.652490632963183
      vertex 15 1 22.25
    endloop
  endfacet
  facet normal 0 1 0
    outer loop
      vertex 12.005957007315596 1 22.652490632963183
      vertex 18.54182410261284 1 21.858892688175075
      vertex 15 1 22.25
    endloop
  endfacet
  facet normal 0.5680647467311554 0 -0.8229838658936568
    outer loop
      vertex 12.005957007315596 1 22.652490632963183
      vertex 12.005957007315596 3 22.652490632963183
      vertex 13.581580451829858 1 23.74006497074166
    endloop
  endfacet
  facet normal 0.5680647467311554 0 -0.8229838658936568
    outer loop
      vertex 13.581580451829858 1 23.74006497074166
      vertex 12.005957007315596 3 22.652490632963183
      vertex 13.581580451829858 3 23.74006497074166
    endloop
  endfacet
  facet normal 0 1 0
    outer loop
      vertex 12.005957007315596 1 22.652490632963183
      vertex 13.581580451829858 1 23.74006497074166
      vertex 17.272258986924623 1 23.291935463574625
    endloop
  endfacet
  facet normal 0 1 0
    outer loop
      vertex 13.581580451829858 1 23.74006497074166
      vertex 15.482146721021293 1 23.970835496392215
      vertex 17.272258986924623 1 23.291935463574625
    endloop
  endfacet
  facet normal 0.1205366802553225 0 -0.992708874098054
    outer loop
      vertex 13.581580451829858 1 23.74006497074166
      vertex 13.581580451829858 3 23.74006497074166
      vertex 15.482146721021293 1 23.970835496392215
    endloop
  endfacet
  facet normal 0.1205366802553225 0 -0.992708874098054
    outer loop
      vertex 15.482146721021293 1 23.970835496392215
      vertex 13.581580451829858 3 23.74006497074166
      vertex 15.482146721021293 3 23.970835496392215
    endloop
  endfacet
  facet normal 0 1 0
    outer loop
      vertex 15 1 22.25
      vertex 18.54182410261284 1 21.858892688175075
      vertex 16.59099025766973 1 21.59099025766973
    endloop
  endfacet
  facet normal 0 1 0
    outer loop
      vertex 17.25 1 20
      vertex 16.59099025766973 1 21.59099025766973
      vertex 18.54182410261284 1 21.858892688175075
    endloop
  endfacet
  facet normal 0 1 0
    outer loop
      vertex 17.25 1 20
      vertex 18.54182410261284 1 21.858892688175075
      vertex 19 1 20
    endloop
  endfacet
  facet normal -0.970941817426052 0 -0.23931566428755782
    outer loop
      vertex 18.54182410261284 1 21.858892688175075
      vertex 18.54182410261284 3 21.858892688175075
      vertex 19 3 20
    endloop
  endfacet
  facet normal -0.7485107481711006 0 -0.6631226582407957
    outer loop
      vertex 18.54182410261284 1 21.858892688175075
      vertex 17.272258986924623 1 23.291935463574625
      vertex 18.54182410261284 3 21.858892688175075
    endloop
  endfacet
  facet normal 0 1 0
    outer loop
      vertex 12.005957007315596 1 22.652490632963183
      vertex 17.272258986924623 1 23.291935463574625
      vertex 18.54182410261284 1 21.858892688175075
    endloop
  endfacet
  facet normal -0.354604887042536 0 -0.9350162426854147
    outer loop
      vertex 15.482146721021293 1 23.970835496392215
      vertex 15.482146721021293 3 23.970835496392215
      vertex 17.272258986924623 1 23.291935463574625
    endloop
  endfacet
  facet normal -0.354604887042536 0 -0.9350162426854147
    outer loop
      vertex 17.272258986924623 1 23.291935463574625
      vertex 15.482146721021293 3 23.970835496392215
      vertex 17.272258986924623 3 23.291935463574625
    endloop
  endfacet
  facet normal -0.7485107481711006 0 -0.6631226582407957
    outer loop
      vertex 17.272258986924623 1 23.291935463574625
      vertex 17.272258986924623 3 23.291935463574625
      vertex 18.54182410261284 3 21.858892688175075
    endloop
  endfacet
  facet normal -0.970941817426052 0 -0.23931566428755782
    outer loop
      vertex 19 1 20
      vertex 18.54182410261284 1 21.858892688175075
      vertex 19 3 20
    endloop
  endfacet
endsolid OpenSCAD_Model
