solid OpenSCAD_Model
  facet normal -1 0 0
    outer loop
      vertex 0 0 -5
      vertex 0 0 -4
      vertex 0 1 -4
    endloop
  endfacet
  facet normal -1 0 0
    outer loop
      vertex 0 0 -5
      vertex 0 1 -4
      vertex 0 1 -5
    endloop
  endfacet
  facet normal 0 -1 0
    outer loop
      vertex 0 0 -5
      vertex 1 0 -4
      vertex 0 0 -4
    endloop
  endfacet
  facet normal 0 0 1
    outer loop
      vertex 0 0 -4
      vertex 1 0 -4
      vertex 0 1 -4
    endloop
  endfacet
  facet normal 0 0 -1
    outer loop
      vertex 0 0 -5
      vertex 0 1 -5
      vertex 1 1 -5
    endloop
  endfacet
  facet normal 0 1 0
    outer loop
      vertex 0 1 -5
      vertex 0 1 -4
      vertex 1 1 -5
    endloop
  endfacet
  facet normal 0 -1 0
    outer loop
      vertex 0 0 -5
      vertex 1 0 -5
      vertex 1 0 -4
    endloop
  endfacet
  facet normal 0 0 -1
    outer loop
      vertex 0 0 -5
      vertex 1 1 -5
      vertex 1 0 -5
    endloop
  endfacet
  facet normal 0 0 1
    outer loop
      vertex 0 1 -4
      vertex 1 0 -4
      vertex 1 1 -4
    endloop
  endfacet
  facet normal 0 1 0
    outer loop
      vertex 0 1 -4
      vertex 1 1 -4
      vertex 1 1 -5
    endloop
  endfacet
  facet normal 1 0 0
    outer loop
      vertex 1 0 -5
      vertex 1 1 -5
      vertex 1 0 -4
    endloop
  endfacet
  facet normal 1 0 0
    outer loop
      vertex 1 0 -4
      vertex 1 1 -5
      vertex 1 1 -4
    endloop
  endfacet
  facet normal -1 0 0
    outer loop
      vertex 0 -4 -24
      vertex 0 -5 -25
      vertex 0 -5 -24
    endloop
  endfacet
  facet normal -1 0 0
    outer loop
      vertex 0 -5 -25
      vertex 0 -4 -24
      vertex 0 -4 -25
    endloop
  endfacet
  facet normal 0 -1 0
    outer loop
      vertex 0 -5 -25
      vertex 1 -5 -24
      vertex 0 -5 -24
    endloop
  endfacet
  facet normal 0 0 1
    outer loop
      vertex 1 -5 -24
      vertex 0 -4 -24
      vertex 0 -5 -24
    endloop
  endfacet
  facet normal 0 0 -1
    outer loop
      vertex 1 -4 -25
      vertex 0 -5 -25
      vertex 0 -4 -25
    endloop
  endfacet
  facet normal 0 1 0
    outer loop
      vertex 0 -4 -24
      vertex 1 -4 -25
      vertex 0 -4 -25
    endloop
  endfacet
  facet normal -1 0 0
    outer loop
      vertex 0 -5 1
      vertex 0 -6 0
      vertex 0 -6 1
    endloop
  endfacet
  facet normal -1 0 0
    outer loop
      vertex 0 -6 0
      vertex 0 -5 1
      vertex 0 -5 0
    endloop
  endfacet
  facet normal 0 -1 0
    outer loop
      vertex 0 -6 0
      vertex 1 -6 1
      vertex 0 -6 1
    endloop
  endfacet
  facet normal 0 0 1
    outer loop
      vertex 1 -6 1
      vertex 0 -5 1
      vertex 0 -6 1
    endloop
  endfacet
  facet normal 0 0 -1
    outer loop
      vertex 1 -5 0
      vertex 0 -6 0
      vertex 0 -5 0
    endloop
  endfacet
  facet normal 0 1 0
    outer loop
      vertex 0 -5 1
      vertex 1 -5 0
      vertex 0 -5 0
    endloop
  endfacet
  facet normal 0 -1 0
    outer loop
      vertex 1 -5 -24
      vertex 0 -5 -25
      vertex 1 -5 -25
    endloop
  endfacet
  facet normal 0 0 -1
    outer loop
      vertex 0 -5 -25
      vertex 1 -4 -25
      vertex 1 -5 -25
    endloop
  endfacet
  facet normal 0 0 1
    outer loop
      vertex 0 -4 -24
      vertex 1 -5 -24
      vertex 1 -4 -24
    endloop
  endfacet
  facet normal 0 1 0
    outer loop
      vertex 1 -4 -25
      vertex 0 -4 -24
      vertex 1 -4 -24
    endloop
  endfacet
  facet normal 1 0 0
    outer loop
      vertex 1 -4 -25
      vertex 1 -5 -24
      vertex 1 -5 -25
    endloop
  endfacet
  facet normal 1 0 0
    outer loop
      vertex 1 -5 -24
      vertex 1 -4 -25
      vertex 1 -4 -24
    endloop
  endfacet
  facet normal 0 -1 0
    outer loop
      vertex 1 -6 1
      vertex 0 -6 0
      vertex 1 -6 0
    endloop
  endfacet
  facet normal 0 0 -1
    outer loop
      vertex 0 -6 0
      vertex 1 -5 0
      vertex 1 -6 0
    endloop
  endfacet
  facet normal 0 0 1
    outer loop
      vertex 0 -5 1
      vertex 1 -6 1
      vertex 1 -5 1
    endloop
  endfacet
  facet normal 0 1 0
    outer loop
      vertex 1 -5 0
      vertex 0 -5 1
      vertex 1 -5 1
    endloop
  endfacet
  facet normal 1 0 0
    outer loop
      vertex 1 -5 0
      vertex 1 -6 1
      vertex 1 -6 0
    endloop
  endfacet
  facet normal 1 0 0
    outer loop
      vertex 1 -6 1
      vertex 1 -5 0
      vertex 1 -5 1
    endloop
  endfacet
endsolid OpenSCAD_Model
