solid OpenSCAD_Model
  facet normal -0.8660254037844386 -0.5 0
    outer loop
      vertex -3.3 -5.715767664977294 0
      vertex -3.3 -5.715767664977294 5.3
      vertex -6.6 0 0
    endloop
  endfacet
  facet normal 0 0 1
    outer loop
      vertex -3.3 -5.715767664977294 5.3
      vertex -2.994042992684404 -2.652490632963181 5.3
      vertex -3.883767269704208 -0.9572626571502305 5.3
    endloop
  endfacet
  facet normal 0 0 -1
    outer loop
      vertex -3.3 -5.715767664977294 0
      vertex -6.6 0 0
      vertex -2.994042992684404 -2.652490632963181 0
    endloop
  endfacet
  facet normal 0 0 -1
    outer loop
      vertex -6.6 0 0
      vertex -3.883767269704208 -0.9572626571502305 0
      vertex -2.994042992684404 -2.652490632963181 0
    endloop
  endfacet
  facet normal -0.8660254037844386 -0.5 0
    outer loop
      vertex -3.3 -5.715767664977294 5.3
      vertex -6.6 0 5.3
      vertex -6.6 0 0
    endloop
  endfacet
  facet normal 0 0 1
    outer loop
      vertex -3.3 -5.715767664977294 5.3
      vertex -3.883767269704208 -0.9572626571502305 5.3
      vertex -6.6 0 5.3
    endloop
  endfacet
  facet normal 0 0 -1
    outer loop
      vertex -3.3 -5.715767664977294 0
      vertex -2.994042992684404 -2.652490632963181 0
      vertex -1.4184195481701427 -3.7400649707416593 0
    endloop
  endfacet
  facet normal 0 0 -1
    outer loop
      vertex -3.3 -5.715767664977294 0
      vertex -1.4184195481701427 -3.7400649707416593 0
      vertex 0.482146721021291 -3.9708354963922163 0
    endloop
  endfacet
  facet normal 0 0 1
    outer loop
      vertex -3.3 -5.715767664977294 5.3
      vertex -1.4184195481701427 -3.7400649707416593 5.3
      vertex -2.994042992684404 -2.652490632963181 5.3
    endloop
  endfacet
  facet normal 0 -1 0
    outer loop
      vertex -3.3 -5.715767664977294 0
      vertex 3.3 -5.715767664977294 5.3
      vertex -3.3 -5.715767664977294 5.3
    endloop
  endfacet
  facet normal 0 0 1
    outer loop
      vertex -3.3 -5.715767664977294 5.3
      vertex 0.482146721021291 -3.9708354963922163 5.3
      vertex -1.4184195481701427 -3.7400649707416593 5.3
    endloop
  endfacet
  facet normal 0 0 -1
    outer loop
      vertex -6.6 0 0
      vertex -3.883767269704208 0.9572626571502305 0
      vertex -3.883767269704208 -0.9572626571502305 0
    endloop
  endfacet
  facet normal 0 0 -1
    outer loop
      vertex -6.6 0 0
      vertex -2.994042992684404 2.652490632963181 0
      vertex -3.883767269704208 0.9572626571502305 0
    endloop
  endfacet
  facet normal 0 0 -1
    outer loop
      vertex -6.6 0 0
      vertex -3.3 5.715767664977294 0
      vertex -2.994042992684404 2.652490632963181 0
    endloop
  endfacet
  facet normal -0.8660254037844386 0.5 0
    outer loop
      vertex -6.6 0 0
      vertex -6.6 0 5.3
      vertex -3.3 5.715767664977294 5.3
    endloop
  endfacet
  facet normal 0 0 1
    outer loop
      vertex -6.6 0 5.3
      vertex -3.883767269704208 -0.9572626571502305 5.3
      vertex -3.883767269704208 0.9572626571502305 5.3
    endloop
  endfacet
  facet normal 0 0 1
    outer loop
      vertex -6.6 0 5.3
      vertex -3.883767269704208 0.9572626571502305 5.3
      vertex -2.994042992684404 2.652490632963181 5.3
    endloop
  endfacet
  facet normal 0 0 1
    outer loop
      vertex -6.6 0 5.3
      vertex -2.994042992684404 2.652490632963181 5.3
      vertex -3.3 5.715767664977294 5.3
    endloop
  endfacet
  facet normal -0.8660254037844386 0.5 0
    outer loop
      vertex -6.6 0 0
      vertex -3.3 5.715767664977294 5.3
      vertex -3.3 5.715767664977294 0
    endloop
  endfacet
  facet normal 0 0 -1
    outer loop
      vertex -3.3 5.715767664977294 0
      vertex -1.4184195481701427 3.7400649707416593 0
      vertex -2.994042992684404 2.652490632963181 0
    endloop
  endfacet
  facet normal 0 0 -1
    outer loop
      vertex -3.3 5.715767664977294 0
      vertex 3.3 5.715767664977294 0
      vertex -1.4184195481701427 3.7400649707416593 0
    endloop
  endfacet
  facet normal 0 0 1
    outer loop
      vertex -3.3 5.715767664977294 5.3
      vertex -2.994042992684404 2.652490632963181 5.3
      vertex -1.4184195481701427 3.7400649707416593 5.3
    endloop
  endfacet
  facet normal 0 0 1
    outer loop
      vertex -3.3 5.715767664977294 5.3
      vertex -1.4184195481701427 3.7400649707416593 5.3
      vertex 0.48214672102129197 3.970835496392216 5.3
    endloop
  endfacet
  facet normal 0 1 0
    outer loop
      vertex -3.3 5.715767664977294 0
      vertex -3.3 5.715767664977294 5.3
      vertex 3.3 5.715767664977294 5.3
    endloop
  endfacet
  facet normal 0 0 -1
    outer loop
      vertex -3.3 -5.715767664977294 0
      vertex 0.482146721021291 -3.9708354963922163 0
      vertex 3.3 -5.715767664977294 0
    endloop
  endfacet
  facet normal 0 -1 0
    outer loop
      vertex -3.3 -5.715767664977294 0
      vertex 3.3 -5.715767664977294 0
      vertex 3.3 -5.715767664977294 5.3
    endloop
  endfacet
  facet normal 0 0 -1
    outer loop
      vertex 3.3 -5.715767664977294 0
      vertex 0.482146721021291 -3.9708354963922163 0
      vertex 2.2722589869246246 -3.2919354635746245 0
    endloop
  endfacet
  facet normal 0 0 -1
    outer loop
      vertex 3.3 -5.715767664977294 0
      vertex 2.2722589869246246 -3.2919354635746245 0
      vertex 3.54182410261284 -1.8588926881750734 0
    endloop
  endfacet
  facet normal 0 0 1
    outer loop
      vertex -3.3 -5.715767664977294 5.3
      vertex 3.3 -5.715767664977294 5.3
      vertex 0.482146721021291 -3.9708354963922163 5.3
    endloop
  endfacet
  facet normal 0 0 1
    outer loop
      vertex 3.3 -5.715767664977294 5.3
      vertex 2.2722589869246246 -3.2919354635746245 5.3
      vertex 0.482146721021291 -3.9708354963922163 5.3
    endloop
  endfacet
  facet normal 0 0 1
    outer loop
      vertex 3.3 -5.715767664977294 5.3
      vertex 3.54182410261284 -1.8588926881750734 5.3
      vertex 2.2722589869246246 -3.2919354635746245 5.3
    endloop
  endfacet
  facet normal 0.8660254037844386 -0.5 0
    outer loop
      vertex 3.3 -5.715767664977294 0
      vertex 6.6 0 0
      vertex 3.3 -5.715767664977294 5.3
    endloop
  endfacet
  facet normal 0 0 -1
    outer loop
      vertex 3.3 -5.715767664977294 0
      vertex 3.54182410261284 -1.8588926881750734 0
      vertex 6.6 0 0
    endloop
  endfacet
  facet normal 0 0 -1
    outer loop
      vertex 6.6 0 0
      vertex 3.54182410261284 -1.8588926881750734 0
      vertex 4 0 0
    endloop
  endfacet
  facet normal 0 0 1
    outer loop
      vertex 3.3 -5.715767664977294 5.3
      vertex 6.6 0 5.3
      vertex 3.54182410261284 -1.8588926881750734 5.3
    endloop
  endfacet
  facet normal 0 0 1
    outer loop
      vertex 6.6 0 5.3
      vertex 4 0 5.3
      vertex 3.54182410261284 -1.8588926881750734 5.3
    endloop
  endfacet
  facet normal 0.8660254037844386 -0.5 0
    outer loop
      vertex 3.3 -5.715767664977294 5.3
      vertex 6.6 0 0
      vertex 6.6 0 5.3
    endloop
  endfacet
  facet normal 0 0 -1
    outer loop
      vertex 3.3 5.715767664977294 0
      vertex 0.48214672102129197 3.970835496392216 0
      vertex -1.4184195481701427 3.7400649707416593 0
    endloop
  endfacet
  facet normal 0 1 0
    outer loop
      vertex -3.3 5.715767664977294 0
      vertex 3.3 5.715767664977294 5.3
      vertex 3.3 5.715767664977294 0
    endloop
  endfacet
  facet normal 0 0 -1
    outer loop
      vertex 3.3 5.715767664977294 0
      vertex 3.5418241026128396 1.8588926881750742 0
      vertex 2.272258986924623 3.291935463574626 0
    endloop
  endfacet
  facet normal 0 0 -1
    outer loop
      vertex 3.3 5.715767664977294 0
      vertex 2.272258986924623 3.291935463574626 0
      vertex 0.48214672102129197 3.970835496392216 0
    endloop
  endfacet
  facet normal 0 0 1
    outer loop
      vertex -3.3 5.715767664977294 5.3
      vertex 0.48214672102129197 3.970835496392216 5.3
      vertex 3.3 5.715767664977294 5.3
    endloop
  endfacet
  facet normal 0 0 1
    outer loop
      vertex 3.3 5.715767664977294 5.3
      vertex 2.272258986924623 3.291935463574626 5.3
      vertex 3.5418241026128396 1.8588926881750742 5.3
    endloop
  endfacet
  facet normal 0 0 1
    outer loop
      vertex 3.3 5.715767664977294 5.3
      vertex 0.48214672102129197 3.970835496392216 5.3
      vertex 2.272258986924623 3.291935463574626 5.3
    endloop
  endfacet
  facet normal 0 0 -1
    outer loop
      vertex 6.6 0 0
      vertex 4 0 0
      vertex 3.5418241026128396 1.8588926881750742 0
    endloop
  endfacet
  facet normal 0 0 -1
    outer loop
      vertex 3.3 5.715767664977294 0
      vertex 6.6 0 0
      vertex 3.5418241026128396 1.8588926881750742 0
    endloop
  endfacet
  facet normal 0 0 1
    outer loop
      vertex 6.6 0 5.3
      vertex 3.5418241026128396 1.8588926881750742 5.3
      vertex 4 0 5.3
    endloop
  endfacet
  facet normal 0 0 1
    outer loop
      vertex 3.3 5.715767664977294 5.3
      vertex 3.5418241026128396 1.8588926881750742 5.3
      vertex 6.6 0 5.3
    endloop
  endfacet
  facet normal 0.8660254037844386 0.5 0
    outer loop
      vertex 6.6 0 0
      vertex 3.3 5.715767664977294 5.3
      vertex 6.6 0 5.3
    endloop
  endfacet
  facet normal 0.8660254037844386 0.5 0
    outer loop
      vertex 3.3 5.715767664977294 0
      vertex 3.3 5.715767664977294 5.3
      vertex 6.6 0 0
    endloop
  endfacet
  facet normal -0.8854560256532099 -0.4647231720437685 0
    outer loop
      vertex -3.883767269704208 -0.9572626571502305 -5.3
      vertex -2.994042992684404 -2.652490632963181 0
      vertex -3.883767269704208 -0.9572626571502305 0
    endloop
  endfacet
  facet normal -1 0 0
    outer loop
      vertex -3.883767269704208 -0.9572626571502305 -5.3
      vertex -3.883767269704208 -0.9572626571502305 0
      vertex -3.883767269704208 0.9572626571502305 -5.3
    endloop
  endfacet
  facet normal -0.5680647467311559 -0.8229838658936564 0
    outer loop
      vertex -2.994042992684404 -2.652490632963181 -5.3
      vertex -1.4184195481701427 -3.7400649707416593 -5.3
      vertex -1.4184195481701427 -3.7400649707416593 0
    endloop
  endfacet
  facet normal -0.5680647467311559 -0.8229838658936564 0
    outer loop
      vertex -2.994042992684404 -2.652490632963181 -5.3
      vertex -1.4184195481701427 -3.7400649707416593 0
      vertex -2.994042992684404 -2.652490632963181 0
    endloop
  endfacet
  facet normal -0.12053668025532327 -0.992708874098054 0
    outer loop
      vertex -1.4184195481701427 -3.7400649707416593 -5.3
      vertex 0.482146721021291 -3.9708354963922163 -5.3
      vertex 0.482146721021291 -3.9708354963922163 0
    endloop
  endfacet
  facet normal -0.12053668025532327 -0.992708874098054 0
    outer loop
      vertex -1.4184195481701427 -3.7400649707416593 -5.3
      vertex 0.482146721021291 -3.9708354963922163 0
      vertex -1.4184195481701427 -3.7400649707416593 0
    endloop
  endfacet
  facet normal -0.8854560256532099 -0.4647231720437685 0
    outer loop
      vertex -2.994042992684404 -2.652490632963181 -5.3
      vertex -2.994042992684404 -2.652490632963181 0
      vertex -3.883767269704208 -0.9572626571502305 -5.3
    endloop
  endfacet
  facet normal 0 0 -1
    outer loop
      vertex -2.994042992684404 -2.652490632963181 -5.3
      vertex -3.883767269704208 -0.9572626571502305 -5.3
      vertex -2.994042992684404 2.652490632963181 -5.3
    endloop
  endfacet
  facet normal 0 0 -1
    outer loop
      vertex -2.994042992684404 -2.652490632963181 -5.3
      vertex -1.4184195481701427 3.7400649707416593 -5.3
      vertex -1.4184195481701427 -3.7400649707416593 -5.3
    endloop
  endfacet
  facet normal 0 0 -1
    outer loop
      vertex -1.4184195481701427 -3.7400649707416593 -5.3
      vertex 0.48214672102129197 3.970835496392216 -5.3
      vertex 0.482146721021291 -3.9708354963922163 -5.3
    endloop
  endfacet
  facet normal -1 0 0
    outer loop
      vertex -3.883767269704208 -0.9572626571502305 24.7
      vertex -3.883767269704208 0.9572626571502305 5.3
      vertex -3.883767269704208 -0.9572626571502305 5.3
    endloop
  endfacet
  facet normal -0.8854560256532099 -0.46472317204376845 0
    outer loop
      vertex -2.994042992684404 -2.652490632963181 24.7
      vertex -3.883767269704208 -0.9572626571502305 24.7
      vertex -3.883767269704208 -0.9572626571502305 5.3
    endloop
  endfacet
  facet normal 0 0 1
    outer loop
      vertex -2.994042992684404 -2.652490632963181 24.7
      vertex -3.883767269704208 0.9572626571502305 24.7
      vertex -3.883767269704208 -0.9572626571502305 24.7
    endloop
  endfacet
  facet normal -0.5680647467311559 -0.8229838658936565 0
    outer loop
      vertex -1.4184195481701427 -3.7400649707416593 24.7
      vertex -2.994042992684404 -2.652490632963181 5.3
      vertex -1.4184195481701427 -3.7400649707416593 5.3
    endloop
  endfacet
  facet normal -0.12053668025532328 -0.992708874098054 0
    outer loop
      vertex 0.482146721021291 -3.9708354963922163 24.7
      vertex -1.4184195481701427 -3.7400649707416593 5.3
      vertex 0.482146721021291 -3.9708354963922163 5.3
    endloop
  endfacet
  facet normal -0.5680647467311559 -0.8229838658936565 0
    outer loop
      vertex -2.994042992684404 -2.652490632963181 24.7
      vertex -2.994042992684404 -2.652490632963181 5.3
      vertex -1.4184195481701427 -3.7400649707416593 24.7
    endloop
  endfacet
  facet normal -0.12053668025532328 -0.992708874098054 0
    outer loop
      vertex -1.4184195481701427 -3.7400649707416593 24.7
      vertex -1.4184195481701427 -3.7400649707416593 5.3
      vertex 0.482146721021291 -3.9708354963922163 24.7
    endloop
  endfacet
  facet normal -0.8854560256532099 -0.46472317204376845 0
    outer loop
      vertex -2.994042992684404 -2.652490632963181 24.7
      vertex -3.883767269704208 -0.9572626571502305 5.3
      vertex -2.994042992684404 -2.652490632963181 5.3
    endloop
  endfacet
  facet normal 0 0 1
    outer loop
      vertex -2.994042992684404 -2.652490632963181 24.7
      vertex -1.4184195481701427 -3.7400649707416593 24.7
      vertex -2.994042992684404 2.652490632963181 24.7
    endloop
  endfacet
  facet normal 0 0 1
    outer loop
      vertex -1.4184195481701427 -3.7400649707416593 24.7
      vertex 0.482146721021291 -3.9708354963922163 24.7
      vertex -1.4184195481701427 3.7400649707416593 24.7
    endloop
  endfacet
  facet normal -1 0 0
    outer loop
      vertex -3.883767269704208 0.9572626571502305 -5.3
      vertex -3.883767269704208 -0.9572626571502305 0
      vertex -3.883767269704208 0.9572626571502305 0
    endloop
  endfacet
  facet normal 0 0 -1
    outer loop
      vertex -3.883767269704208 -0.9572626571502305 -5.3
      vertex -3.883767269704208 0.9572626571502305 -5.3
      vertex -2.994042992684404 2.652490632963181 -5.3
    endloop
  endfacet
  facet normal -0.8854560256532099 0.4647231720437685 0
    outer loop
      vertex -3.883767269704208 0.9572626571502305 -5.3
      vertex -3.883767269704208 0.9572626571502305 0
      vertex -2.994042992684404 2.652490632963181 -5.3
    endloop
  endfacet
  facet normal 0 0 -1
    outer loop
      vertex -2.994042992684404 -2.652490632963181 -5.3
      vertex -2.994042992684404 2.652490632963181 -5.3
      vertex -1.4184195481701427 3.7400649707416593 -5.3
    endloop
  endfacet
  facet normal -0.8854560256532099 0.4647231720437685 0
    outer loop
      vertex -2.994042992684404 2.652490632963181 -5.3
      vertex -3.883767269704208 0.9572626571502305 0
      vertex -2.994042992684404 2.652490632963181 0
    endloop
  endfacet
  facet normal 0 0 -1
    outer loop
      vertex -1.4184195481701427 -3.7400649707416593 -5.3
      vertex -1.4184195481701427 3.7400649707416593 -5.3
      vertex 0.48214672102129197 3.970835496392216 -5.3
    endloop
  endfacet
  facet normal -0.5680647467311559 0.8229838658936564 0
    outer loop
      vertex -2.994042992684404 2.652490632963181 -5.3
      vertex -2.994042992684404 2.652490632963181 0
      vertex -1.4184195481701427 3.7400649707416593 -5.3
    endloop
  endfacet
  facet normal -0.5680647467311559 0.8229838658936564 0
    outer loop
      vertex -1.4184195481701427 3.7400649707416593 -5.3
      vertex -2.994042992684404 2.652490632963181 0
      vertex -1.4184195481701427 3.7400649707416593 0
    endloop
  endfacet
  facet normal -0.12053668025532299 0.992708874098054 0
    outer loop
      vertex -1.4184195481701427 3.7400649707416593 -5.3
      vertex -1.4184195481701427 3.7400649707416593 0
      vertex 0.48214672102129197 3.970835496392216 -5.3
    endloop
  endfacet
  facet normal -0.12053668025532299 0.992708874098054 0
    outer loop
      vertex 0.48214672102129197 3.970835496392216 -5.3
      vertex -1.4184195481701427 3.7400649707416593 0
      vertex 0.48214672102129197 3.970835496392216 0
    endloop
  endfacet
  facet normal -0.8854560256532099 0.46472317204376845 0
    outer loop
      vertex -3.883767269704208 0.9572626571502305 24.7
      vertex -2.994042992684404 2.652490632963181 5.3
      vertex -3.883767269704208 0.9572626571502305 5.3
    endloop
  endfacet
  facet normal -1 0 0
    outer loop
      vertex -3.883767269704208 -0.9572626571502305 24.7
      vertex -3.883767269704208 0.9572626571502305 24.7
      vertex -3.883767269704208 0.9572626571502305 5.3
    endloop
  endfacet
  facet normal 0 0 1
    outer loop
      vertex -2.994042992684404 -2.652490632963181 24.7
      vertex -2.994042992684404 2.652490632963181 24.7
      vertex -3.883767269704208 0.9572626571502305 24.7
    endloop
  endfacet
  facet normal 0 0 1
    outer loop
      vertex -1.4184195481701427 -3.7400649707416593 24.7
      vertex -1.4184195481701427 3.7400649707416593 24.7
      vertex -2.994042992684404 2.652490632963181 24.7
    endloop
  endfacet
  facet normal -0.8854560256532099 0.46472317204376845 0
    outer loop
      vertex -3.883767269704208 0.9572626571502305 24.7
      vertex -2.994042992684404 2.652490632963181 24.7
      vertex -2.994042992684404 2.652490632963181 5.3
    endloop
  endfacet
  facet normal 0 0 1
    outer loop
      vertex -1.4184195481701427 3.7400649707416593 24.7
      vertex 0.482146721021291 -3.9708354963922163 24.7
      vertex 0.48214672102129197 3.970835496392216 24.7
    endloop
  endfacet
  facet normal -0.5680647467311559 0.8229838658936565 0
    outer loop
      vertex -2.994042992684404 2.652490632963181 24.7
      vertex -1.4184195481701427 3.7400649707416593 5.3
      vertex -2.994042992684404 2.652490632963181 5.3
    endloop
  endfacet
  facet normal -0.12053668025532299 0.992708874098054 0
    outer loop
      vertex -1.4184195481701427 3.7400649707416593 24.7
      vertex 0.48214672102129197 3.970835496392216 5.3
      vertex -1.4184195481701427 3.7400649707416593 5.3
    endloop
  endfacet
  facet normal -0.5680647467311559 0.8229838658936565 0
    outer loop
      vertex -2.994042992684404 2.652490632963181 24.7
      vertex -1.4184195481701427 3.7400649707416593 24.7
      vertex -1.4184195481701427 3.7400649707416593 5.3
    endloop
  endfacet
  facet normal -0.12053668025532299 0.992708874098054 0
    outer loop
      vertex -1.4184195481701427 3.7400649707416593 24.7
      vertex 0.48214672102129197 3.970835496392216 24.7
      vertex 0.48214672102129197 3.970835496392216 5.3
    endloop
  endfacet
  facet normal 0.35460488704253584 -0.9350162426854147 0
    outer loop
      vertex 0.482146721021291 -3.9708354963922163 -5.3
      vertex 2.2722589869246246 -3.2919354635746245 0
      vertex 0.482146721021291 -3.9708354963922163 0
    endloop
  endfacet
  facet normal 0.35460488704253584 -0.9350162426854147 0
    outer loop
      vertex 0.482146721021291 -3.9708354963922163 -5.3
      vertex 2.2722589869246246 -3.2919354635746245 -5.3
      vertex 2.2722589869246246 -3.2919354635746245 0
    endloop
  endfacet
  facet normal 0.7485107481711013 -0.6631226582407951 0
    outer loop
      vertex 2.2722589869246246 -3.2919354635746245 -5.3
      vertex 3.54182410261284 -1.8588926881750734 -5.3
      vertex 3.54182410261284 -1.8588926881750734 0
    endloop
  endfacet
  facet normal 0.7485107481711013 -0.6631226582407951 0
    outer loop
      vertex 2.2722589869246246 -3.2919354635746245 -5.3
      vertex 3.54182410261284 -1.8588926881750734 0
      vertex 2.2722589869246246 -3.2919354635746245 0
    endloop
  endfacet
  facet normal 0 0 -1
    outer loop
      vertex 0.482146721021291 -3.9708354963922163 -5.3
      vertex 2.272258986924623 3.291935463574626 -5.3
      vertex 2.2722589869246246 -3.2919354635746245 -5.3
    endloop
  endfacet
  facet normal 0 0 -1
    outer loop
      vertex 2.2722589869246246 -3.2919354635746245 -5.3
      vertex 3.5418241026128396 1.8588926881750742 -5.3
      vertex 3.54182410261284 -1.8588926881750734 -5.3
    endloop
  endfacet
  facet normal 0.970941817426052 -0.2393156642875576 0
    outer loop
      vertex 3.54182410261284 -1.8588926881750734 -5.3
      vertex 4 0 0
      vertex 3.54182410261284 -1.8588926881750734 0
    endloop
  endfacet
  facet normal 0.970941817426052 -0.2393156642875576 0
    outer loop
      vertex 3.54182410261284 -1.8588926881750734 -5.3
      vertex 4 0 -5.3
      vertex 4 0 0
    endloop
  endfacet
  facet normal 0.3546048870425359 -0.9350162426854148 0
    outer loop
      vertex 2.2722589869246246 -3.2919354635746245 24.7
      vertex 0.482146721021291 -3.9708354963922163 5.3
      vertex 2.2722589869246246 -3.2919354635746245 5.3
    endloop
  endfacet
  facet normal 0.3546048870425359 -0.9350162426854148 0
    outer loop
      vertex 0.482146721021291 -3.9708354963922163 24.7
      vertex 0.482146721021291 -3.9708354963922163 5.3
      vertex 2.2722589869246246 -3.2919354635746245 24.7
    endloop
  endfacet
  facet normal 0.7485107481711012 -0.663122658240795 0
    outer loop
      vertex 3.54182410261284 -1.8588926881750734 24.7
      vertex 2.2722589869246246 -3.2919354635746245 5.3
      vertex 3.54182410261284 -1.8588926881750734 5.3
    endloop
  endfacet
  facet normal 0 0 1
    outer loop
      vertex 0.482146721021291 -3.9708354963922163 24.7
      vertex 2.2722589869246246 -3.2919354635746245 24.7
      vertex 0.48214672102129197 3.970835496392216 24.7
    endloop
  endfacet
  facet normal 0.7485107481711012 -0.663122658240795 0
    outer loop
      vertex 2.2722589869246246 -3.2919354635746245 24.7
      vertex 2.2722589869246246 -3.2919354635746245 5.3
      vertex 3.54182410261284 -1.8588926881750734 24.7
    endloop
  endfacet
  facet normal 0 0 1
    outer loop
      vertex 2.2722589869246246 -3.2919354635746245 24.7
      vertex 3.54182410261284 -1.8588926881750734 24.7
      vertex 2.272258986924623 3.291935463574626 24.7
    endloop
  endfacet
  facet normal 0.970941817426052 -0.23931566428755763 0
    outer loop
      vertex 4 0 24.7
      vertex 3.54182410261284 -1.8588926881750734 5.3
      vertex 4 0 5.3
    endloop
  endfacet
  facet normal 0.970941817426052 -0.23931566428755763 0
    outer loop
      vertex 3.54182410261284 -1.8588926881750734 24.7
      vertex 3.54182410261284 -1.8588926881750734 5.3
      vertex 4 0 24.7
    endloop
  endfacet
  facet normal 0 0 -1
    outer loop
      vertex 0.482146721021291 -3.9708354963922163 -5.3
      vertex 0.48214672102129197 3.970835496392216 -5.3
      vertex 2.272258986924623 3.291935463574626 -5.3
    endloop
  endfacet
  facet normal 0 0 -1
    outer loop
      vertex 2.2722589869246246 -3.2919354635746245 -5.3
      vertex 2.272258986924623 3.291935463574626 -5.3
      vertex 3.5418241026128396 1.8588926881750742 -5.3
    endloop
  endfacet
  facet normal 0.748510748171101 0.6631226582407953 0
    outer loop
      vertex 3.5418241026128396 1.8588926881750742 -5.3
      vertex 2.272258986924623 3.291935463574626 -5.3
      vertex 2.272258986924623 3.291935463574626 0
    endloop
  endfacet
  facet normal 0.748510748171101 0.6631226582407953 0
    outer loop
      vertex 3.5418241026128396 1.8588926881750742 -5.3
      vertex 2.272258986924623 3.291935463574626 0
      vertex 3.5418241026128396 1.8588926881750742 0
    endloop
  endfacet
  facet normal 0.35460488704253545 0.9350162426854149 0
    outer loop
      vertex 0.48214672102129197 3.970835496392216 -5.3
      vertex 0.48214672102129197 3.970835496392216 0
      vertex 2.272258986924623 3.291935463574626 -5.3
    endloop
  endfacet
  facet normal 0.35460488704253545 0.9350162426854149 0
    outer loop
      vertex 2.272258986924623 3.291935463574626 -5.3
      vertex 0.48214672102129197 3.970835496392216 0
      vertex 2.272258986924623 3.291935463574626 0
    endloop
  endfacet
  facet normal 0 0 -1
    outer loop
      vertex 3.54182410261284 -1.8588926881750734 -5.3
      vertex 3.5418241026128396 1.8588926881750742 -5.3
      vertex 4 0 -5.3
    endloop
  endfacet
  facet normal 0.970941817426052 0.23931566428755774 0
    outer loop
      vertex 4 0 -5.3
      vertex 3.5418241026128396 1.8588926881750742 0
      vertex 4 0 0
    endloop
  endfacet
  facet normal 0.970941817426052 0.23931566428755774 0
    outer loop
      vertex 4 0 -5.3
      vertex 3.5418241026128396 1.8588926881750742 -5.3
      vertex 3.5418241026128396 1.8588926881750742 0
    endloop
  endfacet
  facet normal 0.748510748171101 0.6631226582407953 0
    outer loop
      vertex 2.272258986924623 3.291935463574626 24.7
      vertex 3.5418241026128396 1.8588926881750742 5.3
      vertex 2.272258986924623 3.291935463574626 5.3
    endloop
  endfacet
  facet normal 0 0 1
    outer loop
      vertex 2.2722589869246246 -3.2919354635746245 24.7
      vertex 2.272258986924623 3.291935463574626 24.7
      vertex 0.48214672102129197 3.970835496392216 24.7
    endloop
  endfacet
  facet normal 0 0 1
    outer loop
      vertex 3.54182410261284 -1.8588926881750734 24.7
      vertex 3.5418241026128396 1.8588926881750742 24.7
      vertex 2.272258986924623 3.291935463574626 24.7
    endloop
  endfacet
  facet normal 0.748510748171101 0.6631226582407953 0
    outer loop
      vertex 3.5418241026128396 1.8588926881750742 24.7
      vertex 3.5418241026128396 1.8588926881750742 5.3
      vertex 2.272258986924623 3.291935463574626 24.7
    endloop
  endfacet
  facet normal 0.35460488704253545 0.9350162426854148 0
    outer loop
      vertex 0.48214672102129197 3.970835496392216 24.7
      vertex 2.272258986924623 3.291935463574626 5.3
      vertex 0.48214672102129197 3.970835496392216 5.3
    endloop
  endfacet
  facet normal 0.35460488704253545 0.9350162426854148 0
    outer loop
      vertex 0.48214672102129197 3.970835496392216 24.7
      vertex 2.272258986924623 3.291935463574626 24.7
      vertex 2.272258986924623 3.291935463574626 5.3
    endloop
  endfacet
  facet normal 0.970941817426052 0.23931566428755774 0
    outer loop
      vertex 3.5418241026128396 1.8588926881750742 24.7
      vertex 4 0 5.3
      vertex 3.5418241026128396 1.8588926881750742 5.3
    endloop
  endfacet
  facet normal 0.970941817426052 0.23931566428755774 0
    outer loop
      vertex 4 0 24.7
      vertex 4 0 5.3
      vertex 3.5418241026128396 1.8588926881750742 24.7
    endloop
  endfacet
  facet normal 0 0 1
    outer loop
      vertex 3.54182410261284 -1.8588926881750734 24.7
      vertex 4 0 24.7
      vertex 3.5418241026128396 1.8588926881750742 24.7
    endloop
  endfacet
endsolid OpenSCAD_Model
